<?xml version="1.0" encoding="UTF-8" standalone="no"?>
<!-- Created with Inkscape (http://www.inkscape.org/) -->

<svg
   xmlns:dc="http://purl.org/dc/elements/1.1/"
   xmlns:cc="http://creativecommons.org/ns#"
   xmlns:rdf="http://www.w3.org/1999/02/22-rdf-syntax-ns#"
   xmlns:svg="http://www.w3.org/2000/svg"
   xmlns="http://www.w3.org/2000/svg"
   xmlns:sodipodi="http://sodipodi.sourceforge.net/DTD/sodipodi-0.dtd"
   xmlns:inkscape="http://www.inkscape.org/namespaces/inkscape"
   width="210mm"
   height="297mm"
   viewBox="0 0 744.09448819 1052.3622047"
   id="svg27274"
   version="1.1"
   inkscape:version="0.91 r13725"
   sodipodi:docname="body10.svg">
  <defs
     id="defs27276" />
  <sodipodi:namedview
     id="base"
     pagecolor="#ffffff"
     bordercolor="#666666"
     borderopacity="1.0"
     inkscape:pageopacity="0.0"
     inkscape:pageshadow="2"
     inkscape:zoom="0.24748737"
     inkscape:cx="447.07674"
     inkscape:cy="614.86242"
     inkscape:document-units="px"
     inkscape:current-layer="layer1"
     showgrid="false"
     inkscape:window-width="458"
     inkscape:window-height="626"
     inkscape:window-x="906"
     inkscape:window-y="0"
     inkscape:window-maximized="0" />
  <metadata
     id="metadata27279">
    <rdf:RDF>
      <cc:Work
         rdf:about="">
        <dc:format>image/svg+xml</dc:format>
        <dc:type
           rdf:resource="http://purl.org/dc/dcmitype/StillImage" />
        <dc:title></dc:title>
      </cc:Work>
    </rdf:RDF>
  </metadata>
  <g
     inkscape:label="Layer 1"
     inkscape:groupmode="layer"
     id="layer1">
    <g
       id="g27990">
      <path
         sodipodi:nodetypes="ccccccccccccc"
         inkscape:connector-curvature="0"
         id="path32885"
         d="m 272.95254,119.07224 c -32.28901,14.92804 -64.05954,85.3815 -27.12294,108.02276 30.84638,13.24674 56.40614,7.5966 82.40483,46.29078 30.07791,29.62301 64.97471,-21.52211 86.66546,11.59911 -28.44089,-14.06811 -45.72273,25.26342 -10.62883,50.49762 5.61593,138.21918 -0.13483,550.4772 -4.65194,608.33133 13.38528,9.97904 21.41593,-0.53107 21.41593,-0.53107 2.31213,-156.61316 7.85656,-441.36446 3.44687,-569.83394 4.94542,-41.71 12.56515,-53.39755 50.1789,-60.45854 41.78471,-1.62772 49.32312,-46.9227 44.67117,-76.06114 21.47965,-13.67323 4.83942,-88.06762 -33.49343,-90.77962 -12.44115,-38.04757 -58.73315,-51.531392 -93.63887,-48.62915 -33.10953,1.552969 -76.58884,8.63797 -119.24715,21.55186 z"
         style="fill:#000000;fill-opacity:1;fill-rule:evenodd;stroke:none;stroke-width:1px;stroke-linecap:butt;stroke-linejoin:miter;stroke-opacity:1" />
      <path
         sodipodi:nodetypes="csccccccccccccccsccccccccc"
         inkscape:connector-curvature="0"
         id="path33068"
         d="m 454.47378,148.67466 c -4.0039,2.38619 2.21974,4.86661 5.51416,10.67956 3.7215,6.56645 6.75416,16.32524 4.60836,23.962 -3.40095,19.66667 -33.11786,29.51727 -47.84917,38.95664 -22.41786,16.1035 -47.06449,35.35208 -72.51025,46.55879 -25.75056,10.18533 -53.6928,11.84604 -81.07584,10.9964 -11.23967,1.71748 -13.39001,5.68836 -4.4477,7.78774 14.08958,-0.10164 32.23984,2.681 48.07647,-1.24567 24.34352,-3.16072 48.13394,-10.96882 68.24854,-25.32542 12.93501,-7.09058 29.6637,-5.4313 43.39994,-1.24377 9.71421,3.18029 18.76357,8.91942 23.35013,18.79906 3.16152,6.81009 1.84244,13.10921 3.56336,19.87336 4.30698,6.87025 5.85271,-15.63525 1.13788,-23.5407 -8.20689,-16.2409 -34.39076,-26.89484 -55.00456,-24.34611 9.97281,-10.31334 24.55307,-11.95958 38.14692,-11.03837 28.08532,-1.12955 45.87406,30.36806 72.21871,29.64445 4.23413,-0.76733 4.24486,-2.73034 2.05982,-3.57211 -2.45725,-0.94664 -6.88264,-2.32207 -10.30333,-3.10226 -11.77288,-3.16506 -31.13314,-15.9861 -34.1515,-21.72614 14.8689,0.47318 30.70758,-7.00386 37.16404,-20.58964 2.0285,-12.29748 -18.12129,16.56226 -28.69713,11.13036 17.43153,-8.96198 28.91532,-52.43762 20.02666,-49.36606 -1.76852,22.28203 -13.1474,38.61743 -26.96336,44.97375 -19.55746,8.99783 -42.21023,2.02266 -33.94216,-1.60945 17.75543,-7.12335 43.86946,-26.36607 44.10209,-46.81528 0.20557,-12.05083 -11.08471,-29.89287 -16.67208,-29.84113 z"
         style="fill:#ffffff;fill-opacity:1;fill-rule:nonzero;stroke:none;stroke-width:1px;stroke-linecap:butt;stroke-linejoin:miter;stroke-opacity:1" />
    </g>
  </g>
</svg>
