<?xml version="1.0" encoding="UTF-8" standalone="no"?>
<!-- Created with Inkscape (http://www.inkscape.org/) -->

<svg
   xmlns:dc="http://purl.org/dc/elements/1.1/"
   xmlns:cc="http://creativecommons.org/ns#"
   xmlns:rdf="http://www.w3.org/1999/02/22-rdf-syntax-ns#"
   xmlns:svg="http://www.w3.org/2000/svg"
   xmlns="http://www.w3.org/2000/svg"
   xmlns:sodipodi="http://sodipodi.sourceforge.net/DTD/sodipodi-0.dtd"
   xmlns:inkscape="http://www.inkscape.org/namespaces/inkscape"
   width="210mm"
   height="297mm"
   viewBox="0 0 744.09448819 1052.3622047"
   id="svg8089"
   version="1.1"
   inkscape:version="0.91 r13725"
   sodipodi:docname="body2.svg">
  <defs
     id="defs8091" />
  <sodipodi:namedview
     id="base"
     pagecolor="#ffffff"
     bordercolor="#666666"
     borderopacity="1.0"
     inkscape:pageopacity="0.0"
     inkscape:pageshadow="2"
     inkscape:zoom="0.24748737"
     inkscape:cx="400.53513"
     inkscape:cy="822.99233"
     inkscape:document-units="px"
     inkscape:current-layer="layer1"
     showgrid="false"
     inkscape:window-width="464"
     inkscape:window-height="595"
     inkscape:window-x="900"
     inkscape:window-y="7"
     inkscape:window-maximized="0" />
  <metadata
     id="metadata8094">
    <rdf:RDF>
      <cc:Work
         rdf:about="">
        <dc:format>image/svg+xml</dc:format>
        <dc:type
           rdf:resource="http://purl.org/dc/dcmitype/StillImage" />
        <dc:title></dc:title>
      </cc:Work>
    </rdf:RDF>
  </metadata>
  <g
     inkscape:label="Layer 1"
     inkscape:groupmode="layer"
     id="layer1">
    <g
       style="display:inline;opacity:1"
       id="g34121"
       transform="matrix(-4.0657291,-0.77471816,-0.77471816,4.0657291,-1294.7064,-3952.1296)">
      <path
         sodipodi:nodetypes="cccccscccc"
         inkscape:connector-curvature="0"
         id="path34101"
         d="m -527.534,910.49723 c -9.61872,-19.72729 -38.65037,-19.15572 -60.62266,-22.12462 -15.45904,-4.24456 -33.41083,-21.32254 -48.09607,1.13785 -7.54064,12.98901 -8.99347,27.6875 -11.03743,42.36656 -1.73327,25.41336 0.50498,51.24616 -4.5375,76.33028 -9.56809,15.701 -8.9302,54.166 2.21095,71.7528 6.44969,10.1812 19.57355,11.7883 28.10041,2.0186 3.1547,7.5864 11.44722,14.1488 23.95146,11.1749 13.90271,-2.7327 19.51694,-13.3645 15.93514,-24.5992 -15.17738,-79.20592 71.84705,-125.10848 54.0957,-158.05717 z"
         style="fill:#000000;fill-opacity:1;fill-rule:evenodd;stroke:none;stroke-width:0.67089915px;stroke-linecap:butt;stroke-linejoin:miter;stroke-opacity:1" />
      <path
         sodipodi:nodetypes="cccccccc"
         inkscape:connector-curvature="0"
         id="path34109"
         d="m -621.42349,1069.9617 c -0.0107,1.9958 0.0716,3.9987 -0.12613,5.9865 -0.0763,5.4256 0.39528,5.4605 0.0255,6.5562 -0.57702,-1.151 -0.33447,-2.5393 -0.47435,-3.7949 0.11412,-1.5928 0.0302,-3.1873 0.20612,-4.775 0.003,-1.3402 -0.009,-2.6813 -0.0103,-4.0225 0.0548,-0.2064 0.41534,-0.1785 0.37897,0.05 z"
         style="fill:#ffffff;fill-opacity:1;fill-rule:nonzero;stroke:none;stroke-width:1px;stroke-linecap:butt;stroke-linejoin:miter;stroke-opacity:1" />
      <path
         inkscape:connector-curvature="0"
         d="m -596.52519,911.7241 c -2.32086,3.38487 -3.44857,7.4045 -4.57364,11.30352 -0.80454,3.71684 -1.60005,7.46876 -2.07492,11.24602 -0.51867,4.12567 -0.63435,8.29213 -0.69446,12.44315 0.31151,4.77939 0.82641,9.55889 2.2867,14.14467 0.51264,1.60986 1.3577,3.39484 2.05086,4.94419 0.29355,0.56865 1.38895,2.74191 1.80932,3.38055 0.23654,0.35937 0.53992,0.66999 0.80988,1.00499 0.41264,0.61181 -0.45259,1.19537 -0.86523,0.58356 l 0,0 c -0.88954,-1.52093 -1.91334,-2.95264 -2.70915,-4.52945 -0.82428,-1.86673 -1.44018,-3.12866 -2.05553,-5.11189 -1.45102,-4.6765 -2.21789,-9.52101 -2.13505,-14.42215 -0.0535,-1.38989 -0.1903,-2.77907 -0.16055,-4.16968 0.0302,-1.4114 0.2239,-2.81456 0.34005,-4.2215 0.11515,-1.39493 0.1919,-2.79382 0.35384,-4.18409 0.44559,-3.82557 1.18979,-7.62817 2.14913,-11.35578 0.2766,-1.04465 0.51229,-2.10101 0.82981,-3.13396 0.74775,-2.43252 0.99178,-2.70158 1.95053,-4.9271 0.57436,-1.33325 1.03293,-2.70152 2.07526,-3.76148 0.54195,-0.43356 1.1551,0.33287 0.61315,0.76643 z"
         id="path34119"
         style="fill:#ffffff;fill-opacity:1;fill-rule:nonzero;stroke:none;stroke-width:1px;stroke-linecap:butt;stroke-linejoin:miter;stroke-opacity:1" />
    </g>
  </g>
</svg>
