<?xml version="1.0" encoding="UTF-8" standalone="no"?>
<!-- Created with Inkscape (http://www.inkscape.org/) -->

<svg
   xmlns:dc="http://purl.org/dc/elements/1.1/"
   xmlns:cc="http://creativecommons.org/ns#"
   xmlns:rdf="http://www.w3.org/1999/02/22-rdf-syntax-ns#"
   xmlns:svg="http://www.w3.org/2000/svg"
   xmlns="http://www.w3.org/2000/svg"
   xmlns:sodipodi="http://sodipodi.sourceforge.net/DTD/sodipodi-0.dtd"
   xmlns:inkscape="http://www.inkscape.org/namespaces/inkscape"
   width="210mm"
   height="297mm"
   viewBox="0 0 744.09448819 1052.3622047"
   id="svg27274"
   version="1.1"
   inkscape:version="0.91 r13725"
   sodipodi:docname="body18.svg">
  <defs
     id="defs27276" />
  <sodipodi:namedview
     id="base"
     pagecolor="#ffffff"
     bordercolor="#666666"
     borderopacity="1.0"
     inkscape:pageopacity="0.0"
     inkscape:pageshadow="2"
     inkscape:zoom="0.24748737"
     inkscape:cx="255.42887"
     inkscape:cy="876.26117"
     inkscape:document-units="px"
     inkscape:current-layer="layer1"
     showgrid="false"
     inkscape:window-width="458"
     inkscape:window-height="626"
     inkscape:window-x="906"
     inkscape:window-y="0"
     inkscape:window-maximized="0" />
  <metadata
     id="metadata27279">
    <rdf:RDF>
      <cc:Work
         rdf:about="">
        <dc:format>image/svg+xml</dc:format>
        <dc:type
           rdf:resource="http://purl.org/dc/dcmitype/StillImage" />
        <dc:title></dc:title>
      </cc:Work>
    </rdf:RDF>
  </metadata>
  <g
     inkscape:label="Layer 1"
     inkscape:groupmode="layer"
     id="layer1">
    <path
       style="display:inline;opacity:1;fill:#000000;fill-opacity:1;fill-rule:nonzero;stroke:none;stroke-width:1;stroke-linecap:butt;stroke-linejoin:miter;stroke-miterlimit:4;stroke-dasharray:none;stroke-opacity:1"
       id="path14802"
       d="m 347.60105,295.96701 c -0.31033,-4.89523 -1.72961,-9.61106 -2.49163,-14.417 -0.56162,-0.99862 -1.37346,-2.21532 -1.59462,-3.39201 -0.10538,-0.55581 0.14735,-1.16164 -0.0357,-1.69741 -0.14958,-0.44517 -0.62775,-0.70116 -0.90856,-1.07806 -0.9488,-1.27447 -0.76233,-1.08154 -1.25108,-2.52395 -1.34878,-2.1579 -2.88514,-4.16907 -4.32567,-6.25789 -1.1052,-2.17675 -2.92835,-3.86032 -4.33674,-5.84408 -2.03055,-1.44897 -3.51565,-3.64049 -5.47007,-5.23641 0.0357,-0.33712 -4.71494,-3.65175 -2.56093,-2.42175 1.11744,-0.24022 1.28672,-0.24379 1.79735,-1.09877 0.0656,-0.10895 -0.11922,0.25272 -0.0777,0.37284 0.4599,1.31292 0.6344,-0.1152 0.20673,1.42923 0.11743,0.3264 0.33355,0.63405 0.35364,0.98108 0.0268,0.32729 -0.20049,0.62784 -0.2429,0.95299 -0.17057,1.34248 -0.33757,2.66487 -0.67276,3.99917 -1.07605,1.68625 -2.09164,2.19456 -4.17488,2.0928 -0.46388,-0.0268 -0.94486,0.0514 -1.39173,-0.0772 -0.43089,-0.12235 -4.92431,-2.78177 -5.28719,-3.05548 -0.51875,-0.39114 -0.91494,-0.92231 -1.37248,-1.38351 -0.46674,-0.49416 -0.87985,-1.04502 -1.40066,-1.48189 -0.53988,-0.45303 -1.20433,-0.73781 -1.76073,-1.17035 -2.01591,-1.56743 -3.67791,-3.35562 -5.97776,-4.52499 -2.88192,-2.97796 0.46102,0.15137 -3.07637,-2.15281 -1.84985,-1.20477 -0.38624,-0.80564 -1.94277,-2.0143 -0.68768,-0.53416 -1.51385,-0.86775 -2.21537,-1.38293 -0.94491,-0.90593 -1.53644,-0.48161 -0.5985,-0.32863 0.39471,0.0647 1.0677,-0.54845 0.69379,0.30898 -1.74854,0.99862 -2.04284,2.99819 -3.36429,4.40055 -1.32997,2.45461 -2.81753,2.36463 -5.34491,2.63165 -0.52783,-0.0514 -1.07846,0.003 -1.58396,-0.15762 -0.57537,-0.18352 -1.04224,-0.61637 -1.59668,-0.85529 -0.49411,-0.21299 -1.04251,-0.2822 -1.53662,-0.49527 -1.78756,-0.76881 -3.29476,-1.66237 -5.17859,-2.22158 -5.00526,-1.38757 0.94548,0.53015 -3.04302,-1.52671 -0.95862,-0.49415 -3.62295,-0.74911 -4.73503,-0.74906 -0.9304,-0.50612 -2.10244,-0.5113 -3.15125,-0.45241 -0.35543,0.0223 -0.68888,0.24558 -1.04399,0.22236 -3.2118,-0.20495 1.12878,-0.6862 -2.16692,-0.18976 -0.85368,0.39605 -1.65781,-0.37463 -2.48153,-0.25987 -0.31256,0.0455 -0.48156,0.43267 -0.77854,0.53983 -0.32104,0.11654 -0.68887,0.0223 -1.01818,0.11073 -0.6386,0.17504 -1.22384,0.51416 -1.8586,0.70424 -0.55582,0.44674 -1.28403,0.0455 -1.87102,0.27103 -0.2429,0.0956 -0.32907,0.42464 -0.55416,0.55814 -0.63476,0.37775 -1.67576,0.21924 -2.38866,0.41035 -0.54327,1.24442 -2.08056,1.81667 -3.3374,1.99264 0.15226,1.4863 -3.95734,0.94978 -4.87523,1.12731 -0.55926,0.1085 -1.07752,0.37016 -1.61637,0.55528 -3.75003,-0.167 -7.48706,0.21075 -11.24217,0.0134 -0.54787,0.0648 -1.09204,0.19111 -1.6437,0.19602 -4.34987,0.0357 1.13307,-0.42284 -3.12348,-0.15806 -1.44098,0.0898 -2.63281,0.61654 -4.09304,0.68696 -0.40632,0.1844 -0.78867,0.43267 -1.21812,0.55242 -5.17252,1.44317 2.64509,-1.31971 -3.29749,0.74197 -1.76175,0.61132 -2.44023,1.27568 -4.37366,1.62449 -0.95648,0.748 -2.19921,0.62543 -3.23096,1.21023 -0.34828,0.19736 -0.61132,0.53072 -0.97036,0.70892 -0.28443,0.1411 -0.61636,0.1536 -0.92477,0.2304 -0.36792,0.20361 -0.73652,0.40633 -1.1048,0.60967 -1.04488,1.11324 -2.81445,0.8114 -4.01159,1.39396 -0.37775,0.18397 -0.47987,0.73536 -0.85279,0.92875 -3.29101,1.70567 0.2871,-1.31225 -2.24001,1.0309 -1.12499,0.59784 -2.78811,0.38489 -3.87532,0.60971 -0.35989,0.0741 -0.62244,0.41883 -0.9796,0.50331 -3.08597,0.73706 0.26701,-0.77068 -2.48184,0.62695 -3.02722,1.10949 -6.27438,1.84471 -9.03427,3.59169 -1.49358,-0.0134 -0.83609,0.82015 -1.31823,1.09636 1.0476,0.88677 0,2.20831 0.42642,3.17523 0.0268,1.52104 -0.77555,2.82861 -1.8975,3.84049 -0.27862,0.25005 -0.68686,0.31747 -0.97299,0.55872 -1.26671,1.41138 -0.58136,0.76398 -2.05489,1.94398 -2.38459,1.44901 -4.72172,2.88589 -7.17351,4.22145 0.29335,0.54845 -1.97849,1.0034 -2.05396,1.22629 -0.16163,0.47474 0.49702,-0.0808 0.54444,-0.32729 0.41748,0.68593 0.11921,2.26323 0.25495,3.25596 -0.14467,2.73528 -1.15668,5.42775 -2.53779,7.78019 -0.94995,2.67425 -3.07673,4.83849 -4.73954,7.14891 -1.26992,2.21153 -2.95853,4.07817 -4.28007,6.26857 -4.03771,2.88719 0.73536,-0.79041 -1.90348,1.94144 -0.30541,0.31613 -0.7513,0.46044 -1.08989,0.73986 -1.00719,0.83145 -1.71166,1.6834 -2.21755,2.87018 -2.83897,1.69973 -0.89151,1.7134 -2.2756,3.62634 -0.7021,0.72844 -0.24558,1.75309 -0.57542,2.56436 -0.15539,0.37864 -0.57712,0.59725 -0.76054,0.96277 -0.41794,0.83386 -0.45299,2.1942 -0.55412,3.10338 0.27549,4.68087 0,-2.59566 -0.31792,2.03096 -0.0268,0.31256 0.22817,0.59292 0.25139,0.90503 0.0808,0.96451 -0.18888,1.50796 0.1018,2.48332 -0.25139,1.43977 -0.13842,2.43715 0.62306,3.66965 -0.19825,2.90125 -0.38177,0.0268 0.70656,1.51818 0.38757,0.52845 0.0634,1.36235 0.39918,1.92389 0.834,1.38883 0.62092,-0.30408 0.67097,1.12275 1.53551,1.14651 1.20233,3.40661 2.06771,4.94859 -0.0268,0.27729 -0.0268,0.55359 -0.0455,0.83034 0.11431,0.28934 0.34828,0.55697 0.33979,0.86721 0,0.34828 -0.33086,0.62641 -0.39293,0.96942 -0.16521,0.9099 0.0688,2.30637 0.0402,3.22261 -1.31921,0.79559 -0.6707,2.14767 -1.12529,3.25265 -0.33265,0.80823 -0.83154,1.19946 -1.4183,1.77435 -0.0268,0.13931 -0.23933,0.40052 -0.0991,0.41704 1.01554,0.12056 0.0268,-0.79818 0.0402,-0.97701 0.0777,-0.70339 0.64012,-0.30006 0.0634,-0.60257 0.22504,0.35096 0.44901,0.70254 0.67387,1.05381 -0.075,0.2429 -0.31836,0.49246 -0.22459,0.72875 0.0839,0.21567 0.53474,0.0835 0.63016,0.29559 0.10805,0.23755 -0.14378,0.50787 -0.14958,0.76899 0,0.41882 0.17682,0.8201 0.25763,1.23219 -0.12904,2.06167 -0.27862,4.07361 -0.76286,6.09706 0.2371,0.97782 -1.11481,1.91759 -1.03868,2.81289 0.0991,1.17307 0.40901,0.0134 0.14959,0.79171 -0.16521,0.81033 0.0455,-0.0625 -0.8139,-1.55118 -0.57507,-0.99398 -0.94424,-0.0513 0.87203,-0.39918 1.82105,-0.15807 3.57196,-0.56386 5.33224,-1.05354 1.05988,0.29648 1.78305,-0.58449 2.77306,-0.64789 0.29916,-0.0134 0.59756,0.10671 0.89449,0.0701 1.69795,-0.20718 -0.20093,-0.40097 1.27091,-0.17503 1.83752,-1.20036 2.27444,1.24103 2.98046,2.04908 1.36623,1.56301 0.52099,-0.6169 1.05002,1.10043 0.10805,1.69629 1.1198,2.05967 1.63646,3.62272 0.59216,0.95192 1.60681,1.62329 2.40875,2.40723 0.75786,-0.12145 0.97022,0.68629 1.51474,0.91089 0.39249,0.16163 0.85882,0.0813 1.2493,0.24781 0.35363,0.15092 0.59551,0.49072 0.92901,0.68097 0.70839,0.40365 1.49103,0.66218 2.2226,1.02296 2.34248,1.34199 5.11233,1.26274 7.48982,2.36687 2.82673,0.23174 5.63908,0.86418 8.50537,0.83386 6.64596,-1.05667 -3.69845,0.43579 2.97626,-0.0134 0.51644,-0.0357 0.97693,-0.40141 1.49381,-0.42284 0.51072,-0.0223 0.99465,0.25585 1.50403,0.29916 5.66216,0.4896 -2.69095,-0.66271 3.00618,0.18396 2.97961,-0.88257 6.01647,0.14601 9.00077,-0.33711 0.40052,-0.0661 0.7989,-0.15137 1.20223,-0.1987 1.10132,-0.13038 1.80935,-0.0639 2.90706,-0.31881 1.41088,-0.32774 2.62057,-1.14887 4.00498,-1.58297 0.58828,-0.23085 1.16124,-0.50501 1.7651,-0.69134 1.19505,-0.36926 1.99153,-0.30452 3.12487,-0.81854 1.9166,-0.86971 2.02961,-1.60409 4.31821,-1.84275 2.78949,-1.47684 5.71034,-2.65804 8.62905,-3.89273 2.99761,-1.54989 5.99272,-3.33522 9.22251,-4.32424 0.45928,-0.26031 0.91847,-0.52157 1.37753,-0.78193 0.53818,-0.16699 1.1094,-0.24871 1.61311,-0.49929 0.46906,-0.23397 0.80305,-0.68445 1.26309,-0.93517 1.44201,-0.78564 3.06021,-1.15839 4.52048,-1.95474 2.79164,-0.16297 5.03424,-2.27345 7.71174,-2.55994 1.64549,-0.59162 3.26579,-1.17419 4.78785,-2.07998 0.98554,0.61628 1.415,0.058 2.36013,-0.0223 0.99942,-0.0848 1.49769,0.23799 2.51506,-0.0715 0.87507,-0.44606 1.53252,0.18441 2.3578,0.2822 0.20719,0.0223 0.41303,-0.1277 0.61878,-0.0933 0.8277,0.13752 1.59869,0.50902 2.39884,0.76215 1.26188,2.48117 0.85882,3.72328 0.9796,6.27853 -0.71951,3.81204 -2.96068,6.73928 -5.71164,9.35414 -2.49649,2.94411 -4.92408,6.08148 -8.03457,8.40053 -2.48305,1.43356 -4.80928,3.20081 -7.40619,4.43376 -4.21815,2.00283 0,-0.77425 -4.02753,2.14245 -0.76836,0.25273 -1.56275,0.43803 -2.30534,0.75943 -0.75666,0.32729 -1.42848,0.8277 -2.17433,1.17977 -1.41682,0.66923 -2.9547,1.06377 -4.36286,1.75126 -2.70836,1.57315 -1.3386,0.86186 -4.10411,2.14393 -5.76464,2.36481 1.21121,-0.65722 -4.32419,2.26037 -0.66499,0.35006 -1.40727,0.53354 -2.08686,0.85543 -2.04556,0.96785 -3.2076,2.05627 -5.37658,2.85968 -2.24599,0.43981 -4.25583,1.54225 -6.11407,2.84088 -0.43759,0.30497 -0.79917,0.73889 -1.29064,0.94656 -0.63977,0.27103 -1.35517,0.30497 -2.03261,0.45758 -3.413,1.85887 -7.05716,3.19551 -10.69475,4.5387 -3.05423,0.66472 -5.86113,2.00944 -8.92732,2.67956 -1.42192,0.67539 -3.00234,0.39695 -4.47463,0.85315 -0.4833,0.14958 -0.9082,0.47473 -1.40387,0.57662 -0.52613,0.10895 -1.07337,0.0268 -1.61012,0.0456 -0.52215,0.12234 -1.04399,0.24513 -1.566,0.36703 -1.26046,0.73688 -2.78601,0.561 -4.12733,0.96469 -1.08355,0.3264 -2.23461,0.84332 -3.30767,1.25335 -0.25138,0.2121 -0.46959,0.47643 -0.75907,0.6345 -0.36837,0.20137 -0.81028,0.23754 -1.18539,0.42686 -1.72037,0.86404 -3.26936,1.96277 -5.06018,2.71037 -5.64748,3.74699 3.43983,-2.16893 -2.89625,1.54609 -0.38266,0.22459 -0.64186,0.62529 -1.02336,0.85283 -1.14593,0.68352 -2.20318,0.53475 -2.77279,1.82744 -2.64277,1.40263 -0.32908,0.97782 -0.77046,-0.11297 -0.30853,-0.76295 -0.86783,-1.39851 -1.30171,-2.09775 -0.0268,0.0647 -0.12904,0.17593 -0.0634,0.19379 0.37596,0.10627 0.78666,0.0223 1.16606,0.11787 0.87825,0.21433 1.70894,0.61248 2.53271,0.99054 0.89954,-0.18396 0.12904,-0.17056 0.67124,0.1862 1.72246,1.13325 2.09713,0.41258 1.74862,3.24832 -0.0402,0.31703 -0.48674,0.43089 -0.64315,0.70893 -0.192,0.34113 -0.25139,0.74009 -0.37909,1.11021 -1.88937,2.96237 -5.34755,5.76321 -8.54703,7.13935 -0.49187,0.54787 -0.90204,1.18281 -1.47612,1.64392 -1.03506,0.83154 -2.31824,1.31797 -3.35419,2.1487 -1.30765,1.04877 -2.14348,2.08771 -3.63009,2.88317 -0.19468,0.29291 -0.3907,0.586 -0.58587,0.879 -0.2246,0.16432 -0.5096,0.26791 -0.67334,0.49362 -0.38846,0.5347 0.17994,0.7822 -0.288,1.05605 0.47701,0.56555 0,0.51589 0,1.13101 -8.9e-4,0.28085 0.24558,0.51532 0.288,0.79332 0.0661,0.42731 -0.24558,2.03202 -0.27237,2.19652 -0.19468,0.3523 -0.3907,0.7054 -0.58623,1.05805 -0.0839,0.50505 -0.0402,1.04725 -0.2487,1.51555 -0.19156,0.4349 -0.68946,0.67825 -0.90611,1.10141 -0.25138,0.49357 -0.26389,1.08163 -0.47473,1.59507 -0.61761,1.50791 -1.05113,1.90879 -2.02957,3.2176 -1.90348,1.38214 -2.85968,3.60357 -4.37751,5.29326 -0.32729,0.36391 -2.213,1.73447 -2.60771,2.02761 -1.91844,2.39013 -3.57232,4.9823 -5.48919,7.36127 -0.87476,2.35539 -2.31976,4.44533 -2.9071,6.90641 -1.32806,2.3645 -2.08534,5.12676 -2.74461,7.76684 -0.91124,2.57499 -1.40392,5.2249 -2.34133,7.80372 -0.0897,1.27024 -0.0656,2.62402 -0.41659,3.86286 -0.15539,0.55301 -0.52041,1.0447 -0.61248,1.61218 0.11698,2.11472 0.18887,1.08729 -0.18263,3.084 -0.25763,1.34695 -0.82265,2.84428 -0.82082,4.23128 0.003,1.26179 0.61043,1.91459 0.53988,3.423 0.075,0.41525 0.0924,0.84587 0.22817,1.24657 0.1469,0.44338 0.51076,0.80515 0.60863,1.26166 0.30095,1.40705 -0.25763,2.97434 -0.19155,4.35371 0.0268,0.43981 0.24558,0.84502 0.36927,1.26751 -0.11922,0.3063 0.27237,3.88313 -0.192,3.64741 -0.20406,-0.10314 0.15851,-0.44789 0.12279,-0.67325 -0.0268,-0.20137 -0.21299,-0.34961 -0.31881,-0.52447 -2.22202,-1.00818 -1.52372,-0.25987 -0.62838,-0.83377 0.22504,-0.14333 0.32908,-0.45245 0.57564,-0.55126 0.2188,-0.0875 0.47532,0.0741 0.70902,0.0357 0.44562,-0.0701 0.8711,-0.23576 1.30689,-0.35453 0.64271,0.34381 1.38079,0.55015 1.92857,1.03126 1.78667,1.56945 0.78899,5.78058 0.86932,7.91553 0.26389,1.78399 0.39427,3.7064 0.0929,5.5012 -0.0991,0.59466 -0.39516,1.14432 -0.50389,1.73728 -0.75907,4.13304 0.60949,-0.71156 -0.5793,3.15059 -0.4416,2.54114 -0.0455,5.01043 0.51076,7.49674 0.31881,1.78176 0.46902,5.36858 1.6191,6.70048 0.68803,1.51046 1.26166,3.00493 1.96608,4.43855 0.0571,0.52621 0.71977,0.49076 0.92816,0.85694 0.0513,0.0902 -0.23933,0.0268 -0.30765,-0.0455 -0.0513,-0.0616 0.17638,-0.0598 0.20361,-0.13753 0.49416,0.20361 1.05243,-0.25272 1.50881,-0.21075 0.0656,0.0134 -0.0268,0.16521 0.0402,0.19602 0.15896,0.0821 0.35096,0.0661 0.52617,0.0978 1.06681,-1.77943 -0.0871,-0.51759 1.47554,-0.79046 0.19826,-0.0357 0.0268,-0.43088 0.14959,-0.58211 0.62212,-0.71831 0.55586,-0.59011 1.35895,-0.90053 0.17638,-0.0772 0.39918,-0.0897 0.53015,-0.23084 0.13484,-0.14691 0.0268,-0.46674 0.2036,-0.56332 0.14959,-0.0831 0.31167,0.21343 0.48103,0.18396 0.31747,-0.0571 0.55359,-0.35587 0.86905,-0.42329 1.56247,-0.33087 -0.25496,0.61672 1.03354,-0.14824 0.95861,0.29827 2.23487,0.42731 3.33521,0.31881 2.1504,-0.24067 4.06227,1.06939 6.14851,1.22799 0.30943,-0.075 0.61234,-0.26657 0.92749,-0.22459 1.05961,0.14109 1.46174,0.74134 2.38834,1.11172 0.58047,0.23174 1.27296,0.0875 1.84325,0.34381 0.39516,0.17682 0.70807,0.49929 1.06202,0.74925 0.29336,0.18173 0.5547,0.43311 0.88195,0.54497 0.97027,0.33131 2.00077,0.22861 2.94599,0.80041 3.2273,1.95639 -2.62062,-0.57417 1.95496,1.24228 0.98769,0.61315 1.15039,1.72961 2.0494,2.43077 0.22192,0.1728 0.54957,0.20941 0.73085,0.42508 0.44736,0.53184 0.61525,1.24607 0.93924,1.86047 0.36524,1.9309 0.5906,3.88724 -0.10806,5.73084 0.13217,1.59454 -0.99309,1.77997 -1.72277,2.70282 -0.13217,0.16789 0.0268,0.47759 -0.13217,0.62829 -2.50966,2.49091 0,-1.11311 -1.61579,1.39428 -2.97747,3.17433 -4.19832,-2.21024 -1.71952,-3.00467 1.87807,0.30095 3.76324,-0.0991 5.63167,0.0799 1.46442,-1.02278 -0.52961,0.20093 1.22742,-0.29202 0.30853,-0.0862 0.51183,-0.41481 0.82046,-0.5005 0.28175,-0.0786 0.59248,0.1027 0.87382,0.0268 0.60953,-0.16298 1.11088,-0.60034 1.68264,-0.86695 3.90884,0.75317 -1.50314,-0.0848 1.78055,-0.17191 0.2487,-0.0134 0.42597,0.30006 0.67512,0.3264 0.24023,0.0268 0.45991,-0.16297 0.7004,-0.17682 0.37462,-0.0223 0.74282,0.10895 1.1165,0.14467 0.71473,-0.2554 1.51564,-0.10225 2.24421,-0.0817 2.46653,-0.88856 2.66246,2.45505 2.11897,3.67023 0.54443,0.89191 -0.37552,-2.33891 0.59511,-0.68017 1.01554,-0.34158 2.04582,0.20986 3.05958,0.17012 0.47071,-0.0134 0.91003,-0.288 1.38084,-0.29693 0.91516,-0.0134 1.8198,0.2438 2.73501,0.24514 0.87235,0.11297 1.75238,-0.313 2.62571,-0.21834 0.40856,0.0455 0.76773,0.32907 1.17705,0.36167 0.8594,0.0688 1.6691,-0.32238 2.33382,-0.77059 1.824,-0.39606 3.78177,-0.51474 5.50392,-1.25496 0.60293,0.2679 3.35116,-0.43267 3.2978,-1.07614 0.18888,-0.15003 0.34605,-0.35185 0.56555,-0.45187 2.71461,-1.23411 -0.96469,0.81082 1.20433,-0.32104 0.58908,-0.30809 0.68919,-0.65807 1.15843,-0.76354 2.05547,-0.82247 3.30802,-0.97277 4.53633,1.2718 0.25496,0.46674 0.10225,1.06319 0.22504,1.58074 -0.0781,0.34158 -0.57528,2.64585 -0.33265,2.75105 0.16789,0.0737 0.29916,-0.28354 0.29068,-0.46679 0,-0.11296 -0.21343,-0.0813 -0.31702,-0.12145 -0.1411,-0.18039 -0.10538,-0.51817 -0.30943,-0.63422 -0.13217,-0.0746 -0.53019,0.23442 -0.43535,0.11832 0.15538,-0.192 2.18277,-0.96446 2.57949,-1.20468 1.23313,-1.17638 2.81816,-1.72537 4.22949,-2.56793 1.36226,-0.81301 2.60347,-2.09432 3.7761,-3.15528 2.45693,-1.4571 4.10362,-3.80494 6.52608,-5.29919 1.21544,-1.4062 3.19559,-1.71126 4.61214,-2.82445 0.33533,-0.26344 0.46219,-0.76238 0.83552,-0.96853 0.45133,-0.2496 1.00831,-0.21924 1.51233,-0.32863 2.42545,-1.37463 4.10362,-3.55629 6.23839,-5.28745 1.79952,-1.22054 3.2451,-2.96801 4.99967,-4.24324 2.09762,-1.16745 1.09793,-0.51019 2.99864,-1.97028 1.79653,-2.22157 4.53963,-3.33995 6.57528,-5.28991 0.84421,-1.85646 2.59637,-3.039 4.00712,-4.43122 0.13753,-0.21834 0.20718,-0.49817 0.41034,-0.65342 0.32507,-0.24737 0.78546,-0.26523 1.11535,-0.50621 0.20093,-0.14735 0.24022,-0.45076 0.42597,-0.61762 0.29425,-0.26344 0.68861,-0.39293 0.98862,-0.64914 0.50786,-0.43222 0.86578,-1.01478 1.31939,-1.50322 1.9626,-1.50635 -1.00291,0.90061 1.30721,-1.61941 0.19468,-0.21254 0.52385,-0.24915 0.75634,-0.42061 0.88941,-0.65512 1.65437,-1.56775 2.43237,-2.34459 1.46563,-1.25929 3.06021,-2.68683 4.84657,-3.48591 0.30675,-0.18262 0.66039,-0.30184 0.92013,-0.54675 0.22191,-0.20763 0.27549,-0.54841 0.47986,-0.77403 0.69196,-0.77068 1.29337,-0.98215 2.05512,-1.67701 2.65058,-2.41781 -1.01135,0.51304 1.85078,-1.70656 0.74434,-1.31511 2.20671,-1.42393 3.27655,-2.30012 0.47759,-0.39069 1.30953,-1.31372 1.74644,-1.81716 2.11231,-2.00787 1.3527,-2.47832 3.65174,2.81538 0.0871,0.20093 -0.35899,0.25764 -0.50214,0.42285 -0.2755,0.31613 -0.4959,0.67365 -0.7438,1.0105 -0.30407,0.30631 -0.69763,0.54448 -0.91213,0.91852 -0.30765,0.53528 -0.35453,1.18696 -0.61641,1.74546 -0.69044,1.46991 -1.47144,2.29158 -2.30177,3.69179 -0.70571,1.19018 -1.40155,2.75712 -1.98501,4.00231 -1.17289,1.08368 -1.45455,2.72957 -2.37713,3.96345 -0.46049,0.61601 -1.14839,1.03162 -1.64133,1.62222 -1.22563,1.46827 -2.30266,3.27315 -3.35152,4.87551 -0.34604,0.4553 -0.64275,0.95414 -1.03974,1.36654 -0.39249,0.40722 -0.92419,0.6641 -1.31136,1.0765 -1.24358,1.32453 -2.15277,3.0882 -3.28909,4.5182 -1.6128,2.05118 -3.33232,4.04521 -5.11528,5.98941 -1.17714,0.28845 -0.48103,1.14414 -0.72129,1.58382 -0.45705,0.83663 -1.2334,1.0067 -1.44375,1.99729 -0.48675,1.21746 -0.33355,2.27015 -0.70339,3.5574 -0.74733,2.4263 -2.87674,4.10826 -4.37956,6.08197 -0.5113,0.21567 -1.05667,0.36168 -1.53341,0.6453 -0.50559,0.3005 -0.89655,0.76572 -1.3874,1.08944 -1.94277,1.2814 -3.92832,2.48872 -5.90824,3.7369 -0.8882,0.91026 -2.20791,0.95031 -3.24118,1.55797 -0.49415,0.29068 -0.83931,0.79564 -1.33199,1.08913 -0.5313,0.31657 -1.17231,0.41436 -1.70871,0.72134 -0.34783,0.19959 -2.42995,1.88561 -2.74425,2.13731 -0.42865,0.29202 -0.84445,0.6036 -1.28587,0.87543 -2.92746,1.80239 -3.2852,3.0169 -5.5078,5.34876 -0.30006,0.3139 -0.60056,0.62739 -0.90088,0.94111 -0.26389,0.43312 -0.44383,0.9304 -0.79252,1.29895 -0.26388,0.28085 -0.70606,0.33533 -0.99527,0.59113 -0.93254,0.82547 -1.41258,2.24359 -1.99514,3.30486 -0.84329,0.71776 -1.54261,1.79278 -2.01404,2.80333 -0.34604,0.74304 -0.23352,1.6474 -0.58314,2.38901 -0.20406,0.4349 -0.57011,0.77452 -0.85494,1.16178 -0.75911,2.27448 -1.77617,4.28092 -2.42134,6.63377 -0.90525,0.74478 -1.07305,2.08253 -1.85882,2.90331 -0.27863,0.29201 -0.75907,0.34961 -1.02095,0.65829 -0.15896,0.18798 0.0844,0.36301 0.11922,0.53126 0.18262,-0.695 0.62391,-0.63807 -0.20093,-1.23278 -0.21879,-0.15761 -0.95862,-0.49701 -0.73237,-0.34917 1.93938,1.26823 1.97595,0.3264 1.49443,1.77596 0.37909,1.20191 0.0402,2.48215 -0.52671,3.59347 -0.16163,0.36971 -0.25138,0.78077 -0.48732,1.10967 -0.27237,0.38043 -0.69526,0.62932 -1.00416,0.98063 -1.42432,1.61945 -2.84928,3.40451 -3.87464,5.28361 -1.84606,1.13061 -3.01351,2.85767 -4.29392,4.50468 -0.25496,1.27903 -1.48635,2.29663 -1.38906,3.64406 -0.47986,1.32413 -1.81497,3.72462 -1.66932,5.09621 -0.53358,1.7159 -1.50131,2.9969 -1.65509,4.84063 -0.44115,-0.33354 0.30006,2.17983 0.1286,1.65442 -0.14735,-0.44294 0.003,-1.03734 -0.46616,-1.24903 0.16789,-0.45017 -0.37016,-0.0915 -0.29068,-0.0268 0.4942,0.36614 1.15852,0.47357 1.62749,0.87163 0.4166,0.35319 0.58198,1.68112 0.75697,2.18059 -0.0688,0.75277 -0.63739,1.3861 -0.70607,2.13137 -0.0402,0.43312 0.27863,0.85132 0.23398,1.28372 -0.1862,1.71581 -0.75934,1.38852 -1.39848,2.86955 -0.26031,0.60123 -0.35453,1.26095 -0.53135,1.89142 -1.40798,3.53677 -2.50515,7.09922 -3.39263,10.79437 -1.08699,5.12907 0.20093,-1.84284 -0.12904,3.22858 -0.0268,0.51305 -0.3782,0.9726 -0.4166,1.48532 -0.0357,0.50215 0.18888,0.99403 0.19468,1.49738 0,0.83051 -0.192,1.65013 -0.26969,2.47689 0.47187,2.06685 0.35095,4.17028 1.08926,6.16422 1.04015,3.42251 -0.3322,-1.41687 0.37418,2.28939 0.0661,0.35052 0.34336,0.64709 0.37507,1.00242 0.0268,0.22683 -0.4166,1.99466 -0.36168,2.21166 0.0839,0.32863 0.43758,0.51818 0.65566,0.7776 0.37909,2.12807 1.27363,4.27727 1.08002,6.42624 1.56239,2.27484 2.16268,5.0904 3.21033,7.6373 0.0268,0.48103 -0.0991,0.99242 0.0719,1.44375 0.14377,0.38534 0.59448,0.57997 0.81537,0.92723 0.91066,1.43071 1.11146,3.18572 1.98407,4.6588 0.82467,0.41303 0.51644,1.42951 0.97666,2.01899 0.23665,0.30452 0.73384,0.32596 0.97152,0.62941 0.29068,0.37194 0.31434,0.89668 0.54555,1.30885 0.2429,0.43491 1.11775,1.28323 1.43053,1.60548 0.78934,0.64959 0.99456,1.76948 1.71022,2.47001 0.3148,0.30854 0.83578,0.35185 1.14048,0.67097 0.35811,0.37463 0.41437,0.98072 0.78519,1.34333 2.62509,2.56624 0.38802,-1.2371 2.13209,2.26765 0.93705,0.74537 1.26278,1.97108 2.06016,2.81856 0.41079,0.43624 1.03086,0.64892 1.41745,1.10717 0.34337,0.40633 0.42508,0.98121 0.71862,1.42522 0.55809,0.84538 1.30412,1.55073 1.93661,2.34191 2.20916,2.33887 4.18546,4.92774 6.51745,7.14967 1.703,2.34034 -0.66195,-0.48161 2.01855,1.18365 0.35051,0.21835 0.39248,0.75269 0.71441,1.01055 0.34203,0.27416 0.82797,0.30318 1.20496,0.5267 0.70629,0.41883 0.97147,0.81663 1.47791,1.40986 0.192,0.0268 0.409,-0.0134 0.57899,0.0915 0.51416,0.29336 0.77492,0.88864 1.40213,1.00478 0.25764,0.0456 0.54158,-0.14288 0.78845,-0.0513 1.01407,0.37775 -0.16521,0.60971 0.62239,0.39025 0.78894,0.79528 1.64419,0.91906 2.50667,1.63982 0.20093,0.16699 0.31881,0.43311 0.54443,0.56385 1.94036,1.12887 -0.0268,-0.51358 1.17201,0.55073 0.17012,0.0857 0.33265,0.18441 0.50844,0.25763 0.26031,0.10806 1.11985,-0.0822 0.84743,-0.0134 -0.40275,0.10895 -2.02064,0.98362 -2.26126,0.82502 -0.55127,-2.06262 1.73054,-3.102 1.09047,-4.99954 0.96459,-0.0268 0.0656,-0.79796 0.33488,-1.0443 2.84834,-2.59897 3.97573,-0.97085 6.22289,0.93061 2.90407,2.81762 5.59889,5.80403 8.48438,8.64567 1.68469,1.67191 3.02905,3.72676 4.7002,5.40323 0.78573,0.78836 0.7342,0.1728 0.73751,0.69406 -0.72902,-1.22425 -3.39992,1.56417 -0.84775,-1.09396 0.24871,-3.92773 3.79374,-2.73805 6.22405,-1.64343 1.93974,1.71514 3.55437,3.87054 5.55724,5.50625 3.73145,3.04721 0.11073,-0.89472 3.39737,3.01573 3.44885,2.11959 0.79796,0.288 3.79606,2.93202 0.58854,0.51929 1.28555,0.91521 1.83217,1.4784 0.48446,0.49875 0.70013,1.23728 1.23491,1.68192 2.42251,1.15883 1.36075,0.41302 3.216,2.19313 1.55676,2.12673 3.50096,3.98493 5.48209,5.72998 1.01045,0.69719 -0.0402,-0.0714 -1.01135,-0.30318 -0.25764,-0.0612 -0.52787,0.0223 -0.79207,0.0268 0.0514,-0.0688 -0.2429,0.24023 -0.18262,0.17816 2.27569,-2.37763 1.3686,-1.77867 4.15809,-1.35985 0.41749,0.32238 0.80135,0.69366 1.25287,0.96634 1.69674,1.02488 3.46747,1.54832 4.95926,2.96363 1.34427,1.27559 2.47573,2.76172 3.79905,4.05932 1.99283,2.03087 3.52235,4.4719 5.38774,6.60426 1.17701,1.34538 2.38406,2.32168 3.37594,3.82053 0.12279,0.19021 0.17369,0.45477 0.36658,0.57073 0.0991,0.0589 0.11431,-0.288 0,-0.34381 -0.46102,-0.25898 -0.98705,-0.40097 -1.50791,-0.49532 -0.20673,-0.0357 -0.60377,0.32015 -0.62297,0.10895 -0.0268,-0.27773 0.40097,-0.38846 0.57778,-0.60435 0.21567,-0.26255 0.39651,-0.55126 0.59511,-0.82672 1.28078,-2.06074 2.25073,-4.34781 3.53999,-6.38957 1.32239,-1.5803 0.77577,-0.78207 1.68973,-2.35968 2.81088,-3.33138 5.32501,-2.29587 7.42178,1.0422 2.02068,1.83101 2.82374,4.44319 4.18635,6.70298 1.39316,2.31061 0.69317,0.43089 1.36825,2.76721 2.02211,3.43086 1.19352,1.19495 -0.30095,0.60913 -0.49469,-0.19378 -1.07484,0.32372 -1.58458,0.17369 -0.19513,-0.058 0.11386,-0.39292 0.17012,-0.58979 0.35766,-0.35409 0.76688,-0.66419 1.07404,-1.06346 1.82976,-2.37709 0.66968,-1.46808 2.25738,-4.2511 1.31216,-2.3002 3.25855,-4.21752 4.76048,-6.39582 1.32355,-1.47063 3.2297,-2.46707 4.54883,-3.92761 0.36034,-0.39918 0.45308,-1.01063 0.85436,-1.36909 0.51987,-0.46499 2.14262,-0.91222 2.80699,-1.12342 1.70536,-1.67 3.79767,-3.09316 5.98244,-4.05763 0.3782,-0.29201 0.75639,-0.58421 1.13486,-0.87632 0.45075,-0.14913 0.95741,-0.18307 1.35239,-0.44673 0.46107,-0.3081 0.7108,-0.86003 1.13753,-1.21447 0.92388,-0.76737 2.27922,-1.25287 3.33558,-1.82217 2.14495,-2.57824 5.57763,-1.17106 5.32888,2.41639 -0.0268,0.43892 -0.38042,0.79296 -0.57015,1.18933 -0.0781,1.90852 -2.00322,3.66808 -2.21688,5.56411 0,0.096 0.17994,-0.0737 0.26969,-0.11029 6.41525,-0.56212 -2.20634,-1.93808 -1.45277,-2.57186 0.28443,-0.23889 0.73751,-0.1152 1.08954,-0.23397 0.61556,-0.20719 1.21223,-0.46902 1.80194,-0.74139 1.72755,-0.79761 3.07936,-1.59012 4.75623,-2.51877 0.98746,-0.39606 1.97483,-0.79247 2.96189,-1.18866 0.86396,-0.52617 1.66678,-1.16839 2.59124,-1.57815 0.85824,-0.38043 1.84445,-0.40409 2.7084,-0.77081 2.04458,-0.86748 4.95851,-2.73796 6.79724,-4.03959 0.67821,-0.53358 1.32418,-1.11052 2.03386,-1.60119 0.68352,-0.47245 1.4246,-0.85502 2.13687,-1.28247 0.74014,-0.47589 1.49684,-0.92709 2.22086,-1.42767 2.0431,-1.41276 3.86357,-3.01025 5.96566,-4.34197 1.71741,-0.59497 2.09471,-2.27912 3.25377,-3.41799 0.26031,-0.25764 0.63498,-0.37641 0.91396,-0.61525 0.43803,-0.37552 0.72969,-0.89508 1.10489,-1.33418 1.57954,-2.60195 5.1719,-2.79971 5.62319,1.33288 -0.72844,3.62326 0.18887,-1.74251 0.11073,1.97157 0,0.31524 -0.31434,0.56613 -0.34694,0.87936 -0.0357,0.33846 0.0924,1.29444 0.192,1.66696 0.51126,-1.72246 -2.93313,-1.75613 -2.9634,-2.17031 -0.0357,-0.49072 2.63861,-2.31181 2.90169,-2.53846 2.27654,-3.73636 5.32653,-6.83627 7.1086,-10.84987 2.27622,-3.18331 4.0557,-6.00347 4.41019,-9.96113 0,-0.0268 1.13239,-3.88996 1.14048,-3.94269 0.10805,-0.6966 -0.0402,-1.4158 0.0598,-2.11325 0.3264,-2.25751 1.16727,-4.60389 1.75162,-6.80742 0.75157,-2.08311 0.87887,-4.32799 1.44285,-6.45293 0.4679,-1.76341 1.30051,-3.20631 1.58583,-5.01379 0.51934,-2.68099 0.46388,-3.75712 2.30226,-5.92212 0.84364,-0.13128 1.67915,-0.45759 2.53016,-0.39427 0.53871,0.0402 1.0509,0.3456 1.46446,0.69307 0.36078,0.30319 0.47875,0.81475 0.77037,1.18469 0.32952,0.41883 1.68085,1.64999 1.93911,2.03658 0.24022,0.35989 0.3322,0.79876 0.49759,1.19817 0.46102,0.65539 0.78184,1.14347 1.29368,1.75224 0.0688,0.0808 0.40096,0.14244 0.29916,0.11074 -1.36615,-0.43535 -1.22237,-0.34024 -2.43925,-0.19513 1.58793,-2.11642 1.95889,-4.84884 3.1162,-7.15333 3.07486,-6.12261 -0.0268,1.92674 2.32142,-4.64117 1.15378,-2.47524 2.68603,-4.92431 3.56101,-7.52523 1.5022,-4.46556 -1.18066,1.66401 1.00648,-3.06182 0.0902,-0.54613 0.17995,-1.09159 0.2688,-1.6374 0.22192,-0.52099 0.57239,-1.00403 0.66919,-1.56212 0.0996,-0.56212 -0.096,-1.13776 -0.1018,-1.708 0,-1.3715 0.36078,-2.63348 0.42775,-3.99757 0.40499,-1.18468 -0.12636,-2.2564 0.0268,-3.45653 0.0402,-0.31122 0.21879,-0.6048 0.20986,-0.91892 -0.0688,-2.42259 -0.55586,0.47415 -0.0929,-1.69473 0.553,-2.10249 1.30716,-3.4301 3.64393,-3.70582 0.41928,-0.0513 0.88191,-0.13262 1.2676,0.0402 0.49246,0.22058 0.80819,0.71464 1.21215,1.07203 0.28443,0.14735 0.57171,0.29559 0.8573,0.44339 0.15315,0.30452 0.18218,0.71723 0.4616,0.91307 1.71644,0.067 0.28443,-0.21835 1.26059,0.51813 0.11744,0.088 0.56502,0.15449 0.42463,0.1152 -0.37015,-0.1027 -0.7408,-0.20361 -1.11154,-0.30631 -0.36301,-0.0134 -0.72723,-0.0268 -1.09101,-0.0402 -0.0513,0.0134 -0.17413,0.0786 -0.15538,0.0268 0.0723,-0.21567 0.29068,-0.36793 0.34337,-0.58922 0.44673,-1.87477 -0.24871,-0.74576 0.0513,-2.80891 0.0898,-0.61583 0.35409,-1.19303 0.53126,-1.78957 -0.24201,-0.65441 -0.71852,-1.26501 -0.73143,-1.96318 0,-0.74228 0.56328,-1.39177 0.65655,-2.12838 0.0898,-0.71634 -0.10805,-1.44112 -0.11073,-2.16317 0,-0.70884 0.17994,-1.42227 0.0862,-2.12477 -0.0996,-0.73581 -0.43893,-1.41861 -0.65785,-2.12794 -0.0598,-0.77889 -0.11922,-1.55783 -0.17994,-2.33686 -0.90379,-3.96279 -2.11147,-7.96701 -2.54686,-12.01955 -0.93968,-3.27015 -2.77462,-6.12738 -4.03941,-9.26167 -2.40638,-3.59008 0.56953,1.14874 -1.35936,-3.01761 -0.22459,-0.48844 -0.65351,-0.85913 -0.92508,-1.32404 -0.78568,-1.34462 -1.26996,-2.63089 -2.19112,-3.89907 -0.1469,-0.37641 -0.29603,-0.75259 -0.44338,-1.12887 -0.25139,-0.20807 -0.61994,-0.32595 -0.75211,-0.62328 -0.505,-1.13695 0.38847,-3.50101 1.04046,-4.03624 0.28175,-0.23085 2.62808,0.071 3.27021,0.14244 1.77216,0.29559 3.58758,0.92928 5.27709,1.59476 0.29425,0.11609 0.52961,0.38668 0.84208,0.43981 0.0996,0.0134 0,-0.19736 0,-0.29693 -0.52671,0.29336 -1.46929,0.82935 -1.86303,0.91825 -0.43579,0.0978 -0.10537,-0.88856 -0.1143,-1.33516 -0.0572,-2.32779 0.0268,-0.66606 -0.11074,-2.99743 -0.58502,-4.244 -1.97635,-8.31372 -3.1509,-12.42087 -0.0723,-0.73585 0,-1.50041 -0.22236,-2.20741 -0.20405,-0.66647 -0.71893,-1.19746 -1.01706,-1.82771 -1.20732,-2.55025 -2.21179,-5.1685 -3.6985,-7.57823 0.16789,-2.24278 -1.50938,-3.37978 -2.34244,-5.16649 -0.2429,-0.5176 -0.20986,-1.12727 -0.39874,-1.66567 -0.56095,-1.59025 -0.7713,-1.61516 -1.82431,-2.85472 -0.51527,-1.57029 -1.19504,-3.19421 -2.04109,-4.62256 -0.22191,-0.37373 -0.59033,-0.64605 -0.81202,-1.01969 -0.7588,-1.73443 -0.32908,-0.9116 -1.27631,-2.47443 -1.02064,-0.816 -1.13244,-2.31999 -2.03591,-3.21355 -0.2697,-0.26567 -0.74139,-0.2554 -1.00564,-0.52554 -0.27862,-0.28621 -0.36658,-0.71152 -0.55072,-1.0673 -0.37195,-0.33354 -0.74438,-0.6674 -1.11686,-1.00112 -1.91611,-2.21719 -3.51181,-4.5879 -5.0287,-7.09412 -1.34217,-0.81569 -1.68232,-2.42103 -2.57655,-3.54316 -0.3255,-0.40856 -0.84198,-0.62779 -1.20308,-1.00559 -0.60716,-0.63471 -1.05993,-1.40164 -1.6203,-2.07784 -0.1853,-0.4833 -0.30675,-0.99648 -0.55586,-1.4504 -0.23085,-0.41793 -0.57738,-0.75983 -0.86601,-1.13967 -0.29648,-0.45531 -0.63016,-0.88749 -0.88699,-1.36575 -0.77314,-1.44053 -1.33556,-3.06141 -2.02395,-4.54758 -0.81479,-2.05918 -2.0832,-4.04178 -2.65442,-6.19735 -0.88673,-3.34687 0.49875,-0.77354 -1.34904,-3.57584 -0.096,-0.71322 -0.12592,-1.43884 -0.29068,-2.13973 -0.16164,-0.69665 -0.50215,-1.3423 -0.68562,-2.03368 -0.59636,-2.24827 -0.57502,-4.5358 -1.22232,-6.78425 -1.17625,-2.96898 -1.12678,-3.93197 3.77842,-3.29029 0.93589,0.12234 2.21121,2.40107 2.5223,2.86258 0.96165,1.76207 2.79377,2.74198 3.99721,4.2786 0.6674,0.85226 0.96821,1.95894 1.66285,2.78936 0.7258,0.86833 1.76868,1.42379 2.54717,2.2455 2.60441,3.33531 1.23612,1.74993 4.09638,4.76334 1.47344,2.30748 3.77066,3.85839 5.58572,5.84564 0.59034,0.64628 1.02667,1.42535 1.63473,2.05475 0.58434,0.60462 1.28372,1.08619 1.92558,1.62932 0.57184,0.61592 1.14355,1.23179 1.71536,1.84771 0.7216,0.57319 1.49286,1.0885 2.16442,1.71951 0.67936,0.63843 1.21964,1.41219 1.87445,2.07557 5.05201,5.11835 -0.69674,-0.9867 4.49405,3.98346 0.95048,0.91012 2.85101,3.19086 3.72091,4.21216 2.04913,1.62258 3.49886,3.8229 5.32326,5.66346 0.5747,0.57993 1.28193,1.02631 1.81592,1.64383 5.72664,6.62087 -3.17671,-2.54502 2.89843,3.56504 1.49475,1.69692 2.1905,3.83602 3.11915,5.84635 0.31301,0.67789 0.77916,1.29081 1.00148,2.00363 0.25541,0.81568 0.60775,4.34973 0.69553,5.13456 1.61343,4.8317 2.02904,10.00721 3.74672,14.79859 0.1862,0.71607 0.28443,1.46018 0.55698,2.14834 0.27862,0.70991 0.77434,1.31891 1.08547,2.01591 1.04997,2.3532 1.79761,4.54299 3.29539,6.67668 0.45071,1.65437 1.91776,2.32735 2.96724,3.45064 0.3715,0.39695 0.51876,0.98099 0.92174,1.34637 0.44026,0.39873 1.05872,0.54671 1.54359,0.89003 0.51299,0.36301 0.95798,0.81385 1.43723,1.22085 1.08779,1.71701 2.92746,2.2606 4.49342,3.33879 1.1115,0.76523 1.73331,1.92991 2.87294,2.65335 -0.0268,-0.11297 0.0268,-0.334 -0.096,-0.34159 -3.16813,-0.18753 -1.935,2.41255 -2.83338,-1.92044 -0.69611,-2.96086 -1.14892,-5.97039 -1.35659,-8.99894 1.27206,0.0268 -0.30006,-0.81658 0,-0.89887 5.35416,-1.53002 3.55615,-2.07816 5.62747,-0.0777 1.705,1.64669 0.72125,0.36525 1.97889,2.30601 2.59459,2.2869 5.04701,4.63086 8.29292,5.99303 0.91521,0.7538 2.14169,0.42284 3.14804,0.82984 0.45133,0.18262 0.75031,0.64838 1.20192,0.831 1.37579,0.55582 3.33852,0.37998 4.78744,0.43356 3.81799,1.14343 7.86677,1.11423 11.81491,1.45585 3.65555,0.45357 7.33002,-0.0134 10.99226,0.18977 3.57026,-0.0571 7.11641,0.20048 10.66148,-0.29336 0.5894,-0.0134 1.18603,0.0737 1.76832,-0.0179 0.60194,-0.096 1.14593,-0.44026 1.74698,-0.54037 0.59488,-0.0991 1.20799,0.0134 1.80788,-0.0513 1.34221,-0.13217 2.72755,-0.31747 4.06472,-0.52327 2.01131,-1.21732 1.29872,0.17905 -0.0813,3.58959 -0.12904,0.31658 -0.49072,-0.48156 -0.77666,-0.66758 -0.32015,-0.17637 -0.60306,-0.45017 -0.95956,-0.53072 -0.36658,-0.0822 -0.75549,0.13351 -1.12382,0.0625 -1.13061,-0.21924 -2.45939,-1.53881 -3.28097,-2.3177 -3.1926,-1.55145 -0.46392,-4.86229 2.59991,-4.96262 3.28283,-1.05466 6.74383,-0.52559 9.98354,-1.6336 3.23037,0.0134 5.97204,-1.93425 9.18469,-1.85459 1.50005,-1.10846 3.20939,-0.91816 4.89506,-1.34177 0.0455,-0.0134 1.8177,-0.7767 2.01287,-0.86082 2.5294,-0.28979 3.50154,-2.30713 6.05349,-0.91571 1.08832,-0.24781 1.30207,1.02474 2.00148,1.3732 0.23085,0.1152 0.53644,-0.0402 0.7689,0.0688 0.70839,0.33533 1.28407,0.90995 1.98469,1.26176 1.85075,0.1652 2.70117,2.52935 4.31098,2.93607 -2.98792,-1.25634 0.31792,-0.3389 -3.10008,0.67794 -0.26389,0.0786 0.10537,-0.54157 0.16789,-0.8101 0.3264,-1.38472 0.58555,-2.10508 0.47357,-3.58513 0.81899,-3.51373 0.674,-7.26393 0.62207,-10.88822 0.55354,-3.24087 0.60958,-6.8619 2.02185,-9.87143 0.49072,-2.55926 2.09865,-4.81491 3.51208,-6.96825 2.68742,-2.13924 -1.03832,1.08261 1.422,-2.13151 0.24023,-0.31167 0.74461,-0.31256 1.01814,-0.5948 0.68566,-0.70705 1.56998,-2.47715 2.20706,-3.32834 0.677,-1.64423 2.87647,-2.77243 3.71256,-4.18345 1.33172,-2.2485 -0.58971,-0.70826 1.56935,-2.07605 0.17995,-0.42508 0.25764,-0.90892 0.53988,-1.27475 0.24558,-0.31747 0.71531,-0.39605 0.97746,-0.69879 0.18262,-0.2112 0.15583,-0.5484 0.30899,-0.78336 0.13216,-0.20227 0.44383,-0.27148 0.52732,-0.49875 0.66883,-1.82427 -0.94276,0.13976 0.4713,-1.34583 -0.47304,-2.08074 -0.21879,-1.75372 0.42776,-3.3692 0.34068,-0.84966 0.28219,-1.89383 0.45307,-2.78873 -0.24871,-2.23729 -1.29064,-4.1204 -0.99032,-6.38729 -1.05184,-0.90526 -0.61051,-2.3512 -1.16517,-3.44604 -1.39285,-2.74998 -0.46616,0.65824 -1.1486,-2.63527 -0.54729,-2.92675 -2.10271,-5.70275 -3.54231,-8.32279 -0.12636,-0.4833 -0.14958,-1.00661 -0.38043,-1.44951 -0.17414,-0.33086 -1.70902,-2.03243 -2.13664,-1.84945 1.16244,-0.12681 2.32453,-0.25362 3.48689,-0.37998 0.0688,-0.10136 0.0835,-0.288 0.20406,-0.30407 0.0996,-0.0134 -0.0723,0.18798 -0.075,0.28666 0,0.18976 0.0688,0.37775 0.0514,0.56729 -0.0514,0.64329 -0.29068,1.25715 -0.43803,1.88548 -0.4349,1.83432 -1.1486,3.12808 -2.69822,4.23396 -0.52617,-0.50791 -0.8402,0.50442 -1.2622,0.38132 -0.71254,-0.20852 -1.32029,-0.68102 -1.98554,-1.01099 -0.2755,-0.13664 -0.64155,-0.0764 -0.88012,-0.2688 -0.31479,-0.25541 -0.52103,-0.62159 -0.78184,-0.93227 -1.09614,-2.59549 -2.01917,-5.27906 -3.3283,-7.76823 0.0268,-0.68084 0.13485,-1.36405 0.0719,-2.04239 -0.17369,-1.87548 -0.76978,-3.68112 -0.78688,-5.60215 0.17413,-2.01117 0.14333,-1.02939 0.11073,-2.94465 -0.12904,-2.70175 -0.19736,-5.43315 0,-8.14262 -0.0719,-0.48389 -0.22236,-0.96259 -0.21299,-1.45161 0,-0.49755 0.2246,-0.97353 0.25764,-1.46987 0.17012,-2.54887 -0.70866,-3.30115 0.21611,-5.98656 0,-1.24125 -0.53813,-2.3691 -0.77782,-3.53748 -0.0839,-0.40945 0.0594,-0.85485 -0.0688,-1.25229 -0.11743,-0.35721 -0.4291,-0.61712 -0.64311,-0.92561 -0.0897,-0.45076 -0.17995,-0.9012 -0.2688,-1.35164 -0.0455,-1.31618 -1.06127,-2.13486 -1.54993,-3.21622 -0.20361,-0.44847 -0.20361,-0.9654 -0.35096,-1.43495 -0.23085,-0.7334 -0.81448,-1.9192 -1.1249,-2.58646 -0.30005,-0.4925 -0.70361,-0.93393 -0.89632,-1.47653 -0.21567,-0.61341 -0.084,-1.31725 -0.31122,-1.92763 -0.21343,-0.57319 -0.67271,-1.02135 -0.9763,-1.55163 -0.90981,-1.58779 -1.53881,-3.30708 -2.38079,-4.93122 -1.08905,-2.32132 -2.6404,-4.44752 -4.13845,-6.54813 0.57417,-0.50559 -1.36945,-0.62548 -1.07091,-1.01711 0.13217,-0.17459 0.40007,0.41168 0.58881,0.29827 1.15129,-0.69406 1.9772,-1.85271 3.13179,-2.54078 0.16431,-0.0991 0.12904,0.37551 0.26031,0.51929 0.14958,0.16298 0.36793,0.24647 0.55185,0.36971 0.0661,1.28519 1.54247,2.23126 1.80042,3.38857 0.1018,0.46161 -0.16789,0.94237 -0.12636,1.4133 0,0.11788 0.64905,2.22939 0.70959,2.43175 -0.88851,3.67795 1.85758,3.34709 -2.61669,6.22834 -0.77018,-0.39606 -1.66915,-0.60654 -2.31016,-1.18897 -0.32372,-0.29425 -0.90043,-2.62321 -1.03135,-2.96484 -0.18619,-0.48384 -0.50902,-0.91003 -0.6716,-1.40195 -1.61338,-4.8797 0.8657,0.86038 -1.36346,-3.98159 -0.15539,-0.64025 -0.3139,-1.28055 -0.47072,-1.92085 -0.26031,-0.62176 -0.62038,-1.2112 -0.7855,-1.86543 -0.16521,-0.64646 -0.0513,-1.33806 -0.18843,-1.99157 -0.27862,-1.37298 -1.033,-2.82713 -1.62239,-4.08679 -0.91334,-2.34494 -2.09495,-4.59513 -3.10964,-6.91436 -1.93255,-2.65536 -3.56388,-5.54638 -5.64957,-8.08596 -0.63593,-1.68973 -2.13183,-2.52944 -3.22502,-3.75101 -0.39606,-0.44293 -0.61574,-1.01849 -0.97773,-1.48915 -0.24915,-0.32373 -2.0518,-2.24265 -2.32185,-2.53195 -0.36168,-0.36703 -0.71563,-0.7421 -1.08413,-1.10248 -1.26131,-1.23322 -0.99224,-0.77996 -2.04909,-2.2368 -0.26031,-0.36078 -1.34185,-2.11704 -1.81328,-2.48452 -0.39516,-0.30854 -0.89896,-0.44472 -1.34882,-0.66691 -0.84409,-1.27363 -1.75211,-2.53158 -3.1158,-3.30315 -0.53019,-0.30006 -1.15825,-0.40231 -1.6821,-0.71366 -0.17637,-0.10449 -2.48599,-2.08802 -2.56391,-2.15473 -0.4166,-0.22549 -0.83337,-0.45129 -1.24987,-0.67678 -0.29336,-0.27326 -0.53475,-0.61489 -0.87865,-0.82109 -0.41347,-0.2487 -0.90977,-0.32372 -1.35177,-0.51648 -1.27715,-0.55697 -2.36235,-1.36034 -3.65362,-1.89298 -1.55279,-0.63932 -3.19434,-0.9917 -4.79901,-1.50394 -0.50621,-0.16164 -0.95563,-0.52675 -1.48394,-0.58113 -0.56957,-0.0598 -1.13307,0.16788 -1.69942,0.25138 -1.70956,-0.9011 -3.691,-0.76259 -5.50633,-1.21031 -0.61913,-0.15316 -1.17111,-0.5364 -1.79761,-0.65548 -1.13856,-0.21656 -2.31923,-0.0978 -3.4677,-0.25139 -3.08097,-0.76741 -6.1502,-1.53108 -9.3386,-1.3627 -0.46156,-0.12726 -0.90646,-0.34784 -1.38378,-0.38132 -2.56302,-0.17682 -0.73121,0.73866 -3.60464,-0.0134 -0.62637,-0.16208 -1.14236,-0.63909 -1.77046,-0.79363 -0.57382,-0.1411 -1.18402,-0.0134 -1.77158,-0.0781 -0.64642,-0.071 -1.28198,-0.22057 -1.92299,-0.33086 -1.55739,-0.89981 -3.39188,-0.61677 -4.99628,-1.38387 -0.50787,-0.24291 -0.86717,-0.74452 -1.38419,-0.96719 -1.05033,-0.4525 -2.22532,-0.53814 -3.31396,-0.88883 -0.51411,-0.31657 -1.02756,-0.63297 -1.5414,-0.9495 -0.5176,-0.14914 -1.08784,-0.17682 -1.55413,-0.44736 -0.51987,-0.30185 -0.84922,-0.85606 -1.326,-1.22188 -1.47407,-1.13057 -2.19711,-0.76626 -3.65474,-2.22742 -3.06106,-1.43924 -5.65703,-3.63831 -8.32971,-5.67427 -1.7243,-1.06653 -2.36589,-3.03444 -3.58433,-4.50333 -0.41257,-0.49755 -1.03925,-0.79144 -1.44415,-1.29573 -4.54196,-5.65636 2.92661,2.34606 -2.31096,-3.09674 -1.52859,-1.91575 -2.45363,-4.27454 -3.84978,-6.2624 -0.34069,-0.48505 -0.78626,-0.88655 -1.17941,-1.32989 -0.33087,-0.49871 -0.66204,-0.99697 -0.99309,-1.49541 -3.59575,-3.97186 1.11708,1.3819 -2.33056,-3.04883 -0.32551,-0.41838 -0.80703,-0.70544 -1.10664,-1.14271 -0.32014,-0.46736 -0.34381,-1.11882 -0.72821,-1.53484 -3.36696,-3.64451 0.42508,2.04502 -1.76801,-1.44683 -0.0455,-0.19155 -1.37333,-0.84029 -1.18758,-0.81903 0.68204,0.0781 1.4525,0.66552 2.03712,0.30496 2.35775,-1.45299 0.23084,-3.19536 1.71777,-1.73518 1.44795,2.21161 -0.39293,-0.27148 1.62834,1.44803 0.36346,0.30899 0.57287,0.76689 0.90284,1.11208 0.97634,1.02229 2.1208,1.3795 3.36732,1.96497 2.33775,0.99973 4.25583,-0.20897 6.67414,-0.0911 2.20201,-1.12383 4.58397,-0.79939 6.91355,-1.03926 3.98288,0.47929 7.92402,2.17384 11.46489,4.07428 2.46716,1.22679 4.45601,3.15389 6.79604,4.55866 2.41049,1.44696 0.40007,-0.1795 2.56306,1.77301 1.04912,0.60417 1.83306,1.55176 2.73533,2.29623 0.0402,0.0268 1.85793,1.11011 1.92835,1.19821 0.20405,0.25272 0.19512,0.6181 0.29068,0.92722 2.79734,0.92397 -0.11699,-0.27817 1.81176,1.18094 0.2246,0.17012 0.58346,0.1018 0.79591,0.2871 0.16163,0.1411 0.13216,0.40901 0.22236,0.60373 0.0268,0.0513 -0.0688,-0.20495 -0.0268,-0.17057 0.24915,0.18263 0.44428,0.42999 0.66668,0.64494 0.6641,0.73965 1.92987,0.83824 3.14831,1.36066 0.8001,0.12725 1.78421,0.0647 2.55012,0.38668 0.24915,0.10448 0.40498,0.39427 0.66802,0.45472 0.4696,0.10851 0.96603,-0.10895 1.44612,-0.0598 1.30024,0.45419 1.99755,-0.32104 3.09316,0.18352 0,-0.18888 -0.16789,-0.42597 -0.0402,-0.56502 0.10806,-0.11698 1.24809,-0.288 1.41593,-0.35542 0.30854,-0.12368 1.21487,-0.74166 1.63053,-0.74862 0.34605,-0.0134 0.67209,0.1661 1.00831,0.24915 0.33622,-0.0571 0.66879,-0.19378 1.00894,-0.16967 0.32461,0.0223 0.60207,0.33309 0.9257,0.30541 0.22237,-0.0134 0.30765,-0.34605 0.51474,-0.4291 0.30408,-0.12234 0.66066,-0.0513 0.96844,-0.16431 2.32213,-0.84561 -0.17057,-0.54899 2.52654,-0.64865 0.60676,-0.65409 1.45902,-0.11163 2.1333,-0.36926 0.29916,-0.11431 0.47361,-0.43937 0.74996,-0.60092 0.72553,-0.42508 1.51193,-0.66923 2.34074,-0.66557 -0.5113,-1.23 3.2202,-0.49759 2.58646,-1.86972 0.075,0.0134 0.16477,0.0857 0.22862,0.0455 0.0572,-0.0402 -0.0402,-0.15538 0,-0.2036 0.79532,-0.79444 1.83967,-1.1917 2.89209,-1.47876 0.39293,0.16923 1.51475,-0.30184 2.68439,-1.40017 0.65087,-0.61578 1.83127,-0.72478 2.50189,-1.25421 0.33309,-0.26344 0.4349,-0.77295 0.80041,-0.98875 0.22862,-0.13485 0.53586,0.11073 0.79256,0.0455 0.35007,-0.0862 0.64494,-0.32282 0.96741,-0.48384 0.69218,-0.39605 1.39222,-1.45839 2.1671,-1.69598 0.47759,-0.14601 1.40847,0.50326 1.58851,-0.28398 2.25416,-0.58765 4.00056,-2.22238 6.14676,-3.09258 0.81086,-0.40409 1.66665,-0.94937 2.54016,-1.21768 0.10805,-0.0268 -0.0402,0.39695 -0.4696,0.4616 -0.56443,0.39025 0.0357,0.58181 -0.11431,-0.0357 -0.22459,-0.93477 -0.17413,0.62266 0.0402,-1.78721 0.77858,-2.07212 2.72644,-3.25729 3.60741,-5.28446 0.96018,-1.01496 1.96518,-1.94232 2.77368,-3.09235 0.23085,-0.32864 0.31301,-0.77631 0.62454,-1.02872 0.67061,-0.54274 1.57391,-0.71442 2.31547,-1.15504 1.32699,-1.8636 3.3566,-3.18563 5.31554,-4.31414 1.72929,-1.42853 -0.096,-0.11744 1.6649,-0.88959 0.84235,-0.36926 0.0514,-1.30439 1.74613,-1.46714 1.40093,-1.60731 0.13753,-1.25385 0.41392,0.36435 -0.96701,-0.82091 0.37685,0.98032 0.17369,0.79997 -0.97563,-0.85998 -1.6925,-1.8924 -2.60548,-2.81771 -1.68295,-2.23282 -2.43697,-5.03874 -4.18569,-7.27594 -1.38271,-2.04279 -1.76715,-4.72061 -1.47648,-7.14776 -0.86663,-0.97428 -0.12636,-1.66481 -0.16788,-2.65687 0,-0.25005 -0.2688,-0.45875 -0.24916,-0.70812 0.22862,-2.96046 0.51813,1.19392 0.30452,-1.09579 0,-1.8198 1.14164,-2.82431 2.54355,-3.6254 1.44621,-0.54559 0.85521,-0.47647 1.25492,-1.39972 0.23085,-0.53189 0.82775,-1.17768 1.21188,-1.62687 0.39829,-1.30171 1.12731,-2.43639 1.01532,-3.87491 -0.0357,-0.45531 -0.34783,-0.88333 -0.29604,-1.3373 0.0514,-0.49358 0.39829,-0.90959 0.59695,-1.36441 -0.25541,-0.37685 -0.63173,-0.69696 -0.76622,-1.13239 -0.288,-0.93067 0,-1.96327 -0.22191,-2.91402 -0.37195,-1.67018 -0.96103,-3.35433 -1.4546,-4.99446 -1.45487,-1.96398 -1.27836,-4.61005 -2.45126,-6.66574 -1.46326,-2.56404 -0.38534,0.71183 -1.20607,-2.37669 -0.15316,-0.409 -0.24022,-0.85024 -0.46049,-1.22714 -0.25764,-0.43759 -0.66378,-0.76961 -0.9541,-1.18558 -1.08123,-1.54815 -0.46277,-0.96424 -1.38897,-2.7281 -0.6227,-1.18575 -0.97723,-1.49934 -1.83306,-2.52609 -0.23665,-0.54903 -0.40632,-1.13052 -0.70598,-1.64731 -0.49018,-0.84614 -1.27273,-1.48947 -1.83221,-2.29154 -0.82158,-1.17866 -1.35686,-2.24252 -2.33945,-3.3099 -2.314,-1.18343 0.29068,0.3322 -1.83842,-1.5957 -2.03283,-1.8402 0.32863,1.14187 -1.80663,-1.19968 -1.82793,-2.00479 0.0862,-0.67182 -1.89058,-1.85981 -2.40124,-3.92068 0.70875,0.7258 -1.67575,-1.79632 -0.29336,-0.31077 -0.3581,-0.79385 -0.65177,-1.10525 -0.34828,-0.36971 -0.86454,-0.54675 -1.2334,-0.89646 -1.72421,-1.63472 0.53586,-0.41168 -2.00984,-1.50001 -0.76054,-1.26996 -2.19983,-1.69187 -3.20309,-2.73206 -0.30675,-0.31747 -0.45584,-0.7743 -0.79082,-1.06208 -0.72692,-0.62458 -1.6524,-0.97406 -2.44795,-1.50836 -0.33399,-0.35185 -0.63079,-0.74335 -1.00179,-1.05604 -0.40008,-0.33622 -0.89093,-0.55131 -1.29667,-0.88052 -1.51631,-1.23054 -2.33735,-2.62982 -4.07491,-3.53409 -2.17817,-1.18223 -4.07562,-2.91898 -6.27754,-4.03026 -0.44674,-0.15806 -0.92781,-0.24111 -1.339,-0.47531 -0.36703,-0.20941 -0.60016,-0.60457 -0.95406,-0.83587 -3.76771,-2.46143 0.94633,0.9212 -2.73868,-1.10627 -3.17612,-1.74769 0.5439,-0.58998 -2.84222,-1.44139 -1.92187,-0.46499 -3.50431,-2.15124 -5.5133,-2.37584 -0.41927,-0.0455 -0.84484,0.29917 -1.25175,0.18798 -0.34828,-0.0956 -0.52501,-0.49754 -0.78809,-0.74629 -0.56729,-0.30631 -1.16053,0.24513 -1.71675,0.10582 -0.36346,-0.0911 -0.58769,-0.57636 -0.96285,-0.58328 -0.31881,-0.0134 -0.47759,0.45643 -0.7818,0.55068 -3.75029,1.15709 1.31225,-1.19169 -2.25412,0.58828 -1.70621,0.48612 -3.49944,1.05578 -5.11135,1.8098 -1.40276,0.65602 -2.45277,1.57141 -3.95587,2.07248 -2.34092,2.32204 -5.56656,0.2304 -5.40984,-2.76546 -0.46446,-1.61986 0.64794,-3.37 -0.0268,-4.93976 -0.42508,-0.30005 -2.3044,-0.92329 -3.49256,-0.99438 -2.73529,-0.92075 -5.57528,0.24648 -8.3394,0.384 -4.55424,0.22683 -0.74398,-0.85109 -4.87282,0.69325 -2.23037,-0.44963 -4.01695,0.80314 -6.04961,1.28667 -0.6665,0.15807 -1.38597,0.0357 -2.04162,0.23442 -7.24916,2.18759 4.04039,-0.2496 -3.60139,1.27189 -2.98849,1.12154 -6.05795,2.02765 -8.98483,3.32615 -0.47357,0.0786 -0.97,0.0674 -1.42008,0.23352 -0.37864,0.13976 -0.65878,0.47014 -1.01291,0.66397 -1.30917,0.71526 -2.90371,1.27921 -4.36398,1.48192 -1.12137,0.0268 -2.22197,0.93937 -3.3604,0.78894 -0.18262,-0.0223 -0.3389,-0.14913 -0.50786,-0.22325 -0.18262,-0.0134 -0.36793,-0.0134 -0.55184,-0.0223 -2.13272,0.0223 -3.15429,-1.70063 -4.80848,-2.57025 -1.77631,0.071 -3.42001,-0.18307 -5.19257,-0.34605 -0.63226,-0.058 -1.25465,-0.32997 -1.88638,-0.26478 -0.68919,0.071 -1.31337,0.4416 -1.96996,0.66182 -0.72277,0.0848 -1.44165,0.21299 -2.16812,0.25362 -6.76996,0.38043 1.87802,-0.38757 -4.81076,0.075 -2.01881,0.13976 -3.99699,0.56962 -5.98906,0.89678 -1.68718,0.30764 -3.62393,0.32774 -5.27177,0.85167 -0.91183,0.29023 -1.75033,0.78032 -2.65648,1.08712 -2.77462,1.58065 -6.19588,1.9759 -8.6921,3.95502 -1.64838,0.28711 -2.66313,1.30149 -3.94952,2.21778 -1.31261,0.9349 -2.75993,1.50126 -4.02664,2.51912 -0.43982,0.24112 -0.88101,0.47875 -1.31909,0.72277 -0.30541,0.17012 -1.9763,1.10396 -2.30444,1.34963 -0.94634,0.70803 -1.36199,1.49183 -2.47041,1.94692 -0.35409,1.54252 -2.10785,1.25362 -2.95501,2.16879 -0.0991,0.10806 0.0455,0.3081 -0.0268,0.44026 -0.13753,0.27952 -0.37284,0.49755 -0.5593,0.74581 -1.65022,0.53925 0.10448,0.12368 -1.3833,1.14812 -1.06434,0.73268 -1.23996,-0.32507 -1.95228,1.32529 -0.74321,0.92409 -2.1612,1.09984 -2.87522,2.01983 -1.57748,2.03167 1.19768,-0.94557 -0.95267,1.26939 -0.2697,0.36525 -0.53818,0.73031 -0.80698,1.09547 -0.34069,0.0781 -0.76175,-2.2e-4 -1.02041,0.23397 -0.30631,0.27639 -0.2246,0.82297 -0.49411,1.13628 -0.33399,0.38981 -0.88374,0.53984 -1.25265,0.89727 -0.28175,0.27326 -0.44673,0.64409 -0.67003,0.9662 -0.36971,0.31435 -0.73933,0.62887 -1.10878,0.9433 -0.86931,0.6303 -1.60324,1.65531 -2.50394,2.21626 -0.38624,0.24022 -0.93018,0.20808 -1.26046,0.52046 -0.24871,0.23397 -0.17369,0.66231 -0.31747,0.97017 -0.11699,0.24559 -0.30452,0.44906 -0.45705,0.67375 -0.62087,0.95303 -2.91482,2.90553 -3.00413,3.73966 -0.3264,0.20495 -0.74111,0.31122 -0.9775,0.61445 -0.20405,0.26165 -0.11073,0.66333 -0.25138,0.96397 -0.12905,0.27326 -0.53533,0.313 -0.71264,0.55698 -0.0781,0.10671 -0.0688,0.25585 -0.10537,0.384 -0.24871,0.29425 -0.49871,0.58778 -0.74795,0.88168 -0.7417,0.79202 -1.07489,1.81248 -1.90138,2.62401 -0.21299,0.38266 -0.30452,0.65807 -0.73121,0.76688 -4.37804,4.74668 -7.73464,1.65089 -3.3562,-3.09588 l 0,0 c 0.16164,-0.27729 0.42061,-0.42999 0.67664,-0.62177 0.51412,-1.38508 -0.27862,0.33533 0.83601,-0.74264 0.19467,-0.18976 0.52616,-1.92857 1.42763,-1.9517 0.0268,0.0656 0.0268,0.25943 0.0455,0.19513 0.38221,-1.14575 1.01014,-2.20126 1.80998,-3.16282 1.17196,-1.43576 2.43746,-2.51404 3.63161,-3.94828 0.12279,-0.36569 0.1411,-0.78532 0.36658,-1.09797 0.25496,-0.35229 0.69491,-0.52558 1.01823,-0.8168 1.18071,-1.06337 2.26336,-2.14598 3.3979,-3.23118 2.14946,-1.56395 -0.43981,0.46107 1.76412,-1.84007 1.36887,-1.42928 0.46844,0.27818 1.77908,-1.58815 0.25764,-0.36659 0.2755,-0.90209 0.61141,-1.1979 0.22817,-0.20049 0.60114,-0.0862 0.90195,-0.13083 1.31038,-1.47241 2.59687,-2.80079 4.33317,-3.71225 0.75599,-0.51987 1.45331,-1.55109 2.00202,-1.85592 0.34382,-0.19156 0.76711,-0.24871 1.06922,-0.50045 0.17012,-0.14155 0.17414,-0.40677 0.26032,-0.61025 1.40356,-0.76786 2.3386,-1.8302 3.50212,-2.82981 1.1349,-0.57667 1.80283,-1.45469 2.8328,-2.18956 1.1516,-0.82149 2.53243,-1.32841 3.58066,-2.30891 0.46219,-0.35586 0.88517,-0.77081 1.38771,-1.06787 0.79743,-0.47129 2.33021,-0.82408 3.08718,-1.33007 0.45415,-0.30318 0.72335,-0.83055 1.16508,-1.15177 0.93107,-0.67745 2.11294,-0.95433 3.02516,-1.66808 3.08017,-1.21192 6.12122,-2.23358 9.08789,-3.701 2.77641,-1.25675 5.7332,-1.90263 8.74238,-2.27002 2.49287,-0.72031 3.72457,-0.53925 6.24173,-0.63217 2.51779,-0.0933 2.20251,-0.37551 4.70203,-0.79162 0.78725,-0.13083 1.58641,-0.17816 2.37964,-0.26746 6.87395,-0.31122 -1.4162,-0.0799 4.51208,0.15449 2.21899,0.088 4.44815,-0.12234 6.53867,0.90553 0.78604,0.33444 5.00794,2.12204 3.19108,1.95206 0.89686,-0.48273 -0.21343,-0.0357 0.69343,0.17056 0.31703,0.0719 2.17675,-0.43311 2.49591,-0.5722 1.10878,-0.23397 1.84057,-0.8043 2.87946,-1.16584 1.09177,-0.37998 2.32802,-0.41124 3.34696,-1.04787 3.15487,-0.97384 6.07122,-2.6893 9.2902,-3.53075 3.60857,-0.59564 0.31926,0.10047 3.96159,-1.15534 3.07543,-1.06007 0.79679,-0.0402 4.05146,-0.89887 4.95163,-1.30877 -1.08779,-0.26523 4.40028,-1.07052 4.87461,-0.90324 9.8946,-1.01487 14.83792,-1.00554 2.73104,0.61945 6.38819,1.37258 6.61775,4.7983 0.21566,0.42508 0.55072,0.8072 0.64337,1.27376 0.0634,0.31122 -0.17369,0.61391 -0.20718,0.92955 -0.11698,1.12749 0.41928,2.24479 0.0634,3.37594 -0.60315,0.54327 0.14958,-0.29783 -1.65562,-0.78113 -0.10181,-0.0268 -1.74345,0.67727 0.51076,-0.31524 2.33883,-0.69383 0.34739,0.0455 2.6792,-1.32015 2.15009,-1.25715 4.57889,-2.08199 6.97411,-2.71117 1.58194,-0.70987 2.91576,-1.13097 4.68314,-1.02559 0.40677,0.0223 0.79323,0.23173 1.2008,0.23263 2.74279,0.003 -0.24915,-0.62632 2.35834,0.0759 2.98881,0.6186 5.70351,1.92737 8.58181,2.9243 0.94812,0.51813 1.82043,1.18021 2.80749,1.62025 0.50161,0.22326 1.0998,0.20986 1.57511,0.48442 0.42106,0.2438 0.61489,0.78474 1.03649,1.02702 4.74315,2.72475 -1.29395,-1.69701 2.43446,1.15245 2.47256,0.97504 4.94092,2.50341 6.87793,4.30887 2.24658,1.71206 4.51717,3.3496 6.49879,5.38605 3.03025,2.89861 -1.2367,-1.02019 2.38776,1.73518 0.78149,0.59395 1.18996,1.59539 1.97658,2.18219 0.34604,0.25764 0.83247,0.25987 1.20165,0.48331 0.46901,0.28487 0.85859,0.68468 1.28796,1.02693 1.84056,1.78881 3.75601,3.48042 5.61416,5.25057 0.84596,0.84788 1.68353,1.98733 2.57441,2.76582 0.98688,0.86244 2.23671,1.44723 3.03413,2.56467 2.06467,2.37107 3.72779,4.99847 5.40622,7.66839 3.05811,4.57683 -0.83877,-1.40562 1.72845,2.99613 0.72277,1.23952 1.75872,2.35593 2.46322,3.58928 0.26389,0.46214 0.40231,0.98608 0.60324,1.47916 0.83118,1.35918 2.28533,4.66368 2.7806,6.18114 0.17995,0.54952 0.20986,1.1378 0.31256,1.70679 0.21343,0.58917 0.42463,1.17835 0.63619,1.76752 1.04037,3.47153 2.88728,6.86984 2.26515,10.59602 0.20361,1.08065 0.48616,2.0022 0.27595,3.11803 -0.096,0.51188 -0.42866,0.95598 -0.54845,1.4626 -0.33623,1.41762 -0.43982,2.88392 -1.02238,4.2611 -0.34783,0.58091 -0.5113,1.26751 -0.9053,1.81819 -0.84663,1.18348 -2.08396,2.0978 -3.1809,3.02931 -0.26389,-0.0223 -0.6366,-0.37685 -0.78283,-0.15539 -0.15315,0.23442 -0.33488,1.06373 -0.20093,0.8173 1.53283,-2.81503 -0.32729,-1.76622 0.45875,-1.10137 -0.0455,1.40982 0.59743,2.76922 -0.0513,4.14854 0.67691,1.3373 -0.0268,2.02573 0.44843,3.3975 0.0991,0.288 0.31479,0.52157 0.43401,0.80091 0.13261,0.30631 0.20986,0.63226 0.3139,0.9483 1.11659,2.31918 2.35994,4.56348 4.05093,6.49553 0.56501,0.95706 1.21004,2.00154 1.99666,2.79909 0.27237,0.27684 0.66101,0.45991 0.84466,0.80203 0.16521,0.30764 0.0933,0.69102 0.1411,1.03653 0.0268,0.43669 0.25139,0.8995 0.096,1.3093 -0.18887,0.50099 -1.61217,1.74082 -2.15727,2.13727 -0.76863,0.20004 -0.47246,0.69241 -1.06743,1.12485 -0.75425,0.54845 -1.69076,0.8987 -2.42724,1.48791 -1.18249,0.54327 -1.43812,1.41268 -2.46443,1.96541 -0.32372,0.17459 -0.72196,0.19156 -1.03211,0.38891 -0.52157,0.33131 -0.70267,1.0736 -1.35507,1.26372 -1.80757,1.47697 -3.88246,3.00439 -4.79343,5.19779 -1.36043,0.9337 -2.43023,2.33177 -3.04369,3.88099 -0.47303,-1.71496 0.0455,1.67745 -0.11073,2.00787 -0.45473,0.87204 -1.25113,1.78216 -2.2118,2.155 -0.19736,0.0759 -0.42909,-0.14557 -0.62931,-0.0781 -2.26243,0.76099 1.41589,0.47419 -1.77189,0.52733 -1.24514,1.58346 -1.83538,1.18682 -3.46019,2.09083 -0.33087,0.18396 -0.53184,0.55756 -0.86722,0.73241 -2.62807,1.37124 -0.14958,-0.48955 -1.75635,0.79448 -1.65325,0.7438 -0.90048,0.2246 -1.74229,0.4291 -0.41749,0.10091 -0.98317,1.12092 -1.51563,1.04805 -1.86539,0.6716 -3.31495,2.2105 -5.13149,3.03828 -0.53814,0.23799 -1.16843,0.29068 -1.65053,0.62874 -0.18843,0.13216 -0.1978,0.4215 -0.34828,0.59502 -0.54671,0.63132 -1.36346,0.40052 -2.04765,0.75389 -0.21879,-0.68741 -0.62449,1.12838 -1.314,1.14963 -0.35944,0.17994 -0.68678,0.44843 -1.07823,0.53983 -0.97183,0.22638 -0.16789,-0.49697 -0.86217,-0.0268 -0.41927,0.28354 -0.56783,0.52443 -0.8899,0.91472 -0.33622,0.24291 -0.7321,0.38981 -1.09833,0.58475 -0.70236,0.26032 -1.50009,0.27193 -2.18098,0.57462 -0.37819,0.16789 -0.67508,0.49759 -1.06198,0.64476 -0.80252,0.30542 -1.72487,0.2112 -2.49408,0.64673 -3.84147,0.003 1.31734,-0.18218 -2.22081,0.52277 -0.39249,0.0781 -0.79984,-0.11609 -1.19871,-0.0786 -0.9975,0.0911 -1.77604,0.61346 -2.73202,0.80872 -1.44862,-0.65914 -2.00649,0.55528 -3.3733,0.75331 -0.41169,0.13752 -0.82283,0.2746 -1.23403,0.41257 -0.22236,-0.10046 -0.42686,-0.33443 -0.66851,-0.30005 -0.25139,0.0357 -0.35141,0.39873 -0.59243,0.48045 -0.5835,0.19735 -1.549,-0.13619 -2.15438,0.0134 -2.04546,-0.0455 -3.93635,-1.01639 -5.9636,-1.22795 -0.3139,-0.1853 -0.6511,-0.33622 -0.94241,-0.55528 -0.18887,-0.14244 -0.26031,-0.43892 -0.48442,-0.51818 -0.98263,-0.35319 -2.84454,0.33265 -3.05601,-1.31792 -0.95299,-0.77541 -1.89633,-1.56033 -2.69822,-2.50917 -1.04854,-0.59788 -2.12254,-1.2196 -2.99247,-2.07458 -0.288,-0.2822 -0.45303,-0.69057 -0.78149,-0.92419 -0.25763,-0.18396 -0.60712,-0.1853 -0.91066,-0.27728 -0.3264,-0.29068 -0.65391,-0.58274 -0.98112,-0.87409 -0.78416,-1.07074 -2.06466,-2.23336 -3.27681,-2.81785 -0.62962,-0.30318 -1.39258,-0.27549 -2.00711,-0.60801 -0.60569,-0.32774 -1.05185,-0.889 -1.57811,-1.33351 -0.66735,-0.29469 -1.33466,-0.59015 -2.00206,-0.88534 -0.65329,-0.23576 -1.3565,-0.3639 -1.95978,-0.70901 -1.8921,-1.08226 -1.23278,-1.66013 -3.38831,-2.23912 -0.56502,-0.15137 -1.18031,0.0661 -1.75394,-0.0514 -0.39829,-0.0799 -0.73415,-0.35051 -1.10128,-0.52501 -0.26656,-0.0402 -0.53358,-0.0817 -0.80037,-0.12234 -1.11333,-0.16298 -1.78185,0.1143 -2.86718,0.18262 -1.15521,0.0723 -2.28703,-0.31077 -3.39764,0.23754 -1.52617,0.51072 -2.85695,0.52443 -4.44131,0.72741 -0.61369,0.0786 -1.21366,0.3398 -1.83128,0.30185 -0.43267,-0.0268 -2.4797,-0.95237 -2.85758,-1.11557 -2.21054,-0.55586 -2.92259,-1.09373 -4.70172,-2.45005 -1.42816,-1.08877 -2.85879,-1.7267 -3.10664,-3.72377 -1.99636,-2.34838 -1.33802,-5.51745 2.3707,-4.61447 0.24558,0.0598 -0.0777,0.57819 0.10806,0.7513 0.20093,0.18754 0.54278,0.075 0.81394,0.11297 0.22817,0.23174 0.45589,0.4633 0.68348,0.69468 1.54086,1.17491 3.18661,2.88335 4.23846,4.52517 0.32729,0.5113 0.48732,1.12172 0.83578,1.61936 0.3898,0.5564 0.9074,1.01197 1.36074,1.518 0.96523,1.07936 1.70478,1.79699 2.44492,3.0491 0.31033,0.52438 0.43937,1.14909 0.78452,1.65097 1.02782,1.49291 2.81659,2.42759 3.16876,4.39581 0.73857,0.94004 1.25201,2.04462 1.99988,2.97743 0.37551,0.4696 0.91878,0.77943 1.33716,1.21156 1.1992,1.23916 2.27801,2.63643 3.32803,4.00043 0.75188,0.6411 1.63079,1.12811 2.35414,1.8015 0.34962,0.3255 0.49706,0.85096 0.88856,1.12467 0.48388,0.33845 1.14775,0.33444 1.64785,0.64748 4.32115,2.70926 -2.08083,-0.34917 2.47077,1.69313 0.8519,0.46102 1.8114,0.745 2.58507,1.32792 0.39606,0.29827 0.61771,0.78935 1.01117,1.09097 1.21898,0.93477 2.9526,0.79282 4.11952,1.83998 1.40923,0.6127 2.85758,1.48858 4.34236,1.90111 0.47933,0.13351 1.00184,0.0759 1.47594,0.22683 4.56799,1.45379 -1.44236,0.1661 3.17966,1.04716 0.89632,0.0603 2.42402,0.13172 3.27743,0.33354 0.56502,0.13351 1.07935,0.44339 1.6458,0.57207 1.59306,0.36212 3.2681,-0.0134 4.85036,0.4416 1.75626,-0.0134 3.0448,0.51701 4.73882,0.75215 0.54613,0.0764 1.10735,-0.058 1.65473,0.0134 0.52559,0.0648 1.02733,0.25541 1.54095,0.38222 0.49813,0.0455 0.99697,0.0897 1.49533,0.13395 2.48362,0.76827 5.00409,0.50902 7.54246,1.0489 0.58868,0.12413 1.13311,0.41883 1.7222,0.54157 0.60323,0.12637 1.2254,0.13485 1.83784,0.20227 1.76537,0.48273 3.60557,0.77626 5.35568,1.2643 0.3447,0.0964 2.33043,1.07341 2.5681,1.15302 0.47817,0.16075 0.9859,0.21612 1.47885,0.32417 0.71442,0.4416 1.30685,1.07109 2.04431,1.47335 0.47129,0.25764 1.03715,0.30408 1.51327,0.55131 1.37373,0.71393 2.41384,2.0632 3.97323,2.47104 2.32838,2.06293 -0.26388,-0.0906 2.76663,1.90794 1.9325,1.27484 3.55753,3.00471 5.41243,4.3822 2.13357,2.28167 4.11581,4.62183 6.03192,7.08166 2.07454,2.86527 5.2549,4.79089 7.05765,7.91049 0.96468,1.71362 2.15941,2.92942 3.36191,4.45658 2.37549,3.01605 -0.25763,-0.13976 1.4672,2.86669 0.28442,0.49358 0.71446,0.88686 1.07162,1.33025 1.07435,2.53917 2.35356,5.00811 3.17224,7.63226 0.59306,2.05824 1.81837,4.06455 2.28136,6.07697 0.14958,0.65343 0,1.35851 0.20093,2.00126 0.20406,0.69138 0.64365,1.29056 0.96554,1.93581 0.36926,1.83168 0.27594,1.82565 0.96852,3.5257 0.21567,0.52554 0.56105,0.99902 0.715,1.54524 0.10806,0.38802 -0.0656,0.82479 0.0634,1.20736 0.0572,0.17682 0.63498,0.3398 0.44843,0.33444 -0.54439,-0.0134 -1.06167,-0.24379 -1.59244,-0.36569 -0.45763,0.35899 -0.9637,0.66267 -1.37244,1.07596 -0.17994,0.18217 -0.13217,0.57323 -0.36435,0.68026 -0.12637,0.0571 0,-2.86102 -0.0268,-2.89844 0.42061,-2.23336 -1.01193,-3.28128 -1.48992,-5.24642 -0.25139,-0.43937 -0.97634,-0.93531 -0.69138,-1.35458 2.6988,-3.97158 2.62865,-4.21065 4.64635,-1.70969 1.42575,2.47166 3.59834,4.48333 4.3834,7.30765 1.90893,3.28734 3.86603,6.71727 4.70056,10.44456 1.01353,1.57637 0.79046,2.41438 1.45549,3.76941 0.1862,0.37908 0.57899,0.62984 0.77072,1.00621 1.38115,2.71001 -0.59636,0.21075 1.34132,2.39575 0.22237,3.64237 -0.26031,-0.79559 0.8882,2.8859 0.12904,0.41123 0,0.86328 0.0456,1.29198 0.15538,1.51246 0.409,3.02381 0.59033,4.5349 0.29425,4.92426 -0.0357,-1.91647 -0.0594,3.01024 -0.003,0.50215 0.19781,1.00255 0.13485,1.50091 -0.0656,0.52156 -0.48504,0.96651 -0.5113,1.4913 -0.0513,1.00701 0.77229,1.93013 0.69044,2.94519 -0.36926,1.40941 -0.5176,2.72287 -0.46674,4.18635 0.0268,0.87039 0.40856,1.72795 0.3139,2.59365 -0.0455,0.44732 -0.31033,0.84507 -0.46504,1.26751 0.71075,2.7427 0.12904,-0.20584 0.10805,2.74381 -0.0268,2.22202 0.54158,4.47333 0.85101,6.66325 0.92539,2.09007 1.71563,4.22305 2.64062,6.22329 1.77256,2.51238 -1.23094,-1.89571 -0.95102,0.33622 0.10537,0.31747 0.47071,0.92723 -0.52617,0.59632 -0.0402,-0.0134 1.21786,-1.58208 0.95594,-1.72822 -0.13753,-3.71426 -1.0473,-3.95011 4.12848,-4.66828 0.89597,1.44362 -0.53014,-0.61882 1.07158,0.71947 1.10132,0.92017 1.45791,3.17054 2.34182,4.28003 1.53917,2.91469 2.68233,5.98204 3.96498,9.00345 0.2487,1.50394 0.88668,2.32972 1.47786,3.70252 0.73067,1.69602 -0.18218,0.17994 0.30899,2.0781 0.11743,0.44674 0.38042,0.84092 0.57126,1.26135 0.52671,2.18978 0.21343,4.54678 0.78421,6.75889 0.33488,2.72912 -0.25764,4.54955 -1.26095,7.03143 -0.23084,2.59749 -1.63789,4.58684 -3.10446,6.67959 -0.9203,0.88981 -2.17406,1.8574 -2.9484,2.8545 -0.25139,0.32372 -0.24915,0.80711 -0.51987,1.11302 -3.38447,3.80334 0.39114,-1.61476 -1.99631,1.98398 -0.53532,1.18795 -1.30149,2.36517 -2.12374,3.38 -0.27594,0.34158 -0.70151,0.55417 -0.9446,0.92044 -0.19199,0.28845 -0.10805,0.71549 -0.32104,0.98804 -0.29603,0.37864 -0.76233,0.58685 -1.14356,0.88025 -0.30005,0.38534 -1.7,2.23993 -1.8699,2.57798 -0.4724,0.94187 -0.33309,2.24001 -1.24415,3.02511 -0.88169,2.75056 -1.37964,5.67909 -1.38687,8.56864 -0.0268,1.93148 -0.2688,3.92077 -0.17369,5.84881 0.0268,0.67874 0.29425,1.34471 0.25138,2.02314 -0.0357,0.62141 -0.31925,1.20344 -0.47812,1.80516 -0.0268,0.60948 -0.0656,1.21888 -0.0996,1.82828 -0.49817,2.21233 -0.36346,5.98964 -3.01614,7.09837 -0.59605,0.2496 -1.23978,-0.36525 -1.85972,-0.54729 -1.33864,-0.63865 -2.29426,-2.15826 -3.86036,-2.44706 -1.35565,-0.80493 -3.18358,-1.48005 -4.22163,-2.52073 0.17995,-0.19111 0.9383,-0.44844 0.68026,-0.39919 -0.57421,0.1094 -0.82256,0.44897 -1.39195,0.62441 -2.18398,0.67374 0,-0.47474 -2.16661,0.84412 -2.8603,1.44648 0.15941,0.20227 -2.49644,0.56953 -1.70116,0.23442 -3.19774,1.65142 -5.00236,1.33855 -2.78627,1.24121 0.50278,-0.0513 -2.7497,0.61949 -5.66185,1.16397 2.93612,-0.0598 -3.2565,1.08208 -0.51585,0.0956 -1.05184,0.0134 -1.57198,0.0777 -0.54787,0.0719 -1.0815,0.22861 -1.62245,0.34337 -1.31274,0.44561 -2.21688,0.84716 -3.63607,0.92588 -0.57864,0.0268 -1.15548,-0.192 -1.73296,-0.14333 -1.52349,0.12994 -3.07936,0.84913 -4.60076,1.056 -5.36063,1.30466 -0.88757,-4.95538 -0.84797,-2.68867 1.42165,0.43535 -0.4023,-0.24111 0.93674,0.72353 0.69405,0.49933 2.34641,0.62922 3.14067,1.12365 0.31122,0.12457 0.62034,0.25763 0.93531,0.37373 0.2036,0.075 0.59725,-0.0134 0.62087,0.20227 0.41525,3.77427 1.00273,4.55704 -1.66937,5.1981 -1.75211,0.55872 -3.60192,-0.15137 -5.60667,0.32372 -0.6077,0.14378 -1.14114,0.54037 -1.75483,0.65575 -0.63833,0.12011 -1.29877,0.0268 -1.94813,0.0402 -1.82078,0.0513 -3.60348,0.4032 -5.42185,0.37686 -1.25081,-0.0134 -2.48992,-0.29559 -3.74033,-0.2947 -0.65874,6.3e-4 -1.3123,0.11654 -1.96827,0.17503 -3.78208,0.0455 -7.51764,0.57364 -11.30245,0.0268 -3.98252,-0.37685 -7.92044,-0.95401 -11.90921,-1.25179 -3.65474,-0.68901 -7.36154,-1.07895 -10.63902,-2.99939 -3.27503,-1.52346 -0.32864,0.0223 -3.28526,-2.06539 -1.08113,-0.76402 -2.40593,-1.1666 -3.42425,-2.01274 -0.97719,-0.81193 -1.43566,-2.14334 -2.54234,-2.8399 -0.29648,-0.20986 -3.70323,-2.79725 -3.51833,-3.04364 0.56042,-0.74648 3.65652,-3.85094 3.55307,-1.53126 0.80099,3.37035 -0.25139,-1.77703 -0.10225,2.39682 0.0268,0.51188 0.34783,0.96777 0.45017,1.46978 0.30407,1.49023 -0.0871,3.0215 0.53304,4.45668 0.19781,0.9712 0.5714,1.917 0.62601,2.90652 0.14958,2.74662 -1.88253,5.42448 -4.75297,3.79427 -3.31432,-1.99907 1.26148,0.9963 -1.66848,-1.78399 -0.40856,-0.38757 -1.01296,-0.50273 -1.46728,-0.83511 -0.43535,-0.31792 -0.75211,-0.7793 -1.18335,-1.10284 -3.47006,-2.60249 -0.0996,0.52327 -3.0895,-2.42321 -1.37878,-1.1191 -4.95917,-3.56758 -5.89716,-4.8025 -0.39293,-0.51818 -0.41927,-1.248 -0.78211,-1.78779 -0.35096,-0.52331 -0.88427,-0.89856 -1.32627,-1.34788 -2.0189,-3.90662 -4.57054,-7.57069 -5.21963,-12.03928 -0.73469,-2.47488 -1.52818,-4.99892 -2.1512,-7.49849 -0.22236,-0.88945 -0.24558,-1.82159 -0.48161,-2.70733 -0.21879,-0.81564 -0.72218,-1.54649 -0.87319,-2.37691 -0.15539,-0.84913 -0.0268,-1.7259 -0.0268,-2.58887 -1.04224,-3.97364 -1.95473,-7.61195 -4.56812,-10.88782 -2.92232,-3.70283 -5.99146,-7.31725 -9.51939,-10.46636 -5.64632,-6.6068 2.3194,2.58508 -3.82558,-4.0679 -0.67901,-0.73536 -1.21955,-1.59368 -1.92053,-2.30801 -2.01158,-2.04944 -4.58125,-3.46547 -6.50446,-5.61403 -2.21457,-2.60062 -4.42158,-5.17739 -6.9391,-7.49657 -0.67932,-0.62587 -1.46049,-1.13869 -2.11495,-1.79073 -0.70723,-0.70477 -1.30501,-1.51162 -1.95746,-2.26743 -4.11495,-4.72016 -8.28296,-9.37669 -12.09295,-14.34248 -0.43356,-0.59484 -0.801,-1.24389 -1.30024,-1.78448 -0.34381,-0.37283 -1.45875,-0.48844 -1.20643,-0.92856 0.5768,-1.00622 2.01256,-1.18723 2.86803,-1.97059 0.17637,-0.16164 -0.16789,-0.76528 0.0661,-0.7158 0.64913,0.13708 -0.27863,1.99537 0.74679,1.8452 0.31166,3.24105 -0.16521,-0.46446 0.71473,3.05369 0.62208,2.49181 0.72634,5.12854 1.62293,7.56033 0.41436,1.15473 1.03475,2.22876 1.43696,3.38737 0.18531,0.53305 0.17638,1.11802 0.33623,1.6591 0.47415,1.60325 1.53332,2.91809 1.81082,4.58706 2.21992,4.83232 -1.2409,-2.4685 1.45072,2.41294 0.88396,1.60365 1.30502,3.52494 2.70952,4.82648 1.65954,2.36418 2.98073,4.9389 5.08268,6.93923 0.8022,1.1273 1.84855,2.20398 2.56003,3.38741 0.2487,0.41258 0.35095,0.90758 0.62775,1.30163 2.99658,4.26127 -1.1474,-2.72305 1.66401,2.19295 2.04556,1.25027 0.22817,-0.10761 1.80248,1.9963 0.29067,0.38847 0.71682,0.6574 1.03894,1.02073 0.86931,0.98125 1.26733,2.2735 2.27984,3.1421 1.51452,2.8015 3.4497,5.35697 4.56477,8.3669 1.44143,3.33071 3.59687,6.36015 4.77669,9.83964 2.30382,4.62902 -0.21299,-0.75171 1.50523,3.97158 0.25541,0.70089 0.62512,1.35445 0.9379,2.03158 0.35185,0.62556 0.80613,1.20366 1.05578,1.8766 2.85901,7.70754 -1.97452,-2.85986 1.56837,4.57424 0.44294,1.47183 1.18758,2.84677 1.56908,4.33567 0.17995,0.69986 0.0634,1.4479 0.192,2.15897 0.39204,2.17611 1.24697,4.29325 1.41236,6.52357 0.0933,1.23367 0.37552,2.46675 0.28443,3.70064 -0.0357,0.46785 -0.29336,0.89726 -0.35364,1.36266 -0.27862,2.16826 0.20718,3.37067 -3.00743,3.62643 -1.09225,-0.30184 -1.82083,-0.85078 -2.84262,-1.21486 -1.12164,-0.39919 -2.44287,-0.24291 -3.57589,-0.61784 -0.2487,-0.0357 -0.74554,0.14735 -0.74406,-0.10315 9.8e-4,-0.33622 0.58225,-0.38444 0.74826,-0.67686 1.62838,-2.8712 -0.22236,-2.94675 1.86664,-0.59734 0.70334,2.06605 2.05953,3.74605 2.96756,5.72364 0.22191,0.48442 0.28443,1.03618 0.52956,1.50939 0.27594,0.53246 0.68236,0.9871 1.02363,1.48077 1.14173,3.93099 -0.47072,-0.84847 1.66615,3.05761 0.58587,1.07078 0.60083,2.37602 1.07846,3.4994 0.2429,0.57279 0.63771,1.07132 0.90472,1.63361 0.3005,0.63391 0.53015,1.29921 0.79528,1.94889 -0.0996,3.79097 -0.22191,0.28621 0.579,4.09522 0.13484,0.64016 0.0455,1.31917 0.21298,1.95094 0.17637,0.6565 0.60172,1.22411 0.8127,1.87026 0.62632,1.91745 0.53813,2.61347 0.67271,4.65032 1.50528,7.27586 -0.4416,-2.71251 0.60109,4.64586 0.11922,0.83877 0.52443,1.63271 0.55814,2.47921 0.0268,0.74076 -0.33354,1.45246 -0.3715,2.19286 -0.0723,1.4095 0.41839,2.81869 0.0808,4.23284 -0.26031,1.81703 -0.37641,3.55829 -0.6958,5.35818 -0.0996,0.56501 0,1.17428 -0.22236,1.70688 -0.4662,1.16427 -1.58435,1.61476 -2.55221,2.2234 -3.24324,-0.15717 -2.33798,-0.62878 -4.75749,-2.2552 0,-0.1335 0.10181,-0.28085 0.0402,-0.39918 -0.0357,-0.0679 -0.29068,0.0777 -0.2246,0.0455 0.50675,-0.26389 0.94808,-0.30318 0.84592,-0.81676 0.39069,2.03448 0.14377,4.33844 0.0268,6.38506 0.0402,1.58824 -0.32729,2.93242 -0.48156,4.49758 -0.0634,0.63601 0.0871,1.29501 -0.0656,1.91611 -0.15315,0.63293 -0.55247,1.17977 -0.82828,1.7697 -0.0996,0.62374 -0.1978,1.24738 -0.30006,1.87106 -0.12279,0.52269 -0.68173,2.96564 -0.84636,3.35228 -0.26031,0.61149 -0.72093,1.11971 -1.01849,1.71411 -1.0063,2.01068 -1.2822,4.2861 -2.61129,6.14841 -1.04126,2.39862 -2.58963,4.50794 -3.56414,6.92602 -0.27594,0.68477 -0.34828,1.44067 -0.62601,2.1245 -0.43892,1.07712 -1.3293,1.94147 -1.54086,3.13035 -0.58198,0.54903 -0.99581,1.36865 -1.74591,1.64732 -2.83507,1.05323 -3.62384,-1.81686 -4.91778,-3.41653 -0.51876,-0.92481 -1.25889,-1.55868 -1.97599,-2.34869 -1.1165,-1.23059 -0.74103,-0.65776 1.30747,-1.61168 0.53073,-0.45701 -0.33488,1.0864 -0.35185,1.21866 -0.0513,0.42329 0.12904,0.86217 0.0402,1.27899 -0.11074,0.51014 -0.41883,0.95593 -0.62865,1.43401 -0.35988,2.17406 -0.0268,1.1124 -1.07944,3.1688 -0.16163,0.69379 0.0634,1.43353 -0.0513,2.13687 -0.34471,2.13218 -1.54592,4.1192 -1.9025,6.25638 -1.16455,4.18511 -1.53707,8.51211 -2.81842,12.67744 -0.29425,2.65768 -0.95112,3.45997 -1.81056,5.83023 -0.82167,2.26582 -1.10663,4.04347 -3.18063,5.67837 -0.78814,1.37526 -1.40718,2.84843 -2.26632,4.18037 -1.62307,2.51614 -3.98105,4.51642 -5.58728,7.0468 -0.79832,0.69155 -1.58105,1.29568 -2.23939,2.1274 -0.25496,0.32283 -0.35096,0.77559 -0.66615,1.03961 -1.66169,1.38946 -4.59116,1.03028 -4.46234,-1.61137 -0.26032,-0.47071 -0.0455,-3.13227 -0.0598,-3.89585 -0.47986,-2.38049 5.75178,-0.7768 2.25944,1.10319 -1.90102,1.8941 1.26586,-1.38222 -1.21388,1.84088 -0.25496,0.33086 -0.6599,0.51411 -0.95773,0.80653 -1.29461,1.27113 -2.62682,2.34374 -4.06914,3.47502 -5.15096,3.06883 1.51269,-1.12739 -3.72453,3.01203 -1.36257,1.07694 -3.12103,1.62405 -4.53785,2.60709 -0.71799,0.49817 -1.29689,1.17437 -1.99367,1.70179 -0.69852,0.52898 -1.45657,0.97424 -2.18509,1.4613 -5.0538,2.83539 -10.08558,5.61997 -15.34106,8.07189 -1.37757,0.7346 -9.50564,4.76419 -11.01864,3.9594 -0.93982,-0.49983 -1.34758,-1.64772 -2.02123,-2.47158 0.59386,-2.17625 0.97594,-4.41372 2.77699,-5.9799 0,-0.26255 -0.28175,-0.83743 -0.0268,-0.7872 0.27237,0.0514 -0.0455,0.65611 0.17994,0.81761 1.69764,1.20388 3.91238,-0.18798 1.30864,1.12373 -1.34253,0.50733 -2.10307,1.43455 -3.35593,2.12964 -1.16602,0.64695 -2.51324,0.93231 -3.31606,2.12865 -1.31404,0.5593 -2.35455,1.15937 -3.49346,2.0231 -0.62007,0.47013 -1.12026,1.11226 -1.80735,1.47706 -0.33533,0.17816 -0.73656,0.18575 -1.10458,0.27862 -3.03529,3.32914 1.19598,-1.01054 -1.8561,1.27216 -0.38311,0.28666 -0.58435,0.76148 -0.92142,1.10118 -1.32935,1.33949 -3.07347,2.19237 -4.13242,3.81406 -1.79051,2.45099 -0.74406,1.33699 -3.16563,3.31784 -1.87083,2.19934 -2.34101,5.32916 -4.33522,7.4295 -0.74263,1.04332 -1.79921,2.87187 -3.33204,2.86337 -1.35056,-0.013 -2.45903,-2.30733 -2.82043,-3.39811 -0.44844,-0.83989 -0.74581,-1.76059 -1.25287,-2.56623 -1.68656,-2.67956 -0.76327,-0.27104 -2.0356,-3.0098 -0.26389,-0.56609 -0.3264,-1.22804 -0.67312,-1.74711 -0.33934,-0.50844 -0.88909,-0.83917 -1.33377,-1.25885 -0.14735,-0.3965 -0.1853,-0.85511 -0.44383,-1.18973 -0.11431,-0.14735 -0.65298,0.0603 -0.55126,-0.0956 0.25763,-0.39472 2.69518,-1.23135 0.87645,0.0991 -1.86414,2.76779 -3.80186,5.4653 -5.11644,8.5452 -2.21393,2.40085 -3.78208,5.27856 -7.00044,1.70228 -1.1846,-2.02278 -3.07517,-3.69729 -4.56152,-5.50718 -0.58403,-0.71107 -1.08421,-1.49045 -1.69214,-2.18094 -0.66803,-0.75844 -1.41955,-1.43884 -2.12946,-2.15821 -1.69335,-1.91982 -4.05901,-4.43944 -6.31125,-5.74999 -0.32105,-0.18664 -0.76233,-0.12056 -1.05895,-0.34337 -0.22236,-0.16655 -0.25496,-0.49246 -0.38043,-0.73875 0.45018,-0.45705 0.84802,-0.97246 1.3503,-1.37177 0.096,-0.0764 -0.0268,0.26879 -0.12547,0.34917 -0.12904,0.10671 -0.40633,0.003 -0.47415,0.15538 -0.0839,0.18888 0.0871,0.40499 0.13216,0.60775 -2.05386,0.9166 -3.14076,2.64897 -5.61269,0.77121 -0.54559,-1.27389 0.0719,-0.15449 -1.09681,-1.27037 -1.42722,-1.36333 -2.48358,-3.13875 -4.14014,-4.28016 -2.74189,-3.3358 -6.63511,-5.35666 -9.3645,-8.72403 -1.24447,-1.0234 -2.61611,-1.89834 -3.78092,-3.01176 -0.49701,-0.47531 -0.82788,-1.10257 -1.30381,-1.59887 -1.11896,-1.16669 -2.4551,-2.21161 -3.74972,-3.17139 -0.22504,-0.11609 -0.53643,-0.13618 -0.67838,-0.34694 -0.12547,-0.18977 0.50384,-0.2679 1.18093,-0.94633 0.0871,-0.0875 0.13753,-0.47759 0.10806,-0.35721 -0.17637,0.70035 -0.11431,0.47535 -0.51416,1.16401 -0.18262,0.3965 -0.63976,1.36257 -0.75969,1.73702 -0.0514,0.15717 0.0634,0.38489 -0.0634,0.49076 -1.44978,1.22795 -2.57803,1.6829 -4.11407,0.59908 -0.44294,-0.15226 -0.93531,-0.20361 -1.32877,-0.45754 -2.22497,-1.43893 -2.77909,-4.75351 -5.37055,-5.84394 -4.53244,-4.58241 1.37244,1.5456 -2.82311,-3.32954 -1.63562,-1.90027 -3.81236,-3.30691 -5.43891,-5.22226 -0.29336,-0.28309 -0.56787,-0.58918 -0.88338,-0.84896 -0.16521,-0.13618 -0.64337,-0.13975 -0.54845,-0.33131 0.13485,-0.27103 0.60168,-0.12993 0.85641,-0.29068 0.64548,-0.40855 2.07097,-1.98286 1.93371,-1.23098 -0.0402,0.23218 -0.288,0.37417 -0.43222,0.56153 -0.2697,1.6754 -1.07404,3.21283 -1.1262,4.8429 -0.57015,3.95288 -2.97898,3.10853 -5.57076,2.12759 -1.00054,-0.46447 -1.69344,-1.05292 -2.5978,-1.66625 -0.34069,-0.23085 -0.50559,-0.6662 -0.84239,-0.90267 -0.0688,-0.0455 -0.16521,0.0268 -0.24558,0.0456 -0.48728,-0.26255 -1.06439,-0.3523 -1.52287,-0.66272 -0.23353,-0.15806 -0.3206,-0.49134 -0.56671,-0.62886 -0.29917,-0.167 -0.70723,-0.0661 -1.00032,-0.24514 -0.15316,-0.0933 -0.1411,-0.32908 -0.20986,-0.49361 -0.3456,-0.13351 -0.69102,-0.26791 -1.03653,-0.40097 -0.98081,-1.45947 0.14735,-0.13395 -1.56458,-1.0009 -1.57556,-0.7976 -2.81534,-2.41603 -4.50574,-3.06959 -1.36468,-1.90642 -3.36518,-3.15764 -4.75137,-4.99967 -0.31747,-0.42106 -0.44906,-0.95799 -0.73965,-1.3979 -0.32506,-0.49241 -0.73326,-0.92441 -1.0998,-1.38655 -1.17589,-1.09381 -2.3766,-2.32293 -3.29985,-3.64706 -0.95031,-1.36279 -1.45786,-2.96157 -3.02065,-3.81476 -2.11687,-1.99176 -3.38232,-4.79562 -5.77902,-6.58734 -2.62115,-2.16902 0,0.37909 -1.61583,-2.47648 -0.19468,-0.34159 -0.61065,-0.49987 -0.86927,-0.79578 -0.9107,-1.04144 -1.45433,-2.32047 -2.02216,-3.56204 -0.63588,-1.0451 -1.49474,-2.25493 -1.92321,-3.39286 -0.15584,-0.41749 -0.10806,-0.89106 -0.25139,-1.31265 -0.97598,-2.85571 -0.52215,0.088 -0.80644,-2.75471 -2.21032,-4.96261 1.22509,2.48979 -1.62718,-2.76725 -1.19357,-2.19978 0.33087,-0.19736 -0.44383,-2.63634 -1.056,-3.32561 -0.77706,0.51018 -0.83962,-2.43152 -0.94098,-2.22501 -1.39227,-4.52258 -1.63106,-6.92767 -0.6812,-1.95679 -0.62722,-3.97372 -0.94187,-5.95489 -1.28466,-2.84732 0.36837,1.2158 -0.33087,-2.13062 -0.0871,-0.42195 -0.45758,-0.74215 -0.58225,-1.15481 -0.4416,-1.46009 0.38981,-2.64594 -0.53755,-3.95319 0.37551,-1.23215 0.5221,-1.31431 0.42329,-2.63897 -0.0402,-0.553 -0.29648,-1.08958 -0.26389,-1.6433 0.0268,-0.5764 0.38489,-1.0977 0.45817,-1.67057 0.075,-0.59614 0,-1.20197 -0.0268,-1.80301 0.0902,-0.62458 0.17637,-1.24912 0.26389,-1.8737 0.40855,-2.08981 1.10694,-3.89599 1.74643,-5.91056 0.59998,-1.88986 0.72554,-3.92421 1.92478,-5.59237 0.384,-1.09579 0.87891,-2.1546 1.19536,-3.27181 0.0991,-0.34784 0.0357,-0.73192 0.14734,-1.07632 0.288,-0.88882 0.73175,-0.92932 0.47192,-1.80971 0.10538,-0.0513 -0.35944,0.0456 -0.31747,0.15807 0.0719,0.1911 0.4157,0.0402 0.59904,0.1277 0.43178,0.2112 0.8127,0.51527 1.2238,0.76487 0.36793,0.22326 -1.52559,-0.9954 -1.11208,-0.65369 -2.28967,-0.83618 -1.68379,-3.08124 -1.87798,-5.05973 1.0447,-2.07271 -0.25496,0.76764 0.41257,-1.75899 0.26657,-1.01121 0.81574,-2.02622 1.14807,-3.03453 0.29068,-1.83172 1.03895,-3.65389 1.65084,-5.39908 1.6934,-4.16667 -0.65632,1.88646 0.50787,-1.97153 0.24022,-0.79644 1.49536,-2.51569 1.95741,-3.27364 1.13995,-1.87539 2.65116,-3.49658 4.25552,-4.98503 2.33856,-3.98859 -1.15673,1.65642 2.06976,-2.40955 0.3581,-0.45134 0.46562,-1.06265 0.79595,-1.53479 1.16236,-1.66 0.58917,-0.2956 1.73028,-1.54569 0.13216,-0.14244 0.16163,-0.35185 0.2429,-0.52791 0.0455,-0.41481 -0.0455,-0.77961 0.45816,-0.18263 0.13485,0.15896 -0.30094,-0.30541 -0.49531,-0.38266 0.4616,-0.0513 1.44022,-0.23084 1.48844,0.62449 0.0688,1.21175 -1.72817,-0.49589 -1.8139,-1.92209 -0.0268,-0.29783 0,-0.59542 -2.3e-4,-0.89311 0.2755,-0.66736 0.35721,-1.40616 0.63977,-2.07115 0.40453,-0.95191 0.72124,-0.61087 1.23576,-1.50987 0.18619,-0.32506 0.20718,-0.72277 0.3581,-1.06592 0.16789,-0.38444 0.39874,-0.73955 0.59842,-1.1094 0.67155,-0.88418 0.62694,-1.70571 1.11962,-2.63624 0.20674,-0.38847 0.65325,-0.63204 0.80756,-1.04404 1.09266,-2.92139 -1.3661,0.41481 0.9613,-2.32177 0.12279,-0.57282 0.384,-1.90704 0.61824,-2.40955 0.21879,-0.46848 0.61042,-0.84051 0.83305,-1.30671 0.60775,-1.27319 0.99193,-2.60745 2.03806,-3.66778 0.53871,-0.7142 0.87954,-1.56725 1.43839,-2.26587 0.28443,-0.35587 0.76358,-0.52442 1.04162,-0.88543 0.29425,-0.38043 0.30631,-0.94468 0.63646,-1.29332 0.29336,-0.31032 0.85618,-0.26523 1.14266,-0.58252 0.37418,-0.41436 0.49362,-1.00107 0.74045,-1.50161 2.37299,-2.45907 5.08054,-4.55232 7.67866,-6.7429 4.11549,-2.76176 -0.89128,0.4833 3.25587,-1.85678 1.5477,-0.87333 2.83204,-2.36418 4.46283,-3.07458 0.52273,-0.22862 1.11088,-0.26032 1.66643,-0.39025 4.33709,-3.64809 -1.37695,1.02215 2.84142,-2.02167 0.50103,-0.36168 0.86904,-0.90137 1.40418,-1.21014 0.48621,-0.28085 1.11302,-0.24736 1.60173,-0.52447 0.80792,-0.45812 1.15704,-1.55194 2.1942,-1.718 2.1216,-1.59297 -0.32417,0.42776 1.42817,-1.66446 0.55983,-0.66865 1.56605,-1.00277 1.34877,-2.08373 0.21611,-0.071 0.57073,0.003 0.64548,-0.21075 0.0924,-0.26791 -0.27862,-0.51644 -0.29336,-0.79988 -0.0514,-1.11472 0.57502,-2.36464 0.91548,-3.39259 1.64937,-1.40339 0.2755,0.1469 0.56899,-1.34356 0.0455,-0.23799 2.06547,-3.06655 2.40147,-3.35298 0.61972,-0.94308 1.44465,-1.76698 2.27056,-2.53757 0.31791,-0.29648 0.76501,-0.45133 1.04131,-0.78747 0.27505,-0.33399 0.28442,-0.83788 0.5655,-1.16709 0.30229,-0.35453 0.75246,-0.54957 1.12883,-0.82395 1.48728,-2.64544 3.3491,-4.96453 5.37599,-7.18847 1.51667,-2.02738 0.85163,-0.94062 1.98113,-3.2686 1.55614,-2.32346 4.35558,-3.70211 4.90336,-6.65828 1.26488,-3.13991 3.05959,-4.83407 4.48847,-7.65722 0.29648,-0.58681 0.41793,-1.25519 0.74067,-1.82842 0.33265,-0.59109 0.80551,-1.09136 1.2083,-1.63705 0.0634,-0.1018 1.36405,-2.47541 1.82431,-2.27863 2.00087,0.85542 5.08925,3.04476 2.45064,3.79936 -1.08471,1.66076 0.23084,-0.1536 -1.43085,1.43853 -1.22384,1.17401 -2.25917,2.48733 -3.79887,3.32048 -0.96973,0.97246 -2.10334,1.52126 -3.1,2.40625 -0.914,0.81167 -1.56122,2.03426 -2.72036,2.62575 -1.6713,0.44205 0.0514,-0.15672 -1.64062,1.01823 -0.17994,0.12413 -0.42999,0.0969 -0.62123,0.20093 -0.84596,0.46388 -1.24005,1.41463 -2.2406,1.60694 -0.74946,1.16549 -1.46178,1.3866 -2.12579,2.16451 -0.82837,0.97018 -0.84114,2.10039 -2.17866,2.63705 -1.81172,0.75389 -2.64594,2.97988 -4.4364,3.9018 -0.19468,0.0647 -0.45245,0.0402 -0.58685,0.19468 -0.21344,0.2487 -0.17995,0.64052 -0.36391,0.91164 -0.80426,1.18955 -2.1462,1.88579 -2.95144,3.07472 -0.67718,0.54787 -1.4012,1.04149 -2.03797,1.63584 -0.38444,0.3581 -0.66436,0.82886 -1.08627,1.1419 -0.37284,0.27639 -0.87534,0.33399 -1.25711,0.59784 -0.90315,0.62404 -1.49228,1.64981 -2.55283,2.08065 -0.90682,0.78318 -1.69224,1.71742 -2.68081,2.39451 -0.43937,0.30095 -1.00836,0.37596 -1.44317,0.68249 -1.27448,0.89789 -2.22827,2.33173 -3.59419,3.1421 -0.98528,1.16642 -2.14076,1.9191 -3.30825,2.88924 -0.83966,0.69807 -1.48157,1.64834 -2.41772,2.21023 -0.44518,0.26746 -0.98804,0.31479 -1.48215,0.47241 -0.27238,0.35096 -0.45473,0.7934 -0.81511,1.05247 -0.37864,0.27192 -0.91062,0.24558 -1.31431,0.47933 -0.32104,0.18619 -0.49013,0.58288 -0.81867,0.75536 -1.05538,0.55359 -2.12129,0.56729 -2.97381,1.63227 -0.68178,0.50732 -1.18286,1.235 -1.87772,1.72425 -0.39382,0.27728 -0.93767,0.288 -1.32542,0.573 -1.04372,0.76863 -1.8954,2.50627 -3.25042,3.0169 -2.71921,2.33012 -5.71767,4.22712 -8.94416,5.79683 -2.1078,1.64544 -5.11528,2.9351 -7.41401,0.86199 -0.90226,-1.6637 -1.12971,-2.95733 -0.76831,-4.7774 -0.3965,-1.31739 2.04909,2.58182 2.64308,0.38043 -1.09953,0.85538 -2.20554,1.58668 -3.39978,2.28172 -3.7281,1.88655 0.62391,-0.0576 -1.81471,0.48843 -1.09891,0.24559 -2.1729,1.42781 -3.4309,1.32454 -0.53247,0.058 -1.61369,-0.14557 -2.08088,0.075 -0.27237,0.1277 -0.3715,0.51813 -0.65351,0.62172 -0.28711,0.10538 -0.60985,-0.0268 -0.91459,-0.0455 -0.31122,0.1594 -0.62297,0.31881 -0.93433,0.47817 -5.36161,0.41168 3.53508,-0.32462 -2.59481,0.38757 -1.15155,0.1335 -2.26519,-0.44785 -3.40389,-0.3139 -0.4879,0.0567 -0.94129,0.27952 -1.412,0.41972 -1.42977,0.0223 -2.85164,-0.12056 -4.27383,-0.21566 -0.51875,-0.0357 -1.02068,-0.2438 -1.54028,-0.23755 -0.49648,0.0134 -0.9679,0.27639 -1.46447,0.27193 -0.384,-0.003 -0.74317,-0.19513 -1.11503,-0.29291 -0.37015,-0.0594 -0.76625,-0.0268 -1.11118,-0.17816 -0.48161,-0.20718 -1.93969,-1.3473 -2.14741,-1.8148 -0.2429,-0.54385 -0.27862,-1.15731 -0.41838,-1.73595 0.0268,-0.0268 0.0402,-0.0656 0.0571,-0.0978 -1.42187,-0.99733 3.02096,-1.02944 2.00836,1.29407 -0.0455,-0.10894 -0.0268,-0.34604 -0.14378,-0.32907 -0.14958,0.0223 -0.11073,0.31121 -0.2429,0.3831 -0.42686,0.23174 -1.36855,-0.91061 -1.81118,-0.3264 -0.33578,0.0799 -0.62025,0.34248 -0.96339,0.38043 -0.68799,0.0763 -1.58342,-0.44339 -2.30771,-0.0639 -0.74853,0.10895 -1.43062,0.0455 -2.15218,0.32238 -0.66137,0.25362 -1.20402,0.80944 -1.89629,0.96045 -0.47071,0.10269 -0.96339,-0.0134 -1.445,-0.0134 -1.0009,-10e-4 -1.94509,0.25585 -2.91237,0.29693 -0.92209,0.0402 -1.90022,-0.43803 -2.83905,-0.12859 -0.32595,-0.0134 -0.80158,0.25272 -0.9775,-0.0223 -0.75421,-1.17709 -1.0815,-2.58057 -1.53698,-3.90228 -0.0455,-0.12994 -0.0656,-0.33623 0.0514,-0.40901 0.14377,-0.0902 0.36658,0.15449 0.50674,0.0585 1.14798,-0.79224 -0.34605,-0.5739 0.68834,-0.64976 0.64043,-0.99697 1.63406,-1.82828 2.47497,-2.63062 -0.26389,-0.42999 0.096,0.23576 0.11073,-0.8602 0,-0.38981 -0.30094,-0.73902 -0.30675,-1.12878 -0.0268,-1.70434 0.23665,0.44561 0.0688,-0.77546 -0.47415,-1.96617 -1.51782,-0.8644 -2.09253,-2.88553 -1.59574,-0.8014 -3.24154,-1.48461 -4.91569,-2.13169 -0.92267,-0.3782 -0.40945,-0.20718 -1.55171,-0.47304 -1.31556,-0.52554 -2.26636,-1.29394 -3.80481,-0.99639 -1.06565,-0.39873 -2.2013,-0.32461 -3.23993,-0.70696 -0.91316,-0.33622 -0.93379,-0.93008 -2.03408,-0.43669 -1.13249,-0.16163 -2.19724,0.0134 -3.23435,-0.39427 -0.24871,0.30051 -0.45192,0.54444 -0.20406,-0.21834 0.0514,-0.15449 -0.0661,0.36435 -0.20986,0.43803 -0.10805,0.0571 -0.23397,0.0647 -0.35096,0.0969 -0.23397,0.15851 -0.55983,0.15449 -0.78478,0.32729 -0.76233,0.58779 -0.61199,1.15624 -1.52355,1.7117 -0.20718,0.12547 -0.49415,-0.0737 -0.72303,0.003 -0.21611,0.071 -0.36212,0.27639 -0.5439,0.41526 -1.68562,0.21343 -2.91902,1.08993 -4.60107,0.30988 -2.34129,-0.45477 -2.70055,-0.20272 -3.85666,-2.66965 -0.44789,-0.57193 -0.7371,-0.86302 -0.96968,-1.64245 -0.0656,-0.22325 0.11921,-0.49812 6.2e-4,-0.69914 -0.13842,-0.23576 -0.52903,-0.23085 -0.6803,-0.4587 -0.38981,-0.5873 -0.096,-1.48372 -0.67066,-2.00555 -2.45809,-5.01785 0.73902,1.91531 -0.74496,-2.52511 -0.14958,-0.45308 -0.56046,-0.78841 -0.7183,-1.23885 -0.42508,-1.2108 -0.46786,-2.70746 -0.53247,-3.97502 -0.19468,-1.65549 -0.0268,-0.82355 -0.55524,-2.49051 -0.0594,-0.51415 0.075,-1.03349 0.075,-1.55118 0,-1.69982 -0.42106,-3.3775 0.0268,-5.0558 1.19598,-4.92323 -0.27237,1.80721 0.27862,-3.25288 0.43803,-4.0399 0.47705,0.92803 0.78881,-2.93875 0.0455,-0.57703 -0.0902,-1.15598 -0.0813,-1.73479 0,-0.58051 0.0902,-1.15785 0.13217,-1.73675 -0.53014,-3.246 -0.18887,-0.15807 -0.0781,-3.20711 0.0688,-1.89526 -0.92535,-1.93764 1.49747,-1.27546 0.13484,-0.0456 0.434,-0.28577 0.40766,-0.14333 -0.096,0.51876 -2.49439,1.16298 -2.85664,1.1637 -0.74773,9.8e-4 -1.47563,-0.24201 -2.21341,-0.36346 -2.01671,-2.73283 -0.87016,-2.77717 -1.35498,-5.71575 0.19825,-2.53449 -0.42552,-4.89724 -0.80073,-7.37909 -0.57626,-3.17045 -0.35408,-6.32889 -0.16163,-9.50082 1.05332,-2.76596 0.98205,-5.9152 1.73358,-8.79426 0.0357,-0.17682 0.48272,-2.51739 0.57595,-2.75158 0.1411,-0.35319 0.48045,-0.6048 0.61373,-0.96067 0.49759,-1.32931 0.2429,-2.93094 1.01943,-4.19006 1.11864,-2.72225 1.47376,-5.75062 2.82883,-8.40906 0.52447,-1.1031 1.34346,-2.10673 1.82676,-3.21211 0.58172,-1.33109 0.89361,-2.79596 1.71112,-4.04119 1.13901,-1.9467 2.24479,-3.87313 3.72694,-5.59135 0.38758,-0.44901 0.90316,-0.78032 1.26635,-1.24907 0.34203,-0.4416 0.55243,-0.97076 0.82918,-1.45621 2.68049,-1.8983 4.66903,-4.52155 6.69539,-7.06077 0.63284,-0.7083 1.48635,-1.25871 1.92478,-2.10124 0.21298,-0.41034 0.1018,-0.9274 0.2487,-1.36637 0.32774,-0.97853 0.96822,-1.89445 1.22952,-2.91178 0.30452,-0.59087 -0.23085,-3.14929 0.0357,-4.05388 0.45017,-2.33682 1.82707,-3.22216 3.20996,-5.02276 1.90205,-1.22795 3.20712,-3.18872 5.11591,-4.43203 0.57175,-0.37283 1.25532,-0.54501 1.83967,-0.8969 0.64784,-0.39025 1.22889,-0.88244 1.84351,-1.32364 0.64186,-0.35542 1.34007,-0.62378 1.92558,-1.0656 0.15538,-0.11788 4.57861,-4.14621 4.68591,-4.32053 0.18262,-0.29425 0.20138,-0.66142 0.30095,-0.99215 0.0268,-0.0893 0.20361,-1.28783 0.63257,-0.40677 0.26389,0.54269 0.0455,1.26523 0.37507,1.77234 0.56042,0.86658 1.63374,0.30898 0.18887,0.38801 -1.03867,-0.88391 -2.64874,-1.08953 -3.82731,-1.02215 -2.41348,-3.74779 -2.2493,-3.63098 0.78568,-6.09318 2.13964,-2.18134 4.8788,-3.40094 7.64177,-4.56518 2.85281,-0.99098 -0.0268,0.20808 2.61397,-1.56662 1.40387,-0.94268 3.21184,-1.5289 4.75896,-2.16567 0.75429,-0.34203 1.4408,-0.83114 2.21577,-1.12383 0.48785,-0.18396 1.04215,-0.16074 1.52108,-0.36703 0.44383,-0.19155 0.7342,-0.69236 1.20339,-0.80765 0.53988,-0.13261 1.12226,0.2246 1.66469,0.1027 0.58461,-0.13128 1.06167,-0.55586 1.59266,-0.83368 2.18612,0.10671 2.44442,-0.39874 4.39188,-0.83221 0.55533,-0.12368 1.14539,-0.0134 1.70179,-0.13708 2.80882,-0.60078 -0.26969,-0.61096 2.70572,-0.40543 0.91124,-0.2947 1.73528,-0.83672 2.65951,-1.08802 0.52559,-0.14243 1.09199,-0.0455 1.62629,-0.1469 1.36855,-0.26567 2.72782,-0.86217 4.06311,-1.25112 3.3563,-2.0089 -0.23665,-0.0737 3.31825,-1.36074 3.13174,-1.13388 0.47076,-0.66236 3.74163,-1.635 0.60141,-0.17905 1.27051,-0.11296 1.8474,-0.35944 0.60864,-0.25987 1.08926,-0.75147 1.63401,-1.12726 1.49661,-0.84073 3.15455,-1.26363 4.64242,-2.06618 0.553,-0.29827 0.97781,-0.80645 1.54144,-1.08387 0.52162,-0.25719 1.1145,-0.33265 1.67165,-0.49812 0.4696,-0.24201 0.93942,-0.48451 1.40924,-0.72679 5.90252,-3.34008 -3.31633,1.76881 3.52525,-1.61945 1.32631,-0.65686 2.38236,-1.80239 3.73743,-2.39745 7.96214,-3.49717 -3.48506,2.63231 4.50967,-1.81851 4.36496,-3.11785 -0.42954,-0.0781 4.358,-1.99416 0.70602,-0.28309 1.28979,-0.80823 1.95951,-1.16839 2.11477,-1.13717 4.27646,-2.33271 6.6882,-2.64647 0.65986,-0.43937 1.28524,-0.93576 1.98019,-1.31703 1.79712,-0.98617 3.91336,-1.41647 5.56326,-2.69599 0.50956,-0.39472 0.81212,-1.02408 1.33864,-1.39633 0.43312,-0.30631 0.98407,-0.3965 1.47639,-0.59435 0.49014,-0.33265 1.03895,-0.59127 1.47135,-0.99608 2.01082,-1.88276 0.0402,-0.79867 2.04944,-2.59932 0.50442,-0.45187 1.18968,-0.67977 1.67026,-1.15713 0.95598,-0.95 1.31802,-2.41442 2.56258,-3.12759 1.49161,-2.07485 0.65739,-1.07766 2.52069,-2.97618 0.3005,-0.39248 0.38444,-0.92454 0.68865,-1.31426 0.26032,-0.33488 0.76921,-0.44731 0.97715,-0.81729 0.2487,-0.44116 -0.31926,-1.09994 0.2036,-1.50394 0.0357,-0.83118 0.14959,-1.60351 0.24291,-2.42291 0.0514,-0.44383 -0.39918,-0.76005 0.22816,-0.0639 0.21567,0.0965 0.87079,0.0915 0.70625,-0.0786 -0.14735,-0.15092 -2.55793,0.16208 -2.95014,-0.003 -1.23791,0.20004 -2.51752,-0.23799 -3.60255,0.48156 -1.74496,-0.33845 -3.23341,0.83252 -4.759,1.46394 -1.69826,-0.0402 -0.29425,-0.18263 -1.93192,0.56497 -1.64848,0.75237 -3.47042,1.1854 -5.11318,1.96027 -3.06704,1.28921 -5.91931,3.01176 -9.21979,3.64742 -3.27301,2.43455 1.02752,-0.57158 -2.72278,1.40602 -0.5296,0.27951 -0.94477,0.74018 -1.45366,1.05662 -1.40428,0.87378 -3.01529,1.36833 -4.49882,2.07815 -0.52331,0.27639 -1.04743,0.55412 -1.57092,0.83167 -0.51241,0.15048 -1.05184,0.22951 -1.53881,0.45018 -1.97858,0.89507 -3.7047,2.40553 -5.95664,2.71072 -1.48094,0.65628 -2.95447,0.77845 -4.43658,1.36289 -1.56364,0.61632 -3.02056,1.5906 -4.64264,2.0957 -3.10031,1.22371 -6.50665,2.26644 -9.84133,2.33311 -2.99065,0.36926 -5.97794,0.26791 -8.97309,0.12993 -4.33585,-0.75406 1.37664,0.0134 -2.99073,0.19602 -0.51242,0.0223 -0.99184,-0.30184 -1.50426,-0.3264 -0.50505,-0.0223 -1.00121,0.16968 -1.50675,0.17816 -2.86383,0.0514 -0.17637,-0.48616 -3.05445,0.28621 -1.04376,-0.096 -2.07243,-0.33533 -3.11825,-0.40454 -2.2485,-0.14734 -4.23699,0.17459 -6.41762,-0.82158 -2.86187,-0.6761 -5.66136,-1.49737 -8.4554,-2.40892 -2.05387,-1.17308 -4.26414,-1.98876 -6.19191,-3.37871 -2.00184,-0.82466 -3.42487,-2.51864 -4.48212,-4.36447 -0.27863,-1.03416 -1.80485,-2.59258 -1.07819,-3.34437 -0.31078,-0.50844 -1.38111,-0.86368 -0.90531,-0.86301 0.44736,4.9e-4 0.85168,0.30407 1.2973,0.34113 0.13217,0.0134 -0.20361,-0.1728 -0.30542,-0.25898 -0.68628,0.62481 -0.74553,0.0134 -1.51845,0.21478 -0.23397,0.0625 -0.37998,0.32104 -0.611,0.39203 -0.27595,0.0862 -0.57596,0.0455 -0.86396,0.067 -0.30318,0.0969 -0.60676,0.19468 -0.91003,0.29202 -3.0461,0.16387 0.91754,-0.18888 -2.26252,0.59475 -1.42843,0.35185 -2.86053,0.167 -4.29682,0.15494 -1.65115,0.51871 -5.6652,-0.22951 -4.35688,-2.98261 -0.38891,-0.88132 0.62543,-3.04511 0.75376,-4.11285 0.94598,-1.95702 0.35721,-0.60016 0.23665,-2.35937 -0.0594,-0.86998 0.80577,-1.5531 0.10538,-2.43027 0.2487,-0.62413 -0.21612,-1.86521 0.37283,-0.59998 -0.31077,-0.51072 -1.16445,-1.49103 -1.23911,-2.05346 -0.11431,-0.8598 0.35006,-2.64576 1.19174,-3.07195 0.82113,-0.98175 0.60953,-2.34227 1.05216,-3.49449 0.78604,-0.65253 0.0634,-1.22353 0.0688,-2.0393 0,-0.86324 0.35542,-1.09623 -0.13485,-2.07762 0.24871,-1.29604 -0.22504,-2.19174 -0.77398,-3.36897 -0.29916,-0.24648 -0.69196,-0.40945 -0.89544,-0.73871 -0.13752,-0.22459 0.0268,-0.53988 -0.0514,-0.79077 -0.42329,-1.29212 -1.97768,-2.16558 -1.27452,-3.72699 -0.25763,-0.17592 -0.61877,-0.2554 -0.76889,-0.52786 -0.17146,-0.30809 -0.0402,-0.70379 -0.1018,-1.05046 -0.21567,-1.25412 -0.66227,-2.22461 -0.36436,-3.50579 0.75697,-1.76666 -0.52273,-1.18816 -0.44115,-2.69308 0.0268,-0.33935 1.03394,-2.83879 0.84904,-3.36027 0.0924,-1.42571 0.33756,-3.80619 0.88213,-5.13023 0.16521,-0.40052 0.52389,-0.70299 0.67878,-1.10735 0.10538,-0.2755 0.0513,-0.5864 0.0808,-0.87958 0.35185,-0.91169 0.40856,-2.04641 0.80185,-2.91595 0.56274,-1.24308 1.61793,-1.87481 2.37401,-2.95594 1.72697,-2.34432 -0.57444,0.51241 1.84146,-1.56409 1.22982,-1.05707 1.80997,-2.81262 3.21448,-3.65849 2.03055,-2.95831 -0.80346,0.99438 1.58556,-1.76564 1.11413,-1.2872 1.64119,-3.05945 2.91692,-4.24038 0.92807,-1.46353 2.0707,-2.76591 3.0194,-4.22034 0.20986,-0.32372 0.30764,-0.72008 0.55184,-1.01884 0.3398,-0.41526 0.78608,-0.72947 1.17924,-1.09414 0.0598,-0.2871 0.44606,-2.15615 0.56269,-2.45165 0.45303,-1.14727 1.39798,-1.91389 0.902,-3.29253 -0.39204,-1.58842 -0.20093,-3.14563 -0.13842,-4.71306 0.0572,-0.13976 0.69098,-1.64678 0.69727,-1.65317 0.30408,-0.3063 0.77555,-0.38444 1.14236,-0.61243 0.35988,-0.22326 0.49245,-0.73304 0.86868,-0.92821 0.29068,-0.15137 0.64615,-0.10895 0.96916,-0.16298 2.48599,-0.88757 4.22283,-2.95938 6.6573,-3.9622 0.63498,-0.52675 2.7126,-2.50279 3.21363,-2.78637 0.075,-0.0455 -0.0598,0.16387 -0.0902,0.24648 0.15583,-1.22487 -0.0571,-2.39888 0.0924,-3.64527 -0.11699,-2.49359 1.03439,-3.98387 3.28489,-5.07818 2.01136,-1.30604 2.90827,-0.7233 4.55107,-1.54609 0.58189,-0.29201 0.95049,-0.9324 1.5477,-1.19147 1.10909,-0.48098 2.50225,-0.058 3.50578,-0.92941 2.25466,-0.80818 4.55254,-1.42906 6.86029,-1.79136 1.27385,-0.9712 2.26144,-0.85538 3.72386,-1.38744 1.25349,-0.45585 2.41893,-1.39727 3.63763,-1.93956 2.19349,-0.98411 4.33915,-1.99559 6.5989,-2.79833 3.14353,-0.9992 6.22678,-2.15861 9.43938,-2.9292 3.23011,-0.41927 6.41552,-1.41352 9.68581,-0.64508 1.15942,-0.0679 2.32901,0.0134 3.48118,-0.13752 0.62485,-0.0781 1.21242,-0.40633 1.84204,-0.41928 1.78841,-0.0402 3.68466,0.86365 5.51924,0.37061 2.11655,-0.6778 3.81262,-0.0839 5.70592,-1.28993 0.34605,-0.18173 0.35989,-0.60038 0.77697,-0.73478 0.17638,-0.0567 0.4041,0.0915 0.55649,-0.0134 2.17174,-1.51131 -1.32873,-0.21656 1.78024,-1.14396 0.72103,-0.33846 1.58797,-0.88173 2.3345,-1.09695 0.88636,-0.25585 1.88191,-0.1085 2.70809,-0.63949 0.65793,-0.16967 1.26996,-0.49469 1.93035,-0.65476 0.4291,-0.10404 0.88557,-0.0514 1.31623,-0.14512 0.51523,-0.11565 0.97951,-0.47241 1.50782,-0.48844 0.44339,-0.0134 0.82708,0.36212 1.26903,0.40409 0.39695,0.0357 0.78876,-0.11609 1.18308,-0.17369 3.29311,-0.5576 -1.03381,0.0402 2.20916,0.0223 0.38176,-9.4e-4 0.74228,-0.19602 1.12315,-0.22415 1.33346,-0.0965 2.50252,0.60319 3.82464,0.18128 2.82039,1.11865 6.01513,1.07502 8.60963,2.87227 2.89236,0.82163 5.50731,2.32776 8.29564,3.24395 0.90709,0.12056 1.24085,0.12011 2.09463,-0.0969 0.23084,-0.93767 0.53358,-1.90455 1.15637,-2.67268 0.24871,-0.30854 0.63744,-0.49527 0.8586,-0.82524 1.48152,-2.21122 -0.39204,-0.5364 1.3365,-1.89437 1.40124,-2.22256 4.38733,-2.44912 6.1527,-0.45245 0.84051,1.19397 1.89209,1.40816 3.09579,2.2459 4.08531,2.84254 -1.36467,-0.77724 2.33352,2.13669 0.49129,0.38758 1.0668,0.65486 1.6002,0.98233 1.92746,1.58909 4.5525,3.2873 6.2759,4.98789 0.47531,0.46843 0.7404,1.1257 1.22737,1.5819 0.45249,0.42329 1.03537,0.68052 1.55292,1.0209 1.24121,0.76322 2.70202,1.40745 3.81084,2.36669 0.32908,0.28442 0.56555,0.66642 0.89686,0.94803 0.43937,0.37284 0.40499,0.33533 0.70446,0.19155 0.1411,-0.0656 0.288,-0.2679 0.42508,-0.19602 0.13752,0.071 0.20138,0.35587 0.0839,0.45875 -0.24871,0.22058 -0.68531,0.10627 -0.95111,0.3072 -0.13842,0.10314 0.73683,0.28577 0.52273,-0.21343 0.66914,-1.16165 0.15538,-2.61553 9.8e-4,-3.88858 0.97116,-2.16312 -0.10538,-5.10965 3.37152,-5.28897 0.47874,0.14244 0.9883,0.20495 1.43598,0.42597 1.06618,0.52787 2.23867,2.65389 3.49734,3.06213 2.006,1.9012 4.00413,3.8696 5.70981,6.04072 2.1165,1.3974 0.31255,-0.0848 1.49773,1.71326 0.46674,0.70803 1.20442,1.20956 1.67513,1.91473 0.27237,0.40901 0.41079,0.90128 0.7045,1.29564 0.24291,0.3264 0.58944,0.55984 0.88405,0.83976 1.53149,2.23755 3.43716,4.47399 4.27472,7.0484 2.19563,2.8169 2.84557,6.26402 4.30044,9.48841 1.64816,5.20225 -0.1469,-0.77131 1.24782,4.98159 0.21611,0.88949 0.61605,1.73322 0.7701,2.6354 0.40856,2.39285 -0.0268,4.94689 0.89543,7.2717 0.92062,6.44356 -3.63585,7.09453 -4.55642,0.65088 z"
       inkscape:connector-curvature="0" />
  </g>
</svg>
