<?xml version="1.0" encoding="UTF-8" standalone="no"?>
<!-- Created with Inkscape (http://www.inkscape.org/) -->

<svg
   xmlns:dc="http://purl.org/dc/elements/1.1/"
   xmlns:cc="http://creativecommons.org/ns#"
   xmlns:rdf="http://www.w3.org/1999/02/22-rdf-syntax-ns#"
   xmlns:svg="http://www.w3.org/2000/svg"
   xmlns="http://www.w3.org/2000/svg"
   xmlns:sodipodi="http://sodipodi.sourceforge.net/DTD/sodipodi-0.dtd"
   xmlns:inkscape="http://www.inkscape.org/namespaces/inkscape"
   width="210mm"
   height="297mm"
   viewBox="0 0 744.09448819 1052.3622047"
   id="svg27274"
   version="1.1"
   inkscape:version="0.91 r13725"
   sodipodi:docname="body19.svg">
  <defs
     id="defs27276" />
  <sodipodi:namedview
     id="base"
     pagecolor="#ffffff"
     bordercolor="#666666"
     borderopacity="1.0"
     inkscape:pageopacity="0.0"
     inkscape:pageshadow="2"
     inkscape:zoom="0.24748737"
     inkscape:cx="255.42887"
     inkscape:cy="876.26117"
     inkscape:document-units="px"
     inkscape:current-layer="layer1"
     showgrid="false"
     inkscape:window-width="458"
     inkscape:window-height="626"
     inkscape:window-x="906"
     inkscape:window-y="0"
     inkscape:window-maximized="0" />
  <metadata
     id="metadata27279">
    <rdf:RDF>
      <cc:Work
         rdf:about="">
        <dc:format>image/svg+xml</dc:format>
        <dc:type
           rdf:resource="http://purl.org/dc/dcmitype/StillImage" />
        <dc:title></dc:title>
      </cc:Work>
    </rdf:RDF>
  </metadata>
  <g
     inkscape:label="Layer 1"
     inkscape:groupmode="layer"
     id="layer1">
    <g
       id="g31008"
       transform="translate(-4.0406102,165.66502)">
      <path
         inkscape:connector-curvature="0"
         id="path14303"
         d="m 291.27099,644.70731 c -30.77407,-6.70283 -60.75248,-18.24154 -87.56365,-34.77391 -5.45002,-2.49576 -2.33987,-7.82704 0.91748,-10.70262 24.79733,-36.73274 50.09767,-73.39678 76.41265,-109.10461 23.81019,-34.41477 38.12404,-75.19515 66.13283,-106.71427 6.05383,-7.68586 14.56772,0.89671 18.36857,6.24844 16.6462,25.32405 30.51632,52.54409 49.97307,76.00955 26.51888,34.01107 50.35553,70.34487 81.24268,100.70078 15.14837,17.00103 27.35574,36.31221 42.089,53.60215 4.55541,7.41689 -7.05291,10.91482 -11.79038,13.65466 -29.25881,12.79806 -60.86442,19.83254 -92.69837,21.40496 -46.8381,6.79265 -94.11724,-0.76949 -140.11525,-9.68607 -0.9895,-0.21357 -1.9794,-0.42519 -2.9687,-0.63872 z"
         style="color:#000000;clip-rule:nonzero;display:inline;overflow:visible;visibility:visible;opacity:1;isolation:auto;mix-blend-mode:normal;color-interpolation:sRGB;color-interpolation-filters:linearRGB;solid-color:#000000;solid-opacity:1;fill:#000000;fill-opacity:1;fill-rule:evenodd;stroke:none;stroke-width:1;stroke-linecap:square;stroke-linejoin:round;stroke-miterlimit:4;stroke-dasharray:none;stroke-dashoffset:0;stroke-opacity:1;color-rendering:auto;image-rendering:auto;shape-rendering:auto;text-rendering:auto;enable-background:accumulate" />
      <path
         id="path14303-6"
         d="m 350.96234,584.50284 c -5.77049,-1.0081 -12.12225,-8.94772 -14.83126,-24.5552 -0.15114,-1.47179 -0.30332,-2.94246 -0.45446,-4.41425 -0.37544,-1.46235 -0.93862,-2.89065 -1.12429,-4.38893 -0.21069,-1.70059 0.0644,-3.43281 -0.0575,-5.14208 -0.48954,-6.86631 -1.53001,-13.78384 -2.28245,-20.62877 -0.16253,-2.56416 -0.23401,-5.13496 -0.48465,-7.69201 -0.26196,-2.67493 -0.92074,-5.30992 -1.04959,-7.99468 -0.76365,-15.94543 1.52672,-1.65885 -0.22588,-17.93684 -1.64178,-15.24809 -2.27645,-3.01036 -0.27094,-18.73832 -0.003,-3.07118 0.0679,-6.1415 -0.0117,-9.21166 -0.0814,-3.13705 -0.48487,-6.26281 -0.47313,-9.40085 0.0321,-8.69682 0.87056,-9.63407 1.4133,-18.12306 1.16515,-18.22231 -0.91654,0.96536 1.19979,-16.43708 0.45108,-2.4481 0.90459,-4.89804 1.35566,-7.34614 -0.016,-2.19785 -0.34071,-4.41444 -0.0486,-6.59282 0.26746,-2.00428 1.31006,-3.83643 1.70937,-5.81866 0.16214,-0.76581 0.26948,-1.52303 0.38656,-2.27815 3.58286,-4.95678 7.36025,-9.78334 11.45642,-14.39287 5.14256,-6.52882 12.0339,-1.31672 16.32981,3.68028 -0.11312,0.17818 -0.21313,0.36183 -0.27402,0.56283 -0.5328,1.75617 0.0904,3.74099 -0.7104,5.46103 -2.7782,6.99328 0.13144,-1.48695 -1.0552,6.71332 -0.21319,1.47854 -0.91349,2.84593 -1.28696,4.29229 -1.53477,5.94875 -1.729,11.95052 -2.15187,18.05823 -2.17234,12.45264 -0.81077,2.31454 -1.39266,15.60029 -0.51333,11.71754 -2.61659,23.42911 -1.31805,35.17261 -1.5e-4,6.01383 0.42122,12.0241 0.34395,18.03745 -0.037,2.88865 -0.57586,5.75721 -0.57295,8.64609 0.01,9.87235 0.95933,5.96397 1.96032,15.87242 0.2559,2.53319 0.14006,5.08886 0.21046,7.63396 0.47989,2.29711 1.09997,4.5702 1.44203,6.8918 3.12671,21.21644 -2.22333,-9.03283 1.07402,12.67209 0.29141,1.91791 1.00092,3.75708 1.26103,5.67946 0.32149,2.37541 -0.0369,4.8075 0.32534,7.18469 3.4832,20.06679 -2.97298,30.22948 -10.39207,28.9334 z"
         style="color:#000000;clip-rule:nonzero;display:inline;overflow:visible;visibility:visible;opacity:1;isolation:auto;mix-blend-mode:normal;color-interpolation:sRGB;color-interpolation-filters:linearRGB;solid-color:#000000;solid-opacity:1;fill:#ffffff;fill-opacity:1;fill-rule:evenodd;stroke:none;stroke-width:1;stroke-linecap:square;stroke-linejoin:round;stroke-miterlimit:4;stroke-dasharray:none;stroke-dashoffset:0;stroke-opacity:1;color-rendering:auto;image-rendering:auto;shape-rendering:auto;text-rendering:auto;enable-background:accumulate"
         inkscape:connector-curvature="0" />
    </g>
  </g>
</svg>
