<?xml version="1.0" encoding="UTF-8" standalone="no"?>
<!-- Created with Inkscape (http://www.inkscape.org/) -->

<svg
   xmlns:dc="http://purl.org/dc/elements/1.1/"
   xmlns:cc="http://creativecommons.org/ns#"
   xmlns:rdf="http://www.w3.org/1999/02/22-rdf-syntax-ns#"
   xmlns:svg="http://www.w3.org/2000/svg"
   xmlns="http://www.w3.org/2000/svg"
   xmlns:sodipodi="http://sodipodi.sourceforge.net/DTD/sodipodi-0.dtd"
   xmlns:inkscape="http://www.inkscape.org/namespaces/inkscape"
   width="210mm"
   height="297mm"
   viewBox="0 0 744.09448819 1052.3622047"
   id="svg27274"
   version="1.1"
   inkscape:version="0.91 r13725"
   sodipodi:docname="body16.svg">
  <defs
     id="defs27276" />
  <sodipodi:namedview
     id="base"
     pagecolor="#ffffff"
     bordercolor="#666666"
     borderopacity="1.0"
     inkscape:pageopacity="0.0"
     inkscape:pageshadow="2"
     inkscape:zoom="0.175"
     inkscape:cx="447.04165"
     inkscape:cy="1081.5951"
     inkscape:document-units="px"
     inkscape:current-layer="layer1"
     showgrid="false"
     inkscape:window-width="458"
     inkscape:window-height="626"
     inkscape:window-x="906"
     inkscape:window-y="0"
     inkscape:window-maximized="0" />
  <metadata
     id="metadata27279">
    <rdf:RDF>
      <cc:Work
         rdf:about="">
        <dc:format>image/svg+xml</dc:format>
        <dc:type
           rdf:resource="http://purl.org/dc/dcmitype/StillImage" />
        <dc:title></dc:title>
      </cc:Work>
    </rdf:RDF>
  </metadata>
  <g
     inkscape:label="Layer 1"
     inkscape:groupmode="layer"
     id="layer1">
    <g
       transform="matrix(3.2040723,0,0,3.2040723,-1905.645,-816.13336)"
       style="display:inline;opacity:1"
       id="g28366">
      <path
         sodipodi:nodetypes="ccccc"
         inkscape:connector-curvature="0"
         id="path4742"
         d="m 743.63554,466.66292 c 29.86131,-15.79046 44.54639,-56.30834 34.72338,-80.62478 -7.67726,-23.42401 -39.13584,-43.76626 -64.42636,-45.06068 -61.72276,13.74488 -85.62792,35.0421 -74.42044,85.01182 5.43676,32.88555 57.38747,66.41651 104.12342,40.67364 z"
         style="display:inline;opacity:1;fill:#000000;fill-opacity:1;fill-rule:evenodd;stroke:none;stroke-width:8;stroke-linecap:butt;stroke-linejoin:miter;stroke-miterlimit:4;stroke-dasharray:none;stroke-opacity:1" />
      <path
         sodipodi:nodetypes="ccccccccccccccccccccccscccccccccccccccccc"
         inkscape:connector-curvature="0"
         id="path32777"
         d="m 698.05264,361.96743 c 1.92213,8.17701 11.80164,-0.0156 18.60106,-0.58009 11.3602,-4.10387 25.5254,-2.1656 34.3002,6.47658 6.62529,5.97799 5.00467,16.79458 -1.52613,22.16806 -7.42873,7.52451 -17.92079,12.24832 -28.59514,11.32213 -9.5443,-2.20058 -18.46652,-7.03429 -27.12947,-9.74374 -11.96568,-3.98248 -2.07523,-0.33984 -2.20284,-2.80525 0.37041,-2.72383 -0.3627,1.19283 2.06442,2.56251 7.67532,2.58834 16.19709,2.48392 24.53865,0.89504 7.47991,-1.37082 12.93232,-7.64969 20.36774,-8.80984 9.05873,-2.26325 17.05969,5.85361 19.37218,13.89998 2.29633,9.6649 -4.13046,20.08152 -13.53666,22.92321 -11.37059,5.1827 -23.98521,0.84532 -35.82002,0.0947 -6.63022,-0.72565 -12.64586,-4.28701 -19.41111,-4.33796 2.90331,3.03706 9.25054,5.21047 14.6079,5.73977 7.78751,0.91788 15.60619,-1.43448 22.79855,-4.11365 5.64759,-3.76929 11.74465,-9.04781 19.10094,-6.85511 12.62709,2.70018 16.71102,19.4211 10.08552,29.39401 -5.69775,7.62468 -15.19813,12.14275 -24.51753,13.33056 -9.2194,0.096 -19.11825,0.46913 -27.23749,-4.67721 -5.032,-2.51002 -8.15719,-6.62494 -11.6636,-4.41432 6.99885,-2.38884 12.04718,7.51375 5.8567,12.60705 -10.99731,7.5229 -24.15725,-4.20959 -25.43028,-13.05617 -2.19319,-15.2409 15.03556,-34.86316 36.6845,-14.82701 6.76324,5.11436 16.62138,7.11246 24.6245,5.33649 4.01331,-1.50208 5.76861,-3.55382 8.8847,-6.97898 -1.2523,1.72524 -3.81054,5.21803 2.08849,5.01206 -21.74026,4.24707 -39.94923,12.31869 -61.16465,4.18373 -12.25405,-5.68812 -18.09899,-23.60284 -8.3881,-34.10872 7.50169,-8.9414 20.70009,-6.97876 30.38857,-3.22012 11.555,3.00231 23.5117,3.17555 34.15781,1.34857 0,0 -8.5974,4.89793 -11.71071,6.27677 -12.72565,4.82732 -22.32805,8.12567 -40.2464,3.75594 -8.83805,-3.34121 -19.02415,-12.72249 -18.38752,-22.63321 1.77379,-18.92225 21.31201,-19.75951 26.78524,-18.0857 11.99661,4.97467 29.6504,16.2888 39.0793,5.90275 -3.1168,3.51945 -4.95011,4.07324 0.4789,6.04244 -8.43349,-4.22374 -14.61957,0.29308 -25.93962,1.95975 -10.31215,1.31614 -18.01096,2.12968 -23.99918,-4.70285 -5.16884,-5.41388 -11.22,-15.75482 -3.67113,-21.77251 5.3016,-4.73709 13.54131,-1.9964 15.71171,4.49034 z"
         style="display:inline;opacity:1;fill:#ffffff;fill-opacity:1;fill-rule:nonzero;stroke:#000000;stroke-width:1.41887367;stroke-linecap:round;stroke-linejoin:round;stroke-miterlimit:4;stroke-dasharray:none;stroke-opacity:1" />
    </g>
  </g>
</svg>
