<?xml version="1.0" encoding="UTF-8" standalone="no"?>
<!-- Created with Inkscape (http://www.inkscape.org/) -->

<svg
   xmlns:dc="http://purl.org/dc/elements/1.1/"
   xmlns:cc="http://creativecommons.org/ns#"
   xmlns:rdf="http://www.w3.org/1999/02/22-rdf-syntax-ns#"
   xmlns:svg="http://www.w3.org/2000/svg"
   xmlns="http://www.w3.org/2000/svg"
   xmlns:sodipodi="http://sodipodi.sourceforge.net/DTD/sodipodi-0.dtd"
   xmlns:inkscape="http://www.inkscape.org/namespaces/inkscape"
   width="210mm"
   height="297mm"
   viewBox="0 0 744.09448819 1052.3622047"
   id="svg8089"
   version="1.1"
   inkscape:version="0.91 r13725"
   sodipodi:docname="body1.svg">
  <defs
     id="defs8091" />
  <sodipodi:namedview
     id="base"
     pagecolor="#ffffff"
     bordercolor="#666666"
     borderopacity="1.0"
     inkscape:pageopacity="0.0"
     inkscape:pageshadow="2"
     inkscape:zoom="0.24748737"
     inkscape:cx="400.53513"
     inkscape:cy="822.99233"
     inkscape:document-units="px"
     inkscape:current-layer="layer1"
     showgrid="false"
     inkscape:window-width="464"
     inkscape:window-height="595"
     inkscape:window-x="900"
     inkscape:window-y="7"
     inkscape:window-maximized="0" />
  <metadata
     id="metadata8094">
    <rdf:RDF>
      <cc:Work
         rdf:about="">
        <dc:format>image/svg+xml</dc:format>
        <dc:type
           rdf:resource="http://purl.org/dc/dcmitype/StillImage" />
        <dc:title></dc:title>
      </cc:Work>
    </rdf:RDF>
  </metadata>
  <g
     inkscape:label="Layer 1"
     inkscape:groupmode="layer"
     id="layer1">
    <g
       id="g15311"
       transform="matrix(1.7258415,0,0,1.7258415,-93.349808,-220.32483)">
      <g
         transform="matrix(0.743786,0,0,0.743786,-1287.3422,-537.38383)"
         style="fill:#000000;fill-opacity:1"
         id="g10680">
        <path
           style="color:#000000;clip-rule:nonzero;display:inline;overflow:visible;visibility:visible;opacity:1;isolation:auto;mix-blend-mode:normal;color-interpolation:sRGB;color-interpolation-filters:linearRGB;solid-color:#000000;solid-opacity:1;fill:#000000;fill-opacity:1;fill-rule:evenodd;stroke:none;stroke-width:7;stroke-linecap:square;stroke-linejoin:round;stroke-miterlimit:4;stroke-dasharray:none;stroke-dashoffset:0;stroke-opacity:1;color-rendering:auto;image-rendering:auto;shape-rendering:auto;text-rendering:auto;enable-background:accumulate"
           d="m 2060.5809,1068.0286 c -8.6487,0.2718 -12.0408,10.4629 -15.0184,17.1015 -4.2306,5.6338 5.7159,9.1321 3.7022,15.2845 -0.369,13.7178 -10.4517,24.1479 -19.145,33.7477 -9.0689,12.6061 -3.089,30.9717 8.739,39.663 7.4147,7.7847 18.3367,9.9337 28.6642,8.9161 1.7271,-0.1417 7.742,0.3345 2.883,1.5429 -1.6279,0.2088 -6.1638,1.1007 -3.2887,3.2218 0.7576,1.2018 4.9504,3.6094 3.8864,4.4064 -7.6781,-2.969 -15.0713,-6.8743 -23.1501,-8.9445 -11.9188,-6.2091 -21.6679,-17.2338 -24.9823,-30.4159 -5.9684,-7.5545 -16.2502,-10.0012 -25.513,-9.1389 -5.5903,-0.2508 -12.9336,-1.6562 -9.8941,6.0272 -0.3342,11.75 -10.5023,22.6149 -22.6449,21.7483 -9.7002,1.5291 -17.9994,-4.6606 -25.7378,-9.5496 -1.9668,2.1692 1.8643,6.4571 1.7156,9.4064 2.6447,9.7497 -4.864,19.1993 -14.2725,20.9598 -10.6287,3.1839 -21.4995,0.9137 -32.0041,-1.2688 -5.7188,1.1742 -9.1492,7.4326 -13.3618,11.0787 -5.6295,8.0615 -5.5246,18.6773 -7.078,28.094 -1.0809,9.0026 0.603,18.4843 5.9796,25.7849 0.081,7.2891 -2.926,14.6854 -0.5201,22.0065 2.9794,25.7206 2.7935,51.9017 8.2649,77.2837 2.2999,22.2619 0.7975,45.032 6.9333,66.8394 8.0594,39.0822 4.8584,80.2317 18.5193,118.2668 5.6235,17.5129 13.3632,35.0068 27.5027,47.362 10.4598,10.1866 21.9879,21.8377 37.6818,21.9831 24.6032,2.164 45.8073,-16.5644 55.1951,-37.9706 7.85,-18.5031 13.6596,-38.3267 14.812,-58.4712 0.1705,-16.3925 -6.4825,-32.1293 -4.275,-48.5987 8e-4,-22.5582 8.9006,-44.9651 4.4086,-67.504 -0.7789,-4.375 -5.8557,-7.1906 -6.396,-11.1975 1.556,-2.749 5.9295,-0.7941 6.6097,-4.6762 9.8419,-25.2761 16.1409,-51.7923 24.8743,-77.4714 6.4713,-19.4687 3.1967,-40.6302 10.4474,-59.9417 6.0484,-17.6643 9.89,-36.4202 7.0524,-55.1063 -1.2396,-14.5835 0.8429,-29.1701 5.0051,-43.1792 3.3902,-20.1462 4.0164,-42.1814 -5.0214,-60.9915 -5.4009,-7.7333 -12.5138,-16.3688 -22.9236,-16.0462 -2.5406,-0.2437 -5.0983,-0.3753 -7.6498,-0.2525 z"
           id="path10112"
           inkscape:connector-curvature="0" />
        <path
           style="color:#000000;clip-rule:nonzero;display:inline;overflow:visible;visibility:visible;opacity:1;isolation:auto;mix-blend-mode:normal;color-interpolation:sRGB;color-interpolation-filters:linearRGB;solid-color:#000000;solid-opacity:1;fill:#000000;fill-opacity:1;fill-rule:evenodd;stroke:none;stroke-width:7;stroke-linecap:square;stroke-linejoin:round;stroke-miterlimit:4;stroke-dasharray:none;stroke-dashoffset:0;stroke-opacity:1;color-rendering:auto;image-rendering:auto;shape-rendering:auto;text-rendering:auto;enable-background:accumulate"
           d="m 1912.552,1147.4594 c -13.1605,1.6218 -22.7188,13.6355 -25.7052,25.9555 -1.7544,6.7701 -5.5573,14.1648 -3.5886,21.1648 4.7276,-2.773 9.5483,-6.7176 15.5543,-5.2588 11.0917,2.8004 23.9751,4.6169 33.8383,-2.7168 6.6766,-4.0429 7.6907,-12.8212 4.258,-19.37 -2.9131,-7.8584 -7.6103,-17.8263 -17.1969,-18.2879 -2.3439,-0.6554 -4.6827,-1.5808 -7.1599,-1.4868 z"
           id="path10114"
           inkscape:connector-curvature="0" />
        <path
           style="color:#000000;clip-rule:nonzero;display:inline;overflow:visible;visibility:visible;opacity:1;isolation:auto;mix-blend-mode:normal;color-interpolation:sRGB;color-interpolation-filters:linearRGB;solid-color:#000000;solid-opacity:1;fill:#000000;fill-opacity:1;fill-rule:evenodd;stroke:none;stroke-width:7;stroke-linecap:square;stroke-linejoin:round;stroke-miterlimit:4;stroke-dasharray:none;stroke-dashoffset:0;stroke-opacity:1;color-rendering:auto;image-rendering:auto;shape-rendering:auto;text-rendering:auto;enable-background:accumulate"
           d="m 1947.0571,1118.1614 c -10.8349,1.8942 -19.8724,11.3392 -23.3638,21.4799 -1.2961,8.2354 8.7654,11.7769 13.3722,16.6979 7.9105,6.1308 16.3839,14.6937 27.414,12.3236 9.6283,0.5341 18.6872,-6.1738 20.2527,-15.828 1.7087,-13.6643 -11.624,-22.9719 -22.1831,-28.644 -5.0068,-2.1312 -9.8957,-5.8285 -15.492,-6.0294 z"
           id="path10116"
           inkscape:connector-curvature="0" />
        <path
           style="color:#000000;clip-rule:nonzero;display:inline;overflow:visible;visibility:visible;opacity:1;isolation:auto;mix-blend-mode:normal;color-interpolation:sRGB;color-interpolation-filters:linearRGB;solid-color:#000000;solid-opacity:1;fill:#000000;fill-opacity:1;fill-rule:evenodd;stroke:none;stroke-width:7;stroke-linecap:square;stroke-linejoin:round;stroke-miterlimit:4;stroke-dasharray:none;stroke-dashoffset:0;stroke-opacity:1;color-rendering:auto;image-rendering:auto;shape-rendering:auto;text-rendering:auto;enable-background:accumulate"
           d="m 1986.752,1091.1809 c -10.7465,0.7291 -20.9602,5.9701 -29.4642,12.2915 -3.6958,3.7666 -2.8681,9.8237 -2.5205,14.4602 11.5024,4.1741 20.7384,12.0177 29.8527,19.8421 5.1519,3.6957 12.791,4.9138 18.6681,2.9434 0.3527,-1.7041 -0.8709,-3.3451 2.1795,-1.9098 6.6984,1.1597 15.0306,-7.0899 9.5316,-13.2884 -5.2531,-9.2685 -6.4889,-20.2587 -9.3762,-30.3641 -4.2383,-4.8758 -13.1426,-3.2432 -18.871,-3.9749 z"
           id="path10118"
           inkscape:connector-curvature="0" />
        <path
           style="color:#000000;clip-rule:nonzero;display:inline;overflow:visible;visibility:visible;opacity:1;isolation:auto;mix-blend-mode:normal;color-interpolation:sRGB;color-interpolation-filters:linearRGB;solid-color:#000000;solid-opacity:1;fill:#000000;fill-opacity:1;fill-rule:evenodd;stroke:none;stroke-width:7;stroke-linecap:square;stroke-linejoin:round;stroke-miterlimit:4;stroke-dasharray:none;stroke-dashoffset:0;stroke-opacity:1;color-rendering:auto;image-rendering:auto;shape-rendering:auto;text-rendering:auto;enable-background:accumulate"
           d="m 2026.7793,1084.7827 c -5.6571,3.5552 -13.0858,5.8727 -16.7476,11.6938 -1.4138,10.4279 6.5921,19.1878 8.0728,29.1815 3.8099,5.2668 12.5822,2.1387 16.5361,-1.6357 6.6072,-7.4216 12.8938,-17.7937 10.8478,-28.0831 -2.4229,-6.4237 -9.0941,-9.9362 -14.6458,-13.0662 -1.3544,0.6365 -2.7089,1.2731 -4.0633,1.9097 z"
           id="path10120"
           inkscape:connector-curvature="0" />
        <path
           style="color:#000000;clip-rule:nonzero;display:inline;overflow:visible;visibility:visible;opacity:1;isolation:auto;mix-blend-mode:normal;color-interpolation:sRGB;color-interpolation-filters:linearRGB;solid-color:#000000;solid-opacity:1;fill:#000000;fill-opacity:1;fill-rule:evenodd;stroke:none;stroke-width:7;stroke-linecap:square;stroke-linejoin:round;stroke-miterlimit:4;stroke-dasharray:none;stroke-dashoffset:0;stroke-opacity:1;color-rendering:auto;image-rendering:auto;shape-rendering:auto;text-rendering:auto;enable-background:accumulate"
           d="m 2018.7691,1129.8228 c -2.2221,1.02 -1.3673,4.7692 -3.8799,6.0508 -1.1369,1.6451 -6.2299,4.7311 -2.0371,5.9796 4.3571,2.5783 9.9739,6.3333 10.1055,-1.7544 0.3786,-3.2687 3.6282,-6.0675 3.6749,-9.0093 -2.4553,-0.7924 -5.3266,-0.3738 -7.8634,-1.2667 z"
           id="path10122"
           inkscape:connector-curvature="0" />
      </g>
      <g
         transform="matrix(0.743786,0,0,0.743786,-1287.3422,-537.38383)"
         style="fill:#ffffff;fill-opacity:1"
         id="g10688">
        <path
           style="fill:#ffffff;fill-opacity:1;fill-rule:nonzero;stroke:none;stroke-width:1px;stroke-linecap:butt;stroke-linejoin:miter;stroke-opacity:1"
           id="path10666"
           d="m 2023.6741,1175.0151 c 0.011,0.3661 -0.012,0.7346 0.031,1.0984 0.1808,1.5242 0.5605,3.0378 0.7507,4.5649 0.082,0.6561 0.2668,2.9393 0.3195,3.5663 0.464,3.8167 0.7739,7.6458 1.0064,11.484 -0.032,0.6414 -0.1075,1.2822 -0.095,1.9243 0.012,0.6302 0.1708,1.2532 0.1672,1.8836 0,0.6258 -0.1319,1.2447 -0.1887,1.868 -0.1485,1.6309 -0.255,3.2616 -0.3235,4.8975 -0.3477,1.3762 -0.3299,2.8097 -0.6953,4.1822 -0.1131,0.4245 -0.3508,0.8143 -0.4259,1.2472 -0.7774,4.48 0.8996,-2.0176 -0.3733,2.5853 -0.8753,2.4656 -1.9161,4.8708 -2.6499,7.3844 -0.1695,0.3353 -0.3594,0.6612 -0.5084,1.0061 -0.131,0.3031 -0.1783,0.6407 -0.33,0.934 -0.1986,0.3835 -0.8883,1.1531 -1.0711,1.5754 -0.99,2.2875 0.6185,-0.4173 -0.7279,1.6942 -1.2615,1.6386 -2.9945,2.7488 -4.5172,4.1098 -2.1914,1.0757 -4.2466,2.3344 -6.3744,3.52 -0.7252,0.7181 -2.3104,0.3971 -2.9437,1.1581 -2.0052,-0.7373 0.1282,-2.1096 0.7729,-2.3382 0.075,-0.1466 0.1086,-0.3227 0.2242,-0.4398 0.087,-0.088 0.2399,-0.073 0.3461,-0.1375 0.1159,-0.07 0.4045,-0.579 0.4666,-0.662 -0.6735,0.5767 1.2576,-1.3349 0.4252,-0.741 -0.771,0.5502 0.2354,0.4768 -0.2559,0.3512 -0.617,-0.6827 0.616,0.1004 -0.6031,-0.392 -0.4214,0.079 -0.7224,-0.2879 -1.104,-0.3392 -0.2319,-0.031 -0.4669,0.093 -0.6992,0.065 -0.2414,-0.03 -0.4523,-0.1874 -0.691,-0.234 -0.1548,-0.03 -1.382,-0.074 -1.5288,-0.08 -0.6358,0.2413 -1.2666,-0.026 -1.8847,-0.037 -0.214,0 -0.4227,0.1396 -0.6338,0.1038 -0.3102,-0.053 -0.6667,-0.5491 -0.8337,-0.7419 -0.9961,-0.8507 -0.7117,-1.4686 -0.893,-2.5773 -0.2661,-1.6278 -0.2853,0.1724 -0.1586,-1.6645 -0.2674,-2.4127 -0.1013,-4.8561 -0.2338,-7.2797 -0.031,-2.9248 -0.6591,-5.7985 -1.5121,-8.5825 0.01,-1.8677 -0.7937,-3.5686 -1.1483,-5.3559 -0.033,-0.1669 -0.1005,-1.3019 -0.1148,-1.5261 -0.2867,-0.4275 -0.2856,-0.2243 -0.1821,-0.5817 -0.4832,-3.1821 1.0168,-3.41 1.5001,-0.2279 l 0,0 c 0.1656,0.3003 0.1,0.114 0.1105,0.5822 0.4944,1.6637 -0.1195,-0.6235 0.1718,1.4434 0.2545,1.8054 1.2433,3.4949 1.1973,5.3633 0.6779,2.8888 1.5202,5.8094 1.5321,8.7874 0.02,0.5053 0.04,1.0106 0.06,1.5159 0.058,0.4652 0.1514,0.9273 0.173,1.3956 0.038,0.822 -0.1669,1.6433 -0.1279,2.4652 0.017,0.3503 0.2008,0.6856 0.1834,1.0358 -0.016,0.3203 -0.187,0.6135 -0.2804,0.9203 0.1626,1.061 0.3841,2.1657 0.6519,3.1505 0.3189,0.6392 1.9977,0.2362 2.5206,0.1251 0.2644,0.1417 0.4984,0.3702 0.7933,0.4251 0.2746,0.051 0.5503,-0.1017 0.8288,-0.1229 0.9658,-0.073 1.8313,0.2726 2.7005,0.6551 1.1354,0.065 1.1029,-0.067 1.6252,0.9362 0.1602,0.4464 0.3995,0.9037 0.1859,1.3954 -0.036,0.082 -0.2002,0 -0.2609,0.067 -0.063,0.069 -0.036,0.1847 -0.054,0.2771 -0.078,0.064 -0.1556,0.1281 -0.2334,0.1922 -0.077,0.7368 -1.005,1.1022 -1.4387,1.5912 -1.4595,1.2073 -0.7563,1.366 -1.7573,-0.369 -0.021,-0.037 -0.061,0.061 -0.091,0.091 0,-0.093 -0.077,-0.217 -0.01,-0.2784 0.058,-0.052 0.1356,0.1079 0.2129,0.097 0.111,-0.015 0.186,-0.1301 0.2919,-0.1667 0.658,-0.227 1.3472,-0.3688 1.9439,-0.774 2.0547,-1.1737 4.1685,-2.2601 6.2989,-3.2861 0.8529,-0.6466 1.4899,-1.3574 2.2308,-2.1209 0.4017,-0.414 0.9193,-0.7047 1.318,-1.1217 0.1712,-0.1792 0.27,-0.4156 0.405,-0.6234 1.1667,-0.8812 0.1954,0.059 0.8134,-1.32 0.1264,-0.282 0.3683,-0.4975 0.5269,-0.7626 0.5165,-0.8632 0.7132,-1.8294 1.1086,-2.7457 0.6232,-1.446 0.3574,-0.6947 0.7883,-2.2569 0.1716,-0.4205 0.481,-0.7763 0.6468,-1.1991 0.1669,-0.426 0.1887,-0.8984 0.3441,-1.3287 0.1509,-0.4179 0.3805,-0.8031 0.5707,-1.2046 0.1322,-0.3946 0.2644,-0.7892 0.3965,-1.1837 0.1559,-2.3858 -0.091,-0.228 0.4741,-2.4956 0.43,-1.7241 0.5854,-3.5353 0.9271,-5.2738 0.054,-3.4605 0.7065,-6.8951 0.3217,-10.3655 -0.056,-1.2652 -0.044,-2.5336 -0.1279,-3.7973 -0.043,-0.6496 -0.1672,-1.292 -0.2119,-1.9415 -0.044,-0.6368 0.01,-1.2789 -0.053,-1.9141 -0.063,-0.6388 -0.2477,-1.261 -0.3241,-1.8984 -0.074,-0.619 -0.084,-1.244 -0.1267,-1.8661 -0.1374,-3.3523 0.09,-0.2647 -0.4278,-3.4508 -0.3041,-1.8709 -0.4023,-3.7779 -0.7763,-5.6379 -0.5788,-3.4728 1.0583,-3.7457 1.6371,-0.2728 z"
           inkscape:connector-curvature="0" />
        <path
           style="fill:#ffffff;fill-opacity:1;fill-rule:nonzero;stroke:none;stroke-width:1px;stroke-linecap:butt;stroke-linejoin:miter;stroke-opacity:1"
           id="path10668"
           d="m 1989.8874,1227.8685 c 1.6202,0.6501 3.0133,1.7314 4.5985,2.4481 0.6139,0.2776 2.5933,0.9697 3.1877,1.1822 2.8845,1.1213 0.4273,0.2451 3.5334,1.1192 0.6419,0.1806 1.2573,0.4598 1.911,0.592 1.9145,0.3873 2.1544,0.099 4.0844,0.1882 0.6961,0.032 1.3868,0.1393 2.0802,0.209 1.9674,-0.5381 4.0696,-0.1116 6.048,-0.5116 0.6675,-0.135 1.2824,-0.4625 1.9376,-0.6483 1.3162,-0.3732 2.7389,-0.6142 4.0807,-0.8698 3.5886,-0.9564 7.0304,-2.3561 10.3043,-4.0958 2.587,-1.175 5.2477,-2.2676 7.5189,-3.9971 3.0248,-2.6146 -1.0541,0.7401 1.9315,-1.2174 0.6559,-0.4301 0.6274,-0.8011 1.1793,-1.2831 0.9163,-0.8001 0.2165,0.1718 0.7379,-0.639 0.077,-0.036 0.1547,-0.072 0.232,-0.1076 2.2051,-2.3009 3.2898,-1.2614 1.0847,1.0395 l 0,0 c -0.071,0.066 -0.1411,0.1322 -0.2117,0.1983 -0.8649,1.1628 0.541,-0.6246 -0.8236,0.6665 -0.2051,0.1941 -0.2816,0.5027 -0.4953,0.6873 -0.2577,0.2226 -0.6172,0.2991 -0.8871,0.5067 -0.2931,0.2255 -0.525,0.5211 -0.7876,0.7816 -0.3522,0.2528 -0.7045,0.5055 -1.0568,0.7583 -2.5352,1.4318 -5.0159,2.9512 -7.6761,4.1512 -2.9126,0.8793 -0.6053,0.032 -3.306,1.457 -2.3164,1.2224 -4.9002,1.8145 -7.3826,2.5945 -2.7628,0.509 -1.3925,0.1998 -4.1108,0.9283 -2.743,0.5539 -5.5633,0.718 -8.3327,1.0894 -2.8635,-0.2487 -1.4289,-0.201 -4.3037,-0.1428 -0.7291,-0.06 -1.4377,-0.2722 -2.1577,-0.4017 -2.0374,-0.3662 -3.7746,-0.8736 -5.7474,-1.4866 -0.5663,-0.2351 -1.1326,-0.4702 -1.699,-0.7053 -0.5123,-0.2466 -1.0153,-0.5134 -1.5369,-0.7397 -0.4913,-0.2132 -1.0227,-0.3329 -1.4991,-0.5776 -1.0178,-0.5228 -1.8921,-1.3703 -3.034,-1.679 -3.1713,-1.2685 -2.5733,-2.7635 0.598,-1.4949 z"
           inkscape:connector-curvature="0" />
        <path
           style="fill:#ffffff;fill-opacity:1;fill-rule:nonzero;stroke:none;stroke-width:1px;stroke-linecap:butt;stroke-linejoin:miter;stroke-opacity:1"
           id="path10670"
           d="m 1975.8874,1281.2512 c 3.3539,2.2567 6.7377,4.4412 10.2658,6.4197 4.8344,3.1363 9.7136,6.2068 14.3341,9.6599 3.3217,1.6708 6.3593,3.8263 9.5257,5.752 7.5113,4.5683 -2.866,-2.0526 4.4398,2.6561 2.0557,1.3908 4.3859,2.2388 6.6206,3.271 0.7348,0.3394 1.4299,0.7632 2.1744,1.0807 1.4149,0.6034 2.9632,1.0133 4.4343,1.4462 0.7021,0.1124 1.4215,0.1461 2.1064,0.3371 0.6509,0.1815 1.2193,0.6054 1.8739,0.7731 0.6028,0.1544 1.2496,0.051 1.8577,0.1831 0.5842,0.1266 1.1148,0.4408 1.6945,0.5866 4.9797,1.2517 -1.6221,-0.7978 2.966,0.6849 1.3372,-0.1473 2.6705,0.1055 4.0079,-0.037 0.419,-0.045 0.8261,-0.1694 1.2434,-0.2277 0.4346,-0.061 0.8839,-0.024 1.3101,-0.1286 0.4272,-0.1044 0.8164,-0.3274 1.2245,-0.4911 2.1105,-0.5207 3.6443,-2.0979 5.4998,-3.0851 0.483,-0.3749 1.4535,-1.9242 0.8627,-0.089 -1.362,-2.741 -0.07,-3.383 1.2921,-0.6421 l 0,0 c -0.01,0.362 0.068,0.7375 -0.03,1.0861 -0.031,0.1108 -0.2288,0.065 -0.3157,0.1403 -0.13,0.1128 -0.2107,0.2721 -0.316,0.4082 -0.1878,0.1341 -0.3757,0.2682 -0.5635,0.4024 -1.9103,1.2281 -3.8183,2.5382 -6.0356,3.161 -0.876,0.2915 -1.7942,0.6333 -2.7095,0.7852 -0.4604,0.076 -0.9329,0.051 -1.3956,0.1116 -0.4588,0.06 -0.9031,0.2289 -1.3654,0.2514 -0.053,0 -2.9537,-0.2308 -2.9856,-0.2333 -3.6317,-0.5559 -7.0887,-1.8152 -10.7137,-2.3983 -3.633,-1.247 -0.8092,-0.2347 -4.5047,-1.683 -0.7759,-0.304 -3.9042,-1.4524 -4.6369,-1.8484 -0.7416,-0.4007 -1.3567,-1.009 -2.0935,-1.4184 -0.7442,-0.4135 -1.5548,-0.694 -2.3322,-1.041 -4.5246,-3.059 -9.5378,-5.3271 -13.9058,-8.6369 -1.5877,-1.082 -3.0842,-2.299 -4.71,-3.323 -0.8203,-0.5166 -1.7398,-0.8631 -2.5607,-1.3789 -0.8182,-0.5141 -1.5407,-1.1686 -2.3454,-1.7036 -1.5796,-1.0501 -3.3005,-1.8785 -4.826,-3.0153 -5.0517,-3.26 0.4368,0.2213 -4.4982,-2.7323 -4.226,-2.5293 0.1592,0.02 -3.5739,-2.3741 -0.757,-0.4854 -1.5815,-0.859 -2.3382,-1.3456 -2.8926,-2.1694 -1.8699,-3.5329 1.0227,-1.3635 z"
           inkscape:connector-curvature="0" />
        <path
           style="fill:#ffffff;fill-opacity:1;fill-rule:nonzero;stroke:none;stroke-width:1px;stroke-linecap:butt;stroke-linejoin:miter;stroke-opacity:1"
           id="path10672"
           d="m 1972.0553,1297.5894 c 1.5668,0.6858 3.0113,1.5618 4.4942,2.4051 0.7538,0.4286 1.5649,0.7608 2.2841,1.2451 0.8069,0.5434 1.5052,1.2333 2.2766,1.8261 0.8225,0.6321 1.6694,1.232 2.5041,1.848 5.1518,4.3715 10.5814,8.3961 16.1305,12.2506 0.9113,0.5626 1.8418,1.0953 2.734,1.6879 0.862,0.5726 1.666,1.2293 2.5255,1.8057 2.7153,1.8209 2.1469,1.3156 4.9466,2.8429 3.6865,2.0112 0.9847,0.7698 4.7968,2.3574 4.8142,2.4724 -0.4801,-0.016 4.6998,1.7071 0.8137,0.2707 1.5341,0.7858 2.3531,1.0402 0.8026,0.2494 1.6505,0.3186 2.4788,0.4608 5.3789,0.9233 -0.3381,-0.16 5.0304,0.8868 4.1042,0.1471 8.3067,0.504 12.2855,-0.7334 0.8449,-0.6803 1.8953,-0.6962 2.8574,-1.0035 1.3701,-0.4377 -0.2123,-0.2137 1.0302,-0.3402 3.0108,-0.3522 3.1768,1.0671 0.166,1.4193 l 0,0 c -0.2839,0.3927 0.1919,-0.1901 -0.6931,0.1743 -0.2473,0.1018 -0.3982,0.3764 -0.6469,0.4747 -0.3339,0.1321 -0.7056,0.1332 -1.0584,0.1998 -0.4148,0.2077 -0.8296,0.4154 -1.2444,0.623 -1.8423,0.2809 -3.6775,0.7991 -5.5479,0.8575 -2.4299,0.076 -4.8941,-0.2288 -7.3244,-0.231 -1.7327,-0.323 -3.4864,-0.527 -5.2176,-0.8581 -3.1035,-0.5937 -1.9605,-0.5548 -4.9908,-1.441 -4.0615,-1.1877 -1.1325,0.092 -4.8773,-1.8261 -1.644,-0.7555 -3.3573,-1.3657 -4.9575,-2.2099 -0.8403,-0.4433 -1.6144,-1.0024 -2.4149,-1.5142 -2.6206,-1.6753 -5.1934,-3.4238 -7.7817,-5.148 -5.6306,-3.7599 -10.933,-8.0025 -16.2676,-12.1681 -0.814,-0.6022 -1.628,-1.2045 -2.4421,-1.8068 -0.7798,-0.5301 -1.578,-1.0342 -2.3395,-1.5903 -0.6948,-0.5073 -1.3031,-1.1327 -2.0266,-1.5982 -1.1714,-0.7535 -3.1564,-1.5995 -4.4858,-2.1979 -3.0667,-1.5333 -2.3439,-2.979 0.7229,-1.4456 z"
           inkscape:connector-curvature="0" />
        <path
           style="fill:#ffffff;fill-opacity:1;fill-rule:nonzero;stroke:none;stroke-width:1px;stroke-linecap:butt;stroke-linejoin:miter;stroke-opacity:1"
           id="path10674"
           d="m 2041.3707,1374.3627 c -0.3108,-0.126 -0.6381,-0.2172 -0.9324,-0.378 -1.8445,-1.0072 -0.4072,-0.6029 -2.569,-1.3974 -0.5672,-0.2085 -1.1736,-0.3003 -1.737,-0.519 -1.299,-0.5042 -2.603,-1.3043 -3.8046,-1.9835 -0.7439,-0.3232 -1.5154,-0.5892 -2.2318,-0.9697 -0.7881,-0.4186 -1.4875,-0.9902 -2.2691,-1.4208 -0.8468,-0.4666 -1.7496,-0.8243 -2.6091,-1.267 -2.8503,-1.4681 -5.6418,-3.0647 -8.4721,-4.5719 -3.737,-2.4807 -7.6641,-4.6362 -11.3394,-7.2079 -0.9115,-0.6378 -1.8679,-1.2182 -2.7221,-1.9308 -0.8556,-0.7136 -1.5944,-1.5565 -2.3916,-2.3347 -5.4927,-4.0784 -9.9366,-9.3303 -14.2894,-14.5559 -1.3317,-1.8755 -3.0906,-3.3811 -4.5389,-5.154 -0.7179,-0.8788 -1.3333,-1.8366 -2.0055,-2.7508 -1.9048,-2.5904 -3.8324,-5.0325 -5.5787,-7.7368 -0.9449,-1.6695 -2.24,-3.1238 -3.1866,-4.7922 -0.4283,-0.755 -0.7279,-1.5762 -1.1094,-2.3559 -0.65,-1.3287 -1.4534,-2.5829 -2.0413,-3.9402 -0.2295,-0.5299 -0.3602,-1.0973 -0.5403,-1.646 -0.6077,-1.3174 -1.0265,-2.7458 -1.8283,-3.9649 -1.6998,-3.1765 -0.2024,-3.9778 1.4975,-0.8013 l 0,0 c 0.2325,1.1049 -0.1065,-0.1766 0.4901,1.023 0.4967,0.9985 0.552,2.2032 1.3166,3.085 1.5067,4.4885 4.1316,8.5473 6.4653,12.6373 0.6687,0.7687 1.381,1.5015 2.0062,2.3061 1.3128,1.6895 2.3902,3.5526 3.6885,5.2534 1.7417,2.2817 2.5478,2.9964 4.3682,5.2271 0.717,0.8787 1.3946,1.7888 2.0919,2.6832 0.6763,0.7826 3.8363,4.452 4.5258,5.2 3.4542,3.7467 1.2201,1.1628 4.8175,4.6969 4.6677,4.5857 -0.2063,0.2434 4.737,4.5057 5.092,4.2377 10.6605,7.8018 16.3551,11.1751 1.8935,1.06 3.8519,2.0014 5.7449,3.0625 0.8821,0.4945 1.6829,1.1285 2.5773,1.6005 0.8572,0.4523 1.7964,0.7334 2.6641,1.1654 6.0206,2.9974 -1.2188,-0.1956 4.5868,2.2854 2.8024,1.7143 5.8563,2.9617 8.8709,4.2544 3.2194,1.2878 2.6123,2.8055 -0.6071,1.5177 z"
           inkscape:connector-curvature="0" />
        <path
           style="fill:#ffffff;fill-opacity:1;fill-rule:nonzero;stroke:none;stroke-width:1px;stroke-linecap:butt;stroke-linejoin:miter;stroke-opacity:1"
           id="path10676"
           d="m 1973.3605,1226.7458 c 1.3898,-0.7997 0.097,0.047 1.5283,-1.3205 0.7138,-0.6821 1.5871,-1.1846 2.2932,-1.8747 0.3442,-0.3363 1.8884,-2.247 2.1807,-2.6046 1.9165,-1.8341 2.4412,-3.6207 3.4712,-5.9045 1.0431,-2.3129 0.6133,-0.5335 0.9667,-3.1111 0.6314,-1.6883 0.4885,-3.4708 0.6105,-5.226 0.042,-0.6003 0.1788,-1.1927 0.2019,-1.7941 0.059,-1.5429 -0.103,-1.9083 -0.3978,-3.4071 -0.3021,-2.5763 0,-0.6949 -0.6232,-3.1916 -0.1322,-0.5275 -0.176,-1.0792 -0.3582,-1.5916 -0.5512,-1.5498 -1.576,-3.068 -2.3353,-4.5238 -0.7406,-0.8125 -1.0807,-1.8826 -1.714,-2.7617 -1.2064,-1.6749 -0.6825,-0.4809 -1.8564,-2.0468 -0.3881,-0.5179 -0.6527,-1.1184 -1.0084,-1.659 -0.1253,-0.1995 -0.2506,-0.3989 -0.3758,-0.5983 -1.6819,-2.1769 -0.6557,-2.9698 1.0261,-0.7929 l 0,0 c 0.1674,0.1739 0.3347,0.3478 0.502,0.5217 1.4876,1.6016 -0.2485,-0.3459 1.1799,1.534 0.2594,0.3414 0.5931,0.6236 0.8396,0.9745 0.291,0.4143 0.45,0.9161 0.7663,1.3116 0.3498,0.4377 0.8898,0.7061 1.2128,1.1639 0.3405,0.4824 0.4955,1.0719 0.7433,1.6078 1.1978,2.0302 2.3296,4.1817 2.884,6.492 0.1349,0.562 0.1736,1.1444 0.3104,1.706 0.1398,0.5741 0.3452,1.1301 0.5179,1.6951 -0.151,3.6964 -0.088,-0.1859 0.1518,3.5961 0.1585,2.4985 -0.5402,4.9258 -0.6052,7.4164 -0.4062,1.563 -0.417,1.9468 -1.136,3.3863 -0.2648,0.5302 -0.6398,1.001 -0.8979,1.5345 -0.2684,0.5544 -0.3723,1.184 -0.6769,1.7194 -0.6104,1.0729 -1.6816,1.838 -2.1967,2.9812 -1.0908,1.3186 -2.1775,2.7367 -3.5084,3.8305 -0.3653,0.3002 -0.81,0.4948 -1.1726,0.7983 -1.9891,1.6648 0.1474,0.3058 -1.6149,1.3509 -2.5707,1.928 -3.4796,0.7162 -0.9089,-1.2119 z"
           inkscape:connector-curvature="0" />
        <path
           style="fill:#ffffff;fill-opacity:1;fill-rule:nonzero;stroke:none;stroke-width:1px;stroke-linecap:butt;stroke-linejoin:miter;stroke-opacity:1"
           id="path10678"
           d="m 2010.075,1250.4007 c -2.062,-1.7491 0.8688,0.6677 -1.8788,-1.3115 -0.4186,-0.3016 -0.7553,-0.7112 -1.1878,-0.9926 -0.462,-0.3006 -1.0131,-0.4453 -1.4778,-0.7417 -0.8556,-0.5459 -1.6148,-1.2335 -2.4678,-1.7834 -1.0071,-0.8818 -2.1932,-1.7224 -3.0244,-2.7938 -0.6625,-0.8539 -0.035,-0.3318 -0.5708,-0.7381 -0.2867,-0.8039 -0.4828,-0.8808 1.3299,-1.0181 0.2041,-0.015 0.3135,0.2661 0.4458,0.4223 0.8426,0.9948 1.6423,1.909 2.5878,2.8252 0.4841,0.4586 0.9682,0.9171 1.4523,1.3757 0.5045,0.5716 0.9664,1.1838 1.5135,1.7147 0.5884,0.571 1.2779,1.0294 1.8838,1.582 1.9928,1.8172 3.9426,3.6894 5.7794,5.6631 0.262,0.1928 3.8118,2.7971 4.1032,3.0434 3.617,3.0583 -0.121,0.3132 3.484,3.23 4.1914,3.3912 -0.351,-0.7074 3.6038,2.9715 4.9014,3.6262 -1.2344,-1.004 3.4261,2.8028 0.1881,0.1536 3.159,2.2991 3.3578,2.4536 2.841,2.208 0.1819,0.3951 3.1279,2.3053 1.3799,1.1275 3.0285,1.8072 4.573,2.6617 0.4873,0.2697 0.9399,0.6044 1.4453,0.8387 0.9312,0.4316 1.9343,0.6874 2.8975,1.0419 2.9264,1.4596 6.157,1.4784 9.3268,1.8822 2.3206,-0.1291 4.6859,-0.06 6.989,-0.4249 5.4574,-0.8643 -2.3408,0.036 3.1413,-0.5473 2.8351,-0.3931 0.3182,0.1219 2.8671,-0.8691 0.4113,-0.1599 0.8688,-0.1838 1.2754,-0.3552 0.4143,-0.1745 0.7687,-0.4676 1.1678,-0.6745 3.0875,-1.6006 -0.6067,0.4883 2.2155,-1.1398 2.6293,-1.5638 -0.4972,0.4095 1.6188,-1.2548 0.2455,-0.1931 0.5814,-0.2585 0.8096,-0.4717 0.2312,-0.216 0.3213,-0.5508 0.5348,-0.7844 1.752,-1.9178 -0.3471,0.8266 0.9817,-0.9724 0.3742,-0.4167 0.7293,-0.7595 0.9463,-1.2748 2.0981,-2.7478 3.3934,-1.7587 1.2953,0.989 l 0,0 c -0.4206,0.3679 -0.7584,0.787 -1.0557,1.2637 -1.3233,1.4705 -2.6982,2.8025 -4.3432,3.9363 -1.2248,0.56 -2.3466,1.2932 -3.5658,1.8577 -1.3563,0.628 -1.4383,0.5411 -2.905,0.9099 -0.5283,0.1328 -1.0538,0.2763 -1.5807,0.4144 -3.4762,0.3586 -6.9584,1.1423 -10.4693,0.898 -3.3511,-0.287 -6.7381,-0.3883 -9.8176,-1.9157 -1.9175,-0.8324 -0.9241,-0.4882 -2.9834,-1.0243 -0.5396,-0.2151 -1.0248,-0.5474 -1.5339,-0.827 -1.6223,-0.8911 -3.351,-1.6196 -4.6782,-2.9506 -3.6189,-2.1526 -6.6974,-5.0718 -10.0561,-7.5976 -2.3155,-2.0843 -1.1087,-1.0957 -3.622,-2.964 -0.5862,-0.5049 -1.0578,-1.1336 -1.644,-1.6384 -0.6073,-0.5231 -1.2993,-0.9398 -1.9275,-1.4376 -1.3497,-1.0694 -2.6025,-2.2578 -3.9711,-3.3045 -3.6986,-3.336 -7.4647,-6.6198 -10.7898,-10.3375 -0.6799,-0.7045 -1.2872,-1.48 -2.0008,-2.1503 -0.2342,-0.2199 -0.5507,-0.3419 -0.7779,-0.5691 -0.1244,-0.1243 -0.3453,-0.3121 -0.254,-0.4624 1.0638,-1.7498 1.1458,-0.265 1.0462,-1.1767 0.2273,0.4066 0.5658,0.997 0.8989,1.3098 0.2134,0.2005 0.5259,0.2793 0.7287,0.4906 1.7493,1.823 -0.9243,-0.1269 1.5667,1.5084 2.5713,1.3073 0.1357,-0.056 2.5604,1.702 1.5405,1.1167 3.3887,1.8846 4.5831,3.4289 2.0812,2.0812 1.1001,3.0622 -0.9811,0.981 z"
           inkscape:connector-curvature="0" />
      </g>
    </g>
    <g
       style="display:inline;opacity:1"
       id="g16025"
       transform="matrix(2.1495647,0,0,2.1495647,-1587.8922,-891.91743)">
      <g
         transform="matrix(0.55605292,0,0,0.55605292,-322.08298,-150.96982)"
         id="g10731">
        <path
           style="color:#000000;clip-rule:nonzero;display:inline;overflow:visible;visibility:visible;opacity:1;isolation:auto;mix-blend-mode:normal;color-interpolation:sRGB;color-interpolation-filters:linearRGB;solid-color:#000000;solid-opacity:1;fill:#000000;fill-opacity:1;fill-rule:evenodd;stroke:none;stroke-width:7;stroke-linecap:square;stroke-linejoin:round;stroke-miterlimit:4;stroke-dasharray:none;stroke-dashoffset:0;stroke-opacity:1;color-rendering:auto;image-rendering:auto;shape-rendering:auto;text-rendering:auto;enable-background:accumulate"
           d="m 2324.8818,1090.1609 c -11.9778,-0.2167 -25.7854,4.5868 -30.9964,16.1671 -1.7507,22.6187 -7.953,45.0084 -5.3451,67.8773 0.5411,6.3901 0.9292,12.8308 1.9939,19.1516 1.2464,0.9168 2.3151,-5.0105 3.5066,-2.9758 -2.2277,9.9216 -9.338,18.0249 -12.9238,27.5221 -9.5016,18.2132 -13.764,38.6976 -13.1568,59.1852 0.5605,16.8666 -9.2407,31.6441 -14.3417,47.2485 -10.5349,23.6935 -17.0919,49.0818 -19.8699,74.8358 -1.927,32.8047 6.2089,65.2803 4.1065,98.1054 -0.6688,21.9126 -2.7409,44.1146 2.6527,65.6591 2.5047,11.4559 5.4486,25.2968 17.4181,30.5345 8.8422,6.125 19.6189,7.0362 30.0332,6.197 12.0158,0.1384 24.0799,-1.5772 34.691,-7.554 14.274,-5.8725 26.7593,-17.2825 30.5954,-32.6518 4.5469,-12.4283 6.6699,-25.496 10.06,-38.1986 6.4486,-21.3323 18.5902,-40.2636 29.6068,-59.4214 3.9233,-5.4701 -1.4408,-12.3753 3.0664,-17.4489 6.9781,-8.2918 14.7693,-16.335 17.6033,-27.1811 5.3263,-16.1464 10.5328,-32.5581 20.8835,-46.3047 16.1935,-27.9513 30.8873,-57.42 36.3063,-89.5918 1.5849,-12.1115 5.3371,-25.7381 -0.4765,-37.1923 -3.1869,0.713 -3.8446,6.5229 -1.9918,9.1128 0.9033,1.121 1.8267,6.1772 -0.438,5.4186 -0.745,-3.3773 -2.4377,-6.697 -6.545,-6.4954 -10.7519,-1.1446 -23.1532,-4.8605 -27.1704,-16.152 -3.3246,-5.0705 -1.4686,-13.4402 -8.241,-15.9794 -9.4124,-7.7486 -17.3655,-22.4862 -9.4237,-33.8361 1.9247,-3.7195 -4.3784,-1.8028 -6.0098,-3.1959 -8.0985,-2.3125 -15.2014,-7.3 -20.7829,-13.3834 -10.985,4.0246 -23.0541,3.0177 -34.175,6.1155 -4.5804,6.0712 -8.3345,13.6007 -15.9052,16.7177 -6.3634,2.8281 -13.3758,7.5277 -20.5183,6.2231 -2.2185,-2.3997 3.6467,-1.4601 4.6741,-2.2183 12.6904,-2.8944 24.7509,-10.6153 29.5756,-23.1945 5.6348,-9.8824 3.7608,-21.9356 1.9473,-32.4366 0.8473,-1.5902 0.2242,-3.1831 -1.0186,-3.4872 -0.2822,-10.6844 -0.019,-22.3357 -6.9593,-31.3438 -5.2587,-7.8802 -11.5989,-17.1114 -22.4315,-15.8283 z"
           id="path10717"
           inkscape:connector-curvature="0" />
        <path
           style="color:#000000;clip-rule:nonzero;display:inline;overflow:visible;visibility:visible;opacity:1;isolation:auto;mix-blend-mode:normal;color-interpolation:sRGB;color-interpolation-filters:linearRGB;solid-color:#000000;solid-opacity:1;fill:#000000;fill-opacity:1;fill-rule:evenodd;stroke:none;stroke-width:7;stroke-linecap:square;stroke-linejoin:round;stroke-miterlimit:4;stroke-dasharray:none;stroke-dashoffset:0;stroke-opacity:1;color-rendering:auto;image-rendering:auto;shape-rendering:auto;text-rendering:auto;enable-background:accumulate"
           d="m 2384.9682,1104.3039 c -17.5132,-0.553 -28.1146,21.012 -21.8338,36.0286 3.2076,9.2494 12.4497,16.0163 22.4466,14.6717 9.0188,0.748 18.1437,-4.2935 20.7484,-13.2691 3.8705,-9.5175 4.9817,-21.52 -2.8139,-29.4879 -4.1399,-6.2458 -11.2833,-8.6368 -18.5473,-7.9433 z"
           id="path10719"
           inkscape:connector-curvature="0" />
        <path
           style="color:#000000;clip-rule:nonzero;display:inline;overflow:visible;visibility:visible;opacity:1;isolation:auto;mix-blend-mode:normal;color-interpolation:sRGB;color-interpolation-filters:linearRGB;solid-color:#000000;solid-opacity:1;fill:#000000;fill-opacity:1;fill-rule:evenodd;stroke:none;stroke-width:7;stroke-linecap:square;stroke-linejoin:round;stroke-miterlimit:4;stroke-dasharray:none;stroke-dashoffset:0;stroke-opacity:1;color-rendering:auto;image-rendering:auto;shape-rendering:auto;text-rendering:auto;enable-background:accumulate"
           d="m 2422.8375,1128.9193 c -4.7005,1.2365 -12.4612,0.1009 -12.2983,6.81 -0.9889,7.4948 -6.0035,13.1816 -10.1397,19.0871 -0.4427,8.9048 8.6054,15.3559 16.0743,18.31 9.7316,2.214 20.2721,-5.0435 23.7112,-13.9877 1.4743,-10.5814 -4.9376,-21.0618 -12.2181,-28.2363 -1.4489,-1.1806 -3.1791,-2.2216 -5.1294,-1.9831 z"
           id="path10721"
           inkscape:connector-curvature="0" />
        <path
           style="color:#000000;clip-rule:nonzero;display:inline;overflow:visible;visibility:visible;opacity:1;isolation:auto;mix-blend-mode:normal;color-interpolation:sRGB;color-interpolation-filters:linearRGB;solid-color:#000000;solid-opacity:1;fill:#000000;fill-opacity:1;fill-rule:evenodd;stroke:none;stroke-width:7;stroke-linecap:square;stroke-linejoin:round;stroke-miterlimit:4;stroke-dasharray:none;stroke-dashoffset:0;stroke-opacity:1;color-rendering:auto;image-rendering:auto;shape-rendering:auto;text-rendering:auto;enable-background:accumulate"
           d="m 2443.6312,1172.807 c -7.7262,3.0921 -16.4744,6.3486 -21.7799,13.0511 -0.086,2.9495 -4.283,2.157 -3.8778,5.6084 -0.8984,8.9125 4.5614,17.4911 10.6342,23.5062 1.9433,1.295 5.494,-1.4194 5.2438,2.2054 5.8246,2.002 12.5415,-1.5204 18.325,-2.8743 3.5033,-0.9167 7.2658,-2.7318 7.7577,-6.4651 6.5129,0.4723 10.0897,-9.4782 5.7897,-14.0438 -6.4666,-7.6467 -13.319,-15.73 -21.8381,-21.0095 l -0.2546,0.022 z"
           id="path10723"
           inkscape:connector-curvature="0" />
        <path
           style="color:#000000;clip-rule:nonzero;display:inline;overflow:visible;visibility:visible;opacity:1;isolation:auto;mix-blend-mode:normal;color-interpolation:sRGB;color-interpolation-filters:linearRGB;solid-color:#000000;solid-opacity:1;fill:#000000;fill-opacity:1;fill-rule:evenodd;stroke:none;stroke-width:7;stroke-linecap:square;stroke-linejoin:round;stroke-miterlimit:4;stroke-dasharray:none;stroke-dashoffset:0;stroke-opacity:1;color-rendering:auto;image-rendering:auto;shape-rendering:auto;text-rendering:auto;enable-background:accumulate"
           d="m 2457.4699,1216.1703 c -6.7583,3.307 -14.8125,3.8504 -21.536,6.0638 2.1649,10.2072 7.0251,21.8466 18.3488,24.3801 4.3747,0.6779 12.4257,5.3121 14.8076,-0.8718 2.959,-10.1393 5.3885,-23.2207 -3.5659,-31.2057 -1.6,-3.2032 -5.7267,1.4323 -8.0545,1.6336 z"
           id="path10725"
           inkscape:connector-curvature="0" />
        <path
           style="color:#000000;clip-rule:nonzero;display:inline;overflow:visible;visibility:visible;opacity:1;isolation:auto;mix-blend-mode:normal;color-interpolation:sRGB;color-interpolation-filters:linearRGB;solid-color:#000000;solid-opacity:1;fill:#000000;fill-opacity:1;fill-rule:evenodd;stroke:none;stroke-width:7;stroke-linecap:square;stroke-linejoin:round;stroke-miterlimit:4;stroke-dasharray:none;stroke-dashoffset:0;stroke-opacity:1;color-rendering:auto;image-rendering:auto;shape-rendering:auto;text-rendering:auto;enable-background:accumulate"
           d="m 2364.7808,1148.4764 c 1.1768,7.1755 1.036,14.5162 -1.7285,21.3483 10.0702,1.6735 21.4601,-0.8481 31.6761,-3.2973 2.9452,-1.4997 2.0939,-5.545 4.3353,-7.6628 -3.2559,-2.5359 -8.8524,0.069 -12.8202,-0.5718 -8.4048,1.0939 -15.2792,-4.4909 -20.6254,-10.2329 l -0.8373,0.4165 z"
           id="path10727"
           inkscape:connector-curvature="0" />
        <path
           style="color:#000000;clip-rule:nonzero;display:inline;overflow:visible;visibility:visible;opacity:1;isolation:auto;mix-blend-mode:normal;color-interpolation:sRGB;color-interpolation-filters:linearRGB;solid-color:#000000;solid-opacity:1;fill:#000000;fill-opacity:1;fill-rule:evenodd;stroke:none;stroke-width:7;stroke-linecap:square;stroke-linejoin:round;stroke-miterlimit:4;stroke-dasharray:none;stroke-dashoffset:0;stroke-opacity:1;color-rendering:auto;image-rendering:auto;shape-rendering:auto;text-rendering:auto;enable-background:accumulate"
           d="m 2397.6904,1157.6718 c -0.8025,0.1809 -2.9167,0.4948 -2.0748,1.5618 1.3184,0.3726 2.7209,1.2712 2.5528,2.8382 0.083,2.0721 -0.054,4.247 -1.141,6.0843 0.07,1.1704 1.4667,1.8157 1.9346,2.8554 2.4407,3.0626 5.2521,6.3277 9.2731,7.1686 1.7542,0.7593 3.5555,1.419 5.3333,2.0727 1.4526,0.946 3.4204,0.4521 4.8407,1.5629 1.0273,0.5139 2.1145,0.087 2.8798,-0.5978 1.0969,-0.087 2.0817,-0.8135 2.0059,-2.0173 0.6862,-1.9144 -1.7228,-1.1987 -2.8033,-1.2778 -3.2765,0.057 -6.0278,-2.0206 -8.9402,-3.1743 -2.6954,-0.6998 -4.32,-3.2895 -6.4066,-4.9634 -2.1366,-2.1724 -5.2675,-4.4471 -4.9376,-7.8902 0.093,-1.56 -0.7883,-3.0532 -1.8747,-4.0877 -0.1959,-0.1049 -0.4211,-0.1464 -0.642,-0.1354 z"
           id="path10729"
           inkscape:connector-curvature="0" />
      </g>
    </g>
  </g>
</svg>
