<?xml version="1.0" encoding="UTF-8" standalone="no"?>
<!-- Created with Inkscape (http://www.inkscape.org/) -->

<svg
   xmlns:dc="http://purl.org/dc/elements/1.1/"
   xmlns:cc="http://creativecommons.org/ns#"
   xmlns:rdf="http://www.w3.org/1999/02/22-rdf-syntax-ns#"
   xmlns:svg="http://www.w3.org/2000/svg"
   xmlns="http://www.w3.org/2000/svg"
   xmlns:sodipodi="http://sodipodi.sourceforge.net/DTD/sodipodi-0.dtd"
   xmlns:inkscape="http://www.inkscape.org/namespaces/inkscape"
   width="210mm"
   height="297mm"
   viewBox="0 0 744.09448819 1052.3622047"
   id="svg8089"
   version="1.1"
   inkscape:version="0.91 r13725"
   sodipodi:docname="body3.svg">
  <defs
     id="defs8091" />
  <sodipodi:namedview
     id="base"
     pagecolor="#ffffff"
     bordercolor="#666666"
     borderopacity="1.0"
     inkscape:pageopacity="0.0"
     inkscape:pageshadow="2"
     inkscape:zoom="0.24748737"
     inkscape:cx="481.92908"
     inkscape:cy="822.99233"
     inkscape:document-units="px"
     inkscape:current-layer="layer1"
     showgrid="false"
     inkscape:window-width="464"
     inkscape:window-height="595"
     inkscape:window-x="900"
     inkscape:window-y="7"
     inkscape:window-maximized="0" />
  <metadata
     id="metadata8094">
    <rdf:RDF>
      <cc:Work
         rdf:about="">
        <dc:format>image/svg+xml</dc:format>
        <dc:type
           rdf:resource="http://purl.org/dc/dcmitype/StillImage" />
        <dc:title></dc:title>
      </cc:Work>
    </rdf:RDF>
  </metadata>
  <g
     inkscape:label="Layer 1"
     inkscape:groupmode="layer"
     id="layer1">
    <g
       id="g15499"
       transform="translate(4.0406102,-4.0406102)">
      <path
         sodipodi:nodetypes="ccccccccccccccccccccccccc"
         inkscape:connector-curvature="0"
         id="path14190-48"
         d="m 318.91008,194.06424 c 46.11549,1.23964 95.47981,-0.69423 136.33346,24.4733 16.71794,8.48524 32.39237,21.49775 35.29722,41.18126 24.59787,80.12413 2.27353,164.15575 -5.49904,244.98568 -2.91045,42.82955 -8.25993,86.02424 -6.24999,129.00934 3.7623,72.80687 74.03374,70.69703 89.64117,77.92982 12.07925,3.09241 85.29661,10.49528 87.10827,19.34123 5.79115,29.13594 -23.57905,7.89783 -26.14863,11.69004 -7.44588,12.99231 25.947,1.90889 27.2011,15.25735 1.30342,14.58218 -23.15359,6.97936 -26.72198,10.94819 -6.15279,11.25998 24.4543,-0.56856 27.60963,14.81002 2.79751,18.70076 -21.20141,7.65067 -25.1043,13.34924 -5.47457,14.69644 30.06853,-5.14682 29.32016,16.75986 -2.84966,10.42633 -26.60722,4.5534 -29.02903,9.11737 -4.90893,14.94774 29.02903,-9.11737 28.89353,13.03933 -2.96992,33.13881 -125.46668,8.77043 -157.73249,6.78571 -42.67547,-5.37982 -81.77261,-13.05928 -124.80601,-17.20213 -28.72388,-2.72925 -63.62441,6.02299 -86.02154,-17.39236 -14.02094,-13.05902 -25.51542,-32.06977 -18.98752,-51.78203 9.24356,-52.46555 25.27173,-105.83085 12.45673,-158.9476 -6.62804,-37.46335 -17.52144,-75.68412 -7.95128,-113.72937 0.53137,-15.91414 12.3749,-29.3994 12.38178,-44.84108 -12.98013,-10.92888 -32.58483,-7.81236 -48.5165,-11.40154 C 20.58263,426.13663 53.650524,283.03979 92.925684,219.74802 129.41616,161.078 235.42325,193.91548 318.91008,194.06424 Z"
         style="color:#000000;clip-rule:nonzero;display:inline;overflow:visible;visibility:visible;opacity:1;isolation:auto;mix-blend-mode:normal;color-interpolation:sRGB;color-interpolation-filters:linearRGB;solid-color:#000000;solid-opacity:1;fill:#000000;fill-opacity:1;fill-rule:evenodd;stroke:none;stroke-width:1;stroke-linecap:square;stroke-linejoin:round;stroke-miterlimit:4;stroke-dasharray:none;stroke-dashoffset:0;stroke-opacity:1;color-rendering:auto;image-rendering:auto;shape-rendering:auto;text-rendering:auto;enable-background:accumulate" />
      <path
         id="path14190-4-1"
         d="m 336.73233,394.92277 c -0.82211,0.01 -1.96257,0.46528 -3.27423,1.55198 -0.63372,0.10836 -0.3011,0.61101 -0.75896,0.76869 -1.59065,0.54776 0.52068,-0.82692 -1.1433,0.39895 -1.5259,0.39815 -0.3239,-0.0705 -1.67847,0.95841 -1.13045,0.85848 -2.7799,0.8253 -3.59534,2.19904 -3.41122,2.64999 1.20268,-0.77653 -2.17958,1.26981 -0.37077,0.22443 -0.6452,0.57914 -0.99735,0.83192 -1.21481,0.87201 -2.60087,1.55617 -4.00885,2.04338 -2.98107,2.54358 -6.47044,4.49738 -8.92267,7.62364 -2.93456,2.95486 -0.34276,0.12529 -2.62716,3.23046 -1.41052,1.91726 -3.34683,3.41292 -4.53917,5.50733 -0.26795,0.4007 -1.55978,2.36279 -1.89253,2.72933 -0.42672,0.47019 -0.98793,0.81008 -1.41575,1.27953 -1.22041,1.33988 -1.93071,3.04052 -3.04558,4.45645 -1.60405,2.08592 -3.33289,4.12115 -4.57323,6.4317 -0.51251,1.05741 -0.97894,2.16987 -1.59575,3.17696 0.0361,0.0316 0.0787,0.0558 0.11682,0.0874 -10e-4,2.76029 -0.39616,5.45961 -1.02166,8.11991 0.12181,-0.21223 0.15668,-0.31209 0.43786,-0.72977 0.25291,-0.37588 0.67373,-0.62032 0.93896,-0.98764 0.65159,-0.90244 0.82603,-1.66442 1.73198,-2.41796 0.62152,-2.4909 -0.39556,0.94579 1.02655,-1.65902 0.20451,-0.37529 0.15095,-0.85235 0.30651,-1.25033 0.35593,-0.90623 0.95769,-1.52566 1.23088,-2.51526 0.46204,-1.45543 1.82036,-2.22578 2.68068,-3.36669 1.16302,-1.95288 0.52888,-1.02433 1.8974,-2.78772 0.24686,-0.50372 0.41056,-1.05374 0.73951,-1.50819 0.33693,-0.46553 0.8469,-0.77949 1.226,-1.2114 0.76365,-0.87001 1.51529,-1.76147 2.15038,-2.72935 1.87479,-2.85742 -0.31084,-0.53615 2.10174,-2.80718 0.79063,-0.78063 1.16925,-1.87548 1.8974,-2.70013 0.42456,-0.48088 0.99496,-0.81863 1.4255,-1.29415 1.27419,-1.40746 2.28283,-3.03128 3.58074,-4.437 1.82038,-1.66373 3.48035,-3.76048 5.65813,-4.99649 2.61303,-1.48291 0.86528,0.18707 2.69528,-1.92171 0.4126,-0.33651 0.76975,-0.74958 1.23576,-1.00709 0.41875,-0.23141 0.93944,-0.22842 1.37196,-0.43298 1.47731,-0.69899 2.96251,-1.76282 4.18402,-2.84125 0.42996,-0.14298 0.90469,-0.18881 1.28924,-0.42812 0.30161,-0.18782 0.41512,-0.58505 0.69572,-0.80276 0.23166,-0.17959 0.55055,-0.21073 0.80276,-0.36001 0.8174,-0.48345 1.70373,-0.90282 2.42282,-1.51305 1.03613,-0.18757 1.67915,-1.08748 2.60772,-1.4401 2.88584,-2.39076 2.62578,-4.53962 0.81733,-4.51969 z"
         style="color:#000000;clip-rule:nonzero;display:inline;overflow:visible;visibility:visible;opacity:1;isolation:auto;mix-blend-mode:normal;color-interpolation:sRGB;color-interpolation-filters:linearRGB;solid-color:#000000;solid-opacity:1;fill:#ffffff;fill-opacity:1;fill-rule:evenodd;stroke:none;stroke-width:1;stroke-linecap:square;stroke-linejoin:round;stroke-miterlimit:4;stroke-dasharray:none;stroke-dashoffset:0;stroke-opacity:1;color-rendering:auto;image-rendering:auto;shape-rendering:auto;text-rendering:auto;enable-background:accumulate"
         inkscape:connector-curvature="0" />
      <path
         id="path14206-4"
         d="m 461.44468,381.2802 c -0.96569,0 -1.93146,1.36499 -1.93146,4.09644 0.41405,1.73176 0.46277,3.49029 0.48651,5.25921 0.67873,5.62558 4.65839,5.14876 3.97969,-0.47679 -0.0832,-1.62674 -0.29207,-3.1841 -0.60329,-4.78242 0,-2.73145 -0.96576,-4.09644 -1.93145,-4.09644 z m -39.89894,8.05179 c -1.32362,-0.36022 -2.21964,1.33029 -0.9925,4.39809 0.21373,0.48334 0.42854,0.96646 0.64219,1.44981 2.24275,4.72654 5.5853,3.14051 3.34236,-1.58604 -0.17014,-0.41751 -0.34012,-0.83285 -0.51085,-1.25033 -0.73627,-1.84069 -1.68704,-2.79539 -2.4812,-3.01153 z m 61.50011,2.19417 c -1.14444,-0.16988 -2.09753,1.4177 -1.48386,4.48565 0.70083,1.93803 0.50197,0.88192 0.47191,3.18667 0.71042,5.42476 4.54413,4.92366 3.83372,-0.5011 -0.26796,-2.40773 -0.11185,-1.25865 -0.44758,-3.45911 -0.47721,-2.3862 -1.48405,-3.57991 -2.37419,-3.71211 z m -20.96872,24.89002 c -1.35296,-0.14373 -1.96339,1.65606 -0.27729,4.46619 1.02687,2.14202 1.68956,4.43043 2.23794,6.73333 1.39042,5.21321 5.07819,4.23045 3.68777,-0.98275 -0.76128,-2.62197 -1.80902,-5.09937 -2.74393,-7.65772 -1.01164,-1.68607 -2.09272,-2.47286 -2.90449,-2.55905 z m -21.46008,19.08103 c -0.89988,0.14995 -1.58696,1.57069 -1.16278,4.11591 0.60702,2.28542 0.97419,4.56571 1.22602,6.91335 0.86466,5.32473 4.6301,4.71173 3.76562,-0.61299 -0.36934,-2.30839 -0.53274,-4.70675 -1.39145,-6.89878 -0.42418,-2.5452 -1.53753,-3.66745 -2.43741,-3.51749 z m -34.53758,28.09614 c -1.33318,-0.36283 -2.23829,1.34214 -1.00221,4.43214 0.87607,2.58774 1.4527,5.30382 1.83416,8.01773 1.04824,5.29055 4.78972,4.55106 3.74128,-0.73951 -0.4747,-2.97384 -0.86331,-5.88942 -2.0774,-8.67452 -0.74158,-1.85399 -1.69591,-2.81813 -2.49583,-3.03584 z m 66.25822,3.89698 c -0.8594,-0.17187 -1.96095,0.87256 -2.44716,3.30342 -0.13027,0.4485 -0.26279,0.89916 -0.39407,1.34763 -0.89943,5.13436 2.73013,5.76684 3.62939,0.63248 l 0.20426,-1.29413 c 0.4862,-2.43086 -0.13302,-3.81752 -0.9925,-3.9894 z m -44.09753,25.25975 c -0.98221,0 -1.96065,1.39129 -1.96065,4.16942 0.10312,2.41592 0.067,1.15139 0.0777,3.79481 0,5.18002 3.66344,5.18002 3.66344,0 -0.20251,-2.65233 -0.29074,-1.38937 0.18483,-3.79481 0,-2.77813 -0.9833,-4.16942 -1.96551,-4.16942 z m 24.16024,7.59933 c -1.13702,-0.16888 -2.08375,1.40843 -1.47414,4.45646 0.64849,1.39605 0.56781,2.87198 0.52055,4.36403 0.74338,5.37233 4.54307,4.84689 3.79969,-0.52544 -0.0797,-1.55136 -0.29552,-3.06169 -0.48653,-4.60242 -0.47412,-2.37068 -1.47524,-3.56131 -2.35957,-3.69263 z m -38.62916,41.25145 c -0.93214,0.15544 -1.64106,1.6302 -1.20168,4.26672 0.68688,1.83028 0.18358,3.71463 0.13625,5.61923 -0.0526,5.47627 3.81942,5.51521 3.87265,0.0389 0,-2.10131 -0.10013,-4.18669 -0.28217,-6.28087 -0.4394,-2.63652 -1.59286,-3.79935 -2.52502,-3.64399 z m 47.22098,3.77533 c -0.91014,0.18209 -1.56568,1.65354 -1.05088,4.22781 0.65121,2.4078 0.40142,4.8646 0.29677,7.31716 -0.14846,5.44304 3.69986,5.54537 3.84832,0.10213 0.10138,-2.76545 -0.072,-5.42324 -0.50596,-8.14908 -0.51488,-2.57427 -1.67813,-3.68006 -2.58825,-3.49804 z m -22.48665,17.85504 c -0.96586,0 -1.93145,1.36451 -1.93145,4.09643 0.0598,2.79661 0.16415,5.56468 0.0683,8.3729 0,5.47757 3.87262,5.47757 3.87262,0 -0.0598,-2.79534 -0.11956,-5.5793 -0.0777,-8.3729 0,-2.73192 -0.96559,-4.09643 -1.93146,-4.09643 z m 12.80016,38.3275 c -0.94499,0 -1.88767,1.33592 -1.88767,4.00888 l -0.005,0 c 0.41838,1.67377 -0.26399,3.16193 -0.5303,4.76782 -0.3505,2.11447 -0.13027,2.99126 -1.32331,4.90405 -1.99438,5.46706 1.86853,6.87791 3.86291,1.41088 0.33187,-1.6925 0.37309,-2.091 0.8514,-3.76559 0.19778,-0.69236 0.53481,-1.34671 0.64705,-2.05797 0.10313,-0.6603 -0.0488,-1.34235 0,-2.0093 0.34851,-5.24486 0.24636,0.70153 0.27732,-3.24989 0,-2.67296 -0.94753,-4.00888 -1.89255,-4.00888 z"
         style="fill:#999999;fill-opacity:1;fill-rule:nonzero;stroke:none;stroke-width:1px;stroke-linecap:butt;stroke-linejoin:miter;stroke-opacity:1"
         inkscape:connector-curvature="0" />
      <path
         inkscape:connector-curvature="0"
         d="m 337.85836,699.9614 c -2.71693,3.0467 -5.14418,6.41327 -7.06487,10.02559 -0.15569,1.39926 -1.02291,2.59459 -1.30117,3.95393 -0.54475,2.66185 -0.23017,5.60117 0.34163,8.21185 0.74591,2.5112 1.26876,5.66422 2.75514,7.83259 0.76362,1.1139 1.69583,2.10285 2.50798,3.18193 2.38653,3.20331 5.65056,5.448 8.64376,8.00972 3.17461,2.01345 6.52302,3.40746 10.17305,4.23266 2.40427,0.44947 4.95771,1.07574 7.42659,1.0676 1.09026,-0.002 2.16764,-0.23863 3.25499,-0.31852 1.06745,-0.0697 1.97864,0.27525 3.02399,0.11483 5.71301,-0.18134 5.58483,-4.22083 -0.12854,-4.03961 l 0,0 c -1.03157,0.51572 -1.75357,-0.01 -2.90882,0.23813 -1.03322,-0.0276 -2.06208,-0.19056 -3.09548,-0.17711 -0.56343,0.007 -1.11741,0.19006 -1.68064,0.1796 -1.62377,-0.0306 -3.36163,-0.32875 -4.9195,-0.75854 -3.28902,-0.51219 -6.08653,-2.22235 -8.83658,-4.01733 -0.49478,-0.33396 -0.98975,-0.66792 -1.48456,-1.00188 -0.44157,-0.35254 -0.85633,-0.74148 -1.32468,-1.05758 -0.51202,-0.34552 -1.11851,-0.5441 -1.60751,-0.92145 -1.42771,-1.10187 -2.10806,-2.83844 -3.52384,-3.95107 -3.98512,-6.26276 2.30288,3.37446 -2.16962,-2.65978 -0.33981,-0.45848 -0.49806,-1.02789 -0.78011,-1.52399 -0.29528,-0.51943 -0.71478,-0.97072 -0.9505,-1.51982 -0.12679,-0.29695 -0.83606,-3.35075 -0.90067,-3.62423 -0.45064,-3.52793 -0.48848,-6.43661 0.84276,-9.8101 2.20384,-2.91632 3.66794,-6.47111 6.57079,-8.8034 4.05068,-4.05053 1.18639,-6.9147 -2.86411,-2.86417 z"
         id="path14204-8"
         style="display:inline;opacity:1;fill:#ffffff;fill-opacity:1;fill-rule:nonzero;stroke:none;stroke-width:1px;stroke-linecap:butt;stroke-linejoin:miter;stroke-opacity:1" />
    </g>
  </g>
</svg>
