<?xml version="1.0" encoding="UTF-8" standalone="no"?>
<!-- Created with Inkscape (http://www.inkscape.org/) -->

<svg
   xmlns:dc="http://purl.org/dc/elements/1.1/"
   xmlns:cc="http://creativecommons.org/ns#"
   xmlns:rdf="http://www.w3.org/1999/02/22-rdf-syntax-ns#"
   xmlns:svg="http://www.w3.org/2000/svg"
   xmlns="http://www.w3.org/2000/svg"
   xmlns:sodipodi="http://sodipodi.sourceforge.net/DTD/sodipodi-0.dtd"
   xmlns:inkscape="http://www.inkscape.org/namespaces/inkscape"
   width="210mm"
   height="297mm"
   viewBox="0 0 744.09448819 1052.3622047"
   id="svg8089"
   version="1.1"
   inkscape:version="0.91 r13725"
   sodipodi:docname="body5.svg">
  <defs
     id="defs8091" />
  <sodipodi:namedview
     id="base"
     pagecolor="#ffffff"
     bordercolor="#666666"
     borderopacity="1.0"
     inkscape:pageopacity="0.0"
     inkscape:pageshadow="2"
     inkscape:zoom="0.24748737"
     inkscape:cx="453.4403"
     inkscape:cy="682.08501"
     inkscape:document-units="px"
     inkscape:current-layer="layer1"
     showgrid="false"
     inkscape:window-width="464"
     inkscape:window-height="595"
     inkscape:window-x="900"
     inkscape:window-y="7"
     inkscape:window-maximized="0" />
  <metadata
     id="metadata8094">
    <rdf:RDF>
      <cc:Work
         rdf:about="">
        <dc:format>image/svg+xml</dc:format>
        <dc:type
           rdf:resource="http://purl.org/dc/dcmitype/StillImage" />
        <dc:title></dc:title>
      </cc:Work>
    </rdf:RDF>
  </metadata>
  <g
     inkscape:label="Layer 1"
     inkscape:groupmode="layer"
     id="layer1">
    <path
       style="display:inline;opacity:1;fill:#000000;fill-opacity:1;fill-rule:evenodd;stroke:none;stroke-width:8;stroke-linecap:butt;stroke-linejoin:miter;stroke-miterlimit:4;stroke-dasharray:none;stroke-opacity:1"
       d="M 432.61985,89.665618 C 376.66329,68.513308 290.52199,104.12202 295.95603,167.1143 c -0.26174,11.0748 2.56453,15.42881 -1.93195,21.75406 -10.60022,-7.12558 -22.52347,-9.52534 -22.52347,10.85592 0,20.38114 -0.0996,28.79673 8.63113,47.55611 6.36958,9.91736 12.86196,9.27387 17.94598,6.83147 5.08432,-2.44229 3.6327,-13.62515 3.6327,-13.62515 0,0 1.43861,8.15245 7.19279,33.96871 5.75422,25.81627 11.9667,51.2603 -3.85762,71.64159 -15.82428,20.38117 -71.17691,32.5088 -103.29536,51.65278 -40.41441,24.08893 -113.76736,55.68723 -93.74116,153.01973 57.12434,135.57195 80.94946,172.86107 93.55158,280.20557 4.07601,123.063 353.38732,206.98031 381.6573,-13.0082 C 582.66191,698.98122 602.65591,694.14422 638.13337,592.31106 660.95158,526.81421 628.09991,479.50262 609.08161,451.80228 572.9433,408.58959 481.86373,372.74063 425.10046,350.58945 l -2.50393,-22.6838 c 59.57319,-1.49998 79.6411,-55.29668 78.28917,-96.79794 5.5926,-74.00972 -9.31836,-122.99187 -68.26585,-141.442092 z"
       id="path17833-3"
       inkscape:connector-curvature="0"
       sodipodi:nodetypes="cccscccssscccsccccc" />
  </g>
</svg>
