<?xml version="1.0" encoding="UTF-8" standalone="no"?>
<!-- Created with Inkscape (http://www.inkscape.org/) -->

<svg
   xmlns:dc="http://purl.org/dc/elements/1.1/"
   xmlns:cc="http://creativecommons.org/ns#"
   xmlns:rdf="http://www.w3.org/1999/02/22-rdf-syntax-ns#"
   xmlns:svg="http://www.w3.org/2000/svg"
   xmlns="http://www.w3.org/2000/svg"
   xmlns:sodipodi="http://sodipodi.sourceforge.net/DTD/sodipodi-0.dtd"
   xmlns:inkscape="http://www.inkscape.org/namespaces/inkscape"
   width="210mm"
   height="297mm"
   viewBox="0 0 744.09448819 1052.3622047"
   id="svg27274"
   version="1.1"
   inkscape:version="0.91 r13725"
   sodipodi:docname="body12.svg">
  <defs
     id="defs27276" />
  <sodipodi:namedview
     id="base"
     pagecolor="#ffffff"
     bordercolor="#666666"
     borderopacity="1.0"
     inkscape:pageopacity="0.0"
     inkscape:pageshadow="2"
     inkscape:zoom="0.175"
     inkscape:cx="447.04165"
     inkscape:cy="1081.5951"
     inkscape:document-units="px"
     inkscape:current-layer="layer1"
     showgrid="false"
     inkscape:window-width="458"
     inkscape:window-height="626"
     inkscape:window-x="906"
     inkscape:window-y="0"
     inkscape:window-maximized="0" />
  <metadata
     id="metadata27279">
    <rdf:RDF>
      <cc:Work
         rdf:about="">
        <dc:format>image/svg+xml</dc:format>
        <dc:type
           rdf:resource="http://purl.org/dc/dcmitype/StillImage" />
        <dc:title></dc:title>
      </cc:Work>
    </rdf:RDF>
  </metadata>
  <g
     inkscape:label="Layer 1"
     inkscape:groupmode="layer"
     id="layer1">
    <g
       id="g15079"
       transform="matrix(4.047576,0,0,4.047576,-5177.0151,-1501.9908)"
       style="display:inline;opacity:1">
      <path
         inkscape:connector-curvature="0"
         id="path12323"
         d="m 1344.2401,423.24329 c -10.4197,0.55909 -21.8122,-1.02323 -30.9663,5.16381 -13.9445,8.08063 -17.5666,27.10581 -12.7485,41.57551 2.3196,8.89314 10.747,14.3848 15.49,21.49419 1.2481,18.63515 1.2554,37.33109 -0.9834,55.85315 -0.7587,6.12955 3.8651,19.37045 9.9497,22.18187 14.7031,8.84166 30.6379,12.45572 47.0725,14.36554 15.2232,0.88295 35.3959,-7.07606 35.3959,-7.07606 8.0974,-4.88132 13.4925,-8.19953 15.1679,-16.8877 1.6753,-8.68818 5.3193,-24.79375 7.666,-42.39303 4.3655,-27.84967 12.4169,-36.39035 14.6645,-64.49153 0,0 -0.5925,-14.64108 -19.8285,-21.37655 -24.6742,-6.50732 -45.7747,-6.8306 -72.7612,-8.37591 -2.7052,-0.0897 -5.4127,-0.0709 -8.1186,-0.0333 z"
         style="color:#000000;clip-rule:nonzero;display:inline;overflow:visible;visibility:visible;opacity:1;isolation:auto;mix-blend-mode:normal;color-interpolation:sRGB;color-interpolation-filters:linearRGB;solid-color:#000000;solid-opacity:1;fill:#000000;fill-opacity:1;fill-rule:evenodd;stroke:none;stroke-width:1;stroke-linecap:square;stroke-linejoin:round;stroke-miterlimit:4;stroke-dasharray:none;stroke-dashoffset:0;stroke-opacity:1;color-rendering:auto;image-rendering:auto;shape-rendering:auto;text-rendering:auto;enable-background:accumulate"
         sodipodi:nodetypes="cccccccszcccccc" />
      <path
         id="path12327"
         d="m 1365.2676,447.29297 c -0.5663,-0.0456 -1.5989,0.35149 -2.961,1.37305 -0.7172,0.36881 -1.1982,1.035 -1.832,1.51367 -0.2282,0.17232 -0.5066,0.27396 -0.7246,0.45898 -0.4355,0.36966 -0.7859,0.83139 -1.2129,1.21094 -0.9864,0.73137 -1.2187,1.95013 -1.8672,2.90039 -1.0884,1.59469 -0.043,-0.47636 -0.8828,1.34375 -0.2261,1.11144 -0.8499,2.11692 -1.166,3.18945 -0.1966,1.2054 -0.057,0.61621 -0.418,1.76953 -0.6004,1.78226 -0.3303,3.71166 -0.5761,5.54493 0,0.33666 0.01,0.67309 0.01,1.00976 0.059,0.33337 0.1608,0.66187 0.1778,1 0.02,0.3834 -0.1054,0.76824 -0.068,1.15039 0.037,0.38873 0.2131,0.75127 0.2871,1.13477 0.2159,1.59979 0.08,0.81234 0.4102,2.36719 0.3573,1.26077 0.9599,2.44274 1.3847,3.67382 0.1523,0.44144 0.149,0.93568 0.3535,1.35547 0.2057,0.42213 0.5933,0.73029 0.8536,1.1211 0.2738,0.41114 0.4971,0.85453 0.746,1.28125 1.5705,2.2971 3.4741,4.34027 5.5215,6.21679 1.6188,1.40666 3.2349,2.79251 5.1953,3.70703 1.039,0.48472 2.1213,0.86982 3.1739,1.32422 2.9851,1.3073 6.1843,1.96853 9.3906,2.48828 1.0026,-0.0548 1.9768,0.34629 2.9746,0.33399 0.449,-0.006 0.8794,-0.2042 1.3281,-0.2168 0.3968,-0.0111 0.7859,0.17739 1.1817,0.14649 1.1415,-0.38699 0.5947,-0.31474 1.6289,-0.30274 4.4131,-0.62871 4.1162,-2.70878 -0.2969,-2.08008 -1.5916,0.0195 0.4382,-0.0304 -1.5195,0.11719 -2.2827,0.17212 0.1659,-0.0899 -2.2617,0.0176 -0.4279,0.019 -0.8511,0.17031 -1.2774,0.12891 -0.4747,-0.0461 -0.9196,-0.25801 -1.3789,-0.38672 -0.7591,-0.0378 -2.3803,-0.0813 -3.1211,-0.26563 -0.5157,-0.12829 -0.9854,-0.40039 -1.4883,-0.57226 -1.4442,-0.49364 -2.9568,-0.69825 -4.3886,-1.23243 -5.5875,-3.20251 2.7932,1.48969 -2.8887,-1.32617 -0.4837,-0.23974 -0.9006,-0.59699 -1.3574,-0.88476 -1.2311,-0.77561 -2.4796,-1.50852 -3.4825,-2.58985 -1.0512,-0.74004 -1.9346,-1.6339 -2.7382,-2.64648 -0.2791,-0.35163 -0.4582,-0.7766 -0.7461,-1.12109 -1.9322,-2.31253 -0.029,0.61351 -1.625,-2.03126 -1.3505,-2.05009 -2.4579,-4.33012 -3.0332,-6.7246 -0.277,-1.02681 -0.6826,-2.16715 -0.7911,-3.22852 -0.1,-0.97675 0.2334,-1.97347 0.1211,-2.95312 -0.013,-0.6101 -0.1506,-1.21601 -0.1406,-1.82618 0,-0.27929 0.1256,-0.54736 0.1426,-0.82617 0.017,-0.28187 -0.087,-0.56686 -0.043,-0.8457 0.043,-0.26928 0.2559,-0.49243 0.2989,-0.76172 0.041,-0.26209 -0.034,-0.53006 -0.051,-0.79492 0.6663,-1.47995 0.943,-3.1152 1.5976,-4.60938 0.319,-0.6468 0.7856,-1.23123 1.086,-1.8789 0.1051,-0.22681 0.1038,-0.4989 0.2363,-0.71094 0.089,-0.14167 0.9293,-0.78303 1.0293,-0.86133 0.5941,-0.73138 1.1073,-1.05925 1.7832,-1.66797 0.2172,-0.19558 0.3577,-0.47037 0.5879,-0.65039 2.322,-1.81568 -0.692,0.96677 1.1621,-0.79687 2.2701,-1.7026 2.6195,-3.00996 1.6758,-3.08594 z m -65.4746,8.49219 c -0.3311,0.0664 -0.6511,0.18984 -0.9844,0.24414 -0.3952,0.0644 -0.8048,0.0483 -1.209,0.0723 -0.01,0.53181 -0.01,1.06265 0.01,1.59375 0.7616,-0.14332 1.5293,-0.26235 2.2929,-0.39648 0.3614,-0.0902 0.6043,0.14471 0.9375,0.19531 0.1053,0.0155 0.2202,-0.0384 0.3203,-0.002 0.1793,0.0651 0.2843,0.25451 0.4395,0.36523 0.675,0.32473 0.9671,0.86459 1.3691,1.45117 0.2468,0.57083 0.5673,1.16378 0.7383,1.77735 0.1792,0.62474 0.019,-0.11195 -0.012,0.58984 -0.018,0.42487 0.1521,0.66055 0.035,1.13281 -0.027,0.53927 0.017,1.03017 -0.2578,1.52539 -0.072,0.0606 -0.1519,0.11155 -0.2149,0.18164 -0.031,0.0355 -0.04,0.0861 -0.06,0.12891 -0.072,0.0913 -0.1369,0.18764 -0.2149,0.27344 -0.3304,0.36368 -0.2409,-0.0231 -0.6562,0.52734 -0.6521,0.0608 -0.7847,0.5581 -1.3946,0.38867 l -0.2129,0 c -0.07,0.0367 -0.1319,0.10738 -0.2109,0.10938 -0.087,0.003 -0.1591,-0.0758 -0.2441,-0.0957 -0.2379,-0.0557 -0.3883,0.0413 -0.6289,-0.0234 -0.2269,0.0805 -0.3765,0.006 -0.6114,0.0781 -0.1517,-0.003 -0.2621,0.0134 -0.3984,0.0176 0.1061,0.46423 0.2214,0.9253 0.3437,1.38281 0.01,2.4e-4 0.017,0.002 0.027,0.002 0.038,0.0216 0.093,-0.006 0.1308,0.0176 0.2197,0.1343 0.2122,0.24094 0.4668,-0.0156 0.2052,0.0116 0.4579,0.0131 0.6563,0.0469 0.3452,0.0588 0.519,0.25211 0.8652,0.0156 0.5264,-0.0179 1.6218,-0.38883 2.002,-0.76562 0.4084,-0.25725 0.9297,-0.42067 1.2031,-0.85352 0.081,-0.12857 0.097,-0.29491 0.1836,-0.41992 0.062,-0.089 0.167,-0.13803 0.25,-0.20703 0.1127,-0.40812 0.4074,-0.81479 0.4844,-1.125 0.1126,-0.45358 -0.04,-0.44609 -0.016,-0.85547 0.01,-0.1123 0.048,-0.21821 0.072,-0.32813 -0.038,-0.43557 0.019,-0.89717 -0.082,-1.32617 -0.032,-0.13493 -0.1158,-0.25523 -0.1348,-0.39258 -0.018,-0.13579 0.017,-0.2734 0.027,-0.41015 -0.087,-0.25648 -0.1,-0.53661 -0.1875,-0.79297 -0.1686,-0.49131 -0.5949,-0.90782 -0.6309,-1.45703 -0.6764,-0.57175 -1.0737,-1.41905 -1.8691,-1.84375 -0.283,-0.18385 -0.5333,-0.43687 -0.8516,-0.54883 -0.1231,-0.0433 -0.2622,0.006 -0.3906,-0.0176 -0.4564,-0.0831 -0.9012,-0.25653 -1.3789,-0.24023 z m 76.5429,10.61523 c -1.8643,-0.006 -2.4884,0.62587 -1.8086,1.25195 -0.066,0.0476 -0.1177,0.0722 -0.1855,0.12305 -0.7863,0.58115 -1.3874,1.18583 -1.7051,2.13477 -0.1035,0.30772 -0.1072,0.64186 -0.1992,0.95312 -0.5335,1.80982 -0.2035,-0.11895 -0.4531,1.76758 0.4101,1.05773 0.7019,2.3311 1.9336,2.75195 0.3078,0.10516 1.3201,0.0193 1.6582,0 1.1301,-0.012 2.3235,-0.41423 3.2109,-1.14258 0.083,-0.0682 0.8593,-1.04399 0.9043,-1.09961 0.8799,-0.9506 0.7849,-2.17486 1.0352,-3.33203 -0.075,-0.48994 -0.041,-0.76625 -0.3536,-1.1582 -0.095,-0.11924 -0.2844,-0.15117 -0.3574,-0.28516 -0.09,-0.16563 -0.019,-0.38628 -0.1,-0.55664 -0.02,-0.0424 -0.5083,-0.49949 -0.5703,-0.55859 -0.4357,-0.53647 0.1918,0.15843 -0.7012,-0.4043 -0.1238,-0.078 -0.1577,-0.27202 -0.2929,-0.32812 -0.1515,-0.0627 -0.3283,0.003 -0.4922,0.004 -0.5758,-0.0811 -1.0833,-0.11961 -1.5235,-0.12109 z m 0.2461,2.11133 c 0.2984,0.0666 0.6156,0.12937 0.9727,0.17969 0.1627,-0.107 0.1649,-0.21588 0.3633,-0.0723 0.169,0.64237 -0.085,-0.0466 0.3359,0.42969 0.1813,0.20507 0.019,0.63905 0.3867,0.71875 -0.05,0.2119 -0.01,0.44007 -0.072,0.64844 -0.033,0.11016 -0.1595,0.17957 -0.1875,0.29101 -0.09,0.35224 0.027,0.72927 -0.3028,1.03516 -0.47,0.77929 0.065,-0.007 -0.6797,0.74023 -0.5925,0.59408 -0.9658,0.99197 -1.916,0.73633 -0.9715,0.52569 -0.1583,0.29574 -0.6816,0.0117 -0.04,-0.0219 0.014,0.11906 -0.029,0.13476 -0.603,0.21964 -0.4851,-0.43092 -0.6153,-0.79882 0.3704,-1.10231 -0.061,0.39091 0.067,-1.11524 0.073,-0.86201 0.9282,-1.37094 1.33,-2.0625 0.4107,-0.30805 0.748,-0.60198 1.0293,-0.87695 z m -65.4726,17.47851 c 1.23,1.36649 2.4001,2.7531 3.4336,4.19727 0.7524,0.33671 1.5151,0.64442 2.3359,0.75391 1.5362,-0.0173 0.7934,-0.0884 2.2266,0.19336 1.2396,0.28788 2.7028,0.43217 3.9843,0.23046 3.9423,-0.62053 -1.894,0.0262 1.7403,-0.3457 0.844,0.1048 1.3159,-0.48582 2.0156,-0.76367 0.141,-0.056 0.3097,-0.0239 0.4453,-0.0918 0.8,-0.40032 -0.3076,-0.13939 0.4531,-0.2832 0.058,-0.0106 0.1159,-0.0206 0.1739,-0.0312 4.3666,-1.08217 3.8568,-3.14076 -0.5098,-2.05859 -0.089,0.0308 -0.1786,0.061 -0.2676,0.0918 -0.9463,0.1894 -1.7824,0.72011 -2.6855,1.04492 -1.6937,0.19842 -3.3596,0.36688 -5.0645,0.17188 -1.7866,-0.16197 -3.7542,-0.60649 -5.2519,-1.60742 -1.3389,-1.00417 -2.367,-1.44192 -3.0293,-1.50196 z m 28.5215,47.11719 c -0.6046,0.0273 -1.5481,0.34954 -2.7657,1.08008 -0.218,0.13248 -1.2877,0.77516 -1.4277,0.89258 -0.2619,0.21979 -0.4386,0.52927 -0.7031,0.74609 -0.2264,0.18568 -0.5281,0.2628 -0.7539,0.44922 -0.5029,0.41519 -0.6763,0.83028 -0.9922,1.37891 -0.1474,0.74719 -0.5013,1.75976 -0.1035,2.51172 0.1154,0.21815 0.406,0.29618 0.5507,0.49609 0.1372,0.18965 0.1834,0.43112 0.2754,0.64648 0.1564,0.21068 0.3124,0.42019 0.4688,0.63086 1.4157,0.97677 -0.048,0.0919 1.3496,0.6211 0.2156,0.0816 0.39,0.25533 0.6074,0.33203 0.7133,0.25175 1.3996,0.073 2.0879,-0.13672 1.4231,-0.59955 2.3435,-1.14577 3.1719,-2.48242 -0.083,-0.413 0.3043,-0.62928 0.4043,-0.96289 0.043,-0.14405 -0.017,-0.30587 0.022,-0.45117 0.03,-0.11289 0.1407,-0.19207 0.1777,-0.30274 0.2277,-0.67668 0.1723,-0.57494 0.029,-1.1875 -0.01,-0.64015 -0.2518,-1.1761 -0.5234,-1.74219 -0.5229,-0.58248 -1.0001,-1.01608 -1.4258,-1.33789 0.5418,-0.73596 0.3487,-1.21771 -0.4492,-1.18164 z m -0.9551,2.45899 c 0.2598,0.43199 0.6161,0.92194 1.0957,1.46484 0.014,0.19527 0.127,0.65653 0.3652,0.62695 -0.3061,0.23918 0.1057,-0.10891 0.057,0.0684 -0.1349,0.49035 -0.8047,0.88649 -0.6211,1.57032 -0.3298,0.21816 -0.2027,0.0706 -0.3692,0.45312 -0.1303,0.0959 -0.3368,0.0437 -0.4648,0.14258 -0.1309,0.10111 -0.1445,0.30524 -0.2637,0.41992 -0.2015,0.19387 -0.5557,0.17999 -0.7012,0.45898 -0.6984,0.1759 -1.5821,0.03 -2.0976,-0.48828 -0.5264,-0.15086 -0.5251,-0.29467 -0.7793,-0.73828 -0.049,-0.0861 -0.1638,-0.13998 -0.1777,-0.23828 -0.016,-0.11009 0.065,-0.21212 0.098,-0.31836 l -0.09,-0.33398 c 0.2086,-0.28541 0.354,-0.63045 0.625,-0.85742 0.194,-0.16251 0.4607,-0.21781 0.6621,-0.3711 0.6367,-0.48466 1.145,-1.14381 1.9531,-1.40039 0.2596,-0.15578 0.4931,-0.30874 0.709,-0.45898 z"
         style="fill:#ffffff;fill-opacity:1;fill-rule:nonzero;stroke:none;stroke-width:1px;stroke-linecap:butt;stroke-linejoin:miter;stroke-opacity:1"
         inkscape:connector-curvature="0" />
    </g>
  </g>
</svg>
