<?xml version="1.0" encoding="UTF-8" standalone="no"?>
<!-- Created with Inkscape (http://www.inkscape.org/) -->

<svg
   xmlns:dc="http://purl.org/dc/elements/1.1/"
   xmlns:cc="http://creativecommons.org/ns#"
   xmlns:rdf="http://www.w3.org/1999/02/22-rdf-syntax-ns#"
   xmlns:svg="http://www.w3.org/2000/svg"
   xmlns="http://www.w3.org/2000/svg"
   xmlns:sodipodi="http://sodipodi.sourceforge.net/DTD/sodipodi-0.dtd"
   xmlns:inkscape="http://www.inkscape.org/namespaces/inkscape"
   width="210mm"
   height="297mm"
   viewBox="0 0 744.09448819 1052.3622047"
   id="svg27274"
   version="1.1"
   inkscape:version="0.91 r13725"
   sodipodi:docname="body11.svg">
  <defs
     id="defs27276" />
  <sodipodi:namedview
     id="base"
     pagecolor="#ffffff"
     bordercolor="#666666"
     borderopacity="1.0"
     inkscape:pageopacity="0.0"
     inkscape:pageshadow="2"
     inkscape:zoom="0.24748737"
     inkscape:cx="363.71736"
     inkscape:cy="614.86242"
     inkscape:document-units="px"
     inkscape:current-layer="layer1"
     showgrid="false"
     inkscape:window-width="458"
     inkscape:window-height="626"
     inkscape:window-x="906"
     inkscape:window-y="0"
     inkscape:window-maximized="0" />
  <metadata
     id="metadata27279">
    <rdf:RDF>
      <cc:Work
         rdf:about="">
        <dc:format>image/svg+xml</dc:format>
        <dc:type
           rdf:resource="http://purl.org/dc/dcmitype/StillImage" />
        <dc:title></dc:title>
      </cc:Work>
    </rdf:RDF>
  </metadata>
  <g
     inkscape:label="Layer 1"
     inkscape:groupmode="layer"
     id="layer1">
    <g
       id="g14839"
       transform="matrix(2.7757454,0,0,2.7757454,-7904.4763,-235.52824)"
       style="display:inline;opacity:1">
      <g
         id="g15075"
         transform="translate(967.08541,-229.91981)">
        <path
           style="color:#000000;clip-rule:nonzero;display:inline;overflow:visible;visibility:visible;opacity:1;isolation:auto;mix-blend-mode:normal;color-interpolation:sRGB;color-interpolation-filters:linearRGB;solid-color:#000000;solid-opacity:1;fill:#000000;fill-opacity:1;fill-rule:evenodd;stroke:none;stroke-width:1;stroke-linecap:square;stroke-linejoin:round;stroke-miterlimit:4;stroke-dasharray:none;stroke-dashoffset:0;stroke-opacity:1;color-rendering:auto;image-rendering:auto;shape-rendering:auto;text-rendering:auto;enable-background:accumulate"
           d="m 1993.577,416.97895 c -1.5495,2.56545 -3.5685,2.22634 -5.8794,1.00622 -3.3615,-1.15502 -7.0354,-1.00658 -10.272,0.40296 -5.1768,0.8912 -10.6287,0.81171 -15.3811,3.38195 -2.1628,1.1435 -5.9947,0.84116 -6.366,3.94422 -1.1049,1.99098 -4.2553,2.46118 -4.3486,5.05957 -1.2515,4.16573 -5.0521,6.86107 -6.4951,10.87012 -1.1786,3.69222 2.1947,7.09216 0.667,10.78223 -0.1067,1.03479 -0.8619,3.65446 1.122,3.08691 1.5142,-0.58263 3.0026,-0.0151 3.3897,1.60156 3.0983,3.6133 8.5779,2.92835 12.8564,3.125 7.9368,-0.7984 14.4539,-6.74468 22.3653,-7.47851 2.8152,0.25285 1.6229,4.21397 0.1025,5.38574 -5.9817,5.75094 -14.0555,8.62102 -21.5127,11.93164 -3.8641,1.80654 -8.9884,1.47482 -12.0098,4.78711 0.046,3.20628 -4.0888,4.25054 -5.6933,6.57422 -1.3152,2.79323 -2.6346,5.64074 -4.8408,7.90918 -3.1708,4.80843 -5.7554,11.0213 -4.1397,16.81445 1.4961,1.6331 1.598,3.80222 1.1846,5.91992 -0.1907,2.44689 -0.4912,5.73654 1.5566,7.4668 3.4948,-1.4194 8.0691,-0.40489 10.6777,2.33594 0.5324,0.9984 0.363,2.73589 2.0479,2.41015 2.1699,-0.27049 3.7703,1.56912 6.001,0.84473 2.146,0.19444 4.0717,-1.3712 6.124,-1.16406 2.1771,1.14876 4.0808,-1.85846 5.8594,-2.67158 6.6819,-4.71439 12.5218,-10.4887 18.8271,-15.63897 1.7991,-0.41808 0.5888,2.24069 0.1192,2.93457 -2.7607,4.72423 -6.4143,8.90805 -9.1475,13.64453 -3.9506,3.39117 -9.4567,5.58367 -11.4209,10.86426 -1.1157,3.81389 -3.7422,6.7776 -5.5498,10.2041 -1.2254,2.29312 -0.2005,4.85415 -1.4121,7.18945 -2.3132,7.56324 0.1562,15.90328 5.3727,21.68414 2.151,2.69645 4.5308,5.45659 7.6136,7.02485 1.4256,-3.7349 3.2858,-0.26423 5.1256,1.22656 0.9739,1.1889 2.2872,1.53679 3.6615,1.69141 3.7265,2.38255 6.3743,6.27703 10.5225,7.93457 1.9044,1.16861 3.0982,3.53847 4.8125,4.65039 0.8887,-1.17597 2.256,-4.63229 4.1221,-2.71387 0.7485,0.5379 1.6208,3.40721 2.6211,1.65723 2.3944,-3.31551 6.0127,-5.79375 9.7587,-7.30469 0.8182,0.59273 1.5628,1.8287 2.7764,0.8916 4.2124,-1.47344 7.3232,-4.80745 10.9043,-7.23926 2.7803,0.11554 3.4165,-3.67585 4.3621,-5.63615 1.4218,-3.34833 1.1743,-7.52211 3.4299,-10.44002 0.9905,-0.56936 1.4177,0.39908 1.8477,0.88477 2.0222,-1.71874 2.4512,-4.87357 3.3496,-7.31055 0.6539,-1.80523 -0.2002,-5.1327 2.4707,-5.33301 1.2846,-2.03408 -0.1031,-4.83797 -0.3965,-7.03515 -0.4759,-3.30428 -3.0084,-6.0176 -3.2969,-9.29786 0.4393,-1.20248 3.2294,0.58132 2.3789,-1.34082 -1.3975,-6.88188 -5.0112,-13.15303 -9.3808,-18.57226 -2.3197,-3.62315 -4.7605,-7.84984 -4.4483,-12.25 1.4187,-0.81808 2.6922,1.84092 3.6436,2.53711 4.6612,5.59584 10.6795,10.12142 14.5625,16.32422 1.8479,4.69464 1.8026,11.06139 6.7861,13.81933 -0.2424,-1.17666 0.4036,-3.94377 2.1875,-2.45508 2.7321,3.20937 7.0537,3.69527 11.0111,3.72991 2.1782,-0.26303 5.0018,0.91195 6.9137,-0.3217 0.036,-2.26774 3.5218,-1.57222 4.9019,-2.38115 2.9321,-0.68425 6.0077,-1.49662 8.9799,-1.15792 1.2596,-2.85621 0.3319,-6.5389 2.6338,-9.083 2.3556,-2.93649 5.3137,-6.60925 3.5293,-10.60059 -0.2577,-1.47843 -1.1348,-3.03138 -2.8379,-2.63477 -2.5677,-2.02124 -1.7584,-6.06305 -2.2432,-8.97575 -0.2676,-3.40831 -0.2404,-7.82756 -2.996,-10.1512 -1.5028,0.25589 -1.6297,-2.36694 -2.1973,-3.29394 -1.6893,-6.19092 -6.0108,-11.52883 -11.2187,-15.14453 -7.2522,-3.46201 -16.4509,-2.06542 -22.8272,-7.58985 -2.7771,-2.67665 -4.8078,-6.03957 -7.3838,-8.88281 -1.0599,-1.25679 0.5724,-2.2027 1.4473,-1.09277 1.7229,2.26677 4.5501,1.69517 7.0059,1.57812 4.3032,0.65175 7.0148,4.77584 10.9541,6.12989 5.6454,-0.15508 11.0246,-3.05544 15.3095,-6.58789 1.3663,-1.7863 2.8439,-3.3236 4.7631,-4.49093 1.9245,-1.13819 -1.173,-2.94132 -1.0551,-4.62626 -0.7619,-2.2755 0.4066,-4.3805 1.4473,-6.30176 0.2517,-3.95637 -2.0968,-7.67921 -4.1953,-10.88086 -4.373,-4.77009 -9.4775,-9.4636 -15.7393,-11.48437 -2.2642,-0.55521 -4.3458,1.81091 -6.4736,1.21191 -0.511,-0.93493 -0.2107,-2.78261 -1.9053,-2.4668 -5.289,-0.58612 -10.0449,2.58357 -15.1289,2.92285 -4.1736,-1.45627 -8.997,-0.43727 -12.9922,1.19434 -6.5985,3.25463 -11.5116,8.91213 -16.5752,14.01855 -1.396,-0.11289 -0.1405,-2.02498 0.012,-2.80664 -0.1519,-4.88085 -2.6282,-9.8571 -6.4384,-12.80957 -0.5476,0.96411 -1.3867,2.28745 -2.7022,1.20411 -2.5901,-1.43209 -4.765,-3.59403 -7.2177,-5.14649 z"
           id="path14806"
           inkscape:connector-curvature="0" />
        <path
           style="color:#000000;clip-rule:nonzero;display:inline;overflow:visible;visibility:visible;opacity:1;isolation:auto;mix-blend-mode:normal;color-interpolation:sRGB;color-interpolation-filters:linearRGB;solid-color:#000000;solid-opacity:1;fill:#ffffff;fill-opacity:1;fill-rule:evenodd;stroke:none;stroke-width:1;stroke-linecap:square;stroke-linejoin:round;stroke-miterlimit:4;stroke-dasharray:none;stroke-dashoffset:0;stroke-opacity:1;color-rendering:auto;image-rendering:auto;shape-rendering:auto;text-rendering:auto;enable-background:accumulate"
           d="m 2010.6152,434.79492 c -0.5476,0.56338 -1.0972,1.1269 -1.6445,1.6836 -0.042,1.2026 -0.026,2.41171 -0.098,3.61328 -0.042,0.62295 -0.1935,2.64119 -0.1835,3.26562 0.01,0.56434 0.099,1.12512 0.1093,1.68946 0.01,0.5634 -0.078,1.12603 -0.068,1.68945 0.01,0.55657 0.065,1.11233 0.098,1.66797 0.01,0.56568 0.01,1.13158 0.016,1.69726 -0.01,0.13193 8e-4,-0.007 -0.01,0.10742 0,0.002 -0.01,0.004 -0.01,0.006 -0.01,0.007 -0.013,0.0143 -0.022,0.0215 -0.8423,-0.6382 -1.7012,-1.25055 -2.5078,-1.93945 -0.3472,-0.29656 -0.6482,-0.65219 -1.0352,-0.89454 -0.4174,-0.26141 -0.9013,-0.39994 -1.3515,-0.59961 -0.927,-0.46758 -1.7149,-1.18247 -2.6426,-1.64843 -0.5075,-0.25488 -1.0605,-0.40423 -1.5821,-0.62891 -0.5288,-0.22781 -1.0242,-0.53468 -1.5664,-0.72851 -0.5885,-0.21041 -1.2133,-0.30266 -1.8125,-0.48047 -0.6243,-0.18526 -1.2385,-0.40475 -1.8574,-0.60743 -0.6443,-0.19496 -1.2812,-0.41967 -1.9336,-0.58593 -0.6884,-0.17544 -1.3888,-0.29326 -2.084,-0.43946 -3.1441,-0.66116 -6.2985,-1.24236 -9.4687,-1.76367 -4.6345,-0.88137 -9.3749,-1.1067 -14.0762,-0.79883 -0.5613,0.0615 -1.1223,0.12405 -1.6836,0.18555 -2.0162,0.27274 -1.8228,1.69852 0.1934,1.42578 0.5251,-0.0414 1.0491,-0.0837 1.5742,-0.125 2.9527,-0.22946 5.8947,-0.19798 8.8438,0.12305 0.8182,0.0891 1.6248,0.26441 2.4414,0.36719 0.8208,0.10331 1.6478,0.16795 2.4707,0.25195 0.8167,0.16076 1.6281,0.34612 2.4492,0.48242 2.3084,0.38318 4.6403,0.62734 6.9199,1.18555 0.678,0.16604 1.3335,0.41335 2.0078,0.59375 0.6388,0.17089 1.2865,0.3073 1.9297,0.46094 3.1525,1.00687 6.3655,2.08527 9.0996,3.99218 1.8736,1.04243 0.5463,0.22429 2.2168,1.46289 0.027,0.0197 1.8447,1.29239 1.9316,1.36719 0.2598,0.22391 0.4378,0.53631 0.709,0.74609 l 0,0.002 c 0.067,0.23667 0.2912,0.36762 0.6445,0.3164 0.015,0.007 0.032,0.0121 0.047,0.0195 0.032,0.0215 0.058,0.029 0.09,0.0488 0.011,0.23107 0.019,0.54892 0.01,1.42188 -0.01,0.56367 -0.097,1.12384 -0.1074,1.6875 -0.041,1.11157 0.1517,2.21759 0.1367,3.32812 -0.01,0.54028 -0.08,1.07839 -0.121,1.61719 0.076,2.44966 0.1255,4.90316 0.053,7.35352 -0.1136,0.0336 -0.215,0.0516 -0.3399,0.10156 -0.4617,0.33568 -1.0565,0.26585 -1.5585,0.47266 -0.3629,0.14941 -0.672,0.40605 -1.0196,0.58789 -1.2012,0.62832 -2.4303,1.18708 -3.623,1.83593 -3.0056,1.61878 -6.1668,2.93436 -9.1524,4.58203 -3.3673,1.51539 -0.3026,0.0612 -3.5468,1.81836 -0.5617,0.30426 -1.1534,0.55492 -1.7129,0.86329 -1.6919,0.93246 -3.2455,2.0771 -4.8184,3.1914 -3.4988,2.26938 -6.4657,5.17973 -9.5098,7.9961 -3.6282,2.99408 -6.5269,6.70796 -9.5449,10.28125 -1.3641,1.37962 -2.4676,2.94859 -3.539,4.55273 -0.5615,0.84064 -1.1381,1.64932 -1.629,2.5332 l -0.055,0.23828 c -0.6877,1.9216 0.6716,2.40794 1.3593,0.48633 -0.032,0.0186 -0.064,0.038 -0.096,0.0566 0.9476,-1.20098 1.6547,-2.59191 2.6016,-3.79297 0.3958,-0.50201 0.9008,-0.91249 1.2871,-1.42187 0.4229,-0.55773 0.7555,-1.17997 1.1328,-1.76953 1.4736,-1.81192 2.9975,-3.54936 4.5703,-5.27539 0.5239,-0.57497 1.0118,-1.18118 1.5645,-1.72852 0.5424,-0.53712 1.1524,-1.00336 1.7148,-1.51953 0.5544,-0.50885 1.0898,-1.03778 1.6348,-1.55664 l 1.6816,-1.45703 c 0.488,-0.51082 0.9336,-1.06768 1.4649,-1.5332 0.5158,-0.45189 1.1237,-0.78668 1.664,-1.20899 1.5394,-1.20344 2.7939,-2.73428 4.5489,-3.64844 3.1732,-2.13367 6.4138,-4.14843 9.8652,-5.81054 1.1258,-0.56377 2.2292,-1.17448 3.3672,-1.71289 2.4366,-1.15276 0.763,-0.18418 3.1074,-1.44141 0.4595,-0.24644 0.8912,-0.54384 1.3555,-0.78125 0.447,-0.22859 0.9168,-0.40993 1.375,-0.61523 2.1857,-1.32339 0.2141,-0.21631 2.4472,-1.23633 1.1027,-0.50364 2.1672,-1.10735 3.336,-1.45508 0,0.0553 0,0.11073 -0.01,0.16602 -0.503,4.43022 0.087,-1.50543 -0.08,2.98046 -0.019,0.50151 -0.1612,0.99174 -0.1992,1.49219 -0.038,0.50044 -0.01,1.00438 -0.025,1.50586 -0.029,0.74541 -0.1491,2.34086 -0.2011,3.07227 0.2225,1.63687 -0.043,3.26222 -0.1543,4.89062 -0.1098,1.60846 -0.1242,3.23095 -0.2012,4.8418 0,0.49619 0.034,0.9924 0.016,1.48828 -0.018,0.48679 -0.107,0.96831 -0.125,1.45508 -0.027,0.71966 0.051,2.02182 0.061,2.74414 0.015,0.91551 0,1.83246 0,2.74804 -0.2612,1.42848 0.1609,2.87533 0.088,4.30079 -0.025,0.48542 -0.2024,0.95447 -0.2344,1.43945 -0.033,0.49267 0.026,0.98688 0.039,1.48047 -0.052,0.49704 -0.1033,0.99319 -0.1543,1.49023 -0.028,0.61805 -0.088,2.20576 -0.166,2.83203 -0.059,0.46888 -0.2031,0.92392 -0.2461,1.39453 -0.044,0.47815 0.029,0.96291 -0.01,1.44141 -0.037,0.45233 -0.1458,0.89578 -0.2188,1.34375 -0.036,0.4565 -0.073,0.91264 -0.1094,1.36914 -0.6114,2.6405 -0.6136,5.35838 -1.0761,8.02344 -0.047,0.43266 -0.096,0.86617 -0.1426,1.29883 -0.068,0.4236 -0.1541,0.84533 -0.2031,1.27148 -0.052,0.44426 -0.04,0.89468 -0.1,1.33789 -0.059,0.43661 -0.1908,0.85955 -0.2578,1.29492 -0.091,0.58953 -0.2137,2.0693 -0.2657,2.6504 -0.4873,2.32576 -0.6452,4.70312 -1.1308,7.02734 -0.3415,1.85967 -0.9924,3.64957 -1.2578,5.52344 -0.055,0.31634 -0.069,0.64305 -0.1661,0.94922 -0.1025,0.32474 -0.325,0.60242 -0.4257,0.92773 -0.2163,0.69906 -0.2466,1.4432 -0.4024,2.1582 -0.147,0.67481 -0.3691,1.49287 -0.543,2.16016 -0.3644,2.16606 -0.868,4.29501 -1.2558,6.45898 -0.051,0.3932 -0.064,0.79274 -0.1504,1.17969 -0.085,0.38225 -0.2653,0.73762 -0.3613,1.11719 -0.2989,0.78256 -0.1955,1.63538 -0.3828,2.43555 -0.8692,3.71275 -0.037,-1.35317 -0.6036,2.45898 -0.8486,2.03735 -0.2025,0.20736 -0.6386,2.4043 -0.08,0.40034 -0.2133,0.78776 -0.3203,1.18164 -0.501,2.06456 0.9579,2.41807 1.4589,0.35351 0.3336,-1.19695 0.6158,-2.39993 0.8672,-3.61719 0.5961,-3.80088 -0.2978,1.34914 0.6563,-2.4746 0.101,-0.40432 0.087,-0.82924 0.1562,-1.24024 0.1981,-1.18314 0.6681,-2.27936 0.8106,-3.47266 0.1924,-1.11815 0.5156,-2.19591 0.7265,-3.30664 0.1977,-1.04135 0.2948,-2.10685 0.5606,-3.13867 0.4734,-2.06389 0.9536,-4.12347 1.4687,-6.17773 0.05,-0.2481 0.3218,-1.62487 0.3848,-1.86133 0.3339,-1.25972 0.8223,-2.47677 0.8633,-3.80273 0.2293,-2.35531 0.8616,-4.70083 1.1269,-7.0586 0.454,-2.5958 0.6508,-5.23141 1.0567,-7.83594 0.5537,-3.71873 -0.1351,1.1124 0.3066,-2.66601 0.052,-0.44594 0.1681,-0.88244 0.2031,-1.33008 0.031,-0.44969 -0.051,-0.90536 0,-1.35351 0.103,-0.90748 0.5426,-1.76162 0.4746,-2.69922 0.4206,-4.67883 -0.1977,1.99221 0.3086,-2.76563 0.1003,-0.94256 0.086,-1.89437 0.211,-2.83398 0.064,-0.48095 0.2342,-0.94676 0.2812,-1.42969 0.051,-0.47721 0,-0.95807 0,-1.4375 0.1419,-1.31429 0.2063,-1.6726 0.2403,-2.99609 0.1276,-4.98242 -0.1064,1.8779 -0.07,-2.9668 0.01,-0.94808 0.186,-1.89072 0.125,-2.8418 -0.123,-2.80303 0.05,-5.56562 0.035,-8.37109 0.096,-3.2548 0.4666,-6.49946 0.4766,-9.75977 0.011,-0.5176 0.024,-1.03513 0.035,-1.55273 -0.011,-0.49688 -0.043,-0.99525 -0.033,-1.49219 0.026,-1.87566 0.3067,-3.73867 0.2989,-5.61523 0.1816,0.0965 0.3978,0.18537 0.6582,0.25976 1.6329,0.48278 3.3272,0.74296 4.9707,1.17969 1.3073,0.34739 2.5923,0.76917 3.8984,1.12109 0.7325,0.26049 1.4666,0.52077 2.1992,0.78125 0.7888,0.31958 1.5651,0.66882 2.3652,0.95899 0.8686,0.31499 1.7706,0.53382 2.6368,0.85547 2.8847,1.07133 5.6927,2.41139 8.4746,3.71875 5.8411,2.7871 0.099,-0.0964 5.6914,3.14453 0.9289,0.53838 1.9352,0.94117 2.8496,1.5039 0.9059,0.55751 1.7162,1.25704 2.5996,1.84961 5.9782,4.01008 -0.5357,-0.64989 5.1699,3.50586 2.2995,1.64026 4.3775,3.53308 6.4766,5.41016 0.6005,0.53699 1.2508,1.01833 1.832,1.57617 1.0341,0.99255 1.7305,1.92492 2.6192,3.0293 2.4324,2.50635 -0.065,-0.23926 1.7265,2.20117 0.1942,0.26452 0.5013,0.43697 0.6758,0.71484 0.1449,0.23069 0.1316,0.53501 0.2598,0.77539 0.035,0.0657 0.5277,0.57731 0.6347,0.68946 1.1657,1.66831 2.3457,0.84409 1.1797,-0.82422 -0.8913,-1.67326 -2.0606,-3.16808 -3.3457,-4.56055 -1.9028,-2.40527 -0.4563,-0.721 -2.791,-3.03711 -1.4874,-1.47565 -2.0598,-2.25079 -3.7402,-3.56836 -0.753,-0.59049 -1.608,-1.04462 -2.3614,-1.63476 -0.797,-0.62434 -1.5221,-1.33434 -2.2832,-2.00196 -6.4555,-4.50099 1.4427,0.9608 -5.248,-3.52929 -0.8958,-0.60111 -1.7458,-1.27026 -2.6582,-1.84571 -0.9186,-0.57934 -1.8937,-1.06512 -2.8301,-1.61523 -0.9537,-0.56026 -1.8555,-1.21022 -2.8398,-1.71484 -0.9803,-0.50259 -2.0261,-0.86592 -3.0391,-1.29883 -0.9614,-0.52143 -1.8958,-1.09752 -2.8848,-1.56446 -0.9416,-0.44457 -1.9355,-0.76966 -2.8984,-1.16601 -6.6182,-2.72412 1.0224,0.30379 -5.3711,-2.08203 -3.9893,-1.4887 -0.8323,-0.50291 -4.6953,-1.60938 -2.9442,-0.84499 -5.8618,-1.77968 -8.8633,-2.39843 -0.3817,-0.10909 -0.6856,-0.12776 -0.9473,-0.11329 0.044,-0.3245 -0.016,0.0232 0.047,-2.10742 0.015,-0.5065 0.1292,-1.00893 0.1192,-1.51562 -0.01,-0.51326 -0.1482,-1.01803 -0.1582,-1.53125 -0.01,-0.51915 0.067,-1.03657 0.1015,-1.55469 l -0.062,-1.58203 c -0.1395,-3.33518 -0.042,0.11575 0.01,-3.26758 0.023,-1.48178 -0.078,-2.96716 -0.066,-4.44922 0.2816,-0.14222 0.3167,-0.48835 0.027,-0.90625 0.01,-0.13625 0.023,-0.27202 0.033,-0.4082 1.9828,-1.3888 4.0213,-2.63507 6.209,-3.69531 2.7703,-1.26463 5.4159,-2.79224 8.1816,-4.06446 1.546,-0.7111 3.1244,-1.34658 4.6856,-2.02344 1.6521,-0.49756 3.2061,-1.27929 4.8516,-1.79492 0.8214,-0.25738 1.6684,-0.42574 2.5019,-0.64062 0.7964,-0.20534 3.9024,-1.03024 4.75,-1.20117 0.7512,-0.15149 1.5146,-0.2382 2.2715,-0.35743 3.5237,-1.04139 7.2079,-0.76546 10.8301,-0.93554 1.6611,0.15055 3.3322,0.2461 4.9707,0.56836 2.0153,0.4327 2.3199,-0.99308 0.3047,-1.42578 -0.2329,-0.03 -0.4691,-0.0437 -0.6993,-0.0899 -0.2994,-0.06 -0.5819,-0.20966 -0.8867,-0.22656 -0.3458,-0.0192 -0.6858,0.14699 -1.0312,0.12109 -0.408,-0.0306 -0.7957,-0.19296 -1.1934,-0.28906 -0.466,-0.0146 -0.9324,-0.0284 -1.3984,-0.043 -3.7348,-0.29179 -7.5187,0.14227 -11.1856,0.86133 -1.9119,0.30259 -2.8001,0.40214 -4.6992,0.87109 -0.826,0.20397 -1.6349,0.47231 -2.457,0.69141 -0.8504,0.22663 -1.7229,0.37692 -2.5606,0.64648 -1.6795,0.54043 -3.2334,1.43231 -4.9609,1.84375 -2.3689,0.96941 -4.7372,1.97042 -7.0117,3.15039 -0.7015,0.36395 -1.3555,0.81889 -2.0664,1.16407 -5.039,2.44653 0.6547,-0.7297 -3.8828,1.88476 -1.1775,0.52601 -2.0636,0.87513 -3.1602,1.54493 -0.7965,0.48651 -1.5493,1.04993 -2.3105,1.59765 -0.1009,-3.02255 0.085,-6.0359 -0.068,-9.05859 0.211,-1.44119 0.3279,-2.88748 0.3809,-4.34375 0.013,-0.33634 -0.019,-0.67342 -0.016,-1.00977 z"
           id="path14806-4"
           inkscape:connector-curvature="0" />
      </g>
    </g>
  </g>
</svg>
