<?xml version="1.0" encoding="UTF-8" standalone="no"?>
<!-- Created with Inkscape (http://www.inkscape.org/) -->

<svg
   xmlns:dc="http://purl.org/dc/elements/1.1/"
   xmlns:cc="http://creativecommons.org/ns#"
   xmlns:rdf="http://www.w3.org/1999/02/22-rdf-syntax-ns#"
   xmlns:svg="http://www.w3.org/2000/svg"
   xmlns="http://www.w3.org/2000/svg"
   xmlns:sodipodi="http://sodipodi.sourceforge.net/DTD/sodipodi-0.dtd"
   xmlns:inkscape="http://www.inkscape.org/namespaces/inkscape"
   width="210mm"
   height="297mm"
   viewBox="0 0 744.09448819 1052.3622047"
   id="svg27274"
   version="1.1"
   inkscape:version="0.91 r13725"
   sodipodi:docname="body13.svg">
  <defs
     id="defs27276" />
  <sodipodi:namedview
     id="base"
     pagecolor="#ffffff"
     bordercolor="#666666"
     borderopacity="1.0"
     inkscape:pageopacity="0.0"
     inkscape:pageshadow="2"
     inkscape:zoom="0.175"
     inkscape:cx="447.04165"
     inkscape:cy="1081.5951"
     inkscape:document-units="px"
     inkscape:current-layer="layer1"
     showgrid="false"
     inkscape:window-width="458"
     inkscape:window-height="626"
     inkscape:window-x="906"
     inkscape:window-y="0"
     inkscape:window-maximized="0" />
  <metadata
     id="metadata27279">
    <rdf:RDF>
      <cc:Work
         rdf:about="">
        <dc:format>image/svg+xml</dc:format>
        <dc:type
           rdf:resource="http://purl.org/dc/dcmitype/StillImage" />
        <dc:title></dc:title>
      </cc:Work>
    </rdf:RDF>
  </metadata>
  <g
     inkscape:label="Layer 1"
     inkscape:groupmode="layer"
     id="layer1">
    <g
       id="g14987"
       transform="matrix(1.2472823,-0.37083131,0.37083131,1.2472823,-2071.1567,147.11464)"
       style="display:inline;opacity:1">
      <path
         sodipodi:nodetypes="ccccccccccccccccccccccccc"
         inkscape:connector-curvature="0"
         id="path14894"
         d="m 1910.8209,775.64817 c -28.4283,3.806 -55.2187,15.468 -80.9058,27.7236 -6.4458,4.2984 -14.005,6.7887 -20.9397,9.6343 0.3681,6.5711 3.5948,13.2602 4.3103,20.0362 6.4812,19.8847 9.9031,41.4602 3.3739,61.828 -5.8997,26.2002 -20.94,48.9868 -28.3652,74.7079 -4.3251,8.7103 -5.6814,22.44881 -15.7627,26.8448 -9.2995,7.06333 -7.2471,18.18433 -0.2623,15.71103 -9.8712,7.5614 -8.1733,17.4364 0.964,19.7659 0,0 -7.227,9.8915 -5.8143,15.7773 7.4213,14.3012 11.9123,7.5286 22.7378,1.3231 -6.2175,7.1712 -11.9565,20.8474 -3.3062,27.1131 4.3706,2.9133 21.8938,4.8304 21.285,-2.6434 0,0 4.9664,-10.7668 13.4737,-20.2382 7.5882,0.5578 3.6154,8.8469 1.7457,13.3605 -4.1892,6.6602 -5.4589,15.1231 -0.2514,21.6275 4.2513,8.178 13.9022,12.7087 22.6523,9.0046 17.1145,-5.9386 20.3601,-26.3129 25.4973,-41.2636 4.8225,-7.5948 7.9548,-16.4436 15.9347,-21.5087 19.7837,-14.72 20.0579,-41.89313 24.6562,-63.86693 2.9129,-17.3614 6.1166,-35.4921 17.436,-49.6099 7.8275,-13.6629 25.3267,-22.5229 25.0277,-40.2416 0.4722,-15.2965 -7.2643,-29.2737 -17.825,-39.8404 -9.4049,-21.6797 -21.5695,-38.4478 -23.8584,-64.2424 -0.2872,-0.7233 -1.0475,-1.1089 -1.8036,-1.0027 z"
         style="color:#000000;clip-rule:nonzero;display:inline;overflow:visible;visibility:visible;opacity:1;isolation:auto;mix-blend-mode:normal;color-interpolation:sRGB;color-interpolation-filters:linearRGB;solid-color:#000000;solid-opacity:1;fill:#000000;fill-opacity:1;fill-rule:evenodd;stroke:none;stroke-width:1;stroke-linecap:square;stroke-linejoin:round;stroke-miterlimit:4;stroke-dasharray:none;stroke-dashoffset:0;stroke-opacity:1;color-rendering:auto;image-rendering:auto;shape-rendering:auto;text-rendering:auto;enable-background:accumulate" />
      <path
         inkscape:connector-curvature="0"
         d="m 1903.9296,833.98028 c -0.4491,1.34819 -0.1578,2.79926 -0.036,4.18019 0.509,1.3406 0.8518,2.74345 1.4681,4.04195 0.3391,0.7145 0.7257,1.40554 1.0819,2.11167 1.1332,1.98051 2.3685,3.89656 3.4644,5.89878 0.7069,1.42607 1.4506,2.86926 1.9742,4.37773 1.2513,3.60539 -0.6087,-1.244 0.8141,2.38489 0.3717,1.24522 0.7014,2.4989 1.0377,3.75338 0.1184,0.44156 0.2811,0.87156 0.3781,1.3183 0.056,0.26006 0.3447,2.40698 0.3808,2.67136 0.082,1.36962 0.2929,2.7422 0.2194,4.11843 -0.026,0.48918 -0.1139,0.97312 -0.1661,1.46021 -0.2412,2.25032 -0.031,0.83709 -0.4347,3.1104 -0.1396,0.51548 -0.2909,1.02791 -0.4187,1.54645 -0.1285,0.52173 -0.1902,1.06052 -0.3499,1.57356 -0.4077,1.30911 -1.2409,3.01294 -1.9884,4.16918 -0.2533,0.39172 -0.5575,0.74807 -0.8362,1.12211 -1.0141,1.07773 -2.072,2.28579 -3.5084,2.80391 -1.0311,0.23663 -0.5512,0.0793 -1.4464,0.45078 -0.4387,0.0792 -0.8598,0.006 -1.2936,0.0841 -1.536,-0.0452 -1.5041,-1.13133 0.032,-1.08612 l 0,0 c 0.4044,0.0484 0.5987,0.17185 0.9841,-0.12112 0.1325,-0.0317 1.1791,-0.28022 1.2437,-0.30451 1.2536,-0.471 2.3397,-1.38493 3.173,-2.40665 0.22,-0.36916 0.4331,-0.74246 0.66,-1.10747 0.2436,-0.39208 0.5385,-0.75371 0.7511,-1.16343 0.226,-0.43534 0.3609,-0.91247 0.5593,-1.36107 0.2049,-0.46348 0.4848,-0.8952 0.6501,-1.37425 0.3384,-0.98111 0.3323,-2.06092 0.7669,-3.01759 0.1136,-0.49884 0.2656,-0.99049 0.341,-1.49654 0.073,-0.49275 0.076,-0.99354 0.1041,-1.49095 0.1005,-1.79626 0.1793,-3.58293 -0.1197,-5.36813 -0.3147,-1.69885 -0.2038,-0.84061 -0.3308,-2.57496 -0.079,-0.43496 -0.2621,-0.84474 -0.3712,-1.27309 -0.1084,-0.42574 -0.1694,-0.86279 -0.2812,-1.28765 -1.2107,-4.60023 0.415,2.12259 -0.6699,-2.44589 -0.1815,-0.37716 -0.3872,-0.74361 -0.5446,-1.13147 -0.447,-1.10163 -0.6927,-2.28863 -1.2217,-3.36113 -0.1714,-0.34762 -0.4182,-0.65413 -0.5946,-0.99925 -0.1732,-0.33871 -0.3014,-0.69861 -0.4521,-1.04791 -0.1541,-0.3257 -0.2897,-0.66086 -0.4624,-0.97708 -0.5443,-0.99627 -1.2568,-1.89719 -1.8252,-2.8789 -0.1995,-0.3446 -0.367,-0.7068 -0.5539,-1.05843 -0.1872,-0.35242 -0.379,-0.70244 -0.5685,-1.05367 -0.2185,-0.34253 -0.4588,-0.6721 -0.6555,-1.02758 -0.4693,-0.8479 -0.6083,-1.32894 -0.9396,-2.22997 -0.3833,-1.04245 -0.7861,-2.08289 -1.0149,-3.17362 -0.2188,-1.55599 -0.4975,-3.1555 0.021,-4.68558 0.4619,-1.38572 1.4417,-1.0591 0.9798,0.32662 z"
         id="path14943"
         style="fill:#ffffff;fill-opacity:1;fill-rule:nonzero;stroke:none;stroke-width:1px;stroke-linecap:butt;stroke-linejoin:miter;stroke-opacity:1" />
      <path
         sodipodi:nodetypes="ccccc"
         inkscape:connector-curvature="0"
         id="path14953"
         d="m 1824.5492,1071.644 c -5.6723,12.3181 -3.4586,7.8084 2.8473,8.2105 4.5884,0.3833 11.5529,3.7737 11.5529,3.7737 l 2.7315,-11.0059 c -8.2533,-3.4674 -13.8478,-3.2315 -17.1317,-0.9783 z"
         style="fill:#ff00ff;fill-rule:evenodd;stroke:none;stroke-width:1px;stroke-linecap:butt;stroke-linejoin:miter;stroke-opacity:1" />
      <path
         sodipodi:nodetypes="cccc"
         inkscape:connector-curvature="0"
         id="path14953-2"
         d="m 1786.7417,1057.7369 c -5.231,7.4565 -2.2599,5.8916 1.5977,7.5662 5.4992,2.3285 6.3101,2.9731 9.7466,-5.0453 -5.1386,-3.2171 -8.9038,-3.6691 -11.3443,-2.5209 z"
         style="fill:#ff00ff;fill-rule:evenodd;stroke:none;stroke-width:1px;stroke-linecap:butt;stroke-linejoin:miter;stroke-opacity:1" />
      <path
         sodipodi:nodetypes="cccc"
         inkscape:connector-curvature="0"
         id="path14953-2-2"
         d="m 1770.0868,1039.3164 c -5.1411,4.4836 -2.7001,3.8787 -0.1954,5.7883 3.5808,2.6795 4.0549,3.2937 7.9933,-1.9149 -3.1594,-3.2609 -5.816,-4.265 -7.7966,-3.8679 z"
         style="fill:#ff00ff;fill-rule:evenodd;stroke:none;stroke-width:1px;stroke-linecap:butt;stroke-linejoin:miter;stroke-opacity:1" />
      <path
         inkscape:connector-curvature="0"
         id="path14985"
         d="m 1769.5347,1016.3306 c 2.4749,1.4142 3.5355,6.0104 3.5355,6.0104 l -4.9497,2.8284 c 0,0 -3.182,-1.7677 -1.4142,-4.2426 1.7678,-2.4749 2.8284,-4.5962 2.8284,-4.5962 z"
         style="fill:#ff00ff;fill-rule:evenodd;stroke:none;stroke-width:1px;stroke-linecap:butt;stroke-linejoin:miter;stroke-opacity:1" />
    </g>
    <g
       id="g28260"
       transform="translate(28.571429,45.714286)">
      <path
         sodipodi:nodetypes="ccccccccccccccc"
         inkscape:connector-curvature="0"
         id="path14884"
         d="m 422.27326,101.68543 c -42.88798,-1.11518 -80.85248,23.65776 -114.53778,47.39699 -35.57399,25.31304 -74.41427,49.12766 -97.30737,87.66669 -41.18877,51.34662 -94.64653,93.09117 -126.00828,152.06777 -30.57678,55.50736 -52.799059,116.97099 -56.977823,180.55143 -0.49185,53.10499 18.385601,105.48076 47.897835,149.12219 33.563138,37.83824 89.636508,51.79826 138.118078,41.09118 22.31755,-6.90246 37.49331,-28.09598 61.84966,-30.27921 46.16372,-10.22414 89.21553,-30.10684 131.85563,-49.93878 51.7931,-23.90867 84.71552,-74.05384 106.60853,-124.77545 29.52203,-52.44353 59.96775,-123.24568 80.68705,-176.5877 8.02346,-28.34076 4.87843,-33.1368 11.76397,-66.78207 4.68664,-38.8419 11.93172,-80.7329 -3.00879,-118.17729 -17.302,-30.07668 -41.338,-58.04148 -72.01522,-74.88779 -34.55752,-12.91127 -72.27449,-16.18247 -108.92549,-16.46796 z"
         style="color:#000000;clip-rule:nonzero;display:inline;overflow:visible;visibility:visible;opacity:1;isolation:auto;mix-blend-mode:normal;color-interpolation:sRGB;color-interpolation-filters:linearRGB;solid-color:#000000;solid-opacity:1;fill:#000000;fill-opacity:1;fill-rule:evenodd;stroke:none;stroke-width:1;stroke-linecap:square;stroke-linejoin:round;stroke-miterlimit:4;stroke-dasharray:none;stroke-dashoffset:0;stroke-opacity:1;color-rendering:auto;image-rendering:auto;shape-rendering:auto;text-rendering:auto;enable-background:accumulate" />
      <path
         id="path14884-9"
         d="m 596.7681,366.00413 c -0.8968,0.53448 -1.92057,0.94003 -2.13194,2.06598 -0.5898,0.40399 -1.86786,0.90912 -2.34083,1.40514 -0.29116,0.30538 -0.25358,0.89769 -0.62256,1.10255 -0.44519,0.24717 -1.0471,-0.0931 -1.52345,0.0869 -0.15493,0.0586 0.22865,0.23946 0.3444,0.35824 -1.96152,0.73371 -3.6887,1.68728 -5.24491,2.87288 -1.72237,1.48036 -3.90773,1.64327 -5.97183,2.43813 -1.59771,0.49787 -1.89635,1.01068 -3.23121,1.80165 -1.7067,1.01132 -0.0926,-0.51075 -2.4589,0.22954 -0.57163,0.17891 -0.98067,0.68936 -1.47127,1.03299 -2.25909,1.11562 -4.7577,1.10515 -6.838,2.55639 -0.38732,0.24407 -0.515,0.85084 -0.94951,0.99472 -0.15848,0.0522 -0.1015,-0.50303 -0.25037,-0.43126 -0.37236,0.17887 -0.41385,0.81174 -0.80687,0.93907 -0.43095,0.13961 -0.89359,-0.16223 -1.33914,-0.24347 -0.46995,0.21475 -0.93865,0.42871 -1.4086,0.64345 -1.25081,1.07259 -3.87247,1.49291 -5.4919,1.93381 -1.36764,0.42557 -2.64926,0.92031 -3.83276,1.74947 -0.33906,0.23752 -0.69718,0.46008 -0.98424,0.75822 -0.0997,0.10346 10e-4,0.37542 -0.1389,0.40694 -0.50039,0.11255 -1.02804,-0.0189 -1.54072,-0.0278 -3.00737,0.81905 -1.96722,1.0552 -4.01725,2.24337 -0.92547,0.53638 -2.9698,0.0142 -3.8885,0.96341 -0.84195,0.49105 -1.77935,0.85495 -2.50768,1.50253 -0.30327,0.26968 -0.38554,0.81212 -0.76859,0.94604 -0.49915,0.17434 -1.06454,-0.24684 -1.57901,-0.12519 -0.93277,0.22044 -1.55871,1.25947 -2.62254,1.18254 -2.68737,1.80542 -6.17911,1.88474 -8.5422,4.3476 -3.42318,1.02067 -6.60364,2.73787 -9.19253,5.24493 -3.71826,0.75012 -6.46724,3.96509 -10.31941,4.70584 -1.11672,1.22912 -1.77668,2.12685 -3.2451,3.00853 -0.52747,0.31658 -1.19704,0.34566 -1.71453,0.67822 -1.59344,1.0242 -2.71283,2.737 -4.7999,3.03289 -2.68879,2.52883 0.86492,-0.46252 -3.4572,1.64512 -1.10746,0.54005 -1.7391,1.81858 -2.85191,2.3477 -0.73528,0.34962 -1.59788,0.36285 -2.34082,0.69562 -0.63752,0.2855 -1.17353,0.76135 -1.75994,1.1408 -1.96705,1.45156 -4.47936,2.3391 -6.323,3.91981 -0.57376,0.49185 -0.92493,1.21217 -1.51312,1.68685 -0.43736,0.35324 -1.00952,0.50047 -1.51295,0.75127 -2.63501,2.39796 -6.13743,3.79398 -7.79427,7.17875 -1.37867,1.54642 -0.52675,0.78575 -2.7025,2.11814 -0.31965,0.33723 -0.15493,0.98562 -0.49381,1.30428 -0.51713,0.48624 -1.44866,0.4066 -1.90596,0.9495 -0.32944,0.38948 0.16561,1.14002 -0.17452,1.51993 -0.48454,0.54296 -1.32347,0.60304 -1.98591,0.9043 -1.85931,2.53986 -4.03203,4.826 -6.12141,7.16831 -1.50707,2.39279 -2.58213,4.76556 -4.9876,6.40661 l -1.29391,1.67295 c -0.0231,0.4593 0.16205,0.98328 -0.0695,1.3808 -0.23702,0.40751 -0.8854,0.40626 -1.18261,0.77214 -0.73172,0.90054 -1.20665,2.4772 -1.51294,3.59633 -1.16427,0.87747 -4.14796,5.14647 -4.51801,6.59791 -0.11931,0.46592 0.15671,0.94787 0.23293,1.42252 -2.30486,1.7474 -3.05528,4.77414 -5.31793,6.64661 -1.41322,1.82643 1.11833,-1.58393 -0.86955,2.05553 -0.75149,1.37565 -2.36932,2.14882 -2.8763,3.70762 -0.87989,1.18675 -1.38901,2.65731 -2.25731,3.79458 -1.10551,1.44772 -1.69014,1.24375 -1.92342,2.96681 -0.43166,2.53381 0.27175,0.0442 -1.76332,2.58421 -0.23916,0.29735 -0.19375,0.74155 -0.37218,1.0782 -0.77642,1.46508 -2.49415,2.18398 -2.68149,4.02065 -1.17139,1.78964 -0.7766,0.76482 -1.00525,3.1407 -0.34226,0.65043 -1.13382,0.94765 -1.60341,1.51296 -1.10426,1.32889 -1.84274,3.07992 -3.27288,4.18762 -0.49577,0.74459 -1.60395,2.3633 -1.93374,3.08852 -0.16562,0.36434 -0.0801,0.81887 -0.27478,1.16863 -0.54296,0.97597 -1.66217,1.5089 -2.3581,2.38248 -0.22544,0.28279 -0.31128,0.65096 -0.46621,0.97734 -0.52889,0.71078 -2.03489,2.00271 -2.51801,2.74768 -0.61739,0.95174 -1.36728,2.93176 -2.21208,3.95457 -1.65167,2.57177 -4.29416,3.99641 -5.56848,6.74739 -2.65727,1.96259 -3.51774,5.40464 -5.4326,8.05871 -2.28474,2.93881 -4.34029,6.04217 -6.97708,8.73007 -0.80829,0.90837 -2.26959,2.72066 -3.15802,3.40145 -0.4525,0.34654 -1.18582,0.25946 -1.56869,0.68168 -2.79813,3.08591 2.03489,0.55845 -2.15295,2.33727 -2.43539,1.31831 -1.50582,2.19943 -3.22409,3.61729 -0.47689,0.39337 -1.10052,0.58587 -1.5548,1.00506 -3.00398,2.77089 0.70003,0.60778 -3.02945,2.46602 -2.18715,1.88655 -4.05981,4.06016 -6.19781,5.99961 -1.79573,0.91318 -4.07138,1.9779 -5.51274,3.41908 -1.43174,1.43174 -1.7594,3.71292 -3.70775,4.7057 -1.24939,2.26318 -4.00407,2.97033 -6.30572,4.28864 -0.49487,0.42382 -0.92796,0.93187 -1.48516,1.26933 -1.09269,0.66191 -3.57437,0.94239 -4.38925,1.97915 -0.26249,0.34405 0.26284,0.95236 0.0178,1.31457 -0.32374,0.47814 -0.99794,0.58392 -1.49567,0.8765 -1.13453,0.68862 -2.60403,1.07256 -3.66234,1.82956 -1.13435,0.81133 -1.65861,2.38678 -3.27288,2.61543 -0.8651,0.73207 -2.45943,1.61302 -3.19988,2.4694 -1.10408,1.27681 -0.77089,1.52719 -3.02945,1.86429 -1.52577,2.0917 -3.08323,2.9397 -5.05348,4.50411 -2.45213,0.81061 -3.85591,2.54829 -5.89881,4.0103 -0.44003,0.3111 -0.92939,0.56291 -1.32169,0.93206 -0.17274,0.16205 -0.12288,0.51749 -0.3339,0.62256 -0.51162,0.25572 -1.19009,0.0766 -1.67304,0.38269 -0.30558,0.19392 -0.20621,0.73207 -0.47297,0.97729 -0.78639,0.72228 -2.40155,0.12109 -2.87631,1.40859 -3.18331,1.04335 -3.31954,2.49451 -5.41195,3.50599 -0.90463,0.43735 -1.99037,0.36345 -2.92153,0.7408 -2.06428,0.83661 -3.2574,1.92128 -4.9632,3.2346 l -0.0178,0 c -9.65731,5.79446 -5.56029,12.62551 4.09721,6.83105 0.67099,-0.61223 1.25366,-1.33897 2.0137,-1.83652 0.78888,-0.51624 1.73964,-0.73635 2.57731,-1.16854 2.92136,-1.50707 5.53411,-3.38098 8.58048,-4.66064 1.74979,-0.38073 2.38909,-2.40102 3.75975,-3.24511 0.28475,-0.17451 0.69183,0.0303 0.99474,-0.1104 0.88202,-0.41314 1.59771,-1.11904 2.39639,-1.67643 0.71551,-1.34662 2.02973,-0.96945 3.04334,-1.62424 0.38643,-0.24949 0.39355,-0.85495 0.71997,-1.17905 1.44563,-1.43548 0.70269,0.14602 1.11637,-0.85566 1.65166,0.5093 1.02821,-1.71916 1.90596,-1.99643 0.46175,-0.14602 0.98548,0.49666 1.42266,0.28867 1.38313,-0.65764 1.48125,-2.24556 2.97371,-2.89376 1.49194,-0.0214 2.04754,-1.66538 3.08163,-2.27458 0.25839,-0.15849 0.63752,0.14424 0.90072,0 0.11397,-0.0623 1.83063,-1.66271 2.19462,-1.99999 0.63663,-1.5434 2.34208,-1.43905 3.49549,-2.46584 0.27584,-0.24557 0.33478,-0.71765 0.66084,-0.89039 3.56974,-1.89973 0.74312,0.97605 3.07112,-1.79822 1.15804,-1.11014 4.0965,-4.15366 5.74229,-4.11804 4.21064,-0.86866 -1.28145,0.62434 2.24342,-1.61374 0.32125,-0.20372 0.76092,0.0516 1.14076,0.0766 0.87383,-0.45872 1.84791,-0.76573 2.62255,-1.37725 0.50574,-0.39942 0.69414,-1.08876 1.11636,-1.57563 0.52925,-0.61009 1.15056,-1.13684 1.72522,-1.7042 1.59913,-3.44223 4.70231,-4.90799 7.37703,-7.2205 2.55292,-2.4174 5.38025,-3.82635 7.88473,-6.30928 2.00177,-2.63038 4.7073,-4.74737 7.22745,-6.88305 2.49006,-2.63857 5.40536,-4.5919 7.82918,-7.29352 0.26444,-0.50983 0.38607,-1.12135 0.79298,-1.52683 0.55649,-0.55471 1.39612,-0.74828 1.99642,-1.25563 1.9633,-1.65861 2.70464,-4.4692 4.65014,-6.23609 0.83945,-2.99811 2.86063,-5.51185 4.78583,-7.9232 1.34056,-2.66332 3.8803,-4.66046 5.96844,-6.78911 1.34306,-2.40552 2.91263,-4.65731 4.27101,-7.05354 -0.19892,-1.41185 1.467,-0.88965 1.87818,-1.60339 0.32303,-0.5606 0.22901,-1.30684 0.56344,-1.86076 0.3866,-0.64085 1.06882,-1.04963 1.54428,-1.62776 0.55062,-0.66951 1.33932,-2.27218 1.68337,-2.9181 1.73928,-3.212 4.46582,-5.7847 6.03789,-9.07429 1.70616,-1.44903 1.98396,-3.93291 3.45025,-5.55795 0.13,-0.14442 0.37414,-0.11362 0.56005,-0.17042 0.29508,-0.3838 0.58837,-0.77092 0.88345,-1.15471 -0.0214,-0.50756 -0.25127,-1.04973 -0.0588,-1.51993 0.23346,-0.57127 0.85673,-0.89136 1.24156,-1.37383 0.75291,-0.94383 0.71747,-2.3472 1.70437,-3.172 0.16206,-0.13481 0.41956,-0.0258 0.62951,-0.0383 0.18591,-1.40286 1.28483,-3.14221 2.20513,-4.22586 0.19678,-0.23165 0.63823,-0.14763 0.83127,-0.38259 0.19339,-0.23572 0.0695,-0.61901 0.21565,-0.88691 0.2648,-0.48605 0.66013,-0.88845 0.99118,-1.33209 1.3208,-2.78663 3.98323,-4.62212 4.6049,-7.70742 0.54385,-2.22513 2.01886,-3.28256 3.40163,-4.83799 0.50735,-0.57065 0.69771,-1.36308 1.14433,-1.98252 0.51589,-1.98912 2.3841,-3.05103 3.05029,-4.93191 0.17986,-0.51003 -0.19713,-1.13707 0.0445,-1.62077 0.12465,-0.24788 0.54919,-0.0753 0.82414,-0.1113 0.55614,-1.41181 2.06445,-1.77147 2.76162,-3.07114 0.21922,-0.40854 0.18841,-0.9369 0.45214,-1.3182 2.30878,-3.33827 0.83305,0.13552 1.77045,-2.32683 0.25857,-0.55378 0.35615,-1.21787 0.77909,-1.65904 0.30291,-0.316 0.86456,-0.20423 1.23461,-0.43823 0.69539,-0.43971 1.11245,-1.55688 1.66609,-2.06598 2.99847,-2.7566 0.93633,0.29844 2.78246,-2.92157 l 0.54955,-0.91475 c 0.49327,-0.36814 1.11529,-0.60888 1.47822,-1.10602 0.26159,-0.35933 -0.0267,-0.98324 0.28171,-1.30428 0.46764,-0.48729 1.26329,-0.49942 1.81889,-0.88344 0.90445,-0.62519 1.46985,-1.63714 2.21564,-2.44507 2.52246,-2.15216 4.29095,-4.65249 7.37009,-6.02751 0.19196,-0.21623 1.904,-2.22004 2.31981,-2.44508 0.4646,-0.25148 1.08235,-0.10916 1.54073,-0.37216 0.5734,-0.32905 0.92244,-0.95747 1.45738,-1.34602 1.08716,-0.78965 2.37591,-1.2521 3.56849,-1.8712 2.87079,-2.63774 6.42931,-3.81723 9.92639,-5.26927 1.0788,-2.00131 3.31848,-2.26825 5.02232,-3.41548 1.74106,-1.17223 3.00862,-2.31377 4.93203,-3.25199 3.33219,-1.43684 6.2133,-3.56105 9.29689,-5.47449 1.23835,-0.3698 1.95707,-1.68964 3.14057,-2.14598 0.48491,-0.1868 1.07238,0.0639 1.5548,-0.12875 1.86197,-0.74299 2.40386,-2.13299 4.37892,-2.58768 2.88111,-1.43042 5.54604,-2.77857 8.56997,-3.98239 2.47884,-1.39171 5.05509,-2.38507 7.56473,-3.78068 2.45516,-0.53003 4.92206,-1.66862 7.24829,-2.72332 0.32908,-0.10453 0.65069,-0.23878 0.98779,-0.31302 0.69575,-0.15333 1.46326,-0.0577 2.10416,-0.36869 0.2454,-0.11896 1.25955,-1.82752 1.60341,-1.94772 2.27227,-0.79489 -0.27619,1.70461 1.57563,-0.44171 2.46513,0.3449 4.01369,-1.39404 6.39619,-2.04511 0.22633,0.0689 0.4687,0.31525 0.67829,0.2052 0.28831,-0.15154 0.25928,-0.62495 0.51126,-0.83125 0.67741,-0.5545 1.86412,0.3584 2.62593,-0.073 3.41695,-1.93527 -1.69351,-1.61712 2.04861,-1.55818 0.10328,-0.11058 0.17095,-0.27228 0.30949,-0.33389 0.41599,-0.57407 0.8676,0.26443 1.25207,0.0974 1.5628,-0.67928 2.34403,-1.71685 4.02419,-2.18423 0.30166,-0.13908 0.57697,-0.36111 0.90428,-0.41738 0.36541,-0.0629 0.74739,0.14977 1.10942,0.0696 2.98725,-0.66168 0.71658,-0.55496 3.14075,-1.66251 1.90632,-0.87117 0.99064,0.53653 1.75299,-1.21385 2.28153,0.75551 4.22792,-1.67129 6.22221,-2.29901 1.65718,-1.77414 -1.1892,1.07512 2.10434,-1.03994 0.38251,-0.24562 0.46656,-0.80682 0.83126,-1.07821 0.86172,-0.6412 1.27646,-0.0379 2.06588,-0.48693 0.43397,-0.51178 0.72691,-1.18958 1.30085,-1.53731 0.0481,-0.0287 0.10151,-0.0263 0.15315,-0.0347 0.73154,-3.44564 1.41714,-6.90282 2.05555,-10.37509 z"
         style="color:#000000;clip-rule:nonzero;display:inline;overflow:visible;visibility:visible;opacity:1;isolation:auto;mix-blend-mode:normal;color-interpolation:sRGB;color-interpolation-filters:linearRGB;solid-color:#000000;solid-opacity:1;fill:#ffffff;fill-opacity:1;fill-rule:evenodd;stroke:none;stroke-width:1;stroke-linecap:square;stroke-linejoin:round;stroke-miterlimit:4;stroke-dasharray:none;stroke-dashoffset:0;stroke-opacity:1;color-rendering:auto;image-rendering:auto;shape-rendering:auto;text-rendering:auto;enable-background:accumulate"
         inkscape:connector-curvature="0" />
    </g>
  </g>
</svg>
