<?xml version="1.0" encoding="UTF-8" standalone="no"?>
<!-- Created with Inkscape (http://www.inkscape.org/) -->

<svg
   xmlns:dc="http://purl.org/dc/elements/1.1/"
   xmlns:cc="http://creativecommons.org/ns#"
   xmlns:rdf="http://www.w3.org/1999/02/22-rdf-syntax-ns#"
   xmlns:svg="http://www.w3.org/2000/svg"
   xmlns="http://www.w3.org/2000/svg"
   xmlns:sodipodi="http://sodipodi.sourceforge.net/DTD/sodipodi-0.dtd"
   xmlns:inkscape="http://www.inkscape.org/namespaces/inkscape"
   width="210mm"
   height="297mm"
   viewBox="0 0 744.09448819 1052.3622047"
   id="svg8089"
   version="1.1"
   inkscape:version="0.91 r13725"
   sodipodi:docname="body06.svg">
  <defs
     id="defs8091" />
  <sodipodi:namedview
     id="base"
     pagecolor="#ffffff"
     bordercolor="#666666"
     borderopacity="1.0"
     inkscape:pageopacity="0.0"
     inkscape:pageshadow="2"
     inkscape:zoom="0.24748737"
     inkscape:cx="349.08627"
     inkscape:cy="682.08501"
     inkscape:document-units="px"
     inkscape:current-layer="layer1"
     showgrid="false"
     inkscape:window-width="464"
     inkscape:window-height="595"
     inkscape:window-x="900"
     inkscape:window-y="7"
     inkscape:window-maximized="0" />
  <metadata
     id="metadata8094">
    <rdf:RDF>
      <cc:Work
         rdf:about="">
        <dc:format>image/svg+xml</dc:format>
        <dc:type
           rdf:resource="http://purl.org/dc/dcmitype/StillImage" />
        <dc:title></dc:title>
      </cc:Work>
    </rdf:RDF>
  </metadata>
  <g
     inkscape:label="Layer 1"
     inkscape:groupmode="layer"
     id="layer1">
    <path
       style="color:#000000;clip-rule:nonzero;display:inline;overflow:visible;visibility:visible;opacity:1;isolation:auto;mix-blend-mode:normal;color-interpolation:sRGB;color-interpolation-filters:linearRGB;solid-color:#000000;solid-opacity:1;fill:#000000;fill-opacity:1;fill-rule:evenodd;stroke:none;stroke-width:8.5714283;stroke-linecap:square;stroke-linejoin:miter;stroke-miterlimit:4;stroke-dasharray:none;stroke-dashoffset:0;stroke-opacity:1;color-rendering:auto;image-rendering:auto;shape-rendering:auto;text-rendering:auto;enable-background:accumulate"
       d="m 430.09995,126.72736 c -16.5231,0.2437 -32.13987,3.14121 -49.53177,9.03348 -22.35009,7.57188 -72.53011,15.16572 -89.05118,40.00883 -31.42091,48.19768 -31.9484,95.02147 -19.45494,168.93248 3.1304,21.68553 13.70872,64.57161 24.8221,87.583 12.85256,30.4299 28.5595,14.84491 54.37753,13.65453 -3.1565,18.32377 -15.1549,50.70297 -15.1549,50.70297 -15.0921,18.80632 -46.81363,19.1319 -77.79545,30.02873 -45.18892,15.89393 -57.43195,21.15737 -96.43986,66.36317 -74.40651,93.70259 -48.29624,154.57986 -36.86406,195.19856 5.17799,13.9765 29.44376,29.0338 64.63021,42.7766 a 82.103778,82.103778 0 0 0 81.87897,77.5307 82.103778,82.103778 0 0 0 61.87055,-28.2236 82.103778,82.103778 0 0 0 72.16368,43.0975 82.103778,82.103778 0 0 0 73.61539,-45.8493 c 96.2228,-4.1808 172.3665,-34.1049 164.64041,-109.7575 2.38782,-68.43377 -6.13546,-107.22348 -39.98487,-181.9131 -10.56741,-23.31732 -11.88046,-32.69322 -11.31172,-80.92425 0.55281,-46.92565 -1.94449,-131.98796 -5.8965,-200.95878 -2.97859,-51.97674 -29.56781,-114.28939 -60.33024,-141.37471 -26.30584,-23.16141 -47.41765,-32.55626 -79.25563,-35.27553 -5.80852,-0.49614 -11.42004,-0.71499 -16.92772,-0.63378 z"
       id="path4517-3-8"
       inkscape:connector-curvature="0" />
  </g>
</svg>
