<?xml version="1.0" encoding="UTF-8" standalone="no"?>
<!-- Created with Inkscape (http://www.inkscape.org/) -->

<svg
   xmlns:dc="http://purl.org/dc/elements/1.1/"
   xmlns:cc="http://creativecommons.org/ns#"
   xmlns:rdf="http://www.w3.org/1999/02/22-rdf-syntax-ns#"
   xmlns:svg="http://www.w3.org/2000/svg"
   xmlns="http://www.w3.org/2000/svg"
   xmlns:sodipodi="http://sodipodi.sourceforge.net/DTD/sodipodi-0.dtd"
   xmlns:inkscape="http://www.inkscape.org/namespaces/inkscape"
   width="210mm"
   height="297mm"
   viewBox="0 0 744.09448819 1052.3622047"
   id="svg10016"
   version="1.1"
   inkscape:version="0.91 r13725"
   sodipodi:docname="body21.svg">
  <defs
     id="defs10018" />
  <sodipodi:namedview
     id="base"
     pagecolor="#ffffff"
     bordercolor="#666666"
     borderopacity="1.0"
     inkscape:pageopacity="0.0"
     inkscape:pageshadow="2"
     inkscape:zoom="0.35"
     inkscape:cx="30.714286"
     inkscape:cy="520"
     inkscape:document-units="px"
     inkscape:current-layer="layer1"
     showgrid="false"
     inkscape:window-width="1366"
     inkscape:window-height="715"
     inkscape:window-x="0"
     inkscape:window-y="0"
     inkscape:window-maximized="1" />
  <metadata
     id="metadata10021">
    <rdf:RDF>
      <cc:Work
         rdf:about="">
        <dc:format>image/svg+xml</dc:format>
        <dc:type
           rdf:resource="http://purl.org/dc/dcmitype/StillImage" />
        <dc:title></dc:title>
      </cc:Work>
    </rdf:RDF>
  </metadata>
  <g
     inkscape:label="Layer 1"
     inkscape:groupmode="layer"
     id="layer1">
    <g
       transform="matrix(6.954113,0,0,6.954113,-2151.0369,-3564.5717)"
       id="g9999">
      <path
         sodipodi:nodetypes="cssssccc"
         inkscape:connector-curvature="0"
         id="path33342"
         d="m 369.0618,535.12021 c -3.15151,1.57577 -15.06852,8.14335 -20.48483,14.18182 -5.61075,6.25523 -14.5663,14.93753 -14.18184,29.9394 0.29249,11.41316 3.15153,15.75758 6.30303,22.84849 3.15152,7.0909 12.60609,16.54545 18.90909,24.42424 6.30304,7.8788 7.87881,-3.93939 7.87881,-3.93939 l 3.93938,-53.57576 z"
         style="fill:#ffffff;fill-opacity:1;fill-rule:evenodd;stroke:none;stroke-width:1px;stroke-linecap:butt;stroke-linejoin:miter;stroke-opacity:1" />
      <path
         sodipodi:nodetypes="cszcsccszsc"
         inkscape:connector-curvature="0"
         id="path33340"
         d="m 369.0618,524.87779 c 2.20457,5.88518 5.51517,18.12121 9.45454,28.36364 3.9394,10.24241 7.48181,16.36589 5.97668,22.75289 -1.50512,6.387 -7.22609,9.68533 -7.22609,9.68533 0,0 7.41728,3.66901 7.41728,13.12356 0,9.45457 -16.41028,32.43822 -16.41028,32.43822 l -1.57576,10.24243 c -8.70004,-0.33652 -1.57575,-32.30304 -3.15152,-41.75758 -1.57576,-9.45455 -2.02312,-10.63787 -1.18181,-16.34848 0.84131,-5.71062 5.12122,-1.77274 5.90909,-15.95456 0.78787,-14.18181 -3.64516,-38.95968 0.78787,-42.54545 z"
         style="fill:#000000;fill-opacity:1;fill-rule:evenodd;stroke:none;stroke-width:1px;stroke-linecap:butt;stroke-linejoin:miter;stroke-opacity:1" />
      <path
         inkscape:connector-curvature="0"
         id="path33358"
         d="m 339.68237,564.29605 c -0.11005,0.0186 -0.21732,0.0827 -0.30225,0.21009 -1.04465,1.56076 -1.7462,3.28164 -2.38484,5.03875 -0.44805,1.70673 -0.86849,3.42239 -1.00443,5.18802 -0.055,0.69753 -0.0201,1.39903 -0.0627,2.09732 -0.22639,3.71134 -0.28269,0.67174 -0.0719,4.50612 -0.0581,2.47964 0.42295,4.91179 0.85331,7.3388 0.40711,2.29589 0.41342,2.73722 1.11501,4.96501 0.2507,0.79605 0.56516,1.5701 0.84778,2.35535 0.49082,1.27834 1.1646,3.12699 1.77295,4.36789 0.31566,0.64391 0.70134,1.25062 1.04867,1.87801 0.78644,1.42067 0.9705,1.91562 1.94436,3.1718 0.31584,0.40741 0.68179,0.7727 1.02285,1.15923 0.90839,1.05667 1.91907,1.99138 3.06305,2.78108 0.37299,0.25747 0.40541,0.28412 0.51788,0.33358 0.0582,0.14365 0.19796,0.25651 0.41652,0.24512 0.3599,-0.80716 0.5983,-0.66929 0.17877,-0.80723 -0.21175,-0.14752 -0.41531,-0.30606 -0.63214,-0.44601 -0.19381,-0.1252 -0.40887,-0.21647 -0.5916,-0.35753 -0.23464,-0.18109 -0.43387,-0.4064 -0.65426,-0.60451 -1.21131,-1.0896 -0.48054,-0.3236 -1.6329,-1.68818 -0.3276,-0.36847 -0.68104,-0.71694 -0.98416,-1.10579 -2.12938,-2.73172 -3.3654,-6.02798 -4.71253,-9.17811 -0.12044,-0.37342 -1.41645,-4.36974 -1.50204,-4.72543 -0.19514,-0.81165 -0.27663,-1.64693 -0.41836,-2.46961 -0.41244,-2.39417 -0.81728,-4.78912 -0.86805,-7.22637 -0.10341,-2.94136 -0.12464,-1.562 0.0387,-4.43792 0.073,-1.28428 0.11508,-2.64372 0.3428,-3.91637 0.0956,-0.53432 0.64319,-2.54317 0.79985,-3.12939 0.10699,-0.30584 0.6922,-2.00694 0.85331,-2.35719 0.13613,-0.29583 0.32782,-0.56423 0.4847,-0.84962 0.3037,-0.55268 0.52179,-1.16692 0.93994,-1.64579 0.25483,-0.38226 -0.0882,-0.74711 -0.41836,-0.69112 z m 15.01485,14.11179 c -0.36047,0.0117 -0.71697,0.0446 -1.24218,0.0793 -1.36061,-0.0127 -0.71263,-0.0968 -1.94989,0.22484 -0.61231,0.15193 -0.39663,1.01818 0.21564,0.86621 1.08209,-0.32934 0.50343,-0.20575 1.74347,-0.3428 0.4159,0.0127 2.00885,0.0546 2.37746,0.0958 0.44369,0.0495 0.88124,0.1504 1.32143,0.22485 1.28189,0.2167 2.5581,0.44464 3.77445,0.92703 0.46621,0.1458 1.57683,0.48637 2.05862,0.66531 0.82354,0.30586 1.61029,0.70632 2.44565,0.98048 0.55734,0.18579 0.82089,-0.60295 0.26354,-0.7888 -0.13943,-0.0392 -0.28466,-0.0623 -0.41836,-0.11795 -0.17045,-0.0711 -0.3179,-0.189 -0.48838,-0.25986 -0.22741,-0.0946 -0.46894,-0.1498 -0.70034,-0.23407 -0.96102,-0.34982 -1.91352,-0.73506 -2.86586,-1.10764 -1.27821,-0.41473 -2.58479,-0.70658 -3.90714,-0.93624 -0.45438,-0.0789 -0.90689,-0.17619 -1.36566,-0.22299 -0.53807,-0.0549 -0.90197,-0.0651 -1.26245,-0.0534 z m -0.84777,2.08995 c -0.6001,-0.0287 -0.64067,0.82084 -0.0406,0.84962 0.44032,0.002 0.88237,-0.0277 1.32142,0.006 1.44984,0.10962 2.84883,0.53912 4.26838,0.81829 2.74105,0.62976 0.0296,-0.0877 2.52305,0.83856 0.86925,0.32288 1.85297,0.42473 2.62074,0.99337 l 0,0.002 c 0.47735,0.35802 0.98418,-0.31836 0.50682,-0.67638 -0.12038,-0.094 -0.22396,-0.21518 -0.36122,-0.28198 -0.19442,-0.0947 -0.4178,-0.11666 -0.61925,-0.19536 -0.27584,-0.10761 -0.53225,-0.26117 -0.81092,-0.36122 -0.34546,-0.12399 -0.7051,-0.20037 -1.05604,-0.30778 -0.41125,-0.12599 -0.81952,-0.26175 -1.22927,-0.39256 -0.45255,-0.13761 -0.90573,-0.27534 -1.35829,-0.41283 -0.29973,-0.0685 -2.62434,-0.60509 -2.91561,-0.65058 -0.6155,-0.0959 -2.20686,-0.18682 -2.84926,-0.22853 z"
         style="fill:#c60565;fill-opacity:1;fill-rule:nonzero;stroke:none;stroke-width:1px;stroke-linecap:butt;stroke-linejoin:miter;stroke-opacity:1" />
    </g>
  </g>
</svg>
