<?xml version="1.0" encoding="UTF-8" standalone="no"?>
<!-- Created with Inkscape (http://www.inkscape.org/) -->

<svg
   xmlns:dc="http://purl.org/dc/elements/1.1/"
   xmlns:cc="http://creativecommons.org/ns#"
   xmlns:rdf="http://www.w3.org/1999/02/22-rdf-syntax-ns#"
   xmlns:svg="http://www.w3.org/2000/svg"
   xmlns="http://www.w3.org/2000/svg"
   xmlns:sodipodi="http://sodipodi.sourceforge.net/DTD/sodipodi-0.dtd"
   xmlns:inkscape="http://www.inkscape.org/namespaces/inkscape"
   width="210mm"
   height="297mm"
   viewBox="0 0 744.09448819 1052.3622047"
   id="svg8089"
   version="1.1"
   inkscape:version="0.91 r13725"
   sodipodi:docname="body07.svg">
  <defs
     id="defs8091" />
  <sodipodi:namedview
     id="base"
     pagecolor="#ffffff"
     bordercolor="#666666"
     borderopacity="1.0"
     inkscape:pageopacity="0.0"
     inkscape:pageshadow="2"
     inkscape:zoom="0.49497475"
     inkscape:cx="-313.12383"
     inkscape:cy="618.40888"
     inkscape:document-units="px"
     inkscape:current-layer="layer1"
     showgrid="false"
     inkscape:window-width="1366"
     inkscape:window-height="715"
     inkscape:window-x="0"
     inkscape:window-y="0"
     inkscape:window-maximized="1" />
  <metadata
     id="metadata8094">
    <rdf:RDF>
      <cc:Work
         rdf:about="">
        <dc:format>image/svg+xml</dc:format>
        <dc:type
           rdf:resource="http://purl.org/dc/dcmitype/StillImage" />
        <dc:title></dc:title>
      </cc:Work>
    </rdf:RDF>
  </metadata>
  <g
     inkscape:label="Layer 1"
     inkscape:groupmode="layer"
     id="layer1">
    <g
       id="g27243">
      <path
         sodipodi:nodetypes="cccccccccccccccccccccccccccc"
         inkscape:connector-curvature="0"
         id="path31847"
         d="m 237.10152,84.034204 c -15.08997,8.930871 -48.32374,36.732426 -48.73408,85.882816 1.64281,51.12355 9.94245,101.92872 18.83438,152.14304 3.50411,24.89046 13.8065,48.82887 14.70098,73.96157 -18.77405,36.45411 -46.07776,69.63206 -57.35121,109.00997 -24.52899,74.25024 -15.91908,151.6863 -10.08243,226.54911 3.88305,33.28871 11.89832,65.82217 18.42475,98.60672 -11.42728,22.85849 -24.94705,47.39144 -17.90178,72.60427 2.71102,23.00989 21.61114,44.55926 48.37553,43.93301 24.57114,0.90686 50.80894,-1.018 71.6985,-15.54727 43.93089,-27.61646 205.4883,-2.0991 222.41447,-56.25433 21.43403,0.20407 67.27083,1.48456 87.55892,-8.5592 23.05064,-7.20751 26.28814,-34.28055 8.53817,-50.33976 l -26.34377,-1.45814 c 0,0 6.55873,-17.33316 -22.92051,-16.09528 0.005,-16.85976 -28.84461,-7.15447 -28.84461,-7.15447 6.02967,-9.81048 -26.54749,-5.70592 -48.98672,-5.63665 -18.95888,-3.95666 -39.28038,-12.78312 -57.6273,-16.10061 -21.13076,-9.17093 -47.27684,-12.09746 -64.19212,-27.53103 -15.56223,-45.67354 2.1522,-70.91182 21.18152,-115.0695 11.17555,-21.5554 16.34305,-45.01044 25.67219,-66.97931 12.40017,-11.63793 32.75729,-13.93713 43.06257,-28.43576 19.67364,-23.32462 25.75348,-55.55737 12.76808,-81.69641 -6.09037,-11.77642 -5.2244,-24.66667 -1.38396,-37.32072 2.93859,-40.13499 6.85674,-80.11656 9.04808,-120.26635 -0.73856,-44.85673 2.87389,-90.71602 -8.37485,-134.15312 C 442.17889,137.64042 422.46803,90.481663 383.33395,76.728871 333.52844,61.340437 280.09793,60.929597 237.10152,84.034204 Z"
         style="color:#000000;clip-rule:nonzero;display:inline;overflow:visible;visibility:visible;opacity:1;isolation:auto;mix-blend-mode:normal;color-interpolation:sRGB;color-interpolation-filters:linearRGB;solid-color:#000000;solid-opacity:1;fill:#000000;fill-opacity:1;fill-rule:evenodd;stroke:none;stroke-width:1;stroke-linecap:square;stroke-linejoin:round;stroke-miterlimit:4;stroke-dasharray:none;stroke-dashoffset:0;stroke-opacity:1;color-rendering:auto;image-rendering:auto;shape-rendering:auto;text-rendering:auto;enable-background:accumulate" />
      <path
         sodipodi:nodetypes="ccccccccccccccccccccccccccccccccccccccccccccccccccccccccccc"
         inkscape:connector-curvature="0"
         id="path31847-9"
         d="m 220.99579,388.33147 c 0.68344,1.04632 1.32773,2.0162 2.14055,3.363 2.88076,4.77253 2.27552,5.0838 4.83034,10.02539 0.87387,1.6884 1.92215,3.28213 2.88258,4.92275 2.73752,4.02101 4.66099,8.34257 7.71288,12.14947 0.89013,1.11021 1.95583,2.07676 2.78574,3.23279 6.16831,8.59398 -2.25454,-1.52718 4.19317,5.96214 1.51615,1.61366 2.90021,3.28402 4.78439,4.50738 0.71407,0.46385 1.63067,0.57461 2.33661,1.05071 0.65725,0.44304 1.01888,1.24543 1.69136,1.6653 2.40923,0.76906 1.41139,0.25723 3.08674,1.34347 0.53889,0.39015 1.07532,0.77752 1.61389,1.16776 5.66325,2.47031 2.16929,10.47831 -3.49363,8.00795 l -1.69866,-0.0891 c -6.76201,-3.09025 1.54824,0.93118 -4.50589,-2.69054 -0.89907,-0.53822 -1.97636,-0.76168 -2.84067,-1.35472 -2.91827,-2.00259 -4.86385,-5.36423 -8.0497,-7.06171 -2.69647,-3.41625 -5.73098,-6.70273 -8.13512,-10.33571 -0.84799,-1.28176 -1.46251,-2.71491 -2.30816,-3.99823 -6.45685,-9.79603 0.0293,1.46833 -5.76189,-9.01884 -1.35464,-2.84629 -2.77872,-5.66338 -4.18817,-8.48636 1.19661,-2.19018 2.36231,-4.39176 3.50177,-6.60399 -0.0928,-2.59958 -0.30204,-5.18248 -0.57813,-7.75887 z M 395.20047,525.3266 c 2.87983,-0.88265 6.52684,0.95134 6.25771,5.19428 -0.0706,3.95805 -0.89481,8.01407 -0.7441,11.97016 0.0652,1.75252 0.65675,3.46114 0.68557,5.21431 0.006,0.40079 -0.28322,2.96759 -0.55132,5.54808 -3.49104,1.95695 -6.79092,4.13015 -9.65471,6.81795 -0.063,0.15239 -0.1222,0.3065 -0.18835,0.46018 0.19017,-0.82458 0.36188,-1.65124 0.54222,-2.47784 -0.9084,-9.7728 -0.48196,-0.8067 0.22224,-10.43283 0.43038,-5.90128 -0.18129,-11.81712 0.0873,-17.7101 0.16088,-2.54564 1.61479,-4.05448 3.34278,-4.58402 z M 230.54439,807.86722 c 2.86876,-0.69785 6.33124,1.3007 5.82408,5.43676 -1.23169,5.19082 -0.66662,10.54608 -0.7649,15.81042 -0.15346,8.14987 -0.75624,1.3257 0.35024,9.46742 0.25265,6.09659 2.49367,11.47724 5.96244,16.39316 0.80746,1.14409 1.5148,2.38113 2.50038,3.37555 0.90277,0.91049 2.06701,1.51101 3.10207,2.26782 4.15855,2.69137 8.80243,4.20104 13.79311,3.13473 2.78211,-0.59433 5.40386,-1.78868 8.15546,-2.51277 7.09802,-3.22657 12.73093,-8.43523 17.56489,-14.43275 0.23394,-0.52873 0.46401,-1.0552 0.69796,-1.58389 3.79715,-5.69392 11.84934,-0.32818 8.05218,5.3657 l -1.45003,1.74236 c -2.90636,4.12931 -0.56105,1.09204 -4.57757,5.30743 -5.00551,5.25353 -10.05695,10.11056 -17.12493,12.53356 -11.94868,3.70071 -20.08607,4.65327 -31.07037,-2.47554 -1.40814,-1.08265 -2.99761,-1.96394 -4.22316,-3.2497 -2.82159,-2.95932 -7.60686,-10.68019 -8.79672,-14.59432 -1.04254,-3.43509 -0.33137,-7.27502 -2.11293,-10.56218 -0.85339,-6.07969 -0.56225,-9.59313 -0.3228,-15.62377 0.0601,-1.51194 -0.0373,-3.03603 0.12466,-4.54049 0.14762,-1.37245 0.64802,-2.6952 0.80201,-4.06703 0.10765,-0.9608 -0.0127,-1.93452 -0.0205,-2.90089 0.30486,-2.48184 1.81306,-3.87263 3.53446,-4.29158 z"
         style="color:#000000;clip-rule:nonzero;display:inline;overflow:visible;visibility:visible;opacity:1;isolation:auto;mix-blend-mode:normal;color-interpolation:sRGB;color-interpolation-filters:linearRGB;solid-color:#000000;solid-opacity:1;fill:#ff00ff;fill-opacity:1;fill-rule:evenodd;stroke:none;stroke-width:1;stroke-linecap:square;stroke-linejoin:round;stroke-miterlimit:4;stroke-dasharray:none;stroke-dashoffset:0;stroke-opacity:1;color-rendering:auto;image-rendering:auto;shape-rendering:auto;text-rendering:auto;enable-background:accumulate" />
      <path
         id="path31975"
         d="m 231.05432,184.67065 c -1.21756,0.55407 -2.50306,0.98144 -3.65249,1.66682 -2.67431,1.59486 -4.80416,4.17938 -5.89717,7.09495 -0.36332,0.96963 -0.58776,2.81106 -0.7458,3.89658 -0.12202,1.21392 1.59327,1.38811 1.71561,0.17408 -0.0316,-3.06016 1.5014,-5.72626 3.58747,-7.87318 0.71758,-0.7384 1.39038,-1.56545 2.26904,-2.10239 1.03405,-0.63191 2.24501,-0.89565 3.37033,-1.34518 3.65146,-0.56984 5.58589,-1.05855 9.40163,-0.83631 6.05374,0.35273 12.19471,2.20145 17.45161,5.21545 1.87781,1.07683 3.56011,2.47076 5.3396,3.70334 l 4.78509,4.25727 c 0.73367,0.69303 1.71542,-0.34125 0.98177,-1.03419 -1.58252,-1.58847 -3.16954,-3.17836 -4.75271,-4.76666 -1.90453,-1.19353 -3.73764,-2.50646 -5.71354,-3.57775 -3.28949,-1.78329 -8.50549,-3.98207 -12.20343,-4.78669 -5.24244,-1.14058 -10.74684,-0.85256 -15.93701,0.31386 z m 0.0338,21.39286 c -2.78699,0.60975 -5.02764,2.08211 -6.54395,4.87532 -0.47227,1.06826 1.03959,1.73677 1.51222,0.66859 1.7482,-2.83338 4.83201,-4.38674 8.1762,-4.35862 1.14576,0.009 2.27446,0.2971 3.41022,0.44726 4.22259,0.88551 8.42817,2.34121 11.8952,5.00839 0.20655,0.15585 0.37477,0.34915 0.57068,0.51691 -1.27125,-0.44377 -2.52647,-0.94804 -3.82431,-1.30605 -4.37812,-1.20799 -9.60253,-1.55729 -14.04628,-0.46652 -1.09495,0.4941 -0.39228,2.04438 0.70271,1.55045 4.30831,-1.11841 8.74581,-0.66553 13.01131,0.49304 1.34194,0.36457 2.63352,0.88912 3.95184,1.3324 1.13095,0.47068 2.26096,0.94302 3.3919,1.4137 0.0843,0.0452 0.16654,0.0827 0.24403,0.1022 0.0815,0.0346 0.16593,0.0674 0.24725,0.10134 0.92496,0.41598 1.48499,-0.7698 0.73583,-1.28299 -0.0681,-0.12736 -0.13725,-0.25857 -0.27476,-0.37477 -1.28274,-1.15036 -2.48024,-2.40434 -3.85019,-3.44938 -3.7758,-2.88005 -8.02226,-4.50861 -12.65346,-5.40226 -1.23433,-0.0696 -2.46597,-0.24365 -3.70158,-0.20996 -1.0438,0.0283 -2.03239,0.13905 -2.96108,0.34215 z m 13.97369,13.07306 c -1.34726,0.89731 -2.55822,1.83333 -3.77368,2.90084 -0.39858,0.35029 -0.85911,0.63564 -1.20912,1.03416 -0.2723,0.3107 -0.42667,0.70916 -0.64041,1.06415 -0.59603,0.80471 0.54998,1.65027 1.14537,0.84573 1.45333,-1.85756 3.46192,-3.12368 5.33044,-4.51442 0.94331,-0.60251 0.0907,-1.93296 -0.8526,-1.33046 z m 9.79116,-2.11458 c -0.49668,0.13821 -1.01519,0.32283 -1.58909,0.58066 -2.61747,1.17406 -4.18241,3.59187 -5.77648,5.8343 -0.57645,1.23706 1.17594,2.05575 1.75241,0.81878 0.39957,-0.8299 0.90574,-1.99531 1.50129,-2.68068 1.46889,-1.69058 3.65216,-2.96306 5.85544,-3.33774 0.9774,-0.1661 1.97853,-0.10959 2.9683,-0.16374 4.05668,0.3349 7.86008,2.0061 11.21968,4.27214 1.32191,0.89203 2.48791,1.99034 3.73421,2.98592 0.95119,0.7536 2.01811,-0.5904 1.06697,-1.34381 -4.92189,-3.50053 -9.89509,-6.95409 -16.09749,-7.54338 -1.87098,0.16847 -3.14683,0.1594 -4.63518,0.57778 z m -29.31011,16.96442 c -1.18575,0.3135 -0.7435,1.9862 0.44225,1.6727 2.94018,0.0596 5.51465,1.77408 7.83622,3.39715 3.85018,2.69237 2.60436,1.77547 6.22263,4.99906 0.84747,0.75085 1.90594,-0.45053 1.05815,-1.20129 -1.09952,-0.90684 -2.20546,-1.80406 -3.29694,-2.72087 -1.02035,-0.85753 -1.95051,-1.82341 -3.03661,-2.59608 -0.94005,-0.66847 -1.99523,-1.16004 -3.01409,-1.70055 -2.00523,-1.0637 -3.90054,-1.91615 -6.21161,-1.85012 z m 8.22521,-2.12782 c -1.26803,0.14822 -1.0553,1.94167 0.21562,1.79269 6.68044,-0.27213 12.58862,4.09911 17.70846,7.85197 3.83939,3.42802 4.36679,3.95452 5.53514,5.42787 -0.75456,0.12819 -1.49546,0.28206 -2.18765,0.46507 -1.63126,0.43156 -2.17528,0.84931 -3.53236,1.64174 -0.91152,0.71232 0.0911,2.00308 1.00232,1.29091 1.95507,-1.16497 3.93816,-1.70415 5.9379,-1.86375 0.42246,0.54257 0.34149,0.41872 1.01472,1.26094 0.83531,0.97844 2.21959,-0.20226 1.38396,-1.18062 -0.0712,-0.0738 -0.0449,-0.0395 -0.10548,-0.11231 2.66668,0.14029 5.36721,0.81512 8.10533,1.50969 1.3224,0.66714 2.71781,1.20006 3.96684,1.9962 3.80816,2.42663 7.46559,6.1631 9.4148,10.27849 1.14822,2.42775 1.74421,5.93268 2.29934,8.54043 0.17751,1.15343 1.80664,0.89624 1.62819,-0.25687 -0.74634,-3.78698 -0.85401,-5.56219 -2.55921,-9.11945 -3.18004,-6.63931 -7.74139,-10.08422 -14.28992,-13.05623 -1.39011,-0.47116 -2.73103,-1.11328 -4.16712,-1.41572 -1.85883,-0.39139 -3.97286,-0.40611 -6.03784,-0.20661 -2.1058,-2.23228 -2.12891,-2.25975 -6.44996,-6.48818 -2.94266,-2.28765 -4.85279,-4.0339 -8.18921,-5.66769 -1.17125,-0.57363 -2.44837,-0.90146 -3.67461,-1.34563 -2.33588,-0.84598 -4.49081,-1.65117 -7.01921,-1.34275 z m 42.76469,-7.5471 c -0.62817,0.18675 -0.91558,1.1204 -0.13848,1.57248 2.33603,0.81401 0.92211,0.14592 3.33786,1.91545 0.8263,0.60565 1.71153,1.1293 2.50089,1.78281 2.97748,2.46494 4.99067,5.42309 7.0647,8.63606 1.41922,3.74458 2.52472,7.64971 1.9996,11.70478 -0.16906,1.30571 -0.65254,2.54913 -0.97873,3.82465 -0.2614,1.20006 1.43957,1.57153 1.701,0.37159 0.29488,-1.38745 0.75848,-2.75296 0.88186,-4.1663 0.37253,-4.27782 -0.63117,-8.63044 -2.35175,-12.50643 -0.63582,-1.23231 -1.11131,-2.56172 -1.91204,-3.69471 -0.76688,-1.08571 -1.81035,-1.94599 -2.74174,-2.89438 -2.51972,-2.56533 -5.35221,-4.94312 -8.64795,-6.44127 -0.26018,-0.15029 -0.50596,-0.1666 -0.71522,-0.10473 z m -56.49919,30.86403 c -1.05085,0.27783 -0.65812,1.76325 0.39273,1.48542 4.79989,-0.10988 8.77453,1.97317 12.89824,4.18231 1.00516,0.51344 1.73049,-0.90701 0.72597,-1.42062 -2.70814,-1.40326 -5.5524,-3.01255 -8.54618,-3.91062 2.36549,-1.16435 5.28262,-0.92359 7.81694,-0.6911 1.50705,0.13829 3.028,0.22756 4.50659,0.55135 1.7711,0.38788 3.46927,1.04971 5.20417,1.57558 1.31101,0.36872 1.83093,-1.47818 0.52024,-1.84702 -6.38894,-1.41992 -13.79954,-3.87433 -19.94841,-0.36176 -0.0868,0.0887 -0.0685,0.1838 -0.11595,0.27797 -1.34048,-0.20398 -2.14773,-0.0418 -3.45653,0.15931 z m 29.08029,-3.58848 c -1.09638,0.44178 -0.46591,1.99779 0.63178,1.55577 0.47044,-0.10716 0.92806,-0.2967 1.40949,-0.32581 7.05951,-0.4265 13.7438,5.1813 18.90869,9.18403 l 5.0207,5.25005 c 0.81622,0.82415 1.98589,-0.33319 1.16968,-1.1573 -1.72676,-1.78877 -3.45815,-3.57814 -5.18523,-5.36682 -5.07553,-4.13116 -4.3797,-4.00467 -9.8706,-6.89925 -1.34968,-0.71173 -2.68954,-1.4749 -4.14447,-1.9359 -2.46144,-0.78023 -5.41845,-0.67935 -7.94002,-0.30467 z m 5.55861,11.32469 c -1.19251,0.31528 -0.74696,2.00047 0.44555,1.68519 1.09318,0.26923 2.25062,0.0167 3.34172,0.26503 2.64244,0.60104 7.34929,3.31426 9.44433,4.88179 1.18895,0.88939 2.21479,1.97874 3.32199,2.96804 3.82044,4.13417 2.17773,1.9389 4.98937,6.52038 0.6322,0.98279 2.02019,0.0949 1.38801,-0.88782 -3.07924,-4.81059 -1.32305,-2.49879 -5.30004,-6.91239 -2.32693,-1.91434 -4.55932,-3.91536 -7.18556,-5.43225 -1.10295,-0.63708 -2.30351,-1.07533 -3.46682,-1.59418 -2.47817,-1.10535 -4.23937,-1.90004 -6.97855,-1.49379 z m 34.00873,-3.08184 c -0.61336,0.18283 -0.89336,1.0963 -0.13419,1.53793 2.64091,2.23681 4.99101,5.07912 6.68454,8.1089 1.38404,2.47801 1.95265,4.43847 2.89433,7.1077 0.21739,1.33034 0.43884,2.66302 0.65526,3.99361 0.17438,1.12857 1.77031,0.87344 1.59526,-0.25505 -0.20684,-1.43375 -0.41898,-2.86151 -0.62775,-4.29471 -0.43373,-1.31479 -0.75446,-2.67119 -1.30409,-3.94228 -0.51885,-1.20682 -1.24042,-2.31789 -1.88965,-3.4602 -2.07183,-3.64634 -1.37747,-2.58478 -3.94152,-5.5888 -2.08724,-2.44479 -1.01582,-1.48791 -3.23023,-3.09911 l 0,0 c -0.25247,-0.14716 -0.49212,-0.17026 -0.69655,-0.10966 z m -48.34818,13.73097 c -0.71348,-0.0239 -1.32617,0.84027 -0.67859,1.57508 2.03683,2.2945 0.88304,1.04822 3.47126,3.7098 0.76865,0.84486 1.96421,-0.23927 1.19591,-1.08411 -2.52107,-2.69033 -1.45291,-1.38879 -3.28698,-3.84533 -0.21631,-0.2449 -0.46385,-0.34734 -0.7016,-0.35544 z m -14.12122,7.33281 c -1.10358,0.12919 -0.91743,1.69575 0.19006,1.5657 3.92247,0.66889 6.04882,2.02523 9.3322,4.25704 5.15231,3.50174 3.02138,1.95352 8.16147,6.14252 l 4.19594,4.09916 c 0.86147,0.85721 2.06787,-0.36313 1.20605,-1.22034 -1.41103,-1.41801 -2.81743,-2.83283 -4.22879,-4.25076 -1.4031,-1.23819 -2.7351,-2.5605 -4.20749,-3.71551 -3.14171,-2.46465 -4.34305,-2.96969 -7.74841,-4.65577 -2.22344,-1.10081 -4.35381,-2.19612 -6.89169,-2.22451 l 0,0 z m 16.39021,5.66968 c -0.54859,0.0982 -0.87396,0.86218 -0.25935,1.31726 2.25226,1.6736 0.30915,0.127 2.93958,2.70853 1.20195,1.1796 4.29329,3.92799 5.33452,5.04689 2.46283,2.64592 3.6051,4.44404 5.73094,7.40612 1.70387,2.94772 3.31961,5.48003 4.55001,8.67325 0.55992,1.4273 0.87683,2.93862 1.31334,4.40723 0.3359,1.049 1.8196,0.57654 1.48441,-0.47238 -0.46794,-1.52233 -0.81649,-3.08819 -1.40462,-4.57006 -1.30312,-3.38232 -2.8457,-5.84373 -4.62029,-8.98859 -3.99973,-5.56796 -1.67712,-2.57034 -5.90221,-7.5745 -0.88757,-1.05102 -1.66837,-2.192 -2.64532,-3.16027 -0.80513,-0.79784 -1.79567,-1.38108 -2.66699,-2.10616 -2.91944,-2.43172 -0.74191,-0.97562 -3.26,-2.53033 -0.20544,-0.15167 -0.41265,-0.18886 -0.59557,-0.15634 z m 25.26518,-1.77849 c -0.69176,0.0296 -1.22473,0.91648 -0.54379,1.57943 3.61258,4.52835 6.17552,9.79901 8.59336,15.04983 -0.53417,-0.37363 -1.05308,-0.76638 -1.60907,-1.11044 -1.097,-0.47652 -1.78183,1.07107 -0.68387,1.5564 1.22279,0.61741 2.34889,1.40462 3.42862,2.25872 1.25896,3.45241 0.98313,2.61108 2.57205,7.83394 0.33831,1.08415 1.8758,0.59757 1.53464,-0.48566 -1.1432,-3.50313 -1.40393,-4.3199 -1.74961,-5.25344 1.48842,1.51005 2.82698,3.179 3.99314,4.9007 0.72412,1.06989 1.3333,2.21056 1.99908,3.31777 0.87777,2.4601 1.82618,4.72099 2.21299,7.3279 0.17714,1.20417 0.11798,2.43044 0.17624,3.64616 0.0444,1.02779 1.4968,0.97113 1.45399,-0.0572 0.0199,-1.33036 0.20977,-2.6734 0.0583,-3.99531 -0.32864,-2.86762 -1.44142,-5.10007 -2.50469,-7.73157 -0.71221,-1.15774 -1.35856,-2.35951 -2.13419,-3.4757 -1.81678,-2.61392 -3.993,-4.93278 -6.41991,-6.95687 -0.1609,-0.41315 -0.10693,-0.27417 -0.31779,-0.82414 -2.55921,-6.04345 -5.42539,-11.99336 -9.3518,-17.28658 -0.22722,-0.221 -0.47483,-0.3042 -0.70573,-0.2942 z m -27.95286,10.20174 c -0.66819,0.0823 -1.1159,0.98677 -0.40449,1.57605 2.13535,1.7734 0.91133,0.62368 3.16262,3.22381 0.76337,0.88225 1.6227,1.68708 2.30001,2.63723 0.81595,1.14495 1.4531,2.40702 2.15958,3.62258 2.67518,4.60341 2.05154,3.55264 4.46368,8.4223 0.47929,1.56529 0.95834,3.12964 1.43763,4.69493 0.40993,1.22476 2.13972,0.64731 1.7304,-0.57772 -0.60964,-1.57626 -1.211,-3.15766 -1.81967,-4.73414 -0.66894,-1.53998 -1.25499,-3.1182 -2.01501,-4.61571 -1.2337,-2.43185 -3.266,-5.43231 -4.81402,-7.70197 -1.59374,-2.33707 -3.18776,-4.61004 -5.48924,-6.31475 -0.23786,-0.19614 -0.48642,-0.26073 -0.70923,-0.2332 z m 18.90036,-0.0155 c -0.58234,0.17119 -0.84878,1.03819 -0.12919,1.45649 3.09878,2.56025 5.6154,5.65194 7.99929,8.86307 0.9006,1.21367 1.8668,2.37841 2.68151,3.65155 0.86236,1.34782 1.56555,2.79714 2.3446,4.19468 2.92839,5.64709 1.72298,2.7464 3.63433,8.69497 0.44997,1.2199 2.1707,0.58473 1.7217,-0.63536 -2.42016,-5.9501 -1.10078,-2.99094 -3.96239,-8.87531 -0.8063,-1.42764 -1.55456,-2.8872 -2.41448,-4.2831 -3.00896,-4.88355 -6.84372,-9.26597 -11.21497,-12.96768 -0.24008,-0.13941 -0.46681,-0.15662 -0.66038,-0.0992 z m -19.95851,15.58708 c -0.64251,0.0583 -1.09512,0.91032 -0.43239,1.49659 5.01492,4.9624 7.77338,11.66698 10.38502,18.08852 0.39639,1.3299 0.76387,2.66771 1.15128,4.00274 -3.13126,-5.13374 -6.29022,-10.25107 -9.32964,-15.43609 -0.57092,-1.03895 -2.04097,-0.22956 -1.46877,0.80901 0.26666,0.52654 0.49706,1.07228 0.80411,1.57699 0.46558,0.77081 1.02543,1.47866 1.50692,2.23926 0.93766,1.47762 2.92821,4.92468 3.79786,6.30791 4.12034,6.55435 0.64106,0.50557 4.51701,7.48664 1.2281,2.44845 1.55933,3.04593 1.84581,3.67219 0.21468,1.20282 0.37685,2.41552 0.46256,3.64386 0.0942,1.35943 -0.007,2.7202 -0.009,4.08255 -0.0193,1.0473 1.46323,1.07604 1.4832,0.0285 0.011,-1.01352 0.0305,-2.02782 0.0374,-3.04151 0.69008,0.55028 1.8423,-0.12713 1.39057,-1.15563 -1.16877,-2.45725 -1.43667,-3.11223 -1.73079,-3.74263 -0.54035,-3.78825 -1.60893,-7.47559 -3.13821,-11.00975 -2.65833,-6.73756 -5.43016,-13.55524 -10.60122,-18.80597 -0.22363,-0.1944 -0.45793,-0.26241 -0.67188,-0.24305 z m 53.15945,-9.7277 c -0.35085,0.22985 -0.53581,0.70154 -0.21074,1.19755 2.60925,3.74172 3.47208,8.72622 4.20948,13.14384 -0.0515,1.02971 -0.1045,2.0632 -0.15701,3.09316 -0.0201,1.20091 1.68176,1.22511 1.70246,0.024 -0.0419,-1.09639 -0.0899,-2.1876 -0.13373,-3.28345 -0.28053,-2.07724 -0.35146,-4.19033 -0.82008,-6.23378 -0.20535,-0.90699 -0.58728,-1.76528 -0.91082,-2.63723 -0.64517,-1.74973 -1.31469,-3.54983 -2.49022,-5.02428 -0.32733,-0.49545 -0.83883,-0.50971 -1.18934,-0.27984 z m -13.4216,17.95884 c -0.56666,0.22526 -0.74964,1.12004 0.009,1.4734 2.17391,1.50755 4.27748,3.15945 6.218,4.98023 -0.78041,-0.16234 -1.56323,0.73709 -0.89306,1.57168 0.50337,0.50595 1.07012,0.95457 1.50964,1.51736 1.34928,1.73294 2.73745,4.45721 3.70698,6.31853 2.78649,5.34752 1.98523,3.78779 4.36478,9.66376 0.48064,1.17951 2.14885,0.49816 1.66947,-0.68182 -0.71819,-1.77835 -1.34106,-3.59615 -2.15158,-5.33417 -1.98963,-4.2657 -4.75299,-8.13428 -7.23671,-12.11644 1.04722,1.05686 2.05234,2.15644 2.93771,3.35678 0.78723,1.06756 1.45009,2.22105 2.1762,3.33105 2.23438,3.53288 3.47637,7.29892 4.6225,11.27171 0.27919,1.056 1.77378,0.64686 1.49463,-0.40895 -0.3356,-1.39963 -0.59245,-2.82711 -1.07175,-4.18396 -0.34641,-0.9845 -3.12545,-6.76376 -3.57386,-7.70934 -3.44701,-4.72027 -1.21728,-1.97366 -5.10255,-6.08986 -2.41112,-2.55457 -4.83261,-5.26691 -7.98689,-6.92316 l -0.0322,0.009 c -0.2549,-0.11724 -0.48342,-0.11779 -0.67231,-0.0427 z m -66.02343,28.76119 c -0.21855,0.0853 -0.4406,0.18745 -0.66053,0.25456 -0.93188,0.42687 -0.33225,1.7516 0.60301,1.32969 0.76059,0.2633 1.59636,0.18687 2.35823,0.43154 3.76616,1.20985 6.521,4.62022 9.21206,7.31378 0.79075,0.88938 2.04993,-0.23162 1.25954,-1.12095 -2.942,-3.1333 -5.99412,-6.42386 -10.16421,-7.8834 -0.62636,-0.2194 -1.27192,-0.46189 -1.93543,-0.47657 -0.23222,-0.005 -0.45526,0.0656 -0.67486,0.15087 z m 58.54374,-10.73057 c -0.562,0.33149 -0.60855,1.30714 0.24967,1.55666 5.99871,2.97047 10.06928,8.85582 13.85667,14.1457 l 2.72211,4.76264 c 0.52903,0.9196 1.82756,0.1689 1.29725,-0.75034 l -2.64355,-4.99708 c -1.01485,-1.49333 -1.92637,-3.0649 -3.04192,-4.48446 -0.98673,-1.25538 -2.13089,-2.37665 -3.24215,-3.52333 -2.51495,-2.59549 -5.13897,-5.27654 -8.48295,-6.77868 -0.28401,-0.084 -0.52899,-0.0413 -0.71643,0.0692 z m -3.90774,12.59885 c -0.4893,0.20652 -1.08484,0.24962 -1.46472,0.62114 -1.27482,1.24687 1.50227,3.99354 2.08741,5.01722 0.67596,0.9099 1.96584,-0.0455 1.29022,-0.95543 -0.50591,-1.0015 -1.56405,-1.74271 -2.04753,-2.74404 -0.71553,-1.48168 0.13326,-0.56432 0.32939,-0.29411 3.91541,1.40304 6.54204,3.63926 9.43403,6.5873 1.16798,1.19055 2.3743,2.35539 3.42865,3.64767 1.16847,1.43208 2.15339,3.00508 3.22844,4.50855 l 2.79713,5.22359 c 0.59085,1.08828 2.13395,0.25293 1.54182,-0.835 -0.99602,-1.78301 -1.99308,-3.56344 -2.9891,-5.34645 -2.31699,-3.005 -4.25266,-5.72075 -6.91442,-8.42207 -1.04581,-1.06064 -2.20743,-2.00562 -3.34295,-2.96914 -0.93386,-0.79229 -1.82298,-1.65765 -2.86519,-2.30083 -0.67396,-0.41635 -3.59096,-1.41095 -4.51314,-1.73824 z m -5.56797,2.78091 c -0.59725,0.2516 -0.7734,1.20606 0.0398,1.56541 1.72794,0.8878 2.88975,2.21263 4.07879,3.70948 0.54569,0.68687 1.19411,1.3154 1.61947,2.08261 0.84062,1.50661 1.53092,4.3794 1.98614,5.9722 0.5078,4.58362 0.386,2.25468 0.34631,6.96673 -0.0209,1.17152 1.63353,1.20817 1.65866,0.0356 -0.0523,-1.9343 -0.0589,-2.34896 -0.0798,-2.90371 0.11557,0.12445 0.25097,0.24572 0.47508,0.28171 2.51163,0.87622 4.62398,1.89559 6.60672,3.14129 -1.228,1.84084 -2.07037,3.99898 -2.52876,6.0708 -0.29643,1.34377 -0.37609,2.72444 -0.56148,4.08824 -0.096,1.35906 1.82992,1.49757 1.92629,0.13843 0.0459,-1.25023 -0.0898,-2.52464 0.1359,-3.75538 0.19628,-1.07245 0.67335,-2.07305 1.111,-3.0716 0.3902,-0.89008 0.85855,-1.68784 1.38571,-2.43645 1.48219,1.05136 2.93821,2.2044 4.45024,3.59791 1.2884,1.18737 2.5593,2.39197 3.7609,3.66663 0.0697,0.26231 0.1636,0.48849 0.20462,0.77394 0.31741,1.38292 0.38003,2.81057 0.56729,4.21718 0.20294,1.17144 1.85809,0.88756 1.65449,-0.2838 -0.10329,-0.71638 -0.17128,-1.44257 -0.25818,-2.16207 0.85771,1.0892 1.69522,2.19844 2.55739,3.28369 0.69663,0.88515 1.95184,-0.10108 1.2552,-0.98626 -1.61714,-1.99955 -2.99521,-3.77363 -4.46167,-5.48465 -0.69694,-2.4015 -1.92614,-5.2502 -2.80089,-7.3862 -0.7073,-1.20953 -1.3469,-2.46785 -2.12835,-3.63081 -0.7131,-1.0608 -1.55688,-2.02175 -2.34879,-3.02497 -0.7176,-0.90843 -1.37378,-1.87768 -2.17921,-2.70926 -1.52001,-1.56959 -3.4925,-2.90681 -5.38992,-3.9705 -1.08636,-0.48053 -1.76295,1.05389 -0.67626,1.53438 2.86668,1.44659 5.05647,3.74378 7.03973,6.21871 0.6065,0.75659 1.21933,1.51633 1.77852,2.30765 -0.20719,-0.3016 -0.58371,-0.49583 -1.04314,-0.25842 -0.55612,0.36025 -1.17773,0.63172 -1.66415,1.08105 -0.31178,0.28773 -0.56728,0.63984 -0.84643,0.96503 -2.24867,-1.5428 -4.59812,-2.9039 -7.31144,-3.48251 -0.37351,-0.0604 -0.60408,0.1046 -0.76262,0.32184 -0.051,-0.59663 -0.15197,-1.1741 -0.46607,-3.52946 -0.30216,-1.14286 -0.50296,-2.31924 -0.87539,-3.44126 -1.08047,-3.25283 -3.36279,-6.73384 -6.17591,-8.78427 -0.4137,-0.30098 -0.91271,-0.4569 -1.36981,-0.68623 l 0,0 c -0.27269,-0.11942 -0.51673,-0.11483 -0.71568,-0.0309 z m -9.30337,3.48142 c -0.63452,0.0272 -1.12315,0.83947 -0.49879,1.44735 0.57937,0.7009 1.3063,1.52348 1.70829,2.31957 0.35115,0.68973 0.55343,1.4418 0.82413,2.16602 0.73472,1.91903 1.30973,3.307 1.64647,5.36755 0.17081,1.04993 0.17789,2.12159 0.26661,3.18152 0.10939,1.0782 1.63048,0.9165 1.51979,-0.16138 -0.39187,-3.07814 -0.65377,-6.21841 -1.86267,-9.11667 -0.31141,-0.74791 -0.7601,-1.42745 -1.14065,-2.14241 -1.12785,-2.11097 -0.51619,-1.23584 -1.81339,-2.79262 -0.20846,-0.20219 -0.44052,-0.27738 -0.65203,-0.26831 z m -5.3522,8.37316 c -0.59315,0.11859 -0.93127,0.95552 -0.25444,1.43618 1.79612,1.78923 3.43756,3.71654 5.02369,5.68998 -0.99162,-0.31892 -1.70698,1.04543 -0.6811,1.64247 1.27053,1.14452 2.73106,2.13482 3.89021,3.39877 0.65261,0.71212 1.17617,1.52894 1.78447,2.27934 2.75136,3.3933 2.03612,2.37002 3.50513,4.66915 0.19668,0.30093 0.53964,0.86851 0.67046,1.07146 1.90518,3.42644 1.19544,1.93668 2.85883,5.98855 0.40024,1.0057 1.82599,0.44174 1.42671,-0.56425 -0.0618,-0.10353 -0.0169,-0.0641 -0.0767,-0.15987 0.36093,-0.20738 0.57222,-0.66805 0.27086,-1.17339 -3.35227,-5.44333 -1.68703,-2.69121 -4.99542,-8.2617 -4.15894,-6.12712 -1.08704,-1.79636 -5.38166,-7.3983 -1.93252,-2.52145 -3.8284,-5.16095 -6.09278,-7.41062 -0.39351,-0.39401 -0.86943,-0.69451 -1.30457,-1.044 -0.22816,-0.15944 -0.45247,-0.20141 -0.65049,-0.16214 z m 38.19548,-8.16201 c -0.57037,-0.0194 -1.064,0.67888 -0.54664,1.26639 3.57483,4.81681 7.55618,9.35244 10.90243,14.33913 0.96111,1.43211 1.81599,2.92882 2.7247,4.39465 1.04389,2.36665 3.26675,7.17834 3.93619,9.71032 0.43544,1.64698 0.52053,3.36544 0.78097,5.04883 0.19373,1.20177 1.89111,0.92647 1.69645,-0.27492 -0.28263,-1.77249 -0.42478,-3.5739 -0.85161,-5.31729 -1.08855,-4.28655 -2.26893,-6.05684 -4.26044,-9.95179 -0.91346,-1.51243 -1.76069,-3.06751 -2.74201,-4.53699 -0.91667,-1.37345 -1.98366,-2.64189 -2.94923,-3.98143 -0.8739,-1.21168 -1.66827,-2.48216 -2.56751,-3.67501 -1.74897,-2.31969 -3.7301,-4.47388 -5.55883,-6.7304 -0.17235,-0.1959 -0.375,-0.28489 -0.56447,-0.29149 z m -2.21923,14.26253 c 0.11579,0.16435 0.24273,0.31876 0.3464,0.48938 0.71416,1.13906 1.23392,2.38319 1.85393,3.57653 0.59291,1.2915 1.12449,2.37836 1.60993,3.48744 -0.46142,-0.45538 -0.89604,-0.90717 -1.41104,-1.36981 -1.366,-1.22814 -2.89353,-2.26599 -4.38258,-3.342 -0.0555,-0.0404 -0.1162,-0.0747 -0.17167,-0.11513 0.53157,-0.58992 1.10217,-1.15206 1.7625,-1.66793 0.48371,-0.24983 0.5459,-0.70642 0.38797,-1.05751 z m 16.72429,18.12198 c -0.18767,-0.0324 -0.39636,0.0121 -0.60357,0.16647 -1.8116,1.36626 -3.37546,3.4025 -4.34253,5.44856 -0.58735,1.24271 -0.92434,2.58945 -1.3834,3.88483 -0.43473,1.08648 1.10396,1.70143 1.53835,0.61497 0.74122,-1.87757 1.63702,-4.52933 2.83104,-6.26421 0.39524,-0.574 0.99684,-0.97982 1.45942,-1.50104 0.28182,-0.3177 0.51098,-0.673 0.7678,-1.01099 0.62178,-0.46235 0.28918,-1.23962 -0.26769,-1.33819 z m -15.95205,8.21079 c -0.8255,0.22859 -0.8548,1.53655 0.19229,1.66531 3.55102,0.94725 6.66141,3.01072 9.09277,5.77605 0.77714,0.88346 1.41108,1.88459 2.1164,2.82604 2.20448,3.27259 3.78131,6.81202 4.24793,10.76309 0.15128,1.30176 0.0679,2.6164 0.10312,3.92589 0.0566,1.24314 1.81418,1.16578 1.756,-0.077 -0.0792,-1.40707 -0.0381,-2.82944 -0.2294,-4.22638 -0.57499,-4.16809 -2.12003,-8.01856 -4.62741,-11.3906 -3.48303,-4.19988 -6.75799,-7.91246 -12.25199,-9.28793 -0.1496,-0.0187 -0.28087,-0.007 -0.40029,0.0259 z m 11.47737,10.98185 c -0.19766,-0.018 -0.41194,0.0431 -0.61549,0.22301 -1.9605,1.79065 -0.85501,0.55604 -2.57234,3.40454 -2.7758,4.60487 -1.34047,1.64085 -3.51061,7.30534 -0.40029,1.00173 1.01678,1.56186 1.41677,0.56028 1.49421,-3.59337 2.94768,-7.25354 5.68539,-10.1173 0.61161,-0.53864 0.18781,-1.32077 -0.40497,-1.37537 z m -95.72824,37.26256 c -4.39563,1.09431 -7.76948,4.84424 -10.09646,8.51236 -1.00232,1.58052 -1.76275,3.30076 -2.64357,4.95259 -0.55126,1.00789 0.87615,1.78563 1.42776,0.77775 2.85563,-4.99867 6.02314,-11.93018 12.49231,-12.78511 1.09257,0.13403 1.28027,-1.40472 0.1877,-1.53875 -0.45592,0.0279 -0.92494,-0.029 -1.36772,0.0812 z m 84.92302,-20.49623 c -0.65279,0.0806 -1.09038,0.95822 -0.39605,1.53372 1.93102,1.32366 2.77743,3.40068 3.95053,5.31932 0.54747,0.89814 1.24599,1.70573 1.75015,2.62899 1.5972,2.91688 1.43852,3.26905 2.14822,6.48361 l 0.61943,3.24183 c 0.19714,1.22768 1.9339,0.94892 1.73573,-0.27876 -0.22975,-1.15563 -0.45715,-2.31537 -0.68692,-3.47103 -0.76066,-2.64255 -1.10552,-4.33776 -2.39033,-6.79354 -0.50416,-0.96883 -1.21509,-1.82078 -1.78316,-2.75384 -0.51147,-0.84013 -0.87138,-1.77411 -1.45343,-2.56724 -0.8271,-1.12715 -2.14503,-1.83994 -2.80116,-3.1191 -0.2332,-0.19152 -0.4762,-0.25076 -0.69337,-0.224 z m 37.62918,-3.91222 c -0.34513,0.0913 -0.62883,0.42529 -0.49977,0.91343 1.04233,4.97163 0.46328,10.08128 -0.3029,15.04466 -0.14345,1.22148 1.58685,1.42505 1.72966,0.20378 0.54262,-5.14711 1.56441,-10.56379 -0.0411,-15.6148 -0.12903,-0.48805 -0.54078,-0.63832 -0.88591,-0.54707 z m -98.34668,33.32061 c -0.64965,0.40909 -1.34081,0.76536 -1.95187,1.23052 -4.60694,3.50526 -9.92788,9.46006 -12.84674,14.3746 -1.05904,1.78289 -1.82409,3.72278 -2.73679,5.58493 -0.53758,0.97237 0.83914,1.73685 1.37704,0.7644 0.92379,-1.79809 1.72288,-3.66782 2.76631,-5.39902 2.1973,-3.6453 4.00639,-5.53701 6.75241,-8.68329 2.34953,-2.69169 4.15521,-4.81387 7.381,-6.43216 1.01946,-0.52684 0.27862,-1.96745 -0.74136,-1.43998 z m -40.35817,17.28115 c -3.78935,0.88337 -5.94449,2.68309 -8.74321,5.29651 -3.62274,3.38313 -2.62898,2.45163 -6.10128,6.19398 -0.79845,0.9172 0.49732,2.0504 1.29448,1.1335 0.9277,-1.12794 1.77948,-2.32678 2.78398,-3.38706 3.08076,-3.25207 6.94535,-6.16342 11.15711,-7.75776 1.04699,-0.27681 0.65591,-1.75598 -0.39108,-1.47917 z m 15.56376,-1.72431 c -3.92622,1.47183 -6.42553,4.5155 -9.01663,7.64586 -0.64594,0.77747 0.44696,1.69054 1.10224,0.9106 0.0398,-0.045 4.36484,-4.7558 4.72077,-5.02768 1.08821,-0.83092 2.60294,-0.96065 3.61275,-1.94349 1.11846,-0.29571 0.69933,-1.881 -0.41913,-1.58529 z m 33.28249,-3.88482 c -1.84156,0.60676 -3.45361,1.65034 -5.11755,2.76868 -1.12282,0.75474 -2.29354,1.4482 -3.33547,2.31087 -2.77461,2.29686 -4.20458,4.22065 -6.541,6.95799 -0.72094,0.83647 0.45577,1.85417 1.18348,1.01595 4.27479,-4.90488 9.10842,-10.29779 15.70904,-11.85933 1.16315,0.0231 1.19574,-1.62153 0.0326,-1.64462 -0.67534,0.0917 -1.31741,0.24807 -1.93115,0.4503 z m -34.81859,13.85999 c -2.17968,0.81706 -3.81844,2.55045 -5.53252,4.05368 -0.78697,0.65706 0.14818,1.77208 0.93578,1.11481 0.7406,-0.57058 1.48818,-1.13039 2.21786,-1.71489 2.23516,-1.79018 0.86012,-1.10477 3.0338,-1.9106 1.09295,-0.46257 0.43897,-2.00589 -0.65589,-1.54274 z m -18.20326,6.86948 c -0.21178,0.007 -0.43224,0.1005 -0.62364,0.31851 -1.07771,1.18855 -2.06189,2.439 -3.00318,3.71883 -2.67347,1.15897 -4.61759,3.3829 -6.52635,5.59854 -0.74245,0.86843 0.47383,1.92245 1.23239,1.04979 0.8568,-0.9792 1.75046,-1.94538 2.71323,-2.82085 -0.56042,0.87294 -1.14242,1.72679 -1.68581,2.61596 -0.8216,1.34556 -1.70654,2.65479 -2.46498,4.03728 -0.78866,1.43761 -1.44709,2.94301 -2.17184,4.41384 -0.55661,1.18962 1.11983,1.97514 1.67675,0.78539 2.70042,-6.1303 0.95745,-2.71566 4.39126,-8.31943 0.44882,-0.73221 2.38941,-3.99219 3.46743,-5.65121 0.43383,-0.1922 0.85095,-0.41374 1.3269,-0.53786 0.87989,-0.23263 0.85757,-1.20299 0.31676,-1.57955 0.6854,-0.71161 1.38674,-1.40855 1.94938,-2.22487 0.57543,-0.6507 0.0347,-1.4244 -0.59862,-1.40429 z m 65.15356,-12.45145 c -2.52237,1.40478 -5.15978,2.75225 -7.49384,4.46538 -1.08925,0.79968 -2.07503,1.73269 -3.11219,2.59909 -0.8946,0.76458 0.18751,2.02767 1.08211,1.2631 0.97687,-0.85863 1.89129,-1.79578 2.93077,-2.57782 2.19812,-1.65405 4.75506,-2.91376 7.16349,-4.22445 1.07638,-0.40274 0.50634,-1.92825 -0.57195,-1.52488 z m 57.84731,-12.20253 c -0.40102,0.0375 -0.77601,0.35846 -0.72348,0.92584 0.0839,3.5772 -0.79677,6.94916 -1.72491,10.37234 -0.2576,1.23009 1.4821,1.59821 1.74,0.36796 0.78242,-3.57565 1.5943,-7.21058 1.58826,-10.89047 -0.0535,-0.56726 -0.47691,-0.81366 -0.87987,-0.77567 z m -24.31071,19.22853 c -0.6444,-0.0218 -1.2013,0.76799 -0.61659,1.43179 1.5025,1.93855 2.53933,4.16514 3.59826,6.36068 0.61023,1.26578 1.2794,2.50698 1.80826,3.80895 0.59313,1.46171 1.03601,2.98048 1.55558,4.47008 0.35922,1.01993 1.80046,0.51198 1.44192,-0.50799 -0.96298,-2.88663 -1.83814,-5.84499 -3.16196,-8.59946 -0.50818,-1.06219 -1.18197,-2.03556 -1.76374,-3.05951 -1.66259,-2.92446 -0.6753,-1.4598 -2.228,-3.57777 -0.19619,-0.22093 -0.41858,-0.31945 -0.6337,-0.32664 z m 22.70059,-5.9219 c -0.43937,-0.009 -0.88212,0.28937 -0.89449,0.91094 0.23381,3.90821 -0.14194,7.84298 -0.54452,11.72966 -0.10572,1.1401 1.50848,1.2876 1.61484,0.14733 0.32731,-3.94339 0.70413,-7.88061 0.68863,-11.84124 0.0146,-0.62207 -0.42698,-0.93746 -0.86446,-0.94669 z m -46.50527,12.34238 c -0.59202,0.36389 -1.16945,0.75037 -1.77503,1.09032 -0.83197,0.46729 -1.72914,0.8131 -2.53463,1.32453 -3.40682,2.16348 -6.24622,5.01912 -9.06526,7.86578 -0.88009,0.9185 0.42377,2.16302 1.30385,1.24452 0.93551,-1.04241 1.78287,-2.16937 2.80621,-3.12581 0.95754,-0.89523 2.08666,-1.58579 3.11046,-2.40498 2.08653,-1.66963 4.02184,-3.43568 6.58509,-4.36535 1.15291,-0.30482 0.72222,-1.93383 -0.43069,-1.62901 z m 40.18182,-6.68385 c -0.36819,0.0288 -0.71976,0.31981 -0.67951,0.84073 -0.16867,3.57411 -0.36827,6.95957 -0.76106,10.53151 -0.12843,1.25095 1.6356,1.43228 1.76402,0.18133 0.2947,-3.58859 0.89203,-7.23765 0.47383,-10.83619 -0.0412,-0.52051 -0.43141,-0.74581 -0.79728,-0.71738 z m -90.60345,25.63072 c -0.82673,0.13798 -1.59436,0.5073 -2.37882,0.80254 -3.20103,1.20515 -2.46618,0.96067 -5.50288,2.87728 -0.98086,0.62721 -0.0931,2.01515 0.88778,1.38794 3.02047,-1.83205 6.23133,-3.81038 9.9239,-3.30491 1.14123,0.3298 1.60839,-1.28283 0.46844,-1.61297 -0.46634,-0.0258 -3.19535,-0.18304 -3.39842,-0.14988 z m 10.42692,-1.074 c -3.57172,2.44784 -6.49486,5.61732 -8.83821,9.25477 -0.79814,1.23888 -1.45351,2.56174 -2.18273,3.84244 -0.58326,0.97153 0.78705,1.79124 1.37191,0.81924 0.67201,-1.24951 1.23053,-2.56217 2.01498,-3.74469 1.34527,-2.02919 4.93213,-6.05613 6.85917,-7.7232 0.50189,-0.43375 1.10658,-0.73671 1.65755,-1.10601 0.94796,-0.6214 0.0656,-1.96404 -0.88267,-1.34255 z m -36.24663,11.43963 c -1.58077,0.47271 -2.71575,1.92276 -3.93781,3.16463 -0.73838,0.80567 0.39882,1.84721 1.13656,1.04171 1.24135,-1.26402 2.54022,-2.69612 4.38566,-2.96248 0.95088,0.11662 1.11589,-1.22916 0.16501,-1.34577 -0.64678,-0.1025 -1.22239,-0.0557 -1.74942,0.10191 z m 57.31493,-10.60602 c -0.42273,0.11176 -0.76482,0.51808 -0.6069,1.11536 0.84758,4.02657 0.88966,8.16198 1.22055,12.24459 0.75086,9.2512 0.42683,0.6112 0.62265,10.15902 0.0303,0.64867 0.49129,0.94619 0.94805,0.95797 -0.11695,0.36539 -0.24522,0.72578 -0.33742,1.09754 -0.34678,1.39566 -0.55926,2.82378 -0.83726,4.23463 -0.28655,1.20007 1.41016,1.60624 1.69638,0.40623 0.92927,-4.16933 1.73675,-8.39026 3.01369,-12.46929 0.447,-1.18204 -1.2229,-1.81513 -1.66971,-0.63366 -0.40696,1.40647 -0.62926,2.85867 -0.96468,4.28168 -0.0353,-1.07148 -0.0553,-2.14111 -0.13424,-3.20984 -0.31324,-4.27769 -0.65168,-5.22293 -1.03928,-9.36106 -0.25488,-2.71764 -0.2675,-5.46876 -0.83364,-8.15333 -0.1579,-0.59722 -0.65612,-0.78143 -1.07819,-0.66984 z m -71.37307,20.95375 c -2.44009,1.73944 -3.9234,4.4764 -5.54702,6.9289 -0.6347,1.04797 0.84506,1.94552 1.47912,0.89773 1.19629,-2.10278 1.27936,-2.52731 2.83961,-4.2632 0.40212,-0.44767 0.90899,-0.78574 1.30948,-1.23435 0.2886,-0.32329 0.49869,-0.71037 0.74682,-1.06556 0.89042,-0.58369 0.0624,-1.84718 -0.82801,-1.26352 z m 31.79603,-5.51515 c -1.3242,0.3904 -2.49628,1.11781 -3.66314,1.93008 -0.73277,0.51029 -1.50023,0.98708 -2.14694,1.60269 -0.73184,0.69622 -1.31227,1.54035 -1.96692,2.30966 -0.82011,0.9851 0.56774,2.14735 1.39492,1.16034 2.17216,-2.91567 3.91714,-5.01861 7.66063,-5.67808 1.12417,0.0711 1.22484,-1.518 0.10098,-1.58926 -0.48095,0.0466 -0.93793,0.13431 -1.37954,0.2645 z m -28.49852,10.03218 c -0.17012,0.12523 -0.30259,0.32904 -0.33776,0.61683 -0.23509,3.25513 -0.9032,6.48797 -1.64536,9.66353 -0.21518,1.09085 1.32777,1.39751 1.54324,0.30645 0.86865,-3.17397 1.64108,-6.47476 1.73017,-9.77272 0.10567,-0.86407 -0.77895,-1.18999 -1.29029,-0.81409 z m 12.42682,7.75261 c -0.19005,-0.0283 -0.40039,0.0191 -0.60661,0.18105 -0.47469,0.3308 -1.01921,0.5812 -1.42735,0.99175 -0.62858,0.63207 -1.12104,1.38553 -1.64698,2.10486 -1.69266,2.31382 -2.89346,4.13509 -4.16621,6.77081 -0.75659,1.5667 -1.36271,3.20481 -2.04144,4.80673 -0.50254,1.22607 1.23438,1.93545 1.73691,0.70935 0.59291,-1.57345 1.09384,-3.18081 1.77757,-4.71692 1.59909,-3.59144 3.86967,-6.76544 6.67718,-9.49809 0.61979,-0.48421 0.26349,-1.26248 -0.30163,-1.34926 z m 37.62379,-9.05925 c -0.19766,-0.018 -0.41603,0.0511 -0.62039,0.23051 -1.66991,1.47226 -2.88763,3.27513 -4.05363,5.1251 -0.12064,0.0388 -0.2349,0.0235 -0.35336,0.12787 -2.23579,2.46266 -4.31393,5.33139 -5.66813,8.3899 -0.49607,1.12026 -0.80284,2.31941 -1.20431,3.47694 -0.40583,1.07721 1.11461,1.64918 1.52036,0.57298 0.0871,-0.21766 0.17354,-0.43801 0.26044,-0.6565 0.36294,0.10899 0.79456,0.0217 1.02588,-0.46482 0.663,-1.49463 1.22978,-3.03012 1.98764,-4.47867 1.16032,-2.21669 3.18989,-5.03459 4.60928,-7.14172 0.54766,-0.81307 1.03405,-1.67419 1.6281,-2.45379 0.37393,-0.49044 0.84474,-0.89455 1.26755,-1.34342 0.61189,-0.53886 0.1923,-1.32854 -0.40018,-1.38332 z m 44.04465,-10.40961 c -4.69323,1.16472 -8.00919,4.69587 -11.42796,7.86942 -0.75679,0.74909 0.3048,1.8173 1.06351,1.06768 3.18432,-2.97898 6.54385,-6.00787 10.79019,-7.32683 1.13809,-0.3009 0.71235,-1.91117 -0.42574,-1.61027 z m -105.42747,28.78883 c -4.11565,2.14156 -6.01614,5.79815 -7.87203,9.85406 -0.4807,1.0181 0.96094,1.69852 1.442,0.68047 1.6919,-3.47234 3.61907,-6.9824 7.02137,-9.05484 1.0444,-0.4208 0.45339,-1.90051 -0.59424,-1.47892 z m 117.19763,-25.8441 c -0.42039,-0.0266 -0.86211,0.24516 -0.90008,0.83895 -0.564,7.22897 -2.46577,14.24463 -4.43387,21.19181 -0.33135,1.25859 1.44925,1.72932 1.78061,0.47076 1.78364,-7.10681 3.74691,-14.2299 4.33619,-21.55997 0.0391,-0.59475 -0.36247,-0.91498 -0.78285,-0.94155 z m 4.67957,8.07805 c -0.38346,0.0518 -0.7309,0.37925 -0.6574,0.92173 0.24016,2.76749 0.19224,5.53457 0.0997,8.30733 -0.05,1.49532 -0.0168,3.00194 -0.18241,4.48882 -0.17979,1.6156 -0.56983,3.19941 -0.85448,4.80009 -0.16462,1.15833 1.47333,1.39307 1.63795,0.23474 0.82585,-5.97149 1.65939,-12.01811 0.83229,-18.04265 -0.0713,-0.54313 -0.49084,-0.76212 -0.87562,-0.71006 z m -88.94698,23.86396 c -0.21534,0.006 -0.44331,0.10687 -0.64062,0.32989 -0.98531,1.3947 -2.10309,2.7939 -2.96586,4.28988 -2.7146,1.75646 -4.70175,4.31272 -6.72783,6.78032 -0.64453,0.83101 0.53284,1.74178 1.17544,0.91129 1.1339,-1.3291 2.60995,-3.01217 4.23269,-4.52473 -0.0982,0.44934 0.15861,0.76927 0.52268,0.84345 -0.17252,0.24643 -0.34169,0.49511 -0.51144,0.74291 -0.58841,1.0133 0.8461,1.84266 1.43484,0.82927 0.95919,-1.64331 1.24189,-2.32637 2.5252,-3.73265 0.45536,-0.49902 1.0057,-0.90459 1.48466,-1.38081 0.70536,-0.70125 0.79999,-0.86446 0.90591,-0.99411 0.32211,-0.0194 0.65044,-0.0152 0.97503,-0.0239 0.79528,-0.0745 0.95086,-0.80979 0.65902,-1.29606 0.11014,-0.61267 -0.4467,-1.29868 -1.23722,-0.94167 -0.30992,0.2218 -0.63879,0.47098 -0.96283,0.70195 -0.2568,0.071 -0.72382,0.28747 -1.6303,0.70488 0.45653,-0.60666 0.92576,-1.20697 1.38219,-1.79445 0.59139,-0.6685 0.028,-1.46538 -0.62305,-1.44458 z m 34.95643,-3.08536 c -0.20661,0.0133 -0.41932,0.11424 -0.60004,0.33225 -2.71306,3.7921 -5.02165,7.86719 -6.81024,12.17763 -0.66858,1.61164 -1.21946,3.26848 -1.82835,4.90398 -0.39685,1.09686 1.15501,1.66258 1.55158,0.56469 0.10986,-0.27498 3.35397,-8.58181 3.59019,-9.07587 1.27641,-2.66875 3.06592,-5.11396 4.72903,-7.54736 0.54219,-0.65397 -0.0143,-1.39487 -0.63056,-1.35574 z m -69.59791,25.89997 c -0.21658,-0.0375 -0.4575,0.0128 -0.69726,0.19123 -2.73415,2.2779 -4.12624,5.65172 -5.56202,8.81595 -0.48292,1.08792 1.05942,1.7688 1.54197,0.68077 1.19687,-2.98002 2.45486,-6.06497 5.02631,-8.14009 0.71976,-0.53476 0.33441,-1.43335 -0.30927,-1.54758 z m 88.26528,-20.88577 c -4.06647,2.99331 -6.90716,7.27848 -9.10804,11.77013 -0.83093,1.69589 -1.47019,3.47837 -2.2063,5.21761 -0.45333,1.07865 1.07297,1.7236 1.52595,0.64494 0.70162,-1.6873 1.29364,-3.42305 2.10018,-5.06269 2.0312,-4.12892 4.76072,-8.28088 8.45368,-11.08964 1.04577,-0.54069 0.28028,-2.02111 -0.76547,-1.48035 z m 38.18897,-2.47762 c -0.175,0.0807 -0.32252,0.23408 -0.40693,0.48156 -1.54851,5.20153 -3.67559,10.19248 -5.78142,15.1843 -0.46743,1.18296 1.20888,1.84161 1.67631,0.65861 1.8947,-5.10639 4.05551,-10.10131 5.50852,-15.35922 0.2538,-0.74286 -0.47619,-1.20177 -0.99648,-0.96525 z m -42.72404,11.38917 c -0.23351,0.0548 -0.46771,0.2139 -0.63506,0.50202 -0.67868,2.02035 -1.50524,4.05848 -2.00471,6.13258 -0.26462,1.10058 -1.01944,6.11999 -1.17545,7.12196 -0.20679,1.23988 1.5463,1.53095 1.7534,0.29098 0.63099,-5.12297 0.11683,-2.15987 1.24943,-6.94118 0.45666,-1.92724 0.7557,-3.93863 1.80926,-5.66018 0.5023,-0.86343 -0.28498,-1.61201 -0.9968,-1.44593 z m -85.71347,31.97708 c -0.1249,0.0227 -0.25033,0.0694 -0.38023,0.15392 -3.49964,2.38566 -5.36407,6.25679 -7.3567,9.85803 -0.53669,1.09949 1.0148,1.86447 1.55151,0.76505 1.23483,-2.42215 2.41339,-5.23299 4.31458,-7.24406 0.71223,-0.75345 1.70587,-1.19424 2.44362,-1.92152 0.89836,-0.58879 0.28296,-1.77515 -0.57408,-1.61111 z m 23.29369,-5.85172 c -0.19127,0.006 -0.39285,0.0867 -0.56612,0.28333 -1.95848,2.46664 -2.84747,5.37738 -3.78852,8.327 -0.3661,1.12979 1.23196,1.64227 1.59803,0.51239 0.48083,-1.93222 0.6502,-3.10124 1.53605,-4.87345 0.30617,-0.61254 0.75787,-1.13843 1.1059,-1.72812 0.23896,-0.40556 0.43975,-0.8317 0.65769,-1.24897 0.52119,-0.58879 0.0295,-1.29018 -0.54622,-1.27123 z m 23.80333,-2.43372 c -1.88269,0.91111 -2.84312,2.73476 -4.01374,4.36663 -2.39114,3.33294 -1.17459,1.22336 -2.99964,5.04673 -0.48808,0.96808 0.87562,1.65595 1.36369,0.68785 1.38606,-2.52631 1.30279,-2.4465 2.79835,-4.84661 0.41296,-0.662 0.75582,-1.37677 1.26245,-1.96981 0.32189,-0.3772 1.75189,-1.37975 2.27339,-1.7563 1.07905,-0.48646 0.39394,-2.01465 -0.68322,-1.52884 z m -35.95289,16.49041 c -4.10221,3.32197 -6.12184,8.26719 -8.05796,13.015 -0.48305,1.19164 1.20022,1.87528 1.68291,0.6836 0.67347,-1.72997 2.12332,-5.67354 3.11839,-7.37525 1.10353,-1.88694 2.79468,-3.29058 4.139,-4.98071 0.95147,-0.62374 0.0695,-1.96644 -0.88234,-1.34264 z m 77.09972,-7.12263 c -0.17184,0.10572 -0.30864,0.2931 -0.36516,0.56401 -0.59544,3.43604 -1.9128,6.6704 -3.26165,9.86379 -0.3952,1.17995 1.26891,1.74162 1.66443,0.56159 1.14107,-3.33962 2.43617,-6.63468 3.12377,-10.1078 0.16906,-0.81194 -0.64411,-1.19853 -1.16139,-0.88159 z m -91.90604,26.5628 c -0.21174,-0.0322 -0.44998,0.0191 -0.68161,0.20088 -2.07266,2.08171 -3.87585,4.61976 -4.95517,7.37343 -0.35728,0.91172 -0.54436,1.87954 -0.81683,2.82019 -0.20561,0.56033 0.14865,0.927 0.56393,0.99946 -0.43791,0.70314 -0.84685,1.42464 -1.25477,2.17476 -0.48087,0.8846 -1.09326,1.70428 -1.45831,2.64262 -0.5299,1.36226 -1.32608,5.57249 -1.60232,6.92098 -0.22727,1.06077 1.27287,1.37879 1.49979,0.31801 0.69175,-3.22551 1.41453,-6.10567 2.97389,-9.03314 0.55476,-1.04154 1.48517,-2.64782 2.35576,-3.54101 0.31757,-0.32577 0.72857,-0.54442 1.09305,-0.81653 0.99885,-0.8797 -0.24182,-2.28784 -1.24035,-1.40822 -0.38519,0.28888 -0.72028,0.60702 -1.0333,0.94092 1.11964,-2.97379 2.56939,-5.85981 4.89545,-8.07876 0.69482,-0.54311 0.29566,-1.41577 -0.33808,-1.51324 z m 20.11085,-4.17524 c -0.20264,0.0674 -0.38972,0.21705 -0.51366,0.48305 -1.1757,2.82431 -1.461,5.95466 -1.89727,8.9622 -0.14809,1.21826 1.57743,1.42982 1.72551,0.21152 0.348,-2.83588 0.38815,-5.86945 1.67388,-8.46908 0.37175,-0.79702 -0.3681,-1.39225 -0.98846,-1.18769 z m 49.90449,-8.07253 c -0.20879,0.0311 -0.41874,0.15549 -0.58353,0.3947 -1.8317,3.34614 -3.69696,6.80372 -4.69979,10.51116 -0.33787,1.24959 -0.4836,2.5406 -0.72826,3.81181 -0.26521,1.2091 1.4436,1.58545 1.70878,0.37626 1.01578,-4.85965 2.17826,-9.63219 5.0738,-13.76853 0.49448,-0.71717 -0.14498,-1.42127 -0.77099,-1.32537 z m -49.75598,26.51695 c -2.22088,1.23834 -3.23465,3.26151 -4.27879,5.4851 -0.52673,1.12154 -1.10573,2.22385 -1.50631,3.3965 -1.03548,3.03153 -1.29822,5.56324 -1.80648,8.7245 -0.17483,1.19791 1.51994,1.44429 1.69445,0.24649 0.14623,-0.87741 1.19637,-7.38287 1.50236,-8.41037 0.61726,-2.07156 1.66689,-3.77016 2.82699,-5.54867 1.31332,-2.01323 0.7484,-1.44522 2.40598,-2.4925 0.98898,-0.58871 0.15047,-1.98965 -0.8382,-1.40105 z m -22.27214,10.16892 c -0.21885,-0.02 -0.4554,0.0546 -0.68115,0.25346 -1.5872,1.11541 -2.38991,2.77739 -3.32113,4.41055 -1.95671,3.43092 -0.94475,1.24454 -2.44157,5.18633 -0.45508,1.0994 1.0973,1.74397 1.5527,0.64451 1.32158,-3.30306 2.53103,-6.62115 5.33442,-8.9694 0.67725,-0.59651 0.21144,-1.46459 -0.44457,-1.52517 z m 21.16041,-5.56016 c -0.11876,0.059 -0.22951,0.14817 -0.33603,0.269 -2.42088,4.50114 -3.24824,9.47545 -3.57662,14.50788 -0.35155,-0.0789 -0.744,-0.0103 -1.00128,0.43144 -0.11499,0.46404 -0.20176,0.93188 -0.33339,1.3903 -0.1909,0.66808 -0.48235,1.30502 -0.63099,1.98314 -0.20226,0.91693 -0.77606,5.50317 -0.86105,6.16406 -0.12366,1.21294 1.59195,1.38702 1.7153,0.17419 0.0506,-1.09841 0.005,-2.20455 0.15772,-3.29371 0.1422,-1.01775 0.42969,-2.03444 0.75129,-3.0433 -0.0321,1.52138 -0.0514,3.04456 -0.0527,4.54806 0.0102,1.19805 1.70145,1.18495 1.69254,-0.0135 0.0339,-4.8879 -0.12628,-9.95575 0.81173,-14.78517 0.22325,-1.14895 0.62645,-2.25434 0.97858,-3.37051 0.25256,-0.80095 0.46281,-1.62385 0.83401,-2.37739 0.20537,-0.42183 0.58832,-0.74005 0.88232,-1.10806 0.74892,-0.84658 -0.20773,-1.88009 -1.03149,-1.47681 z m 68.91597,-16.78501 c -0.40734,0.0605 -0.77391,0.40681 -0.68831,0.98333 0.21986,2.70506 0.25526,5.55535 -0.0954,8.25206 -0.18023,1.3859 -0.54342,2.74429 -0.81477,4.11515 -0.20156,1.25313 1.56886,1.53293 1.7701,0.27988 0.512,-4.26495 1.26686,-8.58847 0.7716,-12.89147 -0.0869,-0.57621 -0.53522,-0.79969 -0.94318,-0.73895 z m -90.02258,25.85784 c -0.21098,0.0489 -0.40928,0.18606 -0.55778,0.44129 -0.28389,0.33719 -0.65291,0.62211 -0.85387,1.01374 -0.30927,0.60079 -0.44169,1.27511 -0.65494,1.916 -0.51311,1.54043 -1.31432,3.90246 -1.60827,5.46014 -0.39582,2.09874 -0.47576,4.77206 -0.59775,6.88245 0.10891,1.21969 0.21638,2.44045 0.32658,3.65979 0.007,0.15854 0.043,0.29312 0.10726,0.40569 -0.13989,0.17443 -0.34803,0.38515 -0.43438,0.52885 -0.49537,0.82588 -0.77239,1.76361 -1.17133,2.64018 -2.00186,4.40014 -0.9554,1.60948 -2.50148,6.47759 -0.38955,1.2873 1.43347,1.84027 1.82272,0.55315 0.25851,-1.13283 0.37009,-2.3094 0.77752,-3.39751 0.36632,-0.9778 1.04768,-1.80763 1.51996,-2.73901 0.90251,-1.78085 1.46345,-3.70193 3.10968,-4.98234 0.81668,-0.83911 -0.36894,-1.99472 -1.18691,-1.15527 -0.10894,0.10907 -0.28251,0.28378 -0.41706,0.41718 -0.0659,-0.78356 -0.12889,-1.56885 -0.19452,-2.35253 0.0276,-1.13336 -0.0157,-2.27288 0.0884,-3.40225 0.18773,-2.03501 0.71158,-3.99345 1.2144,-5.96365 0.46842,-1.83456 0.90403,-3.6108 2.10466,-5.12395 0.44522,-0.76539 -0.25705,-1.42822 -0.88649,-1.28143 z m 49.2447,-5.46743 c -2.11088,1.40425 -3.43658,3.4697 -4.74607,5.58859 -0.72082,1.16653 -1.50788,2.30662 -2.08646,3.5499 -0.96358,2.07101 -2.39033,6.89668 -3.0555,9.02802 l -0.79202,4.78358 c -0.1947,1.17224 1.46736,1.44735 1.66205,0.27508 l 0.77791,-4.55947 c 0.42795,-1.51208 0.77037,-3.0545 1.28363,-4.53965 1.62349,-4.6965 4.12405,-9.43433 7.80528,-12.83466 0.91447,-0.59953 0.0657,-1.89092 -0.84882,-1.29139 z m 17.5119,9.20609 c -0.20727,0.0238 -0.41676,0.1343 -0.58575,0.36154 -2.75316,3.52448 -5.5506,7.08861 -7.78136,10.97867 -0.8645,1.5077 -1.57153,3.09899 -2.35647,4.64962 -0.6058,1.16254 1.04363,2.02174 1.64946,0.85937 0.74295,-1.52448 1.4112,-3.08529 2.22278,-4.57425 2.12588,-3.89981 4.73614,-7.53484 7.5532,-10.95834 0.50644,-0.68365 -0.0884,-1.38956 -0.70193,-1.31687 z m -29.33406,12.53015 c -0.1249,0.0227 -0.24857,0.0761 -0.37821,0.16027 -1.50721,1.4258 -2.94438,3.16473 -3.74582,5.10376 -0.75774,1.83334 -1.17328,4.71473 -1.5191,6.60519 -0.15696,1.25244 1.61053,1.47294 1.76781,0.22039 0.0976,-1.09115 0.10705,-2.19166 0.29716,-3.27051 0.51187,-2.89615 1.985,-5.26123 4.15296,-7.20132 0.90099,-0.59063 0.28361,-1.78184 -0.57573,-1.61736 z m 19.43547,-3.8765 c -0.20991,0.0138 -0.42418,0.11408 -0.60647,0.33396 l -0.95983,1.62267 c -0.50113,0.72069 -1.0562,1.41193 -1.50376,2.16716 -0.51687,0.8722 -0.92132,1.7996 -1.38216,2.7026 -0.54117,1.06822 0.97101,1.83695 1.51186,0.76885 0.47492,-0.84717 0.97692,-1.67401 1.41896,-2.53869 1.73104,-3.38683 0.24712,-1.30749 2.16135,-3.69656 0.54656,-0.65961 -0.017,-1.39982 -0.63867,-1.36036 z m -50.02532,14.20784 c -0.19686,0.0892 -0.36277,0.26298 -0.45785,0.54174 -1.2988,3.75923 -1.09191,7.69981 -1.09153,11.60716 0.0677,1.22008 1.79682,1.12353 1.73075,-0.097 -0.14325,-3.6608 -0.3735,-7.48126 0.93253,-10.97083 0.28602,-0.83598 -0.52843,-1.34724 -1.1139,-1.08109 z m 10.77873,-1.2338 c -0.21356,0.0131 -0.44007,0.11779 -0.62965,0.34662 -0.62393,1.38055 -1.77981,2.4402 -2.45911,3.782 -0.48868,0.96451 -0.78386,2.01857 -1.16155,3.03155 -1.57413,4.22129 -1.07023,2.77372 -2.29157,7.27017 -0.26354,1.21544 1.45776,1.58825 1.72133,0.37294 0.24501,-1.23604 0.39913,-2.4953 0.72821,-3.71168 0.93831,-3.47071 2.60995,-6.79819 4.75487,-9.67097 0.56959,-0.68712 -0.0136,-1.46225 -0.6616,-1.42102 z m -16.23366,10.90954 c -0.33902,0.27461 -0.76077,0.47602 -1.01622,0.82963 -0.36788,0.50941 -0.5704,1.12311 -0.81165,1.70368 -1.67445,4.03601 -1.38466,7.74556 -1.26895,12.02136 0.14895,1.25388 0.30304,2.50634 0.45328,3.75988 0.15517,1.1862 1.82709,0.96444 1.67091,-0.22167 -0.1218,-1.21631 -0.24727,-2.43221 -0.37037,-3.64821 -0.45292,-4.83206 -0.60692,-9.11982 2.20585,-13.2774 0.82424,-0.6125 -0.0383,-1.78007 -0.86291,-1.16749 z m 36.05582,-6.52787 c -0.19061,0.0607 -0.37232,0.20729 -0.49349,0.45771 -1.08447,2.74332 -0.52986,1.23608 -1.62484,4.53634 -0.32406,1.24319 1.43259,1.70018 1.75667,0.45708 0.83788,-3.14706 0.3927,-1.71839 1.28406,-4.31266 0.36282,-0.75136 -0.34893,-1.31978 -0.92239,-1.13843 z m 50.18289,-5.07441 c -0.21186,0.006 -0.43514,0.10127 -0.62944,0.32005 -1.42252,1.99887 -3.13715,3.78011 -4.7507,5.6232 -0.75557,0.92043 0.5601,1.98819 1.30506,1.0706 1.52917,-1.88601 2.92991,-3.91777 4.69121,-5.59414 0.58295,-0.65876 0.0247,-1.43999 -0.61323,-1.42047 z m -9.00898,5.07299 c -0.18443,-0.007 -0.37693,0.0635 -0.55701,0.24096 -1.57564,1.83402 -3.23264,3.55184 -4.41102,5.6937 -0.54404,0.98831 -0.92127,2.06169 -1.40213,3.08179 -0.4813,1.01977 -0.99313,2.02437 -1.48752,3.03764 -0.50734,1.14795 1.11873,1.86669 1.62573,0.71874 0.3786,-1.01474 0.67749,-2.0652 1.13791,-3.04538 1.43976,-3.06322 3.57585,-5.74271 5.54027,-8.4696 0.5406,-0.5323 0.1069,-1.23724 -0.44618,-1.25766 z m -28.55216,21.24475 c -0.20557,0.0302 -0.41021,0.14738 -0.57461,0.37892 -1.20021,1.85346 -2.32081,3.76703 -2.95318,5.90255 -0.29126,0.98162 -0.42914,2.00005 -0.64224,3.0011 -0.28362,1.19939 1.41785,1.59752 1.70118,0.39831 0.74788,-2.90375 1.62107,-5.79871 3.20812,-8.37388 0.49345,-0.695 -0.12368,-1.3928 -0.73928,-1.30703 z m -36.07699,12.08256 c -0.18804,0.0966 -0.34709,0.27536 -0.42778,0.55383 -0.11146,0.4774 -0.12322,0.96058 -0.19346,1.44011 -0.25159,-0.26107 -0.63817,-0.39953 -1.06648,-0.11871 -0.38628,0.28607 -0.83467,0.50141 -1.15502,0.85964 -0.93616,1.04648 -1.40069,2.39546 -1.84958,3.6876 -1.04755,3.01326 -1.07263,4.83094 -0.97418,7.98359 0.0899,0.9002 0.18282,1.79888 0.27272,2.69912 0.1919,1.25999 1.97891,0.98107 1.78284,-0.27778 -0.24898,-0.8114 -0.46558,-1.63067 -0.70812,-2.44378 0.23985,-3.21498 0.531,-7.7824 2.65463,-10.41784 0.2279,-0.2845 0.57861,-0.45369 0.86914,-0.67717 -0.28288,3.60202 0.33297,7.242 0.93025,10.79219 0.19942,1.18419 1.87484,0.9014 1.67486,-0.28229 -0.25949,-1.75016 -0.66823,-3.4785 -0.88948,-5.23384 -0.0907,-0.72107 -0.19333,-3.81896 -0.20513,-4.64009 -0.009,-0.58259 -0.083,-1.17377 0.005,-1.75077 0.0608,-0.40821 0.27749,-0.77182 0.42121,-1.15975 0.24181,-0.8351 -0.58188,-1.30186 -1.14284,-1.01336 z m 20.49093,15.97756 c -0.20453,0.0472 -0.40497,0.18802 -0.55133,0.43959 -2.43672,3.83674 -2.30983,8.6499 -2.52978,13.03584 -0.0174,1.04143 1.45669,1.06565 1.47543,0.0239 0.0844,-1.06846 0.18093,-2.13631 0.25403,-3.20565 0.0675,-1.00843 -2.3e-4,-2.03199 0.16738,-3.02918 0.34269,-2.04171 1.25689,-4.10538 2.05937,-6.00008 0.43941,-0.75477 -0.25539,-1.40892 -0.8751,-1.26444 z m 1.50969,21.69717 c -0.19809,0.0455 -0.38611,0.17338 -0.52504,0.41265 -0.74406,1.26492 -1.4805,3.49543 -1.57802,4.91796 -0.0189,0.28022 0.43557,5.00356 0.44207,5.15844 0.14836,1.09531 1.69556,0.87996 1.5462,-0.21522 -0.16892,-1.64211 -0.41548,-2.99288 -0.18482,-4.63881 0.2089,-1.49117 0.89046,-2.93776 1.12565,-4.43109 0.41751,-0.71773 -0.23426,-1.342 -0.82604,-1.20393 z"
         style="fill:#ffffff;fill-opacity:1;fill-rule:nonzero;stroke:none;stroke-width:1px;stroke-linecap:butt;stroke-linejoin:miter;stroke-opacity:1"
         inkscape:connector-curvature="0" />
      <path
         inkscape:connector-curvature="0"
         id="path34290"
         d="m 505.11301,787.38011 c 1.4674,-0.3022 2.94887,-0.54336 4.44182,-0.71115 5.5149,-1.01305 10.9983,0.0214 16.49629,0.0922 4.15122,-0.31463 3.96628,4.86946 0.67991,5.97071 -3.19207,0.16679 -6.42428,-0.66507 -9.67812,-0.61464 -6.6659,-0.12106 -13.41556,1.15297 -19.66518,3.4832 -3.47071,3.50997 -9.30241,-1.20256 -5.16648,-4.40086 4.20274,-1.48125 8.4903,-2.91265 12.89175,-3.81949 z m 14.88508,11.09393 c 1.86684,-0.30791 3.90447,-0.31377 5.58652,-0.78253 5.70578,-0.17254 11.14251,-2.17042 16.83633,-2.40384 5.61064,-0.99485 10.78137,1.3988 16.21276,2.0007 1.34144,0.15031 2.40379,1.07286 2.73669,2.32027 -0.33434,5.3838 -7.24631,3.44869 -10.61575,2.13167 -4.76212,-1.47744 -9.81107,-0.57291 -14.68357,0.17691 -3.89849,1.06861 -7.91498,1.38079 -11.92368,1.80585 -3.09968,0.83675 -10.10225,2.55347 -8.727,-2.64809 1.01153,-1.68378 2.7115,-2.29323 4.57768,-2.601 z m 20.3741,15.92913 c 2.02987,-0.31795 4.11996,-0.34949 5.23723,-0.88549 4.86761,-0.68236 9.94898,-0.85322 14.89677,-1.41338 3.46593,-0.043 6.94337,-0.88926 10.37521,-0.59866 5.48322,-0.10099 10.75693,1.22687 16.18873,1.57497 3.05881,-0.28911 4.42002,3.34418 2.06298,5.09418 -3.35148,1.72789 -7.08561,0.0229 -10.54302,-0.22235 -5.58724,-0.92428 -11.28057,-0.55224 -16.93475,-0.0491 -1.14391,0.16948 -6.39304,0.40285 -4.69439,0.40206 -2.81128,0.37849 -7.1224,0.51956 -11.25226,1.11561 -3.32972,0.78355 -10.821,3.00736 -10.21237,-2.42557 0.87695,-1.67296 2.84537,-2.27416 4.87589,-2.59225 z"
         style="fill:#ff00ff;fill-opacity:1;fill-rule:nonzero;stroke:none;stroke-width:1px;stroke-linecap:butt;stroke-linejoin:miter;stroke-opacity:1" />
    </g>
  </g>
</svg>
