<?xml version="1.0" encoding="UTF-8" standalone="no"?>
<!-- Created with Inkscape (http://www.inkscape.org/) -->

<svg
   xmlns:dc="http://purl.org/dc/elements/1.1/"
   xmlns:cc="http://creativecommons.org/ns#"
   xmlns:rdf="http://www.w3.org/1999/02/22-rdf-syntax-ns#"
   xmlns:svg="http://www.w3.org/2000/svg"
   xmlns="http://www.w3.org/2000/svg"
   xmlns:sodipodi="http://sodipodi.sourceforge.net/DTD/sodipodi-0.dtd"
   xmlns:inkscape="http://www.inkscape.org/namespaces/inkscape"
   width="210mm"
   height="297mm"
   viewBox="0 0 744.09448819 1052.3622047"
   id="svg27274"
   version="1.1"
   inkscape:version="0.91 r13725"
   sodipodi:docname="body15.svg">
  <defs
     id="defs27276" />
  <sodipodi:namedview
     id="base"
     pagecolor="#ffffff"
     bordercolor="#666666"
     borderopacity="1.0"
     inkscape:pageopacity="0.0"
     inkscape:pageshadow="2"
     inkscape:zoom="0.175"
     inkscape:cx="447.04165"
     inkscape:cy="1081.5951"
     inkscape:document-units="px"
     inkscape:current-layer="layer1"
     showgrid="false"
     inkscape:window-width="458"
     inkscape:window-height="626"
     inkscape:window-x="906"
     inkscape:window-y="0"
     inkscape:window-maximized="0" />
  <metadata
     id="metadata27279">
    <rdf:RDF>
      <cc:Work
         rdf:about="">
        <dc:format>image/svg+xml</dc:format>
        <dc:type
           rdf:resource="http://purl.org/dc/dcmitype/StillImage" />
        <dc:title></dc:title>
      </cc:Work>
    </rdf:RDF>
  </metadata>
  <g
     inkscape:label="Layer 1"
     inkscape:groupmode="layer"
     id="layer1">
    <g
       id="g14787"
       transform="matrix(3.5586411,-1.5267975,1.5267975,3.5586411,-7980.6635,330.70318)"
       inkscape:transform-center-x="-230.00547"
       inkscape:transform-center-y="295.7211"
       style="display:inline;opacity:1">
      <g
         id="g15041"
         transform="matrix(0.99011595,0.14025124,-0.14025124,0.99011595,150.72574,-263.26543)">
        <path
           style="color:#000000;clip-rule:nonzero;display:inline;overflow:visible;visibility:visible;opacity:1;isolation:auto;mix-blend-mode:normal;color-interpolation:sRGB;color-interpolation-filters:linearRGB;solid-color:#000000;solid-opacity:1;fill:#000000;fill-opacity:1;fill-rule:evenodd;stroke:none;stroke-width:1;stroke-linecap:square;stroke-linejoin:round;stroke-miterlimit:4;stroke-dasharray:none;stroke-dashoffset:0;stroke-opacity:1;color-rendering:auto;image-rendering:auto;shape-rendering:auto;text-rendering:auto;enable-background:accumulate"
           d="m 1932.1242,902.16128 c -9.1355,0.0531 -18.3358,1.52636 -26.9373,4.60694 -1.6965,0.38078 -1.1342,2.08051 -0.3827,3.09222 4.8299,11.91355 9.8066,23.83783 15.1287,35.55173 4.6889,11.19647 6.3007,23.62877 12.3551,34.2558 1.2561,2.54475 4.1878,0.62078 5.5879,-0.66953 6.2452,-6.18613 11.8165,-13.07707 18.7476,-18.56692 9.5687,-8.05809 18.5159,-16.93646 29.1046,-23.69487 5.3201,-3.91428 9.9444,-8.66082 15.1641,-12.68202 1.7383,-1.83101 -1.3456,-3.52106 -2.5254,-4.58318 -7.5339,-5.38963 -16.08,-9.28471 -25.0191,-11.64353 -12.8832,-4.74164 -26.754,-5.43629 -40.3427,-5.66963 -0.2936,0.001 -0.5872,0.002 -0.8808,0.003 z"
           id="path14303-8-0"
           inkscape:connector-curvature="0" />
        <path
           style="fill:#ffffff;fill-opacity:1;fill-rule:nonzero;stroke:none;stroke-width:1px;stroke-linecap:butt;stroke-linejoin:miter;stroke-opacity:1"
           d="m 1923.5432,900.09108 c -0.2015,0.0372 -0.457,0.25383 -0.6778,0.69531 -0.1223,0.37678 -0.4154,1.26273 -0.4804,1.5625 -0.1002,0.46417 -0.1276,0.94145 -0.2246,1.40625 -0.1205,0.57574 -0.3196,1.13473 -0.4278,1.71289 -0.1322,0.70643 -0.463,3.64095 -0.539,4.28516 -0.068,0.77359 -0.1371,1.54673 -0.2051,2.32031 -0.1102,0.75844 -0.253,1.51311 -0.332,2.27539 -0.1405,1.34331 -0.1468,2.79546 -0.1758,4.14648 -0.048,1.19039 0.7938,1.2255 0.8418,0.0352 0.2531,-4.94694 -0.086,1.23223 0.289,-4.08984 0.2681,-3.8073 -0.085,-0.76286 0.4375,-4.58008 0.3437,-2.67697 0.1927,-1.67139 0.6036,-4.22852 0.2402,-1.49484 0.4222,-3.033 1.0449,-4.42969 0.3679,-0.7358 0.1815,-1.17333 -0.1543,-1.11132 z m 12.998,0.002 c -0.2277,-0.0569 -0.5362,0.20734 -0.6972,0.85156 -0.1928,1.14205 -0.4782,2.29108 -0.8047,3.40235 -0.1888,0.64272 -0.4399,1.26582 -0.6231,1.91015 -0.1831,0.64389 -0.137,0.50728 -0.2539,0.92578 -0.1202,0.10042 -0.1956,0.33256 -0.1855,0.67578 -0.8676,3.18739 1.5133,-4.72904 -0.834,2.99024 -0.1869,0.58057 -0.3737,1.16162 -0.5606,1.74219 0.3158,-1.6896 0.635,-3.37849 0.961,-5.06641 0.2963,-1.1853 -0.5416,-1.39428 -0.8379,-0.20898 -0.2932,1.97699 0.1676,-0.99219 -0.3848,1.875 -0.1118,0.5797 -0.1714,1.17033 -0.2832,1.75 -0.1477,0.76615 -0.3467,1.52089 -0.4941,2.28711 -0.1761,0.91587 -0.3182,1.83869 -0.4766,2.75781 -0.1993,1.02922 -0.3982,2.05672 -0.5976,3.08593 -0.24,1.28013 0.6661,1.45005 0.9062,0.16993 0.3115,-1.78278 0.636,-3.56269 0.9649,-5.3418 0.1202,0.439 0.606,0.34695 0.8593,-0.47656 l 0.7032,-2.34375 c 0.023,-0.0735 0.044,-0.14724 0.066,-0.22071 0.019,0.95319 0.041,1.90709 0,2.85938 -0.035,0.85045 -0.1264,1.69807 -0.1894,2.54687 l -0.1036,2.76563 c -0.083,2.67074 -0.3982,5.32222 -0.7128,7.97266 -0.1408,1.3182 0.7909,1.41775 0.9316,0.0996 0.274,-2.67109 0.4882,-5.34319 0.5918,-8.02735 0.13,-1.98156 0.2376,-3.37056 0.3066,-5.33984 0.1732,-4.96597 -0.035,0.27896 0,-3.87891 0.02,-2.26148 0.1055,-0.55293 0.024,-1.83984 0.6752,-2.27283 1.3344,-4.55052 1.9375,-6.84375 0.161,-0.64422 0.013,-1.02314 -0.2149,-1.08008 z m -5.2129,0.3418 c -0.2153,-0.0538 -0.5079,0.1977 -0.6601,0.80664 -0.04,0.216 -0.069,0.4349 -0.1211,0.64843 -0.086,0.35355 -0.202,0.69806 -0.291,1.05079 -0.4456,1.76372 -0.2679,1.2742 -0.7207,3.21875 -1.0684,4.58805 0.031,-0.5295 -0.9825,4.31445 -0.1815,0.74954 -0.3635,1.49851 -0.5449,2.24805 -0.2755,1.1265 0.5214,1.32181 0.7969,0.19531 0.1995,-0.74881 0.4,-1.49728 0.5996,-2.2461 0.7177,-3.06957 1.328,-6.16544 2.125,-9.21484 0.1523,-0.60894 0.014,-0.96766 -0.2012,-1.02148 z m -14.5254,0.041 c -0.2063,-0.0258 -0.4504,0.24053 -0.5234,0.82422 -0.2552,1.70379 0.1014,-0.77894 -0.1777,1.74219 -0.058,0.51848 -0.158,1.03177 -0.211,1.55078 -0.2374,2.35081 -0.2761,4.70442 -0.2871,7.06445 -0.012,0.26574 -0.016,0.53115 -0.025,0.79688 -0.2608,-0.6307 -0.8129,-0.41975 -0.705,0.55078 0.1585,1.35211 0.4132,2.68646 0.6718,4.02148 0.01,0.63207 0.018,1.26439 0.033,1.89649 -0.052,-0.25712 -0.034,-0.17392 -0.1035,-0.52149 -0.6884,-3.83424 -1.4719,-7.66602 -1.7558,-11.55664 0,-0.67102 -0.2593,-0.95725 -0.4942,-0.89062 0.1263,-0.78679 0.276,-1.56991 0.4434,-2.35352 0.047,-0.22223 0.085,-0.44666 0.1269,-0.66992 0.4097,-1.09251 -0.3637,-1.38158 -0.7734,-0.28906 -0.1244,0.43879 -0.439,1.53135 -0.502,1.86914 -0.1671,0.8905 -0.392,3.12072 -0.457,3.89648 -0.075,0.88951 -0.1615,1.77958 -0.1855,2.67188 -0.027,1.00826 0.019,2.01681 0.029,3.02539 0.1066,4.25597 -0.012,2.13186 0.3574,6.36719 0.06,1.05334 0.8041,1.01225 0.7441,-0.041 -0.2106,-4.20385 -0.1243,-2.09806 -0.2558,-6.31641 0.027,-1.54475 0.047,-4.04205 0.166,-5.62304 0.01,-0.0885 0.018,-0.17545 0.025,-0.26367 0.1054,0.85729 0.2907,2.07546 0.3613,2.54882 0.3884,2.60209 0.8495,5.18801 1.293,7.78125 0.6588,3.63107 0.3379,1.84467 0.9609,5.35743 0.2572,1.30718 1.1829,1.12553 0.9258,-0.18165 -0.3695,-2.07612 -0.4528,-2.54207 -0.5684,-3.1289 0.095,0.0418 0.1913,0.0198 0.2774,-0.0684 0.034,0.18272 0.061,0.36696 0.1,0.54883 0.1819,0.86154 0.4113,1.71224 0.6172,2.56836 0.8899,4.14876 0.1636,1.15922 1.3554,5.16015 0.2301,0.7726 0.4207,1.55656 0.6543,2.32813 0.3603,1.19003 0.7689,2.36503 1.1368,3.55273 0.365,1.10811 1.1482,0.84835 0.7832,-0.25976 -0.1383,-0.53145 -0.2565,-1.06767 -0.4141,-1.59375 -0.1965,-0.65617 -0.4351,-1.29965 -0.6465,-1.95118 -0.793,-2.44447 -1.5392,-4.90684 -1.9844,-7.44336 -0.4215,-1.64962 -0.8586,-3.23962 -1.1699,-4.91406 -0.097,-0.51916 -0.1578,-1.04326 -0.2305,-1.5664 -0.013,-1.75976 -0.021,-3.51993 0.047,-5.2793 0.1377,-3.43099 0.1667,-6.88181 0.6641,-10.2832 0.073,-0.5837 -0.096,-0.90194 -0.3028,-0.92774 z m 29.1739,0.86328 c -0.1979,0.0459 -0.4419,0.27169 -0.6406,0.71875 -1.3052,3.56097 -2.558,7.13902 -3.8008,10.72266 -0.2293,0.59143 -0.4583,1.18396 -0.6875,1.77539 0.1204,-2.32637 0.1227,-4.66598 0.082,-6.99219 -0.2116,-1.27 -1.1101,-1.12156 -0.8984,0.14844 0.1932,0.99093 0.059,1.99151 0.043,2.98828 -0.011,0.659 0.039,1.31998 0.012,1.97852 -0.033,0.79964 -0.1265,1.59476 -0.1895,2.39257 -0.034,0.8964 -0.068,1.79306 -0.1035,2.68946 -0.2385,1.87109 -0.2616,3.75907 -0.4414,5.63476 -0.7093,7.40047 0,-1.79339 -0.4785,4.77539 -0.1333,1.18932 0.7065,1.28312 0.8398,0.0937 0.3408,-3.48124 0.7104,-6.95977 0.8809,-10.45507 0.05,-0.5925 0.1001,-1.18486 0.1504,-1.77735 0.2069,0.10568 0.5361,-0.0993 0.7539,-0.71484 l 0.7578,-2.27539 0.8476,-2.40625 c 0.297,-0.77972 0.6101,-1.55409 0.8907,-2.33985 0.701,-1.96241 1.2671,-3.98403 2.1855,-5.86328 0.3312,-0.7451 0.1266,-1.17026 -0.2031,-1.09375 z m -20.3633,0.78907 c -0.2168,0.031 -0.3903,0.36931 -0.3027,0.98242 0.014,1.18471 0.207,2.36048 0.25,3.54297 0.029,0.76447 0,1.53 0.012,2.29492 0.058,4.45333 0.099,1.16849 -0.031,5.90039 -0.01,4.25487 0.029,2.14412 -0.1054,6.33008 -0.038,1.13883 0.7666,1.16615 0.8046,0.0273 0.2143,-4.19816 0.1323,-2.08282 0.2461,-6.34766 -0.026,-1.97676 -0.1047,-3.95279 -0.094,-5.92968 0.01,-0.7765 0.105,-1.55194 0.082,-2.32813 -0.017,-0.58468 -0.1522,-1.15929 -0.2012,-1.74219 -0.053,-0.62239 -0.013,-1.25232 -0.096,-1.87304 -0.088,-0.61311 -0.3476,-0.88839 -0.5644,-0.85742 z m 34.0117,0.0996 c -0.2035,-0.0254 -0.4437,0.23695 -0.5156,0.8125 -0.4659,1.60472 -0.8405,3.24124 -1.4375,4.80859 -0.3589,0.94211 -1.6392,3.75173 -2.0117,4.58008 -1.6654,3.45808 -0.7846,1.74977 -2.6485,5.12695 -0.6246,1.12938 0.1743,1.5708 0.7989,0.44141 1.8394,-3.45415 0.9802,-1.70716 2.582,-5.24414 1.0649,-2.23029 1.2149,-2.41325 2.0508,-4.63282 0.8819,-2.34201 0.4018,-1.19131 1.0176,-3.27929 0.489,-1.65759 0.2325,-0.40085 0.4628,-1.69922 0.072,-0.57554 -0.095,-0.88863 -0.2988,-0.91406 z m 11.6387,2.12109 c -0.1885,5.1e-4 -0.4561,0.1543 -0.7285,0.51758 -0.1711,0.22969 -0.3226,0.47608 -0.5137,0.68945 -0.311,0.34735 -0.6654,0.652 -0.9883,0.98828 -1.6167,1.68371 -3.1948,3.41955 -4.9121,5.00391 -0.1248,0.11516 -0.2594,0.21968 -0.3867,0.33203 0.174,-0.37873 0.2849,-0.67106 0.4668,-1.19336 0.3337,-1.16798 -0.4925,-1.4043 -0.8262,-0.23633 -0.095,0.17355 -0.1992,0.34264 -0.2832,0.52149 -0.7425,1.58078 -0.1092,0.51597 -1.1328,2.39843 -0.016,0.0297 -0.034,0.0583 -0.051,0.0879 -2.1515,1.94717 -1.2169,1.13473 -3.4863,3.04688 -0.9941,0.87964 -0.373,1.58276 0.6211,0.70312 0.9766,-0.8638 1.2581,-1.12357 1.5234,-1.35937 -0.7096,1.33738 -1.3379,2.61053 -2.0351,4.01562 -0.5347,0.86267 -1.0754,1.72123 -1.6036,2.58789 -0.5479,0.89895 -1.0598,1.8195 -1.623,2.70899 -1.5157,2.3943 -3.1593,4.72008 -4.7734,7.04883 -0.3318,0.46864 -0.3384,0.8188 -0.1836,0.95117 -1.4702,2.35941 -2.8966,4.74539 -4.3867,7.0918 -0.6423,1.07045 0.1135,1.52356 0.7558,0.45312 0.1007,-0.14028 0.2157,-0.27091 0.3027,-0.41992 0.1756,-0.29971 0.3104,-0.6232 0.4844,-0.92383 0.5926,-1.02411 1.2519,-2.0081 1.8692,-3.01758 2.2054,-3.60676 0.248,-0.50517 2.6816,-4.30664 1.3008,-2.28277 2.7997,-4.44276 4.2754,-6.61328 0.1798,-0.26628 0.2665,-0.49593 0.2871,-0.67773 0.8842,-1.43991 1.8884,-3.19158 2.6309,-4.48633 0.9281,-1.6778 1.653,-2.96378 2.5332,-4.64844 0.2678,-0.51257 0.5193,-1.03225 0.7832,-1.54687 0.044,-0.0401 0.021,-0.0181 0.068,-0.0606 3.8151,-3.48177 0.3212,-0.23542 3.9571,-3.77734 0.5792,-0.56426 1.1924,-1.09373 1.7617,-1.66797 1.0016,-1.01023 1.9419,-2.10152 2.8691,-3.17969 0.4541,-0.60546 0.3572,-1.0321 0.043,-1.03125 z m -63.9766,1.53711 c -0.1812,0.0493 -0.3983,0.26549 -0.5664,0.68554 -0.208,0.88547 -0.087,1.75704 -0.01,2.64844 0.05,0.57358 0.057,1.15128 0.1425,1.72071 0.1062,0.71185 0.2932,1.4105 0.4297,2.11718 0.1588,0.82198 0.3035,1.64541 0.4551,2.46875 0.8841,3.36247 1.8021,6.71218 2.8184,10.03711 0.3619,1.22663 1.229,0.97077 0.8671,-0.25586 -1.0452,-3.29085 -2.0805,-6.59664 -2.7421,-9.99023 -0.4662,-2.0335 -1.0172,-4.06563 -1.1719,-6.1543 -0.083,-1.11396 0,-0.97467 0.016,-1.9082 10e-4,-0.1221 -0.01,-0.2433 -0.02,-0.36524 l 0.01,0 c 0.28,-0.70008 0.075,-1.0861 -0.2266,-1.0039 z m 39.0254,0.35937 c -0.2027,0.0579 -0.322,0.40327 -0.1582,0.97657 0.018,0.18462 0.053,0.36723 0.053,0.55273 0,0.33544 -0.029,0.67049 -0.039,1.00586 -0.01,0.50375 0.01,1.0085 -0.018,1.51172 -0.038,0.74115 -0.3262,3.85137 -0.4062,4.43555 -0.1236,0.90272 -0.3045,1.79705 -0.4571,2.69531 -0.4403,1.86622 -0.6977,3.77176 -1.1347,5.63867 -0.2095,0.89535 -1.0616,3.8681 -1.3399,4.84961 -0.3137,1.06886 0.4421,1.28957 0.7559,0.2207 0.2367,-0.75061 0.4994,-1.49385 0.7109,-2.25195 0.7648,-2.74055 1.289,-5.54472 1.8652,-8.32813 0.141,-0.90746 0.299,-1.81283 0.4239,-2.72265 0.3102,-2.26016 0.2706,-2.35106 0.4414,-4.49024 0.042,-0.52561 0.1207,-1.04908 0.1347,-1.57617 0.021,-0.76881 -0.06,-1.08012 -0.1796,-1.77344 -0.1638,-0.5733 -0.4497,-0.80205 -0.6524,-0.74414 z m 31.9649,0.88477 c -0.1978,-0.01 -0.4858,0.13958 -0.7911,0.50586 -2.2577,2.51895 -4.7615,4.81191 -7.2578,7.0918 -1.8206,1.50259 -3.6629,2.97261 -5.541,4.40234 -1.0543,0.83042 -0.4664,1.57655 0.5879,0.74609 1.8347,-1.51135 3.7315,-2.94433 5.4863,-4.55078 1.718,-1.54054 3.4086,-3.10486 5.0821,-4.69336 0.7198,-0.68321 1.2589,-1.16278 1.9023,-1.88281 0.1534,-0.17164 0.2877,-0.35939 0.4316,-0.53906 0.5088,-0.61047 0.4292,-1.06408 0.1,-1.08008 z m -25.7129,1.39258 c -0.2093,0 -0.42,0.2967 -0.42,0.88867 0.01,0.20223 0.036,0.40369 0.022,0.60547 -0.054,0.73318 -0.2993,1.83476 -0.4375,2.5 -0.4798,2.30954 -1.1189,4.5654 -1.7422,6.83984 -1.0265,2.71117 -1.9032,5.49417 -3.0918,8.14258 -0.62,1.38146 -1.3576,2.70837 -2.0234,4.06836 -0.1876,0.37671 -0.2102,0.66109 -0.1465,0.83594 -0.027,0.0563 -0.019,0.0413 -0.049,0.10156 -0.2391,0.48934 -0.5126,0.96097 -0.7539,1.44922 -0.7924,1.60379 -0.3114,0.7026 -0.9063,2.05273 -0.073,0.16491 -0.1582,0.32274 -0.2382,0.48438 -0.532,1.06399 0.2199,1.44094 0.7519,0.37695 0.09,-0.16638 0.1955,-0.32614 0.2695,-0.5 0.1224,-0.28762 0.1901,-0.59581 0.3184,-0.88086 0.018,-0.0412 0.042,-0.0802 0.061,-0.12109 -0.1623,1.07646 -0.2938,1.94494 -0.541,3.26953 -0.116,0.62153 -0.279,1.2344 -0.375,1.85937 -0.1804,1.17778 -0.1421,2.37811 -0.3457,3.55274 0,1.26131 0.8926,1.26131 0.8926,0 0.02,-0.60083 0.036,-1.33094 0.1133,-1.91016 0.067,-0.50321 0.1846,-0.99909 0.2676,-1.5 0.3388,-2.05154 0.6744,-4.10397 0.9843,-6.16015 0.065,-0.41454 0,-0.69173 -0.1113,-0.8379 0.1348,-0.25422 0.2756,-0.50662 0.3965,-0.76757 1.5326,-3.30637 -0.134,-0.19432 1.7617,-3.55664 0.3537,-0.62504 0.7068,-1.24996 1.0606,-1.875 0.3439,-0.61893 0.2195,-1.00416 -0.057,-1.00391 0.954,-2.24127 1.7871,-4.53229 2.4785,-6.86914 1.0706,-3.29675 2.0892,-6.67274 2.2793,-10.15625 0,-0.59197 -0.2087,-0.88867 -0.4179,-0.88867 z m -47.0821,0.0703 c -0.1926,0 -0.3867,0.27344 -0.3867,0.81836 -0.188,1.91516 0.4644,3.80838 0.8985,5.64453 1.3126,5.55096 -0.2198,-0.23029 1.4414,5.79883 0.8139,3.32744 1.9577,6.5589 3.0566,9.79883 0.4192,1.21197 1.2766,0.91509 0.8574,-0.29688 -0.3854,-1.03329 -0.8091,-2.05283 -1.1562,-3.09961 -0.7238,-2.18334 -1.2058,-4.4414 -1.9746,-6.61133 -0.749,-2.61337 -1.4704,-5.21699 -1.9102,-7.90429 -0.089,-0.54241 -0.1301,-1.09193 -0.2031,-1.63672 -0.048,-0.36444 -0.1062,-0.72807 -0.1602,-1.0918 -0.026,-0.20084 -0.052,-0.40072 -0.078,-0.60156 0,-0.54492 -0.1921,-0.81836 -0.3848,-0.81836 z m 80.5039,0.31055 c -0.1852,0.0236 -0.4292,0.20723 -0.6523,0.59765 -0.1429,0.16103 -0.3031,0.30877 -0.4277,0.48438 -0.1917,0.27026 -0.3236,0.57901 -0.5176,0.84765 -0.2651,0.367 -0.5773,0.69906 -0.8574,1.05469 -0.3578,0.45407 -0.6898,0.92671 -1.0547,1.375 -0.9224,1.13306 -1.8931,2.22642 -2.8321,3.3457 -0.5754,0.58391 -2.9234,2.97986 -3.5214,3.5293 -0.5865,0.53875 -1.2132,1.02973 -1.8204,1.54492 -1.0221,0.93111 -0.3638,1.65377 0.6583,0.72266 1.8304,-1.6918 3.6194,-3.42155 5.3417,-5.22461 0.9441,-1.12744 1.8636,-2.2751 2.8262,-3.38672 0.3844,-0.44383 0.8243,-0.83993 1.1856,-1.30273 0.2879,-0.36882 0.4933,-0.79629 0.7558,-1.1836 0.3196,-0.47152 0.6902,-0.90614 1,-1.38476 0.3719,-0.65071 0.2247,-1.05896 -0.084,-1.01953 z m -63.3261,2.50781 c -0.208,-0.0594 -0.5,0.17354 -0.668,0.76172 -0.3548,2.89079 -0.063,5.8028 0.2207,8.6875 0.3063,2.40184 0.1486,1.23777 0.4688,3.49609 0.041,0.29273 0.1237,0.50213 0.2207,0.64258 0.2982,1.5475 0.476,3.11702 0.7382,4.66992 0.1276,0.75517 0.3018,1.50248 0.4395,2.25586 0.1504,0.82299 0.2844,1.65004 0.4258,2.47461 0.1402,0.74153 0.8244,4.35175 0.959,5.10352 0.1436,0.80276 0.245,1.61347 0.4101,2.41211 0.2784,1.3473 0.66,2.59712 1.0371,3.91406 0.2912,1.16898 1.1174,0.9639 0.8262,-0.20508 -0.5422,-2.08104 -1.0478,-4.16449 -1.4356,-6.28125 -0.1551,-0.84721 -0.2605,-1.70316 -0.4238,-2.54883 -0.1644,-0.8509 -0.3741,-1.69272 -0.5605,-2.53906 -0.6083,-3.36837 -1.0392,-6.76495 -1.7344,-10.11719 -0.028,-0.12448 -0.065,-0.22648 -0.1035,-0.32031 -0.1761,-1.33675 -0.1256,-0.95756 -0.4043,-3.04297 -0.1726,-2.78186 -0.5541,-5.57768 -0.252,-8.36328 0.1681,-0.58818 0.044,-0.94059 -0.164,-1 z m 54.705,3.44922 c -0.2051,-0.0684 -0.5077,0.1541 -0.7011,0.73437 -0.7842,1.61311 -1.8826,3.0292 -2.9707,4.44336 -2.0159,2.62004 -1.3286,1.74042 -3.5821,4.42774 -3.6857,4.62373 -0.4359,0.60007 -4.289,5.21484 -0.7038,0.84285 -1.3777,1.71079 -2.0918,2.54492 -1.296,1.51407 -2.1827,2.42106 -3.5137,3.82813 -0.8448,0.91371 -0.1984,1.51135 0.6465,0.59765 2.2065,-2.42199 1.0461,-1.13158 3.4863,-3.88867 0.7306,-0.82552 1.4811,-1.63347 2.1914,-2.47656 0.7378,-0.87574 1.4271,-1.79193 2.1504,-2.67969 0.5994,-0.73559 1.2086,-1.4631 1.8145,-2.19336 -1.298,1.87848 -2.6592,3.71148 -3.916,5.6211 -0.5479,0.7561 -1.1077,1.50556 -1.6446,2.26953 -1.6234,2.31004 -3.1232,4.73238 -5.0117,6.84179 -0.769,0.92287 -0.1639,1.46476 0.5957,0.64063 0.059,0.24476 0.4334,0.28303 0.9336,-0.14063 l 1.0508,-0.88672 c 4.3933,-4.28633 8.6802,-8.68598 12.5039,-13.49804 1.6094,-1.71678 3.1949,-3.43431 4.7148,-5.23047 0.4962,-0.58648 1.0256,-1.14608 1.4825,-1.76367 0.1205,-0.16282 0.2138,-0.34533 0.3203,-0.51758 0.4671,-1.16775 -0.3591,-1.49783 -0.8262,-0.33008 -0.4541,0.75436 -1.1355,1.32582 -1.7012,1.98633 -0.4042,0.472 -0.7661,0.97967 -1.164,1.45703 -0.8427,1.01101 -2.578,2.96753 -3.3965,3.89648 -3.4426,4.0013 -0.6639,0.82452 -4.3574,4.89063 -0.771,0.84878 -1.5126,1.726 -2.2969,2.5625 -0.7433,0.79273 -1.5276,1.54512 -2.2852,2.32422 -2.6656,2.74135 -1.3043,1.45199 -3.5215,3.46094 0.7544,-1.00333 1.4675,-2.03974 2.2012,-3.05664 2.618,-3.62862 0.4946,-0.52547 3.0918,-4.41602 0.9717,-1.47281 2.077,-2.85182 3.082,-4.30078 0.7323,-1.05577 1.4163,-2.14447 2.1329,-3.21094 0.404,-0.63402 0.2858,-1.04881 -0.016,-1.04687 1.0903,-1.36703 2.1644,-2.74509 3.1797,-4.17578 0.3602,-0.50743 1.2066,-1.7059 1.5606,-2.33204 0.1061,-0.18768 0.1785,-0.39337 0.2675,-0.58984 0.1934,-0.58027 0.084,-0.93943 -0.1211,-1.00781 z m 12.7754,1.82031 c -0.1975,-0.01 -0.486,0.13786 -0.791,0.50391 -0.1335,0.19064 -0.2669,0.38162 -0.4004,0.57226 -0.2258,0.28014 -0.4665,0.54717 -0.6758,0.83985 -0.2872,0.40167 -0.5129,0.84614 -0.8105,1.24023 -0.3728,0.49371 -0.7995,0.94414 -1.1973,1.41797 -0.3788,0.45136 -0.2705,0.31705 -0.4609,0.54492 0.015,-0.0248 0.034,-0.0474 0.049,-0.0723 0.5919,-1.18382 -0.246,-1.6018 -0.8379,-0.41797 -0.915,1.5726 -2.1057,2.94737 -3.33,4.2832 -2.0008,2.18321 -1.8843,2.02816 -4.0606,4.26758 -2.797,2.74521 -2.2943,2.27388 -5.1933,5.03125 -0.8945,0.85081 -1.7676,1.72616 -2.6915,2.54492 -0.8571,0.75954 -1.7702,1.4525 -2.6484,2.1875 -1.5777,1.32039 -1.8872,1.6177 -2.166,1.84375 0.1473,-0.51894 -0.3485,-0.6837 -0.9238,0.002 -0.5535,0.64921 -2.022,2.37872 -2.5391,2.94336 -3.9184,4.27904 0.6022,-0.88328 -3.3164,3.64844 -1.3071,1.51005 -1.7458,2.02329 -2.9863,3.42773 0.3611,-0.69504 0.7081,-1.39711 1.0039,-2.11718 0.1705,-0.41491 0.2964,-0.84568 0.4375,-1.27149 0.1042,-0.31454 0.2228,-0.62635 0.2968,-0.94922 0.049,-0.21266 0.048,-0.43346 0.072,-0.65039 0.1417,-1.13338 -0.6611,-1.23299 -0.8027,-0.0996 -0.2466,0.45849 -0.1742,0.99368 -0.3242,1.47461 -0.1278,0.41006 -0.3268,0.79421 -0.5039,1.18555 -0.8471,1.87235 -1.839,3.65213 -2.8536,5.4375 -0.1038,0.19395 -0.2231,0.37825 -0.33,0.57031 -0.1243,0.14985 -0.2592,0.29009 -0.3887,0.43555 -0.15,0.22505 -0.2238,0.41644 -0.2637,0.58594 -0.3482,0.40426 -0.6993,0.80587 -1.0488,1.20898 -1.3867,1.59626 -2.7431,3.21761 -4.1289,4.81445 -0.2855,0.32888 -0.5855,0.64548 -0.8613,0.98243 -0.186,0.22716 -0.4835,0.41813 -0.5235,0.70898 0,0.0192 0,0.0376 0,0.0566 -0.093,0.0898 -0.2566,0.24661 -0.1426,0.13867 0.057,0.022 0.1121,0.0598 0.168,0.0918 0.062,0.22036 0.1983,0.43454 0.2676,0.6543 0.3313,-0.15125 0.081,-0.004 0.4336,-0.42188 0.02,-0.0236 0.042,-0.0449 0.062,-0.0684 0.1071,-0.0675 0.1923,-0.17181 0.2676,-0.29297 0.041,-0.0458 0.083,-0.0912 0.125,-0.13672 -0.5892,0.8753 0.045,1.31745 0.7558,0.40235 0.5728,-0.69204 1.1797,-1.35765 1.7188,-2.07617 1.2638,-1.68421 2.3138,-3.50541 3.4238,-5.28907 0.902,-0.99541 1.7477,-2.04157 2.6602,-3.02734 1.1938,-1.28966 2.4533,-2.51664 3.6757,-3.7793 0.6014,-0.62467 0.4748,-1.09951 0.057,-1.04297 0.1175,-0.13584 0.2346,-0.27191 0.3515,-0.4082 6.0311,-6.46342 -2.4446,2.68458 3.2598,-3.6875 0.5911,-0.66029 0.8094,-0.88513 1.0332,-1.11914 0.1438,-0.0486 0.3,-0.12201 0.4805,-0.25586 0.5865,-0.47863 1.1642,-0.96817 1.7597,-1.43555 0.782,-0.61366 1.6043,-1.17663 2.3731,-1.80664 0.8907,-0.72985 1.7298,-1.52137 2.6035,-2.27148 0.9423,-0.80896 1.9364,-1.55839 2.8438,-2.40625 0.9086,-0.84899 1.725,-1.79175 2.5976,-2.67774 0.8288,-0.84157 1.6703,-1.66899 2.5059,-2.5039 0.3723,-0.36652 0.2908,-0.287 0.541,-0.53125 0.1506,0.14426 0.5078,0.0889 0.9355,-0.31641 1.4652,-1.46029 3.0304,-2.8175 4.3653,-4.40429 0.4064,-0.45933 2.5191,-2.83195 2.9414,-3.35938 1.0566,-1.31956 1.9533,-2.76763 3.0312,-4.07227 0.5085,-0.61007 0.4289,-1.06213 0.1,-1.07812 z m -21.5254,0.60938 c -0.1925,0.0169 -0.4505,0.19902 -0.6972,0.59374 -0.5568,1.06518 -1.3572,1.96845 -2.0508,2.93946 -0.4013,0.5618 -0.7557,1.15676 -1.1621,1.71484 -0.5846,0.80246 -2.7482,3.524 -3.291,4.21094 -2.2909,3.10129 -4.8033,6.01901 -7.3223,8.93359 -0.8203,0.96158 -0.1387,1.54166 0.6816,0.58008 2.5137,-2.93524 5.0112,-5.88552 7.3633,-8.95312 2.2392,-2.93835 4.5728,-5.81796 6.5254,-8.96094 0.4112,-0.65788 0.274,-1.08678 -0.047,-1.05859 z m 29.125,0.23828 c -0.1902,-0.0267 -0.4814,0.0927 -0.8085,0.41992 -0.1229,0.13934 -0.2579,0.26917 -0.3692,0.41797 -0.179,0.23941 -0.3258,0.50118 -0.5,0.74414 -0.4788,0.66779 -1.3087,1.71915 -1.7891,2.31836 -0.4296,0.53584 -0.8442,1.0845 -1.3007,1.59765 -0.5227,0.58759 -1.088,1.13594 -1.6328,1.70313 -1.7097,2.0531 -3.7242,3.81839 -5.7344,5.5664 -0.6285,0.54657 -1.2504,1.10082 -1.9024,1.61915 -0.8842,0.70288 -2.3147,1.68028 -3.2734,2.34765 -0.7903,0.5539 -0.5988,1.09983 0.027,0.90235 -4.3555,3.56684 -8.7335,7.10577 -13.1738,10.5664 0.089,-0.14819 0.1819,-0.29421 0.2676,-0.44336 4.3897,-3.92223 8.7928,-7.82912 13.0898,-11.85351 2.8464,-2.68573 5.701,-5.36212 8.4414,-8.1543 0.8451,-0.84512 0.2475,-1.44277 -0.5976,-0.59766 -2.0426,1.99158 -4.0526,4.02757 -6.1426,5.97071 -0.7679,0.71394 -1.5625,1.39837 -2.3437,2.09765 -2.4974,2.4962 -5.1679,4.80725 -7.7735,7.1875 -0.8029,0.73349 -1.5869,1.48727 -2.4004,2.20899 -0.5393,0.47848 -1.4876,1.25992 -2.3632,1.98828 -0.1402,0.0199 -0.3044,0.14423 -0.459,0.38672 -0.2805,0.23277 -0.5986,0.50554 -0.8106,0.68164 l -0.8867,0.62304 c -0.9942,0.6544 -0.5924,1.34007 0.3496,0.81055 -1.425,2.08321 -3.0017,4.06268 -4.5019,6.0918 -2.1205,3.05091 -4.5413,5.87634 -6.9864,8.66797 -0.7966,0.90013 -0.1599,1.46458 0.6367,0.56445 2.4772,-2.80059 4.8742,-5.6638 7.0782,-8.6875 3.4577,-4.39499 -0.073,0.19811 2.8769,-3.9375 0.3678,-0.51579 0.7875,-0.99406 1.1582,-1.50781 0.2273,-0.31505 0.4422,-0.64233 0.6582,-0.96875 0.1406,0.18063 0.5353,0.16579 1.0489,-0.22852 0.8128,-0.59668 1.6446,-1.17053 2.4394,-1.79101 0.9476,-0.73981 1.8576,-1.52649 2.7871,-2.28907 0.9632,-0.79034 5.3421,-4.37329 6.2559,-5.14062 1.0297,-0.86465 2.027,-1.76538 3.0625,-2.62305 0.9643,-0.79875 1.9572,-1.56403 2.9355,-2.3457 9.9245,-8.62218 -4.1261,3.53882 4.7227,-3.98242 0.5959,-0.50648 1.1534,-1.05884 1.75,-1.56446 0.9905,-0.83948 2.0557,-1.59487 3.043,-2.43945 0.8573,-0.85728 0.2498,-1.46274 -0.6075,-0.60547 -0.2032,0.14141 -0.4128,0.27321 -0.6093,0.42383 -1.1732,0.89909 -1.0773,0.91376 -2.2383,1.92187 0.2705,-0.29629 0.5464,-0.58894 0.8086,-0.89257 0.5581,-0.57384 1.1348,-1.12888 1.6738,-1.72071 0.4682,-0.51411 0.9166,-1.04659 1.3457,-1.59375 0.8043,-1.02558 0.9644,-1.43814 1.7324,-2.38671 0.1804,-0.22281 0.4038,-0.40832 0.5821,-0.63282 0.098,-0.12315 0.1611,-0.27133 0.2421,-0.40625 0.5454,-0.54529 0.5085,-0.99074 0.1914,-1.03515 z m -83.8906,2.81836 c -0.2074,0 -0.416,0.2923 -0.416,0.8789 0.01,1.57693 0.5005,3.07996 0.8828,4.59375 0.1785,0.7068 0.3067,1.42758 0.5313,2.1211 0.2563,0.79158 0.6051,1.54932 0.9082,2.32421 0.2275,0.62593 0.468,1.24905 0.7207,1.86719 -0.2837,1.50543 -0.544,3.01752 -0.6426,4.54883 -0.093,1.44428 -0.046,2.50756 -0.023,3.95898 0.2836,2.93241 0.6022,5.93085 1.8691,8.63086 0.1625,0.34631 0.371,0.66943 0.5566,1.00391 0.5325,1.0167 1.2512,0.63975 0.7188,-0.37695 -0.7166,-1.36365 -0.3566,-0.56522 -0.9297,-2.19727 -0.1724,-0.4912 -0.3852,-0.96826 -0.5215,-1.4707 -0.4956,-1.82747 -0.6187,-3.74754 -0.7832,-5.62305 -0.022,-0.65679 -0.066,-1.31353 -0.066,-1.9707 0,-1.23555 0.1021,-2.31848 0.2188,-3.54102 0.057,-0.59612 0.1131,-1.08856 0.1953,-1.59375 0.5924,1.3276 1.2422,2.62933 1.9687,3.88477 0.6314,1.09096 1.3523,2.13146 2.0918,3.15625 -0.082,0.68169 -0.095,1.36133 -0.088,2.06836 0.015,2.77862 0.3643,5.50275 0.7188,8.2539 0.1914,1.11882 0.3829,2.2386 0.5742,3.35743 0.1874,1.1207 0.9803,0.98788 0.793,-0.13282 -0.1786,-1.11026 -0.3567,-2.21981 -0.5352,-3.33008 -0.4311,-3.23689 -0.4435,-2.79528 -0.5976,-5.88671 -0.053,-1.06137 -0.083,-2.13037 -0.035,-3.19336 0.1235,0.16523 0.2413,0.33557 0.3652,0.5 0.8024,0.98971 1.5017,0.42329 0.6992,-0.56641 -0.3163,-0.38544 -0.648,-0.75741 -0.9472,-1.15625 -0.01,-0.009 -0.01,-0.013 -0.016,-0.0215 0.044,-0.35918 0.091,-0.71829 0.166,-1.07422 0.4405,-1.02789 -0.2861,-1.33843 -0.7266,-0.31055 -0.045,0.12684 -0.087,0.25475 -0.1348,0.38086 -0.5077,-0.74946 -0.9362,-1.4445 -1.541,-2.4707 -0.422,-0.71612 -0.8677,-1.41819 -1.25,-2.15625 -0.4791,-0.92491 -0.8424,-1.75347 -1.1855,-2.5918 0.011,-0.0317 0.022,-0.0638 0.033,-0.0957 0.215,-0.86024 -0.1247,-1.22708 -0.4668,-0.99414 -0.1461,-0.37098 -0.283,-0.70959 -0.4453,-1.11719 -0.6733,-1.86865 -0.9575,-2.49671 -1.4219,-4.375 -0.1422,-0.57526 -0.2211,-1.16414 -0.3516,-1.74219 -0.097,-0.42894 -0.25,-0.84497 -0.33,-1.27734 -0.085,-0.45593 -0.024,-0.93221 -0.1426,-1.38477 0,-0.5866 -0.2067,-0.8789 -0.4141,-0.8789 z m 52.3653,4.18359 c -0.175,-0.002 -0.4229,0.13856 -0.6797,0.47266 -1.7605,2.17038 -3.4774,4.37616 -5.2305,6.55273 -2.828,3.51711 -5.6201,7.0658 -8.5488,10.5 -0.8517,0.85172 -0.2482,1.45524 0.6035,0.60352 0.2346,-0.24204 0.4887,-0.46653 0.7031,-0.72657 0.342,-0.41465 0.6288,-0.87392 0.9629,-1.29492 1.5868,-1.9995 1.3637,-1.53676 3.1094,-3.69141 5.1203,-6.31979 -1.5452,1.62623 3.8965,-4.80273 1.1191,-1.6501 2.5094,-3.08557 3.7207,-4.66211 0.4961,-0.64576 0.9409,-1.32994 1.4121,-1.99414 0.428,-0.55683 0.3424,-0.95435 0.051,-0.95703 z m -37.0743,1.16797 c -0.1981,0.022 -0.365,0.3244 -0.3027,0.88476 0.01,0.24879 0.01,0.49782 0.025,0.7461 0.069,0.94422 0.2034,1.884 0.2734,2.82812 0.1799,2.41894 0.316,4.84356 0.4844,7.26367 0.034,0.95176 0.066,1.90385 0.1035,2.85547 0.141,3.50567 0.1383,2.14425 0.1543,5.57032 0.01,1.99864 -0.01,3.9834 0.088,5.97851 -0.1875,-1.02497 -0.383,-2.04846 -0.6035,-3.06641 -0.2392,-1.19568 -1.0849,-1.02771 -0.8457,0.16797 0.7013,3.17797 1.2063,6.39867 1.5801,9.63282 0.087,0.72463 0.1727,1.44918 0.2597,2.17382 0.1132,0.6679 0.2589,1.3313 0.3399,2.00391 0.071,0.59413 0.075,1.19388 0.1133,1.79102 0.1235,1.26458 1.018,1.17861 0.8945,-0.0859 -0.1767,-2.00842 -0.4063,-4.01107 -0.6406,-6.01367 -0.3006,-1.89735 -0.6009,-3.79622 -0.9336,-5.68946 0.2287,0.34461 0.6283,0.1304 0.6211,-0.66015 0.1539,-2.82402 0.084,-0.53619 -0.01,-3.76953 -0.1062,-3.64486 -0.026,-7.295 -0.2617,-10.93555 -0.065,-1.12585 -0.224,-4.00039 -0.3262,-5.18555 -0.06,-0.70111 -0.1626,-1.39861 -0.2246,-2.09961 -0.084,-0.95443 -0.087,-1.91399 -0.1836,-2.86718 -0.024,-0.24397 -0.08,-0.48455 -0.1191,-0.72657 l 0,0 c -0.062,-0.56039 -0.2921,-0.81888 -0.4903,-0.79687 z m 6.7051,1.13086 c -0.2129,0.009 -0.4137,0.3178 -0.3887,0.91992 0.088,2.97416 0.049,1.47116 0.1211,4.51367 0.046,0.7586 0.1097,1.51593 0.1387,2.27539 0.05,1.31017 0.043,2.62311 0.084,3.9336 0.027,0.87599 0.027,1.79142 0.1562,2.66406 0.039,0.26422 0.1197,0.52094 0.1797,0.78125 0.4154,1.24601 1.2962,0.95109 0.8809,-0.29492 -0.081,-0.22104 -0.1952,-0.43107 -0.2402,-0.66211 -0.069,-0.35536 -0.071,-0.72103 -0.096,-1.08203 -0.134,-1.90981 -0.064,-1.15212 -0.084,-3.26172 -0.017,-1.76898 -0.05,-2.5804 -0.1035,-4.37696 -0.1224,-3.0466 -0.062,-1.53683 -0.1856,-4.52343 -0.025,-0.60212 -0.25,-0.8955 -0.4629,-0.88672 z m -0.7207,0.13281 c -0.1891,-0.0476 -0.4455,0.17209 -0.5801,0.70703 -0.1963,0.78486 -0.3933,1.56866 -0.5898,2.35352 -0.8772,3.41651 -0.3548,1.16639 -0.9981,4.50781 -0.1214,0.62993 -0.2799,1.2532 -0.3808,1.88672 -0.081,0.51089 -0.1,1.02984 -0.166,1.54297 -0.048,0.37482 -0.1348,0.74544 -0.1758,1.12109 -0.024,0.23396 -0.014,0.46986 -0.023,0.70508 0,1.19292 0.8437,1.19292 0.8437,0 0.021,-0.32096 0.099,-1.58125 0.123,-1.73633 0.077,-0.50199 0.2255,-0.99179 0.3125,-1.49219 0.1079,-0.62518 0.1492,-1.26027 0.2715,-1.88281 0.2939,-1.49551 0.7127,-2.96433 1.0645,-4.44726 0.1581,-0.7895 0.3164,-1.57965 0.4746,-2.36915 0.1345,-0.53494 0.013,-0.84892 -0.1758,-0.89648 z m 58.7129,2.91992 c -0.1957,0.0208 -0.4553,0.21073 -0.6992,0.61719 -1.0441,1.95184 -2.7167,3.48716 -4.3809,4.9043 -1.977,1.59089 -1.0157,0.91847 -3.2676,2.29882 -0.6286,0.38532 -1.2359,0.81124 -1.8906,1.1504 -0.6718,0.34803 -1.3873,0.60207 -2.0801,0.90624 -2.7372,1.20184 -1.2549,0.62804 -3.9804,1.57422 l -1.6856,0.59375 c -1.1247,0.35412 -0.8746,1.14905 0.25,0.79493 l 1.7461,-0.53907 c 2.0665,-0.82122 4.2082,-1.53539 6.1719,-2.59179 1.3273,-0.71407 2.4505,-1.53727 3.6875,-2.38672 0.5459,-0.37489 1.0925,-0.74872 1.6387,-1.12305 0.4326,-0.39214 0.8667,-0.78508 1.2988,-1.17773 0.3774,-0.3429 0.7855,-0.65425 1.1309,-1.0293 0.2911,-0.31604 0.5128,-0.68862 0.7695,-1.0332 0.4613,-0.61932 0.9709,-1.21314 1.3574,-1.88282 0.4064,-0.67743 0.2598,-1.1108 -0.066,-1.07617 z m -54.2734,2.22461 c -0.2081,10e-4 -0.4152,0.29543 -0.4102,0.88281 -0.01,0.67711 -0.01,1.35415 -0.02,2.03125 0.069,1.90083 0.1159,3.80093 0.1269,5.70313 0,0.44579 -0.031,0.89259 -0.01,1.33789 0,0.0578 0.1614,1.34546 0.1894,1.57422 l 0.01,0 c 0.1108,0.77573 0.5074,0.97453 0.7168,0.6875 -0.093,0.46536 -0.1877,0.91769 -0.293,1.48047 -0.1497,0.79982 -0.2864,1.60134 -0.4297,2.40234 -0.7149,2.57708 -1.4841,5.13546 -2.3047,7.67773 -0.1707,0.10397 -0.3125,0.39998 -0.3125,0.9043 0,0.0137 0,0.0273 0,0.041 -0.4848,1.47386 -0.9862,2.94305 -1.5117,4.40429 0.04,-0.92187 -0.661,-0.96534 -0.8398,0.10743 -0.2076,2.64087 -0.3116,5.28975 -0.5117,7.93164 l -0.041,1.91015 c -0.018,0.52174 0.1321,0.80958 0.3106,0.88672 0.1574,0.38314 0.6151,0.25616 0.832,-0.55469 0.6927,-2.35544 1.2843,-4.74195 1.7363,-7.15625 0.7431,-4.0388 0.015,0.17073 0.5469,-3.61328 0.069,-0.49316 0.191,-0.97833 0.252,-1.47265 0.086,-0.70052 0.067,-1.40379 0.1035,-2.10547 0.1259,-0.36109 0.2656,-0.71725 0.3809,-1.08203 0.8016,-2.53737 1.4348,-5.13311 2.1191,-7.70313 0.7993,-3.25151 0.4161,-1.4661 0.9785,-4.58008 0.2963,-1.64015 0.616,-3.28698 0.584,-4.96289 -0.1729,-1.21068 -1.0285,-1.08763 -0.8555,0.12305 -0.018,0.17097 -0.036,0.34076 -0.053,0.51172 -0.047,0.32115 -0.1056,0.64229 -0.1426,0.96484 -0.053,0.46605 -0.066,0.93533 -0.1269,1.40039 -0.092,0.70164 -0.1959,1.27646 -0.3067,1.85352 0,-0.0588 0,-0.10838 -0.01,-0.17383 -0.1845,-0.93239 -0.1212,-1.88457 -0.1602,-2.82617 -0.024,-0.56176 -0.099,-1.12155 -0.1152,-1.6836 -0.038,-1.33193 0.011,-2.66365 0.021,-3.99609 l -0.035,-2.02734 c 0,-0.58731 -0.2138,-0.88014 -0.4218,-0.87891 z m 13.2109,0.39844 c -0.1829,0.04 -0.4093,0.2446 -0.5977,0.6543 -0.9243,2.2359 -0.3982,1.11109 -1.5937,3.36914 -1.3302,2.77603 -2.9015,5.45964 -3.9141,8.37304 -0.011,0.0985 -0.01,0.1777 -0.01,0.26172 -0.8097,1.7672 -1.6515,3.5228 -2.4668,5.28711 -2.9233,6.30616 0.8265,-1.72235 -2.1856,4.51758 -0.3464,0.71753 -0.6519,1.45519 -1,2.17187 -0.5353,1.10213 -1.1808,2.27427 -1.7656,3.35938 -0.5738,1.0562 0.1742,1.46049 0.7481,0.4043 1.68,-3.35693 3.4705,-6.65606 5.0273,-10.07422 0.6094,-1.35752 1.2578,-2.81709 1.8906,-4.16797 0.712,-1.51963 0.8426,-1.66694 1.4336,-3.13477 0.1464,-0.36374 0.2601,-0.74161 0.4063,-1.10547 0.092,-0.2292 0.2056,-0.4493 0.3086,-0.67382 0.1017,-0.22888 0.1385,-0.41524 0.1484,-0.57618 0.1288,-0.21446 0.2553,-0.42987 0.373,-0.65039 0.6299,-1.18026 1.2003,-2.39145 1.8067,-3.58398 1.1031,-2.33081 0.586,-1.18946 1.5625,-3.42188 0.314,-0.68281 0.129,-1.07638 -0.1758,-1.00976 z m -17.959,2.00781 c -0.2081,0.0347 -0.3676,0.36449 -0.2695,0.95313 -0.031,1.467 0.042,2.94721 -0.041,4.41211 -0.04,0.70578 -0.1761,1.40315 -0.2071,2.10937 -0.032,0.80814 0.012,1.6188 0.012,2.42774 -0.1085,0.85286 -0.2452,1.70265 -0.3262,2.55859 -0.082,0.85847 -0.079,1.72357 -0.1602,2.58203 -0.1972,2.07904 -0.3885,2.67885 -0.6718,4.70117 -0.5952,4.24887 0.1165,-0.15398 -0.4747,3.38867 -0.1947,1.15966 0.6259,1.29638 0.8204,0.13672 0.3399,-1.59091 0.3851,-1.65472 0.6035,-3.40429 0.094,-0.75247 0.1341,-1.51004 0.2344,-2.26172 0.1106,-0.83018 0.3014,-1.65055 0.3984,-2.48243 0.083,-0.70795 0.3153,-4.45624 0.3613,-5.17187 0.1407,-2.32618 0.1629,-2.32818 0.2149,-4.55664 0.011,-0.58138 0,-1.16307 0.021,-1.74414 0.019,-0.44377 0.083,-0.88441 0.1016,-1.32813 0.027,-0.64673 -0.01,-0.91184 -0.051,-1.50586 l 0,0 c -0.098,-0.58864 -0.3544,-0.84913 -0.5625,-0.81445 z m 20.2363,5.89453 c -0.1976,0.0174 -0.4635,0.20418 -0.7167,0.60938 -0.1361,0.19653 -0.2863,0.38437 -0.4083,0.58984 -1.3231,2.22745 0.4102,-0.41153 -1.2949,2.33008 -0.3411,0.5484 -0.7235,1.06969 -1.0722,1.61328 -2.5987,4.0512 0.2911,-0.27392 -2.5801,3.9668 -1.8433,2.60356 -3.6833,5.19925 -5.6485,7.71289 -0.7647,0.96632 -0.083,1.50734 0.6817,0.54101 1.9412,-2.55767 3.8116,-5.16223 5.666,-7.7832 1.8863,-2.77987 3.6929,-5.61047 5.4199,-8.49219 0.4221,-0.67533 0.2825,-1.11682 -0.047,-1.08789 z m 17.668,3.41797 c -0.2033,-0.0581 -0.49,0.17114 -0.6543,0.74609 -1.2977,2.80994 -3.5102,5.09215 -5.5703,7.35352 -3.5698,4.01081 -7.6943,7.4693 -11.709,11.01758 -0.9288,0.81242 -0.3547,1.46867 0.5742,0.65625 3.594,-2.97835 1.0314,-0.78115 4.7383,-4.17383 0.8581,-0.78538 1.7488,-1.53434 2.5918,-2.33594 1.1583,-1.10148 3.3285,-3.3761 4.4746,-4.56445 1.894,-2.13278 1.4551,-1.57096 3.0977,-3.65234 0.3207,-0.40627 1.5722,-2.00011 1.8945,-2.54102 0.2884,-0.48386 0.4147,-1.05202 0.7227,-1.52734 0.1642,-0.57496 0.043,-0.92044 -0.1602,-0.97852 z m -46.9473,6.44922 c -0.2082,-0.0208 -0.4469,0.25282 -0.5058,0.8418 -0.051,0.26438 -0.1424,0.5238 -0.1524,0.79297 -0.015,0.42875 0.055,0.85517 0.084,1.2832 0.1952,2.90131 0.6618,5.74862 1.1621,8.61133 0.6895,3.15899 0.3158,1.61308 1.1133,4.63476 0.2759,1.11586 1.0649,0.92054 0.7891,-0.19531 -0.6993,-3.00573 -0.356,-1.47207 -1.0332,-4.59766 -0.172,-0.80376 -0.3771,-1.60189 -0.5156,-2.41211 -0.1317,-0.77101 -0.199,-1.55166 -0.293,-2.32812 -0.2305,-1.89128 -0.4836,-3.7983 -0.3203,-5.70703 0.059,-0.58898 -0.1199,-0.90301 -0.3282,-0.92383 z m 19.3555,6.78125 c -0.17,0.0314 -0.384,0.21535 -0.5703,0.58789 -0.1767,0.24024 -0.4003,0.45279 -0.5312,0.7207 -0.1905,0.38972 -0.2522,0.8321 -0.4239,1.23047 -0.2208,0.51244 -0.5252,0.9854 -0.75,1.4961 -0.2669,0.60636 -0.469,1.23952 -0.7226,1.85156 -0.6008,1.45003 -1.2194,2.7524 -1.877,4.17969 l -1.041,2.13867 c -0.3064,0.68779 -0.595,1.38236 -0.918,2.0625 -0.6969,1.46741 -0.9797,1.91462 -1.7441,3.26367 -0.5352,0.99585 0.1699,1.3728 0.7051,0.37695 1.3391,-2.45613 2.7148,-4.90392 3.8066,-7.48242 3.5039,-8.24134 -1.5475,3.59141 1.8379,-4.19726 0.2641,-0.60769 0.4904,-1.23231 0.7637,-1.83594 0.228,-0.50358 0.5087,-0.98242 0.7402,-1.48438 0.1793,-0.3887 0.3265,-0.792 0.4902,-1.1875 l 0.3653,-0.78125 c 0.3104,-0.6209 0.1525,-0.99177 -0.1309,-0.93945 z m -8.5351,3.22461 c -0.1726,1.31772 -0.3977,2.63055 -0.627,3.93555 -0.346,1.65748 -0.7419,3.30296 -1.1641,4.9414 0.1409,-1.71045 0.2877,-3.42325 0.3516,-5.13867 0.018,-0.41005 0,-0.82257 0.018,-1.23242 0.01,-0.1255 0.024,-0.25 0.037,-0.375 0.1832,0.21951 0.5734,0.063 0.8379,-0.62109 0.1706,-0.50753 0.3621,-1.00725 0.5469,-1.50977 z m 15.3144,2.22656 c -0.187,-0.0262 -0.4733,0.0905 -0.7949,0.41211 -0.2075,0.19729 -0.424,0.38604 -0.6231,0.5918 -0.3097,0.31999 -0.598,0.65931 -0.9023,0.98437 -0.8689,0.92809 -1.7901,1.84964 -2.6191,2.8125 -0.5028,0.58396 -0.9663,1.20016 -1.461,1.79102 -0.5183,0.61924 -1.0517,1.22538 -1.5781,1.83789 -1.3227,1.76558 -2.7258,3.46831 -4.0977,5.19531 -0.7074,0.88313 -0.082,1.38312 0.625,0.5 0.4377,-0.48279 0.8967,-0.94545 1.3125,-1.44726 0.9898,-1.19487 1.8208,-2.51626 2.8731,-3.66211 2.2802,-2.73493 4.5148,-5.51452 7.0762,-7.99805 0.536,-0.53608 0.5011,-0.97391 0.1894,-1.01758 z m -22.959,4.63281 c -0.2163,0.0721 -0.3309,0.45054 -0.1269,1.0625 0.6677,2.26413 1.2555,4.56299 1.7363,6.875 0.4755,2.05503 0.16,1.07721 0.9316,2.93946 0.3315,1.09453 1.105,0.86015 0.7735,-0.23438 -0.5615,-1.89107 -0.2779,-0.91949 -0.8535,-2.91015 -0.1472,-0.52979 -0.3093,-1.05609 -0.4414,-1.58985 -0.8479,-3.42556 0.1633,0.26789 -0.6524,-2.91797 -0.4309,-1.68431 -0.1926,-0.49795 -0.5215,-1.91601 -0.041,-0.17696 -0.072,-0.35701 -0.1074,-0.53516 -0.204,-0.61196 -0.5219,-0.84556 -0.7383,-0.77344 z m 9.2852,1.77735 c -0.1819,0.0495 -0.3978,0.26795 -0.5664,0.68945 -0.1713,0.36938 -0.4039,0.7051 -0.5899,1.06641 -0.1654,0.32145 -0.305,0.65528 -0.4668,0.97851 -1.4542,2.90343 0.3117,-0.70648 -1.3144,2.4336 -0.2325,0.4489 -0.4388,0.9098 -0.6582,1.36523 -0.6476,1.7077 -0.2823,0.91489 -1.0645,2.39258 -0.5237,1.18771 0.3162,1.5588 0.8399,0.37109 0.624,-1.53474 0.2755,-0.74369 1.0586,-2.37304 0.5814,-1.24984 0.6487,-1.43584 1.2832,-2.64844 0.2018,-0.38564 0.4282,-0.75723 0.623,-1.14649 0.3556,-0.71089 0.6453,-1.45224 1.084,-2.12109 0.281,-0.7025 0.075,-1.0903 -0.2285,-1.00781 z"
           id="path14324-3"
           inkscape:connector-curvature="0" />
      </g>
    </g>
  </g>
</svg>
