<?xml version="1.0" encoding="UTF-8" standalone="no"?>
<!-- Created with Inkscape (http://www.inkscape.org/) -->

<svg
   xmlns:dc="http://purl.org/dc/elements/1.1/"
   xmlns:cc="http://creativecommons.org/ns#"
   xmlns:rdf="http://www.w3.org/1999/02/22-rdf-syntax-ns#"
   xmlns:svg="http://www.w3.org/2000/svg"
   xmlns="http://www.w3.org/2000/svg"
   xmlns:sodipodi="http://sodipodi.sourceforge.net/DTD/sodipodi-0.dtd"
   xmlns:inkscape="http://www.inkscape.org/namespaces/inkscape"
   width="210mm"
   height="297mm"
   viewBox="0 0 744.09448819 1052.3622047"
   id="svg8089"
   version="1.1"
   inkscape:version="0.91 r13725"
   sodipodi:docname="face03.svg">
  <defs
     id="defs8091" />
  <sodipodi:namedview
     id="base"
     pagecolor="#ffffff"
     bordercolor="#666666"
     borderopacity="1.0"
     inkscape:pageopacity="0.0"
     inkscape:pageshadow="2"
     inkscape:zoom="0.24748737"
     inkscape:cx="246.60137"
     inkscape:cy="542.01892"
     inkscape:document-units="px"
     inkscape:current-layer="layer1"
     showgrid="false"
     inkscape:window-width="464"
     inkscape:window-height="595"
     inkscape:window-x="900"
     inkscape:window-y="7"
     inkscape:window-maximized="0" />
  <metadata
     id="metadata8094">
    <rdf:RDF>
      <cc:Work
         rdf:about="">
        <dc:format>image/svg+xml</dc:format>
        <dc:type
           rdf:resource="http://purl.org/dc/dcmitype/StillImage" />
        <dc:title></dc:title>
      </cc:Work>
    </rdf:RDF>
  </metadata>
  <g
     inkscape:label="Layer 1"
     inkscape:groupmode="layer"
     id="layer1">
    <path
       style="display:inline;fill:#e60464;fill-opacity:1;fill-rule:evenodd;stroke:none;stroke-width:1px;stroke-linecap:butt;stroke-linejoin:miter;stroke-opacity:1"
       d="m 564.45801,252.81528 c 67.60788,33.31177 69.8705,128.01864 75.57672,208.11448 29.05316,90.64284 -10.49001,196.54999 -61.02901,285.51119 C 514.92114,860.47521 383.84211,957.74968 288.96324,903.1142 202.61463,847.51437 97.540992,797.78441 72.472066,670.33398 42.127127,585.98312 1.0984483,478.22446 71.468165,378.54088 119.08908,283.99151 194.84749,216.56443 264.39149,147.96863 c 81.41508,-49.821601 146.80964,27.71506 220.83148,35.12578 32.719,12.80297 60.83109,36.18242 79.23504,69.72087 z"
       id="path13459-4"
       inkscape:connector-curvature="0" />
    <path
       style="display:inline;opacity:1;fill:#000000"
       d="m 189.65373,175.26924 c -7.3688,0 -14.97595,0.67001 -19.16083,2.02865 -3.15657,1.02336 -7.57325,1.86118 -9.8186,1.86118 -2.24463,0 -4.37835,0.446 -4.73857,0.9899 -0.35784,0.54394 -2.4388,1.29921 -4.61944,1.68072 -3.72465,0.64968 -13.32132,5.6479 -20.03574,10.44011 -1.64919,1.17284 -5.63681,3.56247 -8.86013,5.3025 -4.80262,2.59582 -12.70563,8.61761 -16.48302,12.5616 -1.78716,1.86632 -11.719445,10.7649 -18.13218,16.2453 -3.921205,3.35117 -7.374284,7.39568 -7.975629,9.33935 -1.025579,3.33048 -0.961518,3.40532 2.122757,2.5701 1.748824,-0.47496 5.073827,-1.91012 7.393465,-3.19134 2.319653,-1.28377 7.712646,-3.15773 11.985527,-4.17091 9.20081,-2.1782 10.37298,-2.71441 19.73167,-9.05064 3.94858,-2.67316 9.34673,-5.39014 11.99645,-6.03722 2.64668,-0.64751 8.63515,-2.87167 13.30421,-4.94426 10.44799,-4.63484 16.6998,-6.02939 27.2053,-6.0629 11.31776,-0.0494 21.26952,3.29179 29.57766,9.89361 3.6551,2.90257 8.80154,6.47289 11.43928,7.93188 2.63574,1.45908 5.22966,3.31246 5.75873,4.11935 1.21939,1.85089 12.06875,7.01926 14.73459,7.01926 1.10023,0 3.67738,0.93835 5.73369,2.09066 2.43333,1.36108 8.36908,2.57265 17.01821,3.46977 11.46193,1.19348 13.75895,1.15484 16.77955,-0.28798 2.08681,-0.99241 8.83446,-1.97217 16.68816,-2.41288 11.78928,-0.66235 13.57372,-0.51577 16.87407,1.4126 4.16263,2.4283 7.33013,7.88561 9.81037,16.91299 3.67739,13.37111 4.24,19.20197 2.79907,28.98733 -1.5492,10.52521 -2.24196,18.78446 -3.20108,38.14633 -0.35819,7.18177 -1.13038,16.71446 -1.72072,21.18431 -0.59036,4.46997 -1.26087,11.99711 -1.4855,16.72486 -0.21912,4.73279 -0.72079,8.88568 -1.09166,9.23106 -0.36986,0.34738 -0.47497,3.14749 -0.21916,6.22541 0.2501,3.07785 -0.0479,6.48565 -0.69273,7.5735 -1.56287,2.71706 -4.37561,25.87595 -6.623,54.53077 -0.29792,3.84871 -0.85642,7.46282 -1.23891,8.03507 -0.38111,0.57214 0.13684,2.89744 1.16668,5.16849 1.02009,2.27353 1.57379,4.95974 1.22761,5.97018 -0.77251,2.27106 -1.78751,25.32935 -1.64332,37.38321 0.16428,14.26811 0.0479,17.15016 -1.37968,30.10617 -0.73758,6.74352 -1.36941,12.76531 -1.40501,13.37878 -0.0479,0.61301 0.3082,7.88808 0.76707,16.16794 0.45818,8.27738 0.8119,15.55195 0.80163,16.16533 -0.16428,5.58617 0.0477,20.26154 0.41331,31.21975 0.5955,17.49043 0.50816,17.75082 -5.78096,16.76084 -12.98882,-2.04674 -12.12931,-2.12405 -13.83942,1.26572 -0.87597,1.73753 -1.98988,3.91059 -2.47752,4.83088 -1.18036,2.24012 -4.80808,2.62163 -10.74966,1.13421 -11.81052,-2.95933 -14.72327,-20.0192 -5.42858,-31.79712 1.45228,-1.838 2.98189,-4.68649 3.39728,-6.32339 0.41364,-1.63959 2.10629,-4.47249 3.75238,-6.29243 3.60819,-3.98786 3.84928,-7.50911 0.62835,-9.11245 -5.62823,-2.79953 -16.69363,6.13769 -20.6925,16.71183 -3.4305,9.07644 -6.29908,24.93504 -5.84742,32.33591 0.5688,9.31102 9.50559,19.41607 20.64874,23.35749 9.29773,3.28662 26.77586,3.21708 35.48565,-0.15424 l 6.2963,-2.4283 12.30635,2.45672 c 9.05702,1.80708 12.81213,3.0727 14.22228,4.79728 1.64095,2.00294 1.94813,6.85433 2.12001,33.42377 0.10935,17.09592 -0.13684,32.20959 -0.52977,33.58876 -1.09713,3.77116 -6.80618,7.42141 -13.43741,8.59175 -5.87202,1.03633 -22.27801,7.90864 -28.69073,12.01518 -1.83204,1.17549 -5.21219,2.83545 -7.50993,3.68868 -4.7889,1.78138 -21.82051,2.11386 -33.65636,0.65534 -7.86463,-0.96919 -7.8732,-0.96669 -12.14678,2.78917 -2.3525,2.06484 -4.61909,5.13756 -5.04027,6.82603 -0.65371,2.62162 -0.19172,3.39235 3.15314,5.28964 2.15629,1.22186 5.64843,2.22719 7.75711,2.22719 6.0741,0 16.34192,2.32266 18.63898,4.20702 1.15298,0.94346 2.12578,2.76851 2.16178,4.05484 0.0788,3.07535 10.28429,20.63269 15.15572,26.08472 2.10872,2.36131 5.88577,5.07575 8.39134,6.03734 16.61042,6.36196 24.68601,8.62781 36.31947,10.18993 l 0,0 c 3.71373,0.5003 24.6809,-0.23189 33.56258,-1.15479 3.62499,-0.3819 19.80566,-0.75765 35.9565,-0.84524 29.05614,-0.15423 29.46057,-0.18003 38.1765,-3.26867 10.66099,-3.76875 18.53112,-7.7359 27.55731,-13.88666 8.02217,-5.46744 17.81064,-13.97681 21.16889,-18.40543 1.86798,-2.46441 4.11537,-3.52896 10.19011,-4.82567 10.14528,-2.16533 15.57971,-5.26386 15.57971,-8.88823 0,-4.75345 -6.16072,-6.2332 -29.41398,-7.06573 -11.2373,-0.39954 -20.9809,-1.04659 -21.65687,-1.43583 -0.6763,-0.38964 -5.44297,-1.75818 -10.58905,-3.04194 -9.80422,-2.44112 -15.32458,-5.4185 -25.2596,-13.61074 -3.28667,-2.70927 -9.47477,-7.40079 -13.75075,-10.42969 -7.42975,-5.25877 -8.1725,-5.52421 -16.53026,-5.91609 -8.5242,-0.39952 -8.82655,-0.51577 -11.70026,-4.44921 -1.62107,-2.21946 -2.94835,-5.14535 -2.94835,-6.49874 0,-1.35588 -0.54068,-2.77362 -1.20056,-3.15264 -1.518,-0.87414 -1.56254,-11.7805 -0.0479,-15.45904 0.88723,-2.1756 0.62666,-3.38725 -1.19679,-5.54489 -3.07884,-3.63984 -5.57071,-17.14489 -5.00228,-27.11068 0.49651,-8.69755 1.05025,-9.25953 9.25599,-9.2929 1.97854,0 7.01677,-1.52098 11.19583,-3.35894 8.78718,-3.86668 11.12325,-4.00596 24.90483,-1.48744 9.46654,1.72716 10.78834,1.72716 19.30741,0 15.62385,-3.15255 34.13579,-16.43342 39.47569,-28.3197 1.28308,-2.85107 1.66798,-5.98042 1.21086,-9.77761 -0.87562,-7.27184 -11.05136,-28.18827 -16.85972,-34.65074 -6.21859,-6.91881 -13.00526,-10.96594 -16.87406,-10.06116 -4.26539,0.99507 -3.7661,3.62184 1.4656,7.71025 8.84334,6.90852 20.25252,18.1064 22.24512,21.83652 2.55218,4.77409 2.61278,13.67521 0.13713,18.55236 -2.73503,5.36446 -12.20196,13.17263 -20.27172,16.72485 -9.35253,4.11417 -29.36363,5.38755 -29.36363,1.86628 0,-1.03628 10.61612,-3.65277 18.55303,-4.57034 5.05463,-0.58484 6.13809,-1.14199 7.07224,-3.62707 1.66046,-4.4054 0.21914,-6.3904 -6.7339,-9.25426 -7.13599,-2.93872 -8.74917,-2.83563 -19.74747,1.26047 -7.65199,2.84849 -7.92869,2.87174 -9.53058,0.83295 -1.83443,-2.33283 -4.34822,-9.5817 -4.80811,-13.87363 -0.16428,-1.53391 -0.82595,-7.95265 -1.4687,-14.26812 -0.6424,-6.31307 -1.70155,-13.08759 -2.34979,-15.05188 -1.23341,-3.73011 -3.35619,-45.49041 -2.90177,-57.09055 0.13684,-3.68115 -0.27737,-8.95008 -0.90643,-11.70833 -0.64032,-2.76083 -1.45461,-13.2963 -1.80939,-23.41424 -0.35272,-10.11784 -0.86158,-21.40866 -1.13345,-25.0871 -1.67656,-22.67945 -4.30338,-51.29302 -5.32315,-57.97988 -1.36665,-8.95006 -2.84869,-28.27069 -2.60487,-33.94954 0.19496,-4.305 1.95597,-5.8904 5.52308,-4.94426 2.20598,0.58762 6.71716,4.47764 29.12225,25.11293 4.41773,4.0703 9.24776,7.97566 10.73354,8.67943 1.48209,0.70037 2.69634,2.03906 2.69634,2.96961 0,1.88956 5.18754,4.15545 16.77956,7.33906 19.24888,5.27934 18.74411,5.24312 41.03103,2.97993 22.08387,-2.24017 21.6565,-2.1241 47.0688,-12.87864 8.57145,-3.6245 18.95575,-7.468 23.07896,-8.53512 6.92541,-1.79425 23.51658,-8.96569 27.04711,-11.69039 0.83108,-0.64475 4.16808,-1.72458 7.41057,-2.39994 3.24183,-0.67506 6.5898,-1.76576 7.44041,-2.42308 1.88439,-1.45394 2.05629,-5.37987 0.21914,-5.37987 -2.71005,0 -8.278,-4.68648 -8.278,-6.9653 0,-4.61417 -7.5818,-22.16902 -11.43933,-26.48428 -0.82079,-0.92035 -2.31964,-3.93112 -3.33152,-6.68936 -13.51755,-36.9632 -15.51567,-39.03308 -42.4963,-44.03657 -7.83725,-1.45389 -17.56681,-3.68367 -21.62088,-4.95455 -9.05701,-2.8381 -23.57756,-6.01923 -38.28471,-8.38818 l -11.09004,-1.78628 -9.2868,3.45407 c -11.1931,4.1658 -17.17335,8.32888 -25.62531,17.85391 -3.5113,3.95691 -6.69523,7.44461 -7.07191,7.75151 -5.50942,4.4879 -19.79503,23.3316 -22.68003,29.92044 -2.35834,5.39032 -4.43963,6.87501 -9.63846,6.87501 -3.44145,0 -4.73038,-0.4974 -5.04098,-1.95131 -0.68758,-3.19657 1.3218,-16.93355 3.86334,-26.41482 1.30502,-4.86946 2.37204,-9.70276 2.37204,-10.74417 0,-1.03888 0.80678,-3.32544 1.7899,-5.08352 0.98688,-1.75544 1.79916,-3.94658 1.79916,-4.86944 0,-2.29169 4.95463,-14.794 9.05049,-22.89082 4.31501,-8.52743 14.51573,-17.64511 22.72146,-20.31313 4.70811,-1.53121 9.58538,-1.91784 22.77385,-1.80705 28.59078,0.25796 40.80916,2.67319 85.10423,16.9182 14.62636,4.70446 26.2605,7.0322 38.1433,7.62503 14.16406,0.71121 29.69374,4.12976 32.67258,7.19206 1.13891,1.17043 2.49461,2.12935 3.01235,2.12935 0.51299,0 2.72374,1.54405 4.90778,3.42841 4.93824,4.26628 14.32979,8.83679 18.16301,8.83679 1.58478,0 5.10944,0.72956 7.83143,1.62388 6.06858,1.99013 6.62026,0.42561 1.5711,-4.47762 -1.85393,-1.80442 -7.09694,-7.54257 -11.64721,-12.75489 -9.94631,-11.39644 -11.86084,-13.27312 -17.50653,-17.15015 -2.39671,-1.6446 -5.84363,-4.98541 -7.65919,-7.42147 -3.18156,-4.27134 -11.68383,-8.91405 -24.53912,-13.39943 -2.30867,-0.80658 -7.19418,-3.33057 -10.85513,-5.61432 -11.99097,-7.47059 -22.48792,-10.36286 -44.28414,-12.20856 -52.98023,-4.4828 -70.62206,-5.12981 -79.11026,-2.90256 -10.6216,2.78657 -25.37841,7.80303 -30.73544,10.45033 -6.09979,3.01348 -12.75083,10.07656 -16.22553,17.22746 -1.43582,2.95416 -3.07641,5.37219 -3.6469,5.37219 -0.57049,0 -0.89239,0.62636 -0.71535,1.39452 0.39143,1.68077 -5.04642,10.87055 -6.43158,10.87055 -0.54034,0 -0.97869,1.21942 -0.97869,2.70931 0,1.48743 -0.67285,3.36913 -1.49607,4.1812 -1.41662,1.38951 -1.9676,6.77449 -1.9676,19.1247 0,2.96186 -0.63488,6.09651 -1.41051,6.96784 -0.77596,0.86885 -1.01461,1.58273 -0.52973,1.58273 0.48523,0 0,1.23475 -1.05333,2.74795 -1.06393,1.51059 -1.9368,3.80232 -1.9368,5.09115 0,1.28628 -0.61844,3.41553 -1.37452,4.73023 -0.84512,1.47199 -1.3437,7.98349 -1.29406,16.93105 0.0479,7.99641 -0.40817,17.80226 -1.00333,21.78758 -1.85359,12.39656 -1.00573,67.84762 1.32759,86.96978 1.81493,14.86361 3.52229,38.01738 5.51457,74.70205 0.72359,13.34004 0.68796,11.31136 0.49071,29.29926 -0.16429,16.35613 0.86428,35.62774 2.42785,44.846 0.62357,3.68108 1.657,18.20182 2.29122,32.27399 1.06702,23.52765 0.99508,25.75223 -0.89753,27.69849 -3.0343,3.1166 -5.04061,3.88728 -14.8123,5.6918 -16.4361,3.03665 -20.75965,3.19908 -30.64159,1.15744 -7.52084,-1.55441 -10.17024,-2.67837 -13.4097,-5.68658 l -4.03521,-3.75079 0.90644,-9.7389 c 0.49687,-5.3541 0.80674,-10.48902 0.68142,-11.40931 -0.10965,-0.91775 -0.35306,-32.27663 -0.50747,-69.68566 -0.21914,-52.25975 0.0788,-69.94866 1.29163,-76.37502 0.86776,-4.59882 1.51598,-12.37605 1.44407,-17.28164 -0.24657,-16.3355 1.07522,-47.84908 2.31344,-55.19066 0.67086,-3.98794 1.2393,-18.28699 1.26121,-31.77919 0.0477,-23.5842 2.05629,-47.30251 5.11869,-60.18894 3.65239,-15.36627 0.10965,-43.44629 -7.41028,-58.55482 -7.22189,-14.531 -13.21072,-28.3171 -13.21072,-30.4128 0,-2.61395 -11.97967,-11.11811 -18.8804,-13.39952 -6.75346,-2.23485 -14.24967,-2.56743 -32.09074,-1.42288 -12.13787,0.77866 -14.24384,0.60105 -25.77186,-2.1551 -6.90618,-1.64976 -15.79099,-3.663 -19.7454,-4.47501 -3.95748,-0.81197 -9.35015,-2.38435 -11.98826,-3.49292 -3.237,-1.36363 -10.36955,-2.04936 -17.73869,-2.05188 z m 13.10459,81.9198 c -5.24815,-0.0307 -10.44767,0.53061 -14.70101,1.76068 -9.88775,2.85366 -18.8362,6.62753 -20.71238,8.73358 -0.88111,0.98472 -2.4775,1.78648 -3.55002,1.78648 -2.87337,0 -28.14735,10.95045 -46.90033,20.32328 -13.77542,6.88794 -21.230165,10.34476 -27.088519,12.56948 -4.447863,1.68578 -12.464897,9.39342 -12.464897,11.98406 0,0.54116 1.141997,3.45687 2.541523,6.4806 2.244657,4.85405 3.119904,5.63257 7.490052,6.67133 2.724381,0.64467 6.445955,1.71687 8.269406,2.37941 4.057498,1.47442 9.267265,7.02444 9.267265,9.87034 0,1.14971 0.88962,2.552 1.98132,3.11915 1.08618,0.56648 2.12274,2.28389 2.29704,3.81768 0.89818,7.83907 1.98713,11.32174 4.88038,15.62666 1.74878,2.59586 3.90716,5.12206 4.79989,5.61445 0.89236,0.48968 1.62413,1.81222 1.62413,2.93871 0,1.12641 0.67356,3.24798 1.49916,4.7173 1.83409,3.27385 12.36769,13.19323 14.00825,13.19323 0.65443,0 1.76527,1.00278 2.47206,2.22976 0.70676,1.22697 2.05355,2.22979 2.99595,2.22979 0.94202,0 2.29122,1.00542 2.99798,2.22981 0.70405,1.22704 1.93748,2.2504 2.73845,2.2504 0.80026,0 2.72679,1.26572 4.27837,2.78664 1.55188,1.52347 3.53048,2.76851 4.39544,2.76851 0.86466,0 1.75156,0.44602 1.97003,0.98996 0.21914,0.54395 3.90785,1.78379 8.1917,2.75314 9.76037,2.21157 23.08991,1.79411 28.67158,-0.90233 3.73011,-1.79922 3.90168,-2.08536 1.87035,-3.1424 -1.2307,-0.64192 -6.58154,-1.54409 -11.8944,-2.00802 -10.39455,-0.91005 -33.14615,-7.36215 -40.1794,-11.39648 -4.61463,-2.64477 -6.17202,-3.79958 -12.52893,-9.28001 -2.40563,-2.07521 -5.13514,-3.77396 -6.06106,-3.77396 -1.37455,0 -1.42419,-0.46437 -0.24656,-2.50819 2.66619,-4.66577 3.38119,-5.33605 4.79988,-4.49568 1.49951,0.88677 2.18676,1.06719 4.92726,1.29152 0.93965,0.0788 2.42512,0.79444 3.29489,1.59821 0.86978,0.79877 4.14551,2.11887 7.27741,2.93094 3.13154,0.81188 5.69501,1.81481 5.69501,2.23232 0,3.17851 41.02794,4.57563 49.13091,1.67307 2.31383,-0.83028 5.55632,-1.42809 7.20516,-1.32759 4.83001,0.28595 26.36289,-2.71183 27.0666,-3.77133 0.35305,-0.53199 1.69574,-0.96666 2.98429,-0.96666 1.28861,0 3.2812,-0.45376 4.42596,-1.00535 1.14439,-0.55453 7.64278,-2.37674 14.44074,-4.05745 10.44762,-2.5804 13.77879,-2.94384 21.57395,-2.35607 5.06836,0.38329 9.75457,0.3277 10.41442,-0.12915 1.98714,-1.35851 5.39538,-7.70504 5.39538,-10.0405 0,-1.20129 -0.98896,-3.38212 -2.20047,-4.84371 -2.37204,-2.87175 -6.19083,-9.71832 -6.19083,-11.10261 0,-0.46856 -1.17218,-3.2764 -2.60219,-6.23819 -1.42997,-2.96451 -3.22809,-6.94985 -3.99617,-8.85485 -0.76431,-1.90753 -3.00349,-5.67112 -4.97384,-8.36235 -1.97346,-2.69375 -7.15549,-9.77761 -11.5174,-15.74266 -4.36501,-5.96496 -8.84605,-12.6286 -9.95964,-14.80939 -2.71618,-5.32577 -16.26728,-18.10392 -20.16349,-19.01385 -1.71835,-0.40232 -3.12333,-1.12394 -3.12333,-1.606 0,-0.48199 -2.83197,-2.25815 -6.29362,-3.94661 -5.07418,-2.47214 -12.84431,-3.82026 -20.5155,-3.87439 z m -11.85265,11.37066 c 9.64156,0 18.41777,1.35335 22.86287,3.62183 1.76765,0.89961 4.35611,2.12669 5.7529,2.72731 1.39678,0.59821 3.72738,2.49534 5.17928,4.21211 l 2.64121,3.12168 -3.38086,0.85839 c -1.85975,0.47208 -4.14002,0.59539 -5.06288,0.276 -0.92559,-0.32189 -8.3057,-1.30435 -16.40012,-2.18336 -12.9861,-1.41519 -15.53552,-1.40751 -21.69313,0.0788 -3.83561,0.92542 -8.88204,2.84852 -11.21228,4.27665 -2.33336,1.42802 -7.33835,3.91559 -11.1236,5.5267 l 0,0 c -7.48525,3.18358 -8.73275,3.43365 -9.72171,1.9463 -1.24164,-1.86892 4.00445,-6.47284 14.70687,-12.90187 5.90593,-3.54707 11.2345,-7.48333 11.83857,-8.74656 0.96427,-2.01061 2.40012,-2.35091 11.43999,-2.72466 1.40227,-0.0494 2.79596,-0.0788 4.17289,-0.0788 z m 287.25996,7.10958 c 9.62443,0.0307 10.92979,0.51575 18.09897,3.81266 l 8.39134,3.85892 -17.98016,0.62355 c -19.26803,0.6673 -19.70054,0.776 -35.22473,8.89341 -12.99431,6.79252 -16.0567,3.09861 -5.95286,-7.18432 9.06763,-9.22858 11.05476,-9.93224 27.9922,-9.99929 1.75735,0 3.30072,0 4.67524,0 z m 28.7459,8.58669 c 2.41655,0.0307 8.12524,0.36854 14.64038,0.86359 24.3559,1.85601 36.05101,6.93944 35.0316,15.22186 -0.27736,2.19121 -1.11187,3.19653 -2.78258,3.33315 -1.31908,0.10344 -9.41115,-3.18883 -17.98053,-7.32609 -8.57108,-4.13743 -18.9437,-8.45783 -23.05325,-9.59978 -4.10954,-1.142 -7.29352,-2.24012 -7.07743,-2.44111 0.0479,-0.0307 0.16755,-0.0494 0.39174,-0.0494 0.19523,0 0.47974,0 0.82868,0 z m -290.95621,16.03651 c 0.73108,0 1.52934,0.15423 2.42752,0.47138 1.62072,0.57425 4.02906,1.04402 5.34813,1.04402 2.87128,0 10.63051,5.26635 10.63051,7.21262 0,1.71944 5.14366,10.78809 9.62169,16.96969 4.06843,5.61441 3.58563,6.21762 -7.45477,9.33934 -4.15647,1.17545 -10.93221,2.46185 -15.05032,2.85882 -6.95549,0.67005 -7.49345,0.56229 -7.49345,-1.51322 0,-1.2296 1.02011,-3.4388 2.26379,-4.91059 7.37704,-8.72085 7.18635,-18.58866 -0.49101,-25.32442 -4.06776,-3.57026 -4.27838,-4.03167 -2.39124,-5.31539 0.80919,-0.54886 1.64609,-0.82502 2.58813,-0.83287 z m 255.04388,0.78385 c 0.87594,0 1.69572,0.0788 2.44736,0.26311 3.71847,0.86885 3.83763,2.57003 0.45784,6.56306 -2.66001,3.14753 -4.72214,9.78793 -4.85503,15.64723 -0.21914,9.9916 4.62286,22.8291 10.27029,27.19068 2.08642,1.61114 2.70486,5.7021 0.86223,5.7021 -0.60681,0 -1.82107,0.20611 -2.69941,0.43264 -4.16537,1.12907 -21.63458,-4.20956 -33.35983,-10.19522 -24.07373,-12.28834 -26.98099,-15.356 -18.07156,-19.0654 2.58571,-1.07748 7.03629,-4.13221 9.88807,-6.78736 2.8542,-2.65778 6.53434,-5.61959 8.18349,-6.5863 1.64916,-0.96406 5.99429,-3.85892 9.65489,-6.43419 6.09941,-4.28686 12.48406,-6.7435 17.22064,-6.73063 z m -321.92481,7.42156 c 1.17525,0 3.61611,1.43837 5.42895,3.19651 2.52681,2.45655 3.30309,4.33066 3.36439,8.07873 0.0479,2.68353 0.79787,7.12501 1.68752,9.87297 1.39369,4.30234 1.36903,5.34381 -0.16428,7.53238 -0.98416,1.39459 -2.72199,2.51598 -3.8606,2.48242 -5.5868,-0.15425 -19.64539,-9.49406 -22.86806,-15.20128 -3.08189,-5.45728 -1.87342,-7.69738 6.45694,-11.95583 4.3061,-2.20409 8.7903,-4.0059 9.96275,-4.0059 z m 372.12823,1.11622 c 3.02645,0 17.04871,4.85391 20.1553,6.97807 1.72893,1.18058 3.85748,4.23271 4.73311,6.78211 0.87866,2.54945 2.7576,6.39038 4.17664,8.53768 4.61087,6.96529 4.62491,8.30316 0.13684,11.48667 -2.22787,1.58027 -7.77015,3.93899 -12.31528,5.24328 -4.54786,1.3044 -9.41106,2.79949 -10.80753,3.32275 -4.24616,1.59052 -12.94226,2.37163 -14.64621,1.31477 -1.217,-0.75239 -0.63486,-1.55187 2.39704,-3.29957 3.81609,-2.19891 11.13729,-10.27773 14.03633,-15.48492 2.92097,-5.251 0.19171,-13.57467 -6.32132,-19.22262 -3.34249,-2.9026 -4.09583,-5.65822 -1.54917,-5.65822 z m -406.14797,31.57022 c 1.9012,0 5.28788,1.4307 11.22054,4.54989 6.3655,3.34593 13.31074,5.67366 28.97602,9.71058 2.30868,0.59537 6.35454,1.26825 8.99024,1.49511 2.63775,0.23189 10.2062,1.01567 16.81824,1.75548 11.17393,1.25016 13.4655,1.13681 32.36231,-1.59308 11.18764,-1.6138 22.98997,-3.68119 26.22425,-4.59113 7.73182,-2.16783 10.70514,-2.0828 13.10251,0.38193 1.87894,1.93072 1.51597,2.23744 -7.30546,6.13247 -0.51296,0.23191 -1.0304,0.44602 -1.54333,0.66232 -2.40253,-0.26529 -3.7661,0.48267 -3.84656,1.54416 -2.99254,1.12646 -5.44778,1.87916 -6.29016,1.87916 -3.76336,-0.0307 -19.77587,3.82292 -19.77587,4.75339 0,0.46153 1.18343,0.83561 2.6357,0.83561 0.76224,0 1.27418,0.0494 1.56286,0.15425 -1.33551,0.20637 -2.63843,0.54674 -3.97978,0.7322 -3.1699,-1.44612 -20.17407,-1.41775 -22.38312,0.15423 l 0,0 c -2.22511,1.57252 -5.40631,2.26084 -5.40631,1.16783 0,-0.64189 -6.31311,-1.08015 -15.53552,-1.08015 -12.6926,0 -16.73263,-0.41501 -22.0592,-2.26848 -3.58562,-1.24757 -8.31942,-2.48232 -10.51371,-2.74024 -2.20047,-0.25716 -4.18488,-0.9924 -4.41501,-1.63425 -0.21912,-0.63907 -2.01454,-1.16252 -3.96539,-1.16252 -2.35007,0 -3.43081,-0.50519 -3.19523,-1.50293 0.19173,-0.82769 -1.53512,-2.95414 -3.84381,-4.72766 -2.30799,-1.77364 -4.89919,-4.10649 -5.76143,-5.18658 -0.86192,-1.08004 -2.6713,-1.96168 -4.02361,-1.96168 -1.87071,0 -2.25284,-0.46714 -1.59639,-1.95134 0.47495,-1.0725 1.14748,-2.86652 1.49095,-3.98531 0.30132,-0.9873 0.9119,-1.50805 2.05627,-1.51059 z m 450.43763,7.93711 c 0.56224,0 1.15021,0.0494 1.81249,0.20637 1.80118,0.39176 4.0852,1.44353 5.07416,2.33549 1.59368,1.43835 1.47998,1.83535 -0.98348,3.48513 -1.53274,1.0235 -4.49819,3.18106 -6.59287,4.79215 -2.09499,1.61369 -7.55989,4.5137 -12.14643,6.44713 -4.58347,1.93078 -9.17004,4.18118 -10.18706,5.00094 -1.0201,0.81722 -3.3757,1.82497 -5.23202,2.23756 -1.8563,0.4101 -8.85976,3.24543 -15.56598,6.29747 -6.70348,3.05728 -12.80291,5.33604 -13.55419,5.06795 -0.75301,-0.27045 -3.7274,0 -6.60929,0.61018 -6.62883,1.39205 -36.4914,2.02109 -40.97831,0.86368 -1.85631,-0.47914 -4.01263,-1.33543 -4.79373,-1.90507 -0.78141,-0.56652 -3.9712,-1.8224 -7.08906,-2.78914 -5.0851,-1.57242 -12.69773,-5.92379 -15.90978,-9.09445 -0.65953,-0.64967 -5.78369,-4.94422 -11.3869,-9.54046 -11.29278,-9.26465 -11.94409,-9.91943 -11.96909,-12.12353 -0.0477,-3.03395 13.67094,0.77079 23.9549,6.64829 0.9893,0.56505 5.57551,2.72987 10.18945,4.80756 22.13659,9.9761 30.03515,11.43259 52.14093,9.6204 19.23753,-1.57777 25.64243,-2.87681 40.75366,-8.26185 14.96158,-5.3335 18.10682,-6.87501 23.27828,-11.412 2.63296,-2.31746 4.10404,-3.21963 5.79432,-3.28406 z M 181.6223,372.19528 c 0.54553,0 1.08623,0.0788 1.49919,0.23191 0.82357,0.30923 0.13684,0.5637 -1.49919,0.5637 -1.64881,0 -2.32235,-0.25742 -1.49948,-0.5637 0.41364,-0.15423 0.95605,-0.23191 1.49948,-0.23191 z m 43.07842,1.38428 c -0.2979,0.3995 -1.49609,0.70038 -2.92302,0.70038 -0.92287,0 -1.65223,-0.23189 -2.16758,-0.56511 1.11735,0 2.23642,0.0307 3.35618,0 0.57939,-0.0307 1.16119,-0.0788 1.73442,-0.15423 z M 74.58631,459.312 c -0.246564,0 -0.642736,0.20665 -1.210831,0.64967 -0.864312,0.66447 -3.134297,1.1034 -5.046444,0.97188 -3.998609,-0.27602 -5.814183,3.11143 -2.141923,3.99821 1.415959,0.34034 1.022846,0.56228 -1.130707,0.64966 -4.001683,0.15425 -4.175984,1.50543 -0.598256,4.62966 l 2.696334,2.35351 -2.840489,2.15506 c -2.400117,1.82253 -2.596659,2.4232 -1.269395,3.91044 1.233101,1.38435 1.261178,2.21185 0.13684,3.89511 -1.177626,1.75553 -1.110846,2.14222 0.374967,2.14222 0.992374,0 1.807343,0.7498 1.807343,1.67038 0,1.1162 -1.199866,1.67302 -3.597235,1.67302 -3.874299,0 -5.121439,2.86911 -1.765257,4.06775 1.457411,0.52001 1.532392,0.9822 0.374627,2.27877 -1.149888,1.28894 -1.099896,1.83023 0.219137,2.59846 2.30594,1.32745 2.330603,9.71056 0.04788,19.81805 -1.696068,7.56074 -1.682384,8.45777 0.164283,11.47904 1.114629,1.80446 1.73783,3.97239 1.385813,4.82042 -0.451663,1.10074 0.804034,1.77096 4.367413,2.33036 0.518427,0.0788 1.061194,0.20637 1.601891,0.34107 -1.477272,7.27194 0,14.48454 9.264145,17.71716 3.834932,1.33009 7.196568,1.09304 10.486001,0.27046 1.485798,3.07277 3.932849,5.82328 7.643103,8.04532 2.898683,1.73494 6.5456,2.0107 9.81859,3.01608 1.98132,-0.2061 3.99343,-0.29177 5.98575,-0.45871 6.8565,-0.15424 14.10821,-2.52364 19.87,-5.28197 1.19167,-0.56931 2.34463,-1.20371 3.4805,-1.86372 0.0788,-0.0494 0.19169,-0.0791 0.28763,-0.12916 2.73743,-1.36376 2.64325,-1.38166 5.83574,1.19346 1.51871,1.22699 4.08764,2.22979 5.70601,2.22979 2.0282,0 2.74048,0.48547 2.29461,1.56218 -0.35268,0.86105 -0.31846,1.86368 0.0788,2.22979 l 0,0 c 1.40261,1.30436 4.10168,0.62641 8.44954,-2.1216 2.42515,-1.53375 5.42107,-2.78663 6.6566,-2.78663 1.51047,0 2.02032,-0.55168 1.55738,-1.67288 -0.64036,-1.55185 1.57999,-2.24011 5.84737,-1.81482 1.79332,0.18002 4.53657,-4.38225 4.94373,-8.22057 1.17214,-10.99693 1.13379,-11.7677 -0.57565,-11.15671 -1.30022,0.46152 -1.22248,-0.0791 0.33557,-2.27363 2.07312,-2.94646 1.64609,-9.427 -0.62082,-9.427 -0.60955,0 -1.10536,-0.79883 -1.10536,-1.77869 0,-2.09834 -4.02431,-7.20242 -8.66291,-11.86043 -1.0615,-2.76349 -3.42807,-4.94419 -5.12416,-7.42409 -0.13684,-0.0494 -0.28764,-0.1293 -0.42494,-0.18003 -0.33559,-0.91245 -0.74549,-1.79414 -1.24132,-2.62934 0.0477,-0.25714 0.10935,-0.50515 0.16428,-0.75492 -0.24656,-2.21948 0.30133,-4.66578 -0.76979,-6.66099 -3.17297,-5.89286 -7.72049,-7.65099 -12.57552,-7.17666 -0.50164,-0.25986 -1.03378,-0.50238 -1.60191,-0.72431 -0.0477,-8.89091 -2.76619,-17.88733 -10.84691,-22.75171 -2.96514,-1.7838 -6.67884,-2.12667 -10.02064,-3.18869 -3.63593,0.47136 -7.44381,0.29583 -10.91299,1.41771 -1.73237,0.56226 -3.40035,1.24774 -5.01049,2.03132 -3.9212,-1.01562 -5.12964,-0.88938 -4.28965,0.37414 1.17763,1.76843 -2.54392,2.52884 -5.404284,1.10589 -2.10288,-1.04906 -3.020258,-0.93051 -4.876915,0.63411 -2.184054,1.83798 -2.400442,1.78887 -4.780727,-1.02592 -2.028225,-2.39746 -3.491783,-2.95162 -7.803351,-2.95162 -3.126081,0 -5.307342,-0.51368 -5.307342,-1.25026 0,-0.45656 -0.109355,-0.68562 -0.35784,-0.69403 z m 552.02032,0.0791 c -0.74888,0 -1.61046,0.12916 -2.68535,0.34102 -2.30903,0.46647 -5.95011,0.78387 -8.09205,0.70597 -2.67748,-0.10344 -3.89653,0.36638 -3.89653,1.47962 0,0.89191 -1.30811,2.08298 -2.90418,2.65004 -1.68237,0.59539 -3.06753,2.10861 -3.29488,3.59602 0,0.0788 -0.0477,0.15425 -0.0477,0.23191 -12.04064,1.25268 -24.34224,7.37767 -33.26295,14.17271 -2.63571,2.00816 -4.86631,4.43646 -7.29963,6.65587 -5.77239,7.53742 -12.47589,19.17882 -5.66452,28.07999 0.50748,2.83034 2.06486,5.41076 3.09044,8.11493 1.22216,1.23468 2.3111,2.60351 3.49146,3.877 0.7787,2.96703 3.55581,5.47786 9.44738,6.8905 -0.1129,0.12915 -0.21913,0.25714 -0.33214,0.36352 -2.04195,1.89721 -3.29457,11.66969 -1.49918,11.66969 1.63785,0 2.65488,4.68649 1.2002,5.52425 -4.30917,2.4773 6.25731,7.73846 12.57585,6.26401 1.80944,-0.42202 3.61099,-0.34037 4.00136,0.18004 0.39208,0.52565 2.41383,2.05964 4.49513,3.41035 4.37628,2.84337 10.02915,3.1346 16.9182,0.87414 4.25407,-1.39453 5.13208,-1.37652 7.50446,0.18004 2.24225,1.45902 3.35072,1.52604 6.68155,0.40724 3.10931,-1.04651 6.60693,-0.62638 8.11156,0.67504 -0.31846,1.54919 0.13684,3.16295 1.92824,4.69165 1.18071,1.00273 2.39702,1.44601 3.68903,1.68841 -1.76594,2.45407 -1.46082,3.98271 0.94238,3.98271 1.21631,0 3.74587,1.22703 5.61968,2.72466 l 0,0 c 3.51095,2.8099 5.35392,2.8073 5.35392,0 0,-0.2319 0.0516,-0.44321 0.19498,-0.63136 0.35304,0 0.70709,0 1.05877,-0.0494 3.54968,-0.32773 7.35479,-1.55181 10.64146,-3.32277 2.23371,-0.10345 3.22265,-0.3579 2.18884,-0.60878 -0.27393,-0.0788 -0.51296,-0.15424 -0.73384,-0.23189 0.89546,-0.55735 1.74061,-1.15225 2.51348,-1.78117 0.86429,-0.70603 1.56595,-1.57249 2.34705,-2.35874 0.44171,-0.76556 1.05877,-1.46171 1.34436,-2.2866 3.10931,0.0788 7.14691,-1.392 10.00385,-3.88976 1.54095,-1.34566 2.80486,-2.101 2.80486,-1.67304 0,0.42842 1.34682,-0.0494 2.99561,-1.0492 1.64917,-1.00283 2.99527,-2.46688 2.99527,-3.25059 0,-0.78387 0.80953,-1.71429 1.79916,-2.06742 0.98894,-0.353 1.79809,-1.94368 1.79809,-3.53673 0,-1.59312 0.55952,-3.86934 1.24405,-5.06029 1.57454,-2.72978 -0.71977,-10.74938 -3.90716,-13.66234 -1.22452,-1.11864 -2.54426,-3.50324 -2.92916,-5.29467 -0.38625,-1.79414 -1.17216,-3.261 -1.74881,-3.261 -0.54034,0 -0.98621,-0.88423 -1.03929,-2.00289 0.19524,-0.59543 0.3356,-1.20643 0.40785,-1.82772 0.25009,-0.18004 0.46398,-0.37905 0.70403,-0.58267 0.54073,-0.38685 1.08074,-0.76812 1.61869,-1.15748 1.18311,-0.85576 3.10897,-1.25271 3.53322,-2.59062 0.0791,-0.25797 0.16428,-0.49465 0.21914,-0.72704 0.95026,-0.62848 1.51597,-1.34809 0.42976,-1.94877 0.2501,-1.78647 -0.16427,-2.55455 -0.93963,-2.74533 2.15937,-1.37912 4.33964,-2.80466 5.9857,-3.96977 1.07321,-0.76289 3.10145,-1.15747 3.11514,-2.41538 0.0516,-2.81767 -0.54002,-3.98277 -1.36597,-4.30243 -0.1129,-0.77335 -0.42498,-1.53636 -0.57665,-2.3046 -1.03038,-0.5489 -2.0587,-1.09557 -3.08941,-1.64194 -1.50229,-0.42067 -2.75185,-0.54395 -3.73324,-0.46434 -0.0479,0 -0.1129,-0.0494 -0.16429,-0.0494 -0.0516,-0.42206 -0.13684,-0.84261 -0.13684,-1.25791 -1.08139,0.34309 -2.28402,0.93567 -3.47811,1.60071 -0.75606,-0.8146 -1.75151,-1.33792 -2.90174,-1.64463 -0.70371,-0.46924 -1.47111,-0.86363 -2.23918,-1.2631 -0.16426,-0.43542 -0.33559,-0.87152 -0.52976,-1.29664 -0.0514,-0.12931 -0.16428,0.2319 -0.27393,0.30168 -0.13684,0.10345 -0.29449,0.20639 -0.43592,0.32189 -0.0788,-0.0494 -0.1917,-0.10345 -0.29793,-0.18004 -1.08583,0.71123 -2.17275,1.42546 -3.25894,2.14212 -0.31844,0.0494 -0.6369,0.12915 -0.95608,0.18031 -0.73657,-0.65812 -1.62963,-1.14971 -2.53022,-1.63697 -0.25009,-0.52559 -0.49688,-1.03886 -0.8232,-1.52094 -0.16428,-0.23189 -0.40305,0.41009 -0.62667,0.59046 0,0 -0.0479,0.0494 -0.0788,0.0494 -0.0479,-0.0494 -0.13684,-0.0788 -0.1917,-0.12915 -0.13684,0.10344 -0.30479,0.20638 -0.45169,0.32499 -0.0479,-0.0307 -0.0788,-0.0494 -0.13684,-0.0788 0,0 0,0 0,-0.0307 0.41912,-0.48971 0.59342,-1.12643 0.88998,-1.69103 -1.10333,-0.33251 -2.17856,-0.90481 -3.27294,-1.30438 0.37458,-0.29176 0.75914,-0.57991 1.13308,-0.87404 0.60439,-0.47495 1.90974,-0.74981 1.76525,-1.47186 -0.32532,-1.61883 -1.9231,-2.76347 -2.88434,-4.14253 -0.25008,0.12916 -0.50199,0.27602 -0.74548,0.41222 -0.0513,-0.0307 -0.13684,-0.0494 -0.19496,-0.0494 -0.92833,-0.59542 -1.84299,-1.25287 -2.84631,-1.59565 0.5938,-0.55455 1.52107,-1.1059 1.40466,-1.85605 -0.25009,-1.51317 -1.60978,-2.66802 -2.4159,-4.00074 -0.74886,0.20637 -1.51355,0.35797 -2.27269,0.53624 0.21914,-0.46643 0.34243,-0.93571 0.0788,-1.33526 -2.78262,-4.52144 -4.41773,-2.75044 -8.11704,-1.52342 -3.06475,1.59562 -6.083,3.29692 -9.02857,5.10911 -0.50749,-0.50027 -1.05574,-0.81194 -1.51597,-0.81194 -2.43606,0 -4.83823,-2.94383 -3.18122,-3.89763 1.26084,-0.72444 0.51296,-4.97769 -1.07798,-6.13783 -0.4198,-0.30646 -1.75701,-2.00291 -2.9682,-3.77127 -1.58203,-2.30969 -2.46381,-2.81498 -3.13942,-1.79665 -0.71225,1.07228 -1.62415,0.81979 -3.76337,-1.03886 -1.59364,-1.38178 -2.68806,-1.95144 -4.33415,-1.94639 z m 31.8713,15.00536 c 0.0513,0 0.28765,0.2319 0.21914,0.32497 0,0.0307 -0.0477,0.0788 -0.0788,0.10345 -0.0479,-0.12916 -0.1129,-0.26313 -0.16753,-0.41221 0,0 0,0 0,-0.0307 z m 8.56285,6.97811 c 0,0 -0.1917,0.15425 -0.4965,0.37696 0,0 0,-0.003 0,-0.003 0,-0.0494 -0.0479,-0.10345 -0.0479,-0.15424 0.34789,-0.15425 0.54514,-0.25799 0.56195,-0.2319 z m -91.00673,24.94283 c 0,0.55451 0,1.10585 0,1.65244 -0.46363,0.41219 -0.92559,0.83993 -1.3824,1.28621 0.35307,-1.00536 0.82597,-1.98483 1.39063,-2.93865 z m 57.57775,52.71089 c 0.16428,0.26313 0.35305,0.49253 0.54068,0.69406 0,0.25987 0,0.5052 0.0479,0.73219 -0.27738,-0.48193 -0.47495,-0.96921 -0.57355,-1.42549 z m 2.70179,3.87442 c 0.0513,0 0.13684,0.0307 0.1917,0.0494 0,0 0,0.0307 -0.0479,0.0494 -0.0516,-0.0307 -0.11291,-0.0788 -0.1643,-0.12916 z m 15.63856,8.82379 c 0.41334,0.18002 0.88349,0.33762 1.43002,0.49252 0.28765,0.0788 0.69513,0.0494 1.16668,-0.0791 0.55438,0.15423 1.13069,0.28803 1.63783,0.50238 -1.33032,0.32704 -2.67987,0.55951 -4.01844,0.71125 l -1.24441,-1.41521 c 0,0 0,-0.0307 0,-0.0494 0.33562,-0.0494 0.67083,-0.12915 1.00334,-0.18003 z m 56.97095,8.96821 c -0.41364,0 -0.88998,0.0494 -1.3252,0.20638 l 0,0 c -0.95333,0.35583 -0.67013,0.61865 0.72597,0.67287 1.26388,0.0494 1.97068,-0.20637 1.57447,-0.58479 -0.19171,-0.18002 -0.55711,-0.28799 -0.97524,-0.30371 z M 358.48181,705.61475 c 0.62973,0.0307 1.44679,0.79353 3.02062,2.32778 3.08432,3.00573 6.1775,9.40894 8.19204,16.96447 1.32143,4.95455 1.25534,5.68149 -0.63215,6.96784 -3.94861,2.68599 -7.61742,1.76833 -9.47717,-2.37164 -2.76858,-6.16863 -4.55025,-19.08081 -3.00143,-21.77211 0.82355,-1.43061 1.26666,-2.14468 1.89809,-2.11634 z m -58.29545,47.10675 c 4.99676,0.0494 11.51432,1.28373 23.3173,3.9208 8.92585,1.9952 11.69751,2.19115 17.30076,1.22703 7.71192,-1.325 19.41218,-1.48734 21.32706,-0.29447 2.5275,1.57492 3.01238,6.67124 0.83109,8.69993 -1.13038,1.04924 -2.17239,2.66798 -2.31897,3.59356 -0.13684,0.92542 -0.7376,1.98489 -1.31666,2.35348 -0.57595,0.36636 -1.65463,4.37966 -2.39154,8.91402 -1.41321,8.70527 -2.01456,9.48117 -8.70158,11.25468 -10.67467,2.83297 -21.63528,0.44317 -43.89309,-9.5585 -11.55915,-5.19422 -17.46717,-10.13332 -21.43562,-17.91049 -2.9987,-5.87485 -2.06213,-7.33137 6.60929,-10.26743 3.81881,-1.29152 6.78398,-1.96939 10.67196,-1.93334 z m 78.52572,4.00073 c 2.08131,0 14.28015,1.00786 27.10804,2.23746 12.82756,1.23226 29.52458,2.52885 37.10638,2.88715 17.16518,0.80412 25.35992,2.753 28.13637,6.6946 1.12526,1.60334 1.59646,3.30474 1.04203,3.78163 -0.55745,0.47703 -7.21333,3.71974 -14.79549,7.20756 -7.58216,3.48772 -15.22251,7.06056 -16.9823,7.94214 -4.46153,2.23494 -11.0681,2.59074 -29.76564,1.5957 -16.62139,-0.88423 -21.09491,-1.8045 -23.86828,-4.91324 -0.87904,-0.98222 -2.53607,-1.78907 -3.6863,-1.78907 -2.8843,0 -8.08895,-4.00339 -9.09469,-6.9961 -0.45818,-1.36377 -1.28034,-2.75055 -1.82927,-3.08052 -0.54516,-0.33251 -1.11088,-2.33804 -1.24921,-4.45963 -0.13684,-2.12416 -0.71568,-4.43632 -1.28345,-5.14007 -1.54126,-1.91271 4.68345,-5.96761 9.16181,-5.96761 z m 10.10384,79.49422 c -0.90915,0 -1.81559,0.0788 -2.71309,0.25742 -0.72084,0.45375 -1.07798,0.64751 -1.28311,0.76813 -1.30807,0 -2.61311,0 -3.92153,-0.0307 -1.80394,0 -3.61336,-0.0494 -5.41491,0.0494 -2.20595,0.20637 -4.38108,0.60877 -6.47369,1.31205 -2.74017,0.75765 -5.23478,2.02615 -7.57941,3.54714 -2.04195,1.3172 -3.95135,2.78141 -5.84398,4.27129 0,0 -0.0477,0 -0.0477,0 -0.16428,0.10344 -0.29106,0.20638 -0.40782,0.34107 -0.59069,0.46927 -1.18071,0.93833 -1.7769,1.40493 l 0,0 c -1.04714,0.77857 -1.7957,1.54155 -2.29703,2.24516 -0.31504,-0.42561 -0.70199,-0.70857 -1.08893,-0.72697 -0.16428,0 -0.33217,0.0307 -0.49686,0.12916 -0.75063,0.43269 -0.64549,1.47965 0.28764,2.86907 0.70677,1.05173 1.44368,1.53635 1.77073,1.21675 1.1194,0.25715 2.90997,-0.23189 5.04641,-1.78644 0.16428,0.15423 0.35787,0.23189 0.5688,0.29448 0.34791,0.66022 0.21914,0.5827 1.1218,0 0.0479,0 0.0479,-0.0307 0.0788,-0.0494 0.60953,-0.12916 1.39404,-0.40729 2.4638,-0.81454 0,0 0.0479,0 0.0788,-0.0307 0,0 0,0.0307 0.0479,0.0494 0.0788,0.10344 0.70026,0.10344 1.36356,0.10344 0,0 0,0.0307 0,0.0494 0.0479,0.30645 0.19171,0.43821 0.41365,0.43821 0.0477,0.0494 0.10965,0.12916 0.16427,0.1803 0.16428,0.1545 5.61454,-1.22698 6.0436,-1.34028 2.09538,-0.68558 4.45919,-0.91772 6.43504,-1.92577 0.36984,-0.18004 1.11427,-0.276 1.04476,-0.66445 -0.0479,-0.28389 -0.13684,-0.56224 -0.21914,-0.83558 0.83928,-0.25796 1.39131,-0.62852 1.70738,-1.15484 0.10935,-0.18002 0.21913,-0.33764 0.32531,-0.47492 0.10965,-0.0307 0.19169,-0.0494 0.2979,-0.10345 0.13714,-0.0307 0.33557,-0.0788 0.49106,-0.12915 0.16428,-0.0307 0.30477,-0.0791 0.45816,-0.10345 0.46367,-0.0494 0.93111,-0.10344 1.3968,-0.15423 0.9006,0.18004 2.11145,0.54396 3.81061,1.08001 5.61724,1.77356 7.70372,2.30464 14.0137,3.41049 0.87597,0.51576 1.83479,0.88158 2.88536,1.10851 1.20502,0.18003 1.46836,0.25986 1.74845,-0.33253 5.65052,0.86361 8.39375,0.84787 8.39375,-0.0494 0,-0.62359 -0.86191,-1.37658 -1.99813,-1.97453 0.97596,-1.34309 0.42498,-3.13985 -0.98616,-4.27669 -0.28765,0.12916 -0.55171,0.25796 -0.80405,0.37133 -0.0477,-0.0494 -0.10965,-0.12916 -0.16428,-0.18003 -0.66569,-0.64751 -1.31938,-1.30948 -1.98984,-1.95648 0.56807,-1.05693 0.49139,-1.39452 -0.16428,-1.8586 0,-0.31983 -0.24655,-0.39949 -0.62834,-0.41504 -0.16429,-0.10344 -0.35307,-0.23189 -0.56878,-0.36074 -0.92836,-0.25714 -1.86765,-0.42556 -2.81548,-0.54675 -0.0477,-0.0307 -0.10965,-0.0494 -0.16429,-0.0788 0,0 0,0 0,0 -1.655,-1.59058 -4.53929,-1.89215 -6.67849,-2.46445 -1.95391,-0.34527 -3.96297,-0.67497 -5.96379,-0.66724 z m -3.52225,0.94347 c 0.0477,0 0.0477,0 0.0477,0.0494 0,0 0,0 0,0 -0.0788,0 -0.13684,0 -0.21914,0 0.0477,-0.0494 0.10965,-0.0788 0.16428,-0.0788 z m -0.83144,0.60877 c -0.0479,0.20636 -0.19172,0.56225 -0.50167,1.18578 -0.13684,0.25986 0.10936,-0.5771 0.24655,-0.83303 0.0791,-0.12915 0.16429,-0.23189 0.24657,-0.35298 z m 22.48863,66.52788 c -0.54037,0 -1.04479,0.0788 -1.41942,0.29583 -0.76466,0.44043 -0.61226,1.05698 0.40819,1.66023 l 0,0 c 2.13096,1.25784 4.62216,1.25527 4.62216,0 0,-1.02083 -1.98441,-1.92831 -3.61062,-1.95414 z"
       id="path8993-3"
       inkscape:connector-curvature="0" />
  </g>
</svg>
