<?xml version="1.0" encoding="UTF-8" standalone="no"?>
<!-- Created with Inkscape (http://www.inkscape.org/) -->

<svg
   xmlns:dc="http://purl.org/dc/elements/1.1/"
   xmlns:cc="http://creativecommons.org/ns#"
   xmlns:rdf="http://www.w3.org/1999/02/22-rdf-syntax-ns#"
   xmlns:svg="http://www.w3.org/2000/svg"
   xmlns="http://www.w3.org/2000/svg"
   xmlns:sodipodi="http://sodipodi.sourceforge.net/DTD/sodipodi-0.dtd"
   xmlns:inkscape="http://www.inkscape.org/namespaces/inkscape"
   width="210mm"
   height="297mm"
   viewBox="0 0 744.09448819 1052.3622047"
   id="svg8089"
   version="1.1"
   inkscape:version="0.91 r13725"
   sodipodi:docname="face05.svg">
  <defs
     id="defs8091" />
  <sodipodi:namedview
     id="base"
     pagecolor="#ffffff"
     bordercolor="#666666"
     borderopacity="1.0"
     inkscape:pageopacity="0.0"
     inkscape:pageshadow="2"
     inkscape:zoom="0.24748737"
     inkscape:cx="246.60137"
     inkscape:cy="542.01892"
     inkscape:document-units="px"
     inkscape:current-layer="layer1"
     showgrid="false"
     inkscape:window-width="464"
     inkscape:window-height="595"
     inkscape:window-x="900"
     inkscape:window-y="7"
     inkscape:window-maximized="0" />
  <metadata
     id="metadata8094">
    <rdf:RDF>
      <cc:Work
         rdf:about="">
        <dc:format>image/svg+xml</dc:format>
        <dc:type
           rdf:resource="http://purl.org/dc/dcmitype/StillImage" />
        <dc:title></dc:title>
      </cc:Work>
    </rdf:RDF>
  </metadata>
  <g
     inkscape:label="Layer 1"
     inkscape:groupmode="layer"
     id="layer1">
    <path
       style="display:inline;opacity:1;fill:#e60464;fill-opacity:1"
       d="m 557.86528,642.30655 c 0.95098,-0.39115 2.0001,-1.21776 2.33152,-1.83692 0.33141,-0.61915 0.80609,-1.08223 1.05522,-1.02941 0.24912,0.0529 0.51329,-0.57993 0.58744,-1.40655 0.0751,-0.82684 0.69618,-2.23947 1.38257,-3.13925 0.68642,-0.89998 1.12291,-1.76133 0.97009,-1.91414 -0.15251,-0.15228 0.27697,-1.22509 0.95524,-2.38251 1.28361,-2.1903 1.58496,-3.68829 0.74187,-3.68829 -0.27043,0 -0.62989,0.37529 -0.79918,0.83391 -0.16869,0.45862 -0.43057,0.94102 -0.58075,1.07209 -0.38666,0.33733 -2.89377,5.41854 -2.89377,5.86478 0,0.20335 -0.21121,0.6289 -0.46919,0.94529 -1.97491,2.42173 -2.83586,3.63707 -3.51394,4.95948 -0.42997,0.83882 -1.15701,1.74347 -1.61542,2.01069 -1.20499,0.70165 -0.16661,0.53908 1.8483,-0.28917 z m -25.11716,-10.56804 c 0.20519,-0.33222 0.24464,-0.73254 0.0873,-0.89002 -0.42652,-0.42632 -0.89143,0.20127 -0.6612,0.89185 0.16244,0.48404 0.27371,0.48383 0.57402,0 z m 7.42532,-4.35253 c 0,-0.26216 -0.22715,-0.4765 -0.50475,-0.4765 -0.27757,0 -0.37206,0.21444 -0.21005,0.4765 0.16268,0.26212 0.38914,0.47669 0.50477,0.47669 0.11577,0 0.21005,-0.21467 0.21005,-0.47669 z m -7.38569,0 c -0.16268,-0.26216 -0.38914,-0.4765 -0.50459,-0.4765 -0.11577,0 -0.21028,0.21444 -0.21028,0.4765 0,0.26212 0.22715,0.47669 0.50475,0.47669 0.27757,0 0.37206,-0.21467 0.21005,-0.47669 z m 35,-2.28987 c 0.33955,-1.4149 1.00279,-2.77408 1.53619,-3.14755 0.69208,-0.48487 0.78354,-0.75329 0.34828,-1.02231 -0.72889,-0.45051 -2.63714,1.82127 -2.96347,3.52815 -0.12593,0.66366 -0.0693,1.63964 0.12594,2.16916 0.28284,0.76464 0.47914,0.4503 0.95341,-1.52745 z m -40.95622,-2.47497 c 0,-0.26214 -0.44157,-0.47651 -0.98125,-0.47651 -0.53952,0 -0.84857,0.21444 -0.68642,0.47651 0.16245,0.26193 0.60351,0.47628 0.98104,0.47628 0.37775,0 0.68663,-0.21444 0.68663,-0.47628 z m 6.8696,-24.71382 c 0.20543,-0.33203 0.24464,-0.73254 0.0874,-0.88981 -0.42653,-0.42632 -0.89143,0.20104 -0.66121,0.89164 0.16245,0.48422 0.27369,0.48381 0.57384,0 z m -2.51014,-5.42505 c -0.36069,-0.36067 -0.70835,-0.38667 -1.01825,-0.0772 -0.31008,0.31026 -0.12385,0.49721 0.54743,0.54758 0.76709,0.0568 0.8833,-0.0589 0.47082,-0.4708 z m -25.08689,-1.30983 c 0.16268,-0.26213 -0.0407,-0.4765 -0.44848,-0.4765 -0.40862,0 -0.74289,0.21444 -0.74289,0.4765 0,0.26214 0.20127,0.47651 0.44847,0.47651 0.24647,0 0.58075,-0.21444 0.7429,-0.47651 z m 25.48516,-1.54857 c -0.0208,-0.86708 -0.0954,-0.93534 -0.46939,-0.35746 -0.59681,0.92376 -0.59681,1.42953 0,1.42953 0.26211,0 0.47325,-0.48259 0.46939,-1.07207 z m 7.60923,-0.79311 c 0.3688,-0.68905 0.37613,-0.99385 0.0231,-0.99385 -0.5777,0 -1.20679,1.33645 -0.814,1.72926 0.14212,0.14211 0.49782,-0.18902 0.79043,-0.73541 z m 10.06004,-2.61803 c 0.78557,-0.44785 2.79949,-0.73171 5.63372,-0.7941 8.14466,-0.17886 12.72053,-1.84831 16.53867,-6.03423 2.56723,-2.81453 3.60496,-5.61239 3.1941,-8.61142 -0.33933,-2.47478 -1.96615,-4.39299 -2.66925,-3.14715 -0.20959,0.37104 -0.89386,0.67482 -1.52053,0.67482 -0.62687,0 -1.27201,0.21444 -1.43398,0.4765 -0.16245,0.26212 -0.8823,0.47649 -1.60061,0.47649 -0.71833,0 -1.55835,0.25238 -1.86661,0.56082 -0.30844,0.30826 -1.47705,0.63399 -2.59691,0.72381 -1.12001,0.0894 -3.48508,0.29139 -5.25574,0.44806 -2.14275,0.18903 -3.44344,0.0996 -3.88864,-0.27066 -0.36801,-0.30541 -0.77947,-0.37693 -0.91422,-0.15852 -0.31068,0.50292 -4.20359,0.41312 -11.633,-0.26803 -3.79233,-0.34765 -6.25734,-0.37529 -7.03744,-0.0772 -1.32588,0.50415 -6.643,0.11993 -8.00264,-0.57848 -0.57382,-0.29486 -1.0934,-0.25379 -1.54613,0.12178 -0.37492,0.31112 -1.09688,0.45721 -1.60405,0.32453 -1.23893,-0.32409 -2.86778,1.47074 -3.37477,3.71833 -0.32795,1.45372 -0.21282,2.0694 0.63542,3.39528 0.9908,1.54923 2.32297,2.32727 10.08929,5.89323 6.02651,2.76677 16.4519,4.4966 18.85332,3.12785 z m -36.48358,-4.57018 c 0.16245,-0.26211 0.067,-0.47651 -0.21005,-0.47651 -0.27758,0 -0.50456,0.21444 -0.50456,0.47651 0,0.26193 0.0936,0.47651 0.20982,0.47651 0.11577,0 0.3428,-0.21467 0.50474,-0.47651 z m -5.59876,-1.26858 c 0.70712,-0.28529 0.80484,-1.59044 0.11993,-1.59044 -0.26193,0 -0.47649,0.22137 -0.47649,0.49197 0,0.27045 -0.48242,0.68577 -1.07211,0.92272 -0.97067,0.39013 -0.98185,0.43015 -0.11993,0.42366 0.52406,-0.0208 1.22104,-0.11577 1.5486,-0.24791 z m -11.79315,-6.934 c 0,-1.42728 -0.42306,-1.66684 -1.33441,-0.75548 -0.89876,0.89875 -0.68214,2.08301 0.38119,2.08301 0.72503,0 0.95322,-0.31783 0.95322,-1.32753 z m 27.39828,-4.67278 c 1.57238,-0.20335 2.99538,-0.28672 3.16222,-0.18486 0.16661,0.10144 0.40619,-0.20913 0.53199,-0.69049 0.14835,-0.56755 0.83149,-0.97272 1.94543,-1.15336 0.94407,-0.15228 2.19231,-0.72198 2.77408,-1.2639 0.58176,-0.54193 1.39255,-0.98673 1.80158,-0.98837 0.40924,0 1.37242,-0.3304 2.14032,-0.73111 1.34943,-0.70368 5.513,-0.55838 5.51282,0.19318 0,0.16661 1.12572,0.33791 2.50159,0.37975 3.44,0.10561 6.66842,0.64719 7.40602,1.24358 0.41597,0.33631 0.77238,0.34139 1.0985,0.0208 0.32636,-0.32633 1.35981,-0.27919 3.18475,0.1442 2.58494,0.60087 4.55128,0.4885 5.59005,-0.31942 0.26558,-0.20636 1.55225,-0.63845 2.85904,-0.95972 2.90596,-0.71445 4.45067,-1.75199 7.90814,-5.31146 1.5992,-1.64632 3.0791,-2.75194 3.68383,-2.75194 0.68072,0 1.10826,-0.38893 1.30962,-1.19114 0.16476,-0.65513 0.4708,-1.19116 0.68092,-1.19116 0.70042,0 5.23261,-3.82526 5.23546,-4.4188 0,-0.58584 0.45536,-1.52623 2.22891,-4.63459 0.52709,-0.92373 1.07228,-3.00411 1.22222,-4.66282 0.14835,-1.64738 0.61204,-3.51618 1.02923,-4.15283 1.14645,-1.74975 0.95239,-2.45891 -1.42525,-5.21309 -1.66097,-1.92391 -2.75762,-2.71455 -4.58155,-3.30361 -1.31879,-0.42614 -2.77574,-0.7746 -3.2376,-0.7746 -1.06864,0 -1.56687,-0.66976 -2.48067,-3.33535 -3.44749,-10.05677 -3.66614,-17.87816 -0.62808,-22.46886 0.6675,-1.00868 1.6512,-2.94397 2.18582,-4.30072 0.97088,-2.46279 0.97088,-2.4691 0.0263,-3.74623 l -0.94572,-1.27932 4.13534,-0.3617 c 2.27462,-0.19919 5.3149,-0.43281 6.7564,-0.51998 6.0519,-0.36515 7.4924,-0.59581 9.5297,-1.52646 2.41949,-1.10541 7.14738,-5.43987 7.14738,-6.55279 0,-0.13402 0.52571,-1.04242 1.16834,-2.0196 1.58034,-2.40285 2.39466,-8.80588 1.68502,-13.24726 -0.3725,-2.33331 -0.36187,-3.33428 0.0416,-3.82035 0.33113,-0.39868 0.42818,-1.36591 0.24633,-2.45186 -0.16407,-0.98655 -0.3554,-2.22242 -0.42288,-2.74646 -0.067,-0.52404 -0.38752,-1.42525 -0.71057,-2.00255 -0.32304,-0.57729 -0.55736,-1.97104 -0.52062,-3.09717 0.037,-1.12614 -0.38983,-3.42332 -0.94834,-5.10439 -0.55829,-1.68126 -1.01513,-3.56049 -1.01513,-4.17597 0,-0.61529 -0.19411,-1.49128 -0.43004,-1.94626 -0.23639,-0.45515 -0.69023,-1.79222 -1.00819,-2.9716 -0.31797,-1.17935 -0.75563,-2.68021 -0.97238,-3.33553 -0.21722,-0.6551 -0.63709,-2.47781 -0.93402,-4.05016 -0.61996,-3.28312 -0.93167,-4.36882 -2.66843,-9.29156 -0.69331,-1.96555 -1.29212,-4.10991 -1.33014,-4.76502 -0.0386,-0.65534 -0.44177,-1.88346 -0.89672,-2.7296 -0.57301,-1.06559 -0.75001,-2.15231 -0.57608,-3.53649 0.19503,-1.55043 0.0467,-2.22037 -0.6665,-2.98868 -0.50474,-0.54438 -1.28015,-2.1082 -1.72313,-3.47494 -0.44298,-1.3669 -1.05136,-2.43899 -1.35169,-2.38251 -0.33752,0.0629 -0.65289,-0.9902 -0.82539,-2.7564 -0.27309,-2.79807 -0.57608,-3.81671 -3.3585,-11.29268 -0.75103,-2.01773 -1.36549,-4.1169 -1.36549,-4.66469 0,-0.54789 -0.44626,-1.87079 -0.99163,-2.93974 -1.35373,-2.65368 -0.74819,-3.18232 2.45852,-2.1466 3.40665,1.10025 9.12083,1.03188 12.90465,-0.15413 1.66146,-0.52067 3.49045,-0.94955 4.06445,-0.9529 0.57423,0 1.17942,-0.2253 1.3451,-0.49326 0.16407,-0.26792 1.51842,-1.38024 3.00611,-2.47169 1.48768,-1.09159 2.77641,-2.15897 2.86399,-2.37188 0.0878,-0.21306 0.38544,-0.38722 0.66204,-0.38722 0.2766,0 1.87774,-1.2069 3.55768,-2.68206 2.8596,-2.51058 8.24859,-9.80476 8.24859,-11.16475 0,-0.32809 0.50583,-1.25998 1.12443,-2.07086 3.621,-4.74814 4.8099,-9.36904 3.56693,-13.86331 -0.28954,-1.04824 -0.5264,-2.54922 -0.52548,-3.33553 0.0231,-15.58177 0.18949,-18.05381 1.59398,-22.11407 0.76326,-2.20398 1.38763,-4.39389 1.38763,-4.86631 0,-1.10818 -3.50176,-4.50187 -5.95605,-5.77243 -3.00009,-1.55304 -6.62433,-1.32025 -10.25181,0.65839 -2.4968,1.36181 -3.37444,2.23457 -5.92139,5.88728 -1.64458,2.35862 -3.32753,4.93177 -3.73954,5.71799 -1.20947,2.30774 -5.62448,6.79503 -8.44614,8.58488 -5.13202,3.25488 -5.71053,3.66461 -5.71053,4.04399 0,0.21121 -0.91135,0.91826 -2.02508,1.57113 -1.11396,0.65284 -3.78361,2.80629 -5.93304,4.78557 -4.18837,3.85707 -6.53513,4.93792 -9.50999,4.37979 -1.44921,-0.27188 -1.59713,-0.45668 -1.65242,-2.06388 -0.0832,-2.39332 -0.1911,-3.10803 -1.09199,-7.24498 -2.03952,-9.35733 -2.74443,-13.52749 -3.14128,-18.58326 -0.23651,-3.01379 -0.49275,-5.90845 -0.56977,-6.4324 -0.0996,-0.67872 0.16845,-0.99659 0.93187,-1.10518 1.25903,-0.17908 1.82658,-1.84504 1.28729,-3.77919 -0.84919,-3.04652 0.1301,-12.0411 1.96535,-18.05968 1.37524,-4.50825 2.32886,-5.67046 7.5373,-9.1851 9.81497,-6.62281 20.2812,-9.5207 31.57457,-8.74217 3.60783,0.24867 12.75924,-0.5206 15.50306,-1.30307 0.96753,-0.27598 2.62021,-1.19198 3.67277,-2.0356 1.05233,-0.84351 2.35192,-1.85542 2.88779,-2.24851 0.53587,-0.393 1.10155,-1.38046 1.25684,-2.19425 0.24887,-1.30317 0.0231,-1.72374 -1.90502,-3.52992 -2.73296,-2.56146 -4.89494,-3.54063 -9.38456,-4.25055 -1.94106,-0.30683 -4.60124,-0.75851 -5.91146,-1.00369 -10.09467,-1.88902 -21.48676,-2.20798 -27.39823,-0.76723 -6.58471,1.60482 -7.29694,1.82065 -9.81782,2.97373 -1.38056,0.63142 -2.68451,1.14899 -2.89784,1.15008 -0.21329,7.2e-4 -1.46021,0.56582 -2.77045,1.25501 -1.31042,0.68922 -4.84835,2.48784 -7.8622,3.99708 -8.47652,4.24478 -13.68554,8.83666 -14.83566,13.07829 -0.72259,2.66462 -1.29846,9.44028 -0.85201,10.0248 0.86421,1.13129 2.41726,6.10459 2.63304,8.43174 0.12802,1.38695 0.35136,3.52221 0.49479,4.74487 0.2333,1.99153 0.13611,2.3046 -0.93511,3.00645 -0.65755,0.43078 -1.53905,1.64175 -1.95864,2.69073 -0.69291,1.73156 -0.69657,2.32171 -0.0407,6.39931 0.39768,2.47046 0.72279,5.40673 0.72279,6.52515 0,1.1183 0.22576,2.78235 0.50151,3.69795 0.78657,2.61179 1.40066,6.08322 1.85357,10.47963 0.24811,2.40957 0.85814,5.01533 1.50574,6.43276 0.59881,1.31029 1.25233,3.66909 1.45226,5.24152 0.19919,1.5723 0.70573,4.25258 1.1241,5.95609 0.41818,1.70352 0.9648,4.06204 1.21473,5.24152 0.24973,1.17919 1.82677,5.0389 3.5042,8.5769 3.31094,6.98208 5.08953,11.63044 6.01696,15.72423 0.32654,1.44138 1.435,4.39835 2.46339,6.57093 1.02819,2.17258 2.05395,4.9601 2.2795,6.19441 0.65592,3.58805 2.23398,8.89279 3.23901,10.88739 0.50983,1.01196 1.08103,2.89419 1.2692,4.18268 0.18694,1.2885 0.62014,2.78952 0.9605,3.33553 0.34017,0.54599 1.20256,3.32294 1.91638,6.171 0.71385,2.84802 1.68983,6.0645 2.16918,7.14775 0.47914,1.08325 1.42768,4.32797 2.10781,7.21056 0.68009,2.8824 1.84484,7.27803 2.58815,9.76762 1.32018,4.42165 2.62697,10.22484 3.37962,15.0096 0.20612,1.31045 0.73335,4.29282 1.17145,6.62759 0.89693,4.78035 0.73315,8.78238 -0.49032,11.98622 -0.63663,1.66686 -0.68316,2.24781 -0.22461,2.80051 0.4625,0.55717 0.40316,0.9345 -0.29463,1.87857 -1.10014,1.48827 -2.61156,2.19967 -4.67379,2.19967 -0.89086,0 -1.97901,0.36778 -2.43416,0.82296 -0.77969,0.77947 -0.76261,0.83879 0.3233,1.12612 0.63052,0.1666 -1.85543,0.22137 -5.52461,0.12177 -10.59447,-0.28854 -15.4107,-0.23389 -20.74777,0.2361 -2.74054,0.24122 -10.12891,0.41067 -16.41876,0.37635 -9.5624,-0.0511 -11.67,-0.18902 -12.86544,-0.83576 -2.60927,-1.41166 -5.02169,-2.32382 -6.14559,-2.32382 -2.21953,0 -5.05094,-4.52038 -5.05258,-8.06624 -1.8e-4,-0.91826 -0.60348,-1.67336 -2.40627,-3.01243 -2.17893,-1.61809 -2.68753,-1.78675 -5.38827,-1.78675 -4.44743,0 -4.61304,0.22646 -4.89265,6.68753 -0.13009,3.00472 -0.30276,6.70521 -0.38343,8.22351 -0.1056,1.98506 0.10353,3.25121 0.74431,4.50839 0.49012,0.96134 0.89104,2.12487 0.89104,2.58552 0,1.00422 1.64327,4.35093 3.13252,6.37987 1.14158,1.5553 6.03608,4.17761 8.72299,4.67362 0.88575,0.16268 2.44126,0.049 3.45625,-0.25562 1.41059,-0.42264 2.60379,-0.41798 5.06027,0.0208 3.91059,0.69761 22.67614,0.76243 23.84228,0.0813 0.63076,-0.36757 0.33955,-0.47814 -1.2899,-0.4893 -3.12379,-0.0231 -2.08361,-0.4822 1.67987,-0.74373 1.80584,-0.12594 4.46287,-0.32065 5.90418,-0.43341 1.44128,-0.11392 2.24534,-0.0957 1.78674,0.0365 -1.01926,0.29626 -1.06153,0.81989 -0.13009,1.59368 0.50534,0.41943 0.57543,0.82664 0.24748,1.43906 -0.25137,0.46999 -0.36515,3.18152 -0.25298,6.0255 0.15644,3.9815 0.49236,5.99318 1.45755,8.74473 1.20415,3.43244 1.57418,4.62139 2.74401,8.81503 0.2922,1.04831 1.02453,2.56948 1.62742,3.38042 1.30557,1.75687 1.35435,2.09926 0.29932,2.09926 -0.43788,0 -1.13486,0.28675 -1.54858,0.63745 -1.04993,0.88961 -8.32958,2.60867 -12.26295,2.896 -0.59963,0.0428 -3.49888,3.48753 -3.49888,4.15606 0,0.226 -0.31133,0.41088 -0.69192,0.41088 -1.08041,0 -3.59216,3.96342 -3.2766,5.17044 0.1465,0.56327 0.457,1.0239 0.68866,1.0239 0.23145,0 0.42082,0.21445 0.42082,0.47651 0,0.26214 -0.32146,0.47651 -0.71466,0.47651 -0.39299,0 -0.71484,0.21444 -0.71484,0.47651 0,0.26211 -0.48242,0.47468 -1.07211,0.47244 -1.61605,-0.0208 -7.69599,1.59858 -8.07456,2.13096 -0.18279,0.25643 -0.47954,0.31801 -0.6608,0.13633 -0.1807,-0.18093 -0.89062,0.0407 -1.57662,0.49033 -2.66254,1.75038 -3.22866,2.07164 -5.66402,3.21382 -1.3834,0.6488 -2.80455,1.17977 -3.15792,1.17977 -0.35378,0 -0.89936,0.30868 -1.2127,0.68642 -0.31316,0.37733 -0.84106,0.58216 -1.17307,0.45476 -0.33204,-0.12801 -0.87683,0.0975 -1.21048,0.49948 -0.33366,0.40212 -0.81056,0.60531 -1.05948,0.45151 -0.24871,-0.15437 -0.81402,0.0365 -1.25619,0.42548 -0.44216,0.38773 -1.3399,0.86299 -1.99522,1.05582 -0.65513,0.19295 -1.55285,0.66835 -1.99502,1.05603 -0.44214,0.38794 -1.06497,0.54378 -1.38397,0.34667 -0.34912,-0.21583 -0.45722,-0.16037 -0.2715,0.14003 0.16869,0.27452 -0.18694,0.62343 -0.79186,0.77541 -0.60554,0.15228 -1.39213,0.82051 -1.74813,1.48599 -0.42773,0.79901 -0.9197,1.12309 -1.44984,0.95487 -0.95645,-0.30341 -2.36587,0.16661 -2.36587,0.78779 0,0.25442 0.39138,0.23286 0.92154,-0.0511 1.32182,-0.70754 1.43093,-0.64149 1.348,0.81707 -0.0407,0.72076 0.0975,2.03403 0.30828,2.91855 0.27064,1.13672 0.2283,1.51264 -0.14419,1.28221 -0.30295,-0.18694 -0.52746,0.0208 -0.52746,0.44905 0,0.54318 0.26962,0.68929 0.90076,0.48913 0.61162,-0.19503 1.34479,0.15829 2.28315,1.09626 2.45672,2.45669 7.77545,3.34426 14.68468,2.4508 z m 32.16336,-18.4902 c -0.85853,-0.33448 -0.99163,-0.52893 -0.47651,-0.69596 1.30719,-0.4241 10.22932,-1.88569 11.19775,-1.83449 0.52406,0.0284 1.54941,-0.18902 2.27848,-0.48302 3.12442,-1.25721 1.46569,1.48907 -1.80216,2.98399 -1.50836,0.68988 -2.75074,0.83232 -5.956,0.68256 -2.2277,-0.10352 -4.58645,-0.39806 -5.24156,-0.65308 z M 543.638,495.58564 c 0.15852,-0.15852 0.56917,-0.17469 0.91318,-0.0386 0.38,0.15228 0.26721,0.26521 -0.28791,0.28795 -0.50231,0.0208 -0.78377,-0.0915 -0.62527,-0.25035 z m 55.38251,-12.57747 c -0.16176,-0.26211 -0.067,-0.47651 0.21028,-0.47651 0.27753,0 0.50444,0.21444 0.50444,0.47651 0,0.26213 -0.0924,0.47651 -0.21028,0.47651 -0.11554,0 -0.34269,-0.21445 -0.50444,-0.47651 z M 587.82267,364.31445 c -3.3146,-0.65828 -5.95742,-0.73987 -8.16154,-0.25181 l -1.72923,0.38276 -1.16149,-3.02029 -1.16189,-3.02031 2.41442,-0.62542 c 1.32769,-0.34401 3.35584,-0.82569 4.5068,-1.0704 1.1511,-0.24469 3.93841,-1.46421 6.19453,-2.70998 2.25593,-1.24576 4.39014,-2.26515 4.7427,-2.26515 0.42163,0 0.70165,0.77239 0.81869,2.2578 0.22715,2.88391 1.01742,4.37333 3.73137,7.03395 2.38556,2.33821 2.62842,3.01788 1.36073,3.80736 -0.95048,0.59187 -7.42687,0.30131 -11.55509,-0.51851 z m 29.18038,-25.92236 c -1.1034,-1.33122 -1.08884,-1.78767 0.1063,-3.35598 1.3146,-1.72378 2.94648,-2.1613 3.42366,-0.91814 0.73529,1.91654 0.46146,3.82696 -0.73506,5.12955 -1.14569,1.24685 -1.26123,1.27717 -1.81258,0.47639 -0.32398,-0.47036 -0.76626,-1.0698 -0.98371,-1.33182 z M 502.05371,568.539 l 1.19134,-0.68112 -1.31044,-0.0208 c -0.85465,-0.0208 -1.31022,0.23184 -1.31022,0.69799 0,0.8522 -0.061,0.8522 1.42932,0 z m -18.58328,-0.26638 c 0,-0.27758 -0.21444,-0.3723 -0.47649,-0.21005 -0.26195,0.16244 -0.4763,0.3889 -0.4763,0.50453 0,0.11577 0.21445,0.21005 0.4763,0.21005 0.26212,0 0.47649,-0.22692 0.47649,-0.50453 z m 12.86542,-2.35146 c 0,-0.26029 -0.42327,-0.40883 -0.94061,-0.3298 -1.4923,0.22785 -1.72884,0.80346 -0.33,0.80346 0.6988,0 1.27061,-0.21305 1.27061,-0.47366 z m -10.64302,-0.40009 c 0.44623,-0.71445 0.40214,-0.8748 -0.24261,-0.88087 -0.76302,-0.0208 -1.48094,0.66345 -1.49598,1.39698 -0.0208,0.7029 1.20315,0.3414 1.73859,-0.51611 z m 12.77054,-1.31188 c 0.44418,-0.67787 0.72561,-1.3147 0.62543,-1.41487 -0.0996,-0.0996 -0.5584,0.45455 -1.01801,1.23262 -1.02699,1.73838 -0.72037,1.88082 0.39258,0.18278 z M 474.1984,553.02122 c 0.17284,-0.27961 0.19919,-0.62262 0.061,-0.76243 -0.34135,-0.34139 -1.27079,0.26011 -1.27079,0.82214 0,0.609 0.82275,0.56836 1.21085,-0.061 z m 49.05943,-49.52377 c 0.16245,-0.26213 0.0813,-0.47651 -0.18301,-0.47651 -0.26193,0 -0.60899,0.21445 -0.77093,0.47651 -0.16268,0.26214 -0.0793,0.47651 0.18071,0.47651 0.26234,0 0.60916,-0.21444 0.77113,-0.47651 z m 8.33854,-0.47651 c 0,-0.26192 -0.22692,-0.4765 -0.50456,-0.4765 -0.27755,0 -0.37206,0.21467 -0.21005,0.4765 0.16245,0.26214 0.38893,0.47651 0.50475,0.47651 0.11577,0 0.20982,-0.21444 0.20982,-0.47651 z m -111.0607,-70.79908 c -0.0231,-0.55512 -0.13634,-0.66812 -0.28795,-0.28792 -0.13819,0.34382 -0.1197,0.75488 0.0386,0.91317 0.15852,0.15852 0.27087,-0.12386 0.25014,-0.62525 z m 31.96278,-26.87239 c 0.39299,-0.2595 1.16472,-0.47508 1.71522,-0.47894 1.27546,-0.0208 12.26557,-5.33888 14.53857,-7.05046 9.51282,-7.16339 14.73159,-15.48156 17.10539,-27.26463 0.23774,-1.17933 0.74269,-3.6451 1.12228,-5.4797 0.66405,-3.2089 0.98389,-8.02081 0.8451,-12.70961 -0.049,-1.67211 -0.39239,-2.61502 -1.37628,-3.78521 -1.08387,-1.289 -1.28523,-1.93352 -1.16514,-3.72935 0.14003,-2.10566 0.0813,-2.2105 -1.95578,-3.48143 -2.32768,-1.45148 -4.8878,-1.6597 -8.18553,-0.66574 -1.62582,0.49 -2.00904,0.87685 -2.69241,2.71723 -1.16981,3.15041 -4.21742,7.50495 -7.59359,10.84986 -2.30633,2.28498 -3.28737,2.94207 -4.39216,2.94207 -3.30507,0 -5.0408,0.97904 -7.1096,4.00979 -1.08831,1.59435 -2.76411,3.65343 -3.72425,4.57589 -0.95992,0.92249 -2.00151,2.15576 -2.31485,2.74083 -1.69002,3.15813 -10.59403,4.92891 -18.08623,3.59718 -3.89758,-0.6928 -12.47813,-0.76404 -15.88416,-0.13195 -1.36001,0.25252 -3.28148,0.14604 -5.63696,-0.31209 -1.96557,-0.38239 -5.72153,-0.82426 -8.34686,-0.98207 l -4.773,-0.28672 -1.82369,2.22557 c -1.04224,1.27213 -1.70892,2.52439 -1.55593,2.92316 0.14628,0.3836 1.21698,1.15873 2.37725,1.72253 1.87858,0.9126 2.18074,1.29067 2.75825,3.45107 0.63336,2.36925 0.71202,2.44773 3.34121,3.3353 1.92491,0.64984 2.84927,1.25346 3.24305,2.11767 0.30299,0.66477 1.08877,1.86603 1.74594,2.66952 0.65753,0.80325 1.66256,2.211 2.23356,3.12846 1.12246,1.8028 5.38785,4.24406 7.47105,4.27613 0.65513,0.0208 3.66391,1.2499 6.68612,2.75522 10.09479,5.02756 10.83847,5.20477 27.38324,6.52575 1.89078,0.1502 3.64501,0.0629 4.05019,-0.20543 z m -11.64397,-15.22723 c -2.34209,-0.27187 -4.47548,-0.71159 -4.74106,-0.97716 -0.2656,-0.26561 -0.97841,-0.48282 -1.58416,-0.48282 -1.32265,0 -5.37912,-1.83622 -5.37912,-2.43492 0,-0.23325 -0.41615,-0.42415 -0.92478,-0.42415 -0.50878,0 -1.02474,-0.16129 -1.14645,-0.35824 -0.12177,-0.19711 2.27788,-0.37058 5.33258,-0.38548 4.94978,-0.024 12.22148,-1.13818 15.40523,-2.3599 1.12309,-0.43089 1.66929,0.70186 1.96902,4.08169 0.26496,2.98985 0.22392,3.15404 -0.96886,3.87782 -0.87538,0.53118 -1.6112,0.63725 -2.47479,0.35683 -0.67622,-0.21952 -3.14553,-0.62176 -5.48761,-0.89367 z m -32.1936,-0.26882 c 0,-0.39299 0.21444,-0.71465 0.47648,-0.71465 0.26214,0 0.47649,0.32166 0.47649,0.71465 0,0.39321 -0.21444,0.71487 -0.47649,0.71487 -0.26192,0 -0.47648,-0.32166 -0.47648,-0.71487 z m 0.95297,-1.66774 c 0,-0.26204 0.21444,-0.47641 0.47674,-0.47641 0.2619,0 0.47627,0.21444 0.47627,0.47641 0,0.26221 -0.21444,0.47658 -0.47627,0.47658 -0.26235,0 -0.47674,-0.21444 -0.47674,-0.47658 z m 0.47674,-2.43342 c 0,-0.50155 0.56914,-0.54285 1.66845,-0.12085 0.59152,0.22692 0.64275,0.39778 0.20127,0.67066 -0.68501,0.42331 -1.86986,0.0746 -1.86986,-0.54971 z m -6.47499,-4.11597 c 0.51249,-0.51239 0.78456,0.20543 0.42468,1.12059 -0.33731,0.85881 -0.3627,0.86024 -0.52973,0.0312 -0.0954,-0.47907 -0.049,-0.99727 0.10561,-1.15142 z m 14.09883,0.35507 c 0,-0.26215 0.0936,-0.47662 0.20982,-0.47662 0.11577,0 0.3428,0.21444 0.50477,0.47662 0.16244,0.26205 0.067,0.4764 -0.21006,0.4764 -0.27757,0 -0.50456,-0.21444 -0.50456,-0.4764 z m -56.84931,-55.45095 c 0.41088,-0.22854 1.91477,-0.27838 3.34223,-0.11069 3.22785,0.37941 6.16978,-0.34918 6.57576,-1.6285 0.16476,-0.51817 0.49888,-0.94234 0.74331,-0.94234 0.24446,0 0.44441,-0.30994 0.44441,-0.68873 0,-0.37878 0.52222,-0.96845 1.16025,-1.31042 2.14825,-1.15089 7.95144,-5.20343 9.71644,-6.78517 0.96277,-0.86275 2.50099,-1.94628 3.41823,-2.40763 0.91725,-0.46149 2.55076,-1.55403 3.62997,-2.42787 3.70068,-2.99647 12.97089,-7.10535 19.92196,-8.83028 1.029,-0.25541 3.38773,-1.06065 5.24135,-1.78934 4.99872,-1.9653 7.90042,-2.94327 10.12545,-3.41231 1.09486,-0.23085 2.81027,-0.76695 3.81204,-1.19135 2.2084,-0.93561 4.83412,-1.80017 8.01584,-2.63936 1.31045,-0.34567 2.91857,-0.90694 3.57368,-1.24734 0.65511,-0.34038 1.72722,-0.62278 2.38233,-0.62747 1.12105,-0.0115 4.75428,-0.85252 11.10183,-2.58059 1.51973,-0.4137 3.40667,-0.75216 4.19303,-0.75216 0.78639,0 2.00905,-0.29091 2.71659,-0.64647 0.70777,-0.35556 3.10937,-1.12877 5.33685,-1.71821 2.22769,-0.58941 4.86929,-1.55726 5.87028,-2.15053 4.02273,-2.3848 5.4047,-6.9822 2.82588,-9.40067 -2.56744,-2.40754 -8.3119,-4.69555 -15.12888,-6.02568 -5.0294,-0.98146 -12.77172,-1.03537 -17.62231,-0.12293 -1.30638,0.24579 -2.51747,0.35858 -2.69158,0.25097 -0.1747,-0.10722 -3.93031,0.35554 -8.34647,1.02936 -6.20715,0.94701 -9.59756,1.76128 -14.93866,3.58743 -3.80028,1.29924 -8.51733,2.79836 -10.48291,3.33132 -1.96574,0.53299 -4.00263,1.23556 -4.52667,1.56126 -0.52406,0.32571 -2.02531,0.98047 -3.33553,1.45508 -1.31044,0.47457 -3.24025,1.34724 -4.28835,1.93942 -1.04832,0.59209 -3.08539,1.56438 -4.52688,2.16054 -1.44133,0.5963 -4.34361,1.90876 -6.44938,2.91654 -2.10575,1.00792 -4.04753,1.83257 -4.31496,1.83257 -0.26761,0 -2.13584,1.07206 -4.15197,2.38235 -2.01619,1.31054 -3.77264,2.3826 -3.9035,2.3826 -0.42794,0 -5.23403,3.53026 -5.6016,4.11478 -0.19711,0.31343 -1.46305,1.28477 -2.81271,2.15859 -1.34967,0.87374 -3.01022,1.96101 -3.69012,2.41586 -1.5681,1.04908 -9.69225,9.58364 -11.25284,11.82132 -0.79285,1.13697 -1.26816,2.61708 -1.45367,4.52676 -0.36982,3.80519 0.96723,6.49377 4.31354,8.67393 2.2545,1.46869 2.5788,1.54173 6.34351,1.42945 2.18237,-0.0649 4.30377,-0.30548 4.71423,-0.53416 z"
       id="path5417"
       inkscape:connector-curvature="0" />
    <path
       style="display:inline;opacity:1;fill:#000000"
       d="m 398.87769,47.856818 c 3.10679,-0.136528 5.30605,-0.148389 6.44269,-0.02373 1.39193,0.15208 7.16803,0.594426 12.82681,0.984191 5.65792,0.389211 12.38071,0.958835 14.93581,1.26431 2.55554,0.305292 6.34364,0.68512 8.42383,0.848427 4.20254,0.330251 5.71685,0.518649 13.09961,1.614777 12.55467,1.86435 22.47599,3.845224 28.24938,5.639412 1.48979,0.463405 2.79882,0.830556 2.90232,0.819249 1.06245,-0.112805 22.40075,8.051035 31.61639,12.091906 1.36255,0.597219 2.60603,1.066344 2.75389,1.050688 0.15261,-0.02109 1.79005,0.683986 3.65087,1.552522 1.86169,0.869406 4.9398,2.297631 6.84373,3.173335 3.58819,1.650149 10.24828,6.919827 23.11953,18.311359 2.88713,2.55568 5.98136,5.273486 6.87043,6.028846 2.11131,1.79501 5.95374,5.43604 9.54718,9.04936 1.58532,1.59355 3.13338,3.00794 3.44964,3.15051 0.31261,0.14258 0.59176,0.47655 0.64292,0.73556 0.0625,0.25856 1.2297,1.60764 2.64148,2.99901 8.62268,8.49304 10.39623,10.6898 14.2011,17.54266 3.41321,6.1481 3.71263,7.02407 2.52763,7.53046 -0.49155,0.21217 -1.79991,0.49269 -2.89451,0.62593 -1.09408,0.13283 -1.96858,0.35942 -1.95199,0.50074 0.0264,0.14497 -0.58116,0.31595 -1.31625,0.39481 -0.73536,0.0786 -2.53945,0.30695 -4.00864,0.49266 -3.96259,0.50181 -7.56662,0.7241 -8.06435,0.49727 -0.24432,-0.11258 -1.07383,-0.14971 -1.84626,-0.0814 -1.59743,0.13969 -5.27309,-0.19636 -6.56275,-0.59656 -1.42521,-0.44222 -6.60001,-0.89344 -6.97721,-0.60952 -0.19187,0.14469 -0.37362,0.11517 -0.39638,-0.0696 -0.0619,-0.18582 -0.68127,-0.2011 -1.4668,-0.0237 -0.78552,0.17476 -1.68141,0.15947 -1.98633,-0.0353 -0.29863,-0.18898 -1.77395,-0.43262 -3.27523,-0.53706 -2.99403,-0.21217 -3.28133,-0.26598 -4.24776,-0.69692 -0.35862,-0.16157 -1.51682,-0.41594 -2.5672,-0.57197 -1.0489,-0.16104 -2.69161,-0.55755 -3.65993,-0.85881 -0.9654,-0.30595 -2.06506,-0.51722 -2.43337,-0.48159 -0.36879,0.0406 -0.79936,-0.0935 -0.96358,-0.29499 -0.16737,-0.20347 -0.64799,-0.32659 -1.07053,-0.28165 -0.42348,0.0453 -1.35944,-0.30228 -2.08588,-0.77012 -0.72553,-0.46696 -1.42135,-0.72177 -1.54884,-0.56674 -0.14391,0.15234 -0.25908,0.0603 -0.28731,-0.22035 -0.063,-0.28131 -0.32424,-0.38465 -0.64271,-0.22351 -0.32295,0.15946 -0.88105,0.0627 -1.24647,-0.22113 -0.36393,-0.28363 -1.19011,-0.45382 -1.82948,-0.38923 -0.63839,0.0674 -1.65218,-0.0883 -2.25414,-0.34578 -1.08774,-0.46442 -1.55287,-0.62421 -6.93108,-2.34022 -3.75213,-1.19766 -7.76246,-2.67164 -9.11735,-3.34738 -0.60584,-0.30296 -1.88697,-0.80372 -2.83797,-1.10538 -0.95077,-0.30228 -2.32255,-0.85242 -3.05363,-1.23666 -1.85692,-0.97602 -2.92242,-1.45802 -4.17906,-1.89321 -0.59722,-0.20611 -1.33614,-0.64568 -1.65205,-0.97512 -0.31127,-0.32659 -1.50323,-0.90061 -2.64008,-1.26911 -1.13734,-0.36854 -2.41196,-0.90308 -2.82717,-1.18503 -0.97749,-0.665 -3.34135,-1.65626 -4.89256,-2.0585 -0.67197,-0.175 -2.03251,-0.63245 -3.0252,-1.01006 -0.99287,-0.37712 -3.4635,-1.2834 -5.49391,-2.02136 -2.03142,-0.73786 -4.24864,-1.73604 -4.93102,-2.21659 -0.68193,-0.48056 -1.34266,-0.75275 -1.46667,-0.60265 -0.2525,0.30196 -3.1611,-0.715 -3.60936,-1.25763 -0.4041,-0.49372 -5.09356,-3.12284 -5.49389,-3.07993 -0.1824,0.0211 -0.58455,-0.10995 -0.88106,-0.29731 -2.63494,-1.63823 -3.42839,-2.04428 -3.93315,-1.99015 -0.32227,0.03 -1.59438,-0.62901 -2.82205,-1.48125 -1.22763,-0.85243 -2.84607,-1.76251 -3.60256,-2.02038 -0.7543,-0.25909 -1.44965,-0.60363 -1.54129,-0.76037 -0.1642,-0.27066 -2.20386,-1.42392 -8.30746,-4.709046 -1.45118,-0.78124 -2.8442,-1.39902 -3.09211,-1.3721 -0.2517,0.0237 -2.12533,-1.23115 -4.17452,-2.79237 -3.04593,-2.31954 -4.02964,-2.85044 -5.43146,-2.93316 -1.65681,-0.0973 -1.71794,-0.14838 -1.73444,-1.48412 -0.0211,-1.14596 -0.0951,-1.29373 -0.5134,-0.81849 -0.37844,0.44119 -0.34021,1.72327 0.26533,5.5809 1.13174,7.397886 1.68228,14.205326 1.37633,17.184486 -0.14786,1.44815 -0.12493,3.17369 0.0237,3.83424 0.18107,0.66108 0.11281,2.47812 -0.19715,4.03307 -0.30594,1.55018 -0.55007,3.63732 -0.59859,4.63373 -0.0435,0.99796 -0.43169,3.41448 -0.86445,5.38018 -0.43702,1.96313 -0.85875,4.60021 -0.96194,5.84861 -0.0933,1.24973 -0.57092,3.9683 -1.06477,6.04451 -0.4941,2.07705 -1.03182,4.70095 -1.19845,5.82027 -0.6136,4.25939 -1.93854,8.7182 -3.3729,11.31082 -0.83014,1.47184 -1.46041,2.99749 -1.41784,3.36727 0.0704,0.37052 -0.25724,1.5556 -0.73261,2.63492 -0.44623,1.08439 -0.75562,2.57601 -0.65531,3.31964 0.22482,2.05037 -0.35527,3.92802 -1.24894,4.02347 -0.95077,0.10277 -1.33925,1.01216 -1.4272,3.35725 -16.83142,67.45216 -55.31503,80.00418 -63.37542,97.76304 -0.26467,0.81468 -0.52507,0.93269 -1.8844,0.87499 -1.37412,-0.0627 -1.75017,0.10756 -2.78647,1.29446 -1.32627,1.51721 -2.10299,1.9149 -1.07575,0.54848 0.60225,-0.79795 0.60027,-0.8631 -0.0756,-0.79449 -1.57258,0.16921 -3.74444,2.4177 -3.59752,3.72574 0.12914,1.19721 -1.26901,2.40833 -2.65743,2.29297 -1.02966,-0.0859 -1.30146,0.13231 -2.11585,1.6545 -0.55916,1.08047 -1.2578,1.78583 -1.75748,1.83915 -0.45494,0.0519 -1.44817,0.49527 -2.22469,0.99681 -0.77991,0.50131 -2.46168,1.25367 -3.73514,1.66968 -1.27351,0.41649 -2.49551,1.01996 -2.71404,1.3383 -0.23114,0.31794 -1.19721,0.66042 -2.20635,0.7689 -1.27868,0.13706 -2.68916,0.74928 -4.8144,2.0706 -1.65441,1.02947 -3.96372,2.19204 -5.12192,2.58997 -1.15872,0.39781 -2.07172,0.93531 -2.04413,1.18601 0.082,0.63586 2.59655,6.54071 3.86106,9.058 0.57633,1.15066 1.3671,2.87671 1.75007,3.82786 0.38574,0.95115 1.03219,2.40534 1.44194,3.2433 0.40602,0.83815 1.14844,3.28844 1.64229,5.43479 0.4929,2.14631 0.96738,3.99294 1.0582,4.10591 0.26304,0.32161 1.27147,5.90884 2.24273,12.38487 0.4895,3.25475 1.13566,7.51567 1.43412,9.46795 0.29462,1.95249 1.03325,5.8417 1.62983,8.64403 1.22364,5.74833 1.40795,8.97706 0.8353,14.54597 -0.63584,6.16174 -2.2987,11.64381 -4.57939,15.11708 -1.30736,1.99427 -4.63853,4.70915 -5.96025,4.85149 -0.96675,0.10333 -2.84815,2.90324 -3.8834,5.76958 -0.30594,0.84819 -1.79908,3.1911 -3.32599,5.21156 -1.52255,2.02309 -3.41663,4.58169 -4.21657,5.6751 -0.79892,1.09333 -1.90833,2.12528 -2.45637,2.28827 -0.93052,0.27567 -2.22481,0.97241 -4.75632,2.56998 -0.56774,0.35792 -1.35709,0.68179 -1.74631,0.72367 -0.61065,0.0672 -0.64044,-0.0237 -0.21401,-0.64402 0.43944,-0.64878 0.38668,-0.68115 -0.57724,-0.33719 -0.58325,0.20849 -1.39138,0.53259 -1.793,0.72488 -0.69585,0.33364 -0.70429,0.32092 -0.11178,-0.50962 1.06877,-1.4691 0.65178,-1.4745 -1.0295,-0.0103 -1.39939,1.22174 -1.63064,1.31431 -1.9102,0.75054 -0.27236,-0.54661 -0.46413,-0.45281 -1.16904,0.60795 -0.55732,0.82093 -0.74843,0.96519 -0.59522,0.42455 0.7245,-2.56836 0.6274,-2.67722 -2.06216,-2.38671 -1.37165,0.14733 -2.62769,0.0949 -2.79187,-0.10517 -0.16736,-0.20242 0.0822,-0.40635 0.54501,-0.45784 0.46506,-0.0535 0.82913,-0.26768 0.80491,-0.48565 -0.072,-0.66025 -2.00296,-0.23564 -2.20003,0.48414 -0.18266,0.67603 -0.63483,0.71295 -4.01217,0.34478 l -1.11395,-0.12151 0.28432,2.71304 c 0.38088,3.64502 0.20084,5.74279 -0.5944,6.97802 -0.37266,0.56006 -0.62318,1.20459 -0.61807,1.40369 0.0951,0.8436 -1.49941,2.94748 -2.91923,3.84678 -0.829,0.52503 -2.2499,1.03474 -3.1566,1.1324 -2.07088,0.22271 -2.52962,1.13727 -2.21044,4.42109 l 0.22693,2.36168 2.71357,1.39261 c 1.7637,0.90726 3.4937,1.44773 4.96457,1.55595 2.84298,0.21111 3.3149,0.16394 6.53412,-0.69991 2.53777,-0.68076 2.73084,-0.67489 5.55083,0.25593 1.60795,0.5299 3.15493,1.30145 3.44178,1.70568 0.28597,0.40432 1.01208,0.85061 1.60634,0.99651 l 1.08292,0.26864 -0.71651,1.42696 c -0.38718,0.78353 -0.67385,1.71148 -0.62706,2.07478 0.11519,0.99237 -2.89773,4.36881 -5.24047,5.88114 -1.83378,1.18421 -2.50137,1.38458 -5.77992,1.71786 -3.47561,0.35236 -3.9342,0.30795 -7.38455,-0.86163 -2.02478,-0.68639 -3.99435,-1.45746 -4.37651,-1.70658 -1.97316,-1.28588 -5.92436,-5.37218 -6.9647,-7.19815 -0.65243,-1.1429 -1.38958,-2.41482 -1.63438,-2.82939 -0.24433,-0.41443 -0.62803,-1.35905 -0.84856,-2.09648 -0.22034,-0.73672 -0.81474,-1.68008 -1.3234,-2.09697 -0.57226,-0.47299 -1.23753,-1.8382 -1.77995,-3.63339 -1.10803,-3.67362 -4.62212,-9.20059 -6.89195,-10.85319 -0.92576,-0.67455 -1.64165,-1.49609 -1.59922,-1.82843 0.0648,-0.32956 -0.0927,-0.17974 -0.30361,0.33674 -0.4709,1.15875 -0.82634,1.20491 -2.41623,0.35283 -0.99105,-0.53137 -1.34494,-1.08415 -1.76167,-2.71242 -0.58156,-2.26036 -1.12543,-2.98457 -2.15486,-2.87361 -0.87084,0.0939 -2.21051,-2.87155 -2.44599,-5.41593 -0.46411,-4.99594 2.18572,-8.9941 7.69356,-11.6289 2.50334,-1.19728 4.79264,-1.47502 8.92606,-1.0977 4.76584,0.43569 7.0487,0.94596 9.63605,2.17438 2.2466,1.06727 2.35649,1.0786 2.52419,0.28165 0.0967,-0.49016 0.64382,-0.98377 1.32133,-1.19191 1.04665,-0.32092 1.12232,-0.46643 0.78345,-1.56541 -0.85117,-2.757 -3.9389,-5.2 -8.4681,-6.69651 -6.8512,-2.26404 -7.34412,-2.37791 -9.45876,-2.17852 -1.95913,0.18476 -5.06404,1.66557 -7.78148,3.72204 -0.31894,0.24037 -1.55303,0.94357 -2.74507,1.55533 -2.70589,1.38951 -4.64997,3.12016 -4.54636,4.04451 0.12282,1.02816 -0.25303,1.28316 -1.20002,0.84748 -0.64519,-0.2983 -0.98294,-0.25224 -1.49734,0.18318 -0.37216,0.3083 -1.19533,0.86875 -1.84097,1.23827 -0.64743,0.36852 -1.90705,1.49562 -2.80724,2.50124 l -1.6396,1.82507 0.70396,6.25324 c 1.0499,9.4415 3.44931,16.70522 8.40194,25.46286 1.34798,2.38044 1.6073,2.93881 1.67245,3.52248 0.0682,0.3544 1.01113,2.08412 2.15233,3.85244 1.14014,1.76845 2.5515,3.98063 3.13288,4.91021 0.58373,0.92989 1.62627,2.36695 2.32775,3.18875 0.70001,0.82164 1.84393,2.41362 2.54691,3.53577 1.85334,2.95902 3.31132,4.0236 5.22567,3.82548 2.53371,-0.26199 3.00513,0.29063 0.89779,1.04877 -2.2158,0.79666 -2.26824,1.51058 -0.1758,2.41589 1.16808,0.50547 2.76289,0.63464 6.62096,0.527 8.49138,-0.24749 11.59511,0.25012 11.78119,1.89595 0.13283,1.15567 3.59499,3.13462 7.12254,4.0657 3.68594,0.97217 9.30633,-0.31794 14.51821,-3.32312 1.1822,-0.68232 2.41695,-1.27014 2.73803,-1.30475 0.32226,-0.03 1.24335,-0.47605 2.05933,-0.99283 2.04609,-1.29612 5.10102,-1.95565 7.00146,-1.50782 0.84504,0.20163 2.48096,1.00865 3.63373,1.79218 l 2.09972,1.41835 -0.53338,1.42527 c -1.10051,2.88378 -2.82546,5.81708 -4.31071,7.3385 -3.64468,3.73959 -9.68326,6.67993 -16.75454,8.16616 -4.82852,1.016 -6.03619,1.00353 -9.68399,-0.0786 -0.74744,-0.22166 -1.62633,-0.36493 -1.94646,-0.33025 -0.3176,0.03 -1.16552,-0.41902 -1.88976,-1.00258 -1.94911,-1.57061 -2.65919,-1.30251 -1.40735,0.53351 0.55634,0.81364 1.03999,1.84303 1.08973,2.28432 0.0661,0.44121 0.3581,1.53648 0.67958,2.44207 0.32226,0.90575 0.98564,3.58969 1.47596,5.96193 0.49358,2.37276 1.60652,6.497 2.48126,9.15927 2.04241,6.22392 3.56937,15.42153 4.48956,27.18205 0.38624,4.91966 0.70829,9.84056 0.7327,10.94099 0.0648,2.99787 0.51733,10.7952 1.05717,17.72699 0.88522,11.34956 0.85997,13.15941 -0.4462,26.91108 -0.0846,1.0043 -0.15023,2.98745 -0.1389,4.41846 0.0301,1.43063 -0.10516,3.88595 -0.25171,5.44546 -0.2538,2.66148 -0.14021,5.18428 0.71615,17.27958 0.19899,2.69306 0.24248,5.57542 0.0798,6.40477 -0.11438,0.83232 -10e-4,3.47174 0.3033,5.86478 0.29896,2.3926 0.51725,5.7873 0.47432,7.55606 -0.0482,1.76873 -0.0862,5.83888 -0.10231,9.03765 -0.0132,3.19856 -0.067,7.35105 -0.12073,9.23115 -0.0598,2.13157 0.657,10.5134 1.93637,22.24689 1.2597,11.60022 2.00668,20.12346 1.94734,22.22354 -0.0585,1.87426 -0.0103,4.22379 0.11281,5.22053 0.11413,0.99752 -0.0237,2.03236 -0.20031,2.29143 -0.21902,0.26041 -0.35092,2.02842 -0.32662,3.93323 0.0577,2.69609 -0.11018,3.68632 -0.71124,4.45383 -0.82576,1.05667 -1.97594,5.25834 -1.81864,6.65412 0.0717,0.46446 -0.19162,1.59656 -0.54894,2.50553 -0.35719,0.90766 -0.70232,2.83144 -0.745,4.27402 -0.0438,1.44141 -0.17817,3.35562 -0.31794,4.252 -0.12783,0.89787 0.2953,7.20925 0.94236,14.03139 0.64991,6.82216 1.10746,12.5566 1.00892,12.75524 -0.10596,0.18686 -0.0659,3.01798 0.077,6.25681 0.15709,3.74099 0.0677,6.22266 -0.22694,6.7989 -0.27431,0.48916 -0.59416,1.90853 -0.73271,3.13594 -0.14391,1.22812 -0.66351,4.26206 -1.163,6.742 -0.49004,2.48239 -0.85633,4.86343 -0.80417,5.29981 0.0672,0.43467 0.11649,2.68805 0.0491,5.00552 -0.0103,2.31642 0.034,5.02016 0.0716,6.00675 0.0822,0.98598 0.0103,3.14173 -0.034,4.80293 -0.076,1.66222 -0.19267,4.2101 -0.25171,5.65013 -0.067,1.4393 0.03,4.10545 0.24908,5.92266 0.20163,1.81784 0.18396,5.15696 -0.0388,7.42024 -0.59392,6.06953 -0.32658,7.81699 1.40641,9.25259 1.25669,1.03828 1.3787,1.29363 1.1161,2.38628 -0.18133,0.6693 -0.85229,1.77178 -1.53231,2.44788 -1.16936,1.16516 -1.22244,1.38914 -1.03958,4.31496 0.19478,3.14606 0.32759,3.44378 1.10658,2.51154 0.28664,-0.34983 0.5862,-0.4089 0.88293,-0.17949 0.60387,0.46794 -0.078,3.0579 -0.76242,2.88604 -0.81801,-0.20636 -0.85335,0.65052 -0.25223,6.87937 0.37263,3.90456 0.76563,6.15844 1.14933,6.69791 0.32193,0.44725 0.67129,1.69535 0.79308,2.78065 0.12915,1.12372 0.42683,2.02017 0.70711,2.07728 0.35136,0.072 0.38765,0.51365 0.10642,1.61315 -0.29195,1.15356 -0.2467,1.72505 0.19319,2.44216 0.53273,0.86807 0.46797,0.99044 -0.87207,1.80653 -1.07293,0.65418 -1.41926,1.14973 -1.3642,1.8993 0.0691,0.55233 -0.10516,1.43423 -0.33343,1.96468 -0.33829,0.81285 -0.26367,1.08501 0.41037,1.67448 0.72268,0.61705 0.91788,1.55559 1.65331,8.09719 1.36004,12.08805 1.42443,15.16118 0.47524,24.69349 -0.10642,1.11551 -0.11121,2.64107 -0.0237,3.40318 0.45589,3.76599 1.0204,11.6612 1.03155,14.37037 -0.002,2.61615 0.12519,3.06695 0.69588,3.21543 0.96779,0.24406 0.98909,1.3976 0.034,1.75093 -0.44185,0.15999 -0.771,0.55165 -0.74014,0.85815 0.0675,0.3083 -0.28897,1.47349 -0.72354,2.58886 -0.43752,1.11493 -0.92744,2.92059 -1.08764,4.00744 -0.16025,1.08645 -0.58995,2.36258 -0.95465,2.83338 -0.71524,0.92469 -0.75896,2.31783 -0.0822,2.24361 0.22403,-0.0354 0.54467,-0.50625 0.70107,-1.07326 0.16156,-0.56756 0.47136,-1.06028 0.69874,-1.08652 0.56784,-0.0659 0.58306,0.33567 0.11098,2.40969 -0.24012,0.9664 -0.38624,3.0324 -0.34704,4.59404 0.034,1.68659 -0.23115,3.68298 -0.66009,4.92054 -2.71059,7.70821 -4.23897,11.44289 -6.43583,15.69546 -2.57303,4.98149 -7.35791,11.61321 -7.49452,10.39535 -0.0712,-0.56636 -0.41086,-0.45184 -2.31346,0.74855 -1.23023,0.775 -2.48696,1.42925 -2.78262,1.46508 -0.29361,0.0354 -1.57074,1.08105 -2.84612,2.32008 -2.18184,2.11922 -2.34797,2.20991 -2.73494,1.46407 -0.22508,-0.43619 -0.32293,-0.96824 -0.22193,-1.17784 0.26368,-0.55899 -2.10699,-2.1471 -3.05921,-2.04431 -0.45007,0.0517 -1.58734,1.0748 -2.52856,2.27831 -1.50401,1.92687 -1.8997,2.20904 -3.36517,2.3666 -1.14449,0.12256 -1.87755,0.45435 -2.32983,1.05634 -0.36687,0.48055 -1.15541,1.17694 -1.7632,1.55486 -0.95433,0.59177 -1.1131,0.61749 -1.16813,0.13047 -0.0672,-0.31093 0.11624,-0.58965 0.34944,-0.61896 0.22403,-0.0354 0.58096,-0.51504 0.78053,-1.08789 0.19741,-0.57343 0.60753,-1.07509 0.93504,-1.10202 0.32325,-0.0354 0.43944,-0.22404 0.29029,-0.4185 -0.41186,-0.50794 -2.04933,-0.28165 -2.58063,0.35687 -0.23958,0.28832 -1.26879,0.66003 -2.28761,0.82769 -1.46894,0.24222 -1.97771,0.15155 -2.44446,-0.42053 -0.88369,-1.08004 -2.36147,-0.72313 -3.07078,0.73222 -0.58357,1.20441 -0.61962,1.21183 -1.20656,0.49527 -0.5098,-0.62133 -0.49475,-1.04288 0.0945,-2.63133 0.57138,-1.54233 0.59615,-1.94329 0.10152,-2.16571 -0.80724,-0.36849 -1.48871,0.37761 -1.6515,1.82539 -0.18212,1.59736 -0.85003,1.60015 -1.04085,-0.0103 -0.27532,-2.322 -0.77558,-2.45163 -2.69805,-0.68773 -17.6038,3.90354 -37.29643,2.24779 -53.74573,-5.36872 0.0482,-0.96641 -0.10653,-1.74406 -0.29996,-1.72264 -4.60304,7.14692 -8.39347,5.24174 -9.17218,-5.77024 -0.18423,-2.93136 -0.19346,-2.93136 -1.19199,-2.63473 -0.84502,0.25038 -0.97325,0.16499 -0.88664,-0.56042 0.0482,-0.47103 -0.23247,-1.17982 -0.62724,-1.57821 -0.71772,-0.71695 -0.72349,-0.71316 -1.39913,0.35187 -0.42107,0.64988 -0.63401,1.71059 -0.53188,2.6956 0.0919,0.89391 0.0533,2.19383 -0.12598,2.8935 -0.18872,0.69477 -0.31961,2.50991 -0.32425,4.0133 -0.0483,2.70587 -0.0483,2.71041 -0.30497,0.69007 -0.16947,-1.21908 -0.51249,-2.10111 -0.82802,-2.18809 -0.41138,-0.10961 -0.41623,-0.24407 0,-0.58037 0.33391,-0.28165 0.46459,-1.62582 0.35816,-3.78605 -0.12573,-2.78084 -0.28065,-3.42969 -0.8862,-3.81399 -0.39685,-0.25356 -0.77339,-0.80025 -0.81838,-1.20958 -0.12098,-1.05648 -0.71142,-0.85098 -1.1383,0.39072 -0.31459,0.89339 -0.49849,0.9965 -1.23847,0.71187 -0.49465,-0.19083 -0.84983,-0.17211 -0.82709,0.0211 0.063,0.20136 -0.23246,0.50573 -0.5677,0.67262 -0.92149,0.45787 -1.14119,-3.54504 -0.23246,-4.14817 0.35814,-0.23932 0.79371,-0.32427 0.95246,-0.20399 0.15471,0.12229 0.2467,-0.0846 0.20347,-0.44931 -0.0873,-0.73095 -0.73417,-0.81548 -1.06714,-0.14575 -0.13073,0.22878 -0.94035,0.89726 -1.83522,1.4657 -1.65906,1.05567 -5.31688,1.64545 -6.16239,0.99847 -0.2177,-0.1671 -0.98002,-0.1447 -1.70162,0.0404 -0.8663,0.23061 -1.71129,0.1721 -2.47501,-0.20347 -0.69305,-0.33875 -1.14505,-0.39679 -1.11505,-0.13285 0.0675,0.24117 -0.34364,0.49169 -0.82853,0.54174 -0.81356,0.0875 -0.87892,-0.0595 -0.87214,-2.0163 0.0482,-1.15952 -0.10152,-1.87399 -0.15472,-1.58928 -0.10642,0.28199 -0.70707,0.57647 -1.36916,0.64656 -0.66011,0.0736 -1.18426,0.30829 -1.1591,0.52794 0.063,0.21403 -0.39685,0.44119 -0.93503,0.49974 -0.94373,0.10014 -1.27235,-0.27198 -2.37531,-2.6524 -0.18871,-0.42506 -0.72257,-0.61343 -1.45336,-0.53476 -0.90937,0.0978 -1.2288,0.40332 -1.54045,1.47027 -0.21296,0.73988 -0.54061,1.68636 -0.7279,2.10894 -0.18396,0.42205 -0.16446,1.25137 0.0483,1.83095 0.27097,0.7726 0.16447,1.26087 -0.4162,1.85995 -1.00476,1.08556 -1.46162,0.66991 -1.06235,-0.97662 0.45496,-1.88401 0.70856,-6.0175 0.39202,-6.40453 -0.36294,-0.45686 -2.43677,-0.17 -2.91151,0.39831 -0.28566,0.33518 -0.50144,0.18871 -0.76807,-0.50431 -0.20795,-0.53587 -0.85857,-1.37651 -1.44757,-1.8662 -0.96163,-0.80243 -1.20464,-0.83583 -2.52485,-0.32759 -1.24589,0.47907 -1.45384,0.73926 -1.34683,1.69311 0.0738,0.61615 -0.0975,1.34596 -0.37269,1.62471 -0.75881,0.75223 -2.97648,0.42456 -3.53445,-0.51954 -0.62229,-1.04976 -0.92328,-8.38211 -0.37269,-9.17455 0.31919,-0.45837 0.2135,-1.33595 -0.41142,-3.64294 -0.91643,-3.37034 -1.66681,-16.08424 -1.07958,-18.20429 0.44516,-1.61227 -0.34843,-3.87418 -1.31072,-3.76978 -0.42594,0.0453 -0.83867,0.36346 -0.93093,0.70469 -0.26093,0.93947 -2.20791,0.9638 -3.20314,0.0404 -0.62177,-0.57423 -0.95228,-1.45782 -1.13097,-3.0458 -0.23195,-1.95794 -0.38718,-2.25417 -1.22191,-2.41789 -0.69845,-0.13494 -0.79571,-0.24038 -0.35345,-0.41246 1.12676,-0.43565 1.44331,-1.86435 1.2256,-5.58245 -0.11597,-2.03148 -0.17395,-4.18307 -0.16341,-4.77552 0.0764,-0.97156 -0.0817,-1.11139 -1.67471,-1.43971 -1.56218,-0.31995 -1.87107,-0.56987 -2.5271,-2.06861 -0.40668,-0.93678 -0.8131,-2.28628 -0.89218,-2.99445 -0.10014,-0.87693 -0.35317,-1.26777 -0.77173,-1.22215 -0.33894,0.0354 -0.64758,-0.20638 -0.68579,-0.54213 -0.0633,-0.33226 0.1924,-0.73792 0.50999,-0.90873 0.85555,-0.42506 0.60411,-1.53065 -0.46467,-2.02563 -0.66261,-0.30893 -0.88664,-0.68064 -0.78649,-1.36977 0.0527,-0.52702 -0.19239,-1.42635 -0.6004,-2.01142 -0.40669,-0.58554 -0.79229,-1.47015 -0.84658,-1.96018 -0.0712,-0.49071 -0.24775,-0.87404 -0.40642,-0.85525 -0.85713,0.0969 -2.86868,2.04695 -3.13804,3.04393 -0.28571,1.05237 -3.42719,4.87041 -4.06687,4.94334 -1.32811,0.15103 -1.56032,-4.43619 -0.39192,-7.66039 0.5448,-1.51032 0.71189,-2.50712 0.44042,-2.71861 -0.23721,-0.1874 -0.69213,-0.72096 -1.00762,-1.19397 -0.3487,-0.53327 -1.16602,-0.93018 -2.12674,-1.0423 -1.216092,-0.13943 -1.640966,-0.4104 -1.93037,-1.24022 -0.406681,-1.16397 -1.434076,-1.24001 -2.498883,-0.18081 -0.789648,0.78879 -1.296497,0.38062 -2.022363,-1.67076 -0.56008,-1.58133 -0.392184,-4.34894 0.299944,-5.18462 0.150228,-0.17632 0.231941,-0.5953 0.184492,-0.92786 -0.105392,-0.93929 1.423274,-2.61784 2.483348,-2.73241 0.526865,-0.0543 0.935394,-0.27965 0.911681,-0.48817 -0.0633,-0.21137 -0.314441,-0.24827 -0.640743,-0.0859 -0.886634,0.44069 -0.914579,-1.08377 -0.04745,-2.03562 0.445164,-0.4846 1.137828,-0.76023 1.769857,-0.71306 0.704788,0.0514 1.065343,-0.14021 1.145994,-0.58437 0.0738,-0.35738 0.242493,-0.97136 0.338693,-1.37347 0.34369,-1.13938 -0.511847,-0.76666 -0.913007,0.39731 -0.197678,0.57339 -0.546108,1.06278 -0.780684,1.08794 -0.604096,0.0672 -0.68396,-1.43211 -0.09752,-1.87528 0.270949,-0.20741 0.834987,-0.90637 1.242991,-1.5546 0.6344,-1.01089 0.675,-1.66857 0.275957,-4.63793 -0.247761,-1.90415 -0.309696,-4.27376 -0.173964,-5.26444 0.392197,-2.24184 0.367947,-2.50792 -0.260924,-2.3152 -0.826296,0.25435 -1.255903,-2.83934 -0.486819,-3.51629 0.596727,-0.5191 0.588025,-0.64972 -0.179223,-1.78217 -0.712954,-1.0685 -0.753537,-1.26507 -0.247749,-1.61011 0.314691,-0.21692 0.445164,-0.64438 0.28069,-0.94929 -0.391922,-0.74084 0.15024,-0.76467 1.169194,-0.0514 0.785968,0.54502 0.818378,0.51282 0.681588,-0.69926 -0.24248,-2.15253 -0.958331,-2.81465 -2.567946,-2.34063 -1.100655,0.32359 -1.416681,0.28333 -1.470974,-0.20427 -0.06855,-0.33822 0.09752,-0.7508 0.324455,-0.90684 0.499457,-0.37811 0.275957,-2.28563 -0.435686,-3.61979 -0.445165,-0.84726 -0.445165,-1.16505 0.04745,-1.5831 0.673684,-0.59313 0.517912,-3.27528 -0.309696,-5.23879 -0.285446,-0.68122 -0.382169,-1.3423 -0.208216,-1.47427 0.401673,-0.30394 -0.126516,-1.71859 -1.06613,-2.83111 -0.450184,-0.53354 -0.944634,-2.19384 -1.314952,-4.46398 -0.329189,-1.99049 -0.768034,-3.87691 -0.988375,-4.18683 -0.237211,-0.32925 -0.224037,-1.1382 0.04745,-1.94711 0.231941,-0.76427 0.392195,-1.73474 0.343697,-2.15845 -0.06855,-0.45333 0.08703,-0.68754 0.391921,-0.55407 0.255665,0.11729 0.425934,0.59909 0.358194,1.06126 -0.0527,0.52289 0.15024,0.99813 0.608841,1.24897 0.615695,0.33924 0.664456,0.52053 0.285708,1.08545 -0.299943,0.43769 -0.314702,1.09951 -0.04745,1.88966 0.353175,1.00936 0.501829,1.12161 0.888481,0.62784 0.776212,-0.98698 0.780695,-3.5049 0,-3.69842 -0.746682,-0.19134 -1.250896,-3.12876 -0.623338,-3.60403 0.681064,-0.51118 0.304951,-1.28611 -0.791758,-1.63132 -0.875833,-0.27567 -1.125704,-0.21086 -1.374503,0.35086 -0.25303,0.55566 -0.401685,0.45025 -0.745633,-0.56275 -0.242491,-0.68744 -0.660772,-1.31868 -0.941473,-1.38908 -0.75169,-0.19214 -1.00472,-2.05301 -0.425923,-3.15344 0.401673,-0.71703 0.387439,-0.99392 -0.05007,-1.10429 -0.396667,-0.10539 -0.420916,-0.24328 -0.08703,-0.53317 0.602772,-0.52069 0.885059,-2.62813 0.343959,-2.56887 -0.237222,0.0237 -0.501579,0.28699 -0.592245,0.57125 -0.105391,0.28165 -0.372417,-2.16629 -0.614373,-5.44782 -0.760209,-10.21446 -1.038276,-12.69938 -1.526932,-13.22075 -0.255665,-0.27598 -0.518174,-0.70274 -0.57801,-0.94251 -0.184492,-0.83215 -0.933022,-2.15067 -1.191847,-2.12244 -0.14497,0.008 -0.197677,0.66305 -0.12915,1.43708 0.121234,1.43444 -1.111206,3.55048 -1.779085,3.03468 -0.184503,-0.14576 -0.490241,-2.01794 -0.670786,-4.16053 -0.304951,-3.66307 -0.391922,-3.9515 -1.490479,-4.96044 -1.795167,-1.64749 -2.739002,-4.01 -2.951176,-7.41813 -0.113376,-1.64317 -0.387439,-5.67083 -0.631767,-8.95218 -0.24248,-3.28094 -0.623075,-9.20085 -0.841318,-13.14605 -0.213486,-3.94584 -0.61833,-10.84928 -0.876881,-15.34156 -0.255666,-4.49221 -0.474159,-8.9773 -0.486283,-9.96834 -0.0011,-2.79714 -0.319448,-14.79398 -0.612274,-25.58915 -0.176588,-5.38597 -0.284922,-10.52341 -0.189773,-11.40887 0.469413,-27.32025 2.147293,-57.58472 4.761102,-85.90133 1.51499,-16.39745 2.290404,-23.83669 2.596678,-24.8451 0.276481,-0.90725 0.377687,-4.39173 0.338678,-11.7515 -0.09227,-17.24433 -0.100144,-16.08 0.329463,-30.70937 0.250384,-8.50031 0.600936,-16.06689 1.212149,-25.98466 0.155509,-2.55345 0.817856,-10.11257 1.45674,-16.79608 0.638371,-6.68369 1.268027,-13.44164 1.412724,-15.02007 0.14497,-1.57761 0.964924,-7.70304 1.811067,-13.61797 1.920884,-13.45002 2.616433,-17.70121 6.299007,-38.33742 2.183929,-12.23995 2.245339,-12.55067 5.922648,-31.10314 2.00549,-10.1586 2.34812,-12.6698 2.62066,-19.32694 0.91774,-22.26565 4.35968,-58.0785 7.12214,-74.13333 2.21503,-12.87118 3.39212,-19.25875 4.35573,-23.71521 0.58907,-2.70894 1.37872,-6.58481 1.74956,-8.61073 0.39694,-2.0209 0.91379,-4.88065 1.2032,-6.34551 0.29018,-1.4656 0.68896,-3.49159 0.88954,-4.50588 0.79888,-4.04886 7.1738,-31.28487 8.99347,-38.45753 0.5759,-2.26659 1.59117,-6.35926 2.26063,-9.10013 1.3745,-5.60841 1.77961,-6.736 5.28349,-14.28039 6.81379,-14.68676 8.99453,-18.9252 13.79695,-26.81575 3.80646,-6.25838 6.35065,-10.10718 9.69728,-14.65724 0.99213,-1.35274 2.60619,-3.61483 3.57894,-5.03445 2.81189,-4.09566 11.46087,-14.24067 14.5636,-17.07034 1.55932,-1.42181 3.77446,-3.43995 4.91567,-4.49667 2.24608,-2.07975 16.74719,-13.75126 18.33793,-14.75822 0.53633,-0.33874 2.87772,-2.024496 5.20371,-3.752526 2.32652,-1.72763 5.96278,-4.33607 8.09178,-5.78923 2.12841,-1.45288 6.05628,-4.12647 8.71525,-5.95155 10.99655,-7.545985 16.21593,-10.576572 21.12292,-12.218101 9.16753,-3.066222 23.59046,-7.058278 35.35248,-9.798809 4.46583,-1.040779 8.38857,-2.01909 8.71312,-2.173858 0.66485,-0.316625 16.53807,-2.994873 27.40122,-4.616108 3.94366,-0.588654 19.49764,-2.39805 34.55451,-4.022315 l 0.29465,-0.04059 c 21.47983,-2.316949 38.96814,-3.845461 48.28804,-4.254545 z m 85.1005,13.029102 0,0 c -0.072,0.01581 -0.15445,0.05482 -0.22404,0.107536 -0.22746,0.176591 -0.37943,0.67115 -0.3436,1.088563 0.0973,0.883534 0.63003,0.951086 1.18489,0.143118 0.40751,-0.58839 -0.0907,-1.44367 -0.60961,-1.339665 z m 7.41004,1.520946 c -0.33827,0.03531 -1.06904,1.895927 -1.01058,2.525855 0.0915,0.789175 1.16727,0.214281 1.51965,-0.809445 0.3596,-1.046076 0.13549,-1.787704 -0.50975,-1.717675 z m 9.45888,4.363241 c -0.13995,0.05773 -0.22613,0.2933 -0.18423,0.63101 0.0648,0.446747 0.26969,0.786434 0.50033,0.76208 0.22192,-0.02372 0.38479,-0.296646 0.34846,-0.614271 -0.0619,-0.311934 -0.26667,-0.651831 -0.51279,-0.761528 -0.0585,-0.03004 -0.10516,-0.04534 -0.15024,-0.01582 z m 11.59806,3.789401 c -0.35817,0.03531 -0.51137,0.238002 -0.34894,0.440237 0.16737,0.203475 0.47864,0.348833 0.69282,0.325243 0.21033,-0.01581 0.37553,-0.224823 0.34894,-0.440211 -0.0606,-0.217971 -0.34314,-0.363461 -0.69282,-0.325269 z M 139.59645,180.04239 c -0.2467,0.0237 -0.41135,0.22535 -0.38715,0.44274 0.0675,0.22007 0.12572,0.39477 0.22271,0.38162 0.087,-0.0103 0.28066,-0.20953 0.38719,-0.44272 0.12571,-0.22271 0.0482,-0.40534 -0.22272,-0.38164 z m 208.66529,18.04108 c -0.22193,0.0237 -0.39491,0.22299 -0.36392,0.44122 0.0611,0.21507 0.22166,0.37809 0.45394,0.35387 0.22193,-0.0237 0.40171,-0.23194 0.36588,-0.45231 -0.0704,-0.22008 -0.22482,-0.365 -0.45397,-0.34177 z m 5.76955,14.21335 c -0.22192,0.0237 -0.39492,0.22297 -0.36393,0.44121 0.0704,0.22008 0.23695,0.37662 0.46752,0.35287 0.22192,-0.0237 0.37987,-0.22299 0.35908,-0.44172 -0.0704,-0.22008 -0.22641,-0.37911 -0.45395,-0.35387 z m 0.2554,2.01959 c -0.13574,0.0103 -0.24644,0.0722 -0.31991,0.14391 -0.13153,0.14075 0.13414,0.22166 0.56054,0.15655 0.47382,-0.072 0.56457,-0.17685 0.22088,-0.26765 -0.15445,-0.0453 -0.31663,-0.0453 -0.46219,-0.0354 z m -14.64238,66.66832 0,0 c -0.66593,0.10961 -1.55323,0.71702 -1.49954,1.196 0.074,0.52616 2.00517,0.26502 2.28664,-0.30427 0.14286,-0.24696 0.0438,-0.61991 -0.22984,-0.81379 -0.13335,-0.0985 -0.32458,-0.10596 -0.54624,-0.0814 z m -109.36227,99.81613 c -0.12045,-0.0404 -0.28165,-0.0237 -0.45837,0.0453 -0.35279,0.13494 -0.7314,0.47152 -0.9146,0.90868 -0.20796,0.47956 -0.28466,0.94134 -0.20032,1.01457 0.26965,0.2106 1.85628,-1.22588 1.80805,-1.64738 -0.0131,-0.17817 -0.12177,-0.28199 -0.23774,-0.3226 z m 49.62513,21.48811 c -0.82188,0.0883 -0.92744,0.70823 -0.15867,1.05511 0.26735,0.12414 0.81259,0.79463 1.21466,1.49636 0.76522,1.335 1.0194,1.44156 1.83778,0.81016 0.39683,-0.30696 0.36053,-0.47606 -0.18766,-0.82489 -0.38185,-0.24433 -0.7277,-0.73172 -0.76822,-1.09716 -0.0951,-0.86877 -0.98081,-1.53437 -1.91069,-1.43447 z m -41.37871,56.94906 0,0 c -0.0846,0.002 -0.17922,0.0569 -0.26534,0.16552 -0.13126,0.13995 -0.0973,0.49318 0.0211,0.75138 0.18475,0.38918 0.27666,0.37455 0.49581,-0.0585 0.23564,-0.41699 0.0438,-0.86101 -0.23035,-0.85944 z m 6.43075,2.13593 c -0.22193,0.0237 -0.38036,0.22482 -0.35908,0.44168 0.0704,0.22008 0.22166,0.37865 0.45493,0.3539 0.22193,-0.0237 0.38959,-0.22272 0.3591,-0.44171 -0.0606,-0.21798 -0.22641,-0.37865 -0.45395,-0.35387 z m 0.37653,1.56154 c -0.33294,0.0353 -0.5658,0.33567 -0.53077,0.66113 0.0643,0.32559 0.2264,0.58104 0.42205,0.55924 0.19742,-0.0237 0.4341,-0.32261 0.5308,-0.66132 0.12282,-0.37306 -0.0696,-0.59758 -0.422,-0.55855 z m -0.80509,3.35232 c -0.12889,-0.0506 -0.23537,-0.0354 -0.33257,0.03 -0.19399,0.13178 -0.3083,0.46143 -0.2417,0.97288 0.0706,0.54382 0.30495,0.96831 0.54063,0.94311 0.55136,-0.0595 0.83646,-1.13061 0.43511,-1.62701 -0.14391,-0.1729 -0.28698,-0.27366 -0.40603,-0.31995 z M 85.301021,777.41475 c 0.07117,-0.0354 0.142335,0.18977 0.192408,0.59962 0.07117,0.5439 -0.05007,0.77743 -0.150229,0.51609 -0.150239,-0.2604 -0.179233,-0.70322 -0.105391,-0.98727 0.0633,-0.0752 0.07117,-0.10995 0.07117,-0.12573 z m 10.171081,36.21995 0,0 c -0.160779,0.0635 -0.275957,0.38871 -0.275957,1.01909 -0.04745,0.55362 0.324182,1.3262 0.722969,1.72387 0.684748,0.68119 0.704515,0.62344 0.420916,-1.04387 -0.202947,-1.17833 -0.584592,-1.80383 -0.852644,-1.69833 z m 3.634601,2.99827 c -1.063758,0.11258 -1.53186,1.50922 -1.278305,3.77378 0.160779,1.39506 0.44042,2.33289 0.70083,2.30511 0.237211,-0.03 0.348431,-0.34834 0.255666,-0.7224 -0.247761,-0.91283 0.131773,-2.56274 0.80045,-3.47801 0.554026,-0.75602 0.24775,-1.95509 -0.479166,-1.87768 z m 1.099867,2.69394 c -0.420914,0.0453 -0.5274,0.71945 -0.231939,1.42949 0.09227,0.21032 0.372689,1.08895 0.634939,1.94236 0.44043,1.43086 0.45966,1.35891 0.25303,-0.92715 -0.12125,-1.42245 -0.40669,-2.46801 -0.64522,-2.44249 z m -2.006541,4.56487 c -0.0633,0.008 -0.09752,0.0549 -0.150229,0.11781 -0.343697,0.41953 -0.168683,3.76349 0.213486,4.12611 0.231941,0.2127 0.567198,1.09066 0.75064,1.95088 0.58644,2.77995 0.887432,0.36502 0.348442,-2.83107 -0.382443,-2.32627 -0.783592,-3.45891 -1.160754,-3.36376 z m 196.730821,4.14297 c 0.22298,-0.03 0.42349,0.13204 0.45397,0.35387 0.0611,0.21428 -0.13152,0.41697 -0.35914,0.44172 -0.22297,0.03 -0.44234,-0.13653 -0.46751,-0.35287 -0.0611,-0.21507 0.14601,-0.41546 0.36396,-0.44122 z m -0.25513,8.84786 c 0.23273,-0.03 0.50998,0.6255 0.6003,1.44227 0.0909,0.81598 0.32458,1.87913 0.51096,2.35501 0.44282,1.08493 -0.17502,1.18692 -1.0014,0.17132 -0.47766,-0.5876 -0.5216,-0.90436 -0.20348,-1.37158 0.24407,-0.33572 0.2604,-1.04327 0.0506,-1.5831 -0.21534,-0.56062 -0.1953,-0.98725 0.0482,-1.01505 z m -192.70545,7.60784 c -0.44042,0.0511 -0.89982,0.70452 -0.64522,1.24054 0.18978,0.40286 0.47416,1.26507 0.63362,1.90812 0.16078,0.64401 0.41618,1.32454 0.57827,1.52261 0.16078,0.19689 0.48576,0.33624 0.71612,0.31263 0.38743,-0.0404 -0.34845,-4.11549 -0.87241,-4.79281 -0.11076,-0.14629 -0.25567,-0.20137 -0.39194,-0.18556 z m -3.071886,32.87914 c 0.270949,-0.0579 0.290453,0.14022 0.189761,0.71218 -0.09752,0.50556 -0.570881,1.36531 -1.081152,1.91473 -1.058487,1.15379 -1.670499,1.33892 -1.763013,0.51896 -0.0738,-0.70385 1.323118,-2.53129 2.300168,-3.00147 0.139689,-0.0706 0.255654,-0.12624 0.353437,-0.14443 z m 6.780036,4.06217 c -0.0579,0.002 -0.1054,0.0453 -0.15551,0.072 -0.20822,0.16315 -0.2504,0.44322 -0.0764,0.63362 0.41617,0.51149 0.64125,0.38769 0.56139,-0.30995 -0.0633,-0.25488 -0.1555,-0.40334 -0.30494,-0.39072 z m -6.667231,0.58926 c 0.309695,-0.0404 0.751165,0.13046 1.287271,0.5043 1.32996,0.92497 1.28937,2.67077 -0.087,3.55238 -0.640209,0.41196 -1.153638,0.87974 -1.136244,1.03938 0.0633,0.15814 -0.382432,0.83016 -0.89139,1.48824 -0.510795,0.65905 -1.0005,1.20883 -1.096173,1.22088 -0.08167,0.002 -0.224037,-0.58252 -0.275957,-1.31337 -0.0738,-0.73071 -0.24248,-1.4992 -0.411437,-1.70853 -0.163403,-0.20954 0.265942,-1.05722 0.975201,-1.87813 0.702678,-0.81991 1.249059,-1.79822 1.222962,-2.16906 -0.06855,-0.43621 0.08703,-0.69155 0.411426,-0.73256 l 0,0 z m 6.047571,0.82481 c -0.22667,0.0103 -0.43067,0.23167 -0.46941,0.65907 -0.0474,0.44478 0.19768,0.68014 0.61912,0.63394 0.38718,-0.0403 0.59329,-0.31992 0.48391,-0.6706 -0.13442,-0.4195 -0.39693,-0.63098 -0.62861,-0.62215 z m 11.09306,7.28337 c -0.0817,0.002 -0.17923,0.0511 -0.2807,0.17763 -0.12651,0.13416 -0.0817,0.66301 0.0817,1.15847 l 0.25566,0.91658 0.23721,-0.95839 c 0.18978,-0.69699 0.0474,-1.25767 -0.22667,-1.28072 l -0.0579,-0.0103 z m 0.57247,2.38771 c -0.53609,0.0606 -0.32419,1.39628 0.33895,1.89229 0.59724,0.45889 1.75036,0.45386 2.13965,-0.0159 0.46942,-0.55987 0.13969,-0.96408 -0.66894,-0.87194 -0.45491,0.0541 -0.96729,-0.16684 -1.13334,-0.474 -0.16868,-0.31262 -0.47442,-0.5528 -0.67316,-0.53012 z m 18.12902,29.7398 c -0.10014,-0.0846 -0.44992,0.15867 -0.75777,0.52901 -0.37268,0.45636 -0.43567,1.01218 -0.17395,1.70036 0.39694,1.02937 1.55215,1.32725 1.53371,0.39628 0,-0.82142 -0.38719,-2.45892 -0.60094,-2.6258 z m 40.47773,29.48475 0,0 c -0.0583,0.002 -0.0774,0.0509 -0.0724,0.12546 -0.10642,0.27867 -0.0482,0.72663 0.11624,0.98633 0.14522,0.25671 0.2127,0.0237 0.15023,-0.51616 -0.0674,-0.40841 -0.12071,-0.63427 -0.19346,-0.59961 z m -25.68615,2.98273 c 0.50624,-0.0549 0.50238,0.28064 -0.0482,0.97973 -0.25672,0.32459 -0.51446,0.55259 -0.58368,0.50281 -0.26146,-0.18556 0.28563,-1.44092 0.61899,-1.48276 z m -11.65054,1.42352 c 0.12573,0.0237 0.2467,0.0838 0.32428,0.18846 0.16446,0.20637 0,0.41491 -0.33395,0.45175 -0.72355,0.0772 -0.85904,-0.14838 -0.31929,-0.55035 0.0919,-0.0706 0.22272,-0.10676 0.32894,-0.0883 z m 26.33079,-0.52903 c 0.2127,-0.0569 0.43555,-0.0103 0.72251,0.13495 0.41627,0.20004 0.71344,0.61546 0.65872,0.91782 -0.0583,0.30228 -0.15024,1.00673 -0.19346,1.56275 -0.0482,0.55639 -0.24669,1.25675 -0.45977,1.5594 -0.60932,0.93372 -1.27768,0.44014 -1.7181,-1.26842 -0.32892,-1.28627 -0.26093,-1.78792 0.29531,-2.38485 0.26599,-0.28997 0.46944,-0.45383 0.6882,-0.51524 l 0,0 z m -26.55726,3.18547 c 0.64265,-0.067 0.86579,0.38216 0.44521,0.88859 -0.42587,0.50644 -0.92968,0.39121 -0.99742,-0.22984 -0.0674,-0.32658 0.21297,-0.626 0.5551,-0.66118 z m 29.83903,0.40133 c 0.58562,-0.0667 0.98487,1.19336 0.57158,1.79603 -0.4404,0.64168 -1.10924,0.85235 -1.163,0.36902 -0.0774,-0.76411 0.30961,-2.13366 0.5953,-2.16397 z m -9.33815,1.18727 c 0.12573,-0.0557 0.15024,0.14733 0.087,0.64608 -0.0583,0.55399 -0.2467,0.75025 -0.39201,0.46344 -0.13547,-0.27567 -0.0774,-0.71478 0.14022,-0.97337 0.063,-0.078 0.11623,-0.10881 0.15023,-0.13942 z m -11.11001,0.73906 c 0.16948,-0.0704 0.27101,0.16026 0.32926,0.69781 0.0677,0.55148 -0.0482,1.15145 -0.16448,1.33436 -0.15471,0.18001 -0.37265,-0.0506 -0.50812,-0.52297 -0.13548,-0.4735 -0.097,-1.08318 0.14522,-1.34607 0.0675,-0.0919 0.14523,-0.14391 0.19846,-0.16183 z m -8.62187,0.39628 c 0.087,-10e-4 0.18398,0.24776 0.22272,0.57469 0.0674,0.32659 -0.12072,0.61878 -0.31926,0.65172 -0.22271,0.0354 -0.32427,-0.24459 -0.22746,-0.58644 0.0675,-0.34429 0.2467,-0.62455 0.30962,-0.64476 z m 2.40531,1.34319 c 0.22271,-0.0353 0.41621,0.14075 0.44529,0.3539 0.063,0.21376 -0.13073,0.41644 -0.35816,0.44172 -0.22272,0.0356 -0.44042,-0.13653 -0.46944,-0.35287 -0.063,-0.21402 0.13547,-0.41596 0.36299,-0.44121 l 0,0 z m 134.97978,2.54671 c -0.15919,0.03 -0.38234,0.1339 -0.66664,0.30029 -0.5185,0.29896 -0.97299,0.9742 -1.01967,1.50331 -0.10596,1.26178 0.38139,1.16307 1.29498,-0.24696 0.7273,-1.12354 0.86006,-1.64573 0.39101,-1.55614 z m -29.40243,13.75671 c 0.22402,-0.0354 0.42735,0.13837 0.45444,0.35387 0.0611,0.21401 -0.14655,0.41649 -0.36391,0.4412 -0.22403,0.0354 -0.42737,-0.1381 -0.45397,-0.35386 -0.0617,-0.21402 0.15076,-0.41546 0.36394,-0.44121 z M 50.06192,997.51066 c 0.358194,-0.035 0.542424,0.1201 0.42119,0.3543 -0.129151,0.227 -0.377436,0.4458 -0.593819,0.4695 -0.218767,0.03 -0.40643,-0.1389 -0.430679,-0.3534 -0.0633,-0.2134 0.247761,-0.4346 0.604369,-0.4694 z"
       id="path3552-2-5-1"
       inkscape:connector-curvature="0"
       sodipodi:nodetypes="ccccscsccccccccccccccccccccccccccccccccccccccccccccccccccccccccccscscccccccccccccccccccccccccccccccccccccccccccccccccccccccccccccccccccccccccccccccccccccccccccccccccccccccccsccccccccccccccccscccsccccccccccccccccccscccccccsscccccccccccccccccccccccccccccccccccccccccccccccccccccccccccccccccccccccccccccccccccccccccccccccccccccccccccccccccccccccccccccccccccccccccccccccccccccccccccccccccccccccccccccccccccccccccccccccccccccccccccccccccccccccccccccccccscccccsccscccccccccccccccccccccccccccsccccccccccccccccccccccccccccccccccccccccccccccccccccccccccccccccccccccccccccccccccccccccccccccccccccccccccccccccccccccccccccccccccccccccccccccccccccccccccccccccccccccccccccccccccccccccccccccccccccccccccccccccccccccccccccccccccccccccccccccccccccccccccccccccccccccccccccccccccccccccccccccccc" />
  </g>
</svg>
