<?xml version="1.0" encoding="UTF-8" standalone="no"?>
<!-- Created with Inkscape (http://www.inkscape.org/) -->

<svg
   xmlns:dc="http://purl.org/dc/elements/1.1/"
   xmlns:cc="http://creativecommons.org/ns#"
   xmlns:rdf="http://www.w3.org/1999/02/22-rdf-syntax-ns#"
   xmlns:svg="http://www.w3.org/2000/svg"
   xmlns="http://www.w3.org/2000/svg"
   xmlns:sodipodi="http://sodipodi.sourceforge.net/DTD/sodipodi-0.dtd"
   xmlns:inkscape="http://www.inkscape.org/namespaces/inkscape"
   width="210mm"
   height="297mm"
   viewBox="0 0 744.09448819 1052.3622047"
   id="svg10872"
   version="1.1"
   inkscape:version="0.91 r13725"
   sodipodi:docname="faceLookingDown.svg">
  <defs
     id="defs10874" />
  <sodipodi:namedview
     id="base"
     pagecolor="#ffffff"
     bordercolor="#666666"
     borderopacity="1.0"
     inkscape:pageopacity="0.0"
     inkscape:pageshadow="2"
     inkscape:zoom="0.24748737"
     inkscape:cx="374.66935"
     inkscape:cy="1031.2808"
     inkscape:document-units="px"
     inkscape:current-layer="layer1"
     showgrid="false"
     inkscape:window-width="1366"
     inkscape:window-height="715"
     inkscape:window-x="0"
     inkscape:window-y="0"
     inkscape:window-maximized="1" />
  <metadata
     id="metadata10877">
    <rdf:RDF>
      <cc:Work
         rdf:about="">
        <dc:format>image/svg+xml</dc:format>
        <dc:type
           rdf:resource="http://purl.org/dc/dcmitype/StillImage" />
        <dc:title></dc:title>
      </cc:Work>
    </rdf:RDF>
  </metadata>
  <g
     inkscape:label="Layer 1"
     inkscape:groupmode="layer"
     id="layer1">
    <path
       style="fill:#000000"
       d="m 505.94911,174.18329 c -25.41263,0.96414 -41.3339,5.47342 -66.68945,21.06724 -15.91046,9.03498 -27.83633,27.18531 -31.90039,50.81169 0,0 -3.32072,44.08971 34.38017,6.22844 12.80874,-26.31213 30.89639,-51.00053 60.72346,-50.53513 26.91865,-2.37669 53.21755,1.05631 79.69922,6.2285 18.95867,5.5535 37.86825,14.20629 55.32315,19.97556 23.01405,7.58762 53.8768,-2.56302 21.67684,-18.52631 -27.80826,-18.05978 -59.47341,-29.90205 -92.82225,-31.49805 -19.95221,-4.01514 -40.20788,-3.40221 -60.39075,-3.75194 z m -306.19336,44.69727 c -29.89298,-1.32829 -59.88595,5.0664 -84.79732,22.09411 -16.738757,12.36053 -37.789547,21.02762 -49.981977,38.28479 1.50455,24.87548 31.43665,11.20784 43.345707,1.41406 19.71383,-19.08255 47.54326,-19.9683 73.44531,-20.68359 27.91367,-0.95303 57.88565,10.12876 76.48047,31.20898 19.49218,32.20487 31.37016,74.25609 35.24677,110.70502 2.5565,52.8774 6.82066,49.14187 9.01842,102.05144 0.48196,32.00822 19.46867,69.5832 -8.1211,74.23047 -19.33346,7.78204 -53.28585,22.89306 -52.06034,45.75858 2.67384,25.30133 21.15195,44.03126 42.14164,55.98088 22.59948,14.46461 44.09414,32.29339 69.35742,41.84375 32.27681,4.88535 69.56069,2.89301 94.01426,-21.6566 10.66235,-8.89339 28.40957,-28.81408 28.40957,-28.81408 10.4364,-16.39816 21.27261,-32.41492 27.67578,-50.96484 6.6155,-17.45148 5.85453,-45.16023 -11.75391,-56.54688 -15.654,-7.97038 -50.68503,2.97903 -41.52079,25.34891 23.77355,5.42345 37.48438,23.23083 17.79814,45.99094 -17.3274,28.4297 -45.88358,52.78768 -81.17503,50.96787 -24.88738,5.0255 -46.54675,-6.26949 -64.58474,-22.31162 -17.76282,-14.14289 -47.25964,-20.97391 -49.66992,-47.44922 1.62206,-26.11476 42.40657,-15.70436 34.6423,5.84905 3.57035,27.16733 29.94436,38.82614 25.65808,6.73255 -0.6135,-47.05927 -15.21857,-92.66781 -11.45468,-139.94293 -4.88599,-88.95299 4.12616,-125.23852 -28.19201,-210.25568 -10.20504,-35.90115 -48.09105,-53.52553 -82.02865,-59.08532 l -4.24184,-0.3848 -7.65139,-0.36581 z m 438.0625,88.57812 c -17.11071,17.73319 -41.39795,29.10067 -49.65429,52.35742 -19.02223,24.62787 -37.53427,25.88382 -57.30424,29.79279 -14.4758,-2.7386 -31.47809,-2.99483 -43.67052,-14.11108 -15.31334,-9.51703 -29.91553,-23.98601 -46.78516,-28.77734 -19.47902,4.95656 -23.1104,34.0538 -4.64258,43.90824 -15.41715,67.01544 16.82049,5.67567 40.22657,21.28049 22.33194,5.39675 10.1959,37.20255 34.54015,23.1477 1.15097,-5.50963 -4.74214,-17.41154 -0.99751,-19.12527 4.99056,-2.28394 18.13612,-6.10951 22.05168,-3.14557 8.58454,22.22431 28.58556,16.71893 26.54312,-6.35177 2.76314,-12.58208 30.49604,-11.46258 30.14441,-13.83915 20.25525,30.85114 27.6444,-1.57333 21.65954,-15.76314 -2.64195,-11.25492 13.73492,-25.19635 24.38308,-31.04123 11.65657,-11.18686 -18.01185,-7.37354 0.87278,-23.50364 1.13841,-3.44029 9.91089,-13.80129 2.63297,-14.82845 z m -57.19336,60.32227 c 0.93002,1.8955 -1.44651,0.47407 0,0 z M 84.267463,378.35516 c -15.8072,4.64993 -21.17407,21.78896 -26.6914,35.34771 -4.31432,26.99028 8.09106,8.68873 17.84708,8.65128 14.06789,11.09553 10.59637,32.7736 28.594327,21.44442 19.37783,0.12142 20.49479,30.07924 33.5293,12.45508 26.27831,5.52852 31.83988,10.59967 56.07812,2.05664 12.20217,2.9882 19.3206,12.02427 23.61915,-5.89453 10.6467,-9.74385 20.73131,-22.49397 27.81445,-36.16601 4.6115,-16.23156 24.76425,-19.63724 23.26567,-36.57618 -30.66002,4.33808 -48.46575,44.66222 -82.55859,40.67774 -36.87667,2.2159 -71.08279,-15.46218 -97.462897,-39.89848 l -1.91016,-1.18164 -2.125,-0.91602 z M 237.26161,425.4393 c 1.60937,1.52559 -1.17525,1.62343 0,0 z m 259.87223,287.53703 c -21.06551,12.41798 -39.4951,30.39716 -64.67969,34.15235 -26.93219,11.82588 -56.27302,5.61051 -84.50895,3.97195 -22.1692,1.87131 -53.33049,-28.04415 -69.40706,-7.27272 -12.39453,20.77684 10.05228,34.73572 26.23437,42.07226 43.78115,16.71154 96.68529,27.5525 138.79297,2.01559 21.8457,-14.94218 46.016,-29.49547 57.79688,-53.9961 13.44099,-13.0316 10.53175,-12.82231 -4.22852,-20.94333 z m -41.91015,101.00782 c -18.25567,7.66096 -38.57292,7.06569 -57.34144,13.44085 -22.04868,9.72561 -47.99692,-7.45922 -66.38513,-1.01702 2.50525,24.25353 32.81844,28.17675 52.43086,30.6248 21.9602,2.70741 43.44362,-4.76662 60.74102,-16.06036 15.43196,-8.46355 19.44213,-12.06025 10.55469,-26.98827 z"
       id="path11442"
       inkscape:connector-curvature="0"
       sodipodi:nodetypes="ccccccccccccccccccccccccccccccccccccccccccccccccccccccccccccccccccccccccccccccccccccccc" />
  </g>
</svg>
