<?xml version="1.0" encoding="UTF-8" standalone="no"?>
<!-- Created with Inkscape (http://www.inkscape.org/) -->

<svg
   xmlns:dc="http://purl.org/dc/elements/1.1/"
   xmlns:cc="http://creativecommons.org/ns#"
   xmlns:rdf="http://www.w3.org/1999/02/22-rdf-syntax-ns#"
   xmlns:svg="http://www.w3.org/2000/svg"
   xmlns="http://www.w3.org/2000/svg"
   xmlns:sodipodi="http://sodipodi.sourceforge.net/DTD/sodipodi-0.dtd"
   xmlns:inkscape="http://www.inkscape.org/namespaces/inkscape"
   width="210mm"
   height="297mm"
   viewBox="0 0 744.09448819 1052.3622047"
   id="svg8089"
   version="1.1"
   inkscape:version="0.91 r13725"
   sodipodi:docname="hand12.svg">
  <defs
     id="defs8091" />
  <sodipodi:namedview
     id="base"
     pagecolor="#ffffff"
     bordercolor="#666666"
     borderopacity="1.0"
     inkscape:pageopacity="0.0"
     inkscape:pageshadow="2"
     inkscape:zoom="0.24748737"
     inkscape:cx="246.60137"
     inkscape:cy="542.01892"
     inkscape:document-units="px"
     inkscape:current-layer="layer1"
     showgrid="false"
     inkscape:window-width="464"
     inkscape:window-height="595"
     inkscape:window-x="900"
     inkscape:window-y="7"
     inkscape:window-maximized="0" />
  <metadata
     id="metadata8094">
    <rdf:RDF>
      <cc:Work
         rdf:about="">
        <dc:format>image/svg+xml</dc:format>
        <dc:type
           rdf:resource="http://purl.org/dc/dcmitype/StillImage" />
        <dc:title></dc:title>
      </cc:Work>
    </rdf:RDF>
  </metadata>
  <g
     inkscape:label="Layer 1"
     inkscape:groupmode="layer"
     id="layer1">
    <path
       style="color:#000000;clip-rule:nonzero;display:inline;overflow:visible;visibility:visible;opacity:1;isolation:auto;mix-blend-mode:normal;color-interpolation:sRGB;color-interpolation-filters:linearRGB;solid-color:#000000;solid-opacity:1;fill:#000000;fill-opacity:1;fill-rule:evenodd;stroke:none;stroke-width:1;stroke-linecap:square;stroke-linejoin:round;stroke-miterlimit:4;stroke-dasharray:none;stroke-dashoffset:0;stroke-opacity:1;color-rendering:auto;image-rendering:auto;shape-rendering:auto;text-rendering:auto;enable-background:accumulate"
       d="m 187.01867,130.00541 c -21.35299,13.35298 -33.55559,63.8818 -33.55559,63.8818 0,0 24.09164,-47.41441 37.96318,-64.24164 12.51598,-8.26369 59.87466,3.43998 31.79285,22.06218 0,0 -31.72795,45.57232 -20.98507,70.85174 13.28083,15.6106 25.06905,15.83336 20.58229,-7.85243 1.15152,-29.85035 1.68144,-69.3181 34.26485,-82.80815 17.5815,-13.62287 48.81234,5.60765 20.14487,19.50039 -28.17589,22.81187 -38.41116,64.90565 -25.73834,98.45303 17.19603,18.99489 11.26298,-9.60883 12.08446,-19.61178 1.43177,-29.33628 5.34153,-65.39402 31.99381,-82.94524 23.34615,-14.77524 53.6891,10.60699 27.7086,31.19978 -26.22672,19.00775 -26.41478,54.33723 -26.0784,83.57497 -10.3377,32.16367 51.67306,50.82013 40.51151,10.76978 -6.85452,-20.41716 -8.43821,-50.25893 21.67642,-35.48799 21.44612,41.09563 33.09443,140.12699 -2.47859,159.67879 -26.51947,12.10636 -56.41304,9.50173 -84.40134,14.44966 1.54371,34.04002 5.22312,68.43132 1.76879,102.68124 -3.31442,41.63109 -3.69997,83.40358 -3.31905,125.13752 28.41164,4.91365 59.37446,-6.01891 88.90164,-3.15725 45.29772,0.53549 98.38658,-2.94734 177.87931,15.18649 128.92968,47.41014 213.11185,222.53673 -15.66882,264.53199 C 476.15933,927.6839 370.21635,898.57467 262.13016,874.06637 138.41555,847.32615 102.65293,873.5266 111.27484,762.23895 111.53915,619.67015 115.60763,454.73074 154.35164,365.06832 103.51237,340.4058 80.542599,311.71211 94.542919,233.92472 92.348529,182.86469 167.70278,98.398659 187.01867,130.00541 Z"
       id="path8725-9"
       inkscape:connector-curvature="0"
       sodipodi:nodetypes="ccccccccccccccccccccccccccc" />
  </g>
</svg>
