<?xml version="1.0" encoding="UTF-8" standalone="no"?>
<!-- Created with Inkscape (http://www.inkscape.org/) -->

<svg
   xmlns:dc="http://purl.org/dc/elements/1.1/"
   xmlns:cc="http://creativecommons.org/ns#"
   xmlns:rdf="http://www.w3.org/1999/02/22-rdf-syntax-ns#"
   xmlns:svg="http://www.w3.org/2000/svg"
   xmlns="http://www.w3.org/2000/svg"
   xmlns:sodipodi="http://sodipodi.sourceforge.net/DTD/sodipodi-0.dtd"
   xmlns:inkscape="http://www.inkscape.org/namespaces/inkscape"
   width="210mm"
   height="297mm"
   viewBox="0 0 744.09448819 1052.3622047"
   id="svg8089"
   version="1.1"
   inkscape:version="0.91 r13725"
   sodipodi:docname="hand07.svg">
  <defs
     id="defs8091" />
  <sodipodi:namedview
     id="base"
     pagecolor="#ffffff"
     bordercolor="#666666"
     borderopacity="1.0"
     inkscape:pageopacity="0.0"
     inkscape:pageshadow="2"
     inkscape:zoom="0.35"
     inkscape:cx="402.95286"
     inkscape:cy="520"
     inkscape:document-units="px"
     inkscape:current-layer="layer1"
     showgrid="false"
     inkscape:window-width="464"
     inkscape:window-height="595"
     inkscape:window-x="900"
     inkscape:window-y="7"
     inkscape:window-maximized="0" />
  <metadata
     id="metadata8094">
    <rdf:RDF>
      <cc:Work
         rdf:about="">
        <dc:format>image/svg+xml</dc:format>
        <dc:type
           rdf:resource="http://purl.org/dc/dcmitype/StillImage" />
        <dc:title></dc:title>
      </cc:Work>
    </rdf:RDF>
  </metadata>
  <g
     inkscape:label="Layer 1"
     inkscape:groupmode="layer"
     id="layer1">
    <g
       id="g8928">
      <path
         sodipodi:nodetypes="ccccccccccccccccccccccccccccc"
         inkscape:connector-curvature="0"
         id="path31726-9"
         d="m 243.34503,54.458784 c -15.50302,11.904215 19.47796,74.635976 26.6182,91.170036 -16.06569,-7.46165 -27.99643,-31.41657 -36.87724,-45.13427 -7.61616,-13.967213 -39.20242,-17.710501 -36.75011,1.07293 -1.29872,13.65758 24.17049,59.38405 28.65897,75.07631 -13.8816,-6.91833 -54.02145,-51.69344 -73.61075,-41.35142 -14.55672,7.57972 -14.31973,27.89035 -2.31728,37.93359 26.592,30.3815 55.13498,61.19158 94.18419,75.1212 54.8648,24.71046 106.72456,35.95941 166.27406,42.94361 16.44168,0.92205 26.52405,-3.15477 42.96085,-3.56716 -0.49291,14.68617 1.54846,36.80695 1.54846,36.80695 -35.61836,26.96483 -55.26005,79.17401 -74.39052,118.20706 -22.82732,54.22082 -52.41614,106.32082 -63.60058,164.80294 -1.22122,12.09919 -17.12601,7.08188 -24.60516,13.6603 -39.97227,18.79813 -78.7322,47.01587 -94.2743,90.19615 -18.44144,42.01698 -18.58312,91.30704 -5.40163,134.7674 12.16855,27.83411 38.36007,44.76874 62.88714,60.42614 17.73887,20.48274 26.96775,50.51379 52.36263,63.52312 29.12985,8.2228 59.86856,-3.80611 86.4747,-15.45768 42.1363,-23.72234 76.66814,-60.46678 102.39446,-101.05123 34.92558,-63.92385 35.3101,-139.02313 53.70867,-208.10538 18.955,-86.38575 40.37379,-172.54721 47.34891,-260.99118 3.76816,-40.02906 2.36575,-80.06209 12.9614,-119.21072 8.35947,-42.66485 -15.52677,-85.80814 -52.34053,-107.0204 -39.93007,-27.77925 -89.80463,-32.84544 -137.10073,-30.86568 -26.17902,-2.25802 -50.93659,6.93006 -75.71787,12.94686 C 323.59644,118.78759 311.95016,95.058762 296.49299,67.964197 291.37561,63.952651 276.5403,46.287922 266.25569,65.407485 260.83172,44.287754 251.08217,54.170219 243.34503,54.458784 Z"
         style="color:#000000;clip-rule:nonzero;display:inline;overflow:visible;visibility:visible;opacity:1;isolation:auto;mix-blend-mode:normal;color-interpolation:sRGB;color-interpolation-filters:linearRGB;solid-color:#000000;solid-opacity:1;fill:#000000;fill-opacity:1;fill-rule:evenodd;stroke:none;stroke-width:0.70710677;stroke-linecap:square;stroke-linejoin:round;stroke-miterlimit:4;stroke-dasharray:none;stroke-dashoffset:0;stroke-opacity:1;color-rendering:auto;image-rendering:auto;shape-rendering:auto;text-rendering:auto;enable-background:accumulate" />
      <path
         id="path31726"
         d="m 240.8721,61.715377 c -2.82558,0.09612 -6.62065,6.197323 -5.34974,9.792243 1.4819,18.809975 8.19406,36.87003 16.89398,53.48978 8.94766,13.27736 13.60097,29.06665 23.79234,41.57015 5.27441,5.60918 9.26814,13.08919 15.92417,16.90964 9.79702,2.78261 4.16444,-8.09778 -0.8369,-10.16771 -11.26433,-11.00641 -18.7628,-24.88444 -25.29402,-39.03602 -5.9597,-9.89172 -11.77611,-19.99353 -15.68169,-30.94885 -3.91552,-11.903094 -9.28331,-24.47498 -6.76541,-37.221502 -0.31516,-3.23916 -1.39837,-4.43142 -2.68273,-4.387731 z m 25.73988,2.526278 c -5.18812,5.49874 -7.30389,10.903211 -5.68607,17.81686 2.3643,9.208508 4.39898,18.720995 9.15087,27.241565 4.07539,9.79368 10.68086,18.79268 14.98561,27.60134 2.65161,5.89262 6.23044,11.57509 10.25371,16.35429 1.77821,8.69698 35.80091,36.23112 26.92085,19.2795 -4.33578,-2.58449 -6.7028,-8.44172 -11.70844,-11.63027 -4.23738,-4.75646 -8.41189,-10.73101 -11.65373,-13.85931 -4.33242,-6.7377 -8.14726,-14.11075 -11.73974,-21.48508 -6.53099,-9.63519 -11.72246,-20.90068 -16.0102,-31.934318 -3.45392,-9.288876 -5.92757,-19.42046 -4.51286,-29.384577 z m -67.10664,32.419227 c -4.04678,0.183402 -4.0327,8.694128 -2.58887,12.631388 6.29551,17.86523 10.3721,36.61619 18.77894,53.70879 6.56462,10.16406 12.19001,20.98875 19.50628,30.65946 1.30243,5.55324 11.67607,8.75763 10.0269,0.57092 -6.8851,-6.32864 -10.73731,-15.0297 -15.9398,-22.65045 -9.5615,-13.12416 -14.57129,-28.79837 -19.14651,-44.20591 -2.03423,-9.15337 -7.59937,-17.62982 -6.76543,-27.28847 -0.0765,-0.688612 -0.0157,-1.433689 -0.39085,-2.064839 -1.39929,-1.003126 -2.54662,-1.403216 -3.48046,-1.360889 z M 477.40351,271.65439 c -5.9965,2.85512 -9.47541,7.45417 -15.70513,10.26934 -5.27425,1.85452 -9.2135,5.80341 -9.2135,5.80341 -1.88157,9.63758 6.87304,3.42451 15.07165,-0.82125 8.27441,-3.57261 20.29572,-10.18645 9.84698,-15.2515 z m -140.61112,324.9745 c -2.58742,-0.13103 -5.88496,0.80732 -7.92298,1.3531 -5.52067,2.58891 -11.52911,3.86273 -17.07385,6.41343 -7.68429,2.73128 -14.41733,7.39651 -21.86834,10.62915 -11.00878,6.05682 -22.22427,12.41307 -30.84716,21.71973 -10.11395,9.05947 -18.40542,20.02625 -24.71527,32.036 -2.44735,5.20108 -5.77962,10.06578 -7.25817,15.65822 -2.50084,7.04644 9.66764,7.67007 8.40008,0.4067 1.53216,-4.67108 3.85666,-9.11076 5.95982,-13.56993 6.63158,-11.94221 15.58216,-22.65092 26.04491,-31.41814 5.40271,-4.11685 11.00588,-8.00446 16.44815,-12.07604 7.83165,-4.00018 15.35047,-8.59855 23.3309,-12.31072 4.55192,-2.77304 9.5686,-4.24814 14.53979,-6.04587 4.85336,-2.56661 10.18455,-3.71674 15.36882,-5.32627 1.38003,-0.19982 2.71084,-1.04529 3.23019,-2.37767 0.82572,-3.75446 -1.04945,-4.96066 -3.63689,-5.09169 z"
         style="color:#000000;clip-rule:nonzero;display:inline;overflow:visible;visibility:visible;opacity:1;isolation:auto;mix-blend-mode:normal;color-interpolation:sRGB;color-interpolation-filters:linearRGB;solid-color:#000000;solid-opacity:1;fill:#ffffff;fill-opacity:1;fill-rule:evenodd;stroke:none;stroke-width:0.70710677;stroke-linecap:square;stroke-linejoin:round;stroke-miterlimit:4;stroke-dasharray:none;stroke-dashoffset:0;stroke-opacity:1;color-rendering:auto;image-rendering:auto;shape-rendering:auto;text-rendering:auto;enable-background:accumulate"
         inkscape:connector-curvature="0" />
    </g>
  </g>
</svg>
