<?xml version="1.0" encoding="UTF-8" standalone="no"?>
<!-- Created with Inkscape (http://www.inkscape.org/) -->

<svg
   xmlns:dc="http://purl.org/dc/elements/1.1/"
   xmlns:cc="http://creativecommons.org/ns#"
   xmlns:rdf="http://www.w3.org/1999/02/22-rdf-syntax-ns#"
   xmlns:svg="http://www.w3.org/2000/svg"
   xmlns="http://www.w3.org/2000/svg"
   xmlns:sodipodi="http://sodipodi.sourceforge.net/DTD/sodipodi-0.dtd"
   xmlns:inkscape="http://www.inkscape.org/namespaces/inkscape"
   width="210mm"
   height="297mm"
   viewBox="0 0 744.09448819 1052.3622047"
   id="svg8089"
   version="1.1"
   inkscape:version="0.91 r13725"
   sodipodi:docname="hand09.svg">
  <defs
     id="defs8091" />
  <sodipodi:namedview
     id="base"
     pagecolor="#ffffff"
     bordercolor="#666666"
     borderopacity="1.0"
     inkscape:pageopacity="0.0"
     inkscape:pageshadow="2"
     inkscape:zoom="0.35"
     inkscape:cx="410.67927"
     inkscape:cy="520"
     inkscape:document-units="px"
     inkscape:current-layer="layer1"
     showgrid="false"
     inkscape:window-width="464"
     inkscape:window-height="595"
     inkscape:window-x="900"
     inkscape:window-y="7"
     inkscape:window-maximized="0" />
  <metadata
     id="metadata8094">
    <rdf:RDF>
      <cc:Work
         rdf:about="">
        <dc:format>image/svg+xml</dc:format>
        <dc:type
           rdf:resource="http://purl.org/dc/dcmitype/StillImage" />
        <dc:title></dc:title>
      </cc:Work>
    </rdf:RDF>
  </metadata>
  <g
     inkscape:label="Layer 1"
     inkscape:groupmode="layer"
     id="layer1">
    <g
       id="g9033">
      <path
         sodipodi:nodetypes="ccccccccccccccccccccccccccccc"
         inkscape:connector-curvature="0"
         id="path16842"
         d="m 249.2144,157.09196 c 43.80391,31.02174 64.33056,48.34956 115.49895,112.26588 77.61836,82.64108 101.92784,119.68762 168.72492,186.81543 63.38741,61.25422 171.61144,197.15243 166.78978,288.26019 -0.087,59.26479 -8.5316,76.54826 -32.93739,127.39617 -5.04074,11.74049 -32.44243,80.50876 -88.66614,90.32773 C 562.04465,964.78843 505.4515,951.13095 505.4515,951.13095 430.4493,933.55145 389.54127,909.40454 350.88504,864.25101 310.0924,822.09322 295.06188,761.79879 301.02256,704.46652 302.79141,648.2942 319.5466,592.01461 308.60203,535.96978 270.12979,510.06861 228.27837,487.60985 191.82977,459.64444 141.69841,421.68445 38.496901,348.95925 27.255521,290.96757 c -1.840578,-24.4486 12.597536,-23.09475 22.071852,-15.62419 24.382539,27.29349 49.876932,51.80085 83.919737,65.39734 0,0 -20.05193,-16.39343 -31.65701,-24.09227 -35.554396,-26.46911 -75.183375,-61.17129 -73.285123,-109.77634 -0.145947,-14.55513 18.069611,-12.0505 22.407389,-1.06823 29.378348,40.67171 65.776774,66.35259 112.559154,86.63486 14.61206,5.58999 26.29541,-3.1991 9.87888,-9.7251 -54.52291,-36.53977 -94.615703,-72.48489 -120.244104,-126.93922 -8.9541,-16.26029 -2.28359,-22.24709 10.344522,-22.79144 22.32109,-0.96731 32.981078,26.43682 48.593632,38.0826 28.80246,25.93426 60.11374,39.69293 97.19836,64.59322 18.42226,2.64587 12.66355,-6.61221 6.07932,-17.25868 C 193.14783,182.36701 146.14096,165.67816 114.18477,140.85237 97.585326,127.81869 64.69332,114.60714 83.768556,86.724127 100.09134,74.899993 125.57205,89.176015 143.54528,97.842146 177.58543,116.17933 215.5128,134.84986 249.21433,157.09168 Z"
         style="color:#000000;clip-rule:nonzero;display:inline;overflow:visible;visibility:visible;opacity:1;isolation:auto;mix-blend-mode:normal;color-interpolation:sRGB;color-interpolation-filters:linearRGB;solid-color:#000000;solid-opacity:1;fill:#000000;fill-opacity:1;fill-rule:evenodd;stroke:none;stroke-width:1;stroke-linecap:square;stroke-linejoin:round;stroke-miterlimit:4;stroke-dasharray:none;stroke-dashoffset:0;stroke-opacity:1;color-rendering:auto;image-rendering:auto;shape-rendering:auto;text-rendering:auto;enable-background:accumulate" />
      <path
         id="path16842-4"
         d="m 101.2003,82.317113 c 2.36425,1.686288 4.52789,3.658901 6.90955,5.323261 2.64192,2.028923 5.38411,3.960337 7.73193,6.334574 0.69881,-0.31032 1.13571,0.113514 0.95939,1.00506 1.16892,1.354229 0.58598,2.244224 -0.78205,1.577145 -0.10881,0.11845 -0.22115,0.231024 -0.31121,0.363646 -0.23032,0.331965 -0.38012,0.717326 -0.60618,1.052111 -0.49406,0.724048 -1.62714,2.04613 -2.11055,2.73509 -2.29567,3.29025 0.31192,0.0489 -2.41504,3.27224 -2.46714,3.39681 -4.74125,6.93406 -7.03328,10.45148 -0.23638,0.37878 -1.48366,2.38919 -1.79221,2.82324 -0.27049,0.3836 -0.61244,0.71585 -0.87197,1.10725 -0.22562,0.33998 -0.36266,0.73596 -0.57801,1.08274 -1.000595,1.6084 -0.347617,0.10152 -0.952204,1.70713 -0.09683,0.24153 -0.197887,0.48322 -0.294762,0.72492 -0.126205,0.20164 -0.290037,0.3757 -0.379532,0.59674 -0.0886,0.21034 -0.03079,0.46914 -0.138427,0.67046 -0.0886,0.17274 -0.314362,0.23845 -0.420332,0.40075 -1.018057,1.55962 0.624329,-0.40327 -0.43716,0.81265 -0.809689,1.93863 -2.420559,0.43202 -3.370437,-0.38858 -0.318922,-0.19083 -0.679324,-0.31803 -0.962005,-0.55937 -0.323834,-0.27948 -0.513095,-0.69399 -0.830536,-0.98043 -0.352787,-0.31831 -0.797068,-0.52078 -1.162171,-0.82508 -0.38609,-0.3204 -0.691521,-0.72457 -1.083157,-1.03745 -2.266787,-1.8265 -0.255349,0.27103 -2.147867,-1.88206 -1.629343,-1.40417 -3.329732,-2.51837 -4.64389,-4.24621 -0.198356,-0.19836 -0.378875,-0.42329 -0.598125,-0.59824 -1.000806,-0.80452 -0.588441,-0.14642 -1.546428,-1.19686 -0.250507,-0.27528 -0.417277,-0.62179 -0.667502,-0.89749 -0.216923,-0.24081 -0.454762,-0.36612 -0.664964,-0.53324 -0.512883,-1.11042 -0.926634,-2.25026 -1.242477,-3.42637 0.970983,0.64256 0.506185,0.28912 1.436768,1.16137 1.07613,0.93815 2.345729,1.77379 3.325572,2.81241 0.227734,0.24115 0.375514,0.55168 0.602143,0.79455 0.205407,0.21857 0.447924,0.39563 0.676621,0.58915 0.508042,0.5533 0.616315,0.70795 1.196226,1.19646 0.252669,0.21551 0.543788,0.38186 0.783226,0.61088 0.243762,0.23559 0.422635,0.53559 0.663718,0.77435 0.11563,0.11304 1.762035,1.47089 1.834609,1.53094 0.740734,0.62628 1.561399,1.15411 2.290194,1.79423 0.380449,0.33462 0.685364,0.75328 1.052699,1.10219 0.913991,0.86692 1.978723,1.56121 2.930387,2.38357 0.583154,0.36442 0.656715,0.38797 0.689477,0.47756 0.544775,-0.8484 0.769406,-1.89992 1.43571,-2.68275 0.08273,-0.33121 0.09236,-0.68223 0.247969,-0.98527 0.182375,-0.36233 0.516079,-0.63885 0.747033,-0.97169 0.497583,-0.72 0.994837,-1.43007 1.453504,-2.17555 0.27394,-0.44543 0.46696,-0.94097 0.74969,-1.38093 0.32418,-0.50301 0.70921,-0.97058 1.06311,-1.45296 1.02532,-1.79869 2.23183,-3.39889 3.37459,-5.11966 1.20906,-1.82218 2.35894,-3.66734 3.71131,-5.394 0.43453,-0.56273 0.8708,-1.13 1.3049,-1.69303 0.37704,-0.53644 0.7354,-1.09153 1.13188,-1.613273 0.36889,-0.476924 0.81107,-0.886422 1.16741,-1.372466 0.30416,-0.406631 0.49509,-0.893333 0.79408,-1.303394 0.24102,-0.32931 0.58932,-0.575093 0.81759,-0.913263 0.10411,-0.153232 0.16075,-0.329473 0.22327,-0.505949 -2.39316,-2.22876 -4.91266,-4.326873 -7.47978,-6.350367 -1.79677,-1.485041 -3.81601,-2.679927 -5.65715,-4.101912 -0.52743,-0.408252 -0.98245,-0.916223 -1.519143,-1.311996 -0.686045,-0.506232 -1.415569,-0.948209 -2.124928,-1.42027 1.158528,-0.03666 2.330761,-0.0282 3.519391,0.05123 z m 67.85536,44.852527 c 0.24273,0.41805 -0.10788,1.18579 -1.29089,1.87141 -0.22257,0.21081 -0.41556,0.44907 -0.66525,0.62668 -0.39711,0.28247 -0.86614,0.4577 -1.26123,0.74275 -0.44835,0.32372 -0.82382,0.74466 -1.26438,1.07917 -0.49857,0.37854 -1.06847,0.66244 -1.55325,1.05857 -0.72035,0.58905 -2.29766,2.28643 -2.92157,2.93967 -1.65411,2.35102 -0.93806,1.17684 -2.30479,3.76769 -0.34952,0.66224 -0.75293,1.29632 -1.03958,1.98815 -0.81185,1.9598 -1.2116,4.09258 -1.48427,6.17974 0.11117,1.45832 -0.13396,2.89278 -0.17156,4.34676 -0.12221,2.70914 -2.03649,2.6242 -1.91421,-0.0848 0.059,-1.5147 0.0712,-3.03593 0.21786,-4.54598 0.28738,-1.45491 0.46487,-2.93638 0.86078,-4.36555 0.21504,-0.77693 0.54118,-1.52126 0.81919,-2.27786 0.28646,-0.78012 0.5036,-1.58373 0.8664,-2.33149 0.72888,-1.49996 1.71966,-2.66563 2.72114,-3.97765 0.5244,-0.5696 1.00412,-1.17002 1.56577,-1.70303 1.2536,-1.18995 1.87106,-1.44264 3.19086,-2.48486 1.11846,-0.88336 2.17593,-1.84516 3.37197,-2.63174 1.18198,-0.68628 2.01419,-0.61559 2.25687,-0.19766 z m 109.17901,84.59565 c 0.3259,0.14359 0.70847,0.44672 1.09909,0.9396 0.89764,0.9719 0.26398,0.21058 1.17364,1.58049 0.23556,0.35457 0.5276,0.67507 0.72187,1.05385 0.72437,1.41136 1.04402,3.11913 1.50574,4.62654 -0.17368,1.24523 0.35667,2.43147 0.37831,3.65651 0.0118,0.63871 -0.14829,1.27286 -0.20258,1.90941 -0.0548,0.6441 -0.0212,1.29468 -0.13232,1.93132 -0.0451,0.25998 -1.02403,3.53897 -1.09731,3.78717 -1.31439,3.04348 -3.62797,6.03497 -6.60719,7.61334 -0.61674,0.32668 -1.28936,0.5401 -1.93325,0.80903 -0.6664,0.21857 -1.31376,0.5193 -2.00152,0.65545 -0.69608,0.13748 -1.41087,0.12855 -2.11987,0.15464 -3.34247,0.12409 -5.38992,-0.56484 -8.38232,-1.93973 -3.78974,-1.83038 -6.06351,-5.31666 -8.50101,-8.56787 0.0515,-1.11106 -0.77834,-1.93698 -1.01225,-2.94891 -0.11023,-0.47763 -0.0465,-0.97549 -0.0773,-1.46473 -0.027,-0.43361 -0.12409,-0.86553 -0.10153,-1.29935 0.007,-0.12692 0.4168,-2.20383 0.45685,-2.40707 0.37523,-0.67406 0.36428,-1.47334 0.64339,-2.17581 0.53446,-1.34716 1.59045,-2.63192 2.5914,-3.65199 0.47128,-0.41237 1.2059,-1.10323 1.76664,-1.4019 0.33029,-0.17603 0.70839,-0.25612 1.05636,-0.39394 1.18138,-0.46923 1.61191,-0.76386 2.90766,-0.89427 0.61451,0.27239 1.18173,-0.28172 1.77203,-0.21387 0.33438,0.0402 0.60907,0.30224 0.93852,0.37441 0.3083,0.0677 0.633,-0.0254 0.94151,0.0385 0.62191,0.12879 1.13383,0.52122 1.65619,0.84571 1.53801,0.74151 3.05798,1.60728 4.40884,2.65347 0.4805,0.43744 1.08246,0.70468 1.53525,1.17714 0.15182,0.16169 0.23031,0.3919 0.39603,0.53791 1.00792,0.90636 0.16381,-0.42461 0.90069,1.00238 0.28169,0.36816 0.75711,0.93157 0.92567,1.3693 0.13607,0.35424 0.63008,2.39879 0.62404,2.73022 -0.007,0.37645 -0.16028,0.73206 -0.23903,1.09984 -0.12739,2.34566 -1.24455,4.34998 -2.25605,6.39806 -0.62536,0.924 -1.7284,2.01 -2.92444,2.11592 -0.67274,0.0595 -1.44156,-0.28573 -2.04312,-0.49577 -0.33121,-0.24846 -1.50022,-1.11084 -1.76655,-1.41383 -0.25998,-0.29573 -0.41908,-0.66567 -0.64282,-0.99021 -0.56421,-0.81914 -1.04217,-1.48842 -1.39245,-2.42509 -1.0824,-2.40604 0.61869,-3.17434 1.701,-0.76826 0.87841,1.46041 1.3803,2.95368 3.05178,3.74447 0.0658,0.0496 0.60431,0.47977 0.75444,0.4707 0.10998,-0.007 0.13842,-0.19178 0.24813,-0.21199 0.17509,-0.0348 0.36552,0.12738 0.53001,0.0578 0.0914,-0.0383 0.79616,-1.00974 0.79717,-1.01129 0.92767,-1.79508 1.85306,-3.60179 2.08476,-5.64042 0.0839,-0.87317 0.0639,-1.98944 -0.36675,-2.79079 -0.0985,-0.18355 -0.28627,-0.30371 -0.37871,-0.49067 -0.0877,-0.17768 -0.10012,-0.39006 -0.1497,-0.58151 -0.17486,-0.19272 -1.01966,-1.20116 -1.14368,-1.29498 -0.12926,-0.0973 -0.3165,-0.0693 -0.45467,-0.1537 -0.34745,-0.20964 -0.57154,-0.59378 -0.9357,-0.78342 -0.75167,-0.5122 -0.33822,-0.28399 -1.23738,-0.65544 -0.3185,-0.21411 -0.98497,-1.02803 -1.31125,-1.22373 -0.25838,-0.15111 -0.5788,-0.16427 -0.85363,-0.28279 -0.24431,-0.10482 -0.45432,-0.26123 -0.68701,-0.38931 -0.51549,-0.29521 -1.43339,-0.8021 -2.0097,-0.93308 -0.69124,-0.15699 -1.46149,0.16263 -2.15492,-0.0496 -0.25192,0.082 -0.50564,0.16969 -0.75751,0.25178 -0.25775,0.0487 -0.52139,0.0703 -0.77232,0.14548 -1.17186,0.3513 -2.13539,1.09084 -3.06635,1.85355 -0.23772,0.18308 -0.50513,0.33011 -0.71046,0.54858 -1.07724,1.14941 -1.6587,2.78103 -2.04101,4.2672 -0.14336,0.68196 -0.3764,1.35141 -0.43694,2.04556 -0.14995,1.71461 0.21081,3.16832 1.02139,4.68307 1.07042,2.02892 0.29949,0.78203 1.77557,2.72512 0.3731,0.49129 0.67867,1.03785 1.10295,1.48565 0.44426,0.46936 1.00628,0.8174 1.49068,1.24504 0.50336,0.44442 0.91681,0.98821 1.46643,1.3739 0.53782,0.37796 1.17803,0.60412 1.76293,0.90408 0.5753,0.31593 1.11408,0.70071 1.72128,0.9491 0.59972,0.24411 1.24085,0.3737 1.87235,0.51655 2.42824,0.54921 4.86789,0.52928 7.27533,-0.12879 0.54255,-0.24762 1.10617,-0.45206 1.62547,-0.74532 2.75271,-1.55489 4.54114,-3.86508 5.84865,-6.69744 0.0769,-0.24153 0.98701,-3.0792 1.03596,-3.34407 0.4157,-2.24512 0.0388,-4.59409 -0.12573,-6.83829 -0.12433,-0.5711 -0.49152,-2.35163 -0.70659,-2.91735 -0.49841,-1.31239 -1.49024,-2.43456 -2.13233,-3.67241 -1.16936,-1.48227 -0.67803,-2.47001 0.29969,-2.03898 z M 96.344753,123.23995 c -0.01175,0.009 0.0015,0.007 -0.01175,0.0165 0.01645,0.0416 0.0071,0.0165 0.02797,0.0677 0.0141,0.0273 0.0047,-0.10059 -0.01645,-0.0839 z m -27.595679,14.85809 c 0.08437,0.0863 0.06722,0.23478 0.128321,0.33796 0.285337,0.47944 0.780335,0.82245 1.157189,1.21907 0.408863,0.46529 0.846657,0.90376 1.248047,1.37526 0.263645,0.3099 0.462448,0.67002 0.74621,0.96156 1.019726,1.04837 2.277104,1.89517 3.151047,3.09659 1.038058,1.06969 2.073201,2.19175 2.976428,3.38078 0.27274,0.35918 0.451425,0.78652 0.744659,1.12957 0.5683,0.66469 0.785928,0.88619 0.934507,1.02459 1.442244,-1.71559 2.776285,-0.73107 1.332561,1.4673 -0.207052,0.37197 -0.112105,0.20846 -0.168274,0.31274 0.238874,0.82805 -0.11986,1.25012 -0.772086,1.10027 -0.103174,0.13819 -0.0094,-0.0244 -0.192246,0.23631 -0.263668,0.37321 -0.438852,0.79824 -0.714036,1.16264 -0.314503,0.41291 -0.740899,0.7428 -1.051148,1.1587 -0.315373,0.41424 -0.521649,0.89605 -0.810747,1.32875 -0.298451,0.44498 -0.638171,0.86243 -0.957751,1.29253 -1.862952,1.96613 -3.452318,4.20481 -5.602112,5.88052 -0.530227,0.14125 -1.779802,1.1456 -2.280981,1.17286 -0.371542,0.0212 -0.721721,-0.17696 -1.083392,-0.26411 -0.330273,-0.071 -0.467078,-0.40388 -0.729454,-0.56384 -0.137486,-0.0846 -0.311683,-0.0964 -0.452224,-0.17626 -0.595516,-0.34778 -1.157965,-0.91021 -1.704267,-1.32466 -0.680946,-0.84567 -1.690942,-1.29118 -2.387657,-2.1243 -0.256594,-0.30651 -0.409803,-0.68557 -0.665387,-0.99265 -1.659754,-1.99179 -0.212223,0.30428 -1.555147,-2.04857 -0.681157,-1.15077 -1.657263,-2.08582 -2.428597,-3.16599 -0.823156,-1.15317 -1.561211,-2.4227 -2.325306,-3.61785 -0.952228,-0.92729 -1.434441,-2.11757 -2.020274,-3.27255 -0.478758,-0.94395 -1.052394,-1.80906 -1.506851,-2.76606 -0.279203,-0.72973 -0.648912,-1.32974 -1.078293,-1.96504 -1.187882,-2.50827 0.585363,-3.34962 1.77334,-0.84158 0.137016,0.21809 0.364797,0.37445 0.46938,0.6102 0.59937,1.35663 -0.471613,0.11234 0.720358,1.2586 0.636927,2.18321 1.994775,4.10699 3.321883,5.92804 0.800288,1.1483 1.438577,2.37522 2.246128,3.51753 0.258874,0.36616 0.537607,0.71378 0.805905,1.07315 0.266536,0.35262 0.539135,0.69253 0.794671,1.0534 0.254385,0.35888 0.495962,0.73472 0.738901,1.10156 1.402432,1.65028 2.755298,3.34315 4.339658,4.81987 0.674764,0.42457 1.379306,0.90941 1.982342,1.43489 0.07967,0.071 0.112339,0.18708 0.203292,0.24247 0.04959,0.0301 0.114689,-0.002 0.173444,-0.007 0.0094,0.07 0.01175,0.14477 0.02938,0.21246 0.0094,0.0242 -0.0071,-0.066 0.0141,-0.0764 0.107639,-0.0604 0.223973,-0.0893 0.33542,-0.14242 1.082029,-0.51143 -0.116805,0.18449 1.099938,-0.57075 0.565738,-0.4346 0.896599,-0.65763 1.39524,-1.22285 0.267146,-0.30597 0.463599,-0.67766 0.738384,-0.97735 1.026776,-1.12535 2.310899,-2.03419 3.083737,-3.38908 1.003204,-1.6821 0.539158,-1.12435 1.842834,-2.5121 0.333493,-0.35518 0.760241,-0.64602 1.029409,-1.05211 0.25697,-0.38752 0.300261,-0.87935 0.529005,-1.28417 0.07615,-0.1349 0.183081,-0.25044 0.280896,-0.37119 -0.854531,-1.28111 -1.766313,-2.57478 -2.810574,-3.70689 -0.335326,-0.36379 -0.725717,-0.67585 -1.085767,-1.01503 -0.335796,-0.36963 -0.666397,-0.73587 -1.002193,-1.10553 -1.662833,-1.88786 -3.521085,-3.58068 -5.201404,-5.45832 -0.301154,-0.23479 -0.374762,-0.69843 -0.67608,-0.93964 -0.108814,-0.0839 -0.267382,-0.079 -0.387618,-0.14571 -0.139366,-0.0792 -0.320519,-0.27607 -0.445432,-0.38907 -2.310664,-1.5849 -1.185767,-3.22694 1.126965,-1.64065 0.05687,0.0188 0.592484,0.22891 0.604047,0.23951 z m 44.624156,56.76368 c 0.43368,0.19131 0.59305,0.99587 0.0517,2.22143 -1.67609,3.40962 -3.21356,6.86779 -4.5986,10.40678 -1.00161,3.44083 -0.53756,1.61094 -1.25954,5.04631 -0.16921,0.80499 -0.40261,1.60361 -0.51284,2.41873 -0.25739,1.90208 -0.083,3.84877 0.0538,5.75163 0.10294,0.38877 0.20494,0.78027 0.3079,1.16901 0.64678,2.68315 -1.24969,3.14172 -1.89644,0.45862 -0.11962,-0.47272 -0.24047,-0.94812 -0.36007,-1.42081 -0.0947,-1.15761 -0.2531,-2.74009 -0.22022,-3.87895 0.1013,-3.49035 1.04267,-6.92946 2.04169,-10.24896 0.14689,-0.37444 1.71576,-4.3866 1.9084,-4.80148 0.88535,-1.90875 2.07292,-3.68881 2.8074,-5.67336 0.54135,-1.2257 1.24316,-1.64046 1.67663,-1.44895 z m 112.72771,76.72617 c 1.01526,0.74221 1.58309,2.1611 2.05384,3.25831 0.75641,2.22486 0.44028,4.40241 -0.1617,6.61328 -0.16921,0.62247 -0.26881,1.27143 -0.54195,1.85574 -0.2926,0.62926 -0.75712,1.16226 -1.13366,1.74506 -1.57426,2.40656 -3.83228,4.21891 -6.44304,5.41276 -1.09514,0.50076 -2.51259,0.87035 -3.66764,1.20492 -0.97425,0.0644 -2.44409,0.22492 -3.43178,0.0545 -2.19452,-0.37831 -3.97054,-1.84115 -5.48119,-3.3577 -0.43937,-0.70499 -1.45767,-2.27896 -1.74982,-3.05866 -0.21128,-0.56389 -0.28994,-1.17073 -0.41565,-1.75945 -0.35979,-1.68291 -0.41608,-3.22193 -0.37312,-4.93412 0.0338,-0.49443 -0.0256,-1.00135 0.10176,-1.48006 0.12503,-0.46179 0.4362,-0.85077 0.63834,-1.28483 0.17814,-0.38237 0.26912,-0.8055 0.49617,-1.16066 0.23244,-0.36341 0.58184,-0.63911 0.85639,-0.9724 0.26292,-0.31553 0.45507,-0.69791 0.75263,-0.98019 0.28874,-0.27385 0.65706,-0.44461 0.98442,-0.67079 0.64003,-0.38475 1.34535,-0.89484 2.10834,-1.02039 0.3883,-0.0637 0.78405,0.0689 1.17707,0.0479 0.3562,-0.0188 0.70416,-0.15911 1.06076,-0.16146 0.9189,-0.005 1.29188,0.24449 2.12782,0.58766 0.0517,0.0165 0.0994,0.0343 0.14947,0.0486 0.28038,-0.25828 0.67507,-0.52009 1.28105,-0.7177 1.02379,-0.43337 2.14281,-0.49589 3.2317,-0.63314 0.39457,-0.0496 0.78915,-0.14759 1.1869,-0.15112 0.32362,-0.002 1.9006,0.25789 2.21552,0.30691 1.77146,0.44128 0.3032,-0.0291 1.9553,0.7767 0.33076,0.16145 0.72691,0.21081 1.02294,0.42985 z M 107.83128,195.25867 c 0.41133,0.19342 0.5448,0.97345 -0.002,2.13776 -0.99723,2.28921 -2.17264,4.52438 -2.71706,6.9896 -0.13138,0.59497 -0.16804,1.20001 -0.2537,1.8033 -0.11281,0.68539 -0.49376,2.80696 -0.50527,3.51136 -0.009,0.54416 0.14759,1.08506 0.16263,1.6295 0.0764,2.7228 -0.30646,0.0118 0.13255,2.54028 0.50158,2.59462 -1.33662,2.94639 -1.83839,0.35176 -0.10599,-0.64697 -0.40496,-2.35894 -0.41836,-2.9698 -0.0118,-0.56957 0.0926,-1.14065 0.11986,-1.70991 0.13702,-2.82818 -0.13889,-0.91058 0.44755,-3.7547 0.64579,-3.178 1.47611,-6.40261 3.22867,-9.16735 0.54699,-1.16455 1.23179,-1.55529 1.64366,-1.3618 z m 117.1677,78.22806 c -0.56783,-0.49545 -1.28085,-0.83547 -2.27219,-1.21439 -0.47234,-0.1382 -1.23284,-0.40064 -1.72591,-0.4083 -1.19721,-0.0188 -2.48474,0.38094 -3.62285,0.78712 1.06266,0.75359 2.14516,1.73118 2.73574,2.60637 0.59789,1.12398 1.15454,2.66618 0.42443,3.84388 -1.08391,2.39577 -2.78151,1.63144 -1.69746,-0.76451 0.42193,-0.81771 0.0928,-1.14603 -0.10364,-2.01377 -0.38722,-0.33845 -0.6973,-0.76485 -1.10017,-1.08511 -0.21363,-0.17133 -0.51006,-0.21927 -0.71714,-0.39857 -0.24922,-0.21316 -0.37051,-0.55084 -0.63563,-0.74353 -0.49879,-0.36468 -1.21985,-0.34383 -1.681,-0.78962 -0.77531,-0.16709 -1.67327,-0.51784 -2.47965,-0.41993 -0.27105,0.0329 -0.5177,0.16733 -0.78579,0.22115 -1.34821,0.26811 -0.4404,-0.1859 -1.58741,0.57695 -0.47396,0.36649 -1.0029,0.66313 -1.44112,1.07183 -1.04882,0.97898 -1.426,2.56338 -1.65397,3.91714 -0.005,0.20541 -0.0548,2.64385 -0.0367,2.81601 0.15676,1.48783 0.39342,1.54276 0.89714,2.92169 0.8017,2.19437 0.0249,0.76386 1.23141,2.63358 1.23954,1.35484 0.44865,0.66031 1.96144,1.65073 0.35277,0.23173 0.66158,0.53533 1.04977,0.70177 0.38602,0.16498 0.8176,0.1812 1.22903,0.26324 1.7198,0.34285 0.97578,0.28625 2.78564,0.10129 0.54588,-0.0764 1.10715,-0.0801 1.63745,-0.22984 0.55951,-0.15864 1.07317,-0.44459 1.60067,-0.6891 0.56475,-0.26168 1.14492,-0.488 1.66695,-0.82685 1.56466,-1.01512 2.90117,-2.47302 4.0636,-3.90577 1.60678,-2.71426 2.5337,-5.343 1.69505,-8.50669 -0.44049,-0.97735 -0.86992,-1.62142 -1.43792,-2.11663 z m 299.99121,225.19486 c 0.50278,-0.002 1.00685,0.71072 1.01778,2.13073 -0.009,0.48323 -0.0432,0.96835 -0.0348,1.45153 0.0141,0.83888 0.13936,1.67141 0.10435,2.5097 -0.32377,7.7607 -2.5875,15.18649 -4.80032,22.56509 -2.75347,8.47851 -6.26245,16.7163 -10.14232,24.73697 -1.25547,2.59577 -2.51245,5.19175 -3.94216,7.69571 -2.33995,4.09825 -5.6173,8.61946 -8.33553,12.50882 -1.46006,2.08382 -2.93535,1.0547 -1.47454,-1.03026 1.34123,-1.8793 2.78054,-3.69032 4.02626,-5.63428 1.41442,-2.21026 2.66289,-4.52307 3.93413,-6.81874 3.67218,-6.6307 4.66676,-8.68824 7.77007,-15.69605 1.21456,-2.74261 2.48247,-5.47027 3.52903,-8.28124 0.98913,-2.65676 1.70871,-5.40171 2.56646,-8.10366 2.65753,-8.37957 5.58359,-16.97005 4.7885,-25.89632 -0.009,-1.42166 0.49119,-2.13556 0.99387,-2.13901 z m 8.29274,18.15984 c 0.49227,-0.0308 1.02583,0.63036 1.1123,2.02356 -0.30529,1.58528 -0.14666,3.20625 -0.34783,4.79907 -0.16616,1.31611 -0.44795,2.61906 -0.71261,3.91902 -0.67055,3.29143 -1.60356,7.27028 -2.59228,10.44333 -0.64652,2.07496 -1.43071,4.10395 -2.14561,6.15631 -3.0749,8.83588 -6.94069,17.3312 -11.06293,25.71559 -1.39879,2.78099 -3.36113,1.79412 -1.96242,-0.9868 1.68387,-3.22073 4.74195,-8.95791 6.18015,-12.24449 0.24916,-0.56973 4.79475,-12.38994 5.05926,-13.07726 0.60696,-2.05665 1.19021,-4.11375 1.82335,-6.16251 0.56233,-1.81978 1.24777,-3.60783 1.76112,-5.44204 1.00922,-3.60612 1.79115,-7.52805 2.05416,-11.28011 0.0397,-0.57035 -0.0141,-1.14575 -0.0211,-1.71736 -0.087,-1.39242 0.36142,-2.11572 0.8539,-2.14634 z M 41.641273,198.78984 c 0.240777,0.26087 0.460544,0.53697 0.722708,0.7766 0.3326,0.30381 0.727832,0.53368 1.050913,0.84731 1.283136,1.25663 2.47908,3.43162 3.24294,5.0544 0.34844,0.58649 0.994743,1.61961 1.251314,2.27198 0.129025,0.32846 0.166159,0.69502 0.278897,1.02915 0.263669,0.77832 0.634741,1.47903 0.864637,2.27186 -0.345526,0.50732 0.414715,0.75933 0.422659,1.1598 0.0047,0.18191 -0.127616,0.34875 -0.130671,0.53053 -0.0141,0.86394 0.296454,-0.051 -0.01175,0.68088 -0.416125,0.14736 -0.04724,0.52407 -0.18261,0.73805 -0.06416,0.10153 -0.236947,0.0677 -0.326748,0.14807 -0.119389,0.10646 -0.545362,0.71265 -0.714012,0.88466 -0.726163,1.47507 -2.041967,2.4394 -2.960517,3.77213 -1.628614,1.33794 -3.352552,2.55384 -5.141074,3.66945 -1.399963,0.33733 -2.407844,1.59263 -3.786116,1.90058 -0.162163,0.15088 -0.285055,0.34929 -0.484234,0.44339 -0.164984,0.0766 -0.362118,-0.007 -0.540592,0.0317 -0.599017,0.12832 -0.05429,0.13936 -0.526796,0.37911 -0.06721,0.0362 -0.153233,7.5e-4 -0.232434,0.005 -0.149002,0.0853 -0.294503,0.16663 -0.44367,0.25252 -0.134666,-0.005 -0.268862,-0.007 -0.403458,-0.0118 -2.840633,-0.0371 -2.818047,-2.04065 0.0235,-2.00344 -0.0047,0.009 -0.0023,0.0235 -0.0094,0.0317 -0.0047,0.0458 -0.05593,0.15136 -0.01645,0.13444 0.179085,-0.0581 0.732532,-0.53599 0.979091,-0.62591 0.115395,-0.0418 0.248463,0.002 0.363951,-0.0388 0.129261,-0.0463 0.231729,-0.14665 0.348793,-0.21833 1.24471,-0.69458 2.611136,-1.15888 3.683483,-2.14918 1.741259,-0.84156 3.351213,-1.92032 4.763045,-3.24099 0.656715,-0.54304 1.355005,-1.19082 1.85569,-1.88725 0.351801,-0.48859 0.545316,-1.09794 1.082429,-1.46448 0.132786,-0.24005 0.17462,-0.52416 0.333798,-0.7476 0.05241,-0.0733 0.503154,-0.37702 0.375303,-0.4424 0.341836,-0.001 -0.402894,-1.1849 -0.281906,-1.46619 0.0188,-1.13416 0.114925,-0.009 -0.423176,-1.23268 -0.109284,-0.24811 -0.12456,-0.52242 -0.198591,-0.78311 -0.312341,-1.10344 -0.681815,-2.17764 -1.380364,-3.10604 -1.176319,-2.3387 -2.894922,-4.31246 -4.654842,-6.23539 l -0.0047,0.009 c -1.933811,-1.70619 -0.721815,-3.07354 1.212207,-1.36718 z M 562.09055,543.95397 c 0.33406,0.24414 0.68353,0.68774 1.00116,1.34631 0.2679,4.06565 -1.29308,7.79153 -2.77001,11.48681 -2.53306,6.33784 -1.75604,4.42175 -4.8727,10.87938 -4.21249,7.72904 -2.04594,3.92377 -6.48546,11.43969 -1.24205,2.1928 -2.79476,1.3183 -1.55251,-0.87479 4.36494,-7.46342 2.33254,-3.63655 6.08166,-11.4873 2.11107,-4.29449 3.18558,-6.33157 5.03974,-10.63679 1.34471,-3.12238 2.75812,-6.44064 2.70239,-9.91176 -0.95267,-1.97607 -0.14453,-2.97711 0.85587,-2.24169 z M 183.42992,320.22204 c 0.53923,0.37269 1.06313,0.77368 1.50478,1.24193 0.41027,0.43526 0.71392,0.95769 1.07738,1.43266 1.66243,2.17369 0.76581,0.85068 2.21031,3.20395 0.8624,2.47135 1.89519,5.19619 1.51416,7.87094 -0.20988,1.47198 -0.74983,2.4972 -1.32671,3.84201 -0.35453,0.59638 -0.62501,1.24097 -1.06067,1.78093 -0.45159,0.56042 -1.04029,0.99801 -1.57576,1.47888 -0.53295,0.47892 -1.02376,1.02936 -1.63491,1.40382 -0.48282,0.2961 -3.58045,1.46313 -4.13279,1.60036 -0.71768,0.17791 -1.46286,0.21599 -2.19433,0.32337 -1.37477,-0.40661 -2.81781,0.11586 -4.19794,-0.12221 -0.68109,-0.11751 -1.30817,-0.46001 -1.95473,-0.70393 -2.24996,-0.84772 -3.2404,-1.49562 -5.02798,-3.07246 -1.09865,-1.43766 -2.29433,-3.12585 -2.53652,-4.98925 -0.0787,-0.60741 0.0729,-1.22354 0.0938,-1.83579 0.087,-2.55553 -0.16169,-0.86153 0.3608,-3.32822 0.15253,-0.40659 0.99985,-2.72755 1.25047,-3.11862 0.28024,-0.44555 0.72814,-0.77049 1.07047,-1.17018 0.32501,-0.37996 0.5604,-0.84391 0.93869,-1.17216 0.35991,-0.31434 0.81895,-0.48099 1.22774,-0.72856 0.39458,-0.23899 0.7919,-0.4888 1.18288,-0.73385 2.91666,-1.36192 4.85778,-0.13866 7.34189,1.38936 1.0212,1.20897 2.3834,2.17598 3.22129,3.54158 0.66179,1.07888 1.32885,3.07897 1.70251,4.30857 0.52684,1.67202 0.57763,3.51694 -0.0341,5.18634 -0.27018,0.74021 -0.70762,1.21599 -1.17493,1.82673 -0.42356,0.29916 -1.28981,0.973 -1.81374,1.06887 -0.39199,0.0712 -0.79888,-0.0444 -1.19425,-0.0954 -1.35473,-0.17556 -2.35128,-0.66301 -3.52266,-1.33453 -1.47604,-1.11353 -2.74705,-2.36404 -3.45756,-4.08349 -0.98793,-2.52173 0.79197,-3.22609 1.77985,-0.70433 0.37887,0.57493 0.17321,0.23455 0.58738,1.07458 0.52724,0.80786 1.28856,1.49148 2.0595,2.05348 1.05627,0.54454 2.98677,1.85196 3.99451,0.68962 0.20188,-0.10388 0.44895,-0.15135 0.60555,-0.3153 0.80172,-0.83449 0.62837,-3.77232 0.46827,-4.8167 -0.84017,-2.58597 -2.3453,-4.90533 -4.36967,-6.72485 -1.07967,-0.91448 -1.47042,-1.07827 -2.79513,-1.48542 -0.27328,-0.0841 -0.53241,-0.21715 -0.81707,-0.24639 -0.21833,-0.0235 -1.61742,0.21128 -1.76074,0.23361 -2.18683,1.31576 -3.95242,3.20024 -4.58333,5.72771 -0.1356,0.45798 -0.34801,0.90212 -0.40785,1.37578 -0.0738,0.58263 0.0691,3.90115 0.24901,4.40544 0.34251,0.95996 1.395,1.55954 1.68191,2.55482 0.71571,0.6538 1.66222,1.60149 2.53295,2.05019 0.51476,0.26503 1.09333,0.38945 1.6429,0.57155 1.78652,0.59222 3.50266,0.93495 5.40387,0.69669 0.62722,-0.075 1.2599,-0.10082 1.87842,-0.22868 2.40578,-0.49833 4.73813,-1.66593 6.3071,-3.60465 0.3529,-0.43655 0.59211,-0.95813 0.8828,-1.43846 0.82925,-2.05036 1.14373,-2.66303 1.11747,-4.92206 -0.007,-0.59054 0.0905,-1.20314 -0.0543,-1.77597 -0.28862,-1.14321 -1.42142,-1.99222 -1.24729,-3.30868 -0.2675,-0.51415 -0.47561,-1.06607 -0.79524,-1.54948 -0.31833,-0.48193 -0.74374,-0.88323 -1.10736,-1.33176 -1.01496,-1.25193 -2.08296,-2.50214 -3.53044,-3.27331 -2.50554,-1.10649 -1.72753,-2.87969 0.77782,-1.77329 0.53808,0.34099 1.0989,0.68454 1.64102,1.05294 z M 80.375275,253.00257 c 0.209167,0.43434 -0.202587,1.16316 -1.430704,1.75546 -0.242235,0.15394 -0.464187,0.33182 -0.722685,0.45598 -0.34515,0.16569 -0.735117,0.23173 -1.075896,0.40529 -0.397394,0.20189 -0.738666,0.50389 -1.126918,0.72224 -0.436266,0.24503 -0.91768,0.40163 -1.343042,0.66492 -0.09142,0.0545 -2.503545,1.88979 -2.536377,1.91153 -0.323904,0.27366 -2.023141,1.68185 -2.33379,2.04462 -0.315349,0.36901 -0.514904,0.82175 -0.798502,1.2159 -0.986659,1.38086 -1.357449,1.74664 -1.867371,3.41443 -0.749218,1.81264 -0.682543,3.03387 -0.196241,4.86241 0.691733,2.59993 -1.145555,3.09725 -1.837335,0.49742 -0.385526,-2.05524 -0.713143,-4.14236 0.308205,-6.082 0.447994,-1.25878 1.17096,-2.92895 1.964363,-4.00327 0.32066,-0.43171 0.762097,-0.77319 1.120854,-1.17343 1.880015,-2.09576 0.280637,-0.58372 2.41781,-2.44864 2.353273,-1.49167 4.648074,-3.07293 7.193828,-4.21884 1.228211,-0.59213 2.054281,-0.45826 2.26366,-0.024 z M 567.45786,574.61029 c 0.45831,0.0813 0.8001,0.81812 0.56933,2.11418 -0.8578,5.72663 -3.58781,10.94566 -5.97659,16.14876 -1.09616,2.32584 -2.73774,1.54983 -1.64154,-0.77609 1.2393,-2.82646 2.60665,-5.60124 3.7294,-8.4759 0.42144,-1.07891 0.72972,-2.19591 1.08951,-3.29683 0.26371,-0.80577 0.57775,-1.60053 0.78174,-2.42336 0.12151,-0.49131 0.12879,-1.00362 0.19131,-1.50588 0.23079,-1.29604 0.79883,-1.86651 1.257,-1.78495 z m 43.95695,33.6172 c 0.43331,0.0978 0.72814,0.81108 0.45115,2.03656 -0.0769,0.51079 -0.11117,1.02579 -0.23032,1.52855 -0.51688,2.1795 -1.23256,4.30015 -1.86622,6.44862 -2.0917,7.09209 -4.56523,13.89337 -7.16873,20.81636 -1.20001,3.20526 -2.23614,6.47429 -3.59547,9.61535 -1.47881,3.41711 -3.36588,6.64503 -4.90932,10.03347 -1.59388,3.49911 -2.93419,7.10558 -4.4963,10.61901 -4.46043,10.03236 -9.39697,19.70066 -14.53976,29.39031 l -4.41813,8.14452 c -1.37846,2.47492 -3.13347,1.50361 -1.75503,-0.97128 1.48798,-2.68599 2.98447,-5.37455 4.47193,-8.0608 4.38746,-8.44763 5.37188,-10.1668 9.53523,-18.93591 1.64069,-3.45568 3.19753,-6.94581 4.8002,-10.41935 4.58438,-9.93559 9.25866,-19.84789 13.10875,-30.10047 2.54747,-6.81232 5.13767,-13.6261 7.15042,-20.62294 0.37112,-1.29058 0.617,-2.61811 0.9844,-3.90969 1.81414,-6.37697 0.17016,0.31958 1.19693,-3.97558 0.27705,-1.22556 0.84706,-1.73457 1.28027,-1.63668 z m 28.17021,20.83255 c 0.23551,0.28397 0.44607,0.74464 0.57836,1.3829 0.0872,0.32891 0.21692,0.64482 0.26172,0.98161 0.0675,0.50893 0.0461,1.02769 0.0639,1.54055 0.0428,1.23785 0.11023,3.72976 0.0334,4.84406 -0.18284,2.65637 -0.59845,5.29092 -0.88649,7.93794 -0.53204,1.72688 -1.06052,3.44952 -1.59764,5.17473 -1.83557,5.89819 -1.92977,6.77841 -4.6648,12.58703 -3.47636,7.38358 -7.77323,14.03515 -12.24261,20.8318 -6.31594,8.51644 -3.03246,4.45169 -9.81992,12.21081 -1.74506,2.02502 -3.18258,0.7911 -1.43735,-1.23416 6.71434,-7.61444 3.51244,-3.58997 9.59944,-12.07758 1.52579,-2.25738 3.13774,-4.45754 4.57898,-6.7699 1.41937,-2.27623 2.68855,-4.64128 3.99472,-6.98445 1.23538,-2.2156 2.54742,-4.39909 3.624,-6.69605 0.98541,-2.10256 1.74302,-4.30502 2.55245,-6.48137 2.39851,-6.44907 1.78796,-4.67118 3.07069,-10.95092 0.94513,-4.74243 1.86469,-9.70832 1.05656,-14.54575 -0.39676,-1.91478 0.52858,-2.60345 1.23481,-1.7512 z M 588.8376,605.72752 c 0.18002,0.42322 -0.23504,1.1013 -1.43157,1.60986 -4.93983,3.97061 -8.90708,8.98214 -13.02279,13.75707 -1.41794,1.64467 -2.85668,3.27321 -4.2864,4.90756 -5.43835,6.60118 -2.78909,3.33023 -7.9566,9.79681 -1.65064,1.98674 -3.05953,0.81968 -1.40883,-1.16717 4.9528,-6.63999 2.3513,-3.33632 7.85496,-9.89973 2.98802,-3.55187 5.13682,-6.18261 8.23809,-9.59981 1.1665,-1.28535 2.38806,-2.52562 3.57688,-3.79035 0.9241,-0.98311 1.79306,-2.02173 2.76451,-2.95817 1.24187,-1.19754 2.1873,-1.80805 3.5169,-2.74204 1.19682,-0.50837 1.97546,-0.33714 2.15515,0.086 z m 38.64594,27.70014 c 0.35965,0.2919 0.62313,1.00511 0.57777,2.11974 -0.90064,7.82967 -2.16996,15.6357 -4.3194,23.23139 -0.7498,2.64975 -1.62563,5.2654 -2.44178,7.89545 -3.55119,9.02015 -7.35695,17.98581 -12.03257,26.49281 -3.86875,7.03857 -6.24882,10.29148 -10.6893,16.92112 -1.4241,2.14962 -2.94571,1.13573 -1.52264,-1.01235 2.09334,-3.26292 8.70658,-13.46013 10.54464,-16.77435 1.62875,-2.93708 3.01062,-6.00298 4.47653,-9.02468 5.02542,-10.35721 3.4284,-6.79563 7.31689,-17.21425 1.50248,-4.86846 3.07523,-9.62473 4.22783,-14.59011 0.61239,-2.63795 1.41235,-7.63202 1.84119,-10.47733 0.17016,-1.12872 0.37187,-2.25073 0.47246,-3.38785 0.0632,-0.71239 0.0164,-1.43388 0.0212,-2.14909 0.0757,-1.85809 0.92993,-2.52021 1.52671,-2.03078 z m -47.51419,-9.55896 c 0.46729,0.0291 0.89169,0.72108 0.80981,2.04248 -0.58015,3.41093 -1.65134,6.6812 -2.71328,9.96508 -0.6856,2.12004 -1.29582,4.27016 -2.08262,6.35483 -1.11113,2.9444 -5.60905,13.1406 -6.73604,15.72252 -5.73837,11.69271 -11.55785,23.41593 -19.09657,34.08396 -2.43314,3.44303 -7.74145,9.95074 -10.4621,13.33599 -6.31726,6.71996 -3.16717,3.57434 -9.39326,9.48172 -1.87125,1.79059 -3.13855,0.46313 -1.26711,-1.32777 6.3286,-5.60126 3.25446,-2.49532 9.12193,-9.41824 1.69322,-2.04688 3.45326,-4.03888 5.08201,-6.13741 2.95225,-3.80384 7.94279,-10.90528 10.43437,-14.91312 5.16227,-8.30441 9.53049,-17.10318 13.74286,-25.91343 1.248,-2.73041 2.55339,-5.43403 3.73692,-8.19301 2.48308,-5.78818 3.15766,-7.90848 5.05819,-13.64601 1.03234,-3.11687 2.15651,-6.26082 2.70517,-9.51114 0.082,-1.32151 0.59253,-1.95553 1.05979,-1.92655 z M 40.677059,277.75062 c 1.202406,0.75253 2.028735,1.90283 2.945452,2.94951 0.378639,0.43244 0.800335,0.82137 1.160408,1.26946 0.756199,0.94088 1.263958,1.8634 1.883187,2.89243 0.3173,0.45528 0.636433,0.90805 0.953639,1.36349 0.211987,0.44797 0.363645,0.92497 0.628465,1.3433 0.234315,0.36978 0.637256,0.6233 0.850207,1.00572 0.172974,0.31037 0.142421,0.69502 0.284373,1.02067 0.823931,1.88897 0.289027,-0.23291 0.646139,1.46367 0.11469,0.20212 0.300097,0.3722 0.343293,0.59982 0.244702,1.3017 -1.220879,2.68536 -2.069229,3.42689 -0.673636,1.24906 -1.924832,1.90822 -2.970316,2.77466 -0.526703,0.43648 -0.99183,0.95157 -1.50302,1.40584 -1.073569,0.95444 -1.894892,2.2541 -3.18496,2.93584 -0.490251,0.6523 -1.303418,0.97855 -2.085563,1.05954 -1.449459,-1.05152 0.609217,0.33262 -0.665669,-0.21927 -0.191071,-0.0823 -0.232434,-0.37726 -0.423435,-0.4594 -0.0832,-0.0362 -0.202821,0.0668 -0.269097,0.005 -0.07638,-0.075 -0.03784,-0.21175 -0.05852,-0.31619 -0.133256,0.024 -0.701415,-0.2973 -0.767244,-0.35909 -0.149708,-0.14782 -0.196477,-0.37535 -0.342753,-0.52705 -0.131846,-0.12997 -0.316312,-0.20893 -0.472835,-0.31053 l -0.494152,-0.55408 c -0.150178,-0.26694 -0.282517,-0.5432 -0.456549,-0.79547 -1.931272,-2.8 0.641603,1.32811 -1.318436,-1.85687 -0.679464,-1.1041 -1.225814,-2.24787 -1.95059,-3.32343 -0.140072,-0.34447 -0.284492,-0.6837 -0.42461,-1.02812 -0.163339,-0.25265 -0.370085,-0.48374 -0.492765,-0.75862 -0.117275,-0.26256 -0.118215,-0.55963 -0.215983,-0.83065 -0.213398,-0.59183 -0.520874,-1.16892 -0.737867,-1.76561 -0.0094,-0.14313 -0.01175,-0.28237 -0.0235,-0.4256 -0.729219,-2.65043 1.141583,-3.16197 1.870872,-0.51166 0.0071,0.12198 0.0094,0.23892 0.01645,0.36111 0.225384,0.50196 0.489217,1.02006 0.688537,1.52779 0.09589,0.24421 0.11986,0.51674 0.229379,0.7551 0.126205,0.27339 0.318663,0.50691 0.47864,0.76172 0.133962,0.29901 0.264233,0.60355 0.398499,0.90224 0.82607,2.1073 2.194612,3.90228 3.49984,5.73062 0.369709,0.65366 0.900148,1.20497 1.557403,1.56668 0.193186,0.10835 0.462847,0.25446 0.616527,0.36776 0.18966,-0.14641 0.413399,-0.27241 0.619323,-0.39093 0.44334,-0.37544 0.764965,-0.84066 1.216202,-1.20746 0.66903,-0.54386 1.356838,-1.04894 1.901636,-1.7362 0.839654,-0.62184 1.471128,-1.34126 2.230029,-2.05231 0.234315,-0.21927 1.338883,-1.14363 1.573456,-1.3838 0.226793,-0.2322 0.418076,-0.5 0.625269,-0.74954 0.618501,-0.52438 1.495711,-1.05341 1.438201,-1.93179 -0.201646,-0.42323 -0.330319,-0.88081 -0.552507,-1.29341 -0.162163,-0.30144 -0.38663,-0.56022 -0.56353,-0.85335 -0.740616,-1.22742 -1.294675,-2.57556 -2.216515,-3.69143 -0.286841,-0.47056 -0.539981,-0.96473 -0.861487,-1.41174 -0.637937,-0.88736 -1.421445,-1.65308 -2.09628,-2.51273 -0.754929,-0.96112 -1.420293,-1.98387 -2.458867,-2.67831 l 0.0047,-0.009 c -2.189465,-1.43787 -1.174674,-2.9831 1.014767,-1.54518 z m 20.431228,27.24329 c 0.372341,0.34416 0.255207,1.21878 -0.718361,2.27162 -0.886493,0.84859 -1.478625,1.885 -2.176844,2.87279 -0.702567,0.99443 -1.407602,1.61103 -1.984528,2.70904 -0.272787,0.51902 -0.424797,1.10194 -0.635633,1.64911 -0.739748,3.19333 -1.626288,6.4043 -1.207812,9.69693 0.03878,1.11561 -0.05781,1.76593 0.486819,2.73675 0.732697,2.56458 -1.07935,3.07883 -1.811976,0.51404 -0.03008,-0.29629 -0.0141,-0.60539 -0.09025,-0.8931 -0.573753,-2.17786 -0.374315,0.36552 -0.413352,-2.24138 -0.08014,-0.4734 -0.211753,-0.93684 -0.242329,-1.41604 -0.197651,-3.10686 0.811005,-6.12863 1.581799,-9.08872 0.238215,-0.6162 0.419486,-1.2606 0.710158,-1.854 1.043157,-2.1292 2.799082,-4.22447 4.295309,-6.06183 0.973522,-1.05275 1.834985,-1.23924 2.207233,-0.89503 z m -22.350115,-3.69232 c -0.03008,0.0165 -0.06675,0.0261 -0.08461,0.0534 -0.01645,0.0263 0.05452,0.0545 0.07309,0.0357 0.02115,-0.0235 0.01645,-0.0543 0.0094,-0.0903 z M 371.08667,519.87625 c 1.2097,0.5092 0.8864,2.31152 -1.84739,3.89886 -2.58766,1.72965 -5.49675,2.34418 -8.4368,3.14865 -1.38349,0.37859 -2.72952,0.91667 -4.12974,1.22772 -1.56424,0.3475 -3.16367,0.50167 -4.74662,0.75009 l -5.23926,1.22419 c -7.93491,1.75188 -16.3625,3.41894 -24.49751,3.82849 -3.91778,0.19718 -7.84772,-0.0141 -11.76987,0.0534 -1.74641,0.067 -3.46045,-0.0475 -5.16255,-0.23608 -2.72762,-1.81604 -5.46731,-3.61526 -8.22411,-5.40098 1.04976,0.21222 1.9202,0.31396 4.26661,0.73535 6.79959,1.22121 1.69663,0.76586 9.15775,1.03496 12.01485,0.36733 23.66013,-1.22102 35.41743,-3.61817 7.24769,-1.65196 14.64719,-3.1252 21.57262,-5.83401 1.64025,-0.95242 2.91373,-1.11801 3.63944,-0.81244 z M 135.63216,370.12976 c 2.91543,2.35891 3.41983,4.22631 3.83377,7.83524 0.0343,1.55726 -0.31748,3.06802 -0.78668,4.54713 0.25331,0.16452 0.52269,0.29375 0.75425,0.50772 0.31892,0.29358 0.55815,0.65612 0.83902,0.98597 0.92102,1.00459 1.72706,2.34077 1.93094,3.72142 0.0771,0.52148 -0.0334,1.04793 -0.031,1.57479 0.0141,3.0785 0.12856,0.22351 -0.047,3.32884 -0.66525,2.6572 -1.51562,5.27661 -3.69119,7.11124 -0.38823,0.32734 -0.84643,0.56525 -1.26897,0.8465 -3.20653,2.0127 -5.51363,0.94936 -8.52526,-0.72837 -1.83842,-1.74876 -3.64423,-3.72701 -4.83809,-5.99319 -0.82325,-1.5626 -1.02917,-2.46982 -1.55839,-4.14142 -1.39956,-3.92442 -1.2973,-7.66151 -0.19812,-11.62321 0.19107,-0.56713 0.29707,-1.15994 0.56823,-1.69346 0.26879,-0.52985 0.69018,-0.97554 1.03209,-1.46128 1.43033,-2.01313 2.48747,-3.00663 4.55938,-4.3295 1.21822,-0.6912 2.37708,-1.33325 3.82412,-1.25919 0.40956,0.0211 0.80924,0.16874 1.21477,0.22985 1.94574,0.29344 0.43838,-0.1248 2.38803,0.54108 z m -0.96126,1.9791 c -2.09101,-1.29214 -3.24108,-0.88384 -5.39543,0.11868 -1.28434,1.08316 -0.57141,0.59963 -2.15591,1.4242 -0.36957,0.28385 -0.63737,0.67187 -0.94005,1.02628 -1.01698,1.19051 -1.69936,2.51226 -2.35156,3.93028 -0.21152,0.88642 -0.57857,2.29874 -0.65592,3.207 -0.0496,0.58433 -0.005,1.16457 -0.002,1.75111 0.009,1.89247 0.0597,3.7557 0.78355,5.54211 1.26116,3.45131 2.79584,6.69342 5.77511,9.00143 2.33642,1.62659 3.71303,2.17548 6.4059,0.95592 2.23024,-1.81341 3.51808,-3.79277 4.03063,-6.67077 0.18332,-1.35606 0.39916,-2.83074 0.10835,-4.19503 -0.22209,-1.04134 -0.85054,-2.00109 -1.30361,-2.94686 -0.21386,-0.24999 -0.38555,-0.5298 -0.63563,-0.74353 -0.0797,-0.071 -0.17674,-0.10975 -0.26155,-0.1718 -0.15911,0.39862 -0.29632,0.81585 -0.52964,1.17491 -0.2362,0.36341 -0.58978,0.63519 -0.88151,0.95594 -1.19698,1.14899 -2.02026,1.90972 -3.72433,1.91696 -2.7244,-0.0212 -2.7154,-1.94972 0.009,-1.92767 0.1819,-0.0212 0.38435,0.0902 0.54891,0.009 0.1577,-0.0771 0.2282,-0.27213 0.37572,-0.36955 0.18261,-0.12456 0.3985,-0.18942 0.59761,-0.28435 0.23479,-0.18425 0.46741,-0.36973 0.70226,-0.55396 1.15693,-1.38481 0.13373,0.005 0.99103,-1.76627 0.005,-0.009 0.0117,-0.0165 0.0164,-0.0258 -0.89899,-0.22092 -1.84981,-0.28099 -2.74469,-0.25561 -0.39242,-0.009 -0.78361,-0.0747 -1.17418,-0.0338 -0.36168,0.0371 -0.70097,0.17885 -1.05449,0.26226 -1.17507,0.27662 -2.23546,0.69082 -3.28308,1.30029 -2.18364,1.52363 -3.26177,-0.0188 -1.07815,-1.54189 0.7511,-0.67639 1.74377,-0.91674 2.6584,-1.2876 0.36907,-0.14924 0.70743,-0.36395 1.09223,-0.46703 0.62973,-0.16922 1.99956,-0.21599 2.63193,-0.25354 1.2664,0.067 2.56764,0.17509 3.78052,0.53699 0.38595,-1.17089 0.57378,-2.43209 0.42875,-3.63405 -0.024,-0.48657 -0.0853,-2.25433 -0.20658,-2.72193 -0.36017,-1.38781 -1.401,-2.49762 -2.55814,-3.26317 z"
         style="color:#000000;clip-rule:nonzero;display:inline;overflow:visible;visibility:visible;opacity:1;isolation:auto;mix-blend-mode:normal;color-interpolation:sRGB;color-interpolation-filters:linearRGB;solid-color:#000000;solid-opacity:1;fill:#ffffff;fill-opacity:1;fill-rule:evenodd;stroke:none;stroke-width:1;stroke-linecap:square;stroke-linejoin:round;stroke-miterlimit:4;stroke-dasharray:none;stroke-dashoffset:0;stroke-opacity:1;color-rendering:auto;image-rendering:auto;shape-rendering:auto;text-rendering:auto;enable-background:accumulate"
         inkscape:connector-curvature="0" />
    </g>
  </g>
</svg>
