<?xml version="1.0" encoding="UTF-8" standalone="no"?>
<!-- Created with Inkscape (http://www.inkscape.org/) -->

<svg
   xmlns:dc="http://purl.org/dc/elements/1.1/"
   xmlns:cc="http://creativecommons.org/ns#"
   xmlns:rdf="http://www.w3.org/1999/02/22-rdf-syntax-ns#"
   xmlns:svg="http://www.w3.org/2000/svg"
   xmlns="http://www.w3.org/2000/svg"
   xmlns:sodipodi="http://sodipodi.sourceforge.net/DTD/sodipodi-0.dtd"
   xmlns:inkscape="http://www.inkscape.org/namespaces/inkscape"
   width="210mm"
   height="297mm"
   viewBox="0 0 744.09448819 1052.3622047"
   id="svg8089"
   version="1.1"
   inkscape:version="0.91 r13725"
   sodipodi:docname="hand01.svg">
  <defs
     id="defs8091" />
  <sodipodi:namedview
     id="base"
     pagecolor="#ffffff"
     bordercolor="#666666"
     borderopacity="1.0"
     inkscape:pageopacity="0.0"
     inkscape:pageshadow="2"
     inkscape:zoom="0.35"
     inkscape:cx="375"
     inkscape:cy="520"
     inkscape:document-units="px"
     inkscape:current-layer="layer1"
     showgrid="false"
     inkscape:window-width="458"
     inkscape:window-height="595"
     inkscape:window-x="906"
     inkscape:window-y="7"
     inkscape:window-maximized="0" />
  <metadata
     id="metadata8094">
    <rdf:RDF>
      <cc:Work
         rdf:about="">
        <dc:format>image/svg+xml</dc:format>
        <dc:type
           rdf:resource="http://purl.org/dc/dcmitype/StillImage" />
        <dc:title></dc:title>
      </cc:Work>
    </rdf:RDF>
  </metadata>
  <g
     inkscape:label="Layer 1"
     inkscape:groupmode="layer"
     id="layer1">
    <path
       style="display:inline;opacity:1;fill:#000000"
       d="m 488.94634,866.45586 c -0.77149,-0.39572 -1.43467,-1.07823 -1.56949,-1.6154 -0.29396,-1.17161 -1.6804,-2.09411 -3.61043,-2.4027 -1.23215,-0.19819 -1.69422,-0.0749 -2.62897,0.70529 -0.82276,0.68544 -1.76881,1.0025 -3.44672,1.15533 -1.27203,0.1171 -3.09012,0.48157 -4.04032,0.81325 -1.45383,0.50692 -1.85173,0.52093 -2.5109,0.0879 -0.43077,-0.28289 -1.94177,-0.58695 -3.35781,-0.67701 -1.69987,-0.10734 -2.8214,-0.38759 -3.30128,-0.8217 -0.41017,-0.37101 -1.34973,-0.65782 -2.1572,-0.65782 -1.16619,0 -1.70005,-0.28288 -2.88906,-1.53315 -1.34128,-1.40994 -1.61115,-1.52829 -3.35728,-1.47236 -1.04431,0.0325 -2.40335,-0.0843 -3.02003,-0.26014 -1.41858,-0.40385 -4.59147,0.37231 -6.33372,1.54944 -1.03619,0.70006 -1.5069,0.80186 -2.40908,0.52155 -0.61676,-0.19195 -1.65847,-0.51474 -2.31499,-0.71794 -0.65656,-0.20169 -1.43853,-0.57231 -1.73763,-0.82073 -0.72928,-0.60516 -3.84537,-0.23089 -4.72734,0.56642 -0.85098,0.77002 -2.31046,0.78464 -3.30403,0.0325 -0.41152,-0.31219 -1.11012,-0.56613 -1.5524,-0.56613 -0.4423,0 -1.14636,-0.23413 -1.56451,-0.52091 -0.41819,-0.28615 -1.48293,-0.63342 -2.36618,-0.77063 -0.88325,-0.13654 -2.09742,-0.50144 -2.69817,-0.81032 -0.60078,-0.30892 -1.90398,-0.77683 -2.89599,-1.04022 -1.234,-0.32778 -1.93258,-0.76187 -2.21165,-1.37449 -0.2244,-0.49232 -0.81704,-1.05061 -1.31712,-1.24085 -0.50012,-0.1887 -1.20912,-0.97778 -1.5757,-1.75004 -0.79272,-1.67039 -1.27314,-1.90712 -2.9822,-1.46813 -1.85544,0.47669 -3.02229,0.20816 -3.02229,-0.69946 0,-0.41589 -0.26015,-0.85615 -0.57817,-0.97811 -0.31802,-0.12034 -0.57819,-0.4422 -0.57819,-0.71145 0,-0.26988 -0.26014,-0.70562 -0.57819,-0.96965 -0.31799,-0.26338 -0.57816,-0.97487 -0.57816,-1.58034 0,-0.73354 -0.30597,-1.30065 -0.91838,-1.70192 -0.5051,-0.331 -1.02407,-1.12994 -1.15318,-1.77573 -0.12931,-0.64578 -0.60215,-1.68988 -1.05117,-2.32039 -0.77893,-1.09418 -0.90915,-1.13485 -2.84695,-0.89293 -1.90697,0.23739 -2.07468,0.1887 -2.75229,-0.7944 -0.39688,-0.57648 -1.09423,-1.42128 -1.54966,-1.87717 -0.75674,-0.75764 -0.78084,-0.91925 -0.28031,-1.87492 0.64049,-1.2223 0.3805,-2.65272 -0.6519,-3.58724 -0.39995,-0.36191 -0.62782,-0.8188 -0.50636,-1.01519 0.12113,-0.19494 0.0104,-0.86721 -0.24885,-1.49058 -0.37841,-0.9137 -0.369,-1.25447 0.0485,-1.7575 0.33038,-0.39835 0.51303,-1.61968 0.50428,-3.37232 -0.0149,-2.40201 -0.16349,-2.98081 -1.20252,-4.59234 -0.67818,-1.05227 -1.10803,-2.15264 -1.00091,-2.56234 0.10332,-0.39541 -0.026,-1.11824 -0.28742,-1.60697 -0.3138,-0.58596 -0.45561,-2.50314 -0.41709,-5.63353 0.0581,-4.72761 -0.30567,-6.58499 -1.59406,-8.13732 -0.26047,-0.31543 -0.49073,-1.02104 -0.5117,-1.57122 -0.10215,-2.6823 -1.06235,-8.38935 -1.52193,-9.04552 -0.30075,-0.42955 -0.42665,-1.19823 -0.29978,-1.83232 0.17848,-0.89323 0.0519,-1.16152 -0.69543,-1.47238 -1.26762,-0.52806 -2.26286,-1.36894 -2.26286,-1.91228 0,-0.25038 -0.41535,-0.87213 -0.92295,-1.38003 l -0.92294,-0.92282 0.91408,-1.80534 c 1.76048,-3.47767 0.71968,-8.83481 -1.87275,-9.6396 -1.47778,-0.45882 -2.97726,-1.72762 -2.97726,-2.5194 0,-1.16279 -1.56719,-3.04194 -2.53666,-3.04194 -1.02045,0 -1.31782,-0.65944 -1.31782,-2.9223 0,-1.71882 -0.9466,-3.23901 -2.02364,-3.24971 -0.59666,0 -3.81,-3.62824 -4.63636,-5.22643 -0.33499,-0.64772 -0.73097,-2.25537 -0.87998,-3.5723 -0.2764,-2.44202 -0.90154,-3.28939 -2.98101,-4.04085 -0.38057,-0.13654 -0.94271,-0.85031 -1.24918,-1.58389 -0.40923,-0.97943 -1.19812,-1.7029 -2.96985,-2.72393 -4.74055,-2.73208 -5.30003,-3.10015 -6.65036,-4.37579 -0.75216,-0.71016 -1.71515,-2.05474 -2.13998,-2.98732 -0.42483,-0.93226 -0.91191,-1.69543 -1.08237,-1.69543 -0.17023,0 -0.72409,-0.88414 -1.23029,-1.96498 -0.50618,-1.08086 -1.32624,-2.28431 -1.8223,-2.67449 -0.7481,-0.58858 -0.85963,-0.9352 -0.6537,-2.03295 0.23089,-1.23109 0.0911,-1.4779 -2.00171,-3.53232 -1.23752,-1.21449 -2.62421,-2.35357 -3.08156,-2.53142 -0.49006,-0.1887 -0.93758,-0.80545 -1.08964,-1.49806 -0.14228,-0.64611 -0.42891,-1.2805 -0.63767,-1.4096 -0.20868,-0.13005 -0.54489,-0.60804 -0.74698,-1.06428 -1.01453,-2.29144 -1.82899,-3.15054 -3.58234,-3.77778 -2.60334,-0.93131 -2.94081,-1.31728 -2.94103,-3.3629 -1.7e-4,-1.65542 -0.13504,-1.89996 -1.87425,-3.39767 -1.21397,-1.04541 -1.95762,-2.03199 -2.1114,-2.80067 -0.15826,-0.79148 -0.56147,-1.31045 -1.2094,-1.5569 -0.58621,-0.22115 -0.97199,-0.67147 -0.97199,-1.13062 0,-0.41882 -0.28649,-0.92185 -0.63648,-1.11762 -0.48866,-0.27312 -0.58228,-0.68999 -0.40312,-1.79426 0.32355,-1.99426 -0.55442,-3.28419 -2.23532,-3.28419 -0.98126,0 -1.4817,-0.29264 -2.26844,-1.32345 -0.55512,-0.7277 -1.00935,-1.56796 -1.00935,-1.86741 0,-0.56483 -1.02549,-1.63725 -2.26027,-2.364 -3.6409,-2.14253 -3.75789,-2.29307 -4.26761,-5.4937 -0.6684,-4.19662 -0.52619,-3.98395 -2.66656,-3.98395 -1.59601,0 -1.99462,-0.15277 -2.52641,-0.96382 -0.34725,-0.53001 -0.86901,-0.96345 -1.15946,-0.96345 -0.63147,0 -0.99598,-0.83341 -0.99598,-2.27714 0,-0.89455 -0.43778,-1.33482 -2.8443,-2.8592 -1.56438,-0.99111 -3.17752,-1.80176 -3.58472,-1.80176 -1.03176,0 -1.66543,-0.74239 -1.66543,-1.95068 0,-1.89607 -2.32263,-4.72634 -4.93152,-6.00912 -1.30803,-0.64316 -2.39208,-2.24072 -2.39208,-3.52515 0,-0.40157 -0.34692,-1.0441 -0.77091,-1.42779 -0.42403,-0.38371 -0.77093,-0.96282 -0.77093,-1.28672 0,-0.88737 -6.29752,-6.79566 -8.19299,-7.68661 -0.91166,-0.42858 -2.43076,-1.57708 -3.37566,-2.55194 -0.94493,-0.97519 -1.93389,-1.77281 -2.19774,-1.77281 -0.26371,0 -0.82525,-0.67766 -1.24763,-1.50552 -0.42241,-0.82791 -1.17236,-1.82519 -1.66653,-2.21637 -0.49419,-0.39083 -1.01545,-1.01839 -1.15838,-1.3943 -0.14277,-0.37558 -0.54126,-0.79113 -0.88523,-0.92315 -0.344,-0.13329 -1.03385,-0.64838 -1.53306,-1.14751 -0.49916,-0.49915 -1.24993,-0.90755 -1.6683,-0.90755 -0.63327,0 -0.8052,-0.3564 -1.02656,-2.12791 -0.29264,-2.34284 -1.07664,-3.25589 -3.47549,-4.04734 -0.85244,-0.27967 -1.325,-0.68321 -1.325,-1.12638 0,-0.37916 -0.3469,-1.12997 -0.77088,-1.6691 -0.42401,-0.53913 -0.77091,-1.24604 -0.77091,-1.5712 0,-0.32519 -0.17323,-0.69812 -0.38548,-0.8292 -0.21191,-0.13004 -0.38543,-0.58302 -0.38543,-1.00474 0,-0.48321 -0.4184,-0.94268 -1.13123,-1.24249 -0.62216,-0.26015 -1.50205,-0.94722 -1.95524,-1.5234 -0.45321,-0.5759 -1.16264,-1.04738 -1.5765,-1.04738 -0.44794,0 -0.90072,-0.38987 -1.1188,-0.96345 -0.24213,-0.63734 -0.66334,-0.96414 -1.24321,-0.96512 -0.48223,0 -1.44469,-0.34793 -2.13882,-0.77098 -0.69414,-0.42336 -1.58354,-0.76967 -1.97645,-0.76967 -0.3929,0 -0.93032,-0.26014 -1.19422,-0.57814 -0.26402,-0.31867 -0.70787,-0.57813 -0.98659,-0.57813 -0.36182,0 -0.44545,-0.37786 -0.29231,-1.32118 0.19144,-1.18037 -0.026,-1.61348 -2.04785,-4.07436 -1.48668,-1.80955 -2.61719,-2.82505 -3.29759,-2.96229 -0.56945,-0.11384 -1.12773,-0.44936 -1.24062,-0.74365 -0.11281,-0.29264 -0.51736,-0.53489 -0.89879,-0.53489 -0.38147,0 -1.3317,-0.43346 -2.11165,-0.96347 -0.77996,-0.53001 -1.67933,-0.96378 -1.9986,-0.96378 -0.90375,0 -2.55795,-0.85293 -3.72319,-1.91948 -1.89029,-1.73087 -3.55246,-2.88946 -4.75516,-3.31509 -0.75614,-0.26662 -1.45636,-0.95339 -1.95777,-1.91686 -0.42932,-0.82526 -1.12747,-1.68407 -1.55148,-1.90873 -1.15531,-0.61164 -4.49562,-4.01875 -5.86227,-5.9792 -0.66228,-0.95013 -2.30278,-2.77497 -3.64549,-4.05516 -1.34269,-1.27987 -2.91139,-2.95058 -3.48596,-3.7121 -0.72278,-0.95827 -1.46515,-1.46425 -2.40908,-1.64115 -0.75042,-0.13977 -1.36436,-0.41262 -1.36436,-0.60382 0,-0.42435 -3.35701,-4.53644 -5.73252,-7.02235 -0.9545,-0.9989 -2.20536,-1.91946 -2.77965,-2.04561 -1.29174,-0.28289 -1.91856,-0.9651 -3.31007,-3.598 -1.99778,-3.78007 -2.93827,-5.05407 -3.75199,-5.08203 -0.44177,0 -2.54204,-2.83513 -2.54204,-3.41297 0,-0.58531 -4.21138,-3.95533 -5.306,-4.24573 -0.78217,-0.20816 -1.18364,-0.67078 -1.55688,-1.79589 -0.27671,-0.83406 -0.91603,-1.95003 -1.42093,-2.48004 -1.05015,-1.10234 -1.73797,-2.71094 -1.73797,-4.06493 0,-0.51214 -0.70326,-2.45209 -1.56281,-4.31109 -2.9235,-6.32286 -3.71074,-8.00303 -5.46737,-11.66733 -0.96542,-2.0141 -1.96896,-4.35561 -2.23004,-5.20366 -0.57025,-1.85248 -0.83638,-2.45143 -2.31088,-5.20365 -0.62474,-1.16608 -1.13877,-2.45047 -1.14233,-2.85433 -0.005,-0.40419 -0.41516,-1.27141 -0.91467,-1.9273 -0.49946,-0.65616 -1.0322,-1.62649 -1.1837,-2.15647 -0.33813,-1.18202 -2.05742,-4.68603 -4.06631,-8.28726 -0.82785,-1.48407 -1.51546,-3.0065 -1.52799,-3.38369 -0.0295,-0.83016 -2.15978,-5.13473 -2.71239,-5.47649 -0.2169,-0.13329 -0.39407,-0.58595 -0.39407,-1.00442 0,-0.41882 -0.43362,-1.61675 -0.96364,-2.66281 -0.52998,-1.04575 -0.96363,-2.14318 -0.96363,-2.43876 0,-0.2959 -0.43361,-1.17611 -0.96363,-1.95717 -0.52996,-0.78106 -0.96366,-1.68047 -0.96366,-1.99849 0,-0.31865 -0.43459,-1.01324 -0.96587,-1.54455 -0.53122,-0.53132 -1.31532,-1.65088 -1.74234,-2.48786 -0.42711,-0.8373 -0.96021,-1.52212 -1.18476,-1.52212 -0.2507,0 -0.31278,-0.43476 -0.161,-1.12603 0.22065,-1.00609 0.0612,-1.26297 -1.49612,-2.40919 -0.95894,-0.70561 -1.75576,-1.54325 -1.77075,-1.86124 -0.0149,-0.31868 -0.28194,-0.91471 -0.59323,-1.32639 -0.31117,-0.41132 -0.56593,-1.03762 -0.56593,-1.39138 0,-0.3541 -0.43361,-1.28246 -0.96364,-2.06351 -0.52998,-0.78106 -0.96583,-1.71592 -0.96849,-2.0775 -0.005,-0.36161 -0.50815,-1.64958 -1.12324,-2.86247 -0.63656,-1.25515 -1.03135,-2.53792 -0.9163,-2.97754 0.12827,-0.48969 -0.16624,-1.20997 -0.80406,-1.96825 -0.55333,-0.65749 -1.00606,-1.41545 -1.00606,-1.68438 0,-0.26989 -0.34691,-0.80283 -0.77092,-1.18652 -0.42398,-0.38369 -0.77089,-0.97063 -0.77089,-1.30424 0,-1.22591 -5.07546,-10.81446 -6.29363,-11.89009 -1.08927,-0.96154 -1.2296,-1.32474 -1.28593,-3.32616 -0.0474,-1.6873 -0.26337,-2.45958 -0.86729,-3.10242 -0.53583,-0.57035 -0.804,-1.36538 -0.804,-2.3835 0,-0.8399 -0.27867,-1.9253 -0.61948,-2.41175 -1.43564,-2.04955 -3.90794,-6.93908 -4.38365,-8.66963 -0.28225,-1.02624 -0.74625,-1.95522 -1.0313,-2.0648 -0.28518,-0.1106 -0.51826,-0.5037 -0.51826,-0.87634 0,-0.37296 -0.30337,-1.09161 -0.67454,-1.59724 -1.081,-1.47301 -2.02364,-3.3037 -2.02364,-3.92996 0,-0.59831 -1.71674,-4.44668 -3.04159,-6.81815 -1.11315,-1.99261 -2.6996,-6.45521 -3.1269,-8.79545 -0.36815,-2.0167 -2.24751,-5.21146 -3.30417,-5.61693 -0.27966,-0.10735 -0.70871,-0.94104 -0.95325,-1.85313 -0.24461,-0.91177 -1.03418,-2.91936 -1.75474,-4.461 -0.72057,-1.5416 -1.31464,-2.92945 -1.32002,-3.08355 -0.005,-0.15276 -0.61251,-1.22654 -1.34908,-2.38285 -0.73656,-1.15628 -1.33924,-2.46379 -1.33924,-2.90569 0,-0.76707 -1.067598,-3.18045 -1.842154,-4.16443 -0.20093,-0.25687 -0.360207,-1.25547 -0.353788,-2.22313 0.0052,-0.96737 -0.260113,-2.26837 -0.592691,-2.89074 -0.747602,-1.40017 -1.526278,-4.18686 -1.635795,-5.85401 -0.04523,-0.68934 -0.369149,-1.57023 -0.719804,-1.95785 -0.418092,-0.46171 -0.63754,-1.38259 -0.63754,-2.67481 0,-1.08377 -0.149011,-2.06253 -0.330928,-2.17505 -0.182216,-0.11384 -0.421886,-1.20767 -0.533066,-2.43355 -0.120342,-1.32637 -0.589573,-2.93141 -1.158573,-3.96218 -0.572469,-1.03697 -1.066041,-2.73075 -1.229386,-4.21906 -0.150272,-1.36765 -0.428203,-2.77657 -0.617982,-3.13135 -0.189948,-0.35476 -0.369746,-2.40267 -0.399845,-4.55138 -0.0295,-2.14872 -0.188947,-3.98949 -0.352917,-4.09061 -0.163995,-0.10085 -0.419365,-1.15501 -0.567583,-2.34121 -0.14827,-1.18622 -0.62457,-3.14016 -1.058634,-4.34165 -0.596811,-1.65184 -0.776999,-3.0299 -0.739207,-5.65337 0.02599,-1.90806 -0.09565,-4.4756 -0.273798,-5.70604 -0.235629,-1.62779 -0.171234,-2.7818 0.235382,-4.23985 0.307613,-1.10166 0.705509,-3.39087 0.884255,-5.08694 0.507009,-4.80989 0.754542,-5.85074 1.946033,-8.18022 0.611847,-1.19632 1.112398,-2.55032 1.112398,-3.00847 0,-0.4585 0.346886,-1.14752 0.770917,-1.53121 0.423978,-0.3837 0.770865,-0.87115 0.770865,-1.08315 0,-0.21141 0.433687,-0.95435 0.963634,-1.64925 0.530038,-0.69488 0.963659,-1.47528 0.963659,-1.73445 0,-0.26014 0.433609,-1.03988 0.963621,-1.73477 0.530025,-0.69455 0.963633,-1.42812 0.963633,-1.63005 0,-0.20168 0.417819,-0.64059 0.928571,-0.9752 0.510713,-0.33459 1.403337,-1.04831 1.983523,-1.58615 0.6671,-0.61815 1.50327,-0.97779 2.27412,-0.97779 0.67052,0 1.55586,-0.25362 1.96736,-0.56577 1.07163,-0.81066 3.61042,-0.72255 5.08454,0.17547 0.68902,0.42012 1.25273,0.93356 1.25273,1.14132 0,0.4972 1.87137,3.39966 3.05672,4.74094 0.51526,0.58306 1.25788,1.06009 1.65032,1.06009 0.84966,0 1.31419,-0.97163 0.78541,-1.6431 -0.68339,-0.86786 -1.73885,-4.86776 -1.51271,-5.73237 0.29069,-1.11142 -0.33211,-3.84445 -2.48255,-10.89475 -0.18771,-0.61458 -0.34084,-2.90283 -0.34084,-5.08434 0,-2.50054 -0.15874,-4.06525 -0.42957,-4.23271 -0.28193,-0.17547 -0.34678,-1.00999 -0.1887,-2.43195 0.15575,-1.39822 0.0295,-3.12291 -0.35958,-4.86419 -1.12061,-5.03423 -1.28826,-7.26132 -0.71333,-9.47798 0.29396,-1.13354 0.53464,-2.7841 0.53464,-3.66758 0,-1.23857 0.3613,-2.14771 1.57734,-3.96867 0.86752,-1.29906 1.91106,-2.54086 2.31895,-2.75906 0.40785,-0.21792 2.11451,-0.39995 3.79252,-0.40352 2.33944,0 3.75674,-0.25689 6.07766,-1.07695 2.75072,-0.97292 3.30682,-1.04413 6.09734,-0.78073 4.34493,0.40971 6.79147,1.14037 8.31822,2.48395 1.31405,1.1566 2.26872,3.38012 2.26872,5.2843 0,0.65652 0.60732,1.53057 1.91075,2.74995 1.05091,0.98297 2.08809,1.78713 2.30489,1.78713 0.52243,0 2.04772,3.01917 2.14198,4.23985 0.0409,0.53004 0.10137,1.17093 0.13454,1.42424 0.0331,0.25363 0.6666,1.12021 1.40756,1.92726 0.74098,0.80675 1.34805,1.59822 1.34908,1.75916 0,0.1625 0.52217,1.01096 1.15817,1.8889 0.636,0.87794 1.15636,2.06709 1.15636,2.64264 0,0.57556 0.34695,1.48765 0.7709,2.02679 0.424,0.5388 0.77095,1.08019 0.77095,1.20245 0,0.12359 0.49988,1.049 1.11087,2.05931 0.61099,1.00996 1.33707,2.79058 1.61348,3.95662 0.27641,1.16609 0.71323,2.37993 0.97069,2.69795 0.56362,0.69618 1.66629,3.22243 2.10295,4.81834 0.61391,2.24333 1.59182,4.63269 2.14909,5.25114 0.31022,0.34403 0.70532,1.52048 0.87816,2.61403 0.18197,1.15272 0.66177,2.35811 1.14086,2.86828 0.45459,0.48386 0.8265,1.18361 0.8265,1.55496 0,0.8695 0.61167,2.0037 2.04523,3.79278 1.13697,1.41903 2.43435,4.43562 2.85833,6.64675 0.1206,0.62821 0.5402,1.66908 0.93266,2.31259 0.39248,0.64349 0.71532,1.60373 0.71741,2.13377 0.005,0.52999 0.2764,1.48405 0.60933,2.12006 1.41372,2.6999 2.84793,6.50174 3.27863,8.69079 0.37829,1.92302 0.69765,2.53826 1.75581,3.38238 0.94644,0.75536 1.29502,1.34231 1.29926,2.18837 0.005,1.4483 0.69967,3.43962 1.82513,5.24919 0.47696,0.76707 0.86723,1.53382 0.86723,1.70422 0,0.16899 0.29072,0.63081 0.64618,1.02361 0.49537,0.54727 0.54032,0.81974 0.19295,1.16737 -0.24936,0.25038 -0.45346,1.19335 -0.45346,2.09764 0,1.24506 0.26306,1.95101 1.08414,2.91027 0.95027,1.10946 2.27218,3.13102 3.81435,5.83317 0.25624,0.44874 0.70788,0.99306 1.00388,1.20962 0.29592,0.21467 0.67145,0.82626 0.83439,1.35564 0.163,0.52904 0.80798,2.0027 1.43337,3.27477 0.62547,1.27205 1.2922,3.13007 1.48167,4.12898 0.65837,3.47148 4.78227,8.76489 7.91215,10.15596 1.07426,0.47767 2.91981,1.75169 4.10132,2.83156 1.18148,1.07989 2.32044,1.96336 2.53107,1.96336 0.4741,0 3.17075,2.94539 3.17075,3.46306 0,0.20817 1.11267,1.55657 2.4726,2.99802 1.50404,1.59432 2.60772,3.14468 2.81765,3.95827 0.2819,1.09223 0.74003,1.54844 2.50368,2.49337 1.18721,0.63603 3.03405,1.98029 4.10397,2.98731 1.06996,1.00674 2.26728,1.83072 2.66068,1.83072 0.39338,0 1.20039,0.50626 1.79328,1.12539 0.59291,0.61877 1.48762,1.22784 1.98824,1.35335 0.50067,0.12684 1.09453,0.57294 1.31975,0.99371 0.2254,0.42078 1.05409,1.09418 1.84202,1.49612 0.78792,0.40222 1.763,1.09645 2.16686,1.54322 0.40385,0.44647 0.94414,0.81195 1.20067,0.81195 0.25656,0 1.48719,0.69325 2.73479,1.54065 1.24761,0.84771 2.58234,1.54162 2.96606,1.54195 0.38369,0 1.49275,0.60806 2.46449,1.35009 0.97174,0.74203 2.03346,1.34881 2.35932,1.34881 0.32583,0 2.01362,0.95564 3.75064,2.12332 3.10049,2.08435 6.62242,3.305 8.00509,2.77434 0.8246,-0.31541 0.33049,-2.19195 -0.6785,-2.57564 -1.37224,-0.52158 -3.02719,-2.97921 -2.75,-4.0838 0.27707,-1.10426 -1.0755,-4.31107 -2.8533,-6.76545 -0.64152,-0.88543 -1.16637,-1.86449 -1.16637,-2.17568 0,-0.64546 -2.78304,-3.55865 -3.39953,-3.55865 -0.24186,0 -0.327,-0.50693 -0.21017,-1.25287 0.17199,-1.09515 -0.0491,-1.51692 -1.75874,-3.3554 -1.07544,-1.15629 -1.95536,-2.26121 -1.95536,-2.455 0,-0.1952 -0.61156,-1.35887 -1.35903,-2.58931 -0.74745,-1.23044 -1.58729,-2.89693 -1.86641,-3.70269 -0.43242,-1.24928 -0.81524,-1.59137 -2.59185,-2.31748 -1.27713,-0.5222 -2.02943,-1.04833 -1.94234,-1.35885 0.51821,-1.84698 0.47391,-3.65685 -0.10137,-4.13419 -0.34056,-0.28291 -0.61916,-0.7469 -0.61916,-1.03144 0,-0.28614 -0.52036,-1.11012 -1.15637,-1.83458 -0.63596,-0.72448 -1.15635,-1.43824 -1.15635,-1.5865 0,-0.24387 -1.32034,-2.37764 -3.72027,-6.00942 -0.49783,-0.75341 -0.90513,-1.56409 -0.90513,-1.80111 0,-0.23738 -0.48897,-0.92185 -1.08656,-1.52115 -1.57923,-1.58389 -2.31031,-2.82668 -2.97059,-5.05019 -0.33623,-1.13224 -0.99221,-2.29179 -1.54055,-2.72293 -0.52525,-0.41331 -0.955,-1.0994 -0.955,-1.52473 0,-0.99663 -3.06193,-5.07359 -4.81413,-6.41004 -0.92338,-0.70431 -1.35311,-1.3439 -1.35311,-2.01439 0,-0.60905 -0.51294,-1.49545 -1.34908,-2.33179 -0.99301,-0.99305 -1.34907,-1.68242 -1.34907,-2.61241 0,-0.69488 -0.26014,-1.47919 -0.57819,-1.74323 -0.318,-0.26335 -0.57816,-0.87078 -0.57816,-1.34909 0,-0.47801 -0.24238,-1.07015 -0.53841,-1.31598 -0.29623,-0.24712 -0.45583,-0.76252 -0.355,-1.14815 0.2289,-0.87537 -1.04668,-3.30339 -2.4665,-4.69576 -2.65522,-2.6033 -4.25926,-5.79317 -4.32365,-8.59808 -0.0149,-0.74009 -0.45733,-1.51821 -1.31923,-2.33113 -1.66559,-1.57055 -2.17532,-2.55386 -2.17532,-4.195 0,-1.13384 -0.31154,-1.59364 -2.13516,-3.15151 -1.17438,-1.00348 -2.55361,-2.62899 -3.06498,-3.61229 -1.04652,-2.0128 -2.11617,-3.10763 -3.96559,-4.05974 -0.82485,-0.42465 -1.56316,-1.28115 -2.12544,-2.46541 -0.61559,-1.29643 -1.29217,-2.03815 -2.3695,-2.59712 -0.82935,-0.43051 -1.58662,-1.03794 -1.6829,-1.34977 -0.47713,-1.54552 -2.51656,-5.38282 -3.18017,-5.98308 -0.41365,-0.37459 -0.93401,-1.35629 -1.1563,-2.18189 -0.22465,-0.83439 -1.046,-2.14253 -1.84937,-2.94603 -1.06368,-1.06364 -1.71974,-2.27585 -2.48509,-4.5917 -0.57195,-1.73055 -1.03991,-3.39152 -1.03991,-3.691 0,-0.29915 -0.26016,-0.76022 -0.57818,-1.02426 -0.31803,-0.26341 -0.57817,-0.85942 -0.57817,-1.32376 0,-0.48484 -0.47695,-1.1963 -1.12076,-1.67234 -0.61641,-0.45588 -1.37211,-1.31239 -1.67939,-1.90354 -1.28952,-2.48071 -2.34683,-4.60469 -2.74173,-5.50738 -0.67958,-1.55364 -1.8866,-3.08356 -2.43239,-3.08356 -0.27802,0 -0.50569,-0.3219 -0.50569,-0.71375 0,-0.39214 -0.43364,-1.52893 -0.96363,-2.52559 -0.52999,-0.99695 -0.96363,-2.0547 -0.96363,-2.35094 0,-0.29591 -0.22664,-0.67734 -0.50339,-0.84706 -1.05796,-0.64773 -2.19479,-3.58434 -2.19479,-5.6693 0,-1.34523 -0.19744,-2.22448 -0.56798,-2.53209 -0.31249,-0.26012 -0.68038,-1.10459 -0.81777,-1.87817 -0.30826,-1.7351 -1.63626,-5.03588 -2.37865,-5.91154 -0.39243,-0.46305 -0.47535,-1.10134 -0.28745,-2.21343 0.20793,-1.22945 0.0924,-1.84044 -0.5402,-2.86406 -0.44235,-0.7157 -0.80427,-1.82064 -0.80427,-2.45568 0,-0.69848 -0.45033,-1.72079 -1.14111,-2.58997 -0.62761,-0.78984 -1.25858,-1.81085 -1.40209,-2.26936 -0.14377,-0.45848 -0.58404,-1.24733 -0.97889,-1.75264 -0.43976,-0.56319 -0.71787,-1.54519 -0.71787,-2.53468 0,-1.20019 -0.23438,-1.83558 -0.91179,-2.47194 -0.68428,-0.64283 -0.96171,-1.4073 -1.11192,-3.06405 -0.1308,-1.4421 -0.73492,-3.3538 -1.74311,-5.51581 -0.84858,-1.81996 -1.67256,-3.72351 -1.83095,-4.23044 -0.15825,-0.50726 -0.73673,-1.78485 -1.28519,-2.83936 -0.54849,-1.05454 -1.10369,-2.8758 -1.23379,-4.04706 -0.22215,-2.00009 -0.11228,-2.39028 1.7939,-6.39147 1.11677,-2.34349 2.15669,-4.77184 2.31101,-5.39616 0.4335,-1.75397 1.72222,-4.11827 2.82494,-5.18255 0.54913,-0.52969 1.44127,-1.53445 1.98242,-2.23226 0.91706,-1.18296 1.17898,-1.28407 3.85236,-1.49123 1.62161,-0.12684 3.04287,-0.43768 3.26976,-0.71829 0.53955,-0.66693 7.24444,-0.82757 10.77678,-0.25687 6.64387,1.07141 7.8,1.19694 9.25086,1.00507 1.76889,-0.23414 6.73248,0.72221 8.0062,1.54295 0.4725,0.30564 2.24683,0.66722 3.94281,0.80607 3.9941,0.32712 4.39848,0.0455 4.4251,-3.08716 0.0334,-3.95337 -0.42322,-8.02871 -0.99082,-8.83934 -0.78606,-1.12216 -0.67332,-2.20173 0.43749,-4.18915 0.5943,-1.06328 0.97316,-2.33599 0.96128,-3.22859 -0.0104,-0.81031 0.28483,-3.36351 0.65724,-5.67317 0.66988,-4.15598 0.84028,-4.50261 2.45381,-4.9907 0.34931,-0.1041 0.81108,-0.94428 1.05647,-1.91879 0.38,-1.5091 0.6589,-1.83916 2.17412,-2.57275 0.95602,-0.46271 1.86827,-1.05679 2.02717,-1.32018 0.15899,-0.26338 1.79229,-1.8089 3.6297,-3.43474 2.1738,-1.9237 3.54742,-2.87675 3.93241,-2.72915 0.32544,0.12359 0.80808,0.0944 1.07251,-0.0713 0.26436,-0.1625 0.83651,-0.31866 1.27117,-0.34694 0.43475,-0.0325 2.03078,-0.37688 3.5468,-0.77616 2.70881,-0.71377 2.79542,-0.71377 5.01089,0.0325 1.23996,0.4084 2.86154,1.11729 3.60352,1.57545 0.74204,0.45814 2.29045,0.94851 3.44096,1.08995 1.15049,0.13979 2.56491,0.59342 3.14308,1.00542 0.57821,0.41166 1.32132,0.74855 1.65132,0.74855 0.33003,0 0.91031,0.32192 1.28957,0.71635 0.39041,0.40581 1.51629,0.82493 2.59504,0.96672 1.04797,0.13654 2.26217,0.57587 2.69816,0.97419 0.43598,0.39865 1.52327,1.09127 2.41617,1.53935 0.89291,0.44808 1.93359,1.14198 2.31272,1.54193 0.37908,0.39997 1.72995,1.02136 3.00196,1.381 3.21596,0.90949 4.91878,1.79005 5.42132,2.80294 0.67266,1.35629 1.76656,2.41181 2.49895,2.41181 0.36845,0 0.76189,0.24062 0.87428,0.53261 0.11254,0.29263 0.82476,0.6399 1.58304,0.77095 0.7583,0.13005 2.02916,0.34761 2.82416,0.48127 1.06686,0.17897 2.12876,0.88606 4.05446,2.69822 1.43497,1.35043 2.85994,2.45502 3.16661,2.45502 0.30662,0 1.37806,0.5206 2.38095,1.15662 1.00284,0.63604 2.26641,1.15729 2.80794,1.15826 1.77235,0 3.70963,0.74495 5.03002,1.9237 0.854,0.76249 1.70772,1.15789 2.49974,1.15789 1.21561,0 3.27522,0.75799 3.28077,1.20736 0.005,0.41913 6.41736,3.37231 9.06116,4.17352 3.65694,1.10851 8.63578,3.70465 11.81724,6.16228 0.56352,0.43507 1.21916,0.79145 1.45699,0.79145 0.79251,0 7.01814,3.43832 8.3621,4.61836 0.72868,0.63992 1.479,1.16345 1.66733,1.16345 0.1882,0 0.83278,0.40711 1.43205,0.90494 0.59925,0.49785 1.52322,1.01259 2.05321,1.14428 0.52997,0.13005 1.86921,0.83827 2.97604,1.57088 1.10686,0.73226 2.37509,1.44666 2.81826,1.58747 1.30023,0.41262 3.33166,1.77997 5.88703,3.96248 1.31321,1.12152 3.10245,2.35942 3.97607,2.75092 0.87365,0.39119 1.7049,0.89974 1.84719,1.13027 0.14228,0.2309 0.96586,0.60873 1.83004,0.84155 0.96995,0.26013 2.23412,1.07663 3.30319,2.1305 0.95252,0.93909 1.9514,1.70746 2.21972,1.70746 0.26825,0 0.70649,0.26339 0.97364,0.5853 0.2673,0.32192 1.02559,0.84253 1.68538,1.15696 0.65979,0.3154 2.0592,1.35172 3.10983,2.30477 1.05059,0.95307 2.22143,1.83202 2.60178,1.95265 0.38038,0.12008 0.6916,0.34109 0.6916,0.49001 0,0.14951 0.86727,0.95797 1.92727,1.79754 1.05998,0.83958 1.92727,1.70452 1.92727,1.9224 0,0.21791 0.81484,0.91501 1.81079,1.54941 0.99593,0.63441 2.35455,1.50031 3.01912,1.92434 2.19551,1.40083 2.72001,1.9146 3.22658,3.16128 0.55717,1.37124 1.91021,2.42773 3.10871,2.42773 0.5016,0 1.29017,0.70334 2.1838,1.94709 0.87777,1.22168 1.77487,2.02742 2.40847,2.16268 0.60694,0.13005 1.67039,1.04412 2.66607,2.29277 0.91104,1.14262 1.89093,2.07748 2.17757,2.07748 0.28681,0 1.44758,1.036 2.57979,2.30188 1.13224,1.2662 2.62505,2.60687 3.31736,2.97983 0.69233,0.37267 1.35389,0.97779 1.4702,1.34393 0.21891,0.68935 2.91814,3.01039 3.50135,3.01106 0.62306,3e-4 3.11981,2.50541 3.40185,3.41294 0.15525,0.49913 1.47884,2.06711 2.94146,3.48386 1.4626,1.41709 2.65934,2.86049 2.65934,3.20809 0,0.34729 0.49911,1.03439 1.10918,1.52669 0.60996,0.49229 1.55437,1.6138 2.09862,2.49207 0.95184,1.53579 2.86142,3.22145 3.64968,3.22145 0.20817,0 1.30225,0.86721 2.4313,1.92726 1.12902,1.05972 2.30282,1.92727 2.60843,1.92727 0.30568,0 1.1962,0.69359 1.9791,1.54163 1.48653,1.61024 3.33858,2.0853 4.13393,1.06002 0.79109,-1.01936 1.64844,-4.58647 1.66199,-6.914 0.0149,-2.57795 0.57045,-5.61989 1.88246,-10.3088 0.44086,-1.57579 0.80151,-3.34729 0.80151,-3.93651 0,-0.58952 0.33248,-1.91556 0.73879,-2.94633 0.40633,-1.03078 0.73881,-2.67842 0.73881,-3.66139 0,-1.00639 0.26663,-2.16756 0.61029,-2.65823 0.33567,-0.47933 0.61031,-1.14983 0.61031,-1.49026 0,-0.58984 1.34252,-4.19272 2.52798,-6.78432 0.30566,-0.6679 0.55565,-1.41934 0.55565,-1.66972 0,-0.8386 2.37795,-5.88489 3.50813,-7.44503 0.6145,-0.84839 1.11728,-1.78293 1.11728,-2.07653 0,-1.17778 2.16246,-3.79211 3.58082,-4.32899 1.4417,-0.54562 7.2268,-1.15238 10.78769,-1.13124 2.20457,0 3.58972,-0.15277 3.97619,-0.47248 0.48486,-0.40222 0.78174,-0.38338 1.62774,0.1041 1.73043,0.99795 3.89604,1.22784 4.70094,0.49946 0.65285,-0.59085 0.88517,-0.52907 3.5916,0.95631 2.23252,1.22523 3.27517,1.57707 4.56337,1.53998 2.32569,-0.0681 3.72249,0.33528 5.5936,1.61187 0.8862,0.60482 1.79537,1.09939 2.02036,1.09939 0.2249,0 0.62736,0.35217 0.89417,0.78266 0.26696,0.43086 1.15355,1.24736 1.97055,1.81478 0.81702,0.56772 1.64301,1.44634 1.83556,1.95262 0.19244,0.50663 0.68679,1.00902 1.0984,1.11665 0.41151,0.10734 1.00197,0.58268 1.31208,1.05614 0.34747,0.53033 1.42638,1.11758 2.81247,1.53089 2.84861,0.84936 3.98326,1.40081 3.98326,1.9354 0,0.23089 0.35306,1.08119 0.78459,1.8863 0.49089,0.91598 1.00498,3.14405 1.37333,5.95318 0.32387,2.46899 0.8532,5.62377 1.1765,7.01026 0.51881,2.22548 1.2699,6.09463 1.93178,9.95048 0.11904,0.69457 0.5441,1.43757 0.94429,1.65186 0.51876,0.27638 0.72761,0.81324 0.72761,1.86581 0,0.92283 0.30793,1.86743 0.82148,2.52039 0.45933,0.58399 0.90578,1.83915 1.01266,2.84652 0.10513,0.99143 0.40591,2.06252 0.66841,2.38055 0.26242,0.31864 0.58187,1.38585 0.70965,2.37337 0.12774,0.98755 0.5652,2.54867 0.97196,3.46922 0.72036,1.63009 1.19771,3.08617 2.57071,7.84079 0.36729,1.27207 0.81895,2.47744 1.00368,2.67873 0.18471,0.20168 0.33595,0.72675 0.33595,1.16701 0,0.4406 0.24063,1.14461 0.53483,1.56441 0.29427,0.4198 0.75684,1.54258 1.02824,2.495 0.27152,0.9521 0.86359,2.165 1.31598,2.69471 0.45233,0.52999 1.23602,2.00432 1.74147,3.27636 0.50549,1.27208 1.46712,3.0969 2.13706,4.05518 0.79903,1.14299 1.40178,2.66802 1.75215,4.43269 0.40689,2.04955 0.83412,3.02276 1.7939,4.08606 0.69299,0.76772 1.25994,1.77671 1.25994,2.24203 0,0.46564 0.43365,1.4148 0.96364,2.1097 0.54839,0.71895 0.96363,1.7777 0.96363,2.45698 0,0.65649 0.17024,1.29871 0.37821,1.42747 0.458,0.28289 2.70538,4.81833 2.70538,5.45956 0,0.66074 1.91142,4.43334 2.70448,5.33765 0.37178,0.42401 0.8055,1.20441 0.96383,1.73445 0.31281,1.04703 2.80236,4.82807 4.51362,6.85518 0.58795,0.69651 1.06894,1.53611 1.06894,1.86581 0,0.32971 0.75259,1.49446 1.67241,2.58835 2.00885,2.389 4.10939,5.44818 4.10939,5.98535 0,0.21467 1.0151,1.74356 2.25579,3.39963 2.20123,2.93822 2.66361,3.69132 4.2143,6.86559 0.41436,0.84771 1.29617,2.05115 1.95973,2.67383 0.66358,0.62273 1.20648,1.43662 1.20648,1.80894 0,0.37231 0.31216,0.90365 0.69391,1.18069 1.11419,0.8087 2.00427,2.32951 2.00427,3.42498 0,0.56157 0.58775,1.78486 1.31633,2.73889 0.72398,0.94818 1.58499,2.31747 1.91339,3.04293 0.32833,0.72512 1.0078,2.01247 1.50994,2.8605 0.50211,0.84804 1.22792,2.37144 1.61299,3.38564 0.38507,1.01388 0.90781,1.96794 1.16177,2.11977 0.64548,0.38631 2.50732,4.22263 2.50732,5.16659 0,0.4289 0.52036,1.55073 1.15636,2.49305 0.636,0.94235 1.15638,2.06256 1.15638,2.48951 0,0.42694 0.45893,1.24214 1.01976,1.8115 0.82493,0.83763 1.03817,1.45157 1.11592,3.21264 0.0675,1.52862 0.34918,2.51973 0.94539,3.32614 0.58753,0.79472 0.87001,1.76988 0.91641,3.16389 0.0494,1.48082 0.26922,2.18287 0.82932,2.64849 0.51983,0.43181 0.78112,1.16247 0.82163,2.29665 0.0327,0.91504 0.3362,1.96923 0.67453,2.34316 0.33835,0.37394 0.61517,0.92055 0.61517,1.21452 0,0.9989 1.2794,4.02558 2.11065,4.99358 1.2562,1.4626 1.74385,2.91057 1.74385,5.17733 0,1.87298 0.15725,2.24886 1.75314,4.18717 1.06351,1.2919 1.84108,2.67157 1.97672,3.50729 0.12307,0.75763 0.46149,1.57509 0.75229,1.81638 0.29072,0.24064 0.52982,0.7212 0.53116,1.06623 0,0.34501 0.26143,1.12408 0.5782,1.7312 0.31669,0.6074 0.5799,1.82158 0.58497,2.69823 0.0149,2.56134 0.64825,4.61478 1.70511,5.52655 0.5411,0.46694 0.98383,1.25839 0.98383,1.75883 0,0.50793 0.5109,1.39951 1.15635,2.01765 1.0258,0.983 1.15637,1.3615 1.15637,3.35379 0,1.23533 0.15825,2.54704 0.35196,2.91514 1.39757,2.65791 2.34621,5.17243 2.34621,6.21948 0,1.50651 0.97965,3.5079 1.71667,3.5079 0.37074,0 0.62285,0.69651 0.80251,2.21669 0.53037,4.48698 1.21869,6.97714 2.27602,8.23391 0.75204,0.89354 0.9666,1.46422 0.76838,2.04366 -0.45987,1.3449 -0.25556,3.30989 0.45719,4.3979 0.42476,0.64806 0.6394,1.61316 0.57861,2.60133 -0.0634,1.03372 0.10436,1.7374 0.49133,2.05865 0.33497,0.2764 0.69937,1.47334 0.8471,2.77921 0.14277,1.26034 0.55214,2.67581 0.91004,3.14567 0.94815,1.2441 1.87914,4.67268 2.16818,7.98483 0.21766,2.4947 0.40906,3.05624 1.39618,4.09905 1.1881,1.25514 1.27876,1.86418 1.02544,6.88611 -0.0425,0.84801 0.13453,2.40916 0.39418,3.46921 0.25949,1.06004 0.4556,2.51258 0.43563,3.22792 -0.02,0.71538 0.40419,2.14317 0.9426,3.17301 0.53842,1.02981 0.9789,2.22772 0.9789,2.66246 0,0.43473 0.27607,1.43532 0.61319,2.22349 0.42131,0.98461 0.65144,2.94017 0.73567,6.25136 0.0672,2.64981 0.26857,7.59332 0.44681,10.98515 0.17798,3.39214 0.29494,7.20799 0.25885,8.48005 -0.0357,1.27206 -0.15002,8.55711 -0.25297,16.18882 -0.13429,9.92508 -0.32605,14.20558 -0.67384,15.03281 -0.26732,0.63605 -0.5133,2.59876 -0.54632,4.36181 -0.0526,2.80392 0.0362,3.27315 0.70771,3.74366 0.64671,0.45296 0.75451,0.92022 0.68295,2.96164 -0.0507,1.45026 0.16224,3.1203 0.53061,4.15825 0.37159,1.04703 0.50663,2.11651 0.34066,2.69822 -0.15126,0.53003 -0.28906,2.15522 -0.30628,3.61164 -0.0292,2.40562 0.0477,2.67808 0.83585,2.97757 1.10858,0.42143 1.09041,0.64058 -0.13328,1.60307 -0.82452,0.64873 -0.95827,0.99699 -0.76097,1.98256 0.1318,0.65781 0.34337,3.71113 0.47042,6.78494 0.16399,3.96382 0.38796,5.76914 0.77073,6.20843 0.46442,0.53264 0.45673,0.68807 -0.0554,1.11305 -1.15081,0.95501 -1.82539,2.96487 -1.54744,4.60992 0.14427,0.85549 0.40015,1.64046 0.56806,1.74419 0.77959,0.48158 -0.33717,5.39291 -1.38008,6.06927 -0.30045,0.19495 -0.38721,2.41111 -0.28679,7.32343 0.1877,9.1772 0.21516,9.47246 1.04885,11.28428 0.39021,0.84806 0.84307,2.69339 1.00636,4.10069 0.16324,1.40702 0.43462,2.7815 0.60293,3.05368 0.41043,0.66397 0.93729,3.23574 1.10655,5.40102 0.0759,0.96965 0.44598,2.35746 0.82268,3.08356 0.73142,1.41059 1.84398,6.20941 1.73612,7.488 -0.1892,2.24266 0.0334,4.47331 0.59945,5.999 0.92612,2.49729 1.38617,4.85054 1.50242,7.6847 0.0564,1.37806 0.23113,3.23151 0.38792,4.11921 0.20766,1.17613 0.0936,2.14613 -0.42067,3.57685 -0.56029,1.5582 -0.61988,2.19068 -0.28874,3.06795 0.23387,0.61977 0.3321,2.29211 0.22365,3.80903 -0.17373,2.42575 -0.1119,2.75513 0.59795,3.19833 0.72895,0.45524 0.74763,0.57914 0.23638,1.56828 -0.73614,1.42329 -0.33268,4.06463 0.81407,5.3292 0.48056,0.53004 0.99516,1.53935 1.14347,2.24236 0.14827,0.70334 0.51354,1.37254 0.81155,1.48701 0.29818,0.11384 0.54184,0.41912 0.54184,0.67763 0,0.2569 0.43365,0.877 0.96364,1.37481 1.09967,1.03305 1.24795,2.51614 0.35069,3.50758 -0.79996,0.88382 -0.40706,2.11782 1.1322,3.55571 1.05401,0.98462 1.11078,1.14394 0.5241,1.47237 -1.21519,0.67991 -0.53,4.58389 0.94293,5.37242 0.49523,0.26664 0.6721,0.64287 0.52209,1.11532 -0.15126,0.47703 0.0612,0.91632 0.63877,1.32085 0.67601,0.47343 0.84422,0.92377 0.76794,2.05568 -0.0537,0.79733 -0.26273,1.61447 -0.46455,1.8164 -0.56613,0.5661 -0.41055,3.78464 0.2234,4.62257 0.31116,0.41168 0.56588,1.05226 0.56588,1.42361 0,0.37167 0.38211,0.943 0.84912,1.2701 0.75633,0.53001 0.85445,0.95924 0.89786,3.92996 0.0491,3.35999 0.30045,3.96413 1.87315,4.50327 0.31021,0.10735 0.305,0.47734 -0.02,1.3566 -0.38442,1.04315 -0.33928,1.34589 0.32757,2.19358 0.42541,0.54077 0.8632,1.71431 0.97287,2.60816 0.10956,0.89358 0.40001,1.79821 0.64513,2.0102 0.24512,0.21142 0.84019,0.89618 1.32222,1.52083 0.75254,0.97451 0.84121,1.41804 0.62692,3.13331 -0.1615,1.29449 -0.10032,2.09016 0.17423,2.26024 0.23313,0.14303 0.42403,0.71762 0.42403,1.27433 0,0.55666 0.33065,1.37056 0.73475,1.80825 0.4041,0.43769 1.0104,1.73512 1.34735,2.88326 0.33694,1.14816 0.89079,2.39521 1.23088,2.77109 0.56682,0.62626 0.56696,0.75636 0,1.56341 -0.86511,1.23498 -0.76957,2.27876 0.34705,3.79242 0.53004,0.7183 0.96364,1.69998 0.96364,2.18125 0,1.03143 1.02544,1.67329 2.67287,1.67329 0.89903,0 1.18166,0.17223 1.18166,0.72383 0,0.398 -0.2702,0.94787 -0.60045,1.22198 -0.76867,0.63767 -1.71226,2.88813 -1.71226,4.08344 0,0.50826 0.43365,1.61122 0.96363,2.45047 0.53002,0.83959 0.96364,1.86681 0.96364,2.28236 0,0.41589 0.1535,0.85064 0.34098,0.96674 0.18772,0.11709 0.43962,0.68968 0.56013,1.27564 0.1206,0.58527 0.35883,1.7585 0.52961,2.60621 0.20542,1.02135 0.59135,1.6655 1.14208,1.9084 1.02344,0.45134 1.29783,1.99783 0.78166,4.40634 -0.20966,0.97876 -0.40099,2.5604 -0.4248,3.51441 -0.0225,0.95407 -0.1897,1.96274 -0.36831,2.24141 -0.17898,0.27963 -0.21068,1.11693 -0.0704,1.86286 0.21391,1.14038 0.52678,1.47661 1.96541,2.11295 0.9411,0.41622 1.71108,0.91698 1.71108,1.1124 0,0.51249 -1.55805,3.4276 -1.96718,3.68058 -0.18995,0.1171 -0.35167,0.68025 -0.35915,1.2506 -0.005,0.57067 -0.26144,1.47106 -0.56457,2.00076 -0.30305,0.53033 -0.55699,1.59071 -0.56453,2.35713 -0.005,0.8412 -0.35453,1.8268 -0.87351,2.48688 -0.6949,0.88317 -0.88283,1.68568 -0.9795,4.18265 -0.0656,1.69933 -0.32931,3.35573 -0.58558,3.68058 -0.76569,0.97128 -1.42958,2.28138 -1.42958,2.8218 0,1.17776 -0.98828,2.58152 -1.81961,2.58443 -0.65483,0 -1.08504,0.48709 -1.83091,2.06386 -0.53616,1.13319 -0.97492,2.19 -0.97492,2.34803 0,0.15924 -0.32688,0.70334 -0.72643,1.21125 -0.39954,0.50789 -0.84432,1.7094 -0.98832,2.66962 -0.28452,1.89866 -1.35118,3.23899 -3.40826,4.2841 -1.61093,0.81844 -6.44054,5.66701 -6.44054,6.46594 0,0.36517 -0.32192,0.61815 -0.78651,0.61815 -0.43262,0 -1.28492,0.36842 -1.89422,0.8191 -1.49349,1.10396 -4.94044,2.32366 -6.44477,2.27975 -0.67305,-0.0325 -1.33368,0.14302 -1.46816,0.35996 -0.13455,0.2179 -0.8327,0.39573 -1.55164,0.39573 -0.84398,0 -1.44118,0.23738 -1.68532,0.67473 -0.29232,0.52155 -0.83279,0.66071 -2.38315,0.61424 -1.48127,-0.0455 -2.43906,0.18222 -3.66613,0.8672 -0.91356,0.51021 -2.26785,0.92739 -3.00953,0.92739 -0.74171,0 -1.44191,0.14952 -1.556,0.33591 -0.37465,0.60611 -2.55677,0.81908 -4.32657,0.4227 -1.47093,-0.3297 -1.95444,-0.27312 -3.15346,0.36161 -1.64191,0.87081 -3.46337,1.2366 -3.76083,0.75536 -0.35783,-0.57879 -1.6384,-0.36226 -2.16252,0.36613 -0.7504,1.0428 -1.75904,1.28247 -3.46524,0.823 -1.12256,-0.3024 -1.67209,-0.29264 -2.06383,0.0325 -0.40229,0.33394 -0.86804,0.33264 -1.89026,0 -0.74609,-0.24712 -1.57661,-0.31219 -1.84558,-0.14627 -0.26893,0.16598 -0.97993,0.25038 -1.57975,0.1887 -0.60045,-0.0616 -1.39317,0.15925 -1.76376,0.49457 -0.76867,0.69586 -0.43173,0.67929 -9.01244,0.44093 l -6.47002,-0.17897 -2.58812,1.29871 c -1.90755,0.95729 -3.34828,1.37156 -5.47902,1.57512 -2.80636,0.26663 -4.80415,0.93096 -5.07242,1.68272 -0.0724,0.20168 -2.32112,0.43639 -4.99773,0.52029 -4.27485,0.13329 -4.99589,0.25362 -5.93014,0.98948 -0.58493,0.46011 -1.55278,0.83667 -2.1508,0.83667 -0.59803,0 -1.68674,0.40678 -2.41935,0.90428 -0.73267,0.49686 -2.17139,1.12897 -3.19713,1.40409 -1.02573,0.27638 -2.26229,0.90917 -2.74784,1.40895 -0.48557,0.49943 -1.13018,0.90817 -1.43234,0.90817 -1.04166,0 -3.12205,-1.22847 -3.48662,-2.05863 -0.46476,-1.05842 -2.21696,-1.28963 -3.48412,-0.45913 -0.62544,0.4097 -1.37244,0.54499 -2.19144,0.39637 -0.85264,-0.156 -1.72171,0.0325 -2.76947,0.56254 -0.83983,0.43344 -2.17388,0.78789 -2.96454,0.78789 -0.79068,0 -1.52642,0.14302 -1.63508,0.31867 -0.20592,0.3333 -3.39217,1.10524 -5.5012,1.33285 -0.67132,0.0714 -1.82172,-0.17547 -2.55651,-0.55343 z m -57.05319,-33.94102 c 0.59681,-0.25687 3.68692,-0.56773 6.86692,-0.69423 l 5.78175,-0.23089 2.57983,-1.44926 c 2.49252,-1.39985 2.61276,-1.42751 3.55275,-0.81131 0.71788,0.47019 1.38398,0.56807 2.54076,0.37265 0.89986,-0.15276 1.76741,-0.10085 2.0363,0.12034 0.25754,0.21142 1.75036,0.37817 3.31707,0.36744 2.30735,0 2.99342,-0.1625 3.61076,-0.7814 0.67075,-0.67049 1.07996,-0.73064 3.41069,-0.50106 2.47018,0.24387 2.73814,0.19195 3.97936,-0.75409 0.98859,-0.75403 1.70836,-0.99044 2.79882,-0.9189 0.80742,0.0521 2.7418,0.0651 4.29866,0.0325 2.45947,-0.0584 2.85665,-0.16599 3.02887,-0.82563 0.28224,-1.07954 1.38151,-1.33382 5.2415,-1.21319 2.21474,0.0681 3.58507,-0.0554 3.94839,-0.35541 0.43843,-0.36388 0.86111,-0.3154 1.99343,0.22115 1.24245,0.58954 1.6994,0.62042 3.37519,0.22765 1.06605,-0.2504 2.7188,-0.63439 3.67277,-0.85389 0.954,-0.22115 3.31867,-0.3837 5.25477,-0.36418 2.14476,0.0325 4.17803,-0.1852 5.20362,-0.52546 2.56716,-0.85521 4.41792,-1.00837 13.93144,-1.15307 7.59334,-0.11709 8.87667,-0.22115 9.50171,-0.78756 0.52465,-0.47505 0.79915,-0.53034 1.00203,-0.20168 0.31607,0.51146 3.11999,0.19818 3.88081,-0.43217 0.25298,-0.21142 1.38912,-0.47703 2.52456,-0.59342 2.31492,-0.23737 5.84791,-1.48503 6.52922,-2.30577 0.29039,-0.35019 1.24009,-0.53977 2.70156,-0.53977 1.54133,0 2.68884,-0.24387 3.63002,-0.77291 0.99199,-0.55702 1.77555,-0.7115 2.80631,-0.55248 0.86585,0.13328 2.0954,-0.0325 3.11659,-0.38337 0.92768,-0.33198 2.12817,-0.60383 2.66782,-0.60383 0.53967,0 1.27195,-0.26341 1.62729,-0.58464 0.62891,-0.56939 1.36331,-0.65068 10.20728,-1.13452 1.69598,-0.0911 4.19026,-0.5245 5.5429,-0.95927 1.4945,-0.48059 3.49348,-0.79079 5.09555,-0.79079 1.97023,0 3.00317,-0.20492 4.08889,-0.81585 2.07733,-1.1667 5.45611,-1.97474 7.15496,-1.71069 0.99926,0.15601 1.84222,0.0325 2.69816,-0.4406 0.79512,-0.42533 1.88458,-0.62499 3.01575,-0.55281 2.2639,0.14328 4.69485,-0.51114 5.93331,-1.60046 1.05581,-0.92869 2.01951,-4.65998 1.40481,-5.43909 -0.18471,-0.23412 -0.45945,-1.11044 -0.61049,-1.94709 -0.15126,-0.83667 -0.60737,-1.94418 -1.01392,-2.46088 -0.59537,-0.75702 -0.73925,-1.56991 -0.73925,-4.17678 0,-1.83299 -0.22414,-3.77456 -0.51686,-4.47693 -0.28419,-0.68218 -0.64098,-2.17927 -0.79257,-3.3271 -0.15152,-1.14753 -0.62272,-2.52785 -1.047,-3.06731 -0.65992,-0.83893 -0.73457,-1.32441 -0.51669,-3.35866 0.16874,-1.5774 0.1115,-2.46639 -0.17073,-2.64069 -0.23389,-0.14302 -0.4253,-0.53978 -0.4253,-0.87827 0,-0.33852 -0.4336,-1.18396 -0.96361,-1.87882 -0.53,-0.6949 -0.96361,-1.69608 -0.96361,-2.22482 0,-0.63048 -0.46594,-1.3452 -1.35415,-2.07748 -1.28575,-1.05973 -1.3628,-1.26069 -1.52572,-3.97875 -0.37232,-6.21103 -1.31779,-9.67538 -3.02776,-11.09471 -0.40226,-0.33366 -0.5069,-0.92416 -0.35898,-2.02679 0.156,-1.16312 -0.005,-1.93086 -0.62669,-3.04197 -0.55967,-0.99598 -0.88419,-2.35353 -0.98353,-4.11465 -0.1897,-3.35962 -0.54969,-4.99491 -1.22327,-5.55388 -0.29494,-0.24386 -0.53623,-1.10036 -0.53623,-1.90092 0,-1.02526 -0.39925,-2.04921 -1.34908,-3.46076 -1.0832,-1.60959 -1.3491,-2.37503 -1.3491,-3.88381 0,-1.19956 -0.27837,-2.33569 -0.76948,-3.14113 -0.42316,-0.69422 -0.7701,-1.80239 -0.77092,-2.46283 0,-0.6604 -0.3483,-1.64176 -0.77228,-2.18088 -0.42401,-0.53913 -0.77646,-1.21287 -0.78317,-1.4974 -0.005,-0.28289 -0.26698,-0.85422 -0.57817,-1.26555 -0.31116,-0.41167 -0.56593,-1.27564 -0.56593,-1.91981 0,-0.65489 -0.57499,-2.10935 -1.3042,-3.29916 -0.71729,-1.16993 -1.43042,-2.73463 -1.5847,-3.4767 -0.15426,-0.74168 -0.53524,-1.63783 -0.84653,-1.99131 -0.45687,-0.51863 -0.47682,-0.809 -0.10331,-1.50682 0.60038,-1.12184 0.25686,-4.00932 -0.73595,-6.18829 -0.48875,-1.07271 -0.81389,-2.7483 -0.89546,-4.61476 -0.1076,-2.46023 -0.30142,-3.18047 -1.20763,-4.4883 -1.46382,-2.11228 -2.11914,-4.83557 -1.69294,-7.03566 0.49196,-2.53922 0.36908,-4.619 -0.33659,-5.69628 -0.40593,-0.61945 -0.54062,-1.35237 -0.38833,-2.11393 0.12827,-0.64089 0.0903,-1.35755 -0.0843,-1.59201 -0.46103,-0.61977 -1.13509,-3.07122 -1.81297,-6.59409 -0.38482,-1.99911 -0.83239,-3.25068 -1.273,-3.55927 -0.60138,-0.4211 -0.6457,-0.85975 -0.38616,-3.8201 0.34421,-3.92606 -0.0859,-6.32773 -1.45432,-8.12204 -0.92357,-1.2109 -0.94101,-1.34033 -0.48097,-3.56772 0.41864,-2.02679 0.38784,-2.65598 -0.25003,-5.11196 -0.40017,-1.54032 -0.69181,-3.27671 -0.64808,-3.85844 0.0439,-0.58206 -0.19494,-1.70942 -0.52992,-2.50543 -0.41562,-0.9872 -0.53115,-1.97767 -0.36338,-3.11511 0.13779,-0.9355 0.0377,-2.48036 -0.22839,-3.51798 -0.43585,-1.70097 -0.4047,-1.96306 0.38485,-3.24062 0.67956,-1.0994 0.85229,-1.93508 0.82642,-3.99825 -0.0704,-5.65112 0.26826,-11.5539 0.75409,-13.12574 0.43816,-1.41838 0.41885,-2.12336 -0.13629,-4.97702 -0.5503,-2.82865 -0.5677,-3.41589 -0.11631,-3.9368 0.29167,-0.33658 0.64406,-1.36151 0.78312,-2.27749 0.13928,-0.91599 0.53526,-2.09603 0.88037,-2.6228 0.71689,-1.0942 1.05962,-5.83255 0.52384,-7.24182 -0.38167,-1.00379 0.15052,-2.91677 1.23998,-4.45579 0.4409,-0.62299 0.67875,-1.69086 0.68677,-3.08354 0.005,-1.27792 0.24336,-2.43616 0.5894,-2.894 0.45742,-0.60515 0.52638,-1.44245 0.33242,-4.03339 -0.13455,-1.79818 -0.4038,-3.68772 -0.59824,-4.1992 -0.28257,-0.74335 -0.1555,-1.18948 0.63463,-2.22515 0.5435,-0.71275 1.32799,-1.47754 1.74336,-1.69997 0.88108,-0.4715 1.05474,-2.99154 0.29069,-4.21517 -0.39972,-0.64024 -0.31281,-0.86395 0.62127,-1.59851 0.96206,-0.75664 1.0648,-1.04345 0.89949,-2.50996 -0.14852,-1.31855 0.005,-1.93735 0.75436,-3.04032 1.08494,-1.59691 0.94526,-3.39605 -0.31607,-4.07109 -0.66484,-0.35577 -0.72581,-0.66823 -0.50658,-2.59843 0.13702,-1.20668 0.52169,-2.50184 0.85489,-2.87775 0.33315,-0.37588 0.57862,-1.24309 0.5454,-1.92727 -0.19969,-4.11693 0.0548,-9.60772 0.52984,-11.43095 0.63619,-2.44297 0.72957,-6.03869 0.16599,-6.38727 -0.51545,-0.31865 -0.48726,-4.2431 0.0439,-6.15736 0.82916,-2.98634 0.35831,-23.39487 -0.61824,-26.7987 -0.33455,-1.16607 -0.76291,-3.24747 -0.9518,-4.62552 -0.18895,-1.37806 -0.52999,-3.11121 -0.75791,-3.85193 -0.2279,-0.74074 -0.41432,-2.45015 -0.41432,-3.79895 0,-2.06156 -0.15525,-2.63711 -0.97565,-3.61197 -0.62783,-0.74593 -0.89311,-1.41969 -0.74395,-1.88955 0.29134,-0.91828 -0.5526,-4.87035 -1.28648,-6.02406 -0.30336,-0.47703 -0.64523,-2.03133 -0.75945,-3.45426 -0.17447,-2.17406 -0.42885,-2.89497 -1.59374,-4.51625 -1.26637,-1.76275 -1.39832,-2.19584 -1.52721,-5.01541 -0.12983,-2.83708 -0.24637,-3.21426 -1.44544,-4.67785 -0.71743,-0.87535 -1.30439,-1.991 -1.30439,-2.47907 0,-0.48841 -0.46517,-1.49773 -1.03379,-2.24303 -0.85157,-1.11661 -1.0159,-1.69346 -0.93212,-3.27281 0.118,-2.22478 -0.69273,-8.37859 -1.17479,-8.91609 -0.18047,-0.20168 -0.32834,-0.90593 -0.32834,-1.56567 0,-0.6601 -0.37009,-1.96566 -0.82245,-2.90213 -0.45235,-0.93617 -1.01606,-2.48626 -1.25271,-3.44482 -0.28095,-1.13811 -0.71226,-1.86679 -1.24259,-2.09995 -0.69231,-0.30566 -0.78481,-0.60058 -0.62631,-2.00694 0.15375,-1.36473 0.0149,-1.85118 -0.79088,-2.81107 -0.53731,-0.63864 -1.26254,-2.02091 -1.61161,-3.07187 -0.56781,-1.70938 -1.46268,-3.58401 -3.42379,-7.17123 -0.34768,-0.63602 -0.63321,-1.72014 -0.6345,-2.40918 0,-0.77813 -0.32688,-1.57707 -0.8592,-2.10938 -0.53556,-0.53554 -0.87215,-1.36665 -0.89764,-2.21634 -0.0616,-2.05896 -0.81963,-6.36253 -1.26487,-7.18424 -0.73967,-1.36507 -1.91647,-4.19402 -2.38727,-5.73889 -0.25852,-0.84804 -0.59552,-1.80209 -0.7491,-2.12011 -0.15351,-0.31867 -0.50046,-1.53219 -0.77082,-2.69822 -0.27019,-1.16607 -0.64016,-2.46676 -0.82183,-2.89076 -0.95714,-2.23421 -1.22529,-3.16744 -1.14385,-3.98102 0.0871,-0.8692 -0.34141,-1.6421 -3.49826,-6.31117 -1.1095,-1.6408 -1.48584,-2.58735 -1.48584,-3.73747 0,-1.06459 -0.41646,-2.25048 -1.34908,-3.84186 -0.742,-1.26588 -1.34908,-2.48363 -1.34908,-2.70571 0,-0.22115 -0.7538,-1.25288 -1.67518,-2.29049 -1.0483,-1.18036 -1.8387,-2.53536 -2.11199,-3.62075 -0.24038,-0.95405 -0.70056,-1.9536 -1.02295,-2.22123 -0.32257,-0.26663 -0.58622,-0.65033 -0.58622,-0.85031 0,-0.20169 -0.44386,-0.94591 -0.98635,-1.65737 -0.54247,-0.71115 -1.14867,-1.87038 -1.34701,-2.576 -0.19819,-0.70561 -1.32162,-2.32364 -2.49617,-3.59568 -1.17453,-1.27173 -2.66573,-3.43996 -3.31381,-4.81801 -1.40843,-2.99482 -2.36402,-4.08118 -5.93246,-6.74432 -1.48768,-1.11045 -2.95207,-2.31682 -3.2541,-2.68068 -0.3021,-0.36387 -1.29638,-1.17582 -2.20962,-1.80405 -1.04201,-0.717 -1.66034,-1.43559 -1.66034,-1.92984 0,-0.43282 -0.78057,-1.70065 -1.73454,-2.81729 -0.95403,-1.11695 -1.73452,-2.20428 -1.73452,-2.41632 0,-0.63341 -3.10428,-3.96376 -3.69458,-3.96376 -0.36458,0 -0.54542,-0.43966 -0.54542,-1.32639 0,-1.49091 -0.30662,-1.779 -2.50466,-2.35192 -1.41864,-0.37005 -1.55806,-0.52483 -1.73529,-1.9273 -0.17373,-1.37316 -0.38482,-1.62354 -2.11998,-2.51224 -1.7101,-0.876 -1.94899,-1.15238 -2.12003,-2.45274 -0.15874,-1.20734 -0.42661,-1.57707 -1.52002,-2.09667 -0.90523,-0.4302 -1.42229,-0.9986 -1.62584,-1.78713 -0.16424,-0.63601 -0.8181,-1.72369 -1.45304,-2.4173 -0.635,-0.69358 -1.43404,-1.90775 -1.77563,-2.69823 -0.34158,-0.79047 -1.1285,-2.41308 -1.7487,-3.60611 -0.62019,-1.19273 -1.12759,-2.39584 -1.12759,-2.67322 0,-0.27638 -0.36429,-0.89225 -0.8095,-1.36603 -0.46138,-0.49132 -0.85803,-1.49643 -0.92237,-2.33763 -0.0621,-0.81162 -0.30501,-2.08204 -0.53961,-2.82245 -0.23489,-0.74074 -0.42668,-1.82256 -0.42668,-2.40429 0,-0.80837 -0.35075,-1.27922 -1.48843,-1.99717 -1.2896,-0.81422 -1.51457,-1.17159 -1.684,-2.67482 -0.11085,-0.98397 -0.71787,-2.58348 -1.40247,-3.69621 -1.2556,-2.04073 -1.51067,-3.25853 -0.77737,-3.71178 0.27768,-0.17223 0.33432,-0.82692 0.16025,-1.85378 -0.14802,-0.8734 -0.32127,-2.28206 -0.38487,-3.12978 -0.49523,-6.59017 -0.97288,-8.72555 -2.57148,-11.4963 -0.87772,-1.5208 -1.8561,-3.06634 -2.17425,-3.43376 -0.43452,-0.50207 -0.52622,-1.24445 -0.36845,-2.98441 0.23015,-2.53958 -0.43716,-5.44168 -1.52902,-6.64838 -0.35866,-0.39605 -1.23793,-0.99828 -1.954,-1.33807 -1.91006,-0.90657 -2.46726,-2.05701 -3.00879,-6.21332 -0.26762,-2.05309 -0.7594,-4.25318 -1.09304,-4.88923 -0.33371,-0.63602 -0.60777,-2.03032 -0.60904,-3.0985 -0.005,-1.17711 -0.30598,-2.53795 -0.77329,-3.45426 -0.42401,-0.83179 -0.77091,-1.99196 -0.77091,-2.57892 0,-1.50354 -3.71516,-5.1386 -5.61638,-5.49534 -1.75355,-0.32873 -3.97835,0.75211 -4.79084,2.32757 -0.31802,0.61682 -1.11906,1.98841 -1.7802,3.04845 -1.80213,2.88944 -3.43426,6.51409 -4.7732,10.60016 -0.65999,2.01375 -1.52186,4.20995 -1.91532,4.87977 -0.39343,0.66986 -1.5234,3.07413 -2.51104,5.34219 -1.37757,3.16356 -1.89949,4.94416 -2.24152,7.64728 -0.72451,5.72526 -0.50314,16.13939 0.51318,24.14506 0.2289,1.80174 0.31411,3.97974 0.18946,4.83946 -0.20293,1.40181 -0.10137,1.67464 0.97876,2.63745 1.01445,0.90365 1.16928,1.26588 0.97898,2.29082 -0.15975,0.85974 0,1.55754 0.53936,2.37404 0.42096,0.63569 0.76653,1.6307 0.76799,2.21081 0.005,1.09355 2.11374,5.40689 3.63428,7.42521 0.47912,0.63602 0.97443,1.80664 1.10071,2.60101 0.39253,2.46933 3.15673,7.46357 5.27013,9.52224 1.52512,1.48567 1.94641,2.15877 1.94641,3.11022 0,0.91046 0.34641,1.51918 1.38595,2.43422 0.76219,0.6708 1.72336,1.87717 2.13571,2.68068 0.41242,0.80348 1.18014,1.62451 1.70606,1.82451 0.6325,0.24062 1.03674,0.76608 1.19403,1.55235 0.13079,0.65392 0.63082,1.44635 1.11129,1.7611 0.48044,0.31543 0.97971,0.99565 1.1095,1.51267 0.12983,0.51704 1.27375,2.00077 2.54213,3.29723 1.2684,1.29608 2.30616,2.51776 2.30616,2.71451 0,0.61975 1.23177,2.38671 2.91771,4.18552 0.89417,0.95406 1.74269,2.12499 1.88556,2.60234 0.14278,0.47702 0.59496,1.04704 1.00456,1.26621 0.54068,0.28939 0.74486,0.81064 0.74486,1.90157 0,1.94355 0.39153,2.92457 2.01634,5.05342 1.02355,1.34067 1.3898,2.26381 1.59669,4.02463 0.23289,1.97992 1.09006,4.4083 3.60351,10.20635 1.6927,3.90463 3.6168,7.33774 5.28048,9.42174 0.68655,0.86007 1.54735,2.25733 1.91292,3.10536 0.36555,0.84804 0.91538,2.00205 1.22185,2.56494 0.30662,0.56254 0.5572,1.2226 0.5572,1.46647 0,0.24386 0.73499,1.51821 1.6333,2.83156 2.30375,3.36807 4.0566,6.30403 4.36429,7.30977 0.14476,0.4731 0.84909,1.68405 1.56543,2.69174 0.71632,1.00736 1.3024,1.978 1.3024,2.15653 0,0.17896 0.34687,0.63862 0.77088,1.02231 0.50264,0.45491 0.77089,1.18751 0.77089,2.10449 0,0.87859 0.40679,2.04984 1.08382,3.12032 0.96865,1.53153 1.5425,2.67383 3.37775,6.72446 0.5732,1.2649 1.45382,3.67473 2.31394,6.33201 0.3037,0.93842 0.79595,1.97927 1.0936,2.31258 0.57025,0.63864 2.92358,5.59517 2.92358,6.15771 0,0.18195 0.23937,0.52709 0.53174,0.76998 0.29233,0.24387 0.63544,0.95992 0.7623,1.59399 0.12684,0.63405 0.9282,2.07716 1.78096,3.20645 0.85274,1.12933 1.55041,2.3308 1.55041,2.6703 0,0.33916 0.17373,0.72383 0.38547,0.85488 0.21191,0.13005 0.38545,0.50336 0.38545,0.82721 0,0.32518 0.51561,1.31075 1.14585,2.19358 1.04228,1.45968 3.0941,6.85097 3.0941,8.12985 0,0.2894 0.52037,1.57542 1.15635,2.85726 0.63599,1.2818 1.15638,2.4742 1.15638,2.6498 0,0.17547 0.49457,0.92247 1.09905,1.65997 0.60446,0.73715 1.22727,2.03426 1.38401,2.88228 0.32906,1.77997 1.30515,4.03567 2.59232,5.99122 0.9857,1.49741 1.18977,1.90061 4.37974,8.65597 3.08589,6.53489 4.14709,9.465 5.20223,14.36364 0.19469,0.90397 0.57035,2.03133 0.8347,2.5054 0.26439,0.47381 0.42559,1.69967 0.35834,2.72396 -0.0973,1.47788 0.0472,2.04268 0.69828,2.73562 1.03627,1.10332 1.70848,5.02743 1.36733,7.98256 -0.17124,1.48569 -0.10839,2.26155 0.19917,2.45174 0.24737,0.15276 0.76431,0.99633 1.14821,1.87395 0.38388,0.87765 1.32354,2.26773 2.08806,3.08941 0.76456,0.82171 1.39008,1.71138 1.39008,1.97704 0,1.20865 2.09785,4.9071 3.30595,5.82865 0.94266,0.71892 1.31949,1.31138 1.31949,2.07455 0,2.2752 -2.10209,3.43864 -7.34241,4.06364 -1.87036,0.22439 -2.31156,0.13654 -3.51529,-0.67896 -2.50283,-1.69835 -3.88816,-3.6227 -4.08527,-5.67417 -0.16774,-1.74715 -0.35386,-2.01605 -3.11547,-4.5075 -1.61531,-1.45738 -3.72057,-3.47376 -4.67843,-4.48082 -0.95778,-1.0067 -1.95333,-1.83067 -2.2123,-1.83067 -0.25884,0 -0.72857,-0.49849 -1.04353,-1.10753 -0.31508,-0.60904 -0.93907,-1.20311 -1.38692,-1.32018 -0.73267,-0.19194 -0.78755,-0.39118 -0.54756,-1.99134 0.19868,-1.32473 0.12008,-1.94676 -0.30859,-2.43811 -0.3164,-0.36254 -0.69161,-1.30781 -0.83361,-2.10059 -0.24511,-1.36862 -1.87805,-3.71049 -4.33929,-6.22338 -0.59903,-0.61164 -1.0336,-1.2987 -0.96569,-1.52699 0.0678,-0.22765 -0.16698,-1.33869 -0.52228,-2.46801 -0.48957,-1.55657 -1.06276,-2.3994 -2.36924,-3.48384 -0.94788,-0.78692 -1.97204,-1.95136 -2.27582,-2.58736 -0.30371,-0.63602 -1.05004,-2.10124 -1.65838,-3.25625 -0.91811,-1.74353 -1.04164,-2.28496 -0.72701,-3.1876 0.29037,-0.83276 0.2224,-1.41775 -0.29071,-2.49859 -0.36828,-0.77618 -0.71692,-2.28853 -0.77481,-3.36094 -0.0873,-1.61968 -0.29916,-2.11393 -1.24976,-2.91774 -1.4786,-1.25027 -2.66628,-3.76022 -3.17645,-6.71275 -0.85503,-4.94841 -1.29349,-6.61524 -1.93635,-7.36052 -0.36576,-0.42367 -0.78052,-1.20442 -0.9217,-1.73443 -0.14127,-0.53002 -0.58436,-2.09116 -0.98485,-3.46889 -0.40055,-1.37806 -0.83683,-3.1756 -0.96952,-3.99405 -0.13404,-0.82754 -0.67459,-1.92172 -1.21669,-2.46379 -0.72695,-0.72708 -0.9224,-1.23987 -0.76759,-2.01408 0.11436,-0.57132 -0.14228,-2.32432 -0.57068,-3.89618 -0.42807,-1.57153 -0.87696,-3.291 -0.99747,-3.82105 -0.12035,-0.53001 -0.45833,-1.3104 -0.75075,-1.73443 -0.29232,-0.42405 -0.70404,-1.40864 -0.91478,-2.18838 -0.24312,-0.89909 -1.20086,-2.23813 -2.61908,-3.66172 -1.22974,-1.23435 -2.45815,-2.85173 -2.72978,-3.59342 -0.27182,-0.74202 -0.63078,-1.69611 -0.79801,-2.12011 -0.16725,-0.42401 -0.50761,-1.55136 -0.75636,-2.50543 -0.66519,-2.55158 -1.50845,-4.22133 -3.11453,-6.16712 -0.78738,-0.95404 -1.54466,-2.21601 -1.6828,-2.80458 -0.13829,-0.58819 -0.85388,-1.73669 -1.59051,-2.5519 -0.73663,-0.81552 -1.33932,-1.82584 -1.33932,-2.24562 0,-1.24734 -0.81707,-3.31606 -1.71698,-4.34715 -0.46262,-0.52973 -1.4176,-2.26449 -2.12208,-3.85454 -0.70452,-1.58975 -1.57118,-3.23771 -1.92594,-3.66174 -0.35475,-0.424 -0.9693,-1.52048 -1.3657,-2.43713 -0.39634,-0.91631 -1.08493,-1.9572 -1.53013,-2.31259 -1.81194,-1.4473 -3.95249,-5.02446 -4.22195,-7.05579 -0.26665,-2.00889 -1.65182,-4.47531 -3.27199,-5.82506 -0.48237,-0.40191 -0.80511,-1.12572 -0.80511,-1.80598 0,-1.80144 -0.54422,-2.77206 -2.85111,-5.08565 -1.4008,-1.4047 -2.16175,-2.48848 -2.16537,-3.08354 -0.005,-0.97583 -1.00567,-4.11922 -1.51681,-4.76923 -0.16824,-0.21467 -0.53588,-1.30587 -0.81737,-2.42707 -0.40758,-1.62321 -1.00579,-2.5659 -2.93562,-4.62551 -1.33313,-1.42259 -2.42601,-2.71159 -2.42875,-2.86407 -0.0104,-0.62431 -4.32967,-3.00065 -5.50509,-3.02893 -1.04877,-0.0325 -1.58475,-0.43606 -3.39733,-2.6033 -1.86624,-2.23131 -2.18559,-2.85466 -2.40396,-4.69186 -0.13853,-1.16507 -0.59339,-3.04908 -1.01091,-4.18652 -0.41752,-1.13777 -0.87227,-2.87222 -1.01056,-3.85456 -0.30729,-2.18413 -1.03706,-3.40839 -2.39606,-4.02036 -1.30806,-0.58887 -2.97067,-2.36268 -3.95816,-4.2223 -0.42208,-0.79505 -0.94167,-1.44538 -1.15458,-1.44538 -0.21291,0 -0.55983,-0.39053 -0.77082,-0.86756 -0.21117,-0.4767 -0.88693,-1.64761 -1.50201,-2.60165 -0.61507,-0.95405 -1.13193,-2.21147 -1.14859,-2.79451 -0.0149,-0.58299 -0.3738,-1.36375 -0.79362,-1.73443 -3.12293,-2.76003 -5.91113,-5.80457 -6.90234,-7.53707 -0.78784,-1.37676 -1.80456,-2.45795 -3.10394,-3.2998 -1.52217,-0.98622 -2.01824,-1.57121 -2.33726,-2.75579 -0.22265,-0.82725 -0.57615,-1.60959 -0.7854,-1.739 -0.66292,-0.40971 -1.76614,-2.99414 -2.26281,-5.30089 -0.32705,-1.51919 -0.74901,-2.40396 -1.32711,-2.78279 -1.49753,-0.98104 -4.69511,-4.24572 -5.61269,-5.73075 -0.4897,-0.79213 -1.30442,-1.71168 -1.81039,-2.04336 -0.57727,-0.37821 -0.92408,-0.98142 -0.93077,-1.61838 -0.005,-0.55865 -0.52627,-1.69706 -1.15635,-2.52983 -0.84245,-1.11337 -1.14564,-1.93669 -1.14564,-3.11054 0,-1.274 -0.27867,-1.92208 -1.37911,-3.20781 -1.15044,-1.34388 -1.61381,-1.61215 -2.79453,-1.6177 -1.95294,0 -4.90862,-2.7288 -5.29851,-4.87555 -0.53874,-2.96651 -3.39852,-6.96346 -5.445,-7.60959 -0.46644,-0.14627 -1.19342,-0.82268 -1.61545,-1.50097 -1.06546,-1.71167 -4.09206,-4.53737 -6.46773,-6.03836 -1.20053,-0.75831 -2.08539,-1.62682 -2.22509,-2.18319 -0.18171,-0.72512 -1.24696,-1.41807 -4.94497,-3.21786 -4.14,-2.01505 -5.12392,-2.69336 -8.09236,-5.57727 -1.85862,-1.80565 -3.90412,-3.55441 -4.54559,-3.88608 -0.64146,-0.33168 -1.32533,-1.02135 -1.51968,-1.53251 -0.19444,-0.51117 -1.01294,-1.26588 -1.81906,-1.67722 -1.289,-0.65781 -5.50354,-4.97604 -5.50354,-5.63906 0,-0.75669 -3.77234,-4.47789 -4.92487,-4.85833 -0.72733,-0.24062 -1.69465,-0.86983 -2.14964,-1.39953 -0.45499,-0.52971 -1.72498,-1.54065 -2.82226,-2.24659 -1.09723,-0.70561 -2.36916,-1.78938 -2.82645,-2.40788 -0.45727,-0.61845 -1.72601,-1.79947 -2.81944,-2.62474 -1.09337,-0.82527 -2.60091,-2.10741 -3.35002,-2.84946 -9.2951,-9.20646 -12.31999,-11.83578 -15.96522,-13.87621 -2.08284,-1.16603 -4.05569,-2.55385 -4.38409,-3.08354 -0.75148,-1.2129 -3.21912,-3.85456 -3.60049,-3.85456 -0.15725,0 -1.30954,-1.04573 -2.56021,-2.32397 -2.16981,-2.21731 -2.99712,-2.78279 -7.06399,-4.8281 -0.97885,-0.49229 -1.87055,-1.24247 -1.9816,-1.6668 -0.27636,-1.05746 -2.65777,-1.97377 -5.12838,-1.97377 -1.12762,0 -2.14559,-0.15625 -2.26224,-0.34336 -0.11683,-0.1887 -1.36894,-0.8061 -2.78294,-1.37221 -1.41397,-0.56581 -3.52522,-1.71268 -4.69162,-2.54772 -1.16636,-0.83535 -2.53186,-1.51853 -3.03437,-1.51853 -1.15421,0 -4.31922,-1.58877 -5.27734,-2.64913 -0.4001,-0.44255 -1.35212,-0.92217 -2.11557,-1.06527 -0.76347,-0.14302 -2.17068,-0.73195 -3.12707,-1.30815 -0.95642,-0.57618 -2.17256,-1.15497 -2.70258,-1.28634 -0.52999,-0.13329 -2.09106,-1.19273 -3.46906,-2.35844 -1.37801,-1.16542 -2.7656,-2.23585 -3.08362,-2.37861 -0.31802,-0.14302 -1.31146,-0.92444 -2.20774,-1.73768 -0.89625,-0.81292 -2.00635,-1.47822 -2.46688,-1.47822 -0.46049,0 -2.04068,-0.69392 -3.51152,-1.5416 -1.47083,-0.84806 -2.77271,-1.54195 -2.89307,-1.54195 -0.12034,0 -0.81661,-0.45591 -1.54716,-1.01326 -0.73058,-0.55731 -2.11572,-1.24993 -3.078,-1.53965 -0.96234,-0.28942 -1.94285,-0.68677 -2.1789,-0.88284 -0.84062,-0.69747 -8.02958,-1.31495 -11.88377,-1.02003 -3.27295,0.25038 -3.94411,0.42756 -5.28506,1.39919 l -1.53602,1.11237 0.13304,3.57395 c 0.0968,2.6036 0.35207,4.04476 0.94027,5.30835 0.444,0.95404 0.81115,2.27422 0.81579,2.93332 0.005,0.65947 0.45443,1.85609 0.99947,2.65957 0.67642,0.99663 0.91839,1.7494 0.7622,2.37177 -0.37983,1.51334 1.44134,4.70616 4.33186,7.59396 1.45651,1.45514 2.93814,2.80816 3.29246,3.00653 0.35432,0.19819 0.64424,0.53877 0.64424,0.75697 0,0.21792 1.36882,1.7803 3.04181,3.47117 2.18973,2.21341 3.56646,3.2699 4.91454,3.77163 1.34341,0.49976 2.05095,1.04151 2.50348,1.91619 0.34695,0.67052 1.38769,1.75561 2.31274,2.41113 0.92502,0.65586 2.54913,2.02872 3.60917,3.05107 1.16536,1.12376 3.11778,2.41372 4.93897,3.26274 1.65647,0.77193 3.10885,1.65672 3.22752,1.96596 0.11852,0.30888 0.88818,0.90559 1.71006,1.32473 0.82185,0.41912 1.49427,0.92314 1.49427,1.11921 0,0.19495 0.91064,0.96219 2.02361,1.70127 1.11298,0.73944 2.33301,1.86941 2.71111,2.5113 0.37816,0.64155 1.54734,1.65022 2.59816,2.24071 1.37182,0.7713 2.06754,1.46621 2.46712,2.46479 0.30598,0.76509 1.10291,1.85054 1.77075,2.41275 0.6679,0.56189 1.7637,1.67102 2.43515,2.46442 1.74993,2.06841 12.15305,11.62152 13.1143,12.04294 0.24187,0.10709 0.96,0.67961 1.59596,1.27496 2.49093,2.33113 6.45285,5.66314 6.73376,5.66314 0.16299,0 1.22941,1.15239 2.37022,2.56101 3.06249,3.78138 3.68866,4.37709 4.5994,4.37709 0.5289,0 2.02492,1.22003 4.16115,3.39282 1.83446,1.86613 4.28935,4.25447 5.45534,5.30737 1.16601,1.05324 2.74657,2.60559 3.51242,3.44906 0.76585,0.84415 2.65452,2.575 4.19715,3.84707 1.54258,1.27204 4.73196,4.23238 7.08751,6.57877 2.35555,2.34611 4.92835,4.7478 5.71738,5.33733 0.78896,0.58922 2.13433,2.13863 2.98971,3.4432 0.8554,1.30424 2.15703,3.15218 2.8925,4.10621 0.73546,0.95404 1.34141,1.93508 1.34653,2.18026 0.0149,0.7004 2.21102,5.42446 2.59466,5.58087 0.18945,0.0781 1.02718,1.35467 1.86173,2.83873 0.83448,1.48406 1.69305,2.98992 1.90784,3.34631 0.21491,0.35668 1.11659,1.91783 2.00397,3.4692 0.88736,1.55136 2.57485,4.03501 3.74995,5.51907 1.17508,1.48374 2.61126,3.47865 3.19152,4.43269 1.25568,2.06451 4.30734,6.27965 4.74373,6.55279 0.36283,0.22765 2.31222,4.4031 2.31222,4.95361 0,0.20817 0.65042,0.89583 1.44542,1.52927 1.02024,0.81292 1.71839,1.86515 2.37334,3.57683 0.55467,1.44959 1.44817,2.90148 2.22135,3.61002 1.27184,1.16507 2.04615,2.3539 3.52366,5.40983 0.80013,1.6551 3.18867,4.04736 4.04101,4.04736 0.28614,0 0.99864,0.7313 1.58371,1.62486 0.78004,1.19108 1.00498,1.91816 0.84353,2.72522 -0.13877,0.6949 0.0455,1.62359 0.50005,2.51909 0.39613,0.77976 1.03779,2.08563 1.42594,2.90115 0.58453,1.22849 1.14911,1.68142 3.28724,2.63774 2.67806,1.19727 3.02154,1.64731 3.0338,3.97355 0.005,0.63605 0.50828,2.11068 1.12208,3.27639 0.61378,1.16607 1.3228,2.90051 1.57554,3.85456 0.65874,2.48656 2.50336,5.54672 4.12966,6.85128 1.19072,0.95533 1.39287,1.34035 1.34687,2.56459 -0.0532,1.40539 1.42331,4.90256 3.03158,7.18199 0.38305,0.54302 0.80748,1.42976 0.94317,1.97053 0.39745,1.58323 2.43107,3.78787 3.4944,3.78787 1.03876,0 1.16601,0.41229 0.47085,1.52537 -0.38027,0.60904 -0.3425,0.87924 0.20768,1.4873 0.6201,0.68513 0.62671,0.87473 0.0849,2.43063 -0.32322,0.92833 -0.59212,2.81496 -0.59755,4.19302 -0.02,4.79266 -0.22315,5.29862 -2.57068,6.37265 -1.64744,0.75341 -2.70679,0.95079 -5.10395,0.95079 -2.13812,0 -3.15772,0.15925 -3.47774,0.54562 -0.60343,0.72709 -2.51559,0.18521 -3.85261,-1.09355 -1.07621,-1.02883 -3.52977,-1.74028 -6.05268,-1.75524 -0.93392,0 -1.78913,-0.2471 -2.07083,-0.58757 -0.92595,-1.11565 -3.97874,-0.4624 -4.34269,0.92931 -0.11436,0.43769 -0.61519,0.95211 -1.11268,1.14298 -0.49754,0.19195 -1.85857,0.99273 -3.02454,1.78159 l -2.12001,1.43432 -0.11735,-0.95859 c -0.0645,-0.5271 -0.53985,-1.35532 -1.05624,-1.84045 -0.7785,-0.73131 -1.09228,-0.81195 -1.83803,-0.47216 -0.74021,0.33719 -0.98014,0.27966 -1.35616,-0.32192 -0.25135,-0.40221 -0.78322,-0.73162 -1.1821,-0.73162 -0.47952,0 -0.99585,-0.57552 -1.52422,-1.69965 -0.60392,-1.28505 -1.12064,-1.80631 -2.11584,-2.13474 -0.72421,-0.23738 -1.6248,-0.77485 -2.00128,-1.19075 -0.3765,-0.41622 -0.87447,-0.75731 -1.10661,-0.75828 -0.78316,0 -2.54629,-1.72209 -3.41433,-3.32776 -1.06184,-1.96466 -4.73703,-5.15032 -5.94128,-5.15032 -0.63341,0 -1.03526,-0.35639 -1.4129,-1.25288 -0.29037,-0.68904 -1.20327,-1.94873 -2.02881,-2.79937 -0.82558,-0.85064 -1.81307,-2.0284 -2.19442,-2.61695 -0.38141,-0.58887 -1.29204,-1.35597 -2.02367,-1.70484 -0.7316,-0.34893 -1.3302,-0.76645 -1.3302,-0.92771 0,-0.16251 -0.954,-0.92674 -2.12,-1.70065 -1.16598,-0.77389 -2.11995,-1.62906 -2.11995,-1.90061 0,-0.27312 -0.24973,-0.70105 -0.55533,-0.95436 -0.30531,-0.25361 -0.60894,-0.92508 -0.67452,-1.49249 -0.0966,-0.83536 -0.39464,-1.10007 -1.56468,-1.38914 -1.2335,-0.30566 -1.44548,-0.51247 -1.44548,-1.41739 0,-1.31401 -1.58534,-2.65827 -3.13559,-2.65827 -0.88785,0 -1.10465,-0.16923 -1.10583,-0.8672 -10e-4,-1.24478 -1.33537,-3.25561 -2.37798,-3.58661 -1.15393,-0.36615 -4.55869,-3.99079 -4.55869,-4.85313 0,-0.36516 -0.71284,-1.15206 -1.58406,-1.74908 -0.90463,-0.6201 -2.02674,-1.90028 -2.61612,-2.98472 -0.6757,-1.24342 -1.69243,-2.33925 -2.94496,-3.17398 -4.84149,-3.2263 -5.46276,-3.7521 -5.27666,-4.46355 0.24311,-0.93063 -2.55188,-3.60255 -4.1319,-3.9495 -0.96645,-0.21142 -1.17711,-0.4494 -1.17711,-1.32474 0,-1.1436 -0.831,-2.09276 -2.19665,-2.50865 -0.46612,-0.14328 -0.96309,-0.6393 -1.10426,-1.10559 -0.33927,-1.11986 -1.6892,-2.58116 -2.76994,-2.99868 -0.67049,-0.26016 -0.86729,-0.64124 -0.86729,-1.68505 0,-1.0467 -0.23637,-1.50291 -1.05366,-2.03295 -0.57947,-0.37588 -1.66571,-1.29057 -2.41381,-2.03262 -0.74812,-0.74203 -1.96515,-1.52241 -2.70451,-1.73445 -1.11258,-0.31865 -1.52053,-0.75501 -2.36623,-2.5285 -0.56206,-1.17871 -1.68948,-2.7288 -2.50545,-3.44515 -1.54177,-1.35301 -2.12113,-2.15487 -2.86095,-3.95891 -0.2471,-0.60287 -1.21708,-1.52375 -2.22826,-2.11587 -0.98487,-0.57685 -2.13756,-1.43269 -2.56155,-1.90256 -0.42398,-0.46953 -1.37801,-1.00184 -2.11998,-1.18295 -1.29077,-0.31541 -1.35435,-0.41169 -1.47039,-2.23132 -0.13304,-2.08594 -0.9065,-3.25558 -2.15478,-3.25817 -0.51534,0 -1.85366,-1.13581 -3.69843,-3.13591 -1.58997,-1.72371 -3.5199,-3.53296 -4.28873,-4.02037 -1.03971,-0.65879 -1.46479,-1.24313 -1.65941,-2.28041 -0.14402,-0.76707 -0.51224,-1.4909 -0.81853,-1.60859 -0.30634,-0.1171 -0.55693,-0.53589 -0.55693,-0.92967 0,-0.39378 -0.3469,-0.90168 -0.7709,-1.12868 -0.42399,-0.22763 -0.77089,-0.68317 -0.77089,-1.0142 0,-0.65486 -1.06732,-2.31161 -2.76996,-4.29906 -0.59654,-0.6965 -1.08458,-1.62259 -1.08458,-2.05833 0,-0.43539 -0.73719,-1.54419 -1.63817,-2.46376 -0.90101,-0.91958 -2.29721,-2.5594 -3.10263,-3.64417 -0.80549,-1.08474 -1.89402,-2.13539 -2.41897,-2.33503 -0.52501,-0.19819 -1.06568,-0.6692 -1.20159,-1.04315 -0.13604,-0.37423 -0.82533,-1.33123 -1.53194,-2.1269 -0.70663,-0.7957 -1.2848,-1.69868 -1.2848,-2.00662 0,-0.59247 -2.1888,-4.50618 -2.70341,-4.83426 -0.16649,-0.10734 -0.36335,-0.61589 -0.43772,-1.13354 -0.0993,-0.68937 -0.46976,-1.02689 -1.38793,-1.26362 -0.68899,-0.17897 -1.25273,-0.5671 -1.25273,-0.86528 0,-0.29914 -0.65659,-0.91177 -1.4591,-1.36276 -0.90382,-0.5079 -1.80914,-1.47985 -2.37892,-2.55388 -0.50585,-0.95339 -1.76339,-2.4924 -2.79452,-3.41915 -1.58301,-1.42324 -1.83639,-1.83883 -1.62811,-2.66832 0.31118,-1.24017 -1.27347,-4.08766 -3.36323,-6.04324 -0.81482,-0.76219 -1.48152,-1.64276 -1.48152,-1.95619 0,-0.31215 -1.12745,-1.48473 -2.5054,-2.60265 -1.37801,-1.11826 -2.50546,-2.17733 -2.50546,-2.35389 0,-0.17548 -1.25755,-1.62455 -2.79452,-3.21819 -1.53701,-1.59363 -3.37842,-3.60025 -4.09198,-4.45902 -0.71358,-0.85911 -1.61,-1.5618 -1.99207,-1.5618 -1.43003,0 -1.91411,-0.45066 -1.91411,-1.78192 0,-1.04735 -0.3206,-1.606 -1.58051,-2.75318 -0.86929,-0.79179 -2.43859,-2.26318 -3.48739,-3.27022 -1.0488,-1.00706 -2.10428,-1.83103 -2.34555,-1.83103 -0.77082,0 -2.22284,-1.64631 -2.22284,-2.52036 0,-1.2428 -1.37503,-2.77823 -3.41172,-3.81032 -1.083,-0.5489 -2.29933,-1.61317 -3.06952,-2.68555 -0.70165,-0.97682 -1.52064,-1.7764 -1.82006,-1.7764 -0.29948,0 -0.79191,-0.47865 -1.09458,-1.06396 -0.6371,-1.23205 -3.18941,-2.79058 -4.57,-2.79058 -0.52155,0 -1.49535,0.27313 -2.16392,0.60642 -1.50051,0.74855 -2.51189,0.59182 -2.69405,-0.41814 -0.0762,-0.42141 -0.52228,-1.19989 -0.9917,-1.7299 -0.99112,-1.11921 -1.76977,-2.80913 -1.76977,-3.8409 0,-0.39635 -0.32353,-1.47234 -0.71871,-2.39097 -0.68505,-1.59167 -0.85185,-1.7107 -3.56544,-2.54115 -3.46889,-1.06138 -5.39318,-1.11177 -6.25111,-0.16249 -0.91599,1.01225 -2.79845,4.95295 -3.47274,7.26978 -0.43174,1.48342 -0.49349,2.521 -0.24086,4.04736 0.8699,5.25861 2.46776,10.79428 3.86571,13.39238 0.40846,0.75891 1.4621,2.94112 2.34152,4.84889 1.68492,3.65586 3.89257,7.57219 4.99741,8.86537 0.36218,0.42402 1.47111,2.3321 2.46417,4.2402 0.9931,1.90775 2.78744,4.6577 3.98744,6.11024 1.20001,1.45283 2.42062,3.10079 2.71248,3.66201 0.29199,0.56127 0.92285,1.45382 1.40214,1.98388 0.47933,0.53001 0.99741,1.37934 1.15135,1.88727 0.31767,1.04864 2.78918,4.88791 5.38039,8.35844 0.96247,1.28895 1.74993,2.59904 1.74993,2.91154 0,0.31216 0.54676,1.42618 1.21506,2.47454 0.66823,1.04866 1.63208,2.84422 2.14187,3.99044 0.50978,1.14624 1.73887,3.03479 2.73129,4.19629 1.25989,1.47466 1.76818,2.38869 1.68437,3.02828 -0.14653,1.11957 1.73025,3.60581 3.58922,4.75494 0.9102,0.56254 2.15935,2.22937 4.08806,5.45503 1.52758,2.55453 3.16831,5.10937 3.64607,5.67712 0.47771,0.56806 1.40982,2.1497 2.07129,3.5154 1.26138,2.60395 2.90986,4.63073 3.76656,4.63073 0.28648,0 0.50606,0.42985 0.50606,0.99111 0,1.08475 1.78114,4.40505 2.36303,4.40505 0.19918,0 0.6987,0.78429 1.10956,1.74255 0.41087,0.95859 0.9923,1.83688 1.29213,1.95197 0.2998,0.11385 0.65308,0.74923 0.78501,1.40897 0.16349,0.81846 1.26501,2.21539 3.4651,4.39594 1.77382,1.75787 3.3189,3.59182 3.4335,4.07566 0.54369,2.29404 1.58545,4.44311 2.61165,5.38673 0.62099,0.571 1.12904,1.28702 1.12904,1.59106 0,0.30238 0.26011,0.76837 0.57816,1.03241 0.31802,0.26336 0.57813,0.82103 0.57813,1.2379 0,0.41687 0.76702,1.50359 1.7045,2.41469 0.93742,0.91114 2.06258,2.35845 2.50027,3.21657 0.4377,0.85779 1.10171,1.78808 1.47553,2.0671 0.37382,0.27963 1.07593,1.28797 1.56018,2.24169 1.32362,2.60787 3.88257,6.13689 9.12167,12.58041 0.5408,0.66499 0.98325,1.43011 0.98325,1.70034 0,0.26987 1.03051,1.82319 2.29002,3.45131 1.25955,1.62811 2.40275,3.40938 2.54045,3.95794 0.13754,0.54889 1.15471,2.00727 2.25999,3.24127 1.10529,1.23369 2.42254,2.92292 2.92729,3.75343 1.31668,2.16658 5.64217,7.89084 7.15986,9.47538 0.71079,0.74203 1.88549,2.56785 2.61044,4.05744 0.72496,1.4896 1.60567,2.947 1.95717,3.23867 1.07137,0.88932 6.573,9.35766 7.27964,11.2056 0.36485,0.95371 1.08294,2.42802 1.59576,3.27605 0.51284,0.84804 1.46183,2.601 2.10886,3.8952 0.81204,1.62421 1.65609,2.67059 2.72516,3.37817 1.0905,0.72154 1.54879,1.29773 1.54879,1.94676 0,0.72708 0.5289,1.23109 2.50545,2.38707 1.37796,0.80609 2.5054,1.69541 2.5054,1.97605 0,0.27965 0.26014,0.61001 0.57819,0.73194 0.318,0.12359 0.57816,0.69002 0.57816,1.26199 0,0.5723 0.43368,1.6281 0.96364,2.34643 0.53,0.71827 0.96366,1.50942 0.96366,1.75751 0,0.2471 0.35282,0.89973 0.78409,1.44797 0.70539,0.8968 0.76716,1.40896 0.61515,5.09962 -0.15251,3.70495 -0.26111,4.20181 -1.1204,5.12626 -0.59347,0.63832 -1.20127,2.06709 -1.61532,3.79728 -0.49397,2.06418 -0.90108,2.92948 -1.59094,3.38144 -0.53831,0.35282 -0.92714,0.98267 -0.92714,1.50196 0,1.10752 -3.40381,4.09874 -4.66421,4.09874 -1.61256,0 -3.03324,2.18352 -1.88316,2.89432 0.50102,0.30891 -4.28532,3.61554 -4.89728,3.38273 -0.25266,-0.0976 -0.51277,-0.54888 -0.57817,-1.00574 -0.13878,-0.96998 -1.46799,-1.40604 -1.46799,-0.48127 0,0.3333 -0.28972,0.60645 -0.64419,0.60645 -0.35431,0 -0.91802,0.24386 -1.25273,0.54204 -0.83616,0.7453 -2.04844,0.88968 -3.15191,0.37558 -0.50911,-0.23737 -1.83633,-0.83081 -2.9493,-1.31855 -1.11297,-0.48807 -2.02629,-1.07471 -2.02956,-1.30327 -0.005,-0.25689 -0.12008,-0.23738 -0.30205,0.0487 -0.23138,0.36418 -0.63502,0.36418 -1.84862,0 -1.77832,-0.53359 -5.0476,-3.14697 -4.42108,-3.53394 0.80555,-0.49781 0.38766,-1.36115 -1.03515,-2.13828 -0.795,-0.43442 -1.96578,-1.11924 -2.6018,-1.52146 -1.30477,-0.82594 -2.75573,-0.96705 -4.21901,-0.4107 -0.85795,0.32614 -1.13184,0.22116 -2.01603,-0.77097 -0.56279,-0.63179 -1.27713,-1.14851 -1.58742,-1.14851 -0.31019,0 -1.48085,-0.95402 -2.60116,-2.12006 -1.41547,-1.47303 -2.33419,-2.11979 -3.01118,-2.11979 -0.53575,0 -1.07842,-0.16923 -1.2059,-0.3749 -0.12736,-0.20817 -0.91824,-0.55995 -1.75727,-0.78595 -0.83907,-0.22763 -1.52553,-0.54204 -1.52553,-0.70203 0,-0.46239 -3.68451,-3.14795 -4.31836,-3.14795 -0.31508,0 -1.54147,-0.82398 -2.72558,-1.83102 -3.50054,-2.97691 -5.36913,-4.15792 -7.37408,-4.66159 -1.28702,-0.32194 -2.36395,-0.94789 -3.37271,-1.95689 -0.81501,-0.81487 -1.48192,-1.60532 -1.48192,-1.75654 0,-0.67928 -1.68045,-2.54347 -2.13546,-2.36884 -0.27836,0.10735 -0.72081,-0.0651 -0.98297,-0.37981 -0.26209,-0.31539 -1.27222,-0.93582 -2.24455,-1.37741 -0.97232,-0.4419 -2.7751,-1.7341 -4.00616,-2.8719 -1.23112,-1.13772 -2.55368,-2.06869 -2.9391,-2.06869 -0.47026,0 -0.77683,-0.38045 -0.93202,-1.15663 -0.12723,-0.6357 -0.46281,-1.1563 -0.7459,-1.1563 -0.92449,0 -5.84232,-2.65042 -6.77236,-3.64968 -0.49921,-0.53653 -1.14734,-0.97551 -1.44023,-0.97551 -0.29296,0 -0.77178,-0.56384 -1.06412,-1.25286 -0.31603,-0.74465 -1.55568,-2.02061 -3.05701,-3.14602 -1.38905,-1.04116 -2.7529,-2.31809 -3.03088,-2.83741 -0.27804,-0.5196 -0.88561,-1.08895 -1.35031,-1.26588 -0.60147,-0.22764 -0.7866,-0.54367 -0.64266,-1.0945 0.13079,-0.49944 -0.12151,-1.08705 -0.71241,-1.65932 -0.50307,-0.4871 -1.39087,-1.52797 -1.97296,-2.31291 -0.58203,-0.78494 -1.52737,-1.65217 -2.10069,-1.92727 -0.7806,-0.37458 -1.12308,-0.90851 -1.36376,-2.12627 -0.18146,-0.91795 -0.69248,-1.92532 -1.17362,-2.31293 -1.45232,-1.16996 -2.5762,-2.86602 -2.5762,-3.88803 0,-0.53781 -0.29493,-1.3036 -0.65529,-1.70159 -0.60148,-0.66466 -0.74625,-1.9923 -0.43057,-3.94885 0.0911,-0.56482 -0.15001,-0.81032 -0.94561,-0.9638 -1.25777,-0.24387 -2.28715,-1.89571 -1.7633,-2.83188 0.24835,-0.44418 0.13429,-0.72544 -0.4129,-1.0184 -0.50217,-0.26993 -0.83673,-0.27643 -0.99528,-0.0325 -0.39228,0.63437 -0.96429,0.43831 -0.96429,-0.33103 0,-0.39476 -0.74739,-1.51984 -1.66081,-2.50087 l -1.66089,-1.78353 0.72974,-1.15242 c 0.94588,-1.4938 0.6,-3.37913 -0.71149,-3.87795 -2.0794,-0.79048 -3.41652,-3.38564 -3.86747,-7.50583 -0.13903,-1.27207 -0.3886,-2.48626 -0.55419,-2.69824 -0.16549,-0.21142 -0.52001,-1.44736 -0.78757,-2.74509 -0.68529,-3.32383 -2.60873,-7.15823 -3.89713,-7.76954 -1.37496,-0.65198 -5.13162,-4.8795 -6.10287,-6.8679 -0.42421,-0.86817 -1.20235,-1.77539 -1.72925,-2.01536 -0.52685,-0.24063 -0.95793,-0.75439 -0.95793,-1.14298 0,-0.86722 -1.45157,-2.49501 -1.95024,-2.18673 -0.19919,0.12359 -0.36248,-0.20493 -0.36248,-0.73166 0,-0.74332 -0.25071,-1.01092 -1.12801,-1.20344 -1.4472,-0.31866 -2.55423,-1.85506 -1.79177,-2.48785 0.37252,-0.30891 0.43486,-0.81293 0.21915,-1.76991 -0.17023,-0.75471 -0.15151,-1.33771 0.0434,-1.33771 0.59147,0 0.37706,-2.22546 -0.27736,-2.8797 -0.34228,-0.34241 -0.73258,-1.51075 -0.86728,-2.59679 -0.23938,-1.92759 -0.28616,-1.98871 -1.98772,-2.58508 -0.95852,-0.33624 -1.93519,-0.73845 -2.17033,-0.89453 -0.75137,-0.49785 -0.88848,-2.36106 -0.2279,-3.0969 0.56366,-0.62759 0.54115,-0.77913 -0.28061,-1.89088 -0.79928,-1.08082 -0.84439,-1.34388 -0.42804,-2.49532 0.25589,-0.70789 0.34088,-1.4883 0.1887,-1.73445 -0.15202,-0.2471 -0.23937,-1.59363 -0.19395,-2.99479 0.0802,-2.46997 0.0415,-2.58345 -1.2693,-3.74397 -0.74356,-0.65814 -1.45956,-1.69672 -1.59108,-2.30774 -0.31867,-1.47918 -1.66165,-4.30003 -2.12161,-4.45546 -0.20193,-0.0684 -0.47999,-0.99146 -0.6182,-2.0515 -0.13803,-1.05971 -0.422,-2.14383 -0.63065,-2.40883 -0.50276,-0.63864 -2.00749,-0.61491 -2.55091,0.039 -0.53893,0.64935 -0.14278,3.92966 0.54334,4.49901 0.26763,0.22115 0.39808,0.74237 0.28975,1.15601 -0.12386,0.47346 0.0364,0.84153 0.43269,0.99371 0.5138,0.19819 0.58356,0.58661 0.3799,2.12204 -0.17123,1.29126 -0.0941,2.06806 0.24712,2.47877 0.27312,0.32906 0.475,1.17158 0.44868,1.8723 -0.0984,2.61501 0.9611,9.05105 1.66716,10.12868 0.40791,0.62238 0.75593,1.96138 0.82045,3.15638 0.0613,1.14136 0.47723,2.82963 0.92362,3.75179 0.48375,0.99923 0.71109,1.99329 0.56279,2.46088 -0.13703,0.43118 0.0149,1.31595 0.34077,1.96628 0.36285,0.72708 0.49934,1.63398 0.3548,2.3565 -0.16799,0.84022 0.0459,1.73771 0.75068,3.15153 1.85349,3.71762 2.59852,5.53045 2.59852,6.32352 0,0.43639 0.3469,1.60243 0.7709,2.5916 0.42398,0.98917 0.77089,2.30674 0.77089,2.92813 0,1.12281 0.0827,1.35759 1.29406,3.68383 0.34825,0.66888 0.63321,1.59594 0.63321,2.06058 0,0.4647 0.25624,1.30525 0.56897,1.86776 0.31284,0.56289 0.81688,1.97704 1.11977,3.14307 0.30305,1.16608 1.15016,3.78562 1.88284,5.8215 0.73272,2.03554 1.44947,4.32636 1.59286,5.09083 0.14327,0.76447 0.51332,1.87392 0.82211,2.46607 0.30889,0.59182 0.56247,1.47268 0.56377,1.95717 0,0.48418 0.26662,1.2841 0.58968,1.77707 0.3229,0.49295 0.64931,1.74453 0.72505,2.78082 0.20217,2.76652 1.27074,6.17331 2.82624,9.00974 1.11886,2.04044 1.38739,2.96099 1.46115,5.01085 0.11332,3.14697 1.09013,8.39194 1.67119,8.9727 0.24088,0.24062 0.43812,1.05872 0.43812,1.81736 0,0.75828 0.24586,1.72987 0.54631,2.15877 0.30045,0.42888 0.66553,1.41543 0.81123,2.19195 0.14576,0.77648 0.50694,1.61284 0.80276,1.85831 0.2959,0.2471 0.53784,1.04966 0.53784,1.78648 0,0.73682 0.23414,1.88663 0.52057,2.55453 1.04612,2.44103 2.93158,7.04087 3.57893,8.73108 0.36538,0.95403 1.04668,2.2547 1.51402,2.89074 0.46732,0.63603 0.97415,1.59008 1.1262,2.12009 0.42069,1.46617 3.19121,6.52613 4.28504,7.82614 0.53321,0.63374 1.56086,2.34869 2.2836,3.81129 0.72278,1.4623 1.84469,3.18956 2.49317,3.83797 1.19412,1.19401 2.7002,3.89681 2.7002,4.84531 0,0.28616 0.3037,0.63149 0.67451,0.77001 0.87482,0.3268 4.23755,3.85746 4.93671,5.18317 0.29785,0.56482 1.41531,1.92402 2.48327,3.02047 1.06794,1.09648 2.20308,2.49895 2.52252,3.11674 0.31964,0.6178 0.75875,1.12314 0.97612,1.12314 0.21715,0 0.65202,0.61456 0.96587,1.36605 0.31381,0.75111 0.81882,1.46095 1.12204,1.57739 0.30337,0.11709 0.65608,0.54172 0.78416,0.94523 0.12827,0.40355 0.95856,1.5878 1.84557,2.63158 0.88703,1.04413 2.04638,2.73598 2.57636,3.75994 0.53003,1.02396 1.87429,2.88846 2.98726,4.1436 1.11302,1.25515 2.02361,2.61566 2.02361,3.0231 0,0.98297 2.20156,3.84022 5.94299,7.71363 3.60278,3.72964 6.39152,7.65412 6.39152,8.99445 0,0.65098 0.35626,1.16182 1.11372,1.59626 0.86266,0.49522 1.22547,1.10491 1.60942,2.7054 0.29169,1.21547 0.83884,2.33633 1.32891,2.72164 0.45827,0.36061 1.31563,1.52016 1.90517,2.57665 0.58963,1.05679 1.57184,2.49109 2.18279,3.1873 0.61095,0.6965 1.11083,1.49347 1.11083,1.77116 0,0.27642 0.3469,0.81912 0.77088,1.20281 0.424,0.3837 0.77092,0.90982 0.77092,1.16898 0,0.26013 0.28386,0.70659 0.63086,0.99469 0.34695,0.2894 0.96635,1.30652 1.3765,2.26316 0.41011,0.95664 1.20173,2.33732 1.75912,3.0683 0.75848,0.99435 1.01823,1.79426 1.03258,3.18011 0.0149,1.16996 -0.14727,1.85119 -0.43317,1.85151 -0.79602,0 -2.87667,2.00727 -2.65259,2.5581 0.11787,0.2894 0.32,0.78821 0.44962,1.1085 0.16972,0.41947 0.0616,0.51572 -0.38545,0.34404 -0.83601,-0.32192 -0.79375,0.46921 0.0534,0.99826 0.53267,0.33264 0.39077,0.36873 -0.67451,0.17222 -1.74643,-0.32516 -2.00979,-0.60414 -2.10943,-2.24594 -0.10137,-1.67004 -0.83608,-2.62344 -1.90407,-2.47061 -0.66201,0.0944 -0.79686,0.37102 -0.76069,1.56047 0.0429,1.41352 0.0149,1.44538 -1.35968,1.44538 -0.77204,0 -1.83252,0.3024 -2.35668,0.67178 -0.95723,0.6744 -1.41507,0.77 -4.61482,0.96382 -0.95402,0.0583 -1.908,0.20817 -2.12001,0.33784 -0.74927,0.45231 -2.45224,0.7209 -3.06936,0.48419 -0.34391,-0.13329 -0.97182,-0.91958 -1.39546,-1.74972 -0.42358,-0.83049 -1.19677,-1.70422 -1.7181,-1.9416 -0.5214,-0.23737 -0.94792,-0.72773 -0.94792,-1.08898 0,-0.83406 -1.44047,-2.68816 -2.08825,-2.68816 -0.26987,0 -0.80438,-0.34697 -1.1881,-0.771 -0.38372,-0.424 -0.91763,-0.77096 -1.18654,-0.77096 -0.2689,0 -1.01504,-0.44287 -1.65819,-0.98396 -0.72904,-0.6136 -2.03986,-1.14588 -3.48134,-1.41383 -1.2716,-0.23739 -2.23146,-0.56026 -2.13304,-0.7196 0.0986,-0.15925 -0.0602,-0.52871 -0.35276,-0.82135 -1.10312,-1.10299 -1.85759,-3.08584 -1.63576,-4.29874 0.19295,-1.05614 -0.0295,-1.47822 -1.79681,-3.39508 -1.10952,-1.20375 -2.20399,-2.49568 -2.43223,-2.87088 -0.22839,-0.37526 -0.86449,-0.80251 -1.41395,-0.94951 -1.83675,-0.491 -2.96406,-1.60047 -2.97713,-2.92976 -0.005,-0.67636 -0.18571,-1.33709 -0.39761,-1.46813 -0.21191,-0.13005 -0.38542,-0.54076 -0.38542,-0.91079 0,-0.85944 -2.1439,-2.87287 -3.71719,-3.49102 -0.90862,-0.35671 -1.38023,-0.91698 -1.88541,-2.24009 -0.47235,-1.2369 -1.7229,-2.80845 -4.18463,-5.25892 -3.20151,-3.18731 -6.78721,-7.37187 -6.78721,-7.92109 0,-0.12034 -0.71166,-1.00054 -1.58142,-1.95197 -0.86976,-0.95146 -1.95819,-2.42578 -2.41876,-3.27609 -0.46055,-0.85032 -1.39671,-2.14838 -2.0804,-2.88487 -0.68365,-0.73618 -1.24302,-1.6574 -1.24302,-2.04759 0,-1.30847 -1.98184,-4.94222 -2.93157,-5.37502 -0.50764,-0.23088 -0.92297,-0.57198 -0.92297,-0.75697 0,-0.18522 -0.61451,-0.69945 -1.36555,-1.14233 -1.31493,-0.77585 -1.34066,-0.83341 -0.69369,-1.54812 0.63975,-0.70692 0.63656,-0.80805 -0.0664,-2.11327 -0.40598,-0.75409 -1.0912,-1.50586 -1.52269,-1.67105 -1.08707,-0.41622 -3.01184,-2.93692 -3.82858,-5.01408 -0.3751,-0.95404 -1.13715,-2.33372 -1.69333,-3.06635 -0.71208,-0.93744 -0.979,-1.70778 -0.9019,-2.60232 0.12307,-1.42747 -0.7245,-2.06609 -1.68436,-1.26946 -0.47625,0.3954 -0.68564,0.19819 -1.29148,-1.21513 -0.39765,-0.92771 -1.00692,-1.9224 -1.3539,-2.21017 -0.34695,-0.2894 -0.63084,-1.02689 -0.63084,-1.64244 0,-0.83861 -0.24136,-1.21024 -0.96363,-1.48504 -0.68559,-0.26011 -0.96362,-0.65454 -0.96362,-1.36473 0,-0.54918 -0.20843,-1.37739 -0.46282,-1.84045 -0.25461,-0.46305 -0.49446,-2.15975 -0.53302,-3.77063 -0.0574,-2.38608 -0.26469,-3.27834 -1.12051,-4.81802 -0.57769,-1.03921 -1.29556,-2.14969 -1.59539,-2.46769 -1.46419,-1.55333 -2.23039,-2.92879 -2.13546,-3.83341 0.15101,-1.44211 -0.89661,-3.66334 -1.9555,-4.14588 -0.89668,-0.40873 -1.83364,-2.57013 -1.83364,-4.23011 0,-0.41169 -0.2546,-1.08542 -0.56588,-1.49707 -0.31116,-0.41136 -0.57145,-1.142 -0.57819,-1.62325 -0.005,-0.48092 -0.70609,-2.32169 -1.55406,-4.08996 -0.84801,-1.76825 -1.54182,-3.41033 -1.54182,-3.64933 0,-0.23738 -0.6938,-0.8721 -1.54182,-1.40734 -1.24404,-0.78526 -1.54182,-1.19823 -1.54182,-2.13828 0,-0.64092 -0.27996,-1.59236 -0.622,-2.11457 -0.43818,-0.66854 -0.54055,-1.31987 -0.34625,-2.20268 0.43973,-1.99849 0.29428,-4.25547 -0.35432,-5.49925 -0.32996,-0.63277 -0.60101,-1.53675 -0.6023,-2.00855 0,-0.47184 -0.34863,-1.42589 -0.77184,-2.11979 -0.42321,-0.69424 -0.77011,-1.88564 -0.77092,-2.64784 0,-0.8682 -0.27378,-1.632 -0.73042,-2.04562 -0.60926,-0.55117 -0.75244,-1.3433 -0.87145,-4.82029 -0.12931,-3.78561 -0.23762,-4.29841 -1.19821,-5.68425 -0.60273,-0.86983 -1.05589,-2.04271 -1.05589,-2.73305 0,-0.66498 -0.19095,-1.32734 -0.42425,-1.47139 -0.24363,-0.14951 -0.32819,-0.74267 -0.19844,-1.39138 0.16773,-0.83895 -0.165,-1.94222 -1.2933,-4.28962 -0.83553,-1.73833 -1.57015,-3.7674 -1.63246,-4.50943 -0.1024,-1.221 -0.23562,-1.36084 -1.40208,-1.47268 -0.84126,-0.0813 -1.55658,0.12034 -2.05996,0.57458 -0.71585,0.64773 -0.75653,1.04378 -0.56688,5.51972 0.11228,2.65205 0.39905,5.77597 0.63707,6.942 0.23812,1.16572 0.48234,3.07382 0.54287,4.23985 0.0604,1.16607 0.4039,3.07382 0.76297,4.23988 0.35909,1.16604 0.88634,3.50758 1.17164,5.20366 0.4292,2.55128 1.65476,6.65487 2.82041,9.4435 0.13304,0.31868 0.45318,1.53222 0.71165,2.69825 0.25852,1.16607 0.7471,3.03058 1.08584,4.14363 1.50748,4.9536 1.84824,6.13005 2.0375,7.03467 0.11085,0.5297 0.61695,1.82124 1.12452,2.86992 0.50761,1.04868 0.9229,2.24236 0.9229,2.65272 0,0.41003 0.66964,2.06709 1.48818,3.68221 0.81853,1.61511 1.9893,3.95792 2.60183,5.20593 1.98079,4.03597 3.02733,5.9249 3.68658,6.65356 1.01612,1.12284 3.78695,6.76773 3.78695,7.71461 0,0.47054 -0.17322,0.96251 -0.38543,1.09355 -0.53279,0.32906 -0.48397,1.86712 0.0772,2.42804 0.25427,0.25362 0.77079,0.46272 1.14749,0.46272 0.37671,0 0.98483,0.477 1.35142,1.06002 0.36657,0.58304 1.15108,1.62974 1.74341,2.32625 0.59231,0.6962 1.07693,1.48768 1.07693,1.75852 0,0.2699 0.52037,0.99145 1.15635,1.60049 0.636,0.60936 1.15635,1.38943 1.15635,1.73315 0,0.3437 0.25463,0.96184 0.56593,1.37316 0.31119,0.41167 0.57143,1.27953 0.5782,1.92891 0.0104,0.79826 0.38682,1.53933 1.16858,2.28852 0.636,0.60936 1.15751,1.37903 1.1589,1.71042 0.005,0.33131 0.34719,1.12278 0.76837,1.75847 0.42119,0.63637 0.76694,1.52081 0.76838,1.96598 0.005,0.44515 0.52291,1.52762 1.15889,2.40559 0.63599,0.87827 1.15637,1.8746 1.15637,2.21472 0,0.3401 0.31084,1.07889 0.6907,1.64143 0.69063,1.02332 1.71624,3.08649 2.61632,5.26317 0.26306,0.63603 0.87069,2.02386 1.35048,3.08357 0.47981,1.06005 1.0158,2.3178 1.19108,2.79483 0.68052,1.85216 1.03554,2.68783 2.16935,5.10708 0.64581,1.37806 1.47373,3.45945 1.83978,4.62551 0.3661,1.16605 1.07311,2.72392 1.57118,3.46206 0.49807,0.73814 0.90557,1.47689 0.90557,1.64146 0,0.166 0.52036,1.01775 1.15636,1.89571 0.636,0.87796 1.15638,2.08043 1.15638,2.67225 0,0.59147 0.17796,1.18554 0.39502,1.31985 1.01743,0.62888 3.116,5.72197 3.33822,8.10187 0.15901,1.70162 0.45394,2.67354 0.94694,3.11999 0.49006,0.44323 0.71612,1.18037 0.71612,2.33472 0,1.12443 0.18796,1.75914 0.56349,1.90321 0.30989,0.12034 0.67617,0.59049 0.81379,1.048 0.13754,0.45717 0.47082,1.35207 0.74039,1.98774 0.26958,0.63604 0.71799,1.76373 0.9965,2.50543 0.27834,0.74204 0.97201,2.12985 1.54111,3.0839 0.5691,0.95402 1.25078,2.42835 1.51479,3.27639 0.26402,0.84804 0.69905,1.80174 0.96662,2.11976 0.2676,0.31865 0.60375,1.12995 0.74695,1.80436 0.14327,0.67439 0.50944,1.4327 0.81382,1.68535 0.30437,0.25363 0.55338,0.85031 0.55338,1.32863 0,0.478 0.25722,1.08248 0.5716,1.34362 0.31445,0.26011 0.74069,1.01903 0.94736,1.68532 0.96248,3.10178 1.85315,5.20595 2.61153,6.17005 0.4549,0.57849 0.94452,1.607 1.08807,2.28626 0.14328,0.67895 0.57081,1.75494 0.94943,2.39096 0.37873,0.63602 1.23877,2.54379 1.9113,4.23987 0.67248,1.69609 1.5378,3.43052 1.92296,3.85454 0.87635,0.96477 1.65789,2.57956 2.33223,4.81833 0.28745,0.95372 0.72324,1.99456 0.9686,2.31259 0.24561,0.31867 0.68395,1.18524 0.97447,1.92726 0.2904,0.74203 1.01296,2.27717 1.60532,3.41168 0.59237,1.13451 1.07703,2.29926 1.07703,2.58833 0,0.28939 0.34638,0.71083 0.76964,0.93747 1.13791,0.60904 2.45484,3.4315 2.36477,5.06838 -0.0689,1.25059 0.0836,1.50162 1.3814,2.27522 1.86917,1.11466 2.42232,1.81346 2.42232,3.06077 0,1.2698 0.6499,1.92924 1.908,1.9364 0.67608,0 1.61458,0.65163 3.00654,2.07554 1.11297,1.1384 2.02362,2.2804 2.02362,2.53728 0,0.78234 7.61942,8.1032 9.05976,8.70509 0.74113,0.30889 1.34748,0.70951 1.34748,0.88833 0,0.37818 5.56014,3.69423 6.84174,4.08052 0.47698,0.14328 0.86729,0.40876 0.86729,0.58923 0,0.53426 2.52038,1.93149 3.51454,1.94841 1.01027,0.0325 3.15091,1.70551 3.54761,2.79807 0.13854,0.38141 1.19148,1.12378 2.33977,1.64957 1.14835,0.5258 2.1795,1.19432 2.29144,1.48634 0.1119,0.29267 0.779,0.65424 1.48233,0.80579 1.80603,0.3892 3.27169,1.17511 5.71145,3.06304 1.166,0.90236 2.99157,2.09541 4.05682,2.65143 1.0653,0.55603 2.7933,1.88044 3.84006,2.94311 1.04674,1.06295 2.21141,1.93247 2.58812,1.93247 0.3767,0 1.64263,0.86723 2.81309,1.92725 1.17048,1.06007 2.34314,1.93022 2.6059,1.93444 0.26274,0 0.9981,0.8243 1.63411,1.82323 0.63599,0.9989 1.56298,2.01732 2.06002,2.26283 1.49583,0.73944 3.9145,3.33133 3.9145,4.195 0,1.01713 0.69824,1.73345 1.68993,1.73345 1.84043,0 6.0191,2.73726 6.0191,3.943 0,0.63277 4.23469,5.09116 6.87226,7.23497 0.9128,0.74204 2.03831,1.76989 2.50096,2.28398 0.4627,0.51442 2.22969,2.42217 3.92664,4.2402 1.69701,1.81769 3.69171,3.98069 4.43273,4.80632 0.74102,0.82591 2.54419,2.64717 4.00709,4.04735 1.46287,1.40017 3.28416,3.23507 4.04725,4.07792 0.76309,0.8425 2.48105,2.64589 3.81769,4.00769 1.33662,1.3615 2.75538,3.11284 3.15276,3.89195 0.75907,1.48796 3.49418,3.96477 4.85104,4.39334 0.43879,0.13978 1.08898,0.86234 1.44488,1.60894 0.35593,0.74625 0.93031,1.46552 1.27634,1.59851 1.44879,0.55572 5.15373,4.87915 5.15373,6.01399 0,0.28939 0.43362,0.93192 0.96361,1.42977 0.52999,0.49782 0.96363,1.19499 0.96363,1.54908 0,0.35412 0.34693,0.95797 0.77091,1.34166 0.43063,0.38987 0.77092,1.18719 0.77092,1.80662 0,0.61001 0.25135,1.7107 0.55852,2.44592 0.59465,1.42326 1.50243,1.70484 2.96795,0.92055 0.60108,-0.32192 0.93038,-0.2764 1.45044,0.19195 0.3701,0.33492 0.87156,0.60904 1.1144,0.60904 0.24286,0 0.68877,0.47701 0.99091,1.06002 0.3021,0.58304 1.07481,1.52733 1.71704,2.09832 0.64228,0.57133 1.97026,2.26804 2.95114,3.77065 0.98083,1.50261 3.2047,4.20184 4.94186,5.99805 1.73717,1.79623 3.66901,3.89063 4.29294,4.65443 0.6239,0.76418 1.69437,1.65611 2.37879,1.98256 1.25836,0.59995 2.89022,3.10178 3.37736,5.17767 0.14576,0.62072 1.41459,2.09051 3.16142,3.662 1.60495,1.44378 3.16894,3.1005 3.4755,3.68126 0.30665,0.58106 1.25486,1.4122 2.10726,1.84694 1.99746,1.01907 2.97784,2.01703 3.29227,3.35085 0.32289,1.36898 1.8305,2.99773 3.91101,4.22426 0.90101,0.53133 1.6382,1.1924 1.6382,1.46946 0,0.27635 1.03307,1.39819 2.29579,2.49206 1.26266,1.09386 2.66441,2.58541 3.11504,3.31444 0.45057,0.72936 0.98785,1.32571 1.1939,1.32571 0.73386,0 3.03155,2.13213 3.03155,2.81302 0,0.38111 0.41385,1.07631 0.91966,1.5452 0.50577,0.46856 1.19072,1.50131 1.52212,2.29439 0.33138,0.79308 0.75723,1.44213 0.94631,1.44213 0.18896,0 1.05158,0.69358 1.91664,1.5416 0.94723,0.92869 1.93872,1.54194 2.4926,1.54194 0.70504,0 1.081,0.36551 1.61066,1.56602 0.40084,0.90852 1.07926,1.71364 1.61599,1.91752 0.66829,0.25363 0.92593,0.6487 0.9282,1.42132 0.003,0.73062 0.58249,1.71298 1.83092,3.09949 3.10689,3.451 3.94771,4.59981 3.94771,5.39418 0,0.42112 0.71071,1.52474 1.57937,2.45245 0.86863,0.92804 1.89621,2.37014 2.28358,3.20518 0.44762,0.96507 1.16803,1.73768 1.97706,2.12009 0.77557,0.36647 1.4269,1.04543 1.6673,1.73768 0.2169,0.62466 0.78472,1.52732 1.26174,2.006 0.477,0.47861 0.86726,1.05872 0.86726,1.28862 0,0.67763 1.64226,2.70017 2.19247,2.70017 0.29234,0 0.50568,0.43868 0.50568,1.03893 0,0.5918 0.42833,1.48602 0.99506,2.07752 0.54729,0.57132 1.15164,1.73539 1.34301,2.58734 0.19119,0.85161 1.04448,3.02829 1.89584,4.83687 0.85131,1.8089 1.54789,3.45133 1.54789,3.65033 0,0.19818 0.26011,0.57783 0.57816,0.84187 0.32095,0.26662 0.57819,1.10652 0.57819,1.88858 0,0.77487 0.26794,1.79133 0.59532,2.25861 0.47345,0.67601 0.50403,1.0207 0.14952,1.6834 -0.52206,0.9755 0.0991,3.38824 1.27074,4.93442 0.55912,0.73812 0.65442,1.30196 0.45007,2.66439 -0.20868,1.39142 -0.12983,1.82324 0.40483,2.21378 0.3652,0.26662 0.75654,1.17546 0.86959,2.01864 0.14751,1.10133 0.51838,1.76435 1.31644,2.35422 0.90496,0.6692 1.11083,1.10947 1.11083,2.37695 0,0.85553 0.19346,1.91721 0.4301,2.35912 0.23638,0.44223 0.42084,1.4717 0.4096,2.28787 -0.0149,1.13549 0.17748,1.59723 0.82262,1.96563 0.55013,0.31541 0.85869,0.88316 0.88802,1.63787 0.0894,2.30025 0.64594,6.17593 0.94146,6.55573 0.3999,0.51375 0.53709,5.16594 0.18371,6.22468 -0.19643,0.58887 -0.0464,1.06297 0.51407,1.62324 0.67535,0.67536 0.73133,0.96508 0.381,1.96984 -0.22589,0.64806 -0.28128,1.65186 -0.12307,2.23132 0.32821,1.20084 0.32707,3.37948 -0.005,9.82396 -0.22988,4.46065 -0.21841,4.54619 0.72811,5.49273 0.55854,0.55865 1.41334,0.96546 2.03916,0.97064 0.59262,0 2.2917,0.33591 3.77568,0.73617 3.33444,0.89878 3.36782,0.90106 4.69671,0.33265 z M 278.60058,428.06651 c 0.72873,-0.87798 0.17696,-1.73967 -1.11422,-1.73967 -1.15534,0 -1.92206,1.06201 -1.38926,1.92406 0.3616,0.58497 1.96276,0.46723 2.50348,-0.18522 z m -8.98062,-1.59916 c 0.31605,-0.82365 -0.34448,-1.84956 -1.26918,-1.97118 -1.05112,-0.13977 -2.64234,1.20084 -2.3456,1.97443 0.33729,0.87862 3.27732,0.87632 3.61478,0 z m 5.0704,-0.50825 c 0.0816,-0.57522 -0.13329,-1.13257 -0.55548,-1.44146 -0.96748,-0.70726 -2.72066,-0.63539 -3.01195,0.12359 -0.30438,0.7934 0.41646,1.68566 1.3617,1.68566 0.39802,0 0.72369,0.18522 0.72369,0.41396 0,0.83893 1.35355,0.12359 1.48204,-0.78173 z m 78.75803,-83.5278 c 0.92637,-0.83826 0.94467,-3.27867 0.0295,-4.0558 -0.37099,-0.31542 -1.36835,-0.87114 -2.21636,-1.235 -3.14033,-1.34816 -3.43031,-1.62389 -3.97238,-3.77521 -0.28449,-1.12864 -0.82844,-2.39907 -1.209,-2.8231 -0.38057,-0.42403 -0.80473,-1.24798 -0.94258,-1.83102 -0.1625,-0.68772 -0.50308,-1.06004 -0.96927,-1.06004 -0.39526,0 -0.80262,-0.3219 -0.90531,-0.71374 -0.1028,-0.39248 -0.94219,-1.13062 -1.86556,-1.64014 -1.30444,-0.71962 -1.81958,-1.30687 -2.30993,-2.6345 -0.85033,-2.30188 -4.61109,-6.18959 -5.98753,-6.18959 -0.91529,0 -0.99264,-0.1106 -0.78993,-1.12378 0.17447,-0.87276 -0.0292,-1.44407 -0.91546,-2.55842 -1.18906,-1.49612 -1.21621,-1.56895 -1.28848,-3.44872 -0.0425,-1.09878 -0.13553,-1.16215 -1.87532,-1.27369 -1.76744,-0.11384 -1.83092,-0.15925 -1.83092,-1.31888 0,-0.66076 0.28877,-1.52018 0.64133,-1.90972 0.53934,-0.59603 0.56425,-0.85291 0.15674,-1.61446 -0.47692,-0.89129 -2.63457,-2.17051 -3.66061,-2.17051 -0.75396,0 -1.02705,-0.99303 -0.7498,-2.7265 0.32157,-2.01053 -0.27022,-2.66964 -2.39577,-2.66964 -1.31028,0 -1.96004,-0.2504 -2.99094,-1.15629 -0.99334,-0.87243 -1.69554,-1.15662 -2.8571,-1.15662 -2.019,0 -2.5285,-0.65036 -2.20416,-2.81336 0.24686,-1.64666 0.20842,-1.73414 -1.12915,-2.56068 -1.19557,-0.73912 -1.38481,-1.05584 -1.38481,-2.31784 0,-1.7136 -1.63446,-4.88303 -2.6913,-5.21861 -1.02209,-0.32516 -3.82335,-3.1281 -4.25215,-4.25609 -0.21616,-0.56841 -0.6678,-0.94951 -1.12508,-0.94951 -0.42021,0 -1.24838,-0.60774 -1.8404,-1.35042 -0.59207,-0.74269 -1.6402,-1.53676 -2.32917,-1.76437 -1.11302,-0.36807 -1.25272,-0.57325 -1.25272,-1.84046 0,-1.74131 -0.74927,-2.87287 -2.7313,-4.12378 -0.93465,-0.59017 -1.50867,-1.24606 -1.50867,-1.72371 0,-0.70107 -0.28746,-1.42718 -1.21721,-3.07351 -0.17947,-0.31865 -0.48746,-0.94818 -0.68419,-1.40015 -0.1967,-0.45234 -0.90407,-1.21095 -1.57169,-1.68634 -0.98063,-0.69845 -1.53473,-0.82039 -2.88323,-0.63568 l -1.6693,0.22765 -1.18623,-2.45961 c -1.14033,-2.3646 -2.299,-3.81289 -7.0306,-8.78796 -1.19538,-1.25678 -2.49483,-2.92099 -2.88762,-3.6978 -1.10353,-2.18255 -1.71152,-2.76134 -2.90045,-2.76134 -0.82892,0 -1.09662,-0.18196 -1.09662,-0.74887 0,-1.35659 -1.53989,-3.44058 -2.9079,-3.93518 -1.13349,-0.41003 -1.33912,-0.68871 -1.55133,-2.10384 -0.35028,-2.33569 -2.43804,-4.00477 -5.00945,-4.00477 -0.76357,0 -0.94108,-0.19818 -0.95222,-1.06006 -0.005,-0.583 -0.2254,-1.4408 -0.48402,-1.90612 -0.67251,-1.20962 -3.24257,-3.25849 -5.39947,-4.30425 -1.01744,-0.49359 -2.2671,-1.31432 -2.777,-1.82418 -0.50993,-0.50987 -1.1649,-0.92706 -1.45561,-0.92706 -0.2907,0 -0.94898,-0.45034 -1.46297,-1.00019 -1.6251,-1.73968 -2.74945,-2.12142 -4.99409,-1.69576 -1.09774,0.20817 -2.12912,0.2959 -2.29192,0.19494 -0.16299,-0.10085 -0.75274,-1.1163 -1.31091,-2.25698 -0.55815,-1.14102 -2.05451,-3.20876 -3.32524,-4.59561 -1.2707,-1.38682 -2.31038,-2.69174 -2.31038,-2.89983 0,-0.20818 -0.40017,-0.64059 -0.88925,-0.96119 -0.48909,-0.32192 -1.55236,-1.54521 -2.36284,-2.72199 -1.62668,-2.36201 -2.88873,-3.03221 -5.05002,-2.68136 -1.22218,0.19819 -1.50843,0.0749 -2.49796,-1.08279 -0.61469,-0.71895 -1.12467,-1.55334 -1.13327,-1.85475 -0.0424,-1.48049 -2.48195,-2.6251 -2.95689,-1.38749 -0.28779,0.75046 1.15149,3.68804 2.36645,4.82939 0.62506,0.58725 0.96023,1.32146 0.96023,2.10349 0,0.92414 0.41163,1.59886 1.7811,2.92035 0.97963,0.94494 2.09739,2.41534 2.48388,3.26695 0.38652,0.85194 1.65325,2.59907 2.81498,3.88282 1.16172,1.28378 2.47892,3.0374 2.92716,3.8975 0.44824,0.86006 1.17198,1.88662 1.60827,2.2817 0.43636,0.39475 1.7268,2.13536 2.86774,3.86785 1.14087,1.73218 3.46579,4.8333 5.16646,6.89128 1.70063,2.05767 3.09209,3.86171 3.09209,4.00902 0,0.14627 2.39384,2.6849 5.31964,5.63905 3.68982,3.72546 5.59264,5.95901 6.21063,7.28995 0.94551,2.03651 6.95,8.88554 8.11385,9.25491 0.3796,0.12034 1.31929,1.12477 2.08809,2.23163 2.46617,3.55083 3.66764,5.01768 7.28977,8.89952 1.95183,2.09182 3.6721,3.99989 3.8229,4.24019 0.65946,1.05 9.92685,10.50068 11.65893,11.88913 1.05124,0.84283 2.66575,2.51354 3.58779,3.71244 0.92206,1.19924 1.89098,2.35391 2.15324,2.56559 0.26209,0.21142 1.48974,1.59982 2.7278,3.08389 5.37702,6.44482 16.60033,18.0556 23.2999,24.10373 4.50321,4.06525 8.81512,7.94839 12.24707,11.02935 4.76535,4.27789 8.99032,7.55429 10.98152,8.51583 0.77198,0.37296 2.21174,1.632 3.19954,2.79805 2.71085,3.19998 5.25949,4.25582 6.83376,2.83093 z M 216.55633,192.53897 c 0.37413,-0.45101 0.38722,-0.81387 0.0554,-1.54195 -0.71974,-1.57967 -3.14852,-1.08019 -3.14852,0.64743 0,1.30814 2.21754,1.94939 3.09309,0.89452 z"
       id="path12581-3"
       inkscape:connector-curvature="0" />
  </g>
</svg>
