<?xml version="1.0" encoding="UTF-8" standalone="no"?>
<!-- Created with Inkscape (http://www.inkscape.org/) -->

<svg
   xmlns:dc="http://purl.org/dc/elements/1.1/"
   xmlns:cc="http://creativecommons.org/ns#"
   xmlns:rdf="http://www.w3.org/1999/02/22-rdf-syntax-ns#"
   xmlns:svg="http://www.w3.org/2000/svg"
   xmlns="http://www.w3.org/2000/svg"
   xmlns:sodipodi="http://sodipodi.sourceforge.net/DTD/sodipodi-0.dtd"
   xmlns:inkscape="http://www.inkscape.org/namespaces/inkscape"
   width="210mm"
   height="297mm"
   viewBox="0 0 744.09448819 1052.3622047"
   id="svg8089"
   version="1.1"
   inkscape:version="0.91 r13725"
   sodipodi:docname="hand08.svg">
  <defs
     id="defs8091" />
  <sodipodi:namedview
     id="base"
     pagecolor="#ffffff"
     bordercolor="#666666"
     borderopacity="1.0"
     inkscape:pageopacity="0.0"
     inkscape:pageshadow="2"
     inkscape:zoom="0.35"
     inkscape:cx="395.22646"
     inkscape:cy="520"
     inkscape:document-units="px"
     inkscape:current-layer="layer1"
     showgrid="false"
     inkscape:window-width="464"
     inkscape:window-height="595"
     inkscape:window-x="900"
     inkscape:window-y="7"
     inkscape:window-maximized="0" />
  <metadata
     id="metadata8094">
    <rdf:RDF>
      <cc:Work
         rdf:about="">
        <dc:format>image/svg+xml</dc:format>
        <dc:type
           rdf:resource="http://purl.org/dc/dcmitype/StillImage" />
        <dc:title></dc:title>
      </cc:Work>
    </rdf:RDF>
  </metadata>
  <g
     inkscape:label="Layer 1"
     inkscape:groupmode="layer"
     id="layer1">
    <g
       style="display:inline;opacity:1"
       id="g34322"
       transform="matrix(0,-3.5791357,3.5791357,0,-1604.6105,2218.3783)">
      <path
         sodipodi:nodetypes="cccccccccccccccccccccccccccccccccc"
         inkscape:connector-curvature="0"
         id="path10771"
         d="m 590.35488,554.78559 c -1.77033,-6.98144 -10.69477,-4.82104 -15.63059,-3.26004 -21.07383,5.68253 -44.11883,9.16726 -66.1194,6.96377 -7.42629,-0.3782 -11.89589,-4.79302 -4.45704,-9.56001 13.41401,-3.89244 27.08231,-2.48385 40.95744,-3.62384 12.54597,-1.43506 25.63882,-2.97769 37.87789,-6.47229 6.96355,-1.24592 9.94948,-11.82395 1.7675,-13.60714 -20.75467,-3.45283 -42.05455,-1.58361 -62.99354,-3.41307 -14.00767,-1.12226 -23.19834,0.33782 -40.11585,1.5408 -14.45016,1.27941 -24.03917,3.29568 -34.98625,-1.26726 -3.3157,-1.37056 -5.3646,-3.77662 -0.31251,-3.4062 8.64551,-0.64016 18.30189,-0.91253 27.19747,-6.06834 7.46957,-3.60385 13.59701,-9.47994 14.85076,-18.0794 -0.38997,-3.41051 1.27871,-14.8915 -9.17195,-12.27634 -10.93337,6.47049 -23.45128,10.46414 -35.7094,13.72482 -19.07604,2.50076 -39.98093,-4.38998 -57.37298,6.64417 -13.04289,7.04513 -25.29161,20.49626 -22.90112,36.39183 1.08482,19.42747 -7.0858,39.38918 0.76035,58.2526 5.62153,15.11596 23.09156,20.35275 37.57079,22.49003 22.92666,2.60874 45.8489,5.29352 68.65867,8.76211 21.87864,0.54036 44.21433,-1.26401 65.22614,-7.63702 14.26766,-5.53217 29.6663,-9.04455 42.75798,-17.13357 1.56131,-1.66565 7.89538,-5.02541 4.75041,-7.59211 -12.01753,-1.5014 -24.00861,3.44879 -34.99898,7.87883 -13.82346,5.60625 -28.27614,13.48795 -43.61604,11.97447 -4.53854,-7.64857 42.02926,-16.13377 53.05053,-20.19352 9.46334,-5.22547 20.7791,-6.65307 29.7778,-12.55863 1.61907,-3.73048 -4.80444,-5.91536 -7.53004,-6.59923 -11.64974,-0.87346 -22.7014,4.82148 -33.96544,7.10208 -12.99273,3.15918 -25.8212,8.3786 -39.08818,9.73193 -5.15426,0.94414 -12.26937,-2.7791 -5.29372,-6.6074 19.92891,-2.38105 38.45572,-6.69546 58.07337,-11.48296 10.92038,-3.98302 23.07978,-8.31164 30.40176,-17.77098 0.34798,-0.9017 0.65251,-1.8687 0.58417,-2.84809 z"
         style="color:#000000;clip-rule:nonzero;display:inline;overflow:visible;visibility:visible;opacity:1;isolation:auto;mix-blend-mode:normal;color-interpolation:sRGB;color-interpolation-filters:linearRGB;solid-color:#000000;solid-opacity:1;fill:#000000;fill-opacity:1;fill-rule:evenodd;stroke:none;stroke-width:7;stroke-linecap:square;stroke-linejoin:round;stroke-miterlimit:4;stroke-dasharray:none;stroke-dashoffset:0;stroke-opacity:1;color-rendering:auto;image-rendering:auto;shape-rendering:auto;text-rendering:auto;enable-background:accumulate" />
      <path
         id="path10771-5"
         d="m 588.93037,529.11581 c -0.0842,-0.277 -0.19042,-0.54675 -0.31908,-0.80715 -0.40559,0.0337 -0.81301,0.0763 -1.20804,0 -1.70776,0.0848 -3.42431,-0.10709 -5.12706,0.077 -1.55186,0.40349 -3.18631,0.21908 -4.77844,0.32391 -0.56713,-0.0529 -0.99762,0.33306 -1.20805,0.75195 -0.45459,0.97215 -0.50319,2.07741 -0.21982,3.09299 0.23754,0.56341 0.29006,1.14195 0.26824,1.73873 0.0177,0.66986 0.24405,1.53333 1.11072,1.7203 1.36481,0.20925 2.76009,-0.0616 4.13157,0.0973 1.04155,-0.27233 2.11991,-0.53674 3.21936,-0.45902 0.97354,0.15395 1.92755,-0.0491 2.8751,-0.24111 0.21475,-0.3084 0.41084,-0.62797 0.58248,-0.95676 -0.27428,0.0196 -0.54845,0.0749 -0.80181,0.14138 -1.0339,0.48576 -2.23411,0.24319 -3.34961,0.2484 -0.74973,-0.0476 -1.40493,0.31855 -2.13769,0.36749 -1.09385,0.0647 -2.18997,0.0697 -3.28521,0.10796 -0.59403,0.0323 -1.36835,-0.13657 -1.48306,-0.73062 0.26996,-1.07809 -0.30507,-2.11881 -0.42221,-3.17967 -0.0345,-0.45611 -0.019,-0.92604 0.10749,-1.3688 0.26876,-0.59826 1.12797,-0.64668 1.76147,-0.60087 1.30204,0.18102 2.59809,-0.096 3.8672,-0.32053 2.13833,-0.005 4.28136,-0.17188 6.41645,-0.003 z m -0.47257,22.9345 c -0.19731,-0.21982 -0.40853,-0.42012 -0.63283,-0.60089 -0.0676,0.0335 -0.16059,0.077 -0.20965,0.10169 -0.81885,0.59135 -1.79025,0.88977 -2.63979,1.42061 -0.77869,0.62162 -1.72514,0.99008 -2.43934,1.69318 -0.88115,0.7133 -1.77423,1.41082 -2.572,2.21177 -0.71754,0.59155 -1.73668,1.18295 -1.69949,2.2389 0.26656,0.72358 0.41486,1.49947 0.84055,2.11201 0.31025,0.91175 0.714,1.77859 0.88751,2.73371 -0.029,0.92605 0.63744,1.13587 1.33975,1.07102 0.31139,-0.21657 0.6197,-0.43713 0.92479,-0.66138 -0.36469,-0.18008 -1.17045,-0.22034 -1.31263,-0.0164 9.9e-4,0.0429 -0.002,0.0811 -0.0155,0.10989 -0.0131,-0.0426 -0.006,-0.079 0.0155,-0.10989 -0.008,-0.36286 -0.45843,-1.18049 -0.44061,-1.64963 -0.33005,-0.85232 -0.65051,-1.69915 -1.05117,-2.55118 -0.0615,-0.0604 -0.24293,-0.58897 -0.44061,-1.05698 0.26551,-0.95723 1.23491,-1.43301 1.95079,-2.03262 0.51128,-0.61467 1.15445,-1.09543 1.78762,-1.58765 0.98188,-0.93514 2.28478,-1.41126 3.3254,-2.25245 0.80686,-0.36412 1.56453,-0.82812 2.38171,-1.17318 l 0,0 z m -2.62962,27.76956 c -0.27336,-0.2691 -0.58492,-0.52236 -0.92576,-0.7592 -0.21732,0.0144 -0.42305,0.0134 -0.58684,-0.0455 -0.87592,0.25879 -1.7735,0.41172 -2.67707,0.39511 -0.73778,-0.13635 -1.38903,0.41683 -2.1159,0.39848 -0.77882,0.0604 -1.44694,0.76426 -2.26744,0.59217 -0.71511,0.37002 -1.67233,0.54482 -2.06119,1.47143 -0.0647,1.02595 0.0525,1.95527 -0.0813,2.98211 0.28457,1.01328 -0.27382,2.23567 0.39413,3.11818 0.22717,0.23556 0.56474,0.27062 0.86137,0.26097 0.89947,-0.33474 1.79368,-0.67913 2.67707,-1.0439 -0.0911,-0.20784 -0.37403,-0.32515 -0.62702,-0.0717 -0.65747,0.24158 -1.25314,0.26711 -1.85105,0.11765 -0.48889,0.42828 -0.77136,-0.22646 -0.63138,-0.78439 -0.01,-0.69317 0.087,-1.38435 0.0542,-2.07523 -0.13394,-0.70836 -0.009,-1.48341 -0.0692,-2.22241 0.34894,-0.30048 0.53563,-0.44429 0.89381,-0.55101 0.7676,-0.51899 1.76981,-0.20703 2.45144,-0.86524 0.79219,0.0463 1.54456,-0.28097 2.32216,-0.43529 1.25786,-0.0121 2.49291,-0.33608 3.7447,-0.44543 0.15485,-0.0109 0.32755,-0.0136 0.49532,-0.0368 z m -2.63543,18.59908 c -0.0169,-0.0193 -0.0324,-0.0405 -0.0523,-0.0562 -0.0307,-0.0243 -0.0812,-0.0171 -0.10797,-0.0455 -0.0211,-0.10834 0.005,-0.0677 -0.0634,-0.13075 -0.0494,-0.17812 -0.22569,-0.12392 -0.28325,-0.275 -0.19789,-0.18669 -0.3758,-0.32302 -0.53309,-0.42319 -0.14734,0.0794 -0.35469,0.15434 -0.62363,0.21498 0.0924,0.20318 0.28876,0.46908 0.61782,0.77953 0.12597,0.0735 0.24591,0.17135 0.22321,0.32781 0.18394,-0.0521 0.21773,0.12603 0.29148,0.27115 -0.002,0.0562 0.0321,0.13142 0.0581,0.20916 0.20638,-0.28995 0.36888,-0.58158 0.47305,-0.87203 z m -1.66366,-0.71562 0,0 c 0,0 -5e-4,0 -5e-4,0 1.7e-4,0 2.5e-4,0 5e-4,0 z m -5e-4,0 c -0.19113,-0.42169 0.0806,-0.56026 0.62412,-0.21402 0.59095,-0.31848 0.21929,-0.70528 -1.00856,-0.50064 -0.53532,0 -1.05719,0.17463 -1.58136,0.22951 -0.20212,0.0206 -0.40737,-0.0226 -0.60959,-0.002 -0.25381,0.0253 -0.83262,0.1865 -1.09087,0.2542 -0.67631,0.0454 -1.31466,0.26196 -1.97113,0.39122 -0.22647,0.19926 -0.57323,0.27088 -0.8023,0.45852 -0.39256,0.32161 0.0176,0.13672 -0.37234,0.28083 -0.10063,0.27847 -0.4292,0.39749 -0.58296,0.62365 -0.0437,0.0643 -0.0493,0.14755 -0.0741,0.22125 -0.0562,0.0726 -0.11277,0.14525 -0.16898,0.21791 -0.0565,0.51135 -0.17867,0.98279 -0.11088,1.50436 -0.20074,0.36035 0.0134,0.76257 0.24452,1.06521 -0.0201,0.32533 0.17977,0.32867 0.31762,0.49968 0.16372,0.20308 -0.0953,0.2949 0.40333,0.44062 0.49634,0.46653 -0.0915,-0.0183 0.42415,0.22902 0.61041,0.29284 -0.32703,-0.0124 0.3031,0.23337 0.19423,0.0758 0.40113,0.11488 0.59749,0.18496 0.2881,0.0564 0.55199,-0.16773 0.82553,-0.18012 0.10129,-0.005 0.19848,0.057 0.29972,0.0513 0.24959,-0.0139 0.46703,-0.17777 0.67059,-0.29439 0.0735,0.006 0.14279,0.004 0.21208,0.003 0.41034,-0.36207 0.96255,-0.78155 1.55569,-1.23952 -0.0393,0.009 -0.0775,0.024 -0.11233,0.0523 -0.58636,0.21937 -1.21163,0.32027 -1.7852,0.58587 -0.11656,0.0146 -0.54083,0.0717 -0.6522,0.0717 -0.10624,0 -0.21276,-0.0433 -0.31762,-0.0262 -0.22946,0.0374 -0.37556,0.19448 -0.63042,0.0794 -0.0427,0.0316 -0.075,0.10035 -0.12782,0.0949 -0.0622,-0.006 -0.0885,-0.0915 -0.14284,-0.12249 -0.19174,-0.10965 -0.45226,-0.11329 -0.61249,-0.2697 -0.0561,-0.0126 -0.12441,-2e-5 -0.16802,-0.0378 -0.0369,-0.0317 -0.0174,-0.0972 -0.0397,-0.14041 -0.0346,-0.0672 -0.0845,-0.12514 -0.12879,-0.1864 -0.0503,-0.0696 -0.15219,-0.0964 -0.19126,-0.17286 -0.0346,-0.0677 -0.026,-0.14971 -0.0392,-0.22465 -0.0394,-0.26719 -0.26681,-0.15693 -0.21885,-0.37139 0.0143,-0.064 0.0861,-0.10813 0.0939,-0.17333 0.007,-0.055 -0.0362,-0.10452 -0.0542,-0.15687 0.0132,-0.0638 0.0761,-0.34085 0.0663,-0.40381 -0.0114,-0.0739 -0.0874,-0.1306 -0.0906,-0.20529 -0.008,-0.18687 0.23848,-0.35024 0.13751,-0.55345 0.10562,-0.53217 0.37414,-0.3993 0.61589,-0.79889 0.10768,-0.082 0.29657,-0.30383 0.41737,-0.36316 0.0733,-0.0361 0.16635,-0.0174 0.2387,-0.0552 0.0422,-0.0221 0.0572,-0.0762 0.0857,-0.11429 0.0709,-0.0276 0.14162,-0.0552 0.21256,-0.0828 0.4812,-0.0591 -0.13265,0.0482 0.35588,-0.15637 0.45377,-0.19005 1.02556,0.0428 1.44578,-0.28276 1.09253,-0.19213 2.20206,-0.11166 3.27989,-0.39268 0.0918,-0.0154 0.17646,-0.0326 0.2571,-0.0508 z m -35.09291,15.09357 c 0.004,-0.12507 -0.001,-0.23511 -0.0203,-0.31377 -0.2443,-0.70182 -0.16241,-0.33145 -0.23047,-1.11507 -0.0631,-0.20207 -0.21773,-0.36355 -0.3094,-0.55439 -0.26111,-0.54355 -0.468,-1.11606 -0.75872,-1.64722 -0.77534,-1.55069 -1.50646,-1.1851 -0.73112,0.36556 0.51673,1.00971 1.08864,1.99414 1.27196,3.12495 0.1314,0.85234 -0.18525,0.90376 -0.85459,1.2831 -0.19306,0.072 -0.36185,0.17398 -0.51663,0.29585 0.0331,-0.3497 0.0669,-0.72505 0.0644,-0.80812 -0.008,-0.26216 -0.0801,-0.51881 -0.0978,-0.7805 -0.0184,-0.2719 0.0275,-0.54792 -0.0102,-0.81781 -0.0155,-0.11113 -0.33531,-1.17858 -0.38687,-1.35281 -0.41697,-1.45938 -1.10451,-1.2628 -0.68754,0.19659 0.0501,0.19148 0.10002,0.38279 0.1501,0.57424 0.0137,0.2511 -0.009,0.50694 0.0407,0.75338 0.19693,0.97173 0.40215,0.491 0.25516,1.47872 -0.28468,1.9131 -0.13836,-0.56053 -0.20626,1.05892 -0.17148,0.29221 -0.30175,0.53505 -0.60136,0.69237 -1.49324,1.11185 -0.96935,1.81587 0.52389,0.70403 0.0884,-0.0919 0.17175,-0.1861 0.25178,-0.28229 0.10654,0.21654 0.52595,0.0271 1.03325,-0.72242 -0.003,0.18181 0.43346,-0.585 0.60039,-0.26823 0.14175,-0.10605 0.90036,-0.68811 0.96886,-0.78776 0.13256,-0.1928 0.23812,-0.70214 0.25081,-1.07732 z m -0.22224,-36.53968 c 7.4e-4,-0.0618 -0.0209,-0.13389 -0.0533,-0.40088 0.0239,-1.4492 -0.0654,-2.91153 -0.41253,-4.32235 -0.33634,-1.55404 -0.92275,-3.03011 -1.40705,-4.53925 -0.57568,-1.72704 -1.3896,-1.45589 -0.81392,0.27114 0.58977,1.4541 1.16862,2.91249 1.47532,4.45597 0.34745,0.75821 0.2803,1.56315 0.33215,2.36671 0.0144,0.22254 0.0689,0.44184 0.0746,0.66478 0.0515,2.0254 -0.15275,-0.71513 9.9e-4,1.10686 -0.0499,0.51383 -0.0509,0.27498 -0.0155,0.71563 -0.0437,1.56648 0.69466,1.58735 0.73838,0.0208 0.0573,-0.22611 0.0802,-0.27763 0.0809,-0.33943 z m -0.33022,14.47285 c 0.0272,-0.66808 -0.50353,-0.54068 -0.97176,0.62992 -0.52727,1.31828 -0.80434,2.72084 -1.35185,4.02747 -0.40206,0.82733 -0.55426,1.81007 -1.16108,2.51972 -0.66254,1.4512 0.0211,1.76349 0.68367,0.31228 0.11289,-0.22668 0.22748,-0.47116 0.36798,-0.68124 0.11055,-0.16527 0.26909,-0.29996 0.35685,-0.47838 0.21575,-0.43866 0.20455,-0.96791 0.48612,-1.38332 0.11951,-0.24902 0.26735,-0.48629 0.3583,-0.74711 0.0335,-0.096 0.32571,-1.48623 0.3583,-1.59006 0.1787,-0.56948 0.50569,-1.09687 0.63719,-1.68544 0.15608,-0.3902 0.22722,-0.70115 0.23628,-0.92384 z m -0.96886,-58.4748 c -2.4e-4,-0.11967 -0.0103,-0.22966 -0.0349,-0.32052 -0.0432,-0.15945 -0.15686,-0.29089 -0.23531,-0.43626 -0.0407,-0.19475 -0.0813,-0.38918 -0.12202,-0.58394 -0.0865,-0.45492 -0.1016,-0.9254 -0.23192,-1.36976 -0.0752,-0.25653 -0.24138,-0.48037 -0.31811,-0.73645 -0.19983,-0.66684 -0.0793,-1.40591 -0.51518,-1.9958 -0.42566,-1.4898 -1.12821,-1.28935 -0.70255,0.20046 0.41748,1.34445 0.69675,2.7281 1.06956,4.08991 0.12888,0.68437 0.53098,1.39763 0.17915,2.06167 -0.035,0.49896 -0.1939,0.99256 -0.19464,1.49421 -10e-4,0.95255 0.10393,-0.0445 -0.0111,0.81586 -0.005,0.35026 -0.0385,0.69586 -0.0494,1.04389 -0.004,0.12433 0.0687,0.54095 0.0276,0.65075 -0.0438,0.11711 -0.16138,0.19114 -0.24209,0.28665 -0.14603,0.44836 -0.28891,0.90954 -0.58345,1.28067 -0.86098,1.53606 -0.13664,1.94181 0.72435,0.40575 0.28936,-0.42573 0.47828,-0.94397 0.61443,-1.43755 0.12657,-0.30303 0.29395,-0.85598 0.3094,-1.18627 0.0158,-0.33727 -0.23282,-0.6738 -0.0712,-1.01824 0.0755,-0.37726 0.14931,-0.79188 0.17237,-1.17511 0.0201,-0.33477 -0.0981,-0.66505 0.0847,-0.98001 0.0447,-0.28422 0.13112,-0.73087 0.13025,-1.08991 z m -1.4787,42.2521 c -0.0105,-0.55927 -0.0579,-1.11981 -0.092,-1.67335 -0.0545,-0.51029 -0.0472,-1.02714 -0.11862,-1.53534 -0.036,-0.25599 -0.13801,-0.49908 -0.17867,-0.75438 -0.0392,-0.24584 -0.0162,-0.49962 -0.06,-0.74467 -0.3819,-2.13674 -0.0636,0.51402 -0.24839,-1.18141 -0.2813,-1.68783 -1.07682,-1.55518 -0.79552,0.13265 0.20951,1.38729 0.58098,2.74124 0.63865,4.14902 -0.0143,0.23702 -0.062,0.47458 -0.0431,0.71126 0.0178,0.22229 0.12716,0.42961 0.15204,0.65124 0.067,0.5973 -0.0516,0.5354 -0.0804,1.08458 -0.0469,0.89419 0.10683,-0.0922 -0.0281,0.65898 -0.0133,0.0921 -0.0269,0.18387 -0.0402,0.27596 -0.39196,1.43152 0.283,1.61648 0.67496,0.18496 0.0301,-0.0982 0.0604,-0.19663 0.0905,-0.29485 0.11304,-0.54782 0.13934,-1.10538 0.1288,-1.66465 z m -0.31085,17.74547 c -0.0149,-0.47136 -0.49048,-0.32247 -0.98532,0.66721 -0.41618,0.84453 -0.95037,1.62523 -1.38671,2.46111 -0.6502,1.24552 0.0723,0.22522 -0.75049,1.27681 -0.1708,0.5758 -0.58889,1.06452 -0.77664,1.63073 -0.0526,0.15851 -0.0593,0.32957 -0.10894,0.48904 0.37975,1.49687 1.07093,1.37299 0.76598,-0.0305 10e-4,0 10e-4,0.002 0.003,0.002 0.0481,0.01 0.0269,-0.0952 0.0475,-0.13992 0.0343,-0.0749 0.0787,-0.14488 0.11669,-0.21791 0.22999,-0.44164 0.44647,-0.89059 0.58635,-1.37071 1.06143,-1.31833 -0.1075,0.2453 0.74323,-1.27583 0.13538,-0.24208 0.34181,-0.43842 0.48661,-0.67497 0.35397,-0.57829 0.60289,-1.22844 0.95239,-1.81087 0.22493,-0.44984 0.31327,-0.79237 0.30649,-1.00661 z m -1.84524,-59.07034 c -0.0111,-0.63533 -0.10295,-1.28126 -0.29584,-1.86994 -0.0413,-1.39661 -0.45262,-2.74821 -0.64009,-4.12913 l 0,0 c -0.27307,-1.63842 -1.04535,-1.50964 -0.77228,0.12879 0.0127,0.39634 0.19113,0.76156 0.23919,1.15042 0.0295,0.23875 -0.0179,0.48386 0.017,0.72192 0.0362,0.2477 0.14956,0.47907 0.19464,0.72532 0.36141,1.97435 -0.24617,-0.43138 0.28131,1.5189 0.21706,0.60603 0.10205,1.2128 0.10991,1.82829 0.002,0.18003 0.0522,0.35706 0.0591,0.53696 0.0148,0.391 -0.0326,0.59316 -0.0891,0.97369 0.0381,0.64259 -0.14488,1.28405 -0.13218,1.92319 0.0297,1.49573 0.0887,-0.4882 0.0373,0.81151 0.0865,0.43046 0.0934,0.22589 0.006,0.61347 -0.003,1.57223 0.73773,1.57359 0.74081,0.002 0.0279,-0.38601 -5e-4,-0.18378 0.0949,-0.60524 -0.1384,-0.67881 -0.0539,-0.0484 -0.0111,-0.79889 0.0361,-0.63446 -0.15888,-1.28 0.0934,-1.89706 -0.0864,-1.12781 -0.0249,0.18831 0.0523,-1.00421 0.0134,-0.20695 0.0187,-0.41767 0.015,-0.62943 z m -57.57275,-47.59026 c 0.008,-0.52258 -0.25867,-1.0169 -0.25371,-1.5402 -0.59856,-1.49637 -1.30401,-1.21408 -0.70546,0.28229 0.30536,0.91223 0.0228,1.82395 -0.0504,2.7434 -0.19893,0.81062 -0.50826,1.48346 -1.30052,1.82636 -0.26972,0.38742 -0.70147,0.58964 -1.04875,0.89089 -0.34654,0.30063 -0.62144,0.60233 -1.00324,0.86379 -0.41577,0.10804 -0.46738,0.44978 -0.73064,0.7224 -0.16487,0.17073 -0.34644,0.1443 -0.50742,0.28665 -0.16975,0.036 -0.28087,0.23179 -0.42512,0.29002 -0.1831,0.0739 -0.38635,0.0856 -0.57376,0.14768 -0.7803,0.31989 -1.4839,0.80392 -2.31393,0.96742 -0.23807,0.0833 -0.45978,0.22722 -0.69191,0.33697 -0.0128,-0.0141 -0.0307,-0.03 -0.0552,-0.0484 0.0217,-0.0427 0.0627,-0.08 0.0654,-0.12782 0.0153,-0.27758 -0.0429,-0.0857 -0.12201,-0.22175 -0.17149,-0.29498 0.18608,0.13619 -0.003,-0.26873 -0.0272,-0.0581 -0.10043,-0.08 -0.15058,-0.12009 -0.05,-0.096 -0.0593,-0.21247 -0.12202,-0.30068 -0.0269,-0.0379 -0.0919,-0.0396 -0.11427,-0.0804 -0.11902,-0.21652 -0.007,-0.5057 -0.21643,-0.68754 -0.25665,-0.35978 -0.39057,-0.79148 -0.60814,-1.17657 -0.0684,-0.12105 -0.17354,-0.22207 -0.22418,-0.35153 -0.0616,-0.15749 -0.0713,-0.33053 -0.107,-0.49581 -0.77073,-1.04384 -1.32843,-2.22362 -2.10089,-3.26972 -1.06826,-1.33534 -1.69771,-0.83177 -0.62944,0.50356 0.48568,0.69089 0.93025,1.41055 1.41286,2.10429 0.12233,0.17586 0.27924,0.32911 0.38105,0.51759 0.0914,0.1692 0.12808,0.36293 0.19222,0.54423 0.0516,0.14782 0.0835,0.3037 0.15494,0.44303 0.0674,0.13138 0.18655,0.23126 0.25759,0.36072 0.22112,0.40302 0.30844,0.83596 0.58974,1.21143 0.1233,0.13578 0.0894,0.36658 0.16995,0.51567 0.042,0.0777 0.11963,0.13248 0.16075,0.21062 0.31281,0.59427 -0.13279,-0.0669 0.13412,0.31421 0.0167,0.17091 0.194,0.25941 0.1501,0.414 0.0152,0.0191 0.0837,0.0773 0.0523,0.12006 -0.13428,0.18315 -0.19581,-0.1235 -0.0213,0.24307 -0.26839,0.13191 -0.35524,0.29191 -0.66189,0.21982 -0.16839,0.13617 -0.36423,0.0221 -0.56892,0.0484 0.024,0.0164 -3.3e-4,0.0166 -0.0349,0.0131 -0.0193,-0.01 -0.0593,-0.031 -0.0973,-0.0755 -0.0155,-0.0183 -0.0142,-0.046 -0.0213,-0.0688 -0.0545,-0.0488 -0.10914,-0.0979 -0.16365,-0.14671 -0.39693,-0.6266 -0.69868,-1.30167 -1.00711,-1.97401 -0.30347,-0.29168 -0.38576,-0.62087 -0.5268,-0.99018 -0.11044,-0.28918 -0.27104,-0.45708 -0.31714,-0.7684 -0.31258,-0.40287 -0.45804,-0.85861 -0.66672,-1.31505 3.2e-4,-0.31249 -0.24353,-0.44182 -0.39462,-0.65752 -0.10437,-0.14901 -0.2022,-0.44732 -0.26581,-0.61639 -0.15602,-0.11282 -0.21204,-0.24599 -0.34959,-0.37379 -1.34139,-1.2087 -1.91127,-0.57635 -0.56989,0.63236 0.1441,-0.0196 0.11034,0.20531 0.25275,0.2329 0.14597,0.22257 0.26879,0.49145 0.4256,0.70013 0.0468,0.0623 0.13544,0.0897 0.1714,0.15881 0.0371,0.0713 0.024,0.15918 0.0358,0.23871 0.43669,0.63996 0.004,0.25826 0.15155,0.74854 0.0528,0.17562 0.55666,0.26432 0.48032,0.54665 0.0566,0.19158 0.0742,0.39913 0.16946,0.57474 0.0511,0.0942 0.15908,0.14889 0.21014,0.24305 0.17838,0.32894 0.17891,0.75055 0.51227,1.0018 0.14417,0.45201 0.35702,0.72869 0.59845,1.1262 0.12921,0.21273 0.16723,0.47303 0.29826,0.68464 0.0587,0.0948 0.15424,0.16121 0.23144,0.24163 0.17461,0.33777 0.42105,0.70913 0.85411,0.57568 0.18031,0.18368 0.49168,-0.0176 0.74081,0.0721 0.16938,-0.0851 0.3959,-0.0608 0.551,-0.1622 0.048,-0.0314 0.0473,-0.10992 0.093,-0.14475 0.30805,-0.23524 0.10505,0.0585 0.22611,-0.13607 0.0562,-0.0203 0.10933,-0.0435 0.16462,-0.0649 0.97816,0.84865 1.43514,0.51336 0.72386,-0.28132 0.15708,-0.0584 0.31527,-0.11374 0.47935,-0.15688 0.85815,-0.26468 -0.0744,0.0602 0.73354,-0.3399 0.51897,-0.25697 1.08825,-0.42927 1.60266,-0.69576 0.39491,-0.16107 0.79581,-0.28527 1.11847,-0.55875 0.11468,-0.072 0.24716,-0.12019 0.34523,-0.21352 0.0575,-0.0548 0.0842,-0.13799 0.14477,-0.18933 0.26362,-0.22341 0.64211,-0.32547 0.86912,-0.60379 0.44967,-0.38993 0.23706,-0.18075 0.63864,-0.6275 0.10535,-0.0965 0.24823,-0.14946 0.34377,-0.25566 0.099,-0.10999 0.1111,-0.29052 0.22854,-0.38056 0.25025,-0.19182 0.67289,-0.0676 0.85749,-0.39994 0.78267,-0.63337 1.25874,-1.41893 1.53778,-2.38607 0.0402,-0.36782 0.0611,-0.73801 0.11233,-1.10444 0.0255,-0.18226 0.0989,-0.35874 0.10168,-0.54276 z m -36.83211,40.2127 c 0,-0.22386 -0.4747,-0.4474 -1.42448,-0.4474 -0.19772,0.024 -0.39401,0.0774 -0.59312,0.0721 -0.51921,-0.0136 -1.02915,-0.15677 -1.54795,-0.18156 -0.31006,-0.0146 -0.62142,0.0122 -0.93109,-0.009 -0.67921,-0.047 -1.32714,-0.18586 -1.99485,-0.30842 -1.39415,-0.18645 -2.84142,-0.28226 -4.19839,-0.6827 -2.5774,-0.7606 0.59742,-0.0498 -1.95805,-0.57764 -1.55595,-0.4824 -3.21116,-0.75254 -4.70533,-1.40802 -0.87556,-0.187 -1.70722,-0.55206 -2.48969,-0.98145 -0.18889,-0.17311 -0.0921,-0.10774 -0.28228,-0.20869 -1.19292,-1.10327 -1.71294,-0.54112 -0.52002,0.56215 0.19889,0.25412 0.07,0.14765 0.40769,0.29342 0.85047,0.43983 1.71054,0.92264 2.66738,1.07052 0.41851,0.17926 0.90116,0.4083 1.34895,0.50163 0.25828,0.0539 0.53154,0.0166 0.78729,0.0813 0.28302,0.0717 0.53755,0.22929 0.81343,0.3249 0.74264,0.25738 1.01732,0.28735 1.79682,0.4503 2.14255,0.62588 -0.26839,-0.0508 1.99969,0.49627 1.40149,0.33807 2.79188,0.75849 4.2347,0.89575 2.37615,0.0724 -0.3123,-0.0754 2.03214,0.26097 1.03367,0.14832 2.10722,0.009 3.13268,0.24357 0.94978,0 1.42448,-0.22403 1.42448,-0.44789 z m -5.83784,-2.18949 c -0.0266,-0.15259 -0.30193,-0.37245 -0.85943,-0.55828 -0.70606,-0.47362 -1.54008,-0.55235 -2.32652,-0.7926 -0.36304,-0.11091 -0.70683,-0.2779 -1.06424,-0.40577 -0.81422,-0.29131 -1.63863,-0.55265 -2.45774,-0.82988 -1.29296,-0.31729 -2.55844,-0.74634 -3.85364,-1.05456 -0.41608,-0.099 -0.84484,-0.144 -1.25744,-0.25663 -2.98435,-0.81461 0.60284,-0.0696 -2.41561,-0.64541 -0.37459,-0.10442 -0.74975,-0.20691 -1.12379,-0.31328 -1.54534,-0.43943 -3.12256,-0.65828 -4.67483,-1.05262 -0.46995,-0.0897 -0.9718,0.0552 -1.43465,-0.0896 -0.0942,-0.0295 -0.16988,-0.0857 -0.22563,-0.13169 -0.89953,-1.35452 -1.5407,-0.91821 -0.63477,0.48225 0.79975,0.63756 1.19595,0.41826 2.15948,0.59844 0.72131,0.058 0.83777,0.0432 1.5736,0.21015 0.20728,0.0471 1.80394,0.4963 1.95225,0.52486 0.36769,0.0708 0.74706,0.067 1.11508,0.13605 0.38322,0.0719 0.75591,0.19076 1.13397,0.28615 1.2084,0.33596 2.41154,0.7212 3.62656,1.03037 1.27986,0.32567 2.56704,0.60406 3.80087,1.09667 1.19781,0.32845 2.3779,0.69351 3.55054,1.10394 0.36437,0.12755 1.33383,0.51239 1.74937,0.61637 0.19836,0.0496 0.40478,0.0585 0.60717,0.0876 0.71679,0.23891 1.09356,0.15356 1.0594,-0.0426 z"
         style="color:#000000;clip-rule:nonzero;display:inline;overflow:visible;visibility:visible;opacity:1;isolation:auto;mix-blend-mode:normal;color-interpolation:sRGB;color-interpolation-filters:linearRGB;solid-color:#000000;solid-opacity:1;fill:#ffffff;fill-opacity:1;fill-rule:evenodd;stroke:none;stroke-width:7;stroke-linecap:square;stroke-linejoin:round;stroke-miterlimit:4;stroke-dasharray:none;stroke-dashoffset:0;stroke-opacity:1;color-rendering:auto;image-rendering:auto;shape-rendering:auto;text-rendering:auto;enable-background:accumulate"
         inkscape:connector-curvature="0" />
    </g>
  </g>
</svg>
