<?xml version="1.0" encoding="UTF-8" standalone="no"?>
<!-- Created with Inkscape (http://www.inkscape.org/) -->

<svg
   xmlns:dc="http://purl.org/dc/elements/1.1/"
   xmlns:cc="http://creativecommons.org/ns#"
   xmlns:rdf="http://www.w3.org/1999/02/22-rdf-syntax-ns#"
   xmlns:svg="http://www.w3.org/2000/svg"
   xmlns="http://www.w3.org/2000/svg"
   xmlns:sodipodi="http://sodipodi.sourceforge.net/DTD/sodipodi-0.dtd"
   xmlns:inkscape="http://www.inkscape.org/namespaces/inkscape"
   width="210mm"
   height="297mm"
   viewBox="0 0 744.09448819 1052.3622047"
   id="svg8089"
   version="1.1"
   inkscape:version="0.91 r13725"
   sodipodi:docname="hand03.svg">
  <defs
     id="defs8091" />
  <sodipodi:namedview
     id="base"
     pagecolor="#ffffff"
     bordercolor="#666666"
     borderopacity="1.0"
     inkscape:pageopacity="0.0"
     inkscape:pageshadow="2"
     inkscape:zoom="0.35"
     inkscape:cx="402.95286"
     inkscape:cy="520"
     inkscape:document-units="px"
     inkscape:current-layer="layer1"
     showgrid="false"
     inkscape:window-width="464"
     inkscape:window-height="595"
     inkscape:window-x="900"
     inkscape:window-y="7"
     inkscape:window-maximized="0" />
  <metadata
     id="metadata8094">
    <rdf:RDF>
      <cc:Work
         rdf:about="">
        <dc:format>image/svg+xml</dc:format>
        <dc:type
           rdf:resource="http://purl.org/dc/dcmitype/StillImage" />
        <dc:title></dc:title>
      </cc:Work>
    </rdf:RDF>
  </metadata>
  <g
     inkscape:label="Layer 1"
     inkscape:groupmode="layer"
     id="layer1">
    <path
       style="display:inline;opacity:1;fill:#000000;fill-opacity:1;fill-rule:nonzero;stroke:none;stroke-width:1px;stroke-linecap:butt;stroke-linejoin:miter;stroke-opacity:1"
       d="M 544.02366,512.71126 C 544.06626,464.64679 530.86922,417.12422 528.37104,369.0651 507.94832,282.97093 500.2218,175.80599 439.49399,107.97825 414.70664,77.618167 364.62933,93.225347 370.14156,135.04903 c 0.41702,45.8632 -30.79173,81.30092 -51.49726,119.25937 -15.03194,42.3819 -16.00179,88.7703 -13.60838,133.27307 -2.05767,40.55373 23.42458,84.60381 69.00495,81.13924 11.35909,-0.0223 23.22229,-2.51058 34.16604,-7.09843 1.26455,58.24864 2.83261,73.06418 -55.12852,69.02354 -53.6405,2.68728 -109.20784,-7.26679 -160.96844,10.45222 -32.84895,13.55633 -32.53671,55.68193 -31.78971,85.77596 0.3229,0.54852 0.61639,1.00631 0.92009,1.49892 -0.1666,0.46164 -0.24598,0.86757 -0.26187,1.23062 -85.243454,-6.68073 -67.763444,87.86178 -25.45323,91.80188 46.70385,3.67266 93.50632,12.52012 140.48403,7.41492 21.18574,-1.32582 42.56785,-1.45622 63.81399,-3.07999 -5.48619,10.1846 -18.11601,16.03892 -32.79198,18.3305 -35.04705,7.84861 -70.73334,65.12505 -25.10575,81.93746 36.90492,-7.94551 74.88724,-8.9783 112.07585,-15.48509 19.27427,-5.26805 42.91913,-5.95335 61.77272,-14.22091 2.34731,9.67106 9.70311,24.91921 9.71227,28.17657 -5.55936,29.90234 -45.37015,42.81049 -68.92279,60.24353 -17.63195,11.60131 -47.65938,45.92848 -63.74718,14.22072 -11.59192,-39.49426 33.09033,-65.61061 53.9871,-88.86235 -20.1487,3.5967 -60.7517,32.36726 -62.67555,59.78722 -16.56075,34.67272 25.85747,69.13987 53.45609,40.84974 20.65026,-20.02938 48.43136,-29.25205 69.78208,-48.52076 32.23726,-9.56543 31.51907,-46.11779 16.94129,-70.43687 6.03873,-3.8716 11.31041,-8.91214 15.39053,-15.68934 6.29762,-28.34154 -7.50287,-56.78684 -20.6031,-81.72698 11.34096,-6.81606 22.13188,-14.63564 32.29233,-23.07691 33.41156,-17.8313 29.56982,-58.12932 22.2879,-89.44673 12.2292,-11.96968 22.14316,-26.362 28.81023,-42.34585 1.06779,-8.94479 1.5307,-17.86202 1.53839,-26.76304 z m -7.97562,-2.16909 c 0.81103,35.6786 -24.08534,67.35838 -54.86342,83.97547 -35.26473,15.09025 -73.7879,22.05994 -111.23495,30.27566 -66.77315,12.69556 -134.26624,9.63284 -199.28072,-0.9536 -0.0705,-12.15281 -1.92066,-30.13521 0.58819,-36.44459 0.59376,-35.92317 37.5845,-45.7686 67.05232,-46.82402 51.49984,-1.31706 103.20305,-0.3609 154.75664,-0.20921 41.51605,-0.89234 30.43058,-58.50473 29.85284,-84.72547 0,0 30.50786,-32.94712 28.43802,-57.492 -8.12457,-75.66265 21.56095,-140.28404 26.81834,-187.97254 11.44486,29.67508 23.42395,84.57937 39.0392,150.72057 6.41247,46.08875 11.0748,92.41314 17.73356,138.46411 0.65607,3.76423 1.01591,7.49563 1.09957,11.18664 z M 510.5005,627.93411 c 0.0852,4.51166 -0.6166,8.13738 -2.69901,10.12651 -17.32484,29.25013 -50.07091,47.23146 -79.9481,62.15672 -43.80744,12.72075 -89.71029,18.06903 -135.25011,18.11706 -36.79953,5.38884 -73.5476,1.24834 -110.35459,-0.99906 -81.19556,11.39343 -109.441284,-86.58057 -9.55068,-81.0052 10.63042,-0.40485 10.88419,0.3494 10.63042,-0.40485 98.48245,17.02005 171.06597,8.42549 261.52409,-19.30567 22.04735,-3.34077 42.54757,-12.80143 59.59472,-26.58334 0.98519,10.70451 5.84452,26.91864 6.05326,37.89783 z m -37.96485,132.60593 c -0.0223,11.4594 -4.63885,21.30633 -18.66555,25.75161 -46.55982,15.81269 -96.3904,20.02256 -145.01083,24.53316 -31.35583,25.065 -55.61986,-22.02088 -26.12639,-39.75933 13.09873,-22.15641 81.03208,-18.05368 68.94542,-46.48575 13.154,-1.03001 15.22724,-1.54435 28.19366,-4.39596 25.45024,-1.29617 49.35121,-9.33323 71.31106,-21.31916 2.93677,6.61246 8.25051,14.70201 8.62167,17.52013 5.11393,12.0207 12.74208,29.42172 12.73096,44.1553 z M 437.71782,361.08352 c 10.07019,35.45555 5.5833,81.83435 -36.35642,92.54803 -29.16199,13.60007 -69.86614,4.75965 -80.55698,-28.60624 -12.08815,-42.22761 -7.4508,-87.47909 -3.33588,-130.7109 2.80402,-38.73431 30.66985,-67.22133 47.39641,-100.10638 22.27317,-26.95608 -0.47637,-73.48313 31.46381,-91.39047 33.24997,-7.953613 54.38324,30.20451 61.74244,57.26413 23.46387,71.35995 -20.29339,133.2612 -20.35338,201.00183 z"
       id="path34034"
       inkscape:connector-curvature="0"
       sodipodi:nodetypes="sccccccccccccccccccccccccccccccccsccccccccccccccsccccccccsccccccccccccccccc" />
  </g>
</svg>
