<?xml version="1.0" encoding="UTF-8" standalone="no"?>
<!-- Created with Inkscape (http://www.inkscape.org/) -->

<svg
   xmlns:dc="http://purl.org/dc/elements/1.1/"
   xmlns:cc="http://creativecommons.org/ns#"
   xmlns:rdf="http://www.w3.org/1999/02/22-rdf-syntax-ns#"
   xmlns:svg="http://www.w3.org/2000/svg"
   xmlns="http://www.w3.org/2000/svg"
   xmlns:sodipodi="http://sodipodi.sourceforge.net/DTD/sodipodi-0.dtd"
   xmlns:inkscape="http://www.inkscape.org/namespaces/inkscape"
   width="210mm"
   height="297mm"
   viewBox="0 0 744.09448819 1052.3622047"
   id="svg8089"
   version="1.1"
   inkscape:version="0.91 r13725"
   sodipodi:docname="hand11.svg">
  <defs
     id="defs8091" />
  <sodipodi:namedview
     id="base"
     pagecolor="#ffffff"
     bordercolor="#666666"
     borderopacity="1.0"
     inkscape:pageopacity="0.0"
     inkscape:pageshadow="2"
     inkscape:zoom="0.24748737"
     inkscape:cx="246.60137"
     inkscape:cy="542.01892"
     inkscape:document-units="px"
     inkscape:current-layer="layer1"
     showgrid="false"
     inkscape:window-width="464"
     inkscape:window-height="595"
     inkscape:window-x="900"
     inkscape:window-y="7"
     inkscape:window-maximized="0" />
  <metadata
     id="metadata8094">
    <rdf:RDF>
      <cc:Work
         rdf:about="">
        <dc:format>image/svg+xml</dc:format>
        <dc:type
           rdf:resource="http://purl.org/dc/dcmitype/StillImage" />
        <dc:title></dc:title>
      </cc:Work>
    </rdf:RDF>
  </metadata>
  <g
     inkscape:label="Layer 1"
     inkscape:groupmode="layer"
     id="layer1">
    <path
       style="color:#000000;clip-rule:nonzero;display:inline;overflow:visible;visibility:visible;opacity:1;isolation:auto;mix-blend-mode:normal;color-interpolation:sRGB;color-interpolation-filters:linearRGB;solid-color:#000000;solid-opacity:1;fill:#000000;fill-opacity:1;fill-rule:evenodd;stroke:none;stroke-width:1;stroke-linecap:square;stroke-linejoin:round;stroke-miterlimit:4;stroke-dasharray:none;stroke-dashoffset:0;stroke-opacity:1;color-rendering:auto;image-rendering:auto;shape-rendering:auto;text-rendering:auto;enable-background:accumulate"
       d="m 579.97871,834.17576 c 3.1614,-42.8272 -43.11505,-94.15279 -72.43483,-126.06349 C 458.0702,660.26091 428.704,633.2277 383.22168,594.49876 c 47.11344,-60.95743 18.12294,-197.61285 28.67272,-249.35775 0,0 23.36425,10.47338 34.74662,2.51841 20.34036,-7.30868 37.8816,-39.56068 48.71706,-55.7104 18.12889,-30.19637 25.05395,-62.27624 33.22662,-84.88152 -32.54391,-37.98261 -48.23416,42.81521 -69.40967,47.44878 -8.24432,-54.74599 40.524,-85.59319 53.04463,-126.36495 6.34188,-14.87507 -11.19303,-31.017903 -12.8005,-23.31157 -22.45576,23.33439 -58.48595,79.92451 -68.22294,109.82031 -5.75677,-33.19489 54.6477,-94.16459 58.14678,-116.674043 0.84982,-12.84801 -11.99893,-33.63988 -15.77648,-23.94139 -25.62348,28.412713 -63.1768,95.343453 -78.77737,127.690723 0,0 2.49026,-20.08194 7.27274,-29.01857 13.88046,-34.57696 32.12482,-70.73504 48.45799,-88.399803 9.92708,-19.07957 3.61549,-36.53183 -13.8094,-22.08871 -20.0614,12.67287 -64.73803,81.238033 -73.34809,109.862283 -10.10745,-13.57236 27.72754,-62.4585 29.20774,-81.526913 -1.61329,-15.79964 -4.69915,-30.48401 -33.929,20.557073 -22.98302,38.37519 -72.50871,115.30925 -58.16533,150.335 3.72888,11.93743 12.78759,18.5912 7.63134,32.40004 -67.11645,76.40817 -155.18594,196.01239 -178.10429,289.27635 -34.216741,24.67072 -57.846578,69.37854 -15.64046,96.96022 99.30524,95.05843 186.09339,235.74228 313.3493,288.96782 64.94865,28.1624 139.98535,-43.71887 152.2672,-134.88431 z"
       id="path17745"
       inkscape:connector-curvature="0"
       sodipodi:nodetypes="ccccccccccccccccccccccccccc" />
  </g>
</svg>
