<?xml version="1.0" encoding="UTF-8" standalone="no"?>
<!-- Created with Inkscape (http://www.inkscape.org/) -->

<svg
   xmlns:dc="http://purl.org/dc/elements/1.1/"
   xmlns:cc="http://creativecommons.org/ns#"
   xmlns:rdf="http://www.w3.org/1999/02/22-rdf-syntax-ns#"
   xmlns:svg="http://www.w3.org/2000/svg"
   xmlns="http://www.w3.org/2000/svg"
   xmlns:sodipodi="http://sodipodi.sourceforge.net/DTD/sodipodi-0.dtd"
   xmlns:inkscape="http://www.inkscape.org/namespaces/inkscape"
   width="210mm"
   height="297mm"
   viewBox="0 0 744.09448819 1052.3622047"
   id="svg8089"
   version="1.1"
   inkscape:version="0.91 r13725"
   sodipodi:docname="hand02.svg">
  <defs
     id="defs8091" />
  <sodipodi:namedview
     id="base"
     pagecolor="#ffffff"
     bordercolor="#666666"
     borderopacity="1.0"
     inkscape:pageopacity="0.0"
     inkscape:pageshadow="2"
     inkscape:zoom="0.35"
     inkscape:cx="402.95286"
     inkscape:cy="520"
     inkscape:document-units="px"
     inkscape:current-layer="layer1"
     showgrid="false"
     inkscape:window-width="464"
     inkscape:window-height="595"
     inkscape:window-x="900"
     inkscape:window-y="7"
     inkscape:window-maximized="0" />
  <metadata
     id="metadata8094">
    <rdf:RDF>
      <cc:Work
         rdf:about="">
        <dc:format>image/svg+xml</dc:format>
        <dc:type
           rdf:resource="http://purl.org/dc/dcmitype/StillImage" />
        <dc:title></dc:title>
      </cc:Work>
    </rdf:RDF>
  </metadata>
  <g
     inkscape:label="Layer 1"
     inkscape:groupmode="layer"
     id="layer1">
    <path
       style="display:inline;opacity:1;fill:#000000;fill-opacity:1"
       d="m 474.84004,178.42213 c -11.96254,0 -22.67267,0.37026 -32.15415,1.35745 -28.50795,2.93055 -32.07328,3.44204 -44.34537,6.33475 -18.35815,4.33964 -23.97913,7.7589 -34.11461,20.73315 -3.38905,4.34698 -8.33381,9.7841 -10.98151,12.08393 l -4.80029,4.18342 -13.61981,0 c -21.47582,0 -43.83584,1.69881 -48.88368,3.70895 -4.10659,1.63984 -18.2931,11.53501 -27.88728,19.46443 -2.47956,2.05488 -6.63375,5.37035 -9.23385,7.38049 -10.19902,7.87811 -13.25317,10.84531 -14.01189,13.55244 -0.71437,2.49273 -1.53983,3.04167 -7.10519,4.69614 -15.87712,4.71769 -33.99557,16.43783 -57.96668,37.50466 -5.15903,4.53215 -8.74655,6.9207 -11.40226,7.58844 -4.19546,1.05389 -10.94191,7.60265 -11.00539,10.68903 0,2.0846 -1.61914,4.53215 -5.1987,8.04863 -2.6319,2.60301 -9.9371,20.36167 -14.05156,34.20344 -0.82545,2.75924 -2.95893,7.89277 -4.75269,11.40155 -5.59075,10.9336 -7.33691,15.19149 -7.33691,17.85431 0,1.41642 -0.635,2.90043 -1.381,3.30854 -0.87311,0.44313 -1.93818,4.35434 -2.92716,10.75579 -1.67469,10.8152 -2.52715,14.59861 -8.01312,35.56862 -1.96205,7.52941 -4.393953,17.69192 -5.398793,22.59473 -2.75886,13.47069 -5.05581,21.29715 -9.03541,30.76183 -7.21627,17.15032 -11.71491,41.08017 -14.41825,76.61214 -1.03182,13.64157 -2.87794,30.8432 -4.91134,46.05748 -0.98425,7.3288 -3.53359,20.04302 -6.39561,31.91864 -4.04311,16.80935 -5.46381,24.19756 -4.83363,25.1542 0.23842,0.37029 0,0.95747 -0.47621,1.24636 -0.47621,0.30111 -0.9683,4.80679 -0.98422,10.03638 0,7.9591 0.31779,10.5853 2.45577,16.17824 1.381,3.66461 3.18272,8.72368 3.99543,11.23064 0.80959,2.50696 1.8906,5.86031 2.40012,7.43989 1.4604,4.5476 10.20692,16.23032 14.49763,19.39077 2.14611,1.57881 6.46702,6.30506 9.60214,10.48848 3.13352,4.18342 7.65438,10.02128 10.038683,12.9665 11.44347,14.08632 30.38262,27.05285 43.20558,29.57484 30.02384,5.89732 50.58217,5.09654 70.10387,-2.7222 1.07948,-0.44312 5.70195,-2.10655 10.26413,-3.71628 9.90367,-3.50104 15.15002,-3.43431 23.84258,0.30111 3.10965,1.34238 5.94159,2.43249 6.28444,2.43249 1.23818,0 20.49483,5.66781 23.34102,6.87676 4.4574,1.88396 15.88499,4.89548 22.52027,5.93391 3.25262,0.51799 8.11793,1.28299 10.82125,1.71388 11.66577,1.86163 41.69763,-0.14231 59.31446,-3.88716 3.50818,-0.75684 11.45146,-2.38083 17.64701,-3.61986 13.85954,-2.7739 16.35489,-3.62719 29.90483,-10.23658 12.7817,-6.23097 19.0662,-10.16251 39.49751,-24.70904 6.95276,-4.94802 18.26926,-20.24283 27.93326,-37.73418 2.9113,-5.267 6.40356,-11.08986 7.76714,-12.94494 2.27311,-3.07785 18.95657,-33.95846 23.55682,-43.60219 4.31456,-9.03455 5.31144,-10.71101 9.81644,-16.32674 2.56839,-3.21173 4.67329,-6.33475 4.67329,-6.94999 0,-0.59288 2.67953,-6.80229 5.9575,-13.76771 8.92271,-18.96761 11.24347,-24.50155 14.6881,-35.00506 1.73025,-5.2662 3.74785,-10.80787 4.48282,-12.31384 0.71428,-1.50594 2.43982,-5.77116 3.7795,-9.47971 3.15734,-8.70864 6.97666,-13.30017 25.75707,-30.962 8.49246,-7.98922 18.38989,-17.75093 22.00125,-21.69713 10.82116,-11.83204 19.61695,-21.6829 24.81719,-27.7804 2.69544,-3.16734 12.74356,-13.1594 22.3203,-22.19395 19.27407,-18.18103 19.96779,-19.24185 19.08362,-29.25626 -0.63498,-6.76482 -4.11609,-14.20513 -9.26716,-19.6052 -2.1525,-2.25508 -4.59395,-5.33374 -5.42254,-6.83931 -2.10485,-3.8127 -4.24312,-5.30402 -11.02918,-7.67754 -8.29258,-2.90044 -20.60593,-3.82043 -30.39853,-2.27014 -24.30618,3.85018 -36.25914,8.96092 -59.94302,25.62177 -8.86877,6.24563 -11.94671,8.56011 -14.45002,10.86687 -1.1429,1.05429 -4.95267,4.08737 -8.45289,6.73553 -3.50966,2.65549 -7.19403,5.99335 -8.18295,7.43259 -1.00005,1.43964 -2.21601,2.61111 -2.70334,2.61111 -0.47618,0 -0.87305,0.44313 -0.87305,1.0242 0,0.59286 -1.31758,2.41784 -2.94305,4.13175 -1.61916,1.71308 -2.94299,3.65644 -2.94299,4.30953 0,0.66814 -0.84136,1.90638 -1.87315,2.7747 -1.03176,0.86794 -2.41599,2.87768 -3.07794,4.47234 -2.78425,6.69118 -5.9257,12.37282 -9.93707,17.9438 -2.34457,3.2642 -5.91618,9.04269 -7.93381,12.84769 -2.62395,4.96308 -5.53522,8.61222 -10.2799,12.90752 -12.97374,11.73522 -16.96925,14.61287 -37.49578,27.02316 -14.13889,8.55279 -19.20266,10.91895 -20.5424,9.59895 -0.47615,-0.44313 -1.66673,-3.98364 -2.70331,-7.86311 -1.76202,-6.62445 -1.7858,-7.73731 -0.47618,-18.69331 1.58736,-12.98851 2.06517,-33.37987 1.12701,-47.22164 -0.71429,-10.94174 -2.1843,-13.91621 -16.40249,-33.95154 -4.90507,-6.90644 -4.76849,-7.32963 3.197,-9.80648 12.12128,-3.76838 14.57697,-5.11847 21.75514,-11.96551 5.62098,-5.36305 6.73846,-6.87595 5.54954,-7.49932 -1.19053,-0.59288 -0.55544,-1.57961 3.1891,-4.94799 l 4.68116,-4.16836 -1.26992,-3.96126 c -3.08749,-9.57656 -8.91634,-18.54481 -18.31845,-28.1287 -5.61302,-5.71868 -9.76881,-11.3043 -12.55155,-16.87525 -2.83815,-5.67517 -5.77332,-11.09719 -10.54181,-19.50148 -1.53974,-2.70757 -2.79067,-5.48226 -2.79067,-6.17929 0,-1.8917 6.2274,1.33465 14.84054,7.68443 20.50905,15.11786 31.92877,21.95757 39.9991,23.93798 2.3922,0.59286 10.191,1.23824 17.33589,1.4539 19.57885,0.59285 34.61773,-2.86342 41.58007,-9.54687 1.89692,-1.82499 6.12414,-5.59255 9.40211,-8.3823 6.30672,-5.37811 9.20214,-10.75536 9.20214,-17.10557 0,-4.22777 -1.99382,-10.20686 -3.40497,-10.20686 -1.07941,0 -8.77195,-9.27993 -11.22125,-13.53012 -0.635,-1.08278 -1.74619,-1.97351 -2.49541,-1.97351 -2.23344,0 -53.91573,-48.69785 -55.27136,-52.08048 -0.47618,-1.2541 13.023,-0.9652 22.87907,0.51799 14.97546,2.21803 34.41779,2.35886 50.00755,0.37437 29.25084,-3.74603 40.28007,-8.08528 56.22064,-22.14231 8.87511,-7.82564 19.75984,-24.80507 19.75984,-30.82078 0,-1.56538 0.55543,-4.24365 1.20641,-5.94983 1.11112,-2.87029 1.03173,-3.21902 -1.22233,-4.82875 -1.33335,-0.95747 -3.90653,-2.0028 -5.70978,-2.32915 -1.80169,-0.3011 -6.21147,-2.15132 -9.80058,-4.05728 -6.65753,-3.53113 -22.30441,-7.24784 -30.51759,-7.24784 -3.64467,0 -23.42033,-2.54398 -24.47439,-3.14499 -0.31779,-0.14259 -5.41459,-0.77107 -11.34662,-1.32043 -19.61704,-1.80257 -37.0815,-2.75231 -52.45694,-2.8337 z m 0.87305,12.03917 c 12.47218,0.0813 26.22058,0.80852 34.31464,2.02517 5.06378,0.76419 9.47358,1.63984 9.80854,1.94382 0.31778,0.3011 0.63489,3.70895 0.63489,7.5583 0,15.35505 6.49879,18.37472 39.2736,18.40401 9.12277,0 17.18514,0.37437 17.91851,0.80201 3.25413,1.91329 -3.03035,9.62051 -12.48005,15.29568 -12.23245,7.35076 -16.92956,8.35218 -48.16463,10.29598 -22.87907,1.41605 -30.2239,1.72813 -30.69373,1.28215 -0.23841,-0.22387 -8.04651,-0.59285 -17.36133,-0.80811 -16.28345,-0.37029 -17.15334,-0.51799 -22.91873,-3.10064 -3.29389,-1.47586 -9.50532,-5.37768 -13.80396,-8.66387 -6.0924,-4.65829 -9.43385,-6.47552 -15.19922,-8.2411 -8.65132,-2.66322 -29.55251,-5.25197 -35.85284,-4.45076 -5.90828,0.75727 -5.82092,-0.94118 0.39713,-8.22647 6.95435,-8.08522 9.57037,-10.08845 17.24862,-13.1667 14.2833,-5.72681 24.17905,-8.0409 37.75129,-8.8124 4.58594,-0.22387 13.37372,-0.94115 19.52966,-1.51287 5.0717,-0.44313 12.09746,-0.66854 19.57731,-0.59285 z m 60.55105,5.32644 c 0.95245,0 2.36046,0 4.5447,0.22387 3.35734,0.30111 10.51007,2.00278 15.9009,3.79074 6.52412,2.15054 13.5245,3.67154 20.91705,4.52483 6.11621,0.66854 11.29269,1.43963 11.49905,1.63901 0.23842,0.22388 -0.31781,1.25449 -1.11121,2.35153 -1.28578,1.72121 -2.42394,2.00278 -8.14967,2.00278 -3.65257,0 -6.82576,-0.1426 -7.04958,-0.37434 -0.23756,-0.22388 -6.58766,-0.66815 -14.13891,-0.95707 -14.53733,-0.66814 -18.9074,-1.26057 -23.58067,-3.36062 -3.03824,-1.37131 -3.30974,-3.01885 -1.30163,-7.93675 0.55546,-1.33506 0.87305,-1.86933 2.47314,-1.95112 z m -234.61001,38.66923 c 1.76361,0 3.77326,0.14231 6.16546,0.4431 5.9559,0.77925 23.28546,1.25412 82.21572,2.27707 20.26302,0.37437 22.56793,1.0242 29.02702,8.50111 2.48902,2.87845 4.99233,6.06008 5.55901,7.06187 0.55546,1.00181 7.72744,7.98192 15.89297,15.5036 8.1576,7.52168 17.98992,17.17231 21.84255,21.42979 3.8589,4.26519 9.12268,9.62824 11.70536,11.91301 2.5843,2.29252 4.705,4.81454 4.705,5.61533 0,1.62438 -10.33385,7.26943 -16.42628,8.96825 -3.99542,1.11289 -9.66559,6.52029 -8.57346,8.17477 0.31779,0.51801 1.57148,0.89683 2.75094,0.89683 1.31749,0 6.50036,3.52301 13.4293,9.13141 15.64532,12.66947 17.00887,13.2184 32.83833,13.2184 10.81334,0 12.69597,0.22388 12.44038,1.36518 -0.63495,2.71486 -2.94139,3.7533 -13.49282,6.01571 -13.97855,2.99689 -31.54618,3.7985 -37.18459,1.69152 -2.16045,-0.80772 -4.96059,-1.69845 -6.23527,-1.97309 -4.68119,-1.03233 -11.59591,-5.19256 -30.09697,-18.11472 -15.35798,-10.7334 -20.51701,-14.93188 -27.32053,-22.24563 -4.61617,-4.95574 -9.71168,-9.88094 -11.32286,-10.94866 -1.835,-1.21665 -3.30971,-3.29352 -3.97164,-5.57832 -0.55546,-2.0028 -2.05727,-5.36385 -3.27797,-7.47773 -10.95617,-18.95985 -11.74512,-20.01334 -24.01088,-32.00817 l -4.56058,-4.45766 -12.83083,0.59286 c -9.59425,0.44312 -13.9246,1.01604 -17.16923,2.35153 -2.9113,1.20119 -8.50844,2.10615 -17.07397,2.7743 -11.38638,0.88215 -34.46548,3.93844 -38.96249,5.16242 -3.72404,1.00792 -1.31755,-2.2917 7.71943,-10.60727 5.18284,-4.76244 11.41016,-10.81519 13.8357,-13.44136 4.09073,-4.4357 7.10522,-6.15691 12.3832,-6.22367 z m 36.66717,32.97983 c 2.33667,0 4.01133,0.1426 4.76056,0.44313 4.20344,1.48399 10.31169,6.63911 12.36101,10.44411 1.07947,2.0028 2.51922,4.26518 3.1891,5.01472 1.76998,1.98814 7.37658,11.80195 7.37658,12.91442 0,0.51802 0.71437,2.44839 1.58742,4.27987 0.87308,1.83272 2.1525,4.56224 2.85413,6.06089 0.71431,1.50677 1.82707,4.58422 2.49695,6.84664 0.63494,2.25468 3.18905,8.61952 5.59714,14.13107 2.40803,5.5189 5.08761,11.67581 5.9575,13.68594 0.87305,2.0028 4.34623,8.77495 7.72742,15.04337 3.38112,6.26798 6.14792,12.06113 6.14792,12.88513 0,0.81544 0.635,1.95845 1.34932,2.53625 0.71431,0.59288 1.58739,2.08459 1.8334,3.33829 0.82545,3.98361 -4.8796,5.37808 -10.15926,2.47764 -2.70332,-1.49009 -3.02239,-1.49009 -6.05276,0 -3.97004,1.98775 -5.48597,5.08106 -6.10032,12.42492 -0.39673,4.36207 0,6.34978 1.19049,8.35992 0.92071,1.45429 2.04142,2.64043 2.47953,2.64043 0.47621,0 2.297,3.01191 4.11455,6.68385 5.9257,11.92812 15.69454,18.95987 26.66659,19.19749 4.52245,0.0816 5.00023,0.30113 3.75729,1.44007 l 0,0 c -2.32074,2.16556 -12.79909,2.20991 -19.0042,0.0813 -12.62293,-4.33968 -28.22857,-16.04518 -36.1163,-27.08254 -1.38106,-1.92917 -5.00029,-6.17196 -8.05447,-9.42846 -6.78606,-7.24742 -10.50214,-12.31384 -14.70396,-20.06502 l -3.21449,-5.92741 1.06359,-10.48885 c 0.55543,-5.77119 1.3016,-15.3917 1.55562,-21.37812 0.47624,-10.22927 0.31782,-11.27541 -2.1525,-17.18006 -3.10337,-7.38822 -4.24314,-8.09258 -15.44687,-9.64287 -7.83058,-1.09054 -12.16098,-0.824 -27.45549,1.67646 -3.2304,0.51796 -13.81984,1.76555 -23.5251,2.73725 -9.71331,0.97903 -26.47614,3.20482 -37.26562,4.93296 -40.42925,6.49831 -55.39042,8.15198 -55.39042,6.13412 0,-0.44313 2.3049,-2.79669 5.12729,-5.24421 2.82397,-2.44796 11.34824,-10.19223 18.94864,-17.21669 16.72159,-15.46615 19.417,-16.883 37.27989,-19.64997 6.97027,-1.08238 12.92612,-2.11389 13.25312,-2.2921 1.50803,-0.86062 20.01702,-4.11712 28.23014,-4.97038 5.05587,-0.51799 9.58469,-1.1715 10.06406,-1.44574 1.01591,-0.59288 23.30132,-2.90044 38.88316,-4.03489 3.42875,-0.22388 6.43528,-0.37029 8.77186,-0.37029 z m 145.80501,46.88105 c 2.735,0 7.48768,4.10935 15.94847,13.76731 2.01757,2.30718 6.2369,5.73414 9.37039,7.61853 3.1335,1.87666 5.53525,3.8868 5.32729,4.46542 -0.47618,1.23821 -9.43385,1.65407 -14.43414,0.66774 -1.88901,-0.36621 -6.08447,-2.18062 -9.31324,-4.01986 -3.23825,-1.83962 -6.23685,-3.33826 -6.66706,-3.33826 -0.39712,0 -3.18269,-1.66141 -6.11618,-3.67927 -5.68603,-3.90915 -8.85289,-7.52901 -7.87186,-8.99754 1.19058,-1.78834 11.14824,-6.48325 13.75633,-6.48325 z m -175.42252,5.65928 c 2.46521,0 4.33831,0.44312 8.26235,1.69884 7.36865,2.32955 8.74814,4.05078 6.88927,8.59714 -0.55543,1.32122 -0.98413,6.74288 -0.98413,12.0473 0,5.29632 -0.47621,11.2083 -1.11124,13.12928 -0.93654,2.88538 -0.79369,5.2072 0.93659,13.32989 1.14296,5.40783 2.98271,15.1695 4.09068,21.69713 3.04622,17.92957 4.93521,26.80139 6.97816,32.75037 1.01594,2.96674 1.8573,6.76442 1.8573,8.4417 0,2.92933 -0.15885,3.04124 -3.89232,3.04124 -2.13659,0 -5.77333,-0.59288 -8.08457,-1.30497 -2.3128,-0.74138 -5.96543,-1.5955 -8.12745,-1.9434 -2.1525,-0.37026 -4.36052,-0.94116 -4.89548,-1.31347 -0.55547,-0.37437 -2.751,-1.20119 -4.90504,-1.84658 -11.61812,-3.47213 -22.58378,-10.32606 -25.89193,-16.19327 -2.36049,-4.19155 -1.23818,-18.20341 2.87794,-36.22904 0.55546,-2.50696 1.25404,-7.43216 1.49214,-10.9409 0.23842,-3.50878 1.20638,-8.35262 2.12869,-10.76352 2.11282,-5.51888 1.0953,-7.37319 -4.25104,-7.74388 -2.92554,-0.22387 -4.87167,0.37032 -8.2528,2.45529 -6.45912,3.97551 -8.59739,6.44583 -10.79748,12.47662 -1.07942,2.96675 -2.82236,7.24699 -3.86843,9.5017 -1.04768,2.25588 -2.82241,7.08423 -3.9383,10.71915 -1.38106,4.4882 -2.75097,7.05457 -4.2511,7.96683 -4.98435,3.04124 -33.9638,3.16738 -43.55636,0.22387 -3.92407,-1.21584 -7.46393,-5.25197 -14.20237,-16.1412 -3.77169,-6.10526 -4.57803,-6.86902 -7.456,-7.12863 -5.18287,-0.4431 -7.50363,1.62438 -8.97988,8.10763 l -1.30161,5.68207 3.95578,3.27885 c 4.82404,4.00561 9.12265,10.85955 9.12265,14.54614 0,1.55112 1.01602,3.8579 2.32875,5.31137 3.19065,3.53114 4.83197,11.17896 4.37801,20.39909 -0.47619,9.48787 -2.08112,12.89286 -6.50672,13.73029 -4.12245,0.78573 -4.1796,0.84636 -4.8336,5.40044 -0.47621,3.21905 -1.25401,4.2876 -5.06377,6.88409 -7.39882,5.02898 -13.52453,7.69949 -29.02699,12.64018 -12.81504,4.07964 -14.75167,4.95449 -15.03102,6.7872 -0.55546,3.40503 2.59218,5.84525 6.67498,5.22919 1.89694,-0.30113 6.31462,-0.88258 9.82437,-1.32856 10.09583,-1.28258 13.63566,-2.4923 23.0378,-7.85535 4.85578,-2.76697 9.17823,-5.03628 9.61794,-5.03628 0.39673,0 3.8907,-2.3666 7.67822,-5.25197 3.79705,-2.88581 7.96709,-6.04583 9.27509,-7.02486 2.15258,-1.60972 2.80658,-1.67646 6.96077,-0.66854 6.71465,1.66873 18.61371,9.47278 24.50613,16.07447 5.69396,6.37989 8.96397,12.30611 15.60562,28.29921 4.56221,10.97876 7.60841,17.78835 9.291,20.74046 0.47618,0.86795 0.90482,2.37352 0.90482,3.34559 0,0.9713 1.0953,2.98916 2.44935,4.48008 1.80166,1.99507 2.44776,3.76835 2.44776,6.73513 0,2.21806 0.88891,5.73454 1.96202,7.8114 1.07936,2.06954 1.96199,4.61435 1.96199,5.65275 0,1.02991 0.39713,2.59608 0.90482,3.4636 0.47621,0.86835 1.60331,4.8662 2.46518,8.87953 0.85723,4.01293 2.02553,9.13876 2.5986,11.40115 0.55546,2.25468 1.22226,6.56507 1.44451,9.57619 1.55565,22.13535 1.92078,33.76639 1.19058,38.41735 -0.47621,2.94478 -1.0795,7.4106 -1.34926,9.91756 -0.23842,2.50776 -1.1271,5.85295 -1.90649,7.44069 -0.79369,1.57881 -1.41278,3.56005 -1.41278,4.39868 0,0.83823 -1.09533,4.5765 -2.44778,8.31517 -1.34929,3.73133 -2.45571,7.63276 -2.45571,8.65696 0,1.02335 -1.93812,5.63686 -4.31453,10.24388 -2.36835,4.60621 -4.62563,10.22194 -5.00821,12.4766 -0.39713,2.25508 -1.06353,4.51749 -1.49212,5.0294 -0.47621,0.51797 -1.7398,3.37488 -2.88746,6.3795 -1.14293,3.00459 -2.68746,6.49058 -3.40497,7.74382 -0.71434,1.25452 -1.8255,4.03575 -2.43982,6.18705 -0.63498,2.1436 -1.53971,3.6642 -2.03346,3.3826 -0.47621,-0.3011 -1.15882,0.59289 -1.47629,2.01707 -0.31779,1.40179 -1.06353,3.36837 -1.65883,4.36936 -3.55572,5.98645 -5.58123,10.4738 -6.17171,13.68592 -0.63501,3.56085 -0.63501,3.59747 0.95245,1.59467 1.00004,-1.25977 2.65571,-2.05448 4.32245,-2.05448 2.0334,0 4.24151,-1.47583 9.01003,-6.05316 3.47795,-3.3301 7.99087,-7.03948 10.02436,-8.24147 4.47326,-2.62537 8.50046,-8.35994 15.28661,-21.72644 2.80806,-5.51888 5.96537,-11.54968 7.0257,-13.40393 1.06362,-1.8551 1.92238,-4.13907 1.92238,-5.07415 0,-0.92692 1.09528,-3.07053 2.43977,-4.75511 1.33344,-1.69069 3.15897,-4.95492 4.05107,-7.24702 0.88894,-2.29946 2.48899,-5.93394 3.54939,-8.08527 1.38106,-2.79666 1.74618,-4.82878 1.26989,-7.1579 -0.39673,-1.9959 -0.31779,-3.04163 0.31779,-2.70839 1.22235,0.66857 1.90649,-1.05999 2.71289,-6.96505 0.39713,-2.6404 1.04765,-5.25151 1.508,-5.80857 1.30169,-1.54262 2.59221,-24.53816 1.80964,-32.28203 -0.80956,-8.06329 -3.69226,-22.48326 -5.00667,-25.07974 -0.47619,-1.00182 -1.53972,-3.87214 -2.27311,-6.38723 -0.71431,-2.50696 -3.42875,-10.09537 -5.97336,-16.86795 -2.53508,-6.77257 -5.43047,-14.77602 -6.42735,-17.78837 -3.51605,-10.66667 -8.60366,-22.89832 -12.56737,-30.21247 -2.2096,-4.07274 -4.0193,-8.18942 -4.0193,-9.14606 0,-2.17412 -10.12754,-18.87889 -13.93089,-22.96628 -1.80326,-1.9434 -2.52077,-3.42699 -1.97791,-4.10896 6.84171,-8.49338 15.93267,-15.941 22.30444,-18.27787 3.82716,-1.40956 16.88988,-0.59286 22.75841,1.37127 3.11125,1.05429 9.66559,3.28659 14.5611,4.96305 12.12927,4.15413 32.61614,6.55731 36.55601,4.2876 4.79235,-2.7674 7.00203,-5.11077 7.00203,-7.47004 0,-1.29068 0.47621,-3.88676 1.01593,-5.76382 1.01594,-3.40503 1.04771,-3.41923 6.21144,-3.41923 5.86858,0 13.72453,2.18059 24.51406,6.81689 l 7.39087,3.17431 -1.36509,3.59054 c -0.71437,1.98044 -1.65724,5.42245 -2.01766,7.66288 -0.71429,4.6953 0.15885,5.62999 5.34323,5.64504 3.27794,0 3.47797,0.22388 8.50042,9.59119 4.83363,8.99797 5.18441,10.09581 5.7178,18.24046 0.63498,10.1849 0.82543,19.9389 0.47618,31.91947 -0.15885,4.76202 0,9.89518 0.39713,11.40072 0.31782,1.5064 0.23842,3.24144 -0.15885,3.86481 -1.20641,1.72814 0.47621,14.67227 2.18427,17.13489 0.84128,1.20972 1.53974,3.20479 1.53974,4.44383 0,1.23823 0.47618,3.41192 1.11116,4.82144 1.52391,3.5385 1.76207,8.31557 0.55546,12.31344 -0.82545,2.80439 -0.63489,3.86521 0.98422,6.45396 1.07941,1.70575 2.49695,4.71037 3.14299,6.67616 0.635,1.96532 1.55565,4.39132 2.01758,5.39964 0.47621,1.00178 1.55565,3.9466 2.43982,6.54268 0.87311,2.58872 2.24938,5.22265 3.05416,5.84562 0.80954,0.59285 1.26989,1.59507 1.03176,2.15866 -0.23756,0.59285 0.39715,2.56637 1.34935,4.443 0.98413,1.86933 2.05724,4.59156 2.40007,6.05315 0.31778,1.4543 1.25406,3.13766 2.03349,3.73094 0.79365,0.59288 1.4128,1.55115 1.42863,2.11389 0,0.59288 1.34926,2.87075 2.997,5.1189 1.63502,2.25508 2.77632,4.79906 2.53665,5.66701 -0.23842,0.86791 0.15885,2.05447 0.92071,2.6331 0.71428,0.59285 1.36508,1.74319 1.36508,2.56716 0,0.8297 1.20647,2.5737 2.69548,3.86441 1.47625,1.29071 3.48433,3.44204 4.45737,4.76244 1.39686,1.92834 2.54301,2.41054 5.6384,2.41054 4.57644,0 4.91137,-1.17148 1.31758,-4.65096 -1.47631,-1.44004 -2.76052,-3.93887 -3.04625,-5.97909 -0.47621,-3.39687 -4.95267,-16.06717 -8.94019,-25.39795 -9.1386,-21.37894 -12.91819,-31.29691 -12.91819,-33.87833 0,-2.52932 1.60171,-5.79275 2.83827,-5.79275 1.30169,0 27.53647,-13.56748 31.89066,-16.49766 2.20013,-1.48438 6.6496,-4.52479 9.87992,-6.76481 3.23827,-2.23313 8.9719,-6.00068 12.75152,-8.36765 18.955,-11.86868 31.86526,-22.26069 31.86526,-25.64332 0,-1.07668 1.11113,-4.2949 2.4716,-7.1583 1.68262,-3.54582 2.15404,-5.50425 1.46037,-6.14187 -1.50797,-1.40182 -1.11121,-6.12722 0.79374,-9.34667 6.65904,-11.38649 22.06625,-27.63877 38.07039,-40.16055 26.44271,-20.68841 42.5277,-30.4127 53.33312,-32.22993 13.12606,-2.21846 25.05532,1.50595 30.84456,9.62051 3.68431,5.15592 7.75916,15.80753 6.84325,17.87707 -0.31776,0.66814 -2.52872,2.40321 -4.94477,3.82736 -2.41598,1.43191 -6.68288,4.19851 -9.48148,6.15694 -2.80646,1.95845 -5.39074,3.56085 -5.75741,3.56085 -0.71437,0 -4.66536,2.98183 -12.07371,9.16109 -2.7271,2.2848 -9.15448,7.48427 -14.28176,11.57164 -9.42595,7.51438 -19.56933,17.36521 -22.55994,21.92014 -0.88903,1.37085 -2.36845,3.05627 -3.26209,3.74557 -0.88902,0.66854 -1.62715,1.89169 -1.62715,2.67825 0,0.78575 -0.82545,2.26974 -1.82542,3.3086 -1.0001,1.03761 -3.25421,4.34658 -4.99241,7.35077 -1.73815,3.01192 -3.7875,6.11989 -4.5447,6.91377 -0.79366,0.79305 -1.38104,1.91328 -1.38104,2.4919 0,0.59285 -2.20166,4.10243 -4.89705,7.8407 -2.70334,3.73094 -4.90349,7.13636 -4.90349,7.56603 0,0.44312 -1.82704,3.027 -4.05098,5.77118 -5.56697,6.869 -22.41712,30.59905 -22.41712,31.56339 0,0.44315 -0.8572,2.42519 -1.91285,4.43533 -4.22723,8.04862 -6.02096,12.2544 -7.8004,18.30023 -2.03346,6.89138 -3.80341,11.81701 -5.13524,14.29468 -0.47616,0.86795 -0.84129,2.42517 -0.84129,3.44894 0,1.03154 -0.71434,2.93013 -1.65883,4.22817 -1.55563,2.18795 -2.80809,5.06643 -6.93051,15.81489 -0.85726,2.26241 -1.92871,4.2428 -2.37638,4.41371 -0.39715,0.14231 -0.80951,1.2537 -0.80951,2.41094 0,2.44795 -4.42569,12.38748 -8.73222,19.62719 -1.65091,2.75964 -2.99866,5.86028 -3.01446,6.88366 0,1.0323 -0.39673,2.26238 -0.84137,2.73768 -0.47621,0.44309 -1.61124,2.91506 -2.59223,5.42935 -1.47623,3.8062 -8.89099,16.78696 -14.82465,25.99243 -0.80954,1.2541 -1.93025,3.405 -2.49536,4.78443 -0.55546,1.37981 -1.39691,2.50696 -1.83502,2.50696 -0.47621,0 -1.30164,1.38754 -1.90644,3.08638 -0.63495,1.69152 -1.99219,3.84282 -3.0938,4.76938 -1.11124,0.92732 -2.64778,2.93012 -3.42088,4.44382 -1.76198,3.42699 -3.56364,6.29041 -4.97647,7.89971 -0.63495,0.66857 -2.01755,2.79668 -3.16521,4.71036 -2.37629,3.96859 -2.00172,3.50105 -9.84022,12.20276 -6.06068,6.71277 -13.81194,12.77365 -21.61867,16.92003 -20.22335,10.71834 -26.43641,12.31384 -57.85561,14.85009 l 0,0 c -19.83923,1.60279 -30.04774,1.56538 -42.16112,-0.14231 -8.38775,-1.18696 -12.46419,-2.05448 -23.53147,-5.00659 -1.88268,-0.51799 -4.53041,-1.13529 -5.8781,-1.4018 -1.34927,-0.3011 -4.24152,-1.26062 -6.43528,-2.21806 -2.1922,-0.94931 -4.70504,-1.72814 -5.58128,-1.72814 -0.87305,0 -1.86677,-0.4431 -2.20173,-0.91309 -0.31781,-0.51799 -1.2858,-0.91229 -2.1128,-0.91229 -0.82545,0 -2.90334,-0.59288 -4.60185,-1.26873 -6.32414,-2.61071 -17.98196,-6.0084 -23.79495,-6.93536 -8.21472,-1.30494 -20.0726,0 -26.37136,2.92286 -2.68743,1.24551 -8.19887,3.19663 -12.24189,4.33192 -4.04311,1.14258 -8.46084,2.4919 -9.80851,3.00379 -1.34929,0.51799 -7.96555,1.12715 -14.70398,1.35744 -10.31172,0.37434 -13.58177,0.1426 -20.59008,-1.52103 -16.547,-3.87174 -26.98563,-9.68724 -40.83721,-22.75792 -9.88945,-9.33121 -10.67044,-10.42905 -8.66878,-12.29148 1.97794,-1.83922 1.84937,-2.41091 -0.55546,-2.41091 -5.03993,0 -10.11161,-4.65826 -21.331323,-19.60523 -2.25727,-3.01109 -5.46221,-6.95809 -7.12104,-8.77495 l -3.01443,-3.30897 0,-13.11423 c 0,-14.09365 1.65091,-23.84843 8.91481,-55.06274 1.04767,-4.51746 1.93812,-11.29044 1.97784,-15.05109 0,-3.76103 0.47621,-9.71003 1.01594,-13.22614 0.88896,-5.97909 1.91436,-21.91929 3.36524,-51.98485 1.01593,-21.24382 5.152723,-41.13188 10.797483,-51.9613 4.38594,-8.41932 9.71322,-32.85373 9.51316,-43.67663 0,-3.44937 0.7144,-9.80648 1.71602,-14.13842 1.00008,-4.33195 3.38911,-14.68731 5.29398,-23.01793 1.91436,-8.3225 3.90813,-16.11884 4.44149,-17.32776 0.55549,-1.20202 3.21443,-9.9843 5.9733,-19.51651 2.75097,-9.53182 6.49879,-20.19849 8.33384,-23.70726 1.83343,-3.51648 4.48122,-10.08155 5.89237,-14.59861 2.36839,-7.56603 3.54151,-10.65937 5.32729,-14.06434 1.59535,-3.04126 5.66224,-3.58244 48.12649,-6.39415 9.12274,-0.59289 17.83911,-1.89906 27.94923,-4.15414 8.0782,-1.8022 19.53756,-3.87171 25.47125,-4.60661 5.93363,-0.74135 11.88956,-1.57958 13.23719,-1.89169 1.34935,-0.30114 7.96715,-1.1125 14.70562,-1.79487 6.74645,-0.66815 15.47075,-1.72814 19.40106,-2.31409 2.48113,-0.37437 4.1717,-0.59285 5.65432,-0.59285 z m 95.20689,63.47512 c 2.9113,0 3.87641,1.00955 7.20198,5.65968 1.69854,2.36659 7.76715,9.34667 8.7243,10.02867 0.31782,0.22388 2.16839,2.29983 4.04314,4.55491 1.86511,2.26241 3.73194,4.24323 4.13828,4.41374 0.39672,0.1426 0.71437,0.83008 0.71437,1.4685 0,0.66814 1.31746,2.71489 2.94298,4.60662 1.61754,1.89089 2.94142,3.79767 2.94142,4.22776 0,0.44313 -3.85896,0.77923 -8.57979,0.76377 -7.25757,0 -9.03547,-0.37434 -11.52289,-2.03292 -4.18753,-2.85566 -10.07202,-8.63455 -10.71804,-10.52544 -0.31778,-0.89074 -1.98586,-2.38898 -3.73992,-3.33829 -3.62875,-1.96619 -12.59909,-9.17576 -13.78017,-11.08986 -1.20638,-1.9434 2.24938,-6.73556 4.85744,-6.73556 1.19058,0 3.34781,-0.4431 4.7844,-0.91837 1.42866,-0.51839 4.39389,-0.98755 6.58609,-1.06855 0.47618,0 0.95245,0 1.38103,0 z m -195.00613,28.1214 c 1.3334,0 4.92728,0.44313 8.65919,1.29804 4.259,0.94116 10.04025,1.72121 12.83885,1.7432 2.80013,0 5.38281,0.44313 5.74152,1.00994 1.22233,1.83229 5.16066,17.91369 5.83847,23.81101 0.63494,5.48959 0.47618,6.06049 -1.95404,8.78311 -1.44454,1.59464 -3.14308,2.89268 -3.77172,2.88495 -0.63489,0 -2.91917,-1.58691 -5.09705,-3.50102 -3.94629,-3.47133 -7.94171,-5.2072 -18.10103,-7.86268 -8.05439,-2.10699 -8.10997,-2.16639 -6.80198,-7.38822 0.63498,-2.46261 1.06353,-8.02584 1.01593,-12.36551 -0.15885,-5.86028 0.23842,-7.99655 1.20644,-8.35301 0.15885,0 0.23842,0 0.39716,0 z m 144.44134,10.72608 c 0.47624,0 0.92074,0.22387 1.34935,0.51799 0.82548,0.66814 1.50797,1.52836 1.50797,1.96578 0,1.14909 -3.68431,0.99366 -4.46533,-0.14231 -0.84128,-1.27605 0.23842,-2.38895 1.60334,-2.29985 z m -97.51969,4.33194 c 1.39692,0 3.42088,1.18736 6.1718,3.405 l 4.33833,3.48639 -4.33833,1.40912 c -2.37638,0.7715 -5.03999,1.67646 -5.91781,2.01013 -1.83342,0.66855 -2.82241,-1.05349 -2.82241,-4.96957 0,-3.63489 0.79374,-5.39317 2.56842,-5.34067 z"
       id="path8973"
       inkscape:connector-curvature="0" />
  </g>
</svg>
