<?xml version="1.0" encoding="UTF-8" standalone="no"?>
<!-- Created with Inkscape (http://www.inkscape.org/) -->

<svg
   xmlns:dc="http://purl.org/dc/elements/1.1/"
   xmlns:cc="http://creativecommons.org/ns#"
   xmlns:rdf="http://www.w3.org/1999/02/22-rdf-syntax-ns#"
   xmlns:svg="http://www.w3.org/2000/svg"
   xmlns="http://www.w3.org/2000/svg"
   xmlns:sodipodi="http://sodipodi.sourceforge.net/DTD/sodipodi-0.dtd"
   xmlns:inkscape="http://www.inkscape.org/namespaces/inkscape"
   width="210mm"
   height="297mm"
   viewBox="0 0 744.09448819 1052.3622047"
   id="svg4186"
   version="1.1"
   inkscape:version="0.91 r13725"
   sodipodi:docname="ornament04.svg">
  <defs
     id="defs4188" />
  <sodipodi:namedview
     id="base"
     pagecolor="#ffffff"
     bordercolor="#666666"
     borderopacity="1.0"
     inkscape:pageopacity="0.0"
     inkscape:pageshadow="2"
     inkscape:zoom="0.35"
     inkscape:cx="360.28084"
     inkscape:cy="579.28402"
     inkscape:document-units="px"
     inkscape:current-layer="layer1"
     showgrid="false"
     inkscape:window-width="458"
     inkscape:window-height="573"
     inkscape:window-x="906"
     inkscape:window-y="0"
     inkscape:window-maximized="0" />
  <metadata
     id="metadata4191">
    <rdf:RDF>
      <cc:Work
         rdf:about="">
        <dc:format>image/svg+xml</dc:format>
        <dc:type
           rdf:resource="http://purl.org/dc/dcmitype/StillImage" />
        <dc:title></dc:title>
      </cc:Work>
    </rdf:RDF>
  </metadata>
  <g
     inkscape:label="Layer 1"
     inkscape:groupmode="layer"
     id="layer1">
    <g
       id="g5049">
      <path
         sodipodi:nodetypes="ccccccccccccc"
         inkscape:connector-curvature="0"
         id="path53253-5"
         d="m 422.44175,114.3152 c -28.5888,-14.681127 -59.76908,-29.751304 -92.87834,-25.150593 -53.49432,2.298804 -99.03594,38.139263 -131.30518,78.354573 -40.18597,51.65543 -65.28676,116.58883 -65.10826,182.38926 3.48687,61.72346 15.82349,122.5544 22.46988,183.96966 12.06374,87.76222 16.30069,179.68819 -13.33148,264.43847 -11.62946,28.44031 -22.22314,60.1771 -12.97947,91.03234 14.11227,53.92432 66.76682,90.61714 120.49368,97.11065 36.26675,5.82705 71.59796,-8.25278 106.1456,-17.15342 136.35763,-45.09607 265.0112,-178.73273 272.77354,-322.92811 7.32705,-105.91344 -14.10676,-203.8055 -44.74805,-315.1366 -20.84592,-83.88117 -73.7686,-159.96655 -145.90734,-207.78282 -5.09586,-3.23464 -10.31469,-6.27395 -15.62458,-9.14341 z"
         style="color:#000000;clip-rule:nonzero;display:inline;overflow:visible;visibility:visible;opacity:1;isolation:auto;mix-blend-mode:normal;color-interpolation:sRGB;color-interpolation-filters:linearRGB;solid-color:#000000;solid-opacity:1;fill:#000000;fill-opacity:1;fill-rule:evenodd;stroke:none;stroke-width:4.28571415;stroke-linecap:round;stroke-linejoin:round;stroke-miterlimit:4;stroke-dasharray:none;stroke-dashoffset:0;stroke-opacity:1;color-rendering:auto;image-rendering:auto;shape-rendering:auto;text-rendering:auto;enable-background:accumulate" />
      <path
         id="path53357-9"
         d="m 447.15282,129.73377 c 13.53076,45.42093 28.07702,90.56089 48.1362,133.64082 28.723,64.16651 43.92863,132.91011 56.39063,201.762 15.24543,71.46993 22.20807,144.71364 16.53505,217.67363 -6.3823,53.2331 -11.58517,107.08313 -25.00957,159.13336 5.33615,-6.18652 10.49374,-12.50651 15.43441,-18.96358 12.16432,-53.15987 17.81515,-107.92337 21.54104,-162.19639 6.3513,-89.86021 -14.06141,-178.34218 -31.66018,-265.71287 -12.97621,-77.0345 -51.17935,-145.99271 -75.6471,-219.3665 -3.38256,-11.58689 -7.0838,-23.12432 -10.75707,-34.6765 -4.88086,-3.90402 -9.87137,-7.66824 -14.96341,-11.29397 z M 373.05459,93.103853 c -4.32602,-1.253001 -8.68984,-2.321244 -13.09952,-3.112956 0.35212,1.52283 0.7442,2.82245 1.16652,3.690866 17.60051,59.928987 34.47581,120.357097 60.94359,177.200437 28.723,64.16649 43.92861,132.91008 56.39061,201.762 15.24543,71.4699 22.21073,144.71513 16.53771,217.6751 -6.41656,53.51901 -11.63567,107.66188 -25.22127,159.97215 -7.48904,27.96669 -18.24243,54.67968 -31.18995,80.33897 5.93305,-3.62447 11.79877,-7.40345 17.58762,-11.32977 5.62775,-12.40121 10.75233,-25.02699 15.27584,-37.87075 22.30769,-68.6657 30.58174,-141.33674 35.51098,-213.13873 6.35132,-89.86018 -14.06138,-178.34213 -31.66018,-265.71284 -12.97619,-77.0345 -51.17667,-145.99123 -75.64442,-219.36502 -8.75478,-29.98933 -19.66138,-59.63937 -26.59753,-90.109457 z m -76.96857,1.9518 c -3.4576,1.070403 -6.86844,2.274701 -10.23658,3.597878 15.07383,51.362419 30.69757,102.660779 53.35955,151.330619 28.723,64.16651 43.92864,132.91011 56.39064,201.762 15.24541,71.46993 22.2107,144.71516 16.5377,217.67512 -6.41658,53.51902 -11.63447,107.66606 -25.22012,159.9763 -13.64743,50.96444 -38.08542,97.78351 -67.02135,141.59503 -1.12286,2.43943 -3.85934,6.08437 -7.2208,10.22317 5.43169,-1.37163 10.84295,-2.85946 16.23493,-4.38616 24.70461,-36.02157 45.16711,-75.09206 59.67956,-116.29773 22.30771,-68.66572 30.58177,-141.33675 35.51101,-213.13873 6.3513,-89.86019 -14.06141,-178.34216 -31.6602,-265.71285 C 379.46419,304.6458 341.2622,235.69174 316.79442,162.31794 310.24111,139.86961 302.4846,117.61038 296.08602,95.055653 Z m -76.55464,48.749087 c -2.96002,2.94358 -5.84959,5.94546 -8.65459,9.00338 13.18038,44.00941 27.43413,87.70674 46.87803,129.46526 28.723,64.16649 43.92864,132.9101 56.39064,201.762 15.24543,71.46992 22.20804,144.71364 16.53502,217.67361 -6.41656,53.51901 -11.63296,107.66339 -25.21861,159.97364 -11.90871,44.47145 -32.03414,85.78756 -56.19411,124.70303 0.17848,0.0223 0.35693,0.0516 0.53559,0.0732 3.879,0.62327 7.74638,1.00671 11.60418,1.2052 18.49484,-29.91958 34.04768,-61.6865 45.72668,-94.84705 22.30771,-68.66572 30.58293,-141.3326 35.51218,-213.13458 C 348.99768,589.82226 328.58498,501.34029 310.98618,413.96958 298.01002,336.9351 259.80686,267.97687 235.3391,194.60307 230.38501,177.63295 224.75625,160.76734 219.53138,143.80481 Z m -67.63223,106.06217 c -2.04648,5.40131 -3.9419,10.8584 -5.67367,16.36394 3.85102,9.44367 7.89088,18.81767 12.20754,28.08827 28.723,64.16649 43.93012,132.90745 56.39212,201.75934 15.24541,71.4699 22.20922,144.71777 16.53619,217.67776 -6.41655,53.51901 -11.63563,107.66188 -25.22126,159.97215 -7.61549,28.43885 -18.59555,55.58679 -31.83724,81.64296 2.92645,2.27792 5.94317,4.44936 9.04113,6.50559 9.36325,-18.46435 17.59649,-37.49344 24.47111,-57.01276 22.30768,-68.66569 30.58024,-141.33408 35.50949,-213.13604 C 249.67588,601.86793 229.26317,513.38593 211.66438,426.01524 201.26102,364.25455 174.6537,307.68223 151.89915,249.86691 Z"
         style="fill:#ffffff;fill-opacity:1;fill-rule:nonzero;stroke:none;stroke-width:1px;stroke-linecap:butt;stroke-linejoin:miter;stroke-opacity:1"
         inkscape:connector-curvature="0" />
    </g>
  </g>
</svg>
