<?xml version="1.0" encoding="UTF-8" standalone="no"?>
<!-- Created with Inkscape (http://www.inkscape.org/) -->

<svg
   xmlns:dc="http://purl.org/dc/elements/1.1/"
   xmlns:cc="http://creativecommons.org/ns#"
   xmlns:rdf="http://www.w3.org/1999/02/22-rdf-syntax-ns#"
   xmlns:svg="http://www.w3.org/2000/svg"
   xmlns="http://www.w3.org/2000/svg"
   xmlns:sodipodi="http://sodipodi.sourceforge.net/DTD/sodipodi-0.dtd"
   xmlns:inkscape="http://www.inkscape.org/namespaces/inkscape"
   width="210mm"
   height="297mm"
   viewBox="0 0 744.09448819 1052.3622047"
   id="svg4186"
   version="1.1"
   inkscape:version="0.91 r13725"
   sodipodi:docname="ornament06.svg">
  <defs
     id="defs4188" />
  <sodipodi:namedview
     id="base"
     pagecolor="#ffffff"
     bordercolor="#666666"
     borderopacity="1.0"
     inkscape:pageopacity="0.0"
     inkscape:pageshadow="2"
     inkscape:zoom="0.35"
     inkscape:cx="328.90377"
     inkscape:cy="517.33062"
     inkscape:document-units="px"
     inkscape:current-layer="layer1"
     showgrid="false"
     inkscape:window-width="458"
     inkscape:window-height="573"
     inkscape:window-x="906"
     inkscape:window-y="0"
     inkscape:window-maximized="0" />
  <metadata
     id="metadata4191">
    <rdf:RDF>
      <cc:Work
         rdf:about="">
        <dc:format>image/svg+xml</dc:format>
        <dc:type
           rdf:resource="http://purl.org/dc/dcmitype/StillImage" />
        <dc:title></dc:title>
      </cc:Work>
    </rdf:RDF>
  </metadata>
  <g
     inkscape:label="Layer 1"
     inkscape:groupmode="layer"
     id="layer1">
    <path
       style="display:inline;fill:#000000"
       d="m 177.83272,813.06047 c 0.0745,-0.36986 0.31805,-2.33584 0.54269,-4.36867 l 0.40855,-3.69594 1.68135,-0.26332 c 2.99342,-0.46854 8.49229,-0.46051 8.96813,0.0146 0.23777,0.23676 0.40403,1.06495 0.37118,1.84965 -0.0759,1.81856 -0.39118,10.31084 -0.4119,11.10021 -0.0234,0.90877 -1.25689,1.18829 -3.1804,0.72107 -6.13147,-1.48956 -7.76905,-2.06306 -8.18007,-2.86439 -0.416,-0.81127 -0.45001,-1.23587 -0.19953,-2.49145 z m 3.15586,-64.88476 c 2.43745,-0.21267 6.008,-0.0628 7.92786,0.33104 0.90847,0.18683 1.22521,1.36271 0.73376,2.72352 -0.28449,0.78748 -0.28346,2.28244 0,5.8851 0.21179,2.6561 0.48007,5.31948 0.59611,5.91852 0.16567,0.85535 0.0832,1.13807 -0.38417,1.31731 -0.62574,0.24012 -4.2109,-0.38592 -5.15135,-0.89956 -0.30258,-0.16523 -1.38942,-0.52942 -2.41525,-0.80908 -2.1696,-0.59159 -3.28256,-1.6253 -3.70367,-3.43963 -0.16508,-0.71157 -0.30375,-3.43057 -0.30812,-6.04229 l -0.0147,-4.74863 2.70923,-0.23645 z m 15.42906,-272.89271 0.18946,-2.83504 2.3541,-0.57319 c 1.29468,-0.31529 3.60003,-0.68194 5.12301,-0.81463 2.63756,-0.22974 2.80148,-0.20361 3.45101,0.54999 0.63451,0.73596 0.68458,1.27236 0.71799,7.68497 0.0452,8.57622 0.0671,8.24853 -0.59449,8.90946 -0.45235,0.45249 -0.94585,0.50824 -2.77433,0.31352 -3.04188,-0.32403 -6.88466,-1.26974 -7.92275,-1.94993 -0.84687,-0.5548 -0.85811,-0.61814 -0.79622,-4.50647 0.035,-2.16886 0.14786,-5.21935 0.25222,-6.77868 z m 0.1896,93.40849 c 0.0789,-0.0789 0.20625,-4.19119 0.28143,-9.13702 0.0759,-4.94595 0.21178,-9.06738 0.3033,-9.1589 0.25996,-0.25996 5.17557,-0.8879 8.24167,-1.05282 2.66545,-0.14306 2.78324,-0.11824 3.02874,0.63216 0.14012,0.42972 0.25442,5.50266 0.25324,11.27332 0,7.88612 -0.10508,10.59534 -0.41832,10.90829 -0.24142,0.24157 -1.0886,0.38241 -2.01766,0.33556 -1.89883,-0.0963 -8.13248,-1.62224 -8.76363,-2.14595 -0.55013,-0.45672 -1.10202,-1.46138 -0.90877,-1.65464 z m 3.98013,192.24447 c 0.15458,-1.84965 0.34739,-3.57392 0.4284,-3.83183 0.28317,-0.90118 10.27057,-0.0496 11.34208,0.96657 0.15487,0.14684 0.0307,1.83534 -0.27543,3.75199 -0.30637,1.91678 -0.53044,4.54427 -0.49773,5.83896 0.15428,6.12754 0.30637,5.96845 -4.27147,4.47057 -2.00423,-0.65581 -4.02232,-1.28638 -4.48472,-1.40125 -0.46242,-0.11531 -1.21909,-0.50343 -1.68151,-0.86337 -0.76031,-0.59203 -0.84074,-0.8895 -0.84074,-3.11164 0,-1.35148 0.12699,-3.9705 0.28112,-5.82015 z M 202.1737,624.7395 c 0.5859,-5.22519 0.99109,-9.86843 0.99109,-11.35886 0,-1.45088 0.073,-1.58969 0.92483,-1.75536 0.50853,-0.0992 1.57012,-0.32886 2.35876,-0.51086 2.34096,-0.54022 7.65286,-0.42564 8.15191,0.17572 0.33396,0.40229 0.34258,2.11561 0.0423,8.32313 -0.39527,8.16052 -0.66254,10.09264 -1.51422,10.94432 -0.62808,0.62808 -3.30243,0.59233 -5.34664,-0.0715 -0.78207,-0.25397 -2.07998,-0.54123 -2.88423,-0.63859 -1.56372,-0.18901 -3.10917,-1.32271 -3.03255,-2.22419 0.0249,-0.29148 0.16392,-1.58924 0.30901,-2.88394 z m 0.17501,99.87743 c 0.65654,-7.10388 1.11706,-11.45155 1.56166,-14.74681 l 0.40155,-2.97664 1.52823,0.18815 c 0.84046,0.10361 2.66311,0.27777 4.05034,0.38739 1.38724,0.10947 3.16536,0.36257 3.95137,0.56225 1.68296,0.42738 1.68821,0.45832 0.93928,5.44822 -0.26961,1.79535 -0.58707,7.00304 -0.70544,11.57256 -0.11824,4.56952 -0.35791,8.87573 -0.53189,9.56935 -0.34171,1.36213 -1.02481,1.61158 -2.39876,0.87622 -0.39557,-0.21164 -1.40709,-0.58532 -2.24784,-0.83024 -4.79417,-1.39687 -6.21337,-2.04407 -6.63184,-3.02436 -0.48081,-1.12625 -0.48373,-0.89154 0.0832,-7.02609 z m 2.85343,67.42556 c 0.14159,-1.01723 0.41674,-3.04246 0.61189,-4.50049 0.195,-1.45802 0.43993,-2.73622 0.54414,-2.84044 0.10361,-0.10361 2.01619,-0.25471 4.24886,-0.33426 3.70834,-0.13283 4.19119,-0.0789 5.58382,0.61655 l 1.52429,0.76135 -0.21924,2.39204 c -0.62515,6.8197 -0.84863,8.56659 -1.26302,9.87442 -0.53086,1.67507 -0.73463,1.71142 -4.15644,0.74397 -1.2947,-0.36592 -3.11077,-0.83666 -4.03545,-1.04597 -2.95138,-0.66807 -3.40723,-1.57802 -2.83885,-5.66717 z m 1.35542,51.78822 c 0.15107,-1.38709 0.22026,-4.13602 0.15356,-6.10857 -0.11678,-3.44342 -0.092,-3.59346 0.60429,-3.76264 3.77388,-0.9165 9.62846,-0.38389 10.50628,0.95576 0.38053,0.58079 0.40199,0.95666 0.1036,1.8136 -0.25644,0.73567 -0.31687,3.32052 -0.18945,8.09221 0.17442,6.53025 0.14451,7.04988 -0.43467,7.57433 -0.57336,0.51875 -0.74428,0.52152 -2.17837,0.035 -0.85592,-0.29062 -1.81578,-0.52912 -2.13296,-0.52984 -0.83213,0 -4.92771,-1.47876 -5.93851,-2.14115 -0.95679,-0.6269 -1.00628,-1.22186 -0.49336,-5.92829 z m 0.47088,-421.6293 c 0.22755,-3.38037 0.47292,-6.19541 0.54503,-6.25555 0.66603,-0.55525 10.01002,-1.77112 10.92199,-1.42124 0.52109,0.19996 0.55773,0.67274 0.37484,4.8365 -0.11093,2.538 -0.0789,7.10139 0.0715,10.1405 0.15078,3.03925 0.17047,5.91369 0.0437,6.38779 -0.17194,0.64282 -0.65187,1.01956 -1.88818,1.48181 -2.28447,0.85447 -7.32487,0.53044 -8.96842,-0.5764 -1.70018,-1.14508 -1.86148,-3.28477 -1.10013,-14.59341 z m 0.7409,-74.98324 c 0.0745,-1.1559 0.24187,-2.10261 0.37164,-2.10378 0.1299,0 0.27105,-2.08187 0.31352,-4.62397 0.0789,-4.73359 0.73274,-10.54162 1.18376,-10.51942 0.13866,0 2.3541,0.0147 4.92306,0.0147 4.03588,0 4.77474,0.0847 5.43567,0.61932 0.74996,0.60736 0.75711,0.67785 0.37279,3.61522 -0.62283,4.75928 -1.09415,17.13857 -0.76719,20.14629 0.38229,3.51582 0.0219,4.2036 -2.19776,4.2036 -0.89622,0 -1.99211,-0.25968 -2.59845,-0.61568 -0.5767,-0.33863 -2.0013,-0.98174 -3.16594,-1.42912 -1.16449,-0.44753 -2.52268,-1.13676 -3.01808,-1.5316 -0.8209,-0.65435 -0.90468,-0.93737 -0.94467,-3.19469 -0.0249,-1.36228 0.0175,-3.42255 0.0919,-4.57858 z m 7.54194,-154.94443 c 0.14596,-1.47963 0.36826,-4.71519 0.49422,-7.19015 l 0.22888,-4.4999 2.22462,0.20026 c 1.22346,0.11093 3.63799,0.30405 5.36546,0.43088 3.91767,0.2877 4.01487,0.42009 3.47569,4.73651 -0.20874,1.67025 -0.30376,5.62427 -0.21807,9.07658 0.2134,8.61635 0.42562,8.50033 -8.12257,4.43801 -1.52954,-0.72689 -2.97327,-1.66559 -3.27877,-2.13178 -0.57918,-0.88396 -0.57962,-0.89753 -0.16946,-5.06041 z m 2.06158,292.5014 c 3.54049,-1.20477 9.52426,-1.71755 10.35814,-0.88759 0.2709,0.26973 0.42519,3.0966 0.50328,9.22195 0.0613,4.85811 0.20669,9.39055 0.32184,10.0722 0.18582,1.09925 0.0905,1.33936 -0.84672,2.12771 -0.99357,0.83608 -1.26317,0.88862 -4.55449,0.88862 -3.75374,0 -5.94289,-0.56824 -6.54851,-1.69959 -0.18858,-0.35265 -0.32637,-4.56457 -0.32637,-9.98068 l 0,-9.3707 1.09283,-0.37192 z m -0.0613,192.42517 c 0.12406,-1.29468 0.42534,-5.94639 0.66792,-10.33712 l 0.44081,-7.98302 1.04918,-0.1969 c 1.74821,-0.32799 8.76743,0.0904 9.53244,0.56823 0.38432,0.23997 0.74338,0.82032 0.79812,1.28973 0.13575,1.16669 -0.24507,9.07118 -0.76995,15.96547 -0.54182,7.11688 -0.47716,7.01894 -4.21864,6.38926 -4.50734,-0.75873 -6.91677,-1.65057 -7.44661,-2.75667 -0.15428,-0.32171 -0.17821,-1.64428 -0.0526,-2.93898 z m 3.90057,-153.80226 0.15429,-1.46401 3.93035,0.16363 c 2.33906,0.0978 4.64806,0.39483 5.70308,0.73479 l 1.77287,0.57129 -0.21646,6.95047 c -0.16552,5.31673 -0.32885,7.06901 -0.69465,7.45493 -0.3541,0.37338 -1.11486,0.48578 -2.92948,0.4325 -3.3773,-0.0992 -6.24737,-1.42621 -7.22576,-3.34095 -0.39454,-0.77214 -0.75098,-9.06607 -0.49424,-11.50265 z m 1.63538,-144.98914 c 0.2328,-3.05179 0.43934,-5.56835 0.4589,-5.59243 0.019,-0.0234 1.88936,-0.14875 4.15515,-0.27704 4.24724,-0.24084 6.81881,0.0672 7.38326,0.88439 0.16947,0.24522 0.21646,1.88059 0.10509,3.63989 -0.11093,1.75711 -0.34622,5.56222 -0.52152,8.45579 -0.17531,2.89359 -0.41207,5.50414 -0.52605,5.80102 -0.26449,0.68953 -3.59976,0.74588 -4.87168,0.0818 -0.47803,-0.24945 -1.71668,-0.72018 -2.75243,-1.04597 -2.08684,-0.6564 -2.98874,-1.45919 -3.56194,-3.17047 -0.4376,-1.30636 -0.43732,-1.32417 0.13136,-8.77735 z m 0.51248,248.01194 c 0.13136,-2.03443 0.35309,-5.29876 0.49364,-7.25379 l 0.25544,-3.55478 1.88643,0.12989 c 4.04172,0.27865 8.68744,1.47307 9.24605,2.37717 0.0948,0.15326 0.0249,2.38635 -0.1543,4.9626 -0.17952,2.57611 -0.45963,6.65125 -0.62237,9.05571 -0.39031,5.76832 -0.32711,5.64163 -2.67479,5.35802 -1.03983,-0.12552 -2.99093,-0.73945 -4.33598,-1.36402 -1.34491,-0.62458 -2.59348,-1.1356 -2.77433,-1.1356 -0.18085,0 -0.63157,-0.30257 -1.00146,-0.67246 -0.73696,-0.73696 -0.75331,-1.14201 -0.31833,-7.90274 z m 0.93503,-194.84859 c 0.3763,-0.20144 1.04875,-0.36623 1.49438,-0.36623 0.44562,0 1.63713,-0.28448 2.64792,-0.63231 1.40052,-0.48183 2.41526,-0.59101 4.26476,-0.45862 1.33484,0.0948 2.51101,0.30973 2.61377,0.47613 0.55026,0.89023 0.82527,5.45421 0.82176,13.64144 0,10.43812 -0.13867,11.17728 -2.14536,11.83967 -1.33382,0.44037 -2.66822,0.53262 -6.17572,0.42767 -1.96072,-0.0584 -2.58486,-0.21587 -3.29264,-0.82907 l -0.87329,-0.75668 0.36287,-3.8673 c 0.19967,-2.12697 0.36329,-4.09426 0.36373,-4.37175 0,-3.39962 -0.33513,-11.95992 -0.52299,-13.16938 -0.21295,-1.37161 -0.15778,-1.61319 0.44081,-1.93357 z m 2.09151,308.51386 c 0.1372,-1.84964 0.3509,-6.46515 0.47322,-10.25684 0.1226,-3.79154 0.28681,-7.21409 0.3652,-7.60542 0.13574,-0.6761 0.31091,-0.70661 3.51508,-0.61144 3.60602,0.10656 6.94056,0.65582 7.69038,1.26522 0.36928,0.30024 0.4173,1.33526 0.24376,5.26007 -0.11824,2.68748 -0.28843,6.7022 -0.37689,8.92172 -0.35002,8.77764 -0.52444,11.13568 -0.89168,12.05247 -0.34054,0.85038 -0.51497,0.93855 -1.59027,0.80369 -1.9905,-0.24975 -8.21379,-1.95227 -9.02638,-2.46956 -0.8441,-0.53729 -0.87242,-1.05618 -0.40242,-7.35991 z m 7.46471,-168.48003 c 3.6504,0 5.35437,0.12845 5.91327,0.44737 l 0.78514,0.44753 -0.11823,6.27087 -0.11823,6.27103 -0.8355,0.44708 c -1.07691,0.5764 -5.59725,0.31703 -7.81298,-0.44825 -2.72718,-0.94191 -2.94305,-1.52415 -2.94277,-7.93895 l 3e-4,-5.49668 5.12813,0 z m -4.90203,235.90558 c 0.0657,-0.64734 0.3506,-2.94976 0.63363,-5.11644 0.59509,-4.55698 1.48722,-16.21142 1.49116,-19.48246 l 0,-2.23572 2.36183,-0.23733 c 2.6453,-0.2655 6.21176,0.23032 8.06301,1.1213 l 1.17705,0.56633 -0.12115,4.70541 c -0.0671,2.58793 -0.23603,5.99165 -0.37672,7.56382 -0.14013,1.57202 -0.51614,5.96056 -0.83433,9.75225 -0.67479,8.04199 -0.69975,8.20489 -1.35221,8.85749 -0.79871,0.79857 -3.00874,1.01722 -4.62704,0.45774 -0.78776,-0.27251 -2.31381,-0.75083 -3.39116,-1.06304 -1.07721,-0.31222 -2.25002,-0.85915 -2.60618,-1.21515 -0.62764,-0.6278 -0.68135,-1.09663 -0.42081,-3.6742 z m 2.43627,34.7492 c 0.10801,-3.17543 0.2712,-5.84845 0.36375,-5.94012 0.44927,-0.44504 8.64293,-0.32316 8.92463,0.13282 0.10655,0.17341 0.6345,0.31514 1.17195,0.31514 0.60048,0 1.0845,0.22682 1.25542,0.58852 0.21559,0.456 0.29922,10.36077 0.11531,13.6197 -0.0554,0.97065 -1.28478,1.93342 -2.4713,1.93473 -0.60122,0 -2.15223,-0.2944 -3.44707,-0.65536 -1.2947,-0.36112 -2.76294,-0.74091 -3.26286,-0.84426 -1.2242,-0.25295 -2.56881,-1.50663 -2.72091,-2.53699 -0.0687,-0.46241 -0.0365,-3.43875 0.0715,-6.61418 z m 0.75668,-623.75665 c 0.1661,-1.66471 0.2423,-3.36708 0.16932,-3.78321 -0.10509,-0.60357 0.0234,-0.75669 0.63947,-0.75669 0.42474,0 1.1982,-0.16479 1.71886,-0.36636 0.62282,-0.24099 2.3481,-0.2874 5.04273,-0.13575 4.45408,0.25091 4.7838,0.42126 4.06757,2.10231 -0.33368,0.78324 -0.50388,5.39817 -0.58955,15.9878 0,0.75215 -0.2404,1.03925 -1.16274,1.42475 -1.06144,0.44344 -1.39585,0.41176 -4.11952,-0.39016 -1.63042,-0.48007 -3.45175,-1.01343 -4.04742,-1.18551 -1.85257,-0.53482 -2.11734,-1.28128 -2.06626,-5.82599 0.0248,-2.22462 0.18143,-5.40677 0.34754,-7.07134 z m 1.16595,650.72687 c 0.27149,-3.87824 0.5481,-7.10593 0.6148,-7.17264 0.0671,-0.0671 1.98831,-0.13283 4.2703,-0.14698 4.41817,-0.0278 6.55303,0.36432 7.46296,1.36986 0.52707,0.58255 0.51612,0.72413 -0.1772,2.27134 -0.66998,1.4954 -0.75214,2.32856 -0.87607,8.88888 -0.0818,4.32109 0.0147,8.02097 0.22202,9.17934 0.19718,1.06728 0.26827,2.60034 0.15764,3.40692 -0.16961,1.23778 -0.33617,1.49233 -1.06671,1.63217 -0.87081,0.1664 -3.31759,-0.43089 -5.36823,-1.31076 -0.60737,-0.26054 -1.39425,-0.47365 -1.74864,-0.47365 -0.35441,0 -1.33294,-0.46474 -2.17442,-1.03269 l -1.53028,-1.03268 0,-2.07794 c 0,-1.14288 -0.0642,-3.06172 -0.14013,-4.26388 -0.0759,-1.20231 0.0847,-5.35904 0.356,-9.23729 z m 3.51188,-578.76141 c 0.13575,-2.95927 0.40739,-6.81824 0.60502,-8.57535 0.19749,-1.75711 0.36417,-4.55668 0.37031,-6.22125 0.019,-5.32431 0.37585,-8.51272 0.98029,-8.77371 0.29704,-0.12843 2.57056,-0.26885 5.05208,-0.31265 4.37568,-0.0774 4.53669,-0.0554 5.32606,0.73434 0.56311,0.56313 0.71318,0.93899 0.48693,1.21997 -0.17983,0.22347 -0.41658,0.8603 -0.5262,1.41511 -0.31777,1.60895 -0.72179,17.61164 -0.60428,23.93215 0.1372,7.36852 0.15063,7.33728 -3.074,7.01951 -1.31352,-0.12991 -3.15237,-0.52576 -4.08624,-0.88074 -0.93387,-0.35498 -2.02509,-0.64545 -2.42474,-0.6456 -0.91402,-1.4e-4 -2.48722,-1.82862 -2.40942,-2.80031 0.0321,-0.40198 0.16903,-3.15206 0.30419,-6.11147 z m 0.57,355.54003 0.11676,-1.26113 3.93108,-0.0452 c 5.22505,-0.0598 6.87181,0.0437 7.38633,0.46372 0.31937,0.26084 0.37382,1.08991 0.2134,3.24462 -0.12846,1.71623 -0.0526,3.96465 0.18624,5.52369 0.30843,2.0194 0.31047,3.17017 0.0147,4.96144 -0.35324,2.09471 -0.48446,2.35701 -1.28755,2.57522 -2.15499,0.58576 -7.4012,0 -9.38543,-1.03414 l -1.09298,-0.57378 -0.0205,-4.11092 c -0.0147,-2.26097 -0.054,-5.09441 -0.0963,-6.29671 -0.0423,-1.20215 -0.0234,-2.7533 0.0409,-3.44692 z m 0.0905,54.89884 c 0.14304,-1.38709 0.4354,-3.88408 0.65129,-5.54864 0.34258,-2.64005 0.55334,-3.89095 1.1934,-7.07893 0.13574,-0.67436 0.20959,-0.67991 3.42764,-0.2572 6.48807,0.85243 8.02039,1.49803 7.70498,3.24638 -0.58912,3.26447 -1.30025,10.09628 -1.5008,14.41621 -0.13721,2.94451 -0.38432,5.10069 -0.61217,5.32854 -0.46402,0.46416 -4.01443,-0.20406 -4.85139,-0.913 -0.29192,-0.24742 -0.74587,-0.45133 -1.00874,-0.45322 -1.16333,0 -4.03006,-1.69624 -4.67419,-2.75258 -0.71362,-1.17062 -0.75214,-1.87081 -0.33002,-5.98756 z m 7.61315,-310.52131 0.1372,-2.6501 5.40591,0.15575 c 5.23468,0.15092 5.42559,0.18157 6.02799,0.96875 0.40636,0.53101 0.53816,1.04612 0.38008,1.48547 -0.13283,0.36987 -0.19004,6.83283 -0.12699,14.36205 l 0.11531,13.68946 -0.84454,0.21194 c -0.74704,0.18757 -2.40839,-0.16712 -7.79312,-1.66368 -3.19879,-0.88907 -3.19412,-0.87038 -3.32797,-13.40425 -0.0613,-5.77781 -0.0496,-11.6978 0.0249,-13.15539 z m 0.43673,91.75998 c 0.28141,0.0876 2.00348,0.2353 3.82686,0.32915 2.50779,0.12845 3.68061,0.35323 4.81664,0.92059 0.82586,0.4125 1.57553,0.86951 1.66573,1.01561 0.26741,0.43249 0.25208,12.44119 -0.0175,13.62596 -0.14157,0.62357 -0.66033,1.38229 -1.21398,1.77667 -0.82862,0.58999 -1.27162,0.65684 -3.10434,0.46913 -2.99954,-0.30725 -4.95969,-1.32068 -5.79825,-2.99779 -0.60691,-1.21384 -0.67333,-2.02656 -0.6799,-8.32151 0,-6.0934 0.057,-6.95619 0.50431,-6.81781 z m -0.36419,125.60974 c 0.1197,-2.86686 0.33762,-5.40166 0.483,-5.63287 0.31848,-0.5062 7.38355,-0.57684 9.46368,-0.0948 1.53699,0.35644 2.32709,1.22243 2.00392,2.19631 -0.1226,0.37002 -0.26608,3.7749 -0.31834,7.56658 l -0.0948,6.89385 -1.12712,0.58795 c -0.61977,0.32345 -1.75156,0.58822 -2.51495,0.58852 -2.21573,0 -6.15732,-1.02248 -7.11659,-1.84746 -1.03648,-0.89154 -1.12348,-2.03765 -0.77857,-10.2583 z m 0.80893,-76.70664 c 0.56619,-4.04844 0.67012,-4.13644 4.60106,-3.89503 3.46487,0.21268 5.44735,0.7075 6.1941,1.54606 0.37483,0.42095 0.49846,2.32883 0.58998,9.1078 l 0.11531,8.57535 -1.12566,0.56196 c -1.15662,0.57758 -2.19763,0.55583 -5.09572,-0.10655 -4.59099,-1.04918 -5.25134,-2.07108 -5.5094,-8.52629 -0.10361,-2.5986 -0.0147,-5.54457 0.22989,-7.2633 z m 0.9711,-202.24382 c 0.17004,-1.66471 0.45117,-3.16931 0.62487,-3.34358 0.19748,-0.19822 1.10728,-0.0452 2.43028,0.40869 1.16304,0.39922 3.01794,0.82893 4.12201,0.95504 1.10407,0.12553 2.30592,0.4341 2.67069,0.68428 0.3649,0.25018 1.10129,0.45482 1.63669,0.45482 0.85549,0 0.94453,0.0919 0.73551,0.75668 -0.84002,2.6736 -1.51219,12.11713 -0.8898,12.50189 0.44125,0.27266 0.65859,1.79405 0.30637,2.14611 -0.55816,0.5583 -3.12069,-0.20129 -7.12709,-2.11268 -3.44911,-1.64544 -4.00509,-2.02684 -4.42678,-3.03619 -0.53947,-1.29089 -0.56895,-4.65374 -0.0832,-9.41506 z m 0.96758,-164.61274 c 0.14013,-2.68193 0.41834,-6.54076 0.61992,-8.57535 0.20142,-2.03457 0.36651,-4.49362 0.36665,-5.46472 l 3e-4,-1.76542 5.60031,0 5.60047,0 -0.27207,4.79211 c -0.14962,2.63566 -0.31207,7.47742 -0.36097,10.7594 -0.0978,6.5736 -0.35089,9.92638 -0.87768,11.6343 -0.32958,1.06874 -0.40637,1.11283 -1.57129,0.90424 -0.67377,-0.12115 -2.43556,-0.65566 -3.91518,-1.18901 -1.47977,-0.53335 -3.14434,-1.07897 -3.69915,-1.21224 -1.96466,-0.47203 -1.97663,-0.55056 -1.49131,-9.88331 z m 9.79414,630.20282 c 0.29982,-5.39567 1.1556,-14.78388 1.3671,-14.99538 0.31893,-0.31879 6.99777,-0.16261 8.38397,0.19631 2.56751,0.66457 2.61918,0.80529 2.28288,6.22373 -0.16055,2.58939 -0.38841,8.77881 -0.50605,13.75441 -0.11824,4.9756 -0.35192,9.40923 -0.52051,9.85268 -0.34404,0.90496 -2.13456,1.7825 -3.63726,1.7825 -0.54663,0 -1.80002,-0.16524 -2.78512,-0.36739 -0.98512,-0.20202 -2.14464,-0.43526 -2.5767,-0.51817 -0.4322,-0.0832 -1.15092,-0.51599 -1.59742,-0.96234 -0.78324,-0.78324 -0.80979,-0.96876 -0.75609,-5.28286 0.0306,-2.45918 0.18596,-6.81676 0.3452,-9.68363 z m 1.97723,-705.363111 c 0.14158,-1.10976 0.53554,-4.13632 0.87504,-6.7257 l 0.61714,-4.70804 5.21089,0 c 4.61433,0 5.33905,0.0774 6.32853,0.67259 0.9781,0.58881 1.09137,0.79828 0.90847,1.6815 -0.11531,0.5548 -0.34623,2.21937 -0.51379,3.69915 -0.16771,1.47962 -0.47291,3.52253 -0.67829,4.53989 -0.20522,1.01722 -0.44562,3.7412 -0.53394,6.0531 -0.13282,3.46999 -0.26711,4.31102 -0.77112,4.81927 -0.56823,0.57291 -0.72747,0.58094 -2.29308,0.11677 -0.92526,-0.27485 -1.96817,-0.65304 -2.31746,-0.84046 -1.01124,-0.5424 -3.58501,-1.63026 -4.50254,-1.90292 -0.46225,-0.13721 -1.25673,-0.63946 -1.76542,-1.1156 -1.01093,-0.94656 -1.10844,-2.03195 -0.56443,-6.28883 z m -0.20815,132.625311 c 0.0832,-0.0832 0.19719,-2.33015 0.25222,-4.99209 l 0.0992,-4.83985 0.86994,-0.23267 c 1.72704,-0.46182 8.52528,-0.71624 9.47083,-0.35439 l 0.92483,0.35381 0,8.05732 c 0,4.75023 0.14304,8.43391 0.34885,8.9747 0.47992,1.26258 0.0598,1.57612 -2.34111,1.74981 -1.43453,0.10361 -2.69974,-0.0642 -4.46093,-0.5948 -2.95795,-0.88994 -4.42401,-2.14318 -4.94976,-4.23119 -0.37339,-1.48298 -0.49117,-3.61434 -0.21486,-3.89065 z m 2.67711,239.14058 0.36536,-4.87619 2.35409,0.0249 c 2.53246,0.0262 8.56046,1.00276 9.0179,1.46021 0.42387,0.42387 -0.24989,15.52276 -0.73274,16.42232 -0.32695,0.60911 -0.69565,0.75654 -1.89168,0.75654 -0.8171,0 -1.8333,-0.13429 -2.2582,-0.29733 -0.4249,-0.16363 -1.90744,-0.63947 -3.29453,-1.05765 -3.72016,-1.12114 -4.04786,-1.51962 -3.98057,-4.84088 0.0307,-1.49364 0.21938,-4.91005 0.42037,-7.59184 z m -0.0948,226.6578 c 0.14991,-1.20229 0.3903,-4.00188 0.53422,-6.2214 l 0.26172,-4.03545 2.80059,-0.0978 c 3.33118,-0.11677 8.38413,0.38709 8.8826,0.88556 0.24828,0.24828 0.2277,1.79448 -0.0686,5.16403 -0.23268,2.64545 -0.49861,5.82277 -0.59101,7.06098 -0.23209,3.11311 -0.67931,3.47466 -4.25089,3.43612 -2.994,-0.0321 -6.23249,-0.83826 -7.02215,-1.74776 -0.718,-0.82689 -0.85666,-1.95518 -0.54634,-4.444 z m -0.11824,29.20593 0.0948,-3.91837 1.58692,-0.14305 c 1.61581,-0.14596 8.16751,0.51349 9.23758,0.92906 0.34374,0.13283 0.59845,0.5983 0.61231,1.11749 0.019,0.71537 -0.10509,16.0748 -0.16932,20.89786 -0.0147,0.64735 0.10215,1.73638 0.24493,2.41993 0.22376,1.06772 0.16085,1.2963 -0.44664,1.62136 -1.09867,0.58793 -3.99093,0.43613 -6.17907,-0.32433 -1.09239,-0.3798 -2.25878,-0.69041 -2.59202,-0.69041 -0.36665,0 -0.97635,-0.63041 -1.54473,-1.59743 l -0.93898,-1.59727 0,-7.3983 c 0,-4.06916 0.0423,-9.16167 0.0948,-11.31668 z m 0.37426,-411.22853 0.20376,-3.86744 3.61522,-0.39994 c 1.98831,-0.21997 4.56092,-0.29557 5.7168,-0.16814 l 2.10188,0.23193 0.1036,5.0442 c 0.1197,5.78773 -0.12553,8.91894 -0.76485,9.79355 -0.42825,0.58561 -0.59523,0.57364 -4.11002,-0.29164 -4.09851,-1.00918 -5.84526,-1.65741 -6.45917,-2.39715 -0.53554,-0.64515 -0.66209,-3.11457 -0.40739,-7.94537 z m -0.17691,274.39436 c 0.0818,-0.0832 0.24858,-2.94991 0.37221,-6.36939 0.12406,-3.41963 0.27237,-6.26489 0.33016,-6.3227 0.0584,-0.0584 2.09706,0.0437 4.53144,0.22653 3.26577,0.24479 4.70848,0.49716 5.5034,0.96249 l 1.07736,0.6307 -0.0657,7.04172 c -0.0365,3.87284 -0.0745,7.59885 -0.0847,8.27992 -0.0249,1.59625 -0.64284,1.8025 -3.80615,1.26884 -3.22185,-0.54341 -6.34123,-1.75184 -7.03208,-2.7241 -0.5694,-0.80148 -1.09778,-2.71477 -0.82688,-2.99401 z m 1.58123,-318.27997 c 0.16915,-2.03444 0.42357,-4.45583 0.56516,-5.3805 l 0.25748,-1.6815 2.51947,-0.18056 c 1.38564,-0.0992 3.04904,-0.0657 3.69638,0.0759 0.64734,0.14158 1.88686,0.26025 2.75463,0.26463 0.8676,0 1.69082,0.1915 1.82949,0.41585 0.13867,0.22435 0.26113,5.59477 0.27207,11.93439 0.0161,9.30253 -0.0671,11.55971 -0.42781,11.69852 -0.99941,0.38375 -3.19281,0.12553 -5.83678,-0.68719 -3.7209,-1.14362 -4.82045,-1.72004 -5.31861,-2.78761 -0.5389,-1.15515 -0.71392,-8.83472 -0.31148,-13.67208 z m 4.49449,356.33057 c 0.59772,-0.46971 5.84875,-0.67026 8.21934,-0.31397 1.31761,0.19807 2.3992,0.55598 2.64778,0.87608 0.30229,0.38928 0.42038,2.32241 0.42038,6.88186 0,6.28343 -0.0147,6.34796 -0.82544,7.16593 -0.75506,0.75507 -1.07734,0.82367 -3.78321,0.80529 -3.95006,-0.0263 -6.05792,-0.40273 -6.66527,-1.18903 -0.40227,-0.52094 -0.48315,-1.88292 -0.43322,-7.29261 0.0393,-4.23294 0.19179,-6.75446 0.41964,-6.93355 z m 0.90104,-278.64818 c 0.16099,-1.10976 0.44518,-2.45642 0.63157,-2.99268 0.1864,-0.53627 0.34113,-1.44416 0.34405,-2.01765 0.0147,-1.86468 0.24274,-1.97197 3.39174,-1.55772 5.23454,0.68851 8.35597,1.44446 8.55506,2.07166 0.10067,0.31805 -0.12553,2.44356 -0.50226,4.72322 -0.37717,2.2798 -0.68647,4.54953 -0.6872,5.04406 -7.3e-4,0.49452 -0.17997,1.67303 -0.39833,2.61887 -0.31382,1.35979 -0.50752,1.67215 -0.92482,1.49188 -0.29018,-0.12552 -1.49992,-0.59217 -2.68807,-1.03721 -1.18814,-0.44504 -2.32299,-1.00246 -2.52209,-1.23878 -0.19909,-0.23617 -1.39556,-0.85666 -2.65902,-1.37878 -3.00174,-1.24068 -3.14463,-1.56296 -2.54063,-5.72687 z m 1.22229,-178.04136 c 0.057,-2.66923 0.25747,-5.0385 0.44533,-5.26504 0.35119,-0.42315 0.77653,-0.48956 7.35903,-1.14961 3.59567,-0.36052 3.8838,-0.34535 4.3195,0.22843 0.38111,0.50182 0.42548,1.9111 0.2423,7.67665 -0.21938,6.90057 -0.24347,7.08126 -1.04905,7.90275 -0.69521,0.70894 -1.13063,0.83915 -2.7749,0.82995 -1.07268,0 -2.54442,-0.1883 -3.27045,-0.40534 -0.72603,-0.21706 -1.86906,-0.48051 -2.54021,-0.58532 -1.83577,-0.28682 -3.00056,-1.52867 -2.90932,-3.10201 0.0409,-0.70238 0.12115,-3.46108 0.17777,-6.13046 z m 1.11618,245.13077 c 0.4306,-1.74602 1.67056,-10.99601 2.11852,-15.80549 0.36169,-3.88131 0.44285,-4.19761 1.05881,-4.12551 2.4805,0.29003 5.60703,0.76704 6.9191,1.05546 1.68836,0.37118 4.0048,1.59771 4.0048,2.12055 0,1.329 -0.76018,8.80991 -1.01897,10.02914 -0.17677,0.83243 -0.62882,4.57508 -1.00467,8.31714 -0.3757,3.74207 -0.77142,7.03354 -0.87913,7.31422 -0.28303,0.7377 -1.21997,0.6402 -4.99998,-0.51993 -4.37759,-1.34358 -5.85517,-1.98436 -6.24183,-2.70688 -0.38257,-0.71478 -0.35703,-4.05544 0.0437,-5.6787 z m 1.23325,422.25007 c 2.15851,-0.63785 9.08096,0 10.07365,0.9295 0.92132,0.86176 1.75331,5.73475 1.9873,11.64014 0.23981,6.05324 0.21705,9.34646 -0.0687,9.80757 -0.0891,0.1445 -0.72369,0.52955 -1.40942,0.85505 -2.3055,1.09472 -8.45129,0.48357 -9.81064,-0.97548 -0.57743,-0.6199 -0.63975,-1.26871 -0.65114,-6.78365 -0.0161,-7.41901 -0.26551,-14.57019 -0.5243,-14.98896 -0.10509,-0.16976 0.0759,-0.38769 0.40242,-0.48417 z m 1.82967,-714.48392 c 0.17909,-1.57217 0.36199,-4.45363 0.40636,-6.40356 0.0437,-1.94978 0.19224,-3.72542 0.32857,-3.94598 0.24069,-0.38927 1.00787,-0.43248 6.9404,-0.39 5.02158,0.0365 5.90816,0.67143 5.36503,3.84569 -0.15837,0.92482 -0.39454,4.70806 -0.52488,8.4072 -0.24741,7.01863 -0.45745,7.97674 -1.84585,8.4174 -1.39074,0.4414 -9.23584,-1.77622 -10.2507,-2.8978 -0.72794,-0.80441 -0.86543,-3.11296 -0.41893,-7.03295 z m -0.0306,407.74862 c 0.13575,-2.40445 0.4846,-7.3983 0.77667,-11.09745 0.29193,-3.69914 0.53292,-7.89865 0.53554,-9.33201 0,-3.01268 -0.37002,-2.81753 4.37656,-2.27352 3.06056,0.35075 6.93414,1.53917 7.19001,2.20594 0.086,0.22361 0.019,2.65696 -0.14904,5.40735 -0.80805,13.24821 -0.99079,17.37518 -0.91125,20.58346 0.0774,3.10507 0.0161,3.52676 -0.56399,3.95137 -0.91591,0.66983 -2.77651,0.59057 -5.09324,-0.21675 -1.0921,-0.38053 -2.43978,-0.81492 -2.99459,-0.96526 -2.50254,-0.678 -2.89445,-1.07794 -3.31964,-3.38709 -0.0511,-0.27732 0.0175,-2.47159 0.15297,-4.87604 z m 2.46795,367.07931 c 0.63157,-0.52415 8.23233,-0.57903 9.19028,-0.0657 0.39162,0.2096 1.01445,0.38111 1.38403,0.38111 0.87418,0 0.97547,0.47204 1.02671,4.78453 0.0234,1.9841 0.2515,5.31337 0.50663,7.39833 0.255,2.08487 0.36316,4.39612 0.24025,5.13599 -0.19411,1.16823 -0.35059,1.35966 -1.19134,1.45596 -0.53233,0.0617 -2.04393,-0.25849 -3.35891,-0.71028 -1.31498,-0.45161 -3.40926,-1.0849 -4.65403,-1.40731 -3.1267,-0.81015 -3.13033,-0.82061 -3.23309,-9.23223 -0.0467,-3.77707 -0.15079,-6.97557 -0.23268,-7.1081 -0.0818,-0.13283 0.0628,-0.41658 0.32215,-0.63159 z m 0.5929,-126.97012 c 0.16538,-2.58938 0.2569,-8.14912 0.20318,-12.35492 -0.0773,-6.12666 -0.0146,-7.68116 0.35046,-7.81866 0.97869,-0.37528 5.928,-0.14013 7.99704,0.37921 3.03224,0.76177 3.15529,1.01298 3.39525,6.93369 0.2172,5.36343 -0.41847,19.4356 -0.93884,20.77671 -0.18216,0.46986 -0.9873,1.21252 -1.78907,1.65055 -1.30156,0.71098 -1.72426,0.77273 -3.93999,0.57613 -2.31367,-0.20538 -4.26374,-0.70166 -5.25628,-1.33762 -0.4735,-0.30345 -0.47701,-1.67581 -0.0219,-8.80509 z m 1.26623,-536.54664 c 0.14596,-1.20216 0.35601,-2.41292 0.46811,-2.69026 0.30623,-0.75871 1.22988,-7.33801 1.22988,-8.76071 0,-0.68413 0.092,-1.70748 0.20596,-2.27396 0.16581,-0.82864 0.31382,-0.97109 0.75668,-0.72821 0.95109,0.52138 3.83824,1.09414 5.77298,1.14508 1.1445,0.0307 2.48576,0.34346 3.48824,0.81462 l 1.62896,0.76573 -0.19006,1.4081 c -0.10509,0.77434 -0.43263,2.84556 -0.72894,4.60266 -0.29645,1.75711 -0.68369,4.25411 -0.86074,5.54879 -0.17691,1.2947 -0.49511,3.23704 -0.70691,4.31614 -0.23952,1.2207 -0.30345,3.29819 -0.16887,5.49713 l 0.21632,3.53479 -1.59611,-0.1499 c -2.12085,-0.1991 -3.47408,-0.76791 -6.34999,-2.66894 -1.7352,-1.14713 -2.50429,-1.88643 -2.77754,-2.6701 -0.52299,-1.5005 -0.70368,-5.08026 -0.38797,-7.69096 z m 5.7222,71.46115 c 0.54386,-8.22416 1.21939,-10.7137 2.69302,-9.92507 0.31411,0.16815 1.92001,0.4754 3.56865,0.68282 5.42664,0.68267 6.50749,0.97051 6.71256,1.78775 0.10215,0.40505 -0.0569,1.31397 -0.35132,2.01984 -0.54532,1.30506 -0.95241,5.09894 -1.35994,12.67502 -0.20931,3.89065 -0.0774,5.27059 0.68602,7.13585 0.34579,0.84601 -0.97956,0.77478 -4.84407,-0.26053 -4.09896,-1.09823 -6.26869,-2.27032 -6.75709,-3.65055 -0.52051,-1.47057 -0.66165,-5.71928 -0.34783,-10.46513 z m 1.40578,375.29674 c 0.17821,-2.03442 0.262,-5.46953 0.1861,-7.63329 -0.0992,-2.83679 -0.0263,-3.97677 0.26156,-4.08741 0.34361,-0.13136 4.72396,0.57203 8.13439,1.30725 1.94277,0.41877 2.71697,1.64705 3.06626,4.86467 0.39161,3.60703 -0.0671,10.3685 -0.85359,12.5829 -0.52153,1.46811 -0.78179,1.74252 -2.32184,2.44854 -1.54664,0.70894 -2.02759,0.77054 -4.44153,0.56926 -4.41554,-0.36827 -4.79634,-1.31762 -4.03135,-10.05192 z m 0.47467,-68.26629 c 0.22552,-0.56313 1.24434,-8.89647 1.45949,-11.9382 l 0.2023,-2.8584 1.84965,-0.21324 c 4.21541,-0.48578 8.69007,0.30651 9.35303,1.65594 0.71932,1.4643 -0.0146,7.91735 -1.64442,14.54044 -0.39542,1.60282 -2.22915,3.32503 -3.81417,3.58222 -1.78761,0.29003 -5.91896,-0.52488 -6.83706,-1.3487 -0.70544,-0.6329 -0.99285,-2.3611 -0.56882,-3.42006 z m 1.69813,116.09497 c 0.1124,-0.11239 0.30156,-3.27191 0.42038,-7.02097 l 0.21588,-6.81649 1.0089,-0.20538 c 1.38052,-0.28112 5.7873,0.17356 8.04564,0.82994 1.20813,0.35134 2.00379,0.80266 2.27338,1.29003 0.43921,0.79376 0.45948,3.59231 0.0803,11.07891 l -0.21647,4.27628 -1.22419,0.74194 c -2.4281,1.4716 -9.06694,0.94511 -10.30107,-0.81681 -0.49948,-0.71332 -0.70207,-2.95824 -0.30287,-3.35745 z m 2.40168,-287.63879 c 3.75287,0.36594 5.27877,0.60342 5.63287,0.87696 0.18494,0.14303 0.86601,0.36154 1.51335,0.48619 0.64735,0.12408 1.5367,0.4049 1.97648,0.62298 0.79171,0.39264 0.79711,0.4319 0.56635,4.07953 -0.29558,4.67214 -0.75887,5.8883 -2.27353,5.96859 -2.81022,0.14902 -6.71125,-0.584 -8.16007,-1.53335 -1.08452,-0.71055 -1.52532,-2.71433 -1.52532,-6.93281 l 0,-3.78937 2.26987,0.22128 z m -1.25003,369.78533 c 0.15312,-0.64735 0.46957,-3.61668 0.70325,-6.59842 l 0.4249,-5.42121 2.80761,-0.17531 c 3.53524,-0.22056 7.26066,0.60034 8.22343,1.81183 0.59129,0.74399 0.61989,1.24873 0.41775,7.35641 -0.19545,5.90567 -0.28361,6.63025 -0.88702,7.28722 -1.24523,1.35629 -2.25223,1.54531 -5.00086,0.9384 -1.37307,-0.30316 -3.06114,-0.66807 -3.7514,-0.81111 -0.69011,-0.14305 -1.49466,-0.45877 -1.7876,-0.7021 -0.47936,-0.39775 -1.54839,-2.15747 -1.46286,-2.40795 0.019,-0.0554 0.15969,-0.63042 0.3128,-1.27776 z m 1.24842,-249.6095 c 0.0774,-2.29003 0.23311,-3.27717 0.51817,-3.27353 2.2693,0.0292 8.46135,0.74442 9.20694,1.06277 2.13222,0.91051 2.06464,0.59407 1.87854,8.78334 -0.10655,4.67403 -0.30798,7.64059 -0.53962,7.93018 -0.56181,0.70281 -4.35789,0.2661 -7.04842,-0.81112 -2.44124,-0.97722 -3.21732,-1.79213 -3.86891,-4.06229 -0.38067,-1.32608 -0.39453,-2.23631 -0.1467,-9.62935 z m 8.77971,199.92302 0.53524,-3.11077 1.56268,0 c 2.49087,0 7.45872,0.9705 8.3764,1.63638 1.55465,1.12815 1.69755,1.86775 1.18041,6.11134 -0.78063,6.40531 -1.38111,7.72773 -3.50254,7.71328 -3.08464,-0.0205 -7.4688,-1.80337 -8.27627,-3.36489 -0.63844,-1.2347 -0.58866,-4.84452 0.12408,-8.98534 z m 2.60616,-271.63626 c 0.99212,-6.77488 1.50269,-12.09334 1.83534,-19.11301 0.19253,-4.06552 0.30463,-7.78408 0.24888,-8.26342 -0.0992,-0.86119 -0.0701,-0.87315 2.42108,-0.98467 1.38709,-0.0628 3.77214,0.0672 5.29978,0.28754 2.34535,0.3382 2.88643,0.53847 3.4751,1.28696 0.64779,0.82353 0.68136,1.16115 0.47132,4.7568 -0.24843,4.25235 -1.05356,15.2212 -1.54298,21.02091 -0.17165,2.03458 -0.42402,5.16725 -0.56079,6.96171 -0.1372,1.79448 -0.42256,3.43627 -0.63523,3.64865 -0.52445,0.52372 -1.3741,0.52459 -5.49844,0 -3.73797,-0.47014 -5.14243,-0.96773 -5.70688,-2.02247 -0.44357,-0.82877 -0.36942,-3.74512 0.19282,-7.58498 z m 0.32463,-417.921241 c 0.14159,-0.13866 1.95387,-0.25222 4.02742,-0.25222 2.78425,0 3.87007,0.12115 4.15279,0.46125 0.21064,0.25368 1.07707,0.53962 1.92542,0.63523 2.66878,0.30082 2.65024,0.2388 2.65024,8.91996 0,5.08463 -0.14669,8.27671 -0.43891,9.54702 -0.42577,1.85096 -0.48561,1.92424 -1.99356,2.43803 -3.24886,1.10698 -7.29934,0.5078 -9.0395,-1.33732 l -1.05502,-1.11866 0,-5.37992 c 0,-2.95882 -0.11387,-7.24313 -0.24304,-9.52045 -0.12991,-2.27747 -0.12115,-4.25425 0.0205,-4.39292 z m 2.17398,575.640141 c 0.13283,-1.29484 0.2604,-3.75389 0.28345,-5.46472 l 0.0423,-3.11062 1.76556,0.0146 c 2.97679,0.0175 8.63331,0.90367 9.53229,1.49278 l 0.84922,0.55641 -0.18524,4.60295 c -0.20872,5.18841 -0.50911,9.38471 -0.72909,10.18386 -0.0818,0.29514 -0.7247,0.72719 -1.42986,0.95985 -1.07327,0.35426 -1.57902,0.33675 -3.10449,-0.10655 -1.00218,-0.2915 -2.50515,-0.61392 -3.34008,-0.71639 -1.09895,-0.13429 -1.86439,-0.50387 -2.77431,-1.33745 -1.39089,-1.27427 -1.4538,-1.76339 -0.90921,-7.07047 z m 4.27701,186.47133 c 0.10215,-8.37334 -0.0628,-8.0709 4.3973,-8.0709 6.43829,0 7.16241,1.18478 7.21379,11.80158 0.0306,6.4034 -0.34345,7.73372 -2.46882,8.77239 -1.0486,0.51247 -1.46825,0.52211 -4.51874,0.10509 -1.84964,-0.25324 -3.38328,-0.46956 -3.40824,-0.4808 -0.0249,-0.0146 -0.32097,-0.43643 -0.65771,-0.94512 -0.68048,-1.02787 -0.68179,-1.05181 -0.55758,-11.18151 z m 0.72923,-487.28052 0.19516,-1.51335 2.8584,0 c 3.06975,0 8.05951,0.95328 8.47769,1.61129 0.14013,0.22098 0.26361,3.95808 0.27339,8.30458 0.0146,4.34649 0.15195,10.32222 0.31572,13.27945 0.22288,4.02669 0.19851,5.43976 -0.0963,5.62775 -0.21706,0.13867 -1.75988,0.25325 -3.42882,0.25603 -2.89797,0 -3.1283,-0.051 -5.12989,-1.23456 -2.42679,-1.43569 -2.59319,-1.80367 -3.08931,-6.83123 -0.38462,-3.89721 -0.64488,-17.41605 -0.37542,-19.50464 z m 0.46403,-166.1261 c 0.14784,-5.82612 0.29922,-12.44687 0.33629,-14.71252 0.0759,-4.60586 0.0481,-4.56617 2.4986,-3.64075 0.69742,0.26331 1.99429,0.57641 2.88219,0.69565 2.55305,0.34317 4.96173,1.16611 5.7403,1.96117 0.69946,0.71434 0.71114,0.8949 0.49584,7.62556 -0.12115,3.79169 -0.25544,11.5095 -0.29806,17.15069 -0.0423,5.64119 -0.21368,10.52162 -0.37994,10.84521 -0.38651,0.75289 -1.47408,0.74267 -4.65025,-0.0437 -3.25571,-0.80645 -6.36633,-2.3341 -6.57053,-3.22682 -0.3039,-1.3287 -0.31981,-6.19818 -0.054,-16.65398 z m 1.12727,226.99411 c 0.2547,-3.23675 0.41569,-6.37642 0.35776,-6.97677 -0.073,-0.75755 0.054,-1.14201 0.41555,-1.25571 0.91037,-0.28668 8.2027,0.18011 10.65985,0.68238 1.09968,0.22463 1.38606,1.60004 1.04655,5.02784 -0.16479,1.66472 -0.35411,5.75066 -0.42081,9.0798 -0.0671,3.32927 -0.13283,6.29379 -0.1464,6.58777 -0.0452,0.94511 -1.52298,1.35745 -2.86161,0.79826 -0.64764,-0.27062 -1.41877,-0.49204 -1.71361,-0.49204 -0.29485,0 -1.32112,-0.36126 -2.28067,-0.8028 -0.95971,-0.44154 -2.12303,-0.89432 -2.58546,-1.00583 -1.054,-0.25471 -1.35424,-0.47628 -2.28155,-1.68369 -0.86264,-1.12333 -0.86703,-1.34914 -0.1896,-9.95921 z m 0.11385,288.871 c 0.1445,-2.31205 0.46081,-6.81415 0.7015,-10.00462 0.41483,-5.49785 0.47394,-5.80043 1.13063,-5.79036 0.38111,0 2.21353,0.21428 4.07223,0.46314 3.54034,0.47409 5.92275,1.39745 6.52908,2.53042 0.24347,0.45496 0.18612,2.48415 -0.19238,6.80875 -0.38505,4.39802 -0.48139,7.94083 -0.33673,12.38207 0.11093,3.42167 0.21062,6.5104 0.22056,6.86363 0.0277,1.00831 -0.68867,1.25616 -3.01138,1.04101 -2.7806,-0.25763 -8.02872,-2.43409 -8.62424,-3.57669 -0.58619,-1.12436 -0.79887,-5.78467 -0.48927,-10.7175 z m 2.08669,-160.56532 c 0.16625,-3.13763 0.3671,-5.76979 0.44665,-5.84933 0.0789,-0.0789 1.97517,0.0393 4.21279,0.26287 3.72323,0.37293 6.7181,1.18507 7.12184,1.93154 0.0832,0.15398 -0.0423,4.51727 -0.27805,9.69604 -0.23632,5.17893 -0.34316,10.42208 -0.2375,11.65167 0.10511,1.22945 0.0963,2.61405 -0.019,3.07704 -0.42519,1.69407 -3.87241,2.06686 -7.7038,0.83273 -1.27805,-0.41146 -2.68865,-1.11312 -3.13457,-1.55903 -0.80674,-0.80674 -0.81037,-0.84411 -0.76047,-7.57477 0.0278,-3.72016 0.18612,-9.33114 0.35236,-12.46876 z m 0.44767,64.72333 c 0.23996,-1.57216 0.44941,-3.7187 0.46562,-4.77022 0.0161,-1.05153 0.18201,-2.31308 0.36856,-2.80382 l 0.33922,-0.89197 3.27585,0.19223 c 6.65242,0.39015 7.87312,1.1826 7.88114,5.11572 0,3.55027 -0.57363,7.92275 -1.23878,9.32442 -0.9257,1.95095 -2.02554,2.35308 -5.32957,1.9489 -1.51291,-0.18507 -3.20345,-0.57246 -3.75666,-0.86088 -0.55319,-0.28842 -1.18973,-0.52547 -1.41438,-0.52649 -1.1404,0 -1.3144,-1.98699 -0.591,-6.72789 z m -0.30039,266.57001 c 0.0321,-0.0336 0.23047,-1.49978 0.44182,-3.25688 0.44987,-3.73929 0.72997,-4.17309 2.38126,-3.68879 0.64193,0.18814 1.77243,0.23763 2.51231,0.10947 1.66209,-0.2874 3.1966,-0.21003 5.3805,0.27091 2.90408,0.63961 2.87198,0.591 2.12041,3.21324 -0.56605,1.97517 -0.63932,3.13675 -0.54634,8.67022 l 0.10802,6.38939 -1.17705,-0.0963 c -1.71857,-0.14158 -9.60951,-2.70061 -10.38602,-3.36795 -0.5732,-0.49278 -0.67917,-1.0889 -0.77769,-4.3757 -0.0628,-2.09282 -0.0875,-3.83314 -0.057,-3.86729 z m 1.50736,-738.54949 c 0.17472,-0.55495 0.27528,-1.97516 0.22333,-3.15617 -0.089,-2.02042 -0.0452,-2.16623 0.74615,-2.46692 0.91067,-0.34607 2.57961,-0.21996 8.12257,0.61422 3.38781,0.50984 3.59144,0.58545 3.74586,1.39322 0.0905,0.46971 0.0452,1.26696 -0.0992,1.77141 -0.1445,0.50459 -0.45073,4.22812 -0.68019,8.27466 -0.29704,5.23921 -0.54808,7.49783 -0.87227,7.84552 -0.27135,0.29105 -1.3087,0.54255 -2.56749,0.62282 -1.77258,0.1124 -2.56254,-0.0393 -4.91357,-0.94584 -3.78644,-1.46021 -4.07398,-2.05779 -4.04391,-8.40427 0.0146,-2.49684 0.16451,-4.99384 0.33937,-5.54865 z m 0.60181,781.78144 c 0.80644,-0.48469 0.96438,-2.1369 0.26025,-2.7212 -0.46504,-0.38589 -0.34024,-2.16372 0.42841,-6.10341 0.1985,-1.01736 0.45671,-2.81431 0.57378,-3.99341 l 0.21295,-2.14361 2.44577,0.22157 c 1.67521,0.1518 2.51976,0.10214 2.6806,-0.15838 0.2483,-0.40168 2.02101,-0.25791 4.94962,0.40126 1.98336,0.44636 2.24113,1.1607 1.48008,4.10099 -0.82879,3.20216 -1.59641,12.21685 -1.19296,14.01203 0.18391,0.81882 0.49511,1.68234 0.69128,1.91883 0.4557,0.54916 0.0847,2.59263 -0.56955,3.13544 -0.7412,0.61505 -5.16463,0.042 -8.96449,-1.16198 -2.77242,-0.87827 -3.3678,-1.65596 -3.55011,-4.63761 -0.13575,-2.21103 -0.0818,-2.4882 0.55437,-2.87052 z m 0.10654,-657.12936 c 0.33777,-2.96102 0.39761,-3.12537 1.06599,-2.92569 0.38957,0.11677 1.76746,0.35001 3.06215,0.51919 2.33323,0.30491 3.79257,0.6434 6.38954,1.48226 1.19574,0.38621 1.33572,0.54254 1.25996,1.40723 -0.28288,3.22797 -0.39892,17.38773 -0.16888,20.59863 0.18056,2.52122 0.15603,3.97238 -0.073,4.26694 -0.57684,0.74384 -3.48502,1.06159 -6.62906,0.72427 -3.73841,-0.4011 -4.33774,-0.93752 -4.68878,-4.19717 -0.44402,-4.12156 -0.58881,-18.62857 -0.21851,-21.87566 z m 5.36533,520.01104 c 0.16085,-1.47964 0.44621,-4.43057 0.63435,-6.55771 0.188,-2.12697 0.44913,-4.92654 0.58035,-6.22124 l 0.23851,-2.35395 4.38912,0.0161 c 4.00756,0.0147 4.50049,0.0847 5.67023,0.80718 l 1.28112,0.79171 -0.1715,4.40517 c -0.3779,9.70728 -0.95533,16.4994 -1.44913,17.04851 -1.74018,1.93503 -8.37508,1.66574 -10.51533,-0.4268 -0.95286,-0.93154 -1.04919,-1.21266 -1.00205,-2.92437 0.0291,-1.04159 0.18347,-3.10435 0.34433,-4.58398 z m 3.216,-555.37883 c 0.14875,-2.19602 0.5027,-2.69054 1.36637,-1.90891 0.34257,0.31003 0.87009,0.56371 1.17237,0.56371 0.30215,0 1.34959,0.27893 2.32754,0.61977 3.2001,1.11544 4.17046,1.39788 4.82847,1.40547 0.35688,0 1.00845,0.28405 1.4481,0.6221 0.8822,0.67843 0.88512,0.46139 -0.0832,5.92801 -0.295,1.66471 -0.5389,4.04814 -0.54212,5.29656 0,2.15706 -0.0452,2.26989 -0.79637,2.26989 -0.99721,0 -2.91985,-0.63728 -3.58121,-1.18713 -0.27748,-0.23062 -0.96919,-0.51802 -1.53713,-0.63844 -1.45759,-0.30915 -3.48342,-2.08684 -4.21586,-3.6993 -0.62021,-1.36562 -0.73537,-4.12404 -0.38695,-9.27173 z m 2.18858,93.31799 c 0.77288,0.25018 8.1014,1.12348 9.72627,1.15909 0.72397,0.0161 0.97518,0.25149 1.29206,1.21193 0.3255,0.98599 0.29879,1.39191 -0.15442,2.34695 -0.30142,0.63524 -0.65596,2.55786 -0.78777,4.2725 l -0.23982,3.11762 -1.68135,-0.019 c -1.66661,-0.019 -2.95312,-0.50226 -6.34649,-2.38198 -2.17047,-1.2023 -2.56515,-2.20828 -2.56515,-6.53842 0,-3.38766 0,-3.41116 0.75667,-3.16814 z m 4.9667,118.54321 c 0.14304,-0.83243 0.35862,-3.40502 0.4808,-5.71694 0.12261,-2.31205 0.29791,-4.56603 0.39045,-5.00887 l 0.16844,-0.80543 4.77344,0.21238 c 5.75913,0.25631 6.42049,0.39147 6.97282,1.42358 0.43891,0.82001 0.35132,2.4675 -0.71289,13.42629 -0.39031,4.02026 -0.9457,5.30867 -2.36052,5.47625 -1.36534,0.16172 -8.80625,-2.18654 -9.46689,-2.98743 -0.63392,-0.76895 -0.73201,-3.17398 -0.24565,-6.01983 z m 0.14304,389.38396 c 0.0818,-0.0818 0.21792,-1.48401 0.30214,-3.11573 0.0847,-1.63171 0.30857,-3.1223 0.49876,-3.31234 0.19545,-0.19544 1.81475,-0.33163 3.72629,-0.31368 5.79008,0.0554 7.07338,1.29134 6.61302,6.37218 -0.43819,4.83445 -2.35745,6.71343 -6.41407,6.27904 -1.78235,-0.19092 -2.28593,-0.39672 -3.1436,-1.28447 -0.5967,-0.61771 -1.16553,-1.68617 -1.36811,-2.57041 -0.40258,-1.75623 -0.41309,-1.85593 -0.21443,-2.05459 z m 1.89504,-188.62034 c 0.16815,-1.38723 0.3776,-2.71141 0.46548,-2.94262 0.20304,-0.53437 6.80262,-0.57976 9.21072,-0.0628 2.55859,0.54883 2.8511,1.0559 2.43992,4.23235 -0.20493,1.58386 -0.24025,4.45802 -0.0876,7.18082 0.27762,4.96976 0.057,6.55798 -0.94701,6.82058 -0.89986,0.23529 -5.23613,-0.31003 -7.07177,-0.88937 -4.05852,-1.28096 -4.17631,-1.48254 -4.25411,-7.2764 -0.0335,-2.497 0.0774,-5.67491 0.24493,-7.06201 z m 1.12684,-128.83028 c 0.0789,-0.0789 0.32696,-1.76922 0.55057,-3.75519 l 0.40621,-3.61099 0.94088,0 c 2.69215,0 8.08783,1.68368 9.59505,2.99415 0.85169,0.74047 0.88555,0.8895 0.68516,3.01194 -0.11678,1.22815 -0.21209,3.70485 -0.21341,5.504 0,3.12288 -0.0409,3.29614 -0.84906,3.82583 -0.74091,0.48548 -1.1083,0.50344 -2.94248,0.14451 -1.15267,-0.22595 -2.73067,-0.69902 -3.50663,-1.05151 -0.77594,-0.35237 -1.70602,-0.64079 -2.06698,-0.64079 -0.36082,0 -1.12581,-0.5348 -1.69989,-1.18858 -0.91066,-1.03735 -1.04364,-1.43715 -1.04364,-3.13864 0,-1.07254 0.0642,-2.01503 0.14451,-2.09429 z m 0.53802,-319.94542 c 0.14844,-1.66457 0.4608,-6.09105 0.69435,-9.83647 0.37965,-6.09338 0.48605,-6.80976 1.01152,-6.80976 1.04422,0 4.13718,0.74251 5.34649,1.2836 0.64735,0.28974 2.0775,0.6361 3.1782,0.76981 2.78644,0.33863 2.98861,0.68631 2.71668,4.67228 -0.1197,1.7571 -0.42724,5.31336 -0.68297,7.90275 -0.25573,2.58953 -0.56721,7.47668 -0.69201,10.86069 -0.23252,6.3078 -0.42869,7.13074 -1.69886,7.13074 -0.27164,0 -1.11853,0.31864 -1.88191,0.70822 -1.81549,0.92613 -5.458,0.80163 -6.19906,-0.21195 -1.45599,-1.99094 -2.3506,-10.21145 -1.79243,-16.46991 z m 2.02714,543.10434 c 0.14012,-1.84965 0.4392,-4.95196 0.66369,-6.894 0.22449,-1.94204 0.4792,-5.08273 0.56591,-6.97922 0.1531,-3.34607 0.18273,-3.45453 1.00275,-3.66032 1.46533,-0.36784 6.24023,0.13427 8.40136,0.88453 l 2.07735,0.72061 0.22756,2.12421 c 0.12552,1.16843 0.13867,2.40664 0.0307,2.75185 -0.17982,0.57364 -1.01562,10.16342 -1.4173,16.26469 -0.20567,3.1223 -0.63012,4.78117 -1.39702,5.45874 -0.91257,0.80629 -3.24842,1.04364 -5.74205,0.58341 -2.79665,-0.51613 -3.29556,-0.77244 -4.11251,-2.11224 -0.71609,-1.17442 -0.77347,-2.91985 -0.30039,-9.14241 z m 4.00625,144.43535 0.17822,-7.23014 3.1947,-0.29761 c 2.99867,-0.27938 8.12578,0.073 8.64657,0.59288 0.1124,0.11241 0.25996,3.19383 0.32857,6.84817 0.0686,3.65434 0.25879,7.32532 0.42242,8.1576 0.16362,0.83228 0.1969,2.41788 0.0745,3.52356 -0.28929,2.60267 -0.77288,2.80833 -5.39699,2.29512 -5.67009,-0.62924 -7.79925,-2.00787 -7.68832,-4.97793 0.035,-0.92482 0.14303,-4.93502 0.24098,-8.91165 z m 1.64793,-285.15376 c 0.55028,-0.22784 2.56326,-0.52838 4.47333,-0.66807 4.46764,-0.32622 6.68381,0.24741 7.05777,1.82717 0.13137,0.55481 0.37965,4.48749 0.55174,8.73926 0.3652,9.02448 0.2474,9.72335 -1.81155,10.74713 -1.98116,0.98526 -5.92159,1.10466 -7.92538,0.2404 l -1.565,-0.67493 -0.19064,-2.80017 c -0.10509,-1.54019 -0.28054,-4.69184 -0.39059,-7.00389 -0.20873,-4.38109 -0.64824,-8.55462 -0.99679,-9.46295 -0.14158,-0.36943 0.0992,-0.6548 0.79711,-0.94395 z m 1.78454,-494.155821 c 0.37877,-4.97384 -0.0175,-4.57682 4.57084,-4.57391 3.91576,0 8.07703,0.47176 8.57768,0.9673 0.14305,0.14158 0,1.30608 -0.31557,2.58676 -0.45453,1.83636 -0.58575,4.01765 -0.62078,10.32208 -0.0322,5.73111 -0.15911,8.10828 -0.44941,8.3986 -0.73859,0.73856 -4.69507,0.33235 -9.02551,-0.92644 -1.37803,-0.40067 -1.97634,-0.78674 -2.49057,-1.6072 -0.61961,-0.98846 -0.66836,-1.54881 -0.57568,-6.62848 0.0554,-3.05181 0.20377,-6.89429 0.329,-8.53871 z M 345.095,357.39093 c 0.13428,-2.58939 0.35994,-6.6514 0.50051,-9.02666 l 0.25557,-4.31862 1.21077,0.20318 c 0.66589,0.11094 2.64851,0.33441 4.40561,0.49482 6.93399,0.63362 6.8267,0.53451 6.23177,5.75343 -0.73976,6.48938 -0.96775,17.85044 -0.48869,24.35063 0.4843,6.57097 0.2712,7.93296 -1.24143,7.93296 -1.36052,0 -9.24589,-2.75375 -10.17684,-3.55392 l -0.8825,-0.75857 -0.0292,-8.18461 c -0.0161,-4.5015 0.0803,-10.30325 0.21514,-12.89264 z m 3.96976,168.72423 c 0.50985,-0.19602 7.5082,0.1445 9.70788,0.47117 0.99721,0.14845 1.48211,0.40652 1.62807,0.86616 0.11386,0.36009 0.20726,4.3843 0.20653,8.94258 -8.9e-4,8.13045 -0.0146,8.29919 -0.74047,8.88639 -1.73186,1.40227 -10.88915,-0.14158 -11.14605,-1.87825 -0.0307,-0.20991 -0.0686,-4.14625 -0.0847,-8.74729 -0.0219,-6.74789 0.0598,-8.39961 0.42811,-8.5409 z M 349.68,273.82343 c 0.0672,-0.64734 0.43863,-3.74949 0.82485,-6.89384 0.38607,-3.14434 0.77944,-6.51143 0.87388,-7.48237 0.18479,-1.89636 0.39395,-2.03984 2.00042,-1.37191 0.52066,0.21646 1.93037,0.50722 3.13251,0.64618 1.20231,0.13866 3.28302,0.5281 4.62399,0.86484 2.87591,0.72236 2.75067,0.23864 1.72674,6.67067 -0.38271,2.40444 -0.76295,4.90144 -0.84512,5.54879 -0.8177,6.44895 -1.61129,11.06197 -2.01036,11.68597 -0.26624,0.41613 -0.81039,0.75666 -1.20916,0.75666 -1.09516,0 -3.7987,-0.90525 -4.97632,-1.6663 -0.27748,-0.17926 -1.37454,-0.72092 -2.43803,-1.20378 l -1.93372,-0.87796 0.054,-2.74994 c 0.0292,-1.51248 0.10947,-3.27965 0.17646,-3.92701 z m 3.08597,-56.75621 c 0.25178,-0.0978 0.85708,0.0526 1.34519,0.33264 0.48796,0.2804 1.9994,0.59816 3.35877,0.70617 1.3954,0.11093 2.83182,0.43264 3.29906,0.73873 0.45511,0.29819 1.46152,0.65376 2.23645,0.79039 l 1.40898,0.24829 -0.0598,1.49626 c -0.0322,0.82294 -0.23019,2.47991 -0.43906,3.68207 -0.20902,1.20231 -0.48504,3.77491 -0.61348,5.71694 l -0.2334,3.531 -0.93256,0.10656 c -1.28316,0.14742 -6.90144,-2.10203 -8.20372,-3.28462 -1.80863,-1.64238 -1.87738,-1.96379 -1.74586,-8.17643 0.0934,-4.42253 0.2242,-5.75168 0.57874,-5.88873 z m -0.0687,436.38035 c 0.32098,-0.26639 1.96934,-0.32974 5.41642,-0.20845 5.22329,0.18378 5.9566,0.31981 6.28108,1.16523 0.2404,0.62647 0.30594,17.57689 0.0686,17.81395 -0.35294,0.35294 -2.82891,0.76222 -4.58967,0.75856 -1.01736,0 -2.83329,-0.27703 -4.03545,-0.61113 -1.76352,-0.49001 -2.33381,-0.82486 -2.95122,-1.7323 -0.74691,-1.09764 -0.76399,-1.31513 -0.70837,-8.96391 0.0452,-6.17876 0.15472,-7.9201 0.51832,-8.22195 z m 1.81725,-194.83416 c 0.6942,-12.24063 1.01999,-17.52859 1.31528,-21.35414 0.17836,-2.31205 0.329,-5.52777 0.33469,-7.14621 l 0.0146,-2.94247 1.09297,-0.0393 c 0.60108,-0.0219 1.21106,-0.0205 1.35543,0 0.14449,0.0234 1.58194,0.11823 3.19468,0.21106 4.13209,0.23632 5.5488,0.50183 6.02655,1.12918 0.54853,0.72062 0.53786,3.38518 -0.0437,10.85441 -1.12362,14.4438 -1.30125,18.2479 -1.09589,23.46419 0.11677,2.96845 0.12553,5.62425 0.019,5.90172 -0.43744,1.13998 -4.27629,1.40476 -7.3545,0.50738 -0.55495,-0.16174 -1.65903,-0.46168 -2.4535,-0.66632 -1.04874,-0.27033 -1.62428,-0.66721 -2.10056,-1.44811 -0.70632,-1.15866 -0.71011,-1.26185 -0.30098,-8.47419 z m 7.7813,368.40305 c 0.17268,-1.57216 0.4325,-2.97969 0.57729,-3.12769 0.41818,-0.42768 8.00477,-0.32142 9.79412,0.1372 1.97795,0.50678 2.16188,0.99926 1.63684,4.38283 -0.20625,1.32988 -0.32097,4.12158 -0.25499,6.20402 l 0.11969,3.78616 -0.84382,0.16873 c -1.90452,0.38095 -8.99134,-1.98306 -10.67721,-3.5618 -0.64764,-0.60633 -0.75011,-1.02728 -0.71171,-2.91985 0.0249,-1.21616 0.18639,-3.49758 0.3592,-5.06974 z m 0.27547,-695.94703 c 0.13136,-1.47963 0.48444,-4.22738 0.78426,-6.10593 0.2998,-1.87869 0.64516,-4.71607 0.76717,-6.30547 0.12261,-1.58925 0.389,-3.01516 0.59291,-3.16856 0.36462,-0.27428 7.28751,0.29644 8.27349,0.68193 0.27748,0.10801 1.26112,0.32711 2.18596,0.48562 l 1.68134,0.28842 -0.0234,1.34505 c -0.0147,0.73989 -0.26405,2.7828 -0.55846,4.5399 -0.62866,3.75155 -0.98963,7.96609 -1.07268,12.5238 -0.0496,2.73083 -0.17545,3.43029 -0.7558,4.20359 -0.60677,0.80879 -0.88498,0.91286 -2.1696,0.81157 -0.81039,-0.0642 -2.23017,-0.39119 -3.155,-0.7272 -0.92481,-0.33601 -2.58938,-0.93752 -3.69914,-1.33659 -3.24098,-1.16581 -3.36343,-1.47655 -2.85139,-7.23613 z m 4.05544,270.67697 c 0.16654,-0.57362 0.41775,-2.54107 0.55817,-4.3716 l 0.25557,-3.32854 1.17691,0.0789 c 6.75679,0.4516 9.95776,0.96627 10.83865,1.7428 0.28463,0.25106 -0.86717,13.52555 -1.22361,14.10239 -0.4954,0.80148 -3.65755,0.32929 -8.69387,-1.2982 -1.31936,-0.42635 -2.48372,-1.03473 -2.77433,-1.44956 -0.55597,-0.79375 -0.6307,-3.77563 -0.1372,-5.47581 z m 2.35862,-94.46233 c 0.15282,-0.92483 0.38243,-2.79127 0.51013,-4.1477 l 0.23209,-2.46635 1.71493,0.14159 c 0.94321,0.0774 2.47145,0.46402 3.39627,0.8587 0.92482,0.39483 2.53348,0.94847 3.57508,1.23018 1.04144,0.28186 2.23076,0.78543 2.64266,1.11896 0.72427,0.58648 0.73595,0.68968 0.35105,3.11296 -0.21895,1.37848 -0.51671,4.17674 -0.6618,6.21847 -0.2912,4.0985 -0.72617,5.20637 -2.03648,5.18695 -1.41132,-0.0205 -9.18124,-4.06726 -9.66248,-5.03178 -0.46328,-0.92863 -0.49,-3.62982 -0.0613,-6.22141 z m 0.36052,603.46793 c 0.15823,-2.49687 0.39966,-6.28026 0.53628,-8.40724 l 0.24857,-3.86726 5.2125,0.11087 c 2.86686,0.0617 5.4637,0.18016 5.7708,0.26537 0.30711,0.0849 0.81155,0.54129 1.121,1.01347 0.44534,0.67969 0.48796,1.04467 0.20464,1.75244 -0.34929,0.87192 -0.62166,5.88802 -0.86672,15.95891 -0.0803,3.29503 -0.26158,5.14556 -0.53686,5.47736 -0.4697,0.56588 -1.99985,0.45197 -5.69286,-0.42434 -2.89665,-0.68703 -4.70994,-1.40705 -5.63287,-2.23651 -0.85637,-0.76973 -0.88265,-1.46713 -0.36448,-9.64253 z m 1.83667,-412.12026 c 0.65537,-3.29076 1.34315,-8.055 1.83037,-12.67853 0.30493,-2.89386 0.54707,-3.98582 0.91533,-4.1271 1.05211,-0.40374 8.50179,1.28959 9.89355,2.24885 1.59961,1.10231 1.57232,1.76221 -0.68398,16.4994 -0.77522,5.06244 -0.88527,5.18637 -4.16142,4.67812 -4.31379,-0.66924 -5.67636,-1.04261 -6.65213,-1.82308 -0.78193,-0.62545 -1.80732,-2.10172 -1.64982,-2.37555 0.0219,-0.0379 0.25017,-1.12742 0.5081,-2.42211 z m -0.0862,221.24708 c 1.06656,-0.40928 8.75226,0.44927 10.38398,1.15997 l 1.59742,0.69566 0.0205,4.80409 c 0.0598,13.49912 -0.16523,24.3166 -0.55582,26.77215 -0.14597,0.91752 -0.4309,1.23325 -1.58707,1.75813 -1.82629,0.82921 -3.8092,0.81958 -6.66964,-0.0322 -3.88379,-1.15661 -3.75359,-0.76601 -3.46926,-10.41053 0.29835,-10.11439 0.29528,-22.90267 0,-23.85056 -0.14932,-0.47058 -0.0554,-0.76587 0.28492,-0.8965 z m 1.08773,-351.72675 c 0.24711,-1.29469 0.55291,-3.76657 0.67974,-5.49289 0.21823,-2.97225 0.27676,-3.15718 1.10261,-3.48108 0.96176,-0.37731 5.10405,-0.16712 7.45187,0.37805 0.82016,0.19034 1.86963,0.41774 2.33206,0.50503 1.92277,0.36345 2.0356,0.6872 1.53159,4.39175 -0.25165,1.84965 -0.6383,4.72483 -0.85944,6.38954 -0.58341,4.39292 -0.6094,4.48253 -1.42401,4.91853 -1.07721,0.57655 -3.10916,0.45788 -6.51362,-0.38038 -2.42941,-0.59831 -3.16506,-0.93345 -3.91619,-1.78398 -1.03736,-1.175 -1.08115,-1.7949 -0.38461,-5.44457 z m 0.10947,234.56055 0.19151,-2.5221 2.69039,-0.19749 c 4.4564,-0.32711 8.93908,-0.13283 9.27801,0.40286 0.3398,0.53656 0.4049,9.34865 0.089,11.98212 -0.20142,1.67653 -0.2709,1.77886 -1.42634,2.09984 -2.73361,0.75944 -7.46311,0.0205 -9.87399,-1.54139 l -1.26098,-0.81739 0.0613,-3.4421 c 0.0336,-1.89315 0.14684,-4.57711 0.25222,-5.96435 z m 3.92699,-59.52281 c 0.7793,-6.52223 1.84191,-16.50598 2.04903,-19.25111 0.1124,-1.49291 0.38185,-2.7587 0.63086,-2.96539 0.27311,-0.22653 1.66019,-0.30462 3.73519,-0.21004 3.90278,0.17763 6.36037,0.62443 7.01034,1.2747 1.07166,1.07167 0.75638,5.46355 -1.89315,26.36419 -0.18771,1.47977 -0.56137,3.02843 -0.83067,3.44167 -0.4392,0.6739 -0.83448,0.8441 -2.91154,1.25309 -0.31951,0.0628 -1.97385,0 -3.67666,-0.14158 -4.91678,-0.40725 -5.162,-0.98934 -4.1134,-9.7651 z m 0.67493,239.40389 c 0.53366,-0.21281 2.29033,-0.54561 3.90379,-0.7396 4.75184,-0.57129 5.45626,0.10361 6.38226,6.11602 1.42212,9.23363 1.42343,9.62598 0.0379,10.87339 -0.79054,0.71171 -2.91226,1.48152 -4.90904,1.78089 -1.72952,0.25938 -5.16257,-0.66107 -5.6136,-1.50517 -0.15253,-0.28551 -0.38855,-4.03355 -0.52459,-8.32882 l -0.24712,-7.80976 0.97021,-0.38695 z m 1.85768,-600.7448 c 0.54708,-3.51422 1.1175,-7.14621 1.26755,-8.07089 0.8622,-5.31088 1.38942,-8.88874 1.34608,-9.13527 -0.25545,-1.45291 -0.0803,-1.53174 2.97282,-1.34096 1.61831,0.10067 3.77477,0.33922 4.79198,0.52897 1.01737,0.18975 2.42869,0.4427 3.13661,0.56196 0.70778,0.11968 1.36607,0.42344 1.46299,0.6758 0.0963,0.25252 -0.13867,2.46664 -0.52328,4.92043 -0.63085,4.02421 -1.01095,6.81678 -1.61392,11.85996 -0.11093,0.92467 -0.33629,1.9451 -0.50153,2.26739 -0.16508,0.32229 -0.35732,2.21383 -0.42679,4.2036 -0.15298,4.37481 -0.7507,6.13979 -2.07896,6.13979 -2.45947,0 -8.92887,-1.98553 -10.13218,-3.10959 -0.96687,-0.90323 -0.94847,-1.48956 0.29863,-9.50119 z m 0.2931,502.24526 c 0.13867,-1.20215 0.3598,-3.81256 0.49263,-5.80087 l 0.24142,-3.61508 1.75389,0 c 3.48153,0 9.64132,2.16332 10.18356,3.57655 0.1051,0.27353 0,3.6644 -0.24098,7.53521 -0.51087,8.32604 -0.52298,8.35361 -3.41641,7.747 -2.46109,-0.51612 -7.05323,-1.99634 -7.70453,-2.48357 -0.85651,-0.64078 -1.65289,-2.45875 -1.60486,-3.66369 0.0249,-0.61026 0.1572,-2.09325 0.29528,-3.29555 z m 3.06143,175.20589 c 0.15224,-2.497 0.43307,-5.7368 0.62386,-7.19964 0.19076,-1.46285 0.34694,-3.52751 0.34694,-4.58793 0,-2.30665 0.0482,-2.33658 3.759,-2.33658 3.20345,0 5.94056,0.7196 6.9912,1.83797 0.68778,0.73201 0.75814,1.1229 0.72866,4.04757 -0.0308,2.96743 0.0321,3.3027 0.75331,4.02319 0.63639,0.63639 1.2912,0.82936 3.44079,1.01401 3.44283,0.29571 3.79344,0.40957 4.01793,1.30402 0.10361,0.41147 0.0147,2.7847 -0.20172,5.2741 -0.5608,6.51595 -0.48942,7.85823 0.51305,9.65182 0.97899,1.75171 1.04204,2.67259 0.3439,5.02362 -0.69917,2.35424 -1.64398,3.47014 -2.9381,3.47014 -1.92803,0 -8.74159,-2.26828 -10.08767,-3.35833 -0.65231,-0.5281 -0.7806,-1.04175 -0.96203,-3.84934 -0.25427,-3.9359 -0.7615,-4.69973 -3.32256,-5.00304 -0.90163,-0.10656 -1.96613,-0.39177 -2.36549,-0.63334 -0.8425,-0.50971 -2.0378,-2.65873 -1.96672,-3.53655 0.0263,-0.33104 0.17326,-2.64485 0.32565,-5.14169 z m 3.84994,-611.87509 c 0.24127,-2.03459 0.54545,-4.56837 0.6761,-5.63055 0.13136,-1.06217 0.40563,-2.05545 0.61114,-2.20725 0.64545,-0.47672 11.48745,0.69552 12.12853,1.31134 0.20362,0.19558 0.16553,0.83126 -0.10361,1.73608 -0.23382,0.78514 -0.65449,4.07573 -0.93474,7.31247 -0.70574,8.14694 -0.68559,8.04565 -1.67654,8.42238 -1.42883,0.54328 -4.08755,0.37367 -5.50879,-0.35148 -0.72515,-0.36988 -1.5462,-0.6726 -1.82484,-0.6726 -0.27851,0 -1.03561,-0.25238 -1.68237,-0.56079 -0.90264,-0.43045 -1.29616,-0.91344 -1.69289,-2.07764 -0.59159,-1.73624 -0.591,-2.22639 0.0146,-7.28196 z m 2.51873,178.56858 c 0.12553,-2.58939 0.34739,-6.10784 0.49189,-7.81867 l 0.26289,-3.11063 2.45262,0 c 1.34884,0 2.53393,0.13136 2.63347,0.29281 0.0992,0.16099 0.90293,0.36432 1.78542,0.4519 0.88236,0.0875 2.31075,0.48342 3.17413,0.88001 1.84482,0.84731 2.17747,1.73258 1.77169,4.71563 -0.14158,1.04423 -0.22682,3.9019 -0.18844,6.35043 0.0789,5.03997 -0.29776,7.04857 -1.39876,7.45595 -0.84045,0.3109 -3.46459,-0.21764 -7.56951,-1.52444 -2.27017,-0.72266 -2.87986,-1.06407 -3.27878,-1.83562 -0.26959,-0.52125 -0.46211,-0.99315 -0.42796,-1.04847 0.035,-0.0554 0.16537,-2.21952 0.29134,-4.8089 z m 4.04699,210.516 c 0.14012,-1.66471 0.36286,-5.06959 0.49511,-7.56645 0.13136,-2.49699 0.38577,-4.82247 0.5637,-5.16768 0.29967,-0.5818 0.71245,-0.618 5.63345,-0.49277 3.92131,0.0992 5.46006,0.25952 5.88306,0.61057 0.50896,0.42241 0.54706,0.96467 0.34184,4.86437 -0.12699,2.41395 -0.25647,6.45931 -0.28769,8.98958 -0.0306,2.53029 -0.18085,4.72455 -0.33236,4.8762 -0.45351,0.45336 -6.65564,0.33017 -8.29043,-0.16465 -2.1909,-0.66325 -4.03544,-1.47189 -4.03544,-1.76922 0,-0.14158 -0.051,-0.4592 -0.11239,-0.70544 -0.0628,-0.24638 0,-1.80994 0.14159,-3.47451 z m 2.35934,-273.40181 c 0.14451,-1.66456 0.34651,-4.39539 0.44752,-6.06842 0.71931,-11.91207 1.57802,-24.61584 1.6923,-25.03811 0.0759,-0.27748 0.30521,-3.30402 0.51131,-6.7257 0.47555,-7.8953 0.44037,-7.7346 1.69742,-7.7346 0.55392,0 1.26972,0.14159 1.59099,0.31398 0.32112,0.17267 2.30519,0.56152 4.40897,0.86394 5.37641,0.77302 5.40999,0.805 4.75855,4.51874 -0.31936,1.82075 -0.6834,6.3059 -2.03998,25.13634 -0.36214,5.02829 -0.6586,12.22399 -0.6586,15.99042 0,4.87781 -0.11676,6.96407 -0.40358,7.25161 -0.22186,0.22186 -1.0921,0.40198 -1.93357,0.40009 -2.23076,0 -7.45318,-1.13079 -8.5352,-1.83972 -1.09897,-0.72005 -1.92818,-2.18246 -1.85331,-3.26856 0.0292,-0.42534 0.1721,-2.13529 0.31718,-3.80001 z m 2.24667,214.21516 c 0.27864,-2.95926 0.48431,-6.25074 0.45701,-7.31423 -0.0277,-1.06349 0.0642,-1.93664 0.20362,-1.94028 0.13867,0 1.31265,-0.16232 2.60734,-0.35237 2.67288,-0.39249 7.5212,-0.47991 8.54747,-0.15427 1.36578,0.43351 1.52488,2.20374 0.89899,10.00316 -0.31602,3.93604 -0.75857,7.53141 -0.9838,7.98973 -0.30331,0.61758 -0.96408,0.99912 -2.55099,1.47292 -2.03692,0.60838 -2.29922,0.61334 -5.37174,0.1036 -4.84731,-0.80338 -4.69346,-0.40724 -3.8079,-9.80874 z m 0.0803,-78.09811 c 0.13428,-1.89344 0.40884,-4.84422 0.61113,-6.55769 0.20247,-1.71332 0.68166,-6.06609 1.06496,-9.67284 0.38329,-3.60661 0.84396,-7.69257 1.02364,-9.07966 0.54853,-4.23614 1.32885,-12.44467 1.32885,-13.97962 0,-0.79755 0.14976,-1.54255 0.3328,-1.65566 0.74778,-0.46212 6.06711,0.8714 8.83005,2.21368 1.48737,0.72265 1.55611,0.8225 1.92759,2.79782 0.39687,2.11092 0.38593,2.26798 -1.16902,16.84504 -0.27617,2.58938 -0.65538,5.72832 -0.84265,6.97544 -0.66311,4.41554 -1.3179,15.18515 -1.04466,17.18265 0.36754,2.68616 0.1505,3.50867 -1.09778,4.16025 -1.57977,0.82469 -3.74659,0.70529 -7.0639,-0.38914 -2.44692,-0.80732 -3.09953,-1.17106 -3.61391,-2.01458 -0.66179,-1.08524 -0.67333,-1.36155 -0.2871,-6.82569 z m 1.0448,-401.447821 c 0.15107,-2.40446 0.50707,-8.76028 0.79126,-14.12399 0.28419,-5.36386 0.61233,-10.1065 0.72909,-10.53929 0.17691,-0.65449 0.3601,-0.74893 1.09021,-0.56151 0.48285,0.12407 2.40284,0.42081 4.26709,0.66004 1.86409,0.23923 3.7079,0.60546 4.09734,0.81389 0.38942,0.20844 1.07793,0.37892 1.52983,0.37892 1.31528,0 1.72485,0.76967 1.2985,2.44037 -0.49686,1.94759 -0.89374,9.30983 -1.32024,24.495701 -0.19079,6.79167 -0.36243,9.07833 -0.71289,9.50002 -0.91562,1.10218 -2.66734,0.64896 -8.86698,-2.29367 -3.55493,-1.68748 -3.4891,-1.44328 -2.90321,-10.770481 z m 1.18435,182.099711 c 0.0613,-0.64734 0.34111,-3.14433 0.62297,-5.54878 0.28185,-2.40446 0.54838,-5.20404 0.59232,-6.22125 l 0.0803,-1.84964 1.5132,0.0525 c 2.66573,0.0934 6.1976,0.63641 6.99369,1.07502 0.42475,0.23413 1.40839,0.5335 2.1858,0.66516 1.3471,0.22829 1.41861,0.30025 1.52006,1.52852 0.0584,0.70896 -0.14304,3.95109 -0.44753,7.2049 -0.30477,3.25367 -0.52444,6.83181 -0.48825,7.95136 0.0862,2.67506 0.0759,2.74074 -0.53991,3.35686 -0.61538,0.61537 -3.55756,0.42387 -5.48165,-0.35674 -0.62371,-0.2531 -1.39964,-0.46007 -1.72441,-0.46007 -0.32462,0 -0.77536,-0.22303 -1.00145,-0.49555 -0.22625,-0.27266 -0.92848,-0.59262 -1.5605,-0.71113 -2.19193,-0.41118 -2.68135,-1.74967 -2.26419,-6.19177 z m 1.50371,514.51991 c 0.27412,-2.18565 0.90556,-14.4578 0.94657,-18.39882 l 0.0219,-2.08888 1.42927,-0.3903 c 1.49949,-0.40972 5.46166,-0.51452 6.53755,-0.17312 1.14232,0.36258 2.11515,5.32578 2.11925,10.81106 0,5.1404 -0.64298,12.31537 -1.18596,13.15437 -1.15194,1.78002 -6.46778,2.7336 -9.10212,1.63303 -1.26667,-0.52925 -1.26872,-0.54196 -0.7663,-4.54734 z m 0.51146,-597.75109 c 0.0686,-0.36988 0.42154,-3.47218 0.78498,-6.89385 0.36346,-3.42181 0.89739,-8.26429 1.18668,-10.76129 0.28916,-2.49684 0.63407,-5.52339 0.76646,-6.72569 l 0.24069,-2.18581 2.8117,-0.0977 c 2.05545,-0.0715 3.01677,0.0365 3.57435,0.40139 0.43015,0.28185 1.50371,0.49394 2.46269,0.48649 1.06758,-0.0147 2.09253,0.21764 2.75549,0.60751 0.89943,0.52867 1.03021,0.7698 0.88454,1.62938 -0.0934,0.55496 -0.41059,2.82483 -0.70339,5.04435 -0.29281,2.21952 -0.75055,5.54879 -1.01723,7.39829 -0.48503,3.36271 -0.98992,9.6098 -1.38153,17.08953 -0.19881,3.80016 -0.24421,3.99093 -1.0327,4.35015 -1.8114,0.82542 -8.62775,-1.00832 -10.79209,-2.90307 -0.68793,-0.60239 -0.75244,-0.93927 -0.71084,-3.71448 0.0249,-1.67856 0.10214,-3.35466 0.1702,-3.72468 z m 1.17048,532.84749 c 0.12115,-1.7571 0.2366,-7.26342 0.25733,-12.23625 l 0.0379,-9.04141 3.11062,0.16334 c 3.38109,0.17763 5.53566,0.96934 6.45055,2.37059 0.74457,1.14071 1.3217,16.12982 0.94176,24.46068 -0.16449,3.6066 -0.23383,7.28006 -0.15413,8.16299 0.16756,1.85345 -0.17049,2.4087 -1.9149,3.14551 -1.26111,0.53277 -3.42357,0.43672 -6.35407,-0.28229 -2.39847,-0.58838 -2.58341,-1.14669 -2.5894,-7.81677 0,-3.15238 0.0934,-7.16929 0.21458,-8.92639 z m 1.5259,-48.92982 c 0.24448,-1.47963 0.6361,-5.26285 0.86994,-8.4072 l 0.42533,-5.7168 2.68821,-0.18273 c 1.4786,-0.10068 4.01866,-0.11677 5.64439,-0.0365 2.57948,0.12698 3.00481,0.23646 3.33863,0.85534 0.47029,0.87169 0.41979,8.1973 -0.0862,12.47928 -0.77872,6.59316 -0.47977,5.80539 -2.42197,6.38224 -2.18142,0.64778 -3.69038,0.64545 -6.36575,-0.0146 -4.32343,-1.05911 -4.71884,-1.57728 -4.09281,-5.36357 z m 1.66091,261.37413 c 0.11093,-0.11095 0.42155,-3.04915 0.69056,-6.52953 0.45424,-5.87658 0.44226,-8.2835 -0.0482,-9.56054 -0.16055,-0.41862 0.37192,-0.58975 2.92671,-0.93988 3.45481,-0.47352 8.10286,-0.0715 8.94829,0.77375 0.35368,0.35371 0.43264,1.77363 0.35982,6.4657 -0.13283,8.57524 -0.12846,8.89122 0.17105,10.41405 0.23617,1.20212 0.16582,1.48734 -0.55947,2.26986 -0.45628,0.49229 -1.19225,0.89526 -1.63538,0.89526 -1.36287,0 -9.10346,-1.69843 -10.10782,-2.21782 -0.8911,-0.46064 -1.20172,-1.11503 -0.74588,-1.57085 z m 6.96128,-541.18344 c 0.21763,-0.39352 1.32127,-0.48634 5.78221,-0.48634 5.24607,0 5.55376,0.0365 6.34751,0.75667 0.79126,0.71769 0.81826,0.86075 0.52167,2.77447 -0.17195,1.10961 -0.28989,3.30402 -0.26215,4.87605 0.0277,1.57217 -0.0657,3.89094 -0.20829,5.15265 -0.22654,2.00699 -0.36155,2.33322 -1.07969,2.60617 -2.1296,0.80981 -8.5774,-0.19486 -10.50163,-1.63625 l -0.86849,-0.65056 0,-6.45333 c 0,-3.54938 0.12115,-6.67212 0.26886,-6.93953 z m 6.97575,-274.72877 c 0.12991,-2.03442 0.25557,-4.19278 0.27908,-4.79605 0.0423,-1.07239 0.0701,-1.09254 1.30389,-0.90351 0.69347,0.10655 2.61989,0.035 4.28081,-0.15779 2.7574,-0.32068 3.13092,-0.29339 4.29804,0.31499 0.70295,0.36637 1.48197,0.66617 1.73113,0.66617 1.08553,0 1.30637,0.96702 1.21164,5.30562 -0.051,2.35322 -0.0759,5.18666 -0.0554,6.29642 0.0963,5.09193 -1.99575,6.17717 -8.47448,4.39466 -3.3789,-0.92963 -3.99297,-1.35979 -4.5377,-3.17806 -0.41015,-1.36884 -0.41337,-2.05092 -0.0365,-7.94245 z m 5.19805,684.00593 c 3.69112,-0.21355 7.6298,0.1226 8.20969,0.70178 0.67743,0.67596 0.14451,15.63078 -0.58355,16.35841 -1.16946,1.16946 -9.60336,-0.86235 -11.28311,-2.71843 -0.56371,-0.62296 -0.60647,-1.25776 -0.49759,-7.39478 l 0.1197,-6.71344 4.03545,-0.23354 z m -3.51991,-204.45985 c 0.13282,-1.29484 0.26039,-3.75096 0.28332,-5.45829 0.0409,-3.06013 0.054,-3.10742 0.92919,-3.32694 0.4881,-0.12262 2.29514,-0.0496 4.01576,0.16173 1.72075,0.21134 3.96611,0.38446 4.98989,0.38446 2.67113,0 3.05034,0.65917 2.76279,4.80321 -0.56371,8.12578 -0.63245,11.2278 -0.26389,11.91629 0.3201,0.59816 0.22945,0.86499 -0.5932,1.74558 -1.18639,1.27003 -1.83009,1.29397 -6.99063,0.26012 -5.15337,-1.03241 -5.49901,-1.36652 -5.42779,-5.24827 0.0291,-1.58618 0.16174,-3.94319 0.29456,-5.23789 z m 2.01853,-163.94028 c 0.13574,-1.20216 0.26346,-3.20448 0.28507,-4.44925 0.0452,-2.59524 -0.31572,-2.3563 4.411,-2.92263 5.98742,-0.71741 6.98625,-0.76324 7.74802,-0.35557 0.81389,0.43571 0.81521,0.55393 0.1124,10.41785 -0.23033,3.23746 -0.69187,4.02289 -2.98494,5.08127 -2.4338,1.12319 -8.76525,0.58604 -9.65942,-0.81973 -0.2985,-0.46942 -0.25558,-3.90321 0.0876,-6.95194 z m 1.66296,106.60313 c 0.1372,-0.83229 0.44226,-4.46415 0.67654,-8.0709 0.33586,-5.17337 0.53671,-6.6463 0.95109,-6.97792 0.66545,-0.53263 7.72877,-0.57174 10.13307,-0.0554 1.41308,0.30302 1.73565,0.51232 1.91942,1.24449 0.2096,0.83475 -0.62488,12.45562 -1.15223,16.04632 -0.24289,1.65464 -0.27369,1.69055 -1.92833,2.25528 -0.92483,0.31557 -2.1658,0.58035 -2.75798,0.58852 -1.11837,0.0147 -4.23586,-0.70515 -5.98552,-1.38314 -0.9165,-0.35513 -2.21791,-1.55072 -2.1388,-1.9651 0.0175,-0.092 0.14451,-0.84908 0.28274,-1.68136 z m 1.68078,-306.41551 c 0.14918,-0.49409 0.32535,-2.31016 0.39148,-4.03545 0.11677,-3.05676 0.14304,-3.14215 0.98861,-3.33526 0.47773,-0.10946 2.97458,0.0745 5.54879,0.4071 2.57407,0.33279 4.9267,0.61115 5.22797,0.61858 1.08217,0.0263 1.40432,1.79653 1.22653,6.74118 -0.19355,5.38005 -0.48183,6.12418 -2.62164,6.76525 -1.20275,0.36039 -1.51788,0.32418 -2.81257,-0.32243 -0.80193,-0.40038 -1.69376,-0.72807 -1.98189,-0.72807 -0.28799,0 -1.22974,-0.30272 -2.09282,-0.6726 -0.86294,-0.37001 -1.85914,-0.67259 -2.21368,-0.67259 -1.63961,0 -2.42197,-2.24478 -1.66078,-4.76571 z m 0.34418,621.517 c 0.12408,-1.75712 0.43191,-6.94013 0.68341,-11.51798 l 0.45715,-8.32297 3.12376,0 c 3.1315,0 5.40882,0.37819 7.38779,1.22682 0.58268,0.25004 1.20974,0.45453 1.39322,0.45453 0.79462,0 0.9708,2.8171 0.42081,6.72571 -0.22435,1.59449 -0.68354,15.11216 -0.68778,20.24948 -2.9e-4,0.51088 -1.57466,1.05151 -2.85854,0.98175 -1.48707,-0.0803 -3.34256,-0.63144 -4.36255,-1.29499 -0.36476,-0.23734 -1.05985,-0.43146 -1.54444,-0.43146 -1.35016,0 -3.7898,-1.42987 -4.05413,-2.37586 -0.26565,-0.95137 -0.26229,-1.40547 0.0409,-5.69503 z m 1.39001,-136.55714 c 0.32361,-0.17311 1.71975,-0.49073 3.1026,-0.70574 2.20113,-0.34213 2.7063,-0.31762 4.05545,0.19764 1.06057,0.40505 1.58428,0.81579 1.67959,1.31718 1.12597,5.92523 1.31251,9.48921 1.03007,19.68547 -0.13429,4.8457 -0.19443,5.23615 -0.96234,6.243 -0.9473,1.24201 -2.69084,1.87126 -5.18476,1.87126 -2.03823,0 -3.26973,-0.41761 -3.72162,-1.26186 -0.19647,-0.3671 -0.38462,-6.02668 -0.4598,-13.82681 -0.11822,-12.30559 -0.0876,-13.22691 0.46081,-13.52014 z m 1.90074,245.60147 c 0.0948,-3.0614 0.10947,-3.111 1.00874,-3.3552 0.50184,-0.1358 2.81856,-0.2514 5.14843,-0.2554 4.55945,-0.014 5.91998,0.3555 6.17614,1.6514 0.15063,0.7619 0.76529,15.0904 0.65465,15.2609 -0.0379,0.058 -3.04392,0 -6.68045,-0.1342 l -6.61214,-0.2404 0.10361,-4.9096 c 0.0569,-2.7003 0.14741,-6.3078 0.2007,-8.0169 z m 1.26405,-684.43225 c 0.38897,-1.67756 1.17223,-6.73855 1.67814,-10.84405 0.22361,-1.81448 0.37512,-1.89723 3.68688,-2.01459 2.46853,-0.0875 8.61081,0.65333 9.04885,1.09122 0.40578,0.40592 0.30491,4.51917 -0.14875,6.05792 -0.1896,0.64326 -0.4392,3.17222 -0.55451,5.62003 -0.23982,5.08608 -0.33862,5.2773 -2.98845,5.77736 -1.83256,0.34579 -4.26125,0.0161 -5.82174,-0.79112 -0.53802,-0.27821 -1.63056,-0.61012 -2.42796,-0.7377 -1.34067,-0.21427 -3.05588,-1.40285 -2.94685,-2.04202 0.0249,-0.14714 0.2385,-1.09984 0.47439,-2.11705 z m 0.0423,72.1336 c 0.24726,-3.95122 1.16596,-12.92943 2.16785,-21.18614 0.17953,-1.47963 0.43307,-3.8149 0.56341,-5.18943 0.21778,-2.29761 0.30477,-2.5164 1.07765,-2.71054 1.03269,-0.25938 10.36719,0.15414 11.18152,0.49526 0.75288,0.31542 0.78295,2.73783 0.0759,6.05966 -0.27573,1.2947 -0.58897,3.41321 -0.6961,4.70805 -0.10655,1.29469 -0.41148,3.14449 -0.67654,4.11062 -0.26508,0.96613 -0.45614,2.55509 -0.42446,3.531 0.0321,0.9759 -0.13283,4.11996 -0.36506,6.98682 -0.25953,3.20346 -0.34404,7.4326 -0.21925,10.97265 0.15532,4.40225 0.10361,5.83897 -0.21674,6.09396 -1.05386,0.83754 -3.82921,1.19545 -6.56412,0.8463 -3.13631,-0.40038 -5.10579,-1.24448 -5.7022,-2.44373 -0.39191,-0.78805 -0.50167,-7.47725 -0.20143,-12.27448 z m 1.80323,125.60347 c 0.13574,-1.20231 0.26331,-3.57552 0.28492,-5.27395 0.035,-2.69448 0.11969,-3.11326 0.66442,-3.28637 0.34375,-0.10948 2.52444,-0.21267 4.84599,-0.23019 3.26987,-0.0249 4.56864,0.10069 5.76438,0.55773 l 1.54342,0.5894 -0.0147,3.23324 c -0.0175,5.58383 -0.56254,11.51635 -1.10742,12.06138 -0.27018,0.27018 -1.70749,0.65188 -3.19397,0.84805 -2.29147,0.30258 -3.03108,0.26799 -4.86262,-0.22785 -1.18815,-0.32156 -2.63654,-0.87432 -3.21864,-1.22842 -1.01736,-0.61875 -1.05663,-0.72574 -1.00729,-2.75054 0.0277,-1.15865 0.16188,-3.09034 0.29704,-4.29263 z m 5.08229,155.47046 c 3.4338,0.2169 5.95794,0.68866 7.24446,1.35397 0.90629,0.46854 1.01035,0.74003 1.58866,4.14476 0.90367,5.31949 1.16581,7.67038 1.2131,10.87368 0.0234,1.57204 0.15224,3.53947 0.28683,4.37175 0.64325,3.97984 -1.48183,4.90686 -7.73052,3.37263 -3.02319,-0.74222 -3.98859,-2.8562 -3.99765,-8.75327 0,-2.78279 -0.91664,-13.92753 -1.22112,-14.91657 -0.17954,-0.58327 0,-0.61276 2.61624,-0.44695 z m -1.80673,276.62239 0.092,-4.91291 2.42942,-0.27682 c 1.33614,-0.15244 3.03472,-0.28191 3.77446,-0.2879 1.71244,-0.0143 5.58485,0.80827 6.14315,1.30405 0.66151,0.58734 0.70589,21.9789 0.0467,22.39636 -0.93634,0.5927 -6.01296,0.0483 -6.84538,-0.73522 -0.17574,-0.16523 -0.90205,-0.30042 -1.61406,-0.30042 -1.59684,0 -3.0105,-0.69785 -3.51873,-1.73679 -0.42447,-0.86791 -0.65261,-7.80399 -0.5081,-15.45035 z m 1.20552,-139.35733 c 2.41612,-0.76338 9.98067,-1.20317 11.38367,-0.6618 0.89709,0.34623 0.99459,1.09488 1.10844,8.51288 0.0584,3.82147 0.20173,7.18694 0.31792,7.47871 0.46649,1.17166 -0.38915,2.24216 -2.40198,3.00466 -1.73609,0.65772 -2.34812,0.71668 -5.48514,0.52766 -2.64778,-0.15954 -3.74135,-0.36696 -4.37176,-0.82937 l -0.8406,-0.61655 -0.0467,-8.6476 c -0.0336,-6.21 0.0613,-8.68159 0.3363,-8.76859 z m 2.38299,-374.28216 0.6904,-7.05879 2.35396,-0.35264 c 1.79871,-0.2693 2.82497,-0.24785 4.34985,0.092 1.0978,0.24434 2.23265,0.41526 2.52224,0.38009 0.99241,-0.12115 2.39365,0.45672 2.75754,1.13647 0.2334,0.43628 0.28682,1.779 0.14888,3.74454 -0.11822,1.68559 -0.28944,4.35088 -0.38067,5.92304 -0.30462,5.25191 -1.12159,6.19818 -5.36239,6.2103 -3.00495,0.0147 -7.0023,-1.21747 -7.45946,-2.28796 -0.20334,-0.47599 -0.0715,-3.16858 0.37965,-7.78642 z m 3.58092,-230.02371 c 0.15413,-1.47977 0.50298,-4.27935 0.77506,-6.22139 0.27207,-1.94204 0.83535,-6.13616 1.25179,-9.3202 0.49934,-3.81797 0.90438,-5.84553 1.18946,-5.955 0.23777,-0.0906 1.68499,0.054 3.21585,0.32403 1.53101,0.26945 3.41788,0.49015 4.19294,0.4903 0.77521,2.8e-4 1.50299,0.15194 1.61742,0.33702 0.11385,0.18508 0.87505,0.50444 1.6904,0.70968 1.78178,0.44869 2.04714,1.04757 1.3452,3.03662 -0.28448,0.8063 -0.73872,3.58456 -1.00934,6.17395 -0.27076,2.58938 -0.65624,5.91866 -0.8568,7.3983 -0.20041,1.47977 -0.49014,4.84773 -0.64354,7.48455 -0.15677,2.69143 -0.44841,4.99823 -0.66502,5.25936 -0.21238,0.25572 -0.76616,0.53773 -1.23091,0.62647 -0.96627,0.18479 -3.85255,-0.3452 -4.33014,-0.79506 -0.17575,-0.16538 -0.55408,-0.30097 -0.84076,-0.30112 -0.99575,-5.9e-4 -4.6155,-1.94058 -5.34064,-2.86235 -0.79594,-1.01196 -0.84003,-1.78965 -0.36097,-6.38516 z m 0,533.01565 c 0.46255,-2.66063 1.69595,-12.22487 1.88643,-14.62859 0.0948,-1.20216 0.32564,-2.37497 0.51203,-2.60618 0.57992,-0.71931 6.84028,-0.54619 9.45492,0.26128 1.21384,0.37497 2.31965,0.86395 2.45715,1.08655 0.37528,0.60721 0.1899,4.64352 -0.41308,8.99294 -0.98846,7.1309 -1.09398,8.2319 -0.93431,9.7524 0.13137,1.2455 0.0146,1.68777 -0.65231,2.49889 -0.73594,0.89387 -0.9889,0.98087 -2.72148,0.93519 -1.0505,-0.0278 -2.47306,-0.2029 -3.16113,-0.38959 -0.68807,-0.18668 -2.08932,-0.49816 -3.11398,-0.6923 -2.1099,-0.3995 -3.7082,-1.62092 -3.64616,-2.78615 0.0219,-0.40869 0.17107,-1.49962 0.33192,-2.42444 z m 7.04009,-248.18024 c 0.37703,-2.27455 0.99562,-8.78845 0.99562,-10.48323 0,-1.98568 0.44606,-2.21806 3.40825,-1.77578 3.83358,0.57261 8.48193,1.69126 8.97704,2.16053 0.36125,0.3423 0.38095,1.1594 0.10214,4.25221 -0.18961,2.10582 -0.52942,6.06623 -0.75522,8.80101 -0.22596,2.73491 -0.57481,5.19599 -0.77521,5.46924 -0.49292,0.67203 -3.95444,1.19559 -6.23876,0.94381 -2.65347,-0.29266 -4.91954,-1.31908 -5.33934,-2.41876 -0.49745,-1.30287 -0.69712,-5.00464 -0.37483,-6.94903 z m 4.08567,123.92197 c 0.1645,-3.0518 0.24712,-6.86232 0.18363,-8.46792 l -0.11532,-2.91912 1.36359,-0.3074 c 0.74995,-0.16917 3.02814,-0.28361 5.06274,-0.25441 3.07238,0.0437 3.93721,0.17676 5.1039,0.78294 0.77258,0.40126 1.51173,1.06685 1.64252,1.47891 0.2461,0.77551 -0.10801,22.55658 -0.38256,23.50666 -0.35646,1.23484 -4.83548,1.59976 -8.04536,0.65538 -0.73974,-0.21763 -1.91693,-0.51745 -2.61581,-0.66618 -2.33439,-0.49701 -2.60341,-1.01109 -2.54633,-4.86525 0.0277,-1.86717 0.18494,-5.89181 0.34943,-8.94361 z m 0.58837,229.5162 0.18888,-4.37175 3.36285,0.0875 c 2.29147,0.0598 4.09836,0.31834 5.67082,0.81113 3.24186,1.01575 3.56442,1.61698 3.5742,6.6638 0,2.12903 0.0437,4.46867 0.089,5.19922 0.0701,1.12786 -0.0526,1.40402 -0.80717,1.8311 -0.7253,0.41031 -1.12772,0.43161 -2.1858,0.11532 -0.71334,-0.21327 -2.43205,-0.70617 -3.81914,-1.09547 -4.00436,-1.12361 -4.76512,-1.4535 -5.41349,-2.34752 -0.81711,-1.12683 -0.88088,-1.79316 -0.66049,-6.8937 z m 4.08055,-31.61098 c 0.13867,-1.29471 0.36244,-3.75797 0.4973,-5.47407 0.13429,-1.71594 0.40942,-3.2214 0.61013,-3.34533 0.6942,-0.42914 6.7524,-0.46519 8.28429,-0.0496 2.26521,0.61479 2.93416,1.18669 3.5469,3.03167 0.46432,1.3976 0.49585,2.02129 0.19035,3.75651 -0.20143,1.1442 -0.33017,3.77752 -0.28624,5.85166 0.10948,5.16812 0.13575,5.14477 -4.68878,4.1563 -4.84831,-0.99327 -6.80247,-1.64471 -7.73721,-2.5796 -0.83404,-0.83404 -0.86177,-1.18961 -0.41674,-5.3478 z m 0.34317,-251.20679 c 0.15166,-1.10976 0.32097,-3.63083 0.37628,-5.60236 l 0.10069,-3.58456 1.17705,-0.19501 c 2.81037,-0.46548 5.61578,-0.20172 9.4952,0.893 2.30344,0.64982 2.33249,0.75886 1.95079,7.34663 -0.18625,3.21775 -0.34097,8.24123 -0.34373,11.16357 0,5.71358 -0.36944,7.29758 -1.67771,7.29758 -0.35571,0 -2.48182,-0.37295 -4.72455,-0.82894 -4.01048,-0.8152 -6.11877,-1.70047 -6.51623,-2.73651 -0.28973,-0.75493 -0.16435,-11.36208 0.16246,-13.7534 z m 3.25103,387.88998 c 2.09574,-0.14636 9.32881,0.13287 10.34092,0.39895 2.31439,0.60871 2.49963,0.95374 2.29483,4.27327 -0.0992,1.60152 -0.0219,4.57226 0.17137,6.60142 0.24667,2.59397 0.24507,3.81728 0,4.11958 -0.43745,0.52707 -3.21805,0.56337 -5.11163,0.0671 -0.76135,-0.19966 -1.98948,-0.51071 -2.72937,-0.69132 -5.17353,-1.26283 -5.21119,-1.32882 -5.21191,-9.11859 -3e-4,-3.09797 0.11239,-5.6408 0.25163,-5.65037 z m 1.58794,-182.6374 c 0.12261,-0.11969 0.28419,-3.82439 0.35849,-8.23101 0.12261,-7.29569 0.18888,-8.03324 0.7339,-8.24868 0.32915,-0.12992 2.45131,-0.24712 4.71578,-0.26012 4.52078,-0.0263 6.68673,0.53832 7.00843,1.82601 0.19369,0.77579 0.28405,7.49492 0.1988,14.80141 l -0.0584,5.04901 -1.42607,0.61772 c -1.09282,0.4735 -1.8981,0.57173 -3.44692,0.42081 -5.28036,-0.51452 -6.97645,-0.81507 -7.48835,-1.32696 -0.55306,-0.5532 -1.02365,-4.22768 -0.59524,-4.64819 z M 466.20767,245.239 c 0.12844,-2.68192 0.14917,-6.02595 0.0452,-7.43142 -0.22128,-2.98831 -0.45204,-2.78572 3.83228,-3.36563 3.34708,-0.45306 3.01734,-0.46109 5.47245,0.13429 2.2274,0.53963 3.60149,1.18026 3.83459,1.78761 0.35528,0.92585 0.27515,19.206 -0.0875,19.88298 -0.69697,1.30243 -2.03224,1.54123 -6.29233,1.12523 -4.09237,-0.39951 -5.69125,-0.85813 -6.53375,-1.87402 -0.57642,-0.69494 -0.63115,-2.76805 -0.2712,-10.25845 z m 0.60472,-154.019591 c 0.3274,-1.57216 0.76427,-3.6736 0.97095,-4.66995 0.20683,-0.99619 0.3782,-2.50954 0.38097,-3.36285 0,-0.85329 0.13282,-1.75257 0.28856,-1.99838 0.16042,-0.2531 1.39454,-0.58503 2.84425,-0.765 2.07194,-0.25718 2.79519,-0.2201 3.78804,0.19487 0.67494,0.282 2.15441,0.51817 3.28782,0.52474 1.62151,0.0146 2.25572,0.17179 2.97575,0.76149 l 0.91505,0.74937 -0.99489,4.87138 c -0.54706,2.67916 -0.99663,5.42984 -0.99897,6.11251 0,0.68266 -0.15574,1.33483 -0.34068,1.44912 -0.18494,0.11385 -0.3363,0.52152 -0.3363,0.90498 0,0.38329 -0.30609,1.19236 -0.68019,1.79768 -0.60239,0.97474 -0.88162,1.11661 -2.43817,1.23907 -1.94716,0.15342 -7.57637,-1.07836 -8.9039,-1.94817 -0.76923,-0.504 -1.46679,-1.8098 -1.39133,-2.60398 0.0205,-0.2191 0.3058,-1.68471 0.63304,-3.25688 z m 1.70091,218.853721 c 0.2496,-2.80658 0.52095,-8.4142 0.84251,-17.40452 0.11093,-3.11821 0.27003,-4.25789 0.61976,-4.45362 0.25865,-0.14451 2.22929,-0.32886 4.37934,-0.40913 2.95576,-0.11094 4.13294,-0.0292 4.82598,0.3319 0.50401,0.26303 1.2385,0.47921 1.63202,0.48023 1.6904,0 1.94977,1.58836 1.50269,9.17451 -0.19881,3.37075 -0.42884,8.97763 -0.51132,12.45972 -0.16683,7.04799 -0.35191,7.70672 -2.27265,8.09163 -1.47714,0.29616 -7.46309,-0.38009 -9.28647,-1.04889 -2.21339,-0.812 -2.2779,-1.081 -1.73186,-7.22183 z m 0.16318,340.7287 c 0.24917,-2.68193 0.61525,-6.01121 0.81332,-7.39844 0.19822,-1.3871 0.53291,-3.94071 0.74397,-5.67447 l 0.3836,-3.15222 1.88161,0.23062 c 1.03488,0.12699 3.01647,0.3471 4.40371,0.48957 2.19909,0.22565 3.85694,0.71973 5.71695,1.70353 0.60006,0.31747 0.57217,1.06523 -0.35441,9.50951 -0.35994,3.28066 -0.65449,8.00623 -0.65449,10.50118 0,4.42896 -0.019,4.54894 -0.81462,5.07003 -0.75274,0.49321 -0.9854,0.4811 -3.06203,-0.16026 -1.23601,-0.38184 -2.57609,-0.6942 -2.97794,-0.6942 -0.40168,0 -1.02889,-0.1991 -1.39366,-0.44227 -0.3649,-0.24332 -1.27776,-0.61903 -2.02873,-0.83505 -1.70719,-0.49118 -2.73565,-1.57101 -2.94715,-3.09442 -0.0906,-0.64736 0.0409,-3.37132 0.28987,-6.05311 z m 0.74078,-467.83339 c 1.3017,-0.53204 4.68687,-0.73581 7.63591,-0.4595 1.97197,0.1848 2.74587,0.42418 3.66165,1.13224 1.1191,0.86541 1.16026,0.97722 1.13661,3.08376 -0.0292,2.58794 0.2731,9.0925 0.61012,13.13495 l 0.24012,2.87811 -1.07576,0.90512 c -1.2563,1.05706 -2.0194,1.10202 -6.89209,0.40562 -3.7479,-0.53568 -4.79008,-1.09107 -5.40137,-2.87824 -0.23471,-0.68618 -0.48868,-4.57362 -0.6202,-9.49243 l -0.22288,-8.33028 0.92789,-0.37935 z m 0.10068,658.50831 c 0.16451,-2.3119 0.22216,-4.55872 0.12845,-4.99267 l -0.17122,-0.78907 3.29338,0.2366 c 6.15118,0.44198 8.22998,0.75332 8.79355,1.31687 0.48168,0.48183 0.55218,2.06 0.60575,13.56831 0.0336,7.16273 0.0715,13.77515 0.0862,14.69458 0.0146,0.9454 0.3306,2.3211 0.7282,3.16711 0.84324,1.79388 0.57058,2.71024 -1.11208,3.73622 -1.2823,0.78178 -2.73098,0.83155 -5.30344,0.18231 -5.94276,-1.50007 -6.69884,-2.19164 -6.88435,-6.29612 -0.32507,-7.18709 -0.41775,-21.25431 -0.16363,-24.82414 z m 6.2154,-491.04535 c 0.12992,-0.12845 0.33193,-2.69447 0.44987,-5.70177 l 0.21456,-5.46778 2.52225,-0.0715 c 1.38709,-0.0393 2.74907,-0.0906 3.02655,-0.1124 0.91067,-0.0745 4.18272,0.76179 5.21249,1.33148 0.90366,0.50007 1.03503,0.78325 1.25996,2.71653 0.13867,1.18696 0.2728,5.08375 0.29937,8.65927 0.0467,6.19541 0.0147,6.53419 -0.6599,7.20927 -0.68121,0.68121 -0.83359,0.69348 -3.99853,0.31908 -3.83489,-0.45366 -6.43318,-1.16465 -7.5447,-2.06436 -0.70192,-0.56824 -0.80278,-0.9711 -0.90365,-3.61201 -0.0628,-1.63479 -0.0147,-3.07763 0.12115,-3.20623 z m 4.32768,613.76223 c 0.073,-0.077 0.21719,-3.3741 0.32081,-7.3268 0.10361,-3.9527 0.24596,-7.2441 0.31602,-7.3142 0.0701,-0.07 1.9578,-0.2257 4.19513,-0.3459 3.94043,-0.2119 6.60528,0.1182 7.69037,0.9508 1.12976,0.8674 0.73756,18.4993 -0.44125,19.8348 -0.82703,0.9371 -1.92306,0.9872 -6.22781,0.2848 -2.2747,-0.371 -4.24345,-0.6748 -4.37496,-0.6748 -0.13137,0 -0.54766,-0.3314 -0.92482,-0.7361 -0.52211,-0.5604 -0.68574,-1.1886 -0.68574,-2.6342 0,-1.0442 0.0598,-1.9613 0.13282,-2.0384 z m 0.45496,-545.34617 0.10947,-3.44692 1.9219,-0.0642 c 2.10888,-0.0715 2.85665,-0.0423 5.1166,0.19704 3.00553,0.31807 4.26256,0.62298 5.06668,1.22903 0.79594,0.60005 0.82148,0.7609 0.93285,5.8616 0.0934,4.2808 0.0205,5.38895 -0.3998,6.02974 -0.87358,1.33322 -2.55202,1.33848 -6.94478,0.0219 -0.83228,-0.24946 -2.18085,-0.55612 -2.99648,-0.68151 -0.87155,-0.13428 -1.80762,-0.55246 -2.27003,-1.01487 -0.66587,-0.66589 -0.77578,-1.08612 -0.7158,-2.73565 0.0393,-1.07195 0.1197,-3.50005 0.17998,-5.39582 z m 1.12859,75.91683 c 0.15181,-1.01721 0.43293,-3.50137 0.62487,-5.52019 0.1918,-2.01882 0.3909,-3.71286 0.44242,-3.76439 0.0511,-0.0511 0.92189,0.0423 1.93415,0.20975 5.93079,0.9781 9.98696,2.37263 10.14621,3.48867 0.0554,0.39045 -0.0219,2.37468 -0.17196,4.40925 -0.15034,2.03444 -0.20508,5.13674 -0.12115,6.89385 0.11971,2.5275 0.0393,3.38781 -0.38737,4.11924 -0.64459,1.10494 -0.72019,1.09166 -6.11164,-1.07195 -1.01721,-0.40828 -2.60251,-0.94498 -3.52297,-1.19267 -2.34475,-0.63101 -3.2163,-1.72894 -3.15543,-3.97517 0.0263,-0.96073 0.17166,-2.57903 0.32331,-3.59639 z m 1.19501,185.92629 c 0.14304,-1.14813 0.23397,-1.22914 1.59464,-1.41569 1.42562,-0.19545 7.79838,0.20186 10.06738,0.6275 0.99125,0.18595 1.20128,0.38782 1.37688,1.32344 0.11385,0.60722 0.0526,1.50999 -0.13575,2.00642 -0.19399,0.51029 -0.31543,3.34621 -0.27938,6.52689 0.035,3.09355 -0.0437,5.79956 -0.17661,6.01354 -0.13283,0.21399 -0.91694,0.49044 -1.74382,0.61451 -1.34039,0.20099 -1.85929,0.054 -4.78424,-1.35468 -3.97634,-1.91504 -4.66455,-2.51874 -5.29615,-4.64558 -0.50925,-1.71463 -0.88569,-7.57826 -0.62267,-9.69635 z m 0.9632,129.00705 c 0.0671,-0.18494 0.3722,-4.2709 0.67845,-9.0798 0.30622,-4.80891 0.60472,-8.79341 0.66325,-8.85442 0.17121,-0.17823 5.28169,0.62662 6.38619,1.00583 0.55495,0.19048 1.87607,0.53963 2.9359,0.77565 1.0597,0.23601 2.30345,0.67595 2.76367,0.97751 0.93489,0.61247 0.93576,0.6656 0.16129,10.29903 -0.18595,2.31191 -0.37921,6.01952 -0.42972,8.23904 -0.0963,4.26783 -0.61231,5.88509 -1.87563,5.88509 -0.91139,0 -6.04288,-1.82424 -8.47214,-3.01165 -1.94044,-0.94847 -2.27513,-1.2512 -2.60618,-2.35615 -0.36229,-1.20916 -0.46548,-3.16082 -0.20508,-3.88013 z m 4.9937,-640.70562 c 0.61947,-0.38491 7.32371,-0.23472 8.85179,0.19823 0.933,0.26448 1.79989,0.85534 2.56371,1.74776 1.30651,1.52634 1.30914,1.54575 1.89795,14.27375 0.27193,5.88086 0.24567,6.50325 -0.3309,7.81866 -0.56867,1.29776 -0.74396,1.43483 -1.90627,1.49087 -2.02685,0.0978 -3.02946,-0.0467 -8.9331,-1.28885 -0.51,-0.10655 -1.30024,-0.6383 -1.75623,-1.18011 l -0.82893,-0.98511 0.0307,-10.91951 c 0.0219,-7.72847 0.14159,-10.98856 0.41118,-11.15569 z m 0.56458,279.86916 c 0.12845,-2.77447 0.25281,-5.6952 0.27661,-6.4907 0.0409,-1.33644 0.14012,-1.48736 1.30462,-1.98364 1.69886,-0.72383 9.0125,-0.91286 10.04315,-0.25967 0.41307,0.26201 0.85286,1.05897 1.04948,1.90205 0.33644,1.44284 0.27586,12.19392 -0.0774,13.64435 -0.12115,0.4957 -0.79507,1.05969 -1.94306,1.62443 -1.43133,0.70427 -2.24653,0.86571 -4.38198,0.8676 -3.62061,0 -5.76146,-0.54837 -6.2446,-1.6088 -0.20887,-0.45832 -0.35294,-1.24243 -0.32024,-1.74236 0.0322,-0.49992 0.16465,-3.17894 0.29295,-5.95326 z m 1.54898,323.50853 c 0.0657,-0.55495 0.28607,-2.4767 0.48984,-4.27059 l 0.37046,-3.2617 3.74745,0.0146 c 3.98407,0.0147 6.33904,0.51817 8.08418,1.74222 l 0.97372,0.68311 -0.27995,4.22987 c -0.154,2.32651 -0.31441,5.13791 -0.35615,6.24767 -0.0423,1.10976 -0.089,2.20157 -0.1051,2.42619 -0.0161,0.22464 -0.34636,0.57832 -0.7342,0.78587 -0.56195,0.30083 -1.29526,0.19648 -3.61506,-0.51422 -4.32213,-1.32433 -7.89955,-2.5875 -8.37466,-2.95751 -0.39978,-0.31105 -0.49159,-2.65828 -0.2004,-5.12098 z m 1.07383,-554.38964 c 0.61699,-0.76192 0.91155,-0.8222 4.58968,-0.93897 3.70265,-0.11823 5.02522,0.1036 6.81824,1.14332 0.0496,0.0292 0.39089,1.6259 0.75813,3.54896 0.54926,2.87621 0.70574,5.56734 0.88177,15.16923 0.19311,10.53768 0.15968,11.75559 -0.34448,12.52498 -0.98729,1.50677 -2.61799,1.94188 -7.23395,1.9305 -6.16154,-0.0146 -5.57826,1.60647 -5.62103,-15.62844 -0.019,-7.80933 -0.14159,-14.81454 -0.27149,-15.56713 -0.18888,-1.09399 -0.10361,-1.5313 0.42313,-2.18245 z m 0.0832,382.7149 c 0.16479,-0.64734 0.39979,-3.48487 0.52211,-6.30546 l 0.22245,-5.12828 2.72237,0.0146 c 2.55099,0.0146 6.6095,0.40738 8.67605,0.85023 0.50021,0.10655 1.00365,0.49116 1.11852,0.8533 0.1153,0.36228 0.0467,2.58385 -0.15166,4.93692 -0.50504,5.99208 -0.63056,11.99468 -0.34958,16.72097 0.19077,3.20944 0.1445,4.14419 -0.22318,4.56647 -0.25456,0.29191 -0.463,0.72456 -0.463,0.96116 0,0.30228 -0.27513,0.36039 -0.92467,0.1953 -0.50868,-0.1299 -1.60589,-0.35834 -2.43817,-0.50883 -0.83229,-0.15034 -2.42124,-0.66267 -3.531,-1.13837 -1.10976,-0.47569 -2.32038,-0.86907 -2.69024,-0.87417 -0.37003,0 -1.1645,-0.30915 -1.76558,-0.67567 l -1.09298,-0.66632 0.035,-6.31028 c 0.019,-3.47072 0.16933,-6.83999 0.33412,-7.48734 z M 491.9503,733.4515 c 0.0934,-4.48428 0.16406,-4.9861 0.74953,-5.29948 1.07778,-0.5767 11.14196,0.40651 11.75792,1.14873 0.208,0.25047 0.29689,2.72791 0.23091,6.43698 -0.0584,3.31629 0.035,6.44166 0.20698,6.94507 0.30798,0.89827 -0.13721,7.94289 -0.54371,8.60046 -0.27222,0.44051 -3.76732,-0.15093 -5.68819,-0.96263 -0.88585,-0.37425 -2.58136,-0.98028 -3.76804,-1.3468 -1.18669,-0.36651 -2.39147,-0.90016 -2.67726,-1.18596 -0.54416,-0.54429 -0.54897,-0.79783 -0.26814,-14.33651 z m 0.59436,-610.11666 c 0.2477,-1.2947 0.71361,-5.20476 1.03562,-8.6892 0.68966,-7.46573 0.35906,-7.05177 5.51697,-6.90727 3.31044,0.092 7.18913,1.10669 7.77634,2.03283 0.38811,0.61246 0.36447,3.88234 -0.0379,5.3335 -0.18129,0.65231 -0.45482,4.25264 -0.60808,8.00055 -0.27791,6.80056 -0.2804,6.81647 -1.19034,7.72568 -1.0991,1.09823 -2.58837,1.13939 -7.38077,0.20363 -3.82818,-0.74763 -4.74483,-1.32492 -5.24272,-3.30199 -0.43599,-1.73157 -0.44665,-1.37439 0.13137,-4.39773 z m 0.80908,777.37094 0.48211,-8.19675 3.21909,0.2188 c 5.24999,0.35687 8.04753,1.11966 9.12357,2.48763 0.75376,0.9583 0.72296,2.56724 -0.22317,11.6692 -0.62312,5.99388 -0.651,6.02919 -4.76863,6.02919 -2.05136,0 -3.47188,-0.19053 -4.62674,-0.62068 -1.7844,-0.66459 -3.38198,-1.93296 -3.57172,-2.83609 -0.0642,-0.30498 0.10067,-4.24314 0.36549,-8.7513 z m 1.52444,-362.29583 c 0.64165,-3.13442 1.55845,-3.71185 6.60192,-4.15734 4.16827,-0.36826 4.98859,0.3798 5.00581,4.56545 0,1.57217 0.1661,4.52297 0.35469,6.55755 0.46693,5.04113 0.035,9.3037 -1.06203,10.47432 -1.18522,1.26521 -2.83899,1.84176 -5.85781,2.04276 -2.74863,0.18289 -4.39115,-0.24741 -5.08754,-1.33308 -0.43789,-0.68268 -0.40009,-15.97583 0.0452,-18.14966 z m 0.68791,-154.64724 c 0,-0.0147 0.98366,-0.0642 2.18596,-0.10948 2.68309,-0.10067 7.76933,1.40388 9.42966,2.79008 l 1.09064,0.91038 0.16552,5.73767 c 0.18494,6.40632 -0.0146,8.47435 -0.9092,9.58337 -0.5837,0.72091 -0.71609,0.73872 -2.92408,0.39556 -2.62588,-0.40811 -7.73387,-2.19471 -8.51696,-2.97911 -0.4414,-0.44212 -0.52154,-1.73288 -0.52154,-8.41216 0,-4.33949 0,-7.90202 0,-7.91675 z m 10.94624,-86.56719 c 0.14159,-1.29484 0.35455,-5.22256 0.47278,-8.72846 0.12552,-3.72236 0.36548,-6.55565 0.57654,-6.80992 0.19881,-0.23937 0.63656,-0.43541 0.97286,-0.43541 0.33644,0 0.69435,-0.13428 0.7955,-0.29746 0.50663,-0.81959 6.53519,-1.01753 7.6305,-0.25033 0.43016,0.30126 1.06728,0.54779 1.41585,0.54779 0.44869,0 0.57203,0.16071 0.42255,0.55057 -0.11676,0.30274 0.0292,3.97239 0.32302,8.15498 0.29383,4.18242 0.44272,8.22342 0.33076,8.97981 -0.41132,2.78234 -3.17499,4.17338 -8.29159,4.17338 -2.50691,0 -4.06316,-0.55583 -4.65563,-1.66282 -0.37483,-0.70034 -0.37468,-0.73551 0,-4.22213 z m 0.4935,388.18196 c 0.3271,-0.32726 1.12684,-10.55213 0.93635,-11.97236 -0.17749,-1.32286 -0.1372,-1.4173 0.61305,-1.4173 0.44168,0 1.33178,0.16333 1.97793,0.36287 0.64618,0.19953 2.30973,0.49116 3.69696,0.64808 2.21281,0.25032 3.46357,0.63478 5.38065,1.65404 0.4103,0.21807 0.50328,1.10758 0.49846,4.77067 -0.0146,10.44718 -0.6688,15.10778 -2.12055,15.08793 -0.31003,0 -1.92584,-0.69521 -3.59041,-1.53553 -1.66471,-0.84031 -3.70761,-1.76002 -4.53988,-2.04392 -2.37058,-0.80849 -3.02655,-1.59859 -3.02655,-3.64559 0,-0.95415 0.0789,-1.8133 0.17399,-1.90889 z m 0.62136,-336.57693 c 0.10361,-0.10068 0.23121,-3.6571 0.28463,-7.90289 l 0.0963,-7.71941 1.51335,-0.39337 c 0.83228,-0.21632 3.3554,-0.4055 5.60688,-0.42037 l 4.09368,-0.0278 1.09823,1.09297 1.09809,1.09298 -0.0584,8.57534 -0.0584,8.57534 -1.22039,1.07809 c -1.67421,1.47919 -3.90087,1.81534 -8.62002,1.30184 -3.00127,-0.32666 -3.68015,-0.89621 -3.87224,-3.24885 -0.0818,-1.00174 -0.0642,-1.90394 0.0393,-2.00466 z m 2.4627,589.02262 c 0.24931,-1.10975 0.59523,-3.30397 0.76863,-4.87616 0.17339,-1.57219 0.48416,-3.53948 0.6907,-4.3718 0.20653,-0.83223 0.45803,-2.01647 0.55904,-2.63152 0.27806,-1.69379 1.12903,-1.93099 5.35349,-1.49297 3.93503,0.40816 5.89852,1.31951 6.56134,3.04531 0.38666,1.0064 0.0701,7.36087 -0.38096,7.63921 -0.14713,0.0905 -0.37526,1.74689 -0.50708,3.67976 -0.19209,2.81857 -0.36534,3.62818 -0.87461,4.08918 -0.95767,0.86674 -3.52166,1.13881 -5.60863,0.59529 -0.98001,-0.25518 -2.21967,-0.46395 -2.75449,-0.46395 -0.53495,0 -1.06626,-0.15137 -1.18054,-0.33627 -0.11386,-0.18499 -0.47511,-0.33627 -0.80192,-0.33627 -0.62516,0 -1.84395,-1.16153 -2.11733,-2.01772 -0.089,-0.27744 0.0437,-1.41251 0.29236,-2.52209 z m 0.11822,-82.39042 c 0.13138,-3.32928 0.19663,-8.72876 0.14597,-11.99891 -0.0715,-4.52181 0.0147,-5.98451 0.32782,-6.10741 0.44534,-0.17092 7.38473,0.31295 9.09746,0.63421 0.55481,0.1036 1.56457,0.42578 2.24375,0.71494 1.11836,0.47612 1.25148,0.67274 1.41059,2.08376 0.0963,0.85696 0.17078,7.15031 0.16479,13.98519 -0.0147,13.71894 0.0628,13.25654 -2.13778,13.29535 -1.46971,0.0263 -7.87677,-1.02042 -9.22898,-1.50736 -1.39452,-0.50196 -2.39684,-2.17353 -2.31729,-3.86438 0.0307,-0.65026 0.16304,-3.90627 0.29425,-7.23554 z m 0.35542,-217.57802 c 0.14858,-1.29468 0.39132,-3.26213 0.53919,-4.37174 l 0.26885,-2.0178 2.35396,-0.26069 c 5.69548,-0.6307 6.13236,-0.63683 7.68818,-0.10801 2.87738,0.97694 2.74616,0.67946 2.66076,6.03048 -0.1036,6.48486 -0.32534,8.21598 -1.10611,8.63387 -0.69946,0.37439 -4.98319,-0.10509 -6.05294,-0.67785 -0.34287,-0.18363 -1.43059,-0.33368 -2.41715,-0.33368 -1.36594,0 -2.09298,-0.20347 -3.04875,-0.85285 -1.39977,-0.95126 -1.43948,-1.22158 -0.88599,-6.04114 z m 1.88569,-398.83697 c 0.0481,-2.03458 0.39733,-8.54177 0.77566,-14.46043 0.37818,-5.91867 0.74572,-12.04753 0.8168,-13.61955 0.0715,-1.57217 0.14305,-3.1191 0.15881,-3.43758 0.0452,-0.88454 3.25965,-1.70413 5.84481,-1.49014 5.00858,0.41424 5.94946,1.02422 6.13382,3.97619 0.17734,2.83927 0.14742,12.46526 -0.0393,12.76799 -0.0934,0.15093 -0.17005,4.85546 -0.17063,10.45477 -7.3e-4,5.59929 -0.14305,10.71735 -0.31587,11.37345 -0.70602,2.67638 -3.83357,3.96524 -8.62643,3.55494 -2.34694,-0.20099 -2.72747,-0.33279 -3.55318,-1.23076 -0.63057,-0.68574 -0.92482,-1.36957 -0.92482,-2.1499 0,-0.62925 -0.0423,-1.34564 -0.0934,-1.59202 -0.051,-0.24623 -0.054,-2.11253 0,-4.14696 z m 2.03298,-93.85689 c 1.42008,-0.61494 4.91663,-0.72982 5.57522,-0.18332 0.23776,0.19749 1.32257,0.59071 2.41058,0.87418 2.26492,0.58998 3.86833,1.90145 3.86833,3.16403 0,0.866 0.53116,2.79739 1.05298,3.82832 0.16377,0.32362 0.37878,2.44226 0.47774,4.70792 0.0992,2.26578 0.34331,5.60805 0.54298,7.42734 0.41965,3.82306 0.19369,4.57667 -1.63203,5.44296 -1.2601,0.59802 -3.70979,0.45264 -6.49493,-0.38534 -0.83229,-0.25047 -1.90101,-0.45701 -2.37511,-0.45891 -1.07107,0 -2.46693,-1.44474 -2.93679,-3.03034 -0.27396,-0.92424 -0.87679,-10.68028 -0.81037,-13.11509 0.0147,-0.27748 -0.2007,-2.03722 -0.46301,-3.91051 -0.26215,-1.87328 -0.47671,-3.49815 -0.47671,-3.61054 0,-0.1124 0.5675,-0.4503 1.26112,-0.7507 z m 0.49437,344.55922 c 0.13283,-1.94204 0.33747,-5.75286 0.4541,-8.46835 0.168,-3.9124 0.31557,-4.97692 0.7104,-5.12842 0.27412,-0.10509 2.20303,-0.28857 4.28636,-0.40753 3.58122,-0.20464 3.88948,-0.1699 5.65112,0.63669 1.5392,0.70456 1.93271,1.06305 2.26186,2.06071 0.21924,0.66413 0.30331,1.50809 0.18669,1.87533 -0.11678,0.36725 -0.33908,4.41773 -0.49453,9.00098 -0.30769,9.06928 -0.46985,9.83953 -2.3544,11.18138 -1.40591,1.0013 -3.11208,1.23819 -6.53755,0.90817 -4.3462,-0.41876 -4.60398,-0.70047 -4.49187,-4.90932 0.0467,-1.77025 0.19456,-4.8076 0.32782,-6.74964 z m 0.31295,-66.92125 c 0.15429,-2.31192 0.3528,-5.41306 0.44125,-6.89123 0.12115,-2.02319 0.3039,-2.79213 0.73945,-3.11062 0.6491,-0.47467 0.81578,-0.48854 6.06536,-0.50634 6.33934,-0.0219 6.77943,0.46693 6.21309,6.89661 -0.19939,2.2639 -0.37396,5.85634 -0.38783,7.98333 l -0.0248,3.86729 -1.07735,0.89549 c -2.72399,2.26418 -11.17672,1.61756 -12.15424,-0.92979 -0.23776,-0.61976 -0.1953,-2.4951 0.18552,-8.20474 z m 1.21821,382.61111 0.092,-5.96917 1.75769,-0.0642 c 0.96671,-0.035 2.13604,-0.0452 2.59844,-0.0219 5.15834,0.25996 6.87124,0.46066 7.83591,0.91841 l 1.12947,0.53597 -0.12699,8.95338 c -0.0701,4.92437 -0.23997,9.4958 -0.37761,10.15876 -0.47306,2.27703 -2.44811,2.4894 -8.6212,0.92731 -4.66833,-1.18128 -4.51522,-0.63013 -4.28738,-15.43796 z m 4.46341,-94.91716 c 0.14451,-0.92481 0.27515,-2.92992 0.29135,-4.45582 l 0.0292,-2.77433 4.15091,0 c 4.14464,0 7.17835,0.61787 8.52631,1.73653 0.39746,0.32989 0.45556,2.22595 0.3525,11.50088 l -0.1226,11.10592 -0.97709,0.26127 c -0.89709,0.23981 -2.81096,-0.0992 -6.0442,-1.07195 -0.55496,-0.16683 -2.03926,-0.56094 -3.29848,-0.87578 -1.46679,-0.36666 -2.46371,-0.8212 -2.77432,-1.26463 -0.38213,-0.54546 -0.47526,-1.94145 -0.43994,-6.58645 0.0249,-3.24184 0.16275,-6.65082 0.30682,-7.57564 z m 0.33674,-115.68292 c 0.1445,-0.92482 0.43907,-5.31292 0.65495,-9.75152 0.21573,-4.43845 0.45934,-8.137 0.54122,-8.21875 0.46868,-0.46883 8.6628,0.46839 10.80101,1.23528 1.58385,0.5681 1.92117,1.19486 1.63903,3.04553 -0.24931,1.63435 -0.651,12.7388 -0.68122,18.82942 -0.019,3.88101 -0.12115,4.8667 -0.52824,5.13192 -0.70705,0.46022 -2.76454,0.092 -5.7168,-1.02306 -1.38725,-0.52401 -3.26214,-1.15706 -4.16653,-1.40664 -2.67755,-0.73932 -3.33526,-2.76732 -2.54342,-7.84218 z m 1.34783,170.32969 c 0.14451,-1.2023 0.31295,-4.65156 0.3744,-7.66526 0.10508,-5.15236 0.15166,-5.4891 0.78411,-5.64397 4.47525,-1.09487 10.4161,-1.32724 12.10636,-0.47336 l 1.00874,0.50971 -0.0146,3.86203 c 0,2.12421 -0.0963,6.33978 -0.19997,9.36823 -0.20159,5.91486 -0.17822,5.84408 -2.14158,6.48252 -1.51028,0.49116 -6.75211,0.28258 -9.07265,-0.36097 -3.32374,-0.92162 -3.43788,-1.16523 -2.84702,-6.07893 z m 3.86773,-228.00299 c 0.057,-0.46242 0.29091,-4.90452 0.51977,-9.87151 l 0.41617,-9.03075 4.25702,0.14772 c 2.3414,0.0818 4.39641,0.23369 4.5669,0.33864 0.17033,0.10508 1.03721,0.2998 1.92627,0.43278 2.32242,0.34768 2.598,0.92555 2.24127,4.69971 -0.55524,5.87445 -0.73697,15.40337 -0.36141,18.9405 0.41658,3.92218 0.23895,4.59566 -1.30097,4.93386 -1.10348,0.24243 -4.21688,-0.27048 -6.06272,-0.99869 -0.64736,-0.25544 -1.83185,-0.53802 -2.63231,-0.62808 -2.50108,-0.28127 -3.19836,-1.45832 -3.51773,-5.93764 -0.0862,-1.20216 -0.10948,-2.56414 -0.0525,-3.02654 z m 8.89765,-199.75472 c 0.37133,-2.66734 1.23893,-9.67081 1.7212,-13.89324 0.32827,-2.8746 0.54137,-3.7038 1.01721,-3.95852 1.1556,-0.6183 5.70148,-1.0067 6.9864,-0.59669 4.04405,1.29031 4.13032,1.4554 4.11046,7.86128 -0.0147,4.6428 -0.98539,12.55139 -1.70616,13.8982 -0.55129,1.02991 -1.52123,1.64923 -3.44502,2.19922 -1.58093,0.45205 -2.35104,0.48432 -4.5399,0.19063 -4.24972,-0.57043 -4.76059,-1.27324 -4.14419,-5.70088 z m 0.91009,49.93871 c 0.0584,-1.47978 0.20302,-2.91737 0.32024,-3.19485 0.11676,-0.27733 0.19485,-0.73142 0.17253,-1.00874 -0.0219,-0.27749 0.14625,-2.32038 0.37483,-4.5399 l 0.41541,-4.03545 1.84351,-0.1036 c 1.01387,-0.057 1.98715,-0.24609 2.1629,-0.42037 0.42577,-0.42257 2.31613,-0.40535 2.74658,0.0249 0.18815,0.18814 1.58049,0.4376 3.09428,0.55422 l 2.75229,0.21223 0.36387,1.35191 c 0.25122,0.93256 0.2572,1.58647 0.019,2.1083 -0.47219,1.03634 -0.68047,3.42181 -1.0664,12.21362 -0.2004,4.56441 -0.47891,7.71284 -0.70631,7.98682 -0.6713,0.80907 -3.28695,0.36944 -6.59857,-1.10902 -0.60122,-0.26844 -1.8876,-0.57642 -2.8584,-0.68443 -1.08771,-0.12115 -2.05589,-0.46007 -2.5221,-0.88336 -0.80951,-0.73522 -0.8171,-0.8609 -0.51408,-8.47274 z m 0.79039,286.1806 c 0.15004,-1.29469 0.32125,-4.54835 0.38052,-7.23014 l 0.10801,-4.87619 1.67755,-0.20129 c 0.92263,-0.11092 3.6177,-0.12699 5.98888,-0.035 6.25701,0.24172 5.75913,-0.65989 5.6987,10.31917 -0.0276,4.94407 -0.13428,9.0738 -0.23763,9.17729 -0.1036,0.1036 -0.18814,0.51788 -0.18814,0.92073 0,1.27266 -1.09546,1.93301 -2.92233,1.76164 -1.50081,-0.14012 -5.60033,-1.09472 -8.61972,-2.00583 -2.27425,-0.68617 -2.57115,-1.91883 -1.88541,-7.83064 z m 0.38886,-437.41317 c 0.3903,-0.50767 2.69084,-0.86411 5.94815,-0.92163 1.31469,-0.0234 4.36182,1.5357 4.69666,2.40286 0.57451,1.48736 1.05153,4.88102 0.83695,5.95414 -0.11968,0.59436 0.019,2.16945 0.30696,3.50005 0.71494,3.30548 1.4395,11.60014 1.29324,14.80359 -0.0263,0.56022 -0.44708,1.35455 -1.02627,1.93373 -0.85388,0.85388 -1.23208,0.98292 -2.87781,0.98292 -1.93795,0 -3.81563,-0.34915 -6.65476,-1.23778 -2.6596,-0.83242 -2.63245,-0.68355 -2.57654,-14.15508 0.0263,-6.42297 -0.0467,-11.90958 -0.1629,-12.19231 -0.11678,-0.28274 -0.019,-0.76441 0.21632,-1.07049 z m 2.15398,221.72292 c 0.40928,-0.58414 0.44709,-0.84703 0.14858,-1.03152 -0.2309,-0.14304 -0.31658,-0.58969 -0.20214,-1.05634 0.10947,-0.44475 0.25791,-1.71667 0.33089,-2.82643 0.073,-1.10976 0.32973,-2.51277 0.57027,-3.11792 0.3477,-0.87403 0.3528,-1.23573 0.0249,-1.7609 -0.45234,-0.72428 -0.51875,-1.75259 -0.19208,-2.97313 0.21076,-0.78719 0.22478,-0.78907 4.28315,-0.604 3.04041,0.13866 4.62513,0.38271 6.25744,0.96321 l 2.1858,0.77755 -0.0467,3.77373 c -0.0263,2.07546 -0.15166,4.04041 -0.28025,4.36634 -0.12845,0.32609 -0.2623,2.97197 -0.29719,5.87985 -0.035,2.91752 -0.21076,5.42793 -0.39219,5.60149 -0.181,0.17297 -0.87242,0.46109 -1.53671,0.64033 -0.96203,0.25938 -1.85096,0.15575 -4.37174,-0.5097 -1.74018,-0.45949 -3.618,-0.91227 -4.17295,-1.00612 -0.55481,-0.0934 -1.42504,-0.55976 -1.93357,-1.03533 -0.82791,-0.77389 -0.92483,-1.09676 -0.92483,-3.08084 0,-1.5059 0.17603,-2.46751 0.54912,-3.00027 z m 6.53843,103.70648 c 0.48429,-3.79504 1.06931,-9.75049 1.22798,-12.5035 0.11823,-2.0559 0.28901,-2.80133 0.67377,-2.94905 1.06889,-0.41016 6.09076,-0.22025 8.01806,0.30317 1.09603,0.29777 2.58063,0.70019 3.29906,0.89447 l 1.30608,0.35293 -0.22157,2.07487 c -0.79054,7.40311 -1.18362,14.48671 -0.98934,17.83145 0.27996,4.82148 0.15968,7.99326 -0.32506,8.5774 -0.53306,0.64238 -3.98963,0.31426 -5.95253,-0.56487 -0.83228,-0.3728 -2.26988,-0.78894 -3.1947,-0.92454 -1.25281,-0.18378 -1.95999,-0.52518 -2.77432,-1.33936 -1.01737,-1.01706 -1.09371,-1.25193 -1.10334,-3.39628 0,-1.26696 -0.0584,-3.21148 -0.11677,-4.32124 -0.0584,-1.10976 0.0146,-2.92569 0.15195,-4.03545 z m 1.96452,-393.96078 c 0.15837,-0.27747 0.47496,-3.90933 0.70354,-8.07089 0.26361,-4.80206 0.55392,-7.6587 0.79463,-7.81883 1.37468,-0.91474 4.64615,-1.22273 5.50383,-0.51817 0.25208,0.20728 0.91592,0.2388 1.68135,0.0803 1.63216,-0.33864 1.82104,-0.29675 3.4389,0.76237 1.57304,1.03006 1.42358,-0.0773 1.48575,11.00081 0.0496,8.76407 0.0496,8.76407 -2.65069,9.79502 -1.09647,0.41877 -1.94087,0.51088 -3.10697,0.33878 -0.88075,-0.1299 -2.43364,-0.34565 -3.45087,-0.47906 -1.86979,-0.24521 -3.04553,-0.71741 -4.11951,-1.65419 -0.62604,-0.54606 -0.78894,-2.54458 -0.27996,-3.43568 z m 2.47246,438.63052 c 0.14159,-0.0876 1.95825,-0.18173 4.03545,-0.20888 3.99283,-0.0526 7.01792,0.60386 7.89603,1.71273 0.53992,0.6818 0.58123,6.65272 0.0482,6.98201 -0.269,0.16625 -0.26434,0.29675 0.0175,0.47059 0.25952,0.16042 0.38869,1.57407 0.38782,4.24563 -7.4e-4,2.24288 0.17443,4.50005 0.39834,5.13004 0.37994,1.06888 0.3433,1.17544 -0.73347,2.13747 -1.00292,0.89608 -1.29251,0.98701 -2.51728,0.7901 -0.76106,-0.1226 -2.59451,-0.37074 -4.07413,-0.55173 -3.01284,-0.36871 -4.08814,-0.95212 -4.94232,-2.68179 -0.48066,-0.97314 -0.58677,-2.47277 -0.6726,-9.51096 -0.0554,-4.59566 0.0146,-8.42734 0.15691,-8.51521 z"
       id="path5331"
       inkscape:connector-curvature="0" />
  </g>
</svg>
