<?xml version="1.0" encoding="UTF-8" standalone="no"?>
<!-- Created with Inkscape (http://www.inkscape.org/) -->

<svg
   xmlns:dc="http://purl.org/dc/elements/1.1/"
   xmlns:cc="http://creativecommons.org/ns#"
   xmlns:rdf="http://www.w3.org/1999/02/22-rdf-syntax-ns#"
   xmlns:svg="http://www.w3.org/2000/svg"
   xmlns="http://www.w3.org/2000/svg"
   xmlns:sodipodi="http://sodipodi.sourceforge.net/DTD/sodipodi-0.dtd"
   xmlns:inkscape="http://www.inkscape.org/namespaces/inkscape"
   width="210mm"
   height="297mm"
   viewBox="0 0 744.09448819 1052.3622047"
   id="svg4186"
   version="1.1"
   inkscape:version="0.91 r13725"
   sodipodi:docname="ornament08.svg">
  <defs
     id="defs4188" />
  <sodipodi:namedview
     id="base"
     pagecolor="#ffffff"
     bordercolor="#666666"
     borderopacity="1.0"
     inkscape:pageopacity="0.0"
     inkscape:pageshadow="2"
     inkscape:zoom="0.35"
     inkscape:cx="328.90377"
     inkscape:cy="517.33062"
     inkscape:document-units="px"
     inkscape:current-layer="layer1"
     showgrid="false"
     inkscape:window-width="458"
     inkscape:window-height="573"
     inkscape:window-x="906"
     inkscape:window-y="0"
     inkscape:window-maximized="0" />
  <metadata
     id="metadata4191">
    <rdf:RDF>
      <cc:Work
         rdf:about="">
        <dc:format>image/svg+xml</dc:format>
        <dc:type
           rdf:resource="http://purl.org/dc/dcmitype/StillImage" />
        <dc:title></dc:title>
      </cc:Work>
    </rdf:RDF>
  </metadata>
  <g
     inkscape:label="Layer 1"
     inkscape:groupmode="layer"
     id="layer1">
    <g
       style="display:inline"
       id="g7776"
       transform="matrix(0,1.7267221,-1.7267221,0,457.21139,-290.0076)">
      <path
         inkscape:connector-curvature="0"
         id="path7679"
         d="m 244.64264,64.489922 c -1.09722,-0.2583 -2.56596,-0.8509 -3.26383,-1.3168 -0.6979,-0.4659 -1.47323,-0.8529 -1.72287,-0.86 -0.24973,-0.01 -0.61242,-0.2801 -0.80602,-0.6068 -0.19361,-0.3267 -0.49682,-0.594 -0.67375,-0.594 -0.54805,0 -1.51268,-2.2652 -2.14137,-5.0283 -0.50766,-2.2312 -0.58391,-2.9197 -0.49085,-4.4337 0.10323,-1.6808 0.6676,-4.1262 1.27092,-5.5071 1.25116,-2.8639 2.14321,-4.1274 3.56588,-5.051 0.44889,-0.2913 1.30638,-0.993 1.90558,-1.5592 0.84292,-0.7966 1.64321,-1.1322 3.53647,-1.4833 1.34578,-0.2495 2.85501,-0.5424 3.35371,-0.6508 0.49874,-0.1083 1.72286,0.095 2.72035,0.4524 0.99744,0.3572 2.56794,0.7951 3.48998,0.9731 1.25945,0.2431 1.90643,0.5898 2.60107,1.3938 0.50851,0.5886 1.04706,1.0701 1.19669,1.0701 0.66653,0 3.11967,2.31 3.81381,3.5912 0.77358,1.428 1.32131,3.7063 1.32131,5.496 0,0.5386 0.0816,1.0919 0.18133,1.2294 0.44956,0.6198 0.0894,2.0255 -1.30065,5.0769 -1.76492,3.8743 -2.00442,4.1904 -3.81708,5.0387 -0.76999,0.3604 -1.64406,0.9268 -1.9423,1.2587 -0.29827,0.332 -1.05567,0.7853 -1.6831,1.0075 -0.6274,0.2221 -1.50797,0.5769 -1.95682,0.7884 -1.04953,0.4946 -6.57819,0.3224 -9.15846,-0.2852 z"
         style="display:inline;fill:#000000" />
      <path
         inkscape:connector-curvature="0"
         id="path7675"
         d="m 421.32049,65.712703 c -3.74023,-1.023886 -8.40722,-1.438279 -10.38348,-5.321318 -2.9856,-4.939466 -3.28199,-11.172657 -2.06099,-16.68885 1.016,-4.012523 4.45806,-6.813142 8.39831,-7.706952 3.49905,-1.371479 5.84591,1.865513 8.63655,3.267384 3.69895,2.146124 8.11576,4.326346 9.30822,8.813322 2.04554,4.162358 1.13328,9.03301 -0.66516,13.089931 -1.7446,2.967215 -5.63729,3.264423 -8.60938,4.328649 -1.50966,0.257146 -3.10143,0.408777 -4.62407,0.217834 z"
         style="display:inline;fill:#000000" />
      <path
         inkscape:connector-curvature="0"
         id="path7673"
         d="m 466.78377,66.854576 c -0.0588,-0.1241 -0.87145,-0.3132 -1.8059,-0.4202 -0.93445,-0.1071 -2.00101,-0.4392 -2.37018,-0.738 -0.36917,-0.2988 -1.23218,-0.6772 -1.91777,-0.8407 -0.68564,-0.1636 -1.46233,-0.528 -1.72603,-0.8098 -0.2637,-0.2818 -0.99726,-0.7317 -1.63008,-0.9998 -0.63288,-0.2681 -1.58216,-0.6787 -2.10956,-0.9124 -1.25267,-0.5552 -3.40707,-2.842 -3.88503,-4.1237 -0.2073,-0.5561 -0.48915,-1.6101 -0.62629,-2.3424 -0.13713,-0.7323 -0.40875,-1.709 -0.60357,-2.1706 -0.3022,-0.7157 -0.3222,-1.0336 -0.13605,-2.1599 0.12349,-0.7474 0.16851,-2.2059 0.10376,-3.3599 -0.0978,-1.7411 -0.028,-2.4169 0.47659,-4.6245 0.74607,-3.2635 1.78338,-5.19966 3.10639,-5.79821 0.5402,-0.24441 1.35349,-0.71031 1.80728,-1.03532 1.32903,-0.95186 7.68819,-0.8258 9.49315,0.18818 0.76275,0.42851 2.08689,1.05712 2.94251,1.39692 1.62999,0.64731 2.60834,1.33226 4.18737,2.93173 0.52172,0.5284 1.10899,0.9608 1.305,0.9608 0.55124,0 2.03296,1.5458 3.36886,3.5147 0.66639,0.9821 1.44223,1.9705 1.72408,2.1966 0.69421,0.5568 1.78793,3.0757 2.08752,4.8075 0.56599,3.2722 0.2263,5.484 -1.28352,8.3578 -2.10994,4.016 -2.77908,4.5161 -6.71222,5.017 -1.42393,0.1814 -3.10678,0.5079 -3.73965,0.7256 -1.38728,0.4773 -1.9145,0.5385 -2.05666,0.2386 z"
         style="display:inline;fill:#000000" />
      <path
         inkscape:connector-curvature="0"
         id="path7667"
         d="m 292.66839,63.665749 c -0.88178,-0.4786 -4.68899,-1.8951 -6.58532,-2.4502 -2.2891,-0.67 -5.44792,-3.5094 -5.69914,-5.123 -0.0591,-0.3799 -0.32836,-1.5541 -0.59821,-2.6094 -0.55748,-2.1803 -0.67108,-5.5724 -0.21201,-6.3331 0.15331,-0.254 0.33647,-1.1834 0.40714,-2.0655 0.0915,-1.1433 0.28789,-1.8063 0.6838,-2.3093 0.30546,-0.388 0.60096,-0.8217 0.65671,-0.9638 0.0557,-0.142 0.32924,-0.3931 0.60787,-0.558 0.27862,-0.1649 1.06644,-0.8418 1.75079,-1.5043 1.36209,-1.31856 2.7036,-1.79824 6.55688,-2.34451 2.51474,-0.3565 5.9119,0.0246 6.63642,0.74446 0.47651,0.47347 3.30742,2.38585 4.81195,3.25065 1.22076,0.7017 2.11701,1.6606 2.78278,2.9776 0.19689,0.3894 0.4426,0.708 0.54607,0.708 0.10347,0 0.61053,1.1088 1.12675,2.4641 0.92711,2.4342 0.93688,2.4918 0.79719,4.7235 -0.2658,4.248 -1.26012,6.2044 -4.0407,7.9508 -0.8936,0.5612 -1.80544,1.293 -2.02631,1.6263 -0.22082,0.3334 -0.69221,0.6118 -1.04751,0.6189 -0.35525,0.01 -1.22146,0.271 -1.92494,0.5865 -1.72621,0.7742 -4.36164,1.0817 -5.23021,0.6103 z"
         style="display:inline;fill:#000000" />
      <path
         sodipodi:nodetypes="cccccccccccc"
         inkscape:connector-curvature="0"
         id="path7663"
         d="m 333.7374,64.076102 c -3.28629,-1.133557 -6.33741,-3.200757 -9.31746,-5.316782 -0.99775,-1.357417 -1.84686,-2.934537 -2.7431,-4.396307 -0.49377,-1.76029 -0.58431,-3.914796 0.0983,-5.608861 0.88306,-1.691674 1.15674,-3.78638 2.07638,-5.454792 0.92665,-1.765825 1.98926,-3.702797 3.66336,-4.175017 2.32401,-0.726204 4.7264,-0.817383 7.08037,-1.312383 1.30711,-0.336957 2.64797,-0.08422 3.8408,0.712977 5.15621,1.343071 15.25482,13.060797 12.05679,19.674612 -0.99148,2.453908 -2.72478,4.672607 -4.85043,5.064433 -1.64572,-0.232622 -3.0933,0.71603 -4.65684,1.086615 -2.40105,0.371737 -4.86489,0.246391 -7.24818,-0.274495 z"
         style="display:inline;fill:#000000" />
      <path
         inkscape:connector-curvature="0"
         id="path7679-1"
         d="m 384.69895,64.309657 c 1.09722,-0.2583 2.56596,-0.8509 3.26383,-1.3168 0.6979,-0.4659 1.47323,-0.8529 1.72287,-0.86 0.24973,-0.01 0.61242,-0.2801 0.80602,-0.6068 0.19361,-0.3267 0.49682,-0.594 0.67375,-0.594 0.54805,0 1.51268,-2.2652 2.14137,-5.0283 0.50766,-2.2312 0.58391,-2.9197 0.49085,-4.4337 -0.10323,-1.6808 -0.6676,-4.1262 -1.27092,-5.5071 -1.25116,-2.8639 -2.14321,-4.1274 -3.56588,-5.051 -0.44889,-0.2913 -1.30638,-0.993 -1.90558,-1.5592 -0.84292,-0.7966 -1.64321,-1.1322 -3.53647,-1.4833 -1.34578,-0.2495 -2.85501,-0.5424 -3.35371,-0.6508 -0.49874,-0.1083 -1.72286,0.095 -2.72035,0.4524 -0.99744,0.3572 -2.56794,0.7951 -3.48998,0.9731 -1.25945,0.2431 -1.90643,0.5898 -2.60107,1.3938 -0.50851,0.5886 -1.04706,1.0701 -1.19669,1.0701 -0.66653,0 -3.11967,2.31 -3.81381,3.5912 -0.77358,1.428 -1.32131,3.7063 -1.32131,5.496 0,0.5386 -0.0816,1.0919 -0.18133,1.2294 -0.44956,0.6198 -0.0894,2.0255 1.30065,5.0769 1.76492,3.8743 2.00442,4.1904 3.81708,5.0387 0.76999,0.3604 1.64406,0.9268 1.9423,1.2587 0.29827,0.332 1.05567,0.7853 1.6831,1.0075 0.6274,0.2221 1.50797,0.5769 1.95682,0.7884 1.04953,0.4946 6.57819,0.3224 9.15846,-0.2852 z"
         style="display:inline;fill:#000000" />
      <path
         inkscape:connector-curvature="0"
         id="path7667-2"
         d="m 507.91517,65.227729 c -0.88178,-0.4786 -4.68899,-1.8951 -6.58532,-2.4502 -2.2891,-0.67 -5.44792,-3.5094 -5.69914,-5.123 -0.0591,-0.3799 -0.32836,-1.5541 -0.59821,-2.6094 -0.55748,-2.1803 -0.67108,-5.5724 -0.21201,-6.3331 0.15331,-0.254 0.33647,-1.1834 0.40714,-2.0655 0.0915,-1.1433 0.28789,-1.8063 0.6838,-2.3093 0.30546,-0.388 0.60096,-0.8217 0.65671,-0.9638 0.0557,-0.142 0.32924,-0.3931 0.60787,-0.558 0.27862,-0.1649 1.06644,-0.8418 1.75079,-1.5043 1.36209,-1.31856 2.7036,-1.79824 6.55688,-2.34451 2.51474,-0.3565 5.9119,0.0246 6.63642,0.74446 0.47651,0.47347 3.30742,2.38585 4.81195,3.25065 1.22076,0.7017 2.11701,1.6606 2.78278,2.9776 0.19689,0.3894 0.4426,0.708 0.54607,0.708 0.10347,0 0.61053,1.1088 1.12675,2.4641 0.92711,2.4342 0.93688,2.4918 0.79719,4.7235 -0.2658,4.248 -1.26012,6.2044 -4.0407,7.9508 -0.8936,0.5612 -1.80544,1.293 -2.02631,1.6263 -0.22082,0.3334 -0.69221,0.6118 -1.04751,0.6189 -0.35525,0.01 -1.22146,0.271 -1.92494,0.5865 -1.72621,0.7742 -4.36164,1.0817 -5.23021,0.6103 z"
         style="display:inline;fill:#000000" />
      <path
         inkscape:connector-curvature="0"
         id="path7679-7"
         d="m 545.98808,64.309657 c -1.09722,-0.2583 -2.56596,-0.8509 -3.26383,-1.3168 -0.6979,-0.4659 -1.47323,-0.8529 -1.72287,-0.86 -0.24973,-0.01 -0.61242,-0.2801 -0.80602,-0.6068 -0.19361,-0.3267 -0.49682,-0.594 -0.67375,-0.594 -0.54805,0 -1.51268,-2.2652 -2.14137,-5.0283 -0.50766,-2.2312 -0.58391,-2.9197 -0.49085,-4.4337 0.10323,-1.6808 0.6676,-4.1262 1.27092,-5.5071 1.25116,-2.8639 2.14321,-4.1274 3.56588,-5.051 0.44889,-0.2913 1.30638,-0.993 1.90558,-1.5592 0.84292,-0.7966 1.64321,-1.1322 3.53647,-1.4833 1.34578,-0.2495 2.85501,-0.5424 3.35371,-0.6508 0.49874,-0.1083 1.72286,0.095 2.72035,0.4524 0.99744,0.3572 2.56794,0.7951 3.48998,0.9731 1.25945,0.2431 1.90643,0.5898 2.60107,1.3938 0.50851,0.5886 1.04706,1.0701 1.19669,1.0701 0.66653,0 3.11967,2.31 3.81381,3.5912 0.77358,1.428 1.32131,3.7063 1.32131,5.496 0,0.5386 0.0816,1.0919 0.18133,1.2294 0.44956,0.6198 0.0894,2.0255 -1.30065,5.0769 -1.76492,3.8743 -2.00442,4.1904 -3.81708,5.0387 -0.76999,0.3604 -1.64406,0.9268 -1.9423,1.2587 -0.29827,0.332 -1.05567,0.7853 -1.6831,1.0075 -0.6274,0.2221 -1.50797,0.5769 -1.95682,0.7884 -1.04953,0.4946 -6.57819,0.3224 -9.15846,-0.2852 z"
         style="display:inline;fill:#000000" />
      <path
         inkscape:connector-curvature="0"
         id="path7679-0"
         d="m 589.03745,64.309657 c -1.09722,-0.2583 -2.56596,-0.8509 -3.26383,-1.3168 -0.6979,-0.4659 -1.47323,-0.8529 -1.72287,-0.86 -0.24973,-0.01 -0.61242,-0.2801 -0.80602,-0.6068 -0.19361,-0.3267 -0.49682,-0.594 -0.67375,-0.594 -0.54805,0 -1.51268,-2.2652 -2.14137,-5.0283 -0.50766,-2.2312 -0.58391,-2.9197 -0.49085,-4.4337 0.10323,-1.6808 0.6676,-4.1262 1.27092,-5.5071 1.25116,-2.8639 2.14321,-4.1274 3.56588,-5.051 0.44889,-0.2913 1.30638,-0.993 1.90558,-1.5592 0.84292,-0.7966 1.64321,-1.1322 3.53647,-1.4833 1.34578,-0.2495 2.85501,-0.5424 3.35371,-0.6508 0.49874,-0.1083 1.72286,0.095 2.72035,0.4524 0.99744,0.3572 2.56794,0.7951 3.48998,0.9731 1.25945,0.2431 1.90643,0.5898 2.60107,1.3938 0.50851,0.5886 1.04706,1.0701 1.19669,1.0701 0.66653,0 3.11967,2.31 3.81381,3.5912 0.77358,1.428 1.32131,3.7063 1.32131,5.496 0,0.5386 0.0816,1.0919 0.18133,1.2294 0.44956,0.6198 0.0894,2.0255 -1.30065,5.0769 -1.76492,3.8743 -2.00442,4.1904 -3.81708,5.0387 -0.76999,0.3604 -1.64406,0.9268 -1.9423,1.2587 -0.29827,0.332 -1.05567,0.7853 -1.6831,1.0075 -0.6274,0.2221 -1.50797,0.5769 -1.95682,0.7884 -1.04953,0.4946 -6.57819,0.3224 -9.15846,-0.2852 z"
         style="display:inline;fill:#000000" />
      <path
         sodipodi:nodetypes="cccccccccccc"
         inkscape:connector-curvature="0"
         id="path7663-9"
         d="m 635.08277,63.996827 c -3.28629,-1.133557 -6.33741,-3.200757 -9.31746,-5.316782 -0.99775,-1.357417 -1.84686,-2.934537 -2.7431,-4.396307 -0.49377,-1.76029 -0.58431,-3.914796 0.0983,-5.608861 0.88306,-1.691674 1.15674,-3.78638 2.07638,-5.454792 0.92665,-1.765825 1.98926,-3.702797 3.66336,-4.175017 2.32401,-0.726204 4.7264,-0.817383 7.08037,-1.312383 1.30711,-0.336957 2.64797,-0.08422 3.8408,0.712977 5.15621,1.343071 15.25482,13.060797 12.05679,19.674612 -0.99148,2.453908 -2.72478,4.672607 -4.85043,5.064433 -1.64572,-0.232622 -3.0933,0.71603 -4.65684,1.086615 -2.40105,0.371737 -4.86489,0.246391 -7.24818,-0.274495 z"
         style="display:inline;fill:#000000" />
      <path
         sodipodi:nodetypes="cccccccccccc"
         inkscape:connector-curvature="0"
         id="path7663-3"
         d="m 683.04838,38.390319 c 3.28629,1.133557 6.33741,3.200757 9.31746,5.316782 0.99775,1.357417 1.84686,2.934537 2.7431,4.396307 0.49377,1.76029 0.58431,3.914796 -0.0983,5.608861 -0.88306,1.691674 -1.15674,3.78638 -2.07638,5.454792 -0.92665,1.765825 -1.98926,3.702797 -3.66336,4.175017 -2.32401,0.726204 -4.7264,0.817383 -7.08037,1.312383 -1.30711,0.336957 -2.64797,0.08422 -3.8408,-0.712977 -5.15621,-1.343071 -15.25482,-13.060797 -12.05679,-19.674612 0.99148,-2.453908 2.72478,-4.672607 4.85043,-5.064433 1.64572,0.232622 3.0933,-0.71603 4.65684,-1.086615 2.40105,-0.371737 4.86489,-0.246391 7.24818,0.274495 z"
         style="display:inline;fill:#000000" />
    </g>
  </g>
</svg>
